<?xml version="1.0" standalone="no"?>
<!DOCTYPE svg PUBLIC "-//W3C//DTD SVG 1.1//EN" "http://www.w3.org/Graphics/SVG/1.1/DTD/svg11.dtd" >
<svg xmlns="http://www.w3.org/2000/svg" width="100%" height="100%">
<metadata>
Created by Ingo Preuss | PreussType
Copyright (c) 2016 by Hubert Jocham.
</metadata>
<defs>
<font id="Innogy-Bold" horiz-adv-x="1229" >
  <font-face 
    font-family="Innogy"
    font-weight="700"
    font-stretch="normal"
    units-per-em="2048"
    panose-1="2 11 8 3 4 0 0 2 0 3"
    ascent="1638"
    descent="-410"
    x-height="969"
    bbox="-879 -614 2138 1895"
    underline-thickness="102"
    underline-position="-103"
    unicode-range="U+0020-FB02"
  />
<missing-glyph horiz-adv-x="1026" 
d="M841 -369h-650v2051h650v-2051zM345 1545v-68h133v-76h-135v-68h340v68h-135v76h135v68h-338zM343 1280v-213h340v69h-135v144h-205zM478 1136h-68v74h68v-74zM343 1011v-67h135v-76h-135v-68h205v144h135v67h-340zM615 888v-135h-272v-70h340v205h-68zM478 638v-115h70
v47h67v-96h-205v164h-67v-232h340v232h-205zM343 283v-232h340v232h-340zM615 119h-205v97h205v-97zM343 4v-67h143l-143 -97v-67h340v67h-209l143 97h66v67h-340z" />
    <glyph glyph-name="fi" unicode="fi" horiz-adv-x="1245" 
d="M36 0zM761 1316v-48q0 -76 -56 -76h-46q-103 0 -154 -47t-51 -151v-25h226q57 0 57 -77v-29q0 -76 -57 -76h-226v-716q0 -71 -109 -71h-55q-60 0 -84 19t-24 52v716h-88q-58 0 -58 76v29q0 77 58 77h88v27q0 123 47.5 212t141 137t228.5 48h106q56 0 56 -77zM902 1165.5
q-41 39.5 -41 106.5q0 64 41 103t106 39q64 0 105 -39t41 -103q0 -67 -40.5 -106.5t-105.5 -39.5t-106 39.5zM895.5 19.5q-23.5 19.5 -23.5 51.5v827q0 32 23.5 51.5t83.5 19.5h56q108 0 108 -71v-827q0 -71 -108 -71h-56q-60 0 -83.5 19.5z" />
    <glyph glyph-name="fl" unicode="fl" horiz-adv-x="1245" 
d="M36 0zM761 1316v-48q0 -76 -56 -76h-46q-103 0 -154 -47t-51 -151v-25h226q57 0 57 -77v-29q0 -76 -57 -76h-226v-716q0 -71 -109 -71h-55q-60 0 -84 19t-24 52v716h-88q-58 0 -58 76v29q0 77 58 77h88v27q0 123 47.5 212t141 137t228.5 48h106q56 0 56 -77zM895.5 19.5
q-23.5 19.5 -23.5 51.5v1251q0 32 23.5 51.5t83.5 19.5h56q108 0 108 -71v-1251q0 -71 -108 -71h-56q-60 0 -83.5 19.5z" />
    <glyph glyph-name=".notdef" horiz-adv-x="1026" 
d="M841 -369h-650v2051h650v-2051zM345 1545v-68h133v-76h-135v-68h340v68h-135v76h135v68h-338zM343 1280v-213h340v69h-135v144h-205zM478 1136h-68v74h68v-74zM343 1011v-67h135v-76h-135v-68h205v144h135v67h-340zM615 888v-135h-272v-70h340v205h-68zM478 638v-115h70
v47h67v-96h-205v164h-67v-232h340v232h-205zM343 283v-232h340v232h-340zM615 119h-205v97h205v-97zM343 4v-67h143l-143 -97v-67h340v67h-209l143 97h66v67h-340z" />
    <glyph glyph-name="space" unicode=" " horiz-adv-x="490" 
 />
    <glyph glyph-name="A" unicode="A" horiz-adv-x="1415" 
d="M1348 61q0 -61 -108 -61h-71q-69 0 -102 23.5t-42 62.5l-85 288h-482l-87 -288q-21 -86 -145 -86h-52q-107 0 -107 61q0 7 4 25l376 1124q22 73 52.5 117t77.5 65t117 21h33q95 0 152.5 -47.5t89.5 -152.5l375 -1127q4 -12 4 -25zM882 572l-164 555q-4 16 -17 16t-17 -16
l-167 -555h365z" />
    <glyph glyph-name="Aacute" unicode="&#xc1;" horiz-adv-x="1415" 
d="M67 0zM1348 61q0 -61 -108 -61h-71q-69 0 -102 23.5t-42 62.5l-85 288h-482l-87 -288q-21 -86 -145 -86h-52q-107 0 -107 61q0 7 4 25l376 1124q22 73 52.5 117t77.5 65t117 21h33q95 0 152.5 -47.5t89.5 -152.5l375 -1127q4 -12 4 -25zM882 572l-164 555q-4 16 -17 16
t-17 -16l-167 -555h365zM586 1502q-15 12 -15 31q0 25 26 52l129 138q22 24 44.5 36t52.5 12h95q32 0 50.5 -13.5t18.5 -34.5q0 -26 -28 -51l-128 -113q-42 -37 -75 -53t-71 -16h-60q-24 0 -39 12z" />
    <glyph glyph-name="Abreve" unicode="&#x102;" horiz-adv-x="1415" 
d="M67 0zM1348 61q0 -61 -108 -61h-71q-69 0 -102 23.5t-42 62.5l-85 288h-482l-87 -288q-21 -86 -145 -86h-52q-107 0 -107 61q0 7 4 25l376 1124q22 73 52.5 117t77.5 65t117 21h33q95 0 152.5 -47.5t89.5 -152.5l375 -1127q4 -12 4 -25zM882 572l-164 555q-4 16 -17 16
t-17 -16l-167 -555h365zM521.5 1510.5q-76.5 34.5 -115 94.5t-38.5 136q0 48 18 74t45 26q22 0 35.5 -15t29.5 -46q20 -40 40.5 -65.5t62.5 -44.5t109 -19t109 19t62.5 44.5t40.5 65.5q16 31 29.5 46t35.5 15q27 0 45 -26t18 -74q0 -76 -38.5 -136t-115 -94.5t-186.5 -34.5
t-186.5 34.5z" />
    <glyph glyph-name="Acircumflex" unicode="&#xc2;" horiz-adv-x="1415" 
d="M67 0zM1348 61q0 -61 -108 -61h-71q-69 0 -102 23.5t-42 62.5l-85 288h-482l-87 -288q-21 -86 -145 -86h-52q-107 0 -107 61q0 7 4 25l376 1124q22 73 52.5 117t77.5 65t117 21h33q95 0 152.5 -47.5t89.5 -152.5l375 -1127q4 -12 4 -25zM882 572l-164 555q-4 16 -17 16
t-17 -16l-167 -555h365zM1028 1538q0 -20 -17 -32.5t-48 -12.5h-34q-36 0 -59 7t-43.5 24t-52.5 52l-69 76l-70 -76q-32 -36 -52 -52.5t-42.5 -23.5t-58.5 -7h-30q-32 0 -50 13t-18 34q0 23 24 50l127 134q22 25 44.5 36t51.5 11h148q29 0 52 -11.5t44 -35.5l127 -134
q26 -26 26 -52z" />
    <glyph glyph-name="Adieresis" unicode="&#xc4;" horiz-adv-x="1415" 
d="M67 0zM1348 61q0 -61 -108 -61h-71q-69 0 -102 23.5t-42 62.5l-85 288h-482l-87 -288q-21 -86 -145 -86h-52q-107 0 -107 61q0 7 4 25l376 1124q22 73 52.5 117t77.5 65t117 21h33q95 0 152.5 -47.5t89.5 -152.5l375 -1127q4 -12 4 -25zM882 572l-164 555q-4 16 -17 16
t-17 -16l-167 -555h365zM438.5 1533.5q-37.5 36.5 -37.5 98.5q0 59 37.5 95t98.5 36q60 0 97 -35.5t37 -95.5q0 -62 -37 -98.5t-97 -36.5q-61 0 -98.5 36.5zM783 1533.5q-37 36.5 -37 98.5q0 60 37.5 95.5t97.5 35.5t97 -35.5t37 -95.5q0 -62 -37 -98.5t-97 -36.5
q-61 0 -98 36.5z" />
    <glyph glyph-name="Agrave" unicode="&#xc0;" horiz-adv-x="1415" 
d="M67 0zM1348 61q0 -61 -108 -61h-71q-69 0 -102 23.5t-42 62.5l-85 288h-482l-87 -288q-21 -86 -145 -86h-52q-107 0 -107 61q0 7 4 25l376 1124q22 73 52.5 117t77.5 65t117 21h33q95 0 152.5 -47.5t89.5 -152.5l375 -1127q4 -12 4 -25zM882 572l-164 555q-4 16 -17 16
t-17 -16l-167 -555h365zM730 1490q-38 0 -71.5 16t-75.5 53l-128 113q-28 25 -28 51q0 21 18.5 34.5t50.5 13.5h94q30 0 53 -12t45 -36l128 -138q26 -27 26 -53q0 -19 -14 -30.5t-38 -11.5h-60z" />
    <glyph glyph-name="Amacron" unicode="&#x100;" horiz-adv-x="1415" 
d="M67 0zM1348 61q0 -61 -108 -61h-71q-69 0 -102 23.5t-42 62.5l-85 288h-482l-87 -288q-21 -86 -145 -86h-52q-107 0 -107 61q0 7 4 25l376 1124q22 73 52.5 117t77.5 65t117 21h33q95 0 152.5 -47.5t89.5 -152.5l375 -1127q4 -12 4 -25zM882 572l-164 555q-4 16 -17 16
t-17 -16l-167 -555h365zM381 1630v29q0 77 57 77h540q57 0 57 -77v-29q0 -42 -15.5 -59t-41.5 -17h-540q-57 0 -57 76z" />
    <glyph glyph-name="Aogonek" unicode="&#x104;" horiz-adv-x="1415" 
d="M1413.5 -179.5q10.5 -11.5 10.5 -32.5q0 -37 -34.5 -69t-91.5 -50.5t-119 -18.5q-95 0 -149 40t-54 115q0 66 49 117.5t118 78.5q-56 4 -82.5 26.5t-35.5 58.5l-85 288h-482l-87 -288q-21 -86 -145 -86h-52q-107 0 -107 61q0 7 4 25l376 1124q22 73 52.5 117t77.5 65
t117 21h33q95 0 152.5 -47.5t89.5 -152.5l375 -1127q4 -12 4 -25q0 -35 -35 -50q-69 -27 -113.5 -67t-44.5 -89q0 -31 18.5 -46.5t57.5 -15.5q28 0 49.5 6t49.5 18q14 6 28 10.5t25 4.5q20 0 30.5 -11.5zM882 572l-164 555q-4 16 -17 16t-17 -16l-167 -555h365z" />
    <glyph glyph-name="Aring" unicode="&#xc5;" horiz-adv-x="1415" 
d="M67 0zM1348 61q0 -61 -108 -61h-71q-69 0 -102 23.5t-42 62.5l-85 288h-482l-87 -288q-21 -86 -145 -86h-52q-107 0 -107 61q0 7 4 25l376 1124q22 73 52.5 117t77.5 65t117 21h33q95 0 152.5 -47.5t89.5 -152.5l375 -1127q4 -12 4 -25zM882 572l-164 555q-4 16 -17 16
t-17 -16l-167 -555h365zM582 1487q-55 28 -85.5 77.5t-30.5 111.5q0 63 30.5 113t85.5 78t125 28q71 0 125.5 -28t84.5 -78t30 -113q0 -62 -30 -111.5t-84.5 -77.5t-125.5 -28q-70 0 -125 28zM779.5 1606.5q27.5 27.5 27.5 70.5q0 42 -27.5 70t-70.5 28q-44 0 -71 -27.5
t-27 -70.5q0 -44 27 -71t71 -27q43 0 70.5 27.5z" />
    <glyph glyph-name="Atilde" unicode="&#xc3;" horiz-adv-x="1415" 
d="M67 0zM1348 61q0 -61 -108 -61h-71q-69 0 -102 23.5t-42 62.5l-85 288h-482l-87 -288q-21 -86 -145 -86h-52q-107 0 -107 61q0 7 4 25l376 1124q22 73 52.5 117t77.5 65t117 21h33q95 0 152.5 -47.5t89.5 -152.5l375 -1127q4 -12 4 -25zM882 572l-164 555q-4 16 -17 16
t-17 -16l-167 -555h365zM360.5 1531.5q-19.5 24.5 -19.5 70.5q0 49 24.5 91t74 67t119.5 25q61 0 101.5 -15.5t93.5 -45.5q36 -22 61.5 -32.5t55.5 -10.5q36 0 51 14.5t29 42.5q11 24 22 35.5t35 11.5q27 0 46.5 -24.5t19.5 -69.5q0 -49 -24.5 -91t-73.5 -67.5t-119 -25.5
q-58 0 -97 15t-88 44q-38 23 -65.5 34.5t-63.5 11.5t-51.5 -14.5t-28.5 -43.5q-11 -24 -22 -35.5t-34 -11.5q-27 0 -46.5 24.5z" />
    <glyph glyph-name="AE" unicode="&#xc6;" horiz-adv-x="1977" 
d="M1231 1176v-368h490q63 0 63 -86v-31q0 -85 -63 -85h-490v-354q0 -35 46 -35h541q67 0 67 -92v-34q0 -51 -18 -71t-49 -20h-678q-107 0 -156.5 40.5t-49.5 118.5v218h-446l-117 -301q-26 -86 -149 -86h-52q-105 0 -105 57q0 14 6 29l465 1118q38 106 96 152.5t162 46.5
h1024q67 0 67 -92v-35q0 -90 -67 -90h-587zM934 572v602h-120q-8 0 -13 -3.5t-9 -13.5l-228 -585h370z" />
    <glyph glyph-name="B" unicode="B" horiz-adv-x="1285" 
d="M1130.5 612q67.5 -80 67.5 -223q0 -187 -111 -288t-325 -101h-444q-107 0 -156.5 40.5t-49.5 118.5v1074q0 78 49.5 119t156.5 41h428q204 0 306 -86.5t102 -266.5q0 -122 -57 -202.5t-162 -115.5q128 -30 195.5 -110zM404 1151v-355h242q121 0 174 51t53 150
q0 69 -21 110t-68.5 60t-130.5 19h-204q-45 0 -45 -35zM846 255q53 53 53 160q0 104 -57.5 156t-186.5 52h-251v-386q0 -35 45 -35h222q122 0 175 53z" />
    <glyph glyph-name="C" unicode="C" horiz-adv-x="1295" 
d="M389 59q-145 79 -221 234.5t-76 382.5v41q0 227 76 382.5t221 234.5t351 79q164 0 342 -58l89 -33q23 -8 33.5 -20t10.5 -33q0 -17 -6 -41l-16 -58q-10 -35 -21 -49.5t-29 -14.5q-11 0 -22 4l-74 25q-64 21 -121.5 31t-119.5 10q-392 0 -392 -459v-41q0 -459 392 -459
q62 0 119.5 10t121.5 31l74 25q11 4 22 4q18 0 29 -15t21 -50l16 -57q6 -24 6 -41q0 -21 -10.5 -33.5t-33.5 -20.5l-89 -32q-172 -58 -342 -58q-206 0 -351 79z" />
    <glyph glyph-name="Cacute" unicode="&#x106;" horiz-adv-x="1295" 
d="M92 0zM389 59q-145 79 -221 234.5t-76 382.5v41q0 227 76 382.5t221 234.5t351 79q164 0 342 -58l89 -33q23 -8 33.5 -20t10.5 -33q0 -17 -6 -41l-16 -58q-10 -35 -21 -49.5t-29 -14.5q-11 0 -22 4l-74 25q-64 21 -121.5 31t-119.5 10q-392 0 -392 -459v-41
q0 -459 392 -459q62 0 119.5 10t121.5 31l74 25q11 4 22 4q18 0 29 -15t21 -50l16 -57q6 -24 6 -41q0 -21 -10.5 -33.5t-33.5 -20.5l-89 -32q-172 -58 -342 -58q-206 0 -351 79zM615 1502q-15 12 -15 31q0 25 26 52l129 138q22 24 44.5 36t52.5 12h95q32 0 50.5 -13.5
t18.5 -34.5q0 -26 -28 -51l-128 -113q-42 -37 -75 -53t-71 -16h-60q-24 0 -39 12z" />
    <glyph glyph-name="Ccaron" unicode="&#x10c;" horiz-adv-x="1295" 
d="M92 0zM389 59q-145 79 -221 234.5t-76 382.5v41q0 227 76 382.5t221 234.5t351 79q164 0 342 -58l89 -33q23 -8 33.5 -20t10.5 -33q0 -17 -6 -41l-16 -58q-10 -35 -21 -49.5t-29 -14.5q-11 0 -22 4l-74 25q-64 21 -121.5 31t-119.5 10q-392 0 -392 -459v-41
q0 -459 392 -459q62 0 119.5 10t121.5 31l74 25q11 4 22 4q18 0 29 -15t21 -50l16 -57q6 -24 6 -41q0 -21 -10.5 -33.5t-33.5 -20.5l-89 -32q-172 -58 -342 -58q-206 0 -351 79zM1040 1758.5q17 -12.5 17 -32.5q0 -26 -26 -53l-127 -134q-21 -24 -44 -35t-52 -11h-148
q-29 0 -51.5 11t-44.5 35l-127 134q-24 27 -24 51q0 21 18 34t50 13h30q36 0 58.5 -6.5t42 -23t52.5 -53.5l70 -77l69 77q32 35 52.5 52t43.5 24t59 7h34q31 0 48 -12.5z" />
    <glyph glyph-name="Ccedilla" unicode="&#xc7;" horiz-adv-x="1295" 
d="M1209 165q6 -24 6 -41q0 -21 -10.5 -33.5t-33.5 -20.5l-89 -32q-144 -48 -287 -56l-11 -19q-10 -18 -10 -32q0 -18 16 -27t49 -18q39 -11 64 -23t43.5 -39t18.5 -73q0 -79 -66 -123t-189 -44q-63 0 -117 18.5t-86.5 48t-32.5 61.5q0 21 10 32t29 11q11 0 25.5 -5
t28.5 -12q32 -14 58 -22t62 -8q97 0 97 56q0 25 -18.5 37t-56.5 24q-42 13 -63.5 27.5t-21.5 46.5q0 28 20 59l15 25q-274 23 -420.5 199t-146.5 494v41q0 227 76 382.5t221 234.5t351 79q164 0 342 -58l89 -33q23 -8 33.5 -20t10.5 -33q0 -17 -6 -41l-16 -58
q-10 -35 -21 -49.5t-29 -14.5q-11 0 -22 4l-74 25q-64 21 -121.5 31t-119.5 10q-392 0 -392 -459v-41q0 -459 392 -459q62 0 119.5 10t121.5 31l74 25q11 4 22 4q18 0 29 -15t21 -50z" />
    <glyph glyph-name="Cdotaccent" unicode="&#x10a;" horiz-adv-x="1295" 
d="M92 0zM389 59q-145 79 -221 234.5t-76 382.5v41q0 227 76 382.5t221 234.5t351 79q164 0 342 -58l89 -33q23 -8 33.5 -20t10.5 -33q0 -17 -6 -41l-16 -58q-10 -35 -21 -49.5t-29 -14.5q-11 0 -22 4l-74 25q-64 21 -121.5 31t-119.5 10q-392 0 -392 -459v-41
q0 -459 392 -459q62 0 119.5 10t121.5 31l74 25q11 4 22 4q18 0 29 -15t21 -50l16 -57q6 -24 6 -41q0 -21 -10.5 -33.5t-33.5 -20.5l-89 -32q-172 -58 -342 -58q-206 0 -351 79zM625.5 1538.5q-42.5 41.5 -42.5 111.5q0 68 42.5 109t111.5 41q68 0 110.5 -41t42.5 -109
q0 -70 -42.5 -111.5t-110.5 -41.5q-69 0 -111.5 41.5z" />
    <glyph glyph-name="C.ss01" horiz-adv-x="1295" 
d="M389 59q-145 79 -221 234.5t-76 382.5v41q0 227 76 382.5t221 234.5t351 79q164 0 342 -58l89 -33q23 -7 33 -19.5t10 -33.5q0 -14 -5 -41l-16 -67q-8 -34 -19.5 -49t-29.5 -15q-7 0 -23 4l-74 25q-66 20 -123 30.5t-118 10.5q-397 0 -397 -450v-41q0 -450 397 -450
q61 0 118 10.5t123 30.5l74 25q16 4 22 4q19 0 30.5 -15t19.5 -50l16 -66q5 -27 5 -41q0 -21 -10 -33.5t-33 -20.5l-89 -32q-172 -58 -342 -58q-206 0 -351 79z" />
    <glyph glyph-name="C.ss02" horiz-adv-x="1295" 
d="M386 59q-144 79 -219 235t-75 382v41q0 226 75.5 382t220 235t349.5 79q137 0 243 -27.5t174 -69.5q45 -28 45 -66v-137q0 -19 -7 -29t-20 -10q-10 0 -26 8q-76 38 -159 61.5t-181 23.5q-397 0 -397 -450v-41q0 -450 397 -450q98 0 181 23.5t159 61.5q16 8 26 8
q13 0 20 -10t7 -29v-138q0 -38 -45 -66q-68 -42 -174 -69t-245 -27q-205 0 -349 79z" />
    <glyph glyph-name="D" unicode="D" horiz-adv-x="1364" 
d="M161.5 40.5q-49.5 40.5 -49.5 118.5v1074q0 78 49.5 119t156.5 41h329q314 0 469.5 -171.5t155.5 -504.5v-41q0 -218 -72.5 -369t-212.5 -229t-342 -78h-327q-107 0 -156.5 40.5zM611 218q184 0 270.5 113t86.5 345v41q0 235 -86 346t-273 111h-152q-46 0 -46 -35v-886
q0 -35 46 -35h154z" />
    <glyph glyph-name="Eth" unicode="&#xd0;" horiz-adv-x="1364" 
d="M1116.5 1221.5q155.5 -171.5 155.5 -504.5v-41q0 -218 -72.5 -369t-212.5 -229t-342 -78h-327q-107 0 -156.5 40.5t-49.5 118.5v449h-51q-61 0 -61 82v31q0 82 61 82h51v430q0 78 49.5 119t156.5 41h329q314 0 469.5 -171.5zM968 717q0 235 -86 346t-273 111h-152
q-46 0 -46 -35v-336h281q61 0 61 -82v-31q0 -82 -61 -82h-281v-355q0 -35 46 -35h154q184 0 270.5 113t86.5 345v41z" />
    <glyph glyph-name="Dcaron" unicode="&#x10e;" horiz-adv-x="1364" 
d="M112 0zM161.5 40.5q-49.5 40.5 -49.5 118.5v1074q0 78 49.5 119t156.5 41h329q314 0 469.5 -171.5t155.5 -504.5v-41q0 -218 -72.5 -369t-212.5 -229t-342 -78h-327q-107 0 -156.5 40.5zM611 218q184 0 270.5 113t86.5 345v41q0 235 -86 346t-273 111h-152q-46 0 -46 -35
v-886q0 -35 46 -35h154zM953 1758.5q17 -12.5 17 -32.5q0 -26 -26 -53l-127 -134q-21 -24 -44 -35t-52 -11h-148q-29 0 -51.5 11t-44.5 35l-127 134q-24 27 -24 51q0 21 18 34t50 13h30q36 0 58.5 -6.5t42 -23t52.5 -53.5l70 -77l69 77q32 35 52.5 52t43.5 24t59 7h34
q31 0 48 -12.5z" />
    <glyph glyph-name="Dcroat" unicode="&#x110;" horiz-adv-x="1364" 
d="M0 0zM1116.5 1221.5q155.5 -171.5 155.5 -504.5v-41q0 -218 -72.5 -369t-212.5 -229t-342 -78h-327q-107 0 -156.5 40.5t-49.5 118.5v449h-51q-61 0 -61 82v31q0 82 61 82h51v430q0 78 49.5 119t156.5 41h329q314 0 469.5 -171.5zM968 717q0 235 -86 346t-273 111h-152
q-46 0 -46 -35v-336h281q61 0 61 -82v-31q0 -82 -61 -82h-281v-355q0 -35 46 -35h154q184 0 270.5 113t86.5 345v41z" />
    <glyph glyph-name="E" unicode="E" horiz-adv-x="1149" 
d="M417 1140v-332h482q63 0 63 -86v-32q0 -85 -63 -85h-482v-353q0 -35 45 -35h534q67 0 67 -92v-34q0 -51 -18 -71t-49 -20h-678q-107 0 -156.5 40.5t-49.5 118.5v1074q0 78 49.5 119t156.5 41h678q67 0 67 -92v-35q0 -90 -67 -90h-534q-45 0 -45 -36z" />
    <glyph glyph-name="Eacute" unicode="&#xc9;" horiz-adv-x="1149" 
d="M112 0zM417 1140v-332h482q63 0 63 -86v-32q0 -85 -63 -85h-482v-353q0 -35 45 -35h534q67 0 67 -92v-34q0 -51 -18 -71t-49 -20h-678q-107 0 -156.5 40.5t-49.5 118.5v1074q0 78 49.5 119t156.5 41h678q67 0 67 -92v-35q0 -90 -67 -90h-534q-45 0 -45 -36zM474 1502
q-15 12 -15 31q0 25 26 52l129 138q22 24 44.5 36t52.5 12h95q32 0 50.5 -13.5t18.5 -34.5q0 -26 -28 -51l-128 -113q-42 -37 -75 -53t-71 -16h-60q-24 0 -39 12z" />
    <glyph glyph-name="Ecaron" unicode="&#x11a;" horiz-adv-x="1149" 
d="M112 0zM417 1140v-332h482q63 0 63 -86v-32q0 -85 -63 -85h-482v-353q0 -35 45 -35h534q67 0 67 -92v-34q0 -51 -18 -71t-49 -20h-678q-107 0 -156.5 40.5t-49.5 118.5v1074q0 78 49.5 119t156.5 41h678q67 0 67 -92v-35q0 -90 -67 -90h-534q-45 0 -45 -36zM899 1758.5
q17 -12.5 17 -32.5q0 -26 -26 -53l-127 -134q-21 -24 -44 -35t-52 -11h-148q-29 0 -51.5 11t-44.5 35l-127 134q-24 27 -24 51q0 21 18 34t50 13h30q36 0 58.5 -6.5t42 -23t52.5 -53.5l70 -77l69 77q32 35 52.5 52t43.5 24t59 7h34q31 0 48 -12.5z" />
    <glyph glyph-name="Ecircumflex" unicode="&#xca;" horiz-adv-x="1149" 
d="M112 0zM417 1140v-332h482q63 0 63 -86v-32q0 -85 -63 -85h-482v-353q0 -35 45 -35h534q67 0 67 -92v-34q0 -51 -18 -71t-49 -20h-678q-107 0 -156.5 40.5t-49.5 118.5v1074q0 78 49.5 119t156.5 41h678q67 0 67 -92v-35q0 -90 -67 -90h-534q-45 0 -45 -36zM916 1538
q0 -20 -17 -32.5t-48 -12.5h-34q-36 0 -59 7t-43.5 24t-52.5 52l-69 76l-70 -76q-32 -36 -52 -52.5t-42.5 -23.5t-58.5 -7h-30q-32 0 -50 13t-18 34q0 23 24 50l127 134q22 25 44.5 36t51.5 11h148q29 0 52 -11.5t44 -35.5l127 -134q26 -26 26 -52z" />
    <glyph glyph-name="Edieresis" unicode="&#xcb;" horiz-adv-x="1149" 
d="M112 0zM417 1140v-332h482q63 0 63 -86v-32q0 -85 -63 -85h-482v-353q0 -35 45 -35h534q67 0 67 -92v-34q0 -51 -18 -71t-49 -20h-678q-107 0 -156.5 40.5t-49.5 118.5v1074q0 78 49.5 119t156.5 41h678q67 0 67 -92v-35q0 -90 -67 -90h-534q-45 0 -45 -36zM326.5 1533.5
q-37.5 36.5 -37.5 98.5q0 59 37.5 95t98.5 36q60 0 97 -35.5t37 -95.5q0 -62 -37 -98.5t-97 -36.5q-61 0 -98.5 36.5zM671 1533.5q-37 36.5 -37 98.5q0 60 37.5 95.5t97.5 35.5t97 -35.5t37 -95.5q0 -62 -37 -98.5t-97 -36.5q-61 0 -98 36.5z" />
    <glyph glyph-name="Edotaccent" unicode="&#x116;" horiz-adv-x="1149" 
d="M112 0zM417 1140v-332h482q63 0 63 -86v-32q0 -85 -63 -85h-482v-353q0 -35 45 -35h534q67 0 67 -92v-34q0 -51 -18 -71t-49 -20h-678q-107 0 -156.5 40.5t-49.5 118.5v1074q0 78 49.5 119t156.5 41h678q67 0 67 -92v-35q0 -90 -67 -90h-534q-45 0 -45 -36zM484.5 1538.5
q-42.5 41.5 -42.5 111.5q0 68 42.5 109t111.5 41q68 0 110.5 -41t42.5 -109q0 -70 -42.5 -111.5t-110.5 -41.5q-69 0 -111.5 41.5z" />
    <glyph glyph-name="Egrave" unicode="&#xc8;" horiz-adv-x="1149" 
d="M112 0zM417 1140v-332h482q63 0 63 -86v-32q0 -85 -63 -85h-482v-353q0 -35 45 -35h534q67 0 67 -92v-34q0 -51 -18 -71t-49 -20h-678q-107 0 -156.5 40.5t-49.5 118.5v1074q0 78 49.5 119t156.5 41h678q67 0 67 -92v-35q0 -90 -67 -90h-534q-45 0 -45 -36zM618 1490
q-38 0 -71.5 16t-75.5 53l-128 113q-28 25 -28 51q0 21 18.5 34.5t50.5 13.5h94q30 0 53 -12t45 -36l128 -138q26 -27 26 -53q0 -19 -14 -30.5t-38 -11.5h-60z" />
    <glyph glyph-name="Emacron" unicode="&#x112;" horiz-adv-x="1149" 
d="M112 0zM417 1140v-332h482q63 0 63 -86v-32q0 -85 -63 -85h-482v-353q0 -35 45 -35h534q67 0 67 -92v-34q0 -51 -18 -71t-49 -20h-678q-107 0 -156.5 40.5t-49.5 118.5v1074q0 78 49.5 119t156.5 41h678q67 0 67 -92v-35q0 -90 -67 -90h-534q-45 0 -45 -36zM269 1630v29
q0 77 57 77h540q57 0 57 -77v-29q0 -42 -15.5 -59t-41.5 -17h-540q-57 0 -57 76z" />
    <glyph glyph-name="Eogonek" unicode="&#x118;" horiz-adv-x="1149" 
d="M1120.5 -186.5q10.5 -11.5 10.5 -32.5q0 -37 -34.5 -69t-91.5 -50.5t-119 -18.5q-95 0 -149 40t-54 115q0 71 54.5 124t128.5 78h-548q-107 0 -156.5 40.5t-49.5 118.5v1074q0 78 49.5 119t156.5 41h678q67 0 67 -92v-35q0 -90 -67 -90h-534q-45 0 -45 -36v-332h482
q63 0 63 -86v-32q0 -85 -63 -85h-482v-353q0 -35 45 -35h534q67 0 67 -92v-34q0 -78 -48 -89q-67 -27 -110 -66t-43 -88q0 -31 18.5 -46.5t57.5 -15.5q28 0 49.5 6t49.5 18q14 6 28 10.5t25 4.5q20 0 30.5 -11.5z" />
    <glyph glyph-name="F" unicode="F" horiz-adv-x="1126" 
d="M1059 1301v-35q0 -90 -67 -90h-533q-46 0 -46 -36v-358h484q63 0 63 -86v-38q0 -84 -63 -84h-484v-494q0 -36 -27 -58t-96 -22h-55q-123 0 -123 80v1153q0 78 49.5 119t156.5 41h674q67 0 67 -92z" />
    <glyph glyph-name="G" unicode="G" horiz-adv-x="1387" 
d="M267 155q-176 174 -176 521v41q0 226 78.5 381.5t229 235t364.5 79.5q105 0 192.5 -15t167.5 -43l90 -33q23 -7 33 -19.5t10 -33.5q0 -14 -5 -41l-16 -62q-8 -35 -19 -50t-30 -15q-11 0 -23 4l-73 25q-71 22 -132.5 34t-128.5 12q-202 0 -309 -114.5t-107 -344.5v-41
q0 -239 103.5 -348.5t302.5 -109.5q52 0 94 9t68.5 19.5t26.5 11.5v432q0 33 24.5 52.5t86.5 19.5h51q63 0 87.5 -19.5t24.5 -52.5v-458q0 -53 -17 -89.5t-59 -60.5q-186 -101 -443 -101q-320 0 -496 174z" />
    <glyph glyph-name="Gbreve" unicode="&#x11e;" horiz-adv-x="1387" 
d="M91 0zM267 155q-176 174 -176 521v41q0 226 78.5 381.5t229 235t364.5 79.5q105 0 192.5 -15t167.5 -43l90 -33q23 -7 33 -19.5t10 -33.5q0 -14 -5 -41l-16 -62q-8 -35 -19 -50t-30 -15q-11 0 -23 4l-73 25q-71 22 -132.5 34t-128.5 12q-202 0 -309 -114.5t-107 -344.5
v-41q0 -239 103.5 -348.5t302.5 -109.5q52 0 94 9t68.5 19.5t26.5 11.5v432q0 33 24.5 52.5t86.5 19.5h51q63 0 87.5 -19.5t24.5 -52.5v-458q0 -53 -17 -89.5t-59 -60.5q-186 -101 -443 -101q-320 0 -496 174zM569.5 1510.5q-76.5 34.5 -115 94.5t-38.5 136q0 48 18 74
t45 26q22 0 35.5 -15t29.5 -46q20 -40 40.5 -65.5t62.5 -44.5t109 -19t109 19t62.5 44.5t40.5 65.5q16 31 29.5 46t35.5 15q27 0 45 -26t18 -74q0 -76 -38.5 -136t-115 -94.5t-186.5 -34.5t-186.5 34.5z" />
    <glyph glyph-name="Gcommaaccent" unicode="&#x122;" horiz-adv-x="1387" 
d="M91 0zM267 155q-176 174 -176 521v41q0 226 78.5 381.5t229 235t364.5 79.5q105 0 192.5 -15t167.5 -43l90 -33q23 -7 33 -19.5t10 -33.5q0 -14 -5 -41l-16 -62q-8 -35 -19 -50t-30 -15q-11 0 -23 4l-73 25q-71 22 -132.5 34t-128.5 12q-202 0 -309 -114.5t-107 -344.5
v-41q0 -239 103.5 -348.5t302.5 -109.5q52 0 94 9t68.5 19.5t26.5 11.5v432q0 33 24.5 52.5t86.5 19.5h51q63 0 87.5 -19.5t24.5 -52.5v-458q0 -53 -17 -89.5t-59 -60.5q-186 -101 -443 -101q-320 0 -496 174zM591 -429.5q-16 15.5 -16 43.5q0 12 3 27l48 195q7 34 29.5 52
t58.5 18h83q34 0 53 -15.5t19 -42.5q0 -14 -6 -32l-58 -169q-33 -92 -95 -92h-74q-29 0 -45 15.5z" />
    <glyph glyph-name="Gdotaccent" unicode="&#x120;" horiz-adv-x="1387" 
d="M91 0zM267 155q-176 174 -176 521v41q0 226 78.5 381.5t229 235t364.5 79.5q105 0 192.5 -15t167.5 -43l90 -33q23 -7 33 -19.5t10 -33.5q0 -14 -5 -41l-16 -62q-8 -35 -19 -50t-30 -15q-11 0 -23 4l-73 25q-71 22 -132.5 34t-128.5 12q-202 0 -309 -114.5t-107 -344.5
v-41q0 -239 103.5 -348.5t302.5 -109.5q52 0 94 9t68.5 19.5t26.5 11.5v432q0 33 24.5 52.5t86.5 19.5h51q63 0 87.5 -19.5t24.5 -52.5v-458q0 -53 -17 -89.5t-59 -60.5q-186 -101 -443 -101q-320 0 -496 174zM644.5 1538.5q-42.5 41.5 -42.5 111.5q0 68 42.5 109t111.5 41
q68 0 110.5 -41t42.5 -109q0 -70 -42.5 -111.5t-110.5 -41.5q-69 0 -111.5 41.5z" />
    <glyph glyph-name="H" unicode="H" horiz-adv-x="1360" 
d="M1221 1371q27 -22 27 -58v-1233q0 -36 -27 -58t-96 -22h-59q-123 0 -123 80v532h-526v-532q0 -80 -123 -80h-59q-123 0 -123 80v1233q0 80 123 80h59q123 0 123 -80v-494h526v494q0 80 123 80h59q69 0 96 -22z" />
    <glyph glyph-name="Hbar" unicode="&#x126;" horiz-adv-x="1360" 
d="M1351 1163q19 -19 19 -54v-11q0 -35 -19 -54.5t-54 -19.5h-49v-944q0 -36 -27 -58t-96 -22h-59q-123 0 -123 80v532h-526v-532q0 -80 -123 -80h-59q-123 0 -123 80v944h-47q-35 0 -54.5 19.5t-19.5 54.5v11q0 35 19.5 54t54.5 19h47v131q0 80 123 80h59q123 0 123 -80
v-131h526v131q0 80 123 80h59q69 0 96 -22t27 -58v-131h49q35 0 54 -19zM943 1024h-526v-205h526v205z" />
    <glyph glyph-name="I" unicode="I" horiz-adv-x="529" 
d="M112 80v1233q0 80 123 80h60q122 0 122 -80v-1233q0 -80 -122 -80h-60q-123 0 -123 80z" />
    <glyph glyph-name="Iacute" unicode="&#xcd;" horiz-adv-x="529" 
d="M112 0zM112 80v1233q0 80 123 80h60q122 0 122 -80v-1233q0 -80 -122 -80h-60q-123 0 -123 80zM148 1502q-15 12 -15 31q0 25 26 52l129 138q22 24 44.5 36t52.5 12h95q32 0 50.5 -13.5t18.5 -34.5q0 -26 -28 -51l-128 -113q-42 -37 -75 -53t-71 -16h-60q-24 0 -39 12z
" />
    <glyph glyph-name="Icircumflex" unicode="&#xce;" horiz-adv-x="529" 
d="M0 0zM112 80v1233q0 80 123 80h60q122 0 122 -80v-1233q0 -80 -122 -80h-60q-123 0 -123 80zM590 1538q0 -20 -17 -32.5t-48 -12.5h-34q-36 0 -59 7t-43.5 24t-52.5 52l-69 76l-70 -76q-32 -36 -52 -52.5t-42.5 -23.5t-58.5 -7h-30q-32 0 -50 13t-18 34q0 23 24 50
l127 134q22 25 44.5 36t51.5 11h148q29 0 52 -11.5t44 -35.5l127 -134q26 -26 26 -52z" />
    <glyph glyph-name="Idieresis" unicode="&#xcf;" horiz-adv-x="529" 
d="M0 0zM112 80v1233q0 80 123 80h60q122 0 122 -80v-1233q0 -80 -122 -80h-60q-123 0 -123 80zM0.5 1533.5q-37.5 36.5 -37.5 98.5q0 59 37.5 95t98.5 36q60 0 97 -35.5t37 -95.5q0 -62 -37 -98.5t-97 -36.5q-61 0 -98.5 36.5zM345 1533.5q-37 36.5 -37 98.5
q0 60 37.5 95.5t97.5 35.5t97 -35.5t37 -95.5q0 -62 -37 -98.5t-97 -36.5q-61 0 -98 36.5z" />
    <glyph glyph-name="Idotaccent" unicode="&#x130;" horiz-adv-x="529" 
d="M112 0zM112 80v1233q0 80 123 80h60q122 0 122 -80v-1233q0 -80 -122 -80h-60q-123 0 -123 80zM158.5 1538.5q-42.5 41.5 -42.5 111.5q0 68 42.5 109t111.5 41q68 0 110.5 -41t42.5 -109q0 -70 -42.5 -111.5t-110.5 -41.5q-69 0 -111.5 41.5z" />
    <glyph glyph-name="Igrave" unicode="&#xcc;" horiz-adv-x="529" 
d="M0 0zM112 80v1233q0 80 123 80h60q122 0 122 -80v-1233q0 -80 -122 -80h-60q-123 0 -123 80zM292 1490q-38 0 -71.5 16t-75.5 53l-128 113q-28 25 -28 51q0 21 18.5 34.5t50.5 13.5h94q30 0 53 -12t45 -36l128 -138q26 -27 26 -53q0 -19 -14 -30.5t-38 -11.5h-60z" />
    <glyph glyph-name="Imacron" unicode="&#x12a;" horiz-adv-x="529" 
d="M0 0zM112 80v1233q0 80 123 80h60q122 0 122 -80v-1233q0 -80 -122 -80h-60q-123 0 -123 80zM-57 1630v29q0 77 57 77h540q57 0 57 -77v-29q0 -42 -15.5 -59t-41.5 -17h-540q-57 0 -57 76z" />
    <glyph glyph-name="Iogonek" unicode="&#x12e;" horiz-adv-x="529" 
d="M470.5 -178.5q10.5 -11.5 10.5 -32.5q0 -37 -34.5 -69t-91.5 -50.5t-119 -18.5q-95 0 -149 40t-54 115q0 66 49 117.5t118 78.5q-88 10 -88 78v1233q0 80 123 80h60q122 0 122 -80v-1233q0 -55 -57 -72q-65 -28 -106.5 -66.5t-41.5 -85.5q0 -31 18.5 -46.5t57.5 -15.5
q28 0 49.5 6t49.5 18q14 6 28 10.5t25 4.5q20 0 30.5 -11.5z" />
    <glyph glyph-name="IJ" unicode="&#x132;" horiz-adv-x="1272" 
d="M112 0zM112 80v1233q0 80 123 80h60q122 0 122 -80v-1233q0 -80 -122 -80h-60q-123 0 -123 80zM634 16q-50 36 -50 98v21q0 62 78 62q96 0 144.5 46t48.5 151v919q0 36 26 58t94 22h63q122 0 122 -80v-929q0 -134 -48 -224.5t-134 -135t-201 -44.5q-93 0 -143 36z" />
    <glyph glyph-name="J" unicode="J" horiz-adv-x="743" 
d="M105 16q-50 36 -50 98v21q0 62 78 62q96 0 144.5 46t48.5 151v919q0 36 26 58t94 22h63q122 0 122 -80v-929q0 -134 -48 -224.5t-134 -135t-201 -44.5q-93 0 -143 36z" />
    <glyph glyph-name="K" unicode="K" horiz-adv-x="1314" 
d="M417 1313v-1233q0 -80 -123 -80h-59q-123 0 -123 80v1233q0 80 123 80h59q123 0 123 -80zM1232 39q0 -39 -85 -39h-102q-70 0 -114 22.5t-63 59.5l-379 565q-13 22 -13 45q0 25 13 47l381 571q18 37 61.5 60t113.5 23h100q85 0 85 -40q0 -19 -16 -43l-447 -613l449 -615
q16 -26 16 -43z" />
    <glyph glyph-name="Kcommaaccent" unicode="&#x136;" horiz-adv-x="1315" 
d="M112 0zM1224 46q0 -46 -96 -46h-101q-69 0 -104.5 20.5t-52.5 57.5l-277 509l-176 -214v-293q0 -80 -123 -80h-59q-123 0 -123 80v1233q0 80 123 80h59q123 0 123 -80v-635l440 637q46 78 173 78h92q87 0 87 -39q0 -17 -17 -39l-398 -484l421 -753q9 -16 9 -32z
M486 -429.5q-16 15.5 -16 43.5q0 12 3 27l48 195q7 34 29.5 52t58.5 18h83q34 0 53 -15.5t19 -42.5q0 -14 -6 -32l-58 -169q-33 -92 -95 -92h-74q-29 0 -45 15.5z" />
    <glyph glyph-name="K.ss01" horiz-adv-x="1315" 
d="M1224 46q0 -46 -96 -46h-101q-69 0 -104.5 20.5t-52.5 57.5l-277 509l-176 -214v-293q0 -80 -123 -80h-59q-123 0 -123 80v1233q0 80 123 80h59q123 0 123 -80v-635l440 637q46 78 173 78h92q87 0 87 -39q0 -17 -17 -39l-398 -484l421 -753q9 -16 9 -32z" />
    <glyph glyph-name="L" unicode="L" horiz-adv-x="1094" 
d="M161.5 40.5q-49.5 40.5 -49.5 118.5v1154q0 80 123 80h59q123 0 123 -80v-1062q0 -35 45 -35h505q31 0 49 -20t18 -71v-33q0 -92 -67 -92h-649q-107 0 -156.5 40.5z" />
    <glyph glyph-name="Lacute" unicode="&#x139;" horiz-adv-x="1094" 
d="M112 0zM161.5 40.5q-49.5 40.5 -49.5 118.5v1154q0 80 123 80h59q123 0 123 -80v-1062q0 -35 45 -35h505q31 0 49 -20t18 -71v-33q0 -92 -67 -92h-649q-107 0 -156.5 40.5zM207 1502q-15 12 -15 31q0 25 26 52l129 138q22 24 44.5 36t52.5 12h95q32 0 50.5 -13.5
t18.5 -34.5q0 -26 -28 -51l-128 -113q-42 -37 -75 -53t-71 -16h-60q-24 0 -39 12z" />
    <glyph glyph-name="Lcaron" unicode="&#x13d;" horiz-adv-x="1094" 
d="M610 925q-18 16 -18 47q0 11 1 16l61 357q12 68 79 68h91q32 0 50 -15.5t18 -43.5q0 -14 -2 -22l-82 -358q-15 -65 -79 -65h-68q-33 0 -51 16zM161.5 40.5q-49.5 40.5 -49.5 118.5v1154q0 80 123 80h59q123 0 123 -80v-1062q0 -35 45 -35h505q31 0 49 -20t18 -71v-33
q0 -92 -67 -92h-649q-107 0 -156.5 40.5z" />
    <glyph glyph-name="Lcommaaccent" unicode="&#x13b;" horiz-adv-x="1094" 
d="M112 0zM161.5 40.5q-49.5 40.5 -49.5 118.5v1154q0 80 123 80h59q123 0 123 -80v-1062q0 -35 45 -35h505q31 0 49 -20t18 -71v-33q0 -92 -67 -92h-649q-107 0 -156.5 40.5zM396 -429.5q-16 15.5 -16 43.5q0 12 3 27l48 195q7 34 29.5 52t58.5 18h83q34 0 53 -15.5
t19 -42.5q0 -14 -6 -32l-58 -169q-33 -92 -95 -92h-74q-29 0 -45 15.5z" />
    <glyph glyph-name="Ldot" unicode="&#x13f;" horiz-adv-x="1094" 
d="M161.5 40.5q-49.5 40.5 -49.5 118.5v1154q0 80 123 80h59q123 0 123 -80v-1062q0 -35 45 -35h505q31 0 49 -20t18 -71v-33q0 -92 -67 -92h-649q-107 0 -156.5 40.5zM635 496.5q-37 36.5 -37 97.5q0 60 37 96t97 36t97.5 -36t37.5 -96q0 -61 -37.5 -97.5t-97.5 -36.5
t-97 36.5z" />
    <glyph glyph-name="Lslash" unicode="&#x141;" horiz-adv-x="1094" 
d="M1048 196q18 -20 18 -71v-33q0 -92 -67 -92h-649q-107 0 -156.5 40.5t-49.5 118.5v346l-18 -9q-24 -11 -42 -11q-24 0 -38 16.5t-14 46.5v49q0 66 59 93l53 26v597q0 80 123 80h59q123 0 123 -80v-450l281 135q21 10 42 10q24 0 38.5 -16.5t14.5 -46.5v-49q0 -65 -60 -92
l-316 -152v-401q0 -35 45 -35h505q31 0 49 -20z" />
    <glyph glyph-name="M" unicode="M" horiz-adv-x="1719" 
d="M1528 0h-39q-63 0 -86.5 20.5t-25.5 57.5l-62 1058q0 15 -14 15q-7 0 -13 -3.5t-7 -11.5l-219 -973q-14 -83 -64 -123t-131 -40h-21q-165 0 -195 163l-226 973q-2 15 -21 15q-13 0 -13 -15l-62 -1058q-2 -36 -25 -57t-82 -21h-36q-110 0 -106 78l65 1111q6 105 66.5 159
t164.5 54h27q104 0 168 -46t82 -151l207 -999l208 1002q16 98 81.5 146t168.5 48h30q103 0 161.5 -53.5t64.5 -159.5l65 -1111q4 -78 -111 -78z" />
    <glyph glyph-name="N" unicode="N" horiz-adv-x="1407" 
d="M135.5 21q-23.5 21 -23.5 57v1106q0 101 63.5 155t168.5 54h59q97 0 158 -46t92 -147l364 -940q5 -15 21 -15q13 0 13 15v1055q0 78 107 78h32q105 0 105 -78v-1106q0 -101 -61 -155t-166 -54h-63q-97 0 -157.5 45.5t-91.5 146.5l-366 940q-5 16 -20 16q-14 0 -14 -16
v-1054q0 -36 -23.5 -57t-83.5 -21h-31q-59 0 -82.5 21z" />
    <glyph glyph-name="Nacute" unicode="&#x143;" horiz-adv-x="1407" 
d="M112 0zM135.5 21q-23.5 21 -23.5 57v1106q0 101 63.5 155t168.5 54h59q97 0 158 -46t92 -147l364 -940q5 -15 21 -15q13 0 13 15v1055q0 78 107 78h32q105 0 105 -78v-1106q0 -101 -61 -155t-166 -54h-63q-97 0 -157.5 45.5t-91.5 146.5l-366 940q-5 16 -20 16
q-14 0 -14 -16v-1054q0 -36 -23.5 -57t-83.5 -21h-31q-59 0 -82.5 21zM615 1502q-15 12 -15 31q0 25 26 52l129 138q22 24 44.5 36t52.5 12h95q32 0 50.5 -13.5t18.5 -34.5q0 -26 -28 -51l-128 -113q-42 -37 -75 -53t-71 -16h-60q-24 0 -39 12z" />
    <glyph glyph-name="Ncaron" unicode="&#x147;" horiz-adv-x="1407" 
d="M112 0zM135.5 21q-23.5 21 -23.5 57v1106q0 101 63.5 155t168.5 54h59q97 0 158 -46t92 -147l364 -940q5 -15 21 -15q13 0 13 15v1055q0 78 107 78h32q105 0 105 -78v-1106q0 -101 -61 -155t-166 -54h-63q-97 0 -157.5 45.5t-91.5 146.5l-366 940q-5 16 -20 16
q-14 0 -14 -16v-1054q0 -36 -23.5 -57t-83.5 -21h-31q-59 0 -82.5 21zM1040 1758.5q17 -12.5 17 -32.5q0 -26 -26 -53l-127 -134q-21 -24 -44 -35t-52 -11h-148q-29 0 -51.5 11t-44.5 35l-127 134q-24 27 -24 51q0 21 18 34t50 13h30q36 0 58.5 -6.5t42 -23t52.5 -53.5
l70 -77l69 77q32 35 52.5 52t43.5 24t59 7h34q31 0 48 -12.5z" />
    <glyph glyph-name="Ncommaaccent" unicode="&#x145;" horiz-adv-x="1407" 
d="M112 0zM135.5 21q-23.5 21 -23.5 57v1106q0 101 63.5 155t168.5 54h59q97 0 158 -46t92 -147l364 -940q5 -15 21 -15q13 0 13 15v1055q0 78 107 78h32q105 0 105 -78v-1106q0 -101 -61 -155t-166 -54h-63q-97 0 -157.5 45.5t-91.5 146.5l-366 940q-5 16 -20 16
q-14 0 -14 -16v-1054q0 -36 -23.5 -57t-83.5 -21h-31q-59 0 -82.5 21zM508 -429.5q-16 15.5 -16 43.5q0 12 3 27l48 195q7 34 29.5 52t58.5 18h83q34 0 53 -15.5t19 -42.5q0 -14 -6 -32l-58 -169q-33 -92 -95 -92h-74q-29 0 -45 15.5z" />
    <glyph glyph-name="Eng" unicode="&#x14a;" horiz-adv-x="1407" 
d="M1295 1315v-1350q0 -114 -38 -193.5t-106.5 -120t-159.5 -40.5q-75 0 -114.5 33t-39.5 89v20q0 53 69 53q146 0 146 167v23h-47q-97 0 -157.5 45.5t-91.5 146.5l-366 944q-5 16 -20 16q-14 0 -14 -16v-1054q0 -36 -23.5 -57t-83.5 -21h-31q-59 0 -82.5 21t-23.5 57v1106
q0 101 63.5 155t168.5 54h59q97 0 158 -46t92 -147l364 -944q5 -16 21 -16q13 0 13 16v1059q0 78 107 78h32q105 0 105 -78z" />
    <glyph glyph-name="Ntilde" unicode="&#xd1;" horiz-adv-x="1407" 
d="M112 0zM135.5 21q-23.5 21 -23.5 57v1106q0 101 63.5 155t168.5 54h59q97 0 158 -46t92 -147l364 -940q5 -15 21 -15q13 0 13 15v1055q0 78 107 78h32q105 0 105 -78v-1106q0 -101 -61 -155t-166 -54h-63q-97 0 -157.5 45.5t-91.5 146.5l-366 940q-5 16 -20 16
q-14 0 -14 -16v-1054q0 -36 -23.5 -57t-83.5 -21h-31q-59 0 -82.5 21zM389.5 1531.5q-19.5 24.5 -19.5 70.5q0 49 24.5 91t74 67t119.5 25q61 0 101.5 -15.5t93.5 -45.5q36 -22 61.5 -32.5t55.5 -10.5q36 0 51 14.5t29 42.5q11 24 22 35.5t35 11.5q27 0 46.5 -24.5
t19.5 -69.5q0 -49 -24.5 -91t-73.5 -67.5t-119 -25.5q-58 0 -97 15t-88 44q-38 23 -65.5 34.5t-63.5 11.5t-51.5 -14.5t-28.5 -43.5q-11 -24 -22 -35.5t-34 -11.5q-27 0 -46.5 24.5z" />
    <glyph glyph-name="O" unicode="O" horiz-adv-x="1489" 
d="M255.5 150.5q-163.5 170.5 -163.5 525.5v41q0 350 166 523t486 173q321 0 487 -173t166 -523v-41q0 -354 -164 -525t-489 -171t-488.5 170.5zM936 247.5q72 47.5 105 151t33 277.5v41q0 173 -33 277t-105 152t-192 48t-192 -48t-105 -152t-33 -277v-41q0 -174 33 -277.5
t105 -151t192 -47.5t192 47.5z" />
    <glyph glyph-name="Oacute" unicode="&#xd3;" horiz-adv-x="1489" 
d="M92 0zM255.5 150.5q-163.5 170.5 -163.5 525.5v41q0 350 166 523t486 173q321 0 487 -173t166 -523v-41q0 -354 -164 -525t-489 -171t-488.5 170.5zM936 247.5q72 47.5 105 151t33 277.5v41q0 173 -33 277t-105 152t-192 48t-192 -48t-105 -152t-33 -277v-41
q0 -174 33 -277.5t105 -151t192 -47.5t192 47.5zM623 1502q-15 12 -15 31q0 25 26 52l129 138q22 24 44.5 36t52.5 12h95q32 0 50.5 -13.5t18.5 -34.5q0 -26 -28 -51l-128 -113q-42 -37 -75 -53t-71 -16h-60q-24 0 -39 12z" />
    <glyph glyph-name="Ocircumflex" unicode="&#xd4;" horiz-adv-x="1489" 
d="M92 0zM255.5 150.5q-163.5 170.5 -163.5 525.5v41q0 350 166 523t486 173q321 0 487 -173t166 -523v-41q0 -354 -164 -525t-489 -171t-488.5 170.5zM936 247.5q72 47.5 105 151t33 277.5v41q0 173 -33 277t-105 152t-192 48t-192 -48t-105 -152t-33 -277v-41
q0 -174 33 -277.5t105 -151t192 -47.5t192 47.5zM1065 1538q0 -20 -17 -32.5t-48 -12.5h-34q-36 0 -59 7t-43.5 24t-52.5 52l-69 76l-70 -76q-32 -36 -52 -52.5t-42.5 -23.5t-58.5 -7h-30q-32 0 -50 13t-18 34q0 23 24 50l127 134q22 25 44.5 36t51.5 11h148q29 0 52 -11.5
t44 -35.5l127 -134q26 -26 26 -52z" />
    <glyph glyph-name="Odieresis" unicode="&#xd6;" horiz-adv-x="1489" 
d="M92 0zM255.5 150.5q-163.5 170.5 -163.5 525.5v41q0 350 166 523t486 173q321 0 487 -173t166 -523v-41q0 -354 -164 -525t-489 -171t-488.5 170.5zM936 247.5q72 47.5 105 151t33 277.5v41q0 173 -33 277t-105 152t-192 48t-192 -48t-105 -152t-33 -277v-41
q0 -174 33 -277.5t105 -151t192 -47.5t192 47.5zM475.5 1533.5q-37.5 36.5 -37.5 98.5q0 59 37.5 95t98.5 36q60 0 97 -35.5t37 -95.5q0 -62 -37 -98.5t-97 -36.5q-61 0 -98.5 36.5zM820 1533.5q-37 36.5 -37 98.5q0 60 37.5 95.5t97.5 35.5t97 -35.5t37 -95.5
q0 -62 -37 -98.5t-97 -36.5q-61 0 -98 36.5z" />
    <glyph glyph-name="Ograve" unicode="&#xd2;" horiz-adv-x="1489" 
d="M92 0zM255.5 150.5q-163.5 170.5 -163.5 525.5v41q0 350 166 523t486 173q321 0 487 -173t166 -523v-41q0 -354 -164 -525t-489 -171t-488.5 170.5zM936 247.5q72 47.5 105 151t33 277.5v41q0 173 -33 277t-105 152t-192 48t-192 -48t-105 -152t-33 -277v-41
q0 -174 33 -277.5t105 -151t192 -47.5t192 47.5zM767 1490q-38 0 -71.5 16t-75.5 53l-128 113q-28 25 -28 51q0 21 18.5 34.5t50.5 13.5h94q30 0 53 -12t45 -36l128 -138q26 -27 26 -53q0 -19 -14 -30.5t-38 -11.5h-60z" />
    <glyph glyph-name="Ohungarumlaut" unicode="&#x150;" horiz-adv-x="1489" 
d="M92 0zM255.5 150.5q-163.5 170.5 -163.5 525.5v41q0 350 166 523t486 173q321 0 487 -173t166 -523v-41q0 -354 -164 -525t-489 -171t-488.5 170.5zM936 247.5q72 47.5 105 151t33 277.5v41q0 173 -33 277t-105 152t-192 48t-192 -48t-105 -152t-33 -277v-41
q0 -174 33 -277.5t105 -151t192 -47.5t192 47.5zM522.5 1494q-10.5 9 -10.5 25q0 26 25 61l100 135q20 30 41.5 43t53.5 13h68q32 0 51 -14t19 -36q0 -23 -21 -47l-90 -98q-45 -49 -80 -70t-76 -21h-51q-19 0 -29.5 9zM846.5 1493q-8.5 8 -8.5 22q0 29 32 67l121 139
q23 27 44.5 38.5t51.5 11.5h76q32 0 50.5 -13t18.5 -34q0 -25 -28 -52l-121 -107q-49 -42 -85 -61t-75 -19h-52q-16 0 -24.5 8z" />
    <glyph glyph-name="Omacron" unicode="&#x14c;" horiz-adv-x="1489" 
d="M92 0zM255.5 150.5q-163.5 170.5 -163.5 525.5v41q0 350 166 523t486 173q321 0 487 -173t166 -523v-41q0 -354 -164 -525t-489 -171t-488.5 170.5zM936 247.5q72 47.5 105 151t33 277.5v41q0 173 -33 277t-105 152t-192 48t-192 -48t-105 -152t-33 -277v-41
q0 -174 33 -277.5t105 -151t192 -47.5t192 47.5zM418 1630v29q0 77 57 77h540q57 0 57 -77v-29q0 -42 -15.5 -59t-41.5 -17h-540q-57 0 -57 76z" />
    <glyph glyph-name="Oslash" unicode="&#xd8;" horiz-adv-x="1489" 
d="M1397 717v-41q0 -354 -164 -525t-489 -171q-123 0 -224 24l-37 -79q-14 -30 -37 -44.5t-56 -14.5h-26q-29 0 -45 13.5t-16 37.5q0 18 11 43l50 106q-272 156 -272 610v41q0 350 166 523t486 173q130 0 238 -29l36 76q13 30 36 44t57 14h16q33 0 51.5 -14.5t18.5 -38.5
q0 -20 -10 -40l-51 -108q261 -163 261 -600zM430.5 464q16.5 -88 52.5 -144l400 853q-59 21 -139 21q-120 0 -192 -48t-105 -152t-33 -277v-41q0 -124 16.5 -212zM1074 717q0 231 -60 340l-394 -841q52 -16 124 -16q120 0 192 47.5t105 151t33 277.5v41z" />
    <glyph glyph-name="Otilde" unicode="&#xd5;" horiz-adv-x="1489" 
d="M92 0zM255.5 150.5q-163.5 170.5 -163.5 525.5v41q0 350 166 523t486 173q321 0 487 -173t166 -523v-41q0 -354 -164 -525t-489 -171t-488.5 170.5zM936 247.5q72 47.5 105 151t33 277.5v41q0 173 -33 277t-105 152t-192 48t-192 -48t-105 -152t-33 -277v-41
q0 -174 33 -277.5t105 -151t192 -47.5t192 47.5zM397.5 1531.5q-19.5 24.5 -19.5 70.5q0 49 24.5 91t74 67t119.5 25q61 0 101.5 -15.5t93.5 -45.5q36 -22 61.5 -32.5t55.5 -10.5q36 0 51 14.5t29 42.5q11 24 22 35.5t35 11.5q27 0 46.5 -24.5t19.5 -69.5q0 -49 -24.5 -91
t-73.5 -67.5t-119 -25.5q-58 0 -97 15t-88 44q-38 23 -65.5 34.5t-63.5 11.5t-51.5 -14.5t-28.5 -43.5q-11 -24 -22 -35.5t-34 -11.5q-27 0 -46.5 24.5z" />
    <glyph glyph-name="OE" unicode="&#x152;" horiz-adv-x="2102" 
d="M1362 1140v-332h490q63 0 63 -86v-31q0 -85 -63 -85h-490v-354q0 -35 46 -35h541q67 0 67 -92v-34q0 -51 -18 -71t-49 -20h-678q-181 0 -203 122q-47 -55 -135 -99t-225 -44q-308 0 -462 171.5t-154 525.5v41q0 351 154 523t462 172q139 0 226.5 -41t135.5 -93
q25 115 201 115h678q67 0 67 -92v-35q0 -90 -67 -90h-541q-46 0 -46 -36zM958 241q72 45 107 109v685q-35 66 -108 113.5t-195 47.5q-124 0 -200 -47.5t-112 -152t-36 -279.5v-41q0 -177 36 -282t112 -151.5t200 -46.5t196 45z" />
    <glyph glyph-name="P" unicode="P" horiz-adv-x="1262" 
d="M1076 1293.5q110 -99.5 110 -308.5q0 -207 -114.5 -319t-338.5 -112h-316v-474q0 -80 -123 -80h-59q-123 0 -123 80v1153q0 78 50 119t157 41h410q237 0 347 -99.5zM845 813q54 52 54 163q0 74 -23 117.5t-73.5 63.5t-137.5 20h-204q-44 0 -44 -35v-381h252q122 0 176 52
z" />
    <glyph glyph-name="Thorn" unicode="&#xde;" horiz-adv-x="1262" 
d="M1081.5 1033q109.5 -97 109.5 -306q0 -206 -114 -314.5t-338 -108.5h-322v-231q0 -73 -115 -73h-76q-64 0 -89 20t-25 53v1247q0 33 25 53t89 20h76q115 0 115 -73v-190h317q238 0 347.5 -97zM850 559.5q55 51.5 55 162.5q0 74 -23.5 118t-75 64t-138.5 20h-251v-416h256
q122 0 177 51.5z" />
    <glyph glyph-name="Q" unicode="Q" horiz-adv-x="1484" 
d="M1888 -240v-37q0 -90 -67 -90h-107q-89 0 -172 25.5t-152.5 63t-170.5 99.5q-99 61 -164.5 96t-142 59t-156.5 24h-12q-325 0 -488.5 168.5t-163.5 517.5v41q0 345 166 515.5t486 170.5q321 0 487 -170.5t166 -515.5v-41q0 -434 -258 -593q56 -21 109 -46t118 -60
q91 -47 150 -73t129.5 -44t148.5 -18h27q67 0 67 -92zM447 412.5q33 -102.5 105 -149t192 -46.5t192 46.5t105 148.5t33 274v41q0 170 -33 272.5t-105 150t-192 47.5t-192 -47.5t-105 -150t-33 -272.5v-41q0 -171 33 -273.5z" />
    <glyph glyph-name="R" unicode="R" horiz-adv-x="1299" 
d="M1214 47q0 -47 -95 -47h-78q-69 0 -105.5 21t-50.5 57l-184 390q-27 56 -59 82t-92 29h-133v-499q0 -36 -28 -58t-99 -22h-55q-123 0 -123 80v1153q0 78 50 119t157 41h426q160 0 260.5 -41.5t148.5 -128.5t48 -227q0 -164 -78 -258t-233 -124q61 -43 97 -113l219 -423
q7 -15 7 -31zM683 763q123 0 178 51.5t55 162.5q0 74 -23.5 118.5t-75 64.5t-138.5 20h-219q-23 0 -33 -9t-10 -26v-382h266z" />
    <glyph glyph-name="Racute" unicode="&#x154;" horiz-adv-x="1299" 
d="M112 0zM1214 47q0 -47 -95 -47h-78q-69 0 -105.5 21t-50.5 57l-184 390q-27 56 -59 82t-92 29h-133v-499q0 -36 -28 -58t-99 -22h-55q-123 0 -123 80v1153q0 78 50 119t157 41h426q160 0 260.5 -41.5t148.5 -128.5t48 -227q0 -164 -78 -258t-233 -124q61 -43 97 -113
l219 -423q7 -15 7 -31zM683 763q123 0 178 51.5t55 162.5q0 74 -23.5 118.5t-75 64.5t-138.5 20h-219q-23 0 -33 -9t-10 -26v-382h266zM505 1502q-15 12 -15 31q0 25 26 52l129 138q22 24 44.5 36t52.5 12h95q32 0 50.5 -13.5t18.5 -34.5q0 -26 -28 -51l-128 -113
q-42 -37 -75 -53t-71 -16h-60q-24 0 -39 12z" />
    <glyph glyph-name="Rcaron" unicode="&#x158;" horiz-adv-x="1299" 
d="M112 0zM1214 47q0 -47 -95 -47h-78q-69 0 -105.5 21t-50.5 57l-184 390q-27 56 -59 82t-92 29h-133v-499q0 -36 -28 -58t-99 -22h-55q-123 0 -123 80v1153q0 78 50 119t157 41h426q160 0 260.5 -41.5t148.5 -128.5t48 -227q0 -164 -78 -258t-233 -124q61 -43 97 -113
l219 -423q7 -15 7 -31zM683 763q123 0 178 51.5t55 162.5q0 74 -23.5 118.5t-75 64.5t-138.5 20h-219q-23 0 -33 -9t-10 -26v-382h266zM930 1758.5q17 -12.5 17 -32.5q0 -26 -26 -53l-127 -134q-21 -24 -44 -35t-52 -11h-148q-29 0 -51.5 11t-44.5 35l-127 134
q-24 27 -24 51q0 21 18 34t50 13h30q36 0 58.5 -6.5t42 -23t52.5 -53.5l70 -77l69 77q32 35 52.5 52t43.5 24t59 7h34q31 0 48 -12.5z" />
    <glyph glyph-name="Rcommaaccent" unicode="&#x156;" horiz-adv-x="1299" 
d="M112 0zM1214 47q0 -47 -95 -47h-78q-69 0 -105.5 21t-50.5 57l-184 390q-27 56 -59 82t-92 29h-133v-499q0 -36 -28 -58t-99 -22h-55q-123 0 -123 80v1153q0 78 50 119t157 41h426q160 0 260.5 -41.5t148.5 -128.5t48 -227q0 -164 -78 -258t-233 -124q61 -43 97 -113
l219 -423q7 -15 7 -31zM683 763q123 0 178 51.5t55 162.5q0 74 -23.5 118.5t-75 64.5t-138.5 20h-219q-23 0 -33 -9t-10 -26v-382h266zM481 -429.5q-16 15.5 -16 43.5q0 12 3 27l48 195q7 34 29.5 52t58.5 18h83q34 0 53 -15.5t19 -42.5q0 -14 -6 -32l-58 -169
q-33 -92 -95 -92h-74q-29 0 -45 15.5z" />
    <glyph glyph-name="S" unicode="S" horiz-adv-x="1276" 
d="M247 41l-104 35q-23 8 -33.5 21.5t-10.5 35.5q0 19 5 35l20 65q8 32 20 45.5t32 13.5q11 0 31 -5l79 -26q73 -24 158 -39.5t165 -15.5q129 0 194 42.5t65 125.5q0 47 -22 76.5t-65 49t-125 44.5l-179 54q-117 34 -195.5 81t-121 121t-42.5 184q0 126 60 223t176.5 151.5
t281.5 54.5q183 0 351 -57l93 -33q43 -15 43 -55q0 -13 -5 -33l-19 -67q-9 -31 -20.5 -44.5t-28.5 -13.5q-13 0 -30 6l-71 24q-153 49 -288 49q-247 0 -247 -172q0 -51 22.5 -82t64 -51t119.5 -43l181 -53q127 -36 206 -83t119.5 -119t40.5 -179q0 -131 -61.5 -227
t-183 -148t-296.5 -52q-201 0 -379 61z" />
    <glyph glyph-name="Sacute" unicode="&#x15a;" horiz-adv-x="1276" 
d="M99 0zM247 41l-104 35q-23 8 -33.5 21.5t-10.5 35.5q0 19 5 35l20 65q8 32 20 45.5t32 13.5q11 0 31 -5l79 -26q73 -24 158 -39.5t165 -15.5q129 0 194 42.5t65 125.5q0 47 -22 76.5t-65 49t-125 44.5l-179 54q-117 34 -195.5 81t-121 121t-42.5 184q0 126 60 223
t176.5 151.5t281.5 54.5q183 0 351 -57l93 -33q43 -15 43 -55q0 -13 -5 -33l-19 -67q-9 -31 -20.5 -44.5t-28.5 -13.5q-13 0 -30 6l-71 24q-153 49 -288 49q-247 0 -247 -172q0 -51 22.5 -82t64 -51t119.5 -43l181 -53q127 -36 206 -83t119.5 -119t40.5 -179
q0 -131 -61.5 -227t-183 -148t-296.5 -52q-201 0 -379 61zM541 1502q-15 12 -15 31q0 25 26 52l129 138q22 24 44.5 36t52.5 12h95q32 0 50.5 -13.5t18.5 -34.5q0 -26 -28 -51l-128 -113q-42 -37 -75 -53t-71 -16h-60q-24 0 -39 12z" />
    <glyph glyph-name="Scaron" unicode="&#x160;" horiz-adv-x="1276" 
d="M99 0zM247 41l-104 35q-23 8 -33.5 21.5t-10.5 35.5q0 19 5 35l20 65q8 32 20 45.5t32 13.5q11 0 31 -5l79 -26q73 -24 158 -39.5t165 -15.5q129 0 194 42.5t65 125.5q0 47 -22 76.5t-65 49t-125 44.5l-179 54q-117 34 -195.5 81t-121 121t-42.5 184q0 126 60 223
t176.5 151.5t281.5 54.5q183 0 351 -57l93 -33q43 -15 43 -55q0 -13 -5 -33l-19 -67q-9 -31 -20.5 -44.5t-28.5 -13.5q-13 0 -30 6l-71 24q-153 49 -288 49q-247 0 -247 -172q0 -51 22.5 -82t64 -51t119.5 -43l181 -53q127 -36 206 -83t119.5 -119t40.5 -179
q0 -131 -61.5 -227t-183 -148t-296.5 -52q-201 0 -379 61zM966 1758.5q17 -12.5 17 -32.5q0 -26 -26 -53l-127 -134q-21 -24 -44 -35t-52 -11h-148q-29 0 -51.5 11t-44.5 35l-127 134q-24 27 -24 51q0 21 18 34t50 13h30q36 0 58.5 -6.5t42 -23t52.5 -53.5l70 -77l69 77
q32 35 52.5 52t43.5 24t59 7h34q31 0 48 -12.5z" />
    <glyph glyph-name="Scedilla" unicode="&#x15e;" horiz-adv-x="1276" 
d="M686 -37q-10 -18 -10 -32q0 -18 16 -27t49 -18q39 -11 64 -23t43.5 -39t18.5 -73q0 -79 -66 -123t-189 -44q-63 0 -117 18.5t-86.5 48t-32.5 61.5q0 21 10 32t29 11q11 0 25.5 -5t28.5 -12q32 -14 58 -22t62 -8q97 0 97 56q0 25 -18.5 37t-56.5 24q-42 13 -63.5 27.5
t-21.5 46.5q0 28 20 59l14 24q-162 8 -313 59l-104 35q-23 8 -33.5 21.5t-10.5 35.5q0 19 5 35l20 65q8 32 20 45.5t32 13.5q11 0 31 -5l79 -26q73 -24 158 -39.5t165 -15.5q129 0 194 42.5t65 125.5q0 47 -22 76.5t-65 49t-125 44.5l-179 54q-117 34 -195.5 81t-121 121
t-42.5 184q0 126 60 223t176.5 151.5t281.5 54.5q183 0 351 -57l93 -33q43 -15 43 -55q0 -13 -5 -33l-19 -67q-9 -31 -20.5 -44.5t-28.5 -13.5q-13 0 -30 6l-71 24q-153 49 -288 49q-247 0 -247 -172q0 -51 22.5 -82t64 -51t119.5 -43l181 -53q127 -36 206 -83t119.5 -119
t40.5 -179q0 -121 -53.5 -213t-158.5 -146.5t-258 -65.5z" />
    <glyph glyph-name="Scommaaccent" unicode="&#x218;" horiz-adv-x="1276" 
d="M99 0zM247 41l-104 35q-23 8 -33.5 21.5t-10.5 35.5q0 19 5 35l20 65q8 32 20 45.5t32 13.5q11 0 31 -5l79 -26q73 -24 158 -39.5t165 -15.5q129 0 194 42.5t65 125.5q0 47 -22 76.5t-65 49t-125 44.5l-179 54q-117 34 -195.5 81t-121 121t-42.5 184q0 126 60 223
t176.5 151.5t281.5 54.5q183 0 351 -57l93 -33q43 -15 43 -55q0 -13 -5 -33l-19 -67q-9 -31 -20.5 -44.5t-28.5 -13.5q-13 0 -30 6l-71 24q-153 49 -288 49q-247 0 -247 -172q0 -51 22.5 -82t64 -51t119.5 -43l181 -53q127 -36 206 -83t119.5 -119t40.5 -179
q0 -131 -61.5 -227t-183 -148t-296.5 -52q-201 0 -379 61zM471 -429.5q-16 15.5 -16 43.5q0 12 3 27l48 195q7 34 29.5 52t58.5 18h83q34 0 53 -15.5t19 -42.5q0 -14 -6 -32l-58 -169q-33 -92 -95 -92h-74q-29 0 -45 15.5z" />
    <glyph glyph-name="T" unicode="T" horiz-adv-x="1272" 
d="M510.5 22q-26.5 22 -26.5 58v1096h-359q-67 0 -67 90v35q0 92 67 92h1022q67 0 67 -92v-35q0 -90 -67 -90h-359v-1096q0 -36 -27 -58t-96 -22h-59q-69 0 -95.5 22z" />
    <glyph glyph-name="Tbar" unicode="&#x166;" horiz-adv-x="1272" 
d="M1214 1301v-35q0 -90 -67 -90h-359v-368h212q74 0 74 -83v-35q0 -83 -74 -83h-212v-527q0 -36 -27 -58t-96 -22h-59q-69 0 -95.5 22t-26.5 58v527h-201q-73 0 -73 83v35q0 83 73 83h201v368h-359q-67 0 -67 90v35q0 92 67 92h1022q67 0 67 -92z" />
    <glyph glyph-name="Tcaron" unicode="&#x164;" horiz-adv-x="1272" 
d="M58 0zM510.5 22q-26.5 22 -26.5 58v1096h-359q-67 0 -67 90v35q0 92 67 92h1022q67 0 67 -92v-35q0 -90 -67 -90h-359v-1096q0 -36 -27 -58t-96 -22h-59q-69 0 -95.5 22zM940 1758.5q17 -12.5 17 -32.5q0 -26 -26 -53l-127 -134q-21 -24 -44 -35t-52 -11h-148
q-29 0 -51.5 11t-44.5 35l-127 134q-24 27 -24 51q0 21 18 34t50 13h30q36 0 58.5 -6.5t42 -23t52.5 -53.5l70 -77l69 77q32 35 52.5 52t43.5 24t59 7h34q31 0 48 -12.5z" />
    <glyph glyph-name="uni0162" unicode="&#x162;" horiz-adv-x="1272" 
d="M1214 1301v-35q0 -90 -67 -90h-359v-1096q0 -31 -19 -51.5t-67 -26.5l-23 -39q-10 -18 -10 -32q0 -18 16 -27t49 -18q39 -11 64 -23t43.5 -39t18.5 -73q0 -79 -66 -123t-189 -44q-63 0 -117 18.5t-86.5 48t-32.5 61.5q0 21 10 32t29 11q11 0 25.5 -5t28.5 -12
q32 -14 58 -22t62 -8q97 0 97 56q0 25 -18.5 37t-56.5 24q-42 13 -63.5 27.5t-21.5 46.5q0 28 20 59l27 44q-46 7 -64 27t-18 51v1096h-359q-67 0 -67 90v35q0 92 67 92h1022q67 0 67 -92z" />
    <glyph glyph-name="uni021A" unicode="&#x21a;" horiz-adv-x="1272" 
d="M58 0zM510.5 22q-26.5 22 -26.5 58v1096h-359q-67 0 -67 90v35q0 92 67 92h1022q67 0 67 -92v-35q0 -90 -67 -90h-359v-1096q0 -36 -27 -58t-96 -22h-59q-69 0 -95.5 22zM464 -429.5q-16 15.5 -16 43.5q0 12 3 27l48 195q7 34 29.5 52t58.5 18h83q34 0 53 -15.5t19 -42.5
q0 -14 -6 -32l-58 -169q-33 -92 -95 -92h-74q-29 0 -45 15.5z" />
    <glyph glyph-name="U" unicode="U" horiz-adv-x="1317" 
d="M235 113.5q-133 133.5 -133 391.5v808q0 80 122 80h59q124 0 124 -80v-812q0 -141 59 -208t194 -67q91 0 145.5 28.5t79.5 88.5t25 158v812q0 80 123 80h59q69 0 96 -22t27 -58v-809q0 -260 -137.5 -392t-428.5 -132q-281 0 -414 133.5z" />
    <glyph glyph-name="Uacute" unicode="&#xda;" horiz-adv-x="1317" 
d="M102 0zM235 113.5q-133 133.5 -133 391.5v808q0 80 122 80h59q124 0 124 -80v-812q0 -141 59 -208t194 -67q91 0 145.5 28.5t79.5 88.5t25 158v812q0 80 123 80h59q69 0 96 -22t27 -58v-809q0 -260 -137.5 -392t-428.5 -132q-281 0 -414 133.5zM535 1502q-15 12 -15 31
q0 25 26 52l129 138q22 24 44.5 36t52.5 12h95q32 0 50.5 -13.5t18.5 -34.5q0 -26 -28 -51l-128 -113q-42 -37 -75 -53t-71 -16h-60q-24 0 -39 12z" />
    <glyph glyph-name="Ucircumflex" unicode="&#xdb;" horiz-adv-x="1317" 
d="M102 0zM235 113.5q-133 133.5 -133 391.5v808q0 80 122 80h59q124 0 124 -80v-812q0 -141 59 -208t194 -67q91 0 145.5 28.5t79.5 88.5t25 158v812q0 80 123 80h59q69 0 96 -22t27 -58v-809q0 -260 -137.5 -392t-428.5 -132q-281 0 -414 133.5zM977 1538q0 -20 -17 -32.5
t-48 -12.5h-34q-36 0 -59 7t-43.5 24t-52.5 52l-69 76l-70 -76q-32 -36 -52 -52.5t-42.5 -23.5t-58.5 -7h-30q-32 0 -50 13t-18 34q0 23 24 50l127 134q22 25 44.5 36t51.5 11h148q29 0 52 -11.5t44 -35.5l127 -134q26 -26 26 -52z" />
    <glyph glyph-name="Udieresis" unicode="&#xdc;" horiz-adv-x="1317" 
d="M102 0zM235 113.5q-133 133.5 -133 391.5v808q0 80 122 80h59q124 0 124 -80v-812q0 -141 59 -208t194 -67q91 0 145.5 28.5t79.5 88.5t25 158v812q0 80 123 80h59q69 0 96 -22t27 -58v-809q0 -260 -137.5 -392t-428.5 -132q-281 0 -414 133.5zM387.5 1533.5
q-37.5 36.5 -37.5 98.5q0 59 37.5 95t98.5 36q60 0 97 -35.5t37 -95.5q0 -62 -37 -98.5t-97 -36.5q-61 0 -98.5 36.5zM732 1533.5q-37 36.5 -37 98.5q0 60 37.5 95.5t97.5 35.5t97 -35.5t37 -95.5q0 -62 -37 -98.5t-97 -36.5q-61 0 -98 36.5z" />
    <glyph glyph-name="Ugrave" unicode="&#xd9;" horiz-adv-x="1317" 
d="M102 0zM235 113.5q-133 133.5 -133 391.5v808q0 80 122 80h59q124 0 124 -80v-812q0 -141 59 -208t194 -67q91 0 145.5 28.5t79.5 88.5t25 158v812q0 80 123 80h59q69 0 96 -22t27 -58v-809q0 -260 -137.5 -392t-428.5 -132q-281 0 -414 133.5zM679 1490q-38 0 -71.5 16
t-75.5 53l-128 113q-28 25 -28 51q0 21 18.5 34.5t50.5 13.5h94q30 0 53 -12t45 -36l128 -138q26 -27 26 -53q0 -19 -14 -30.5t-38 -11.5h-60z" />
    <glyph glyph-name="Uhungarumlaut" unicode="&#x170;" horiz-adv-x="1317" 
d="M102 0zM235 113.5q-133 133.5 -133 391.5v808q0 80 122 80h59q124 0 124 -80v-812q0 -141 59 -208t194 -67q91 0 145.5 28.5t79.5 88.5t25 158v812q0 80 123 80h59q69 0 96 -22t27 -58v-809q0 -260 -137.5 -392t-428.5 -132q-281 0 -414 133.5zM434.5 1494
q-10.5 9 -10.5 25q0 26 25 61l100 135q20 30 41.5 43t53.5 13h68q32 0 51 -14t19 -36q0 -23 -21 -47l-90 -98q-45 -49 -80 -70t-76 -21h-51q-19 0 -29.5 9zM758.5 1493q-8.5 8 -8.5 22q0 29 32 67l121 139q23 27 44.5 38.5t51.5 11.5h76q32 0 50.5 -13t18.5 -34
q0 -25 -28 -52l-121 -107q-49 -42 -85 -61t-75 -19h-52q-16 0 -24.5 8z" />
    <glyph glyph-name="Umacron" unicode="&#x16a;" horiz-adv-x="1317" 
d="M102 0zM235 113.5q-133 133.5 -133 391.5v808q0 80 122 80h59q124 0 124 -80v-812q0 -141 59 -208t194 -67q91 0 145.5 28.5t79.5 88.5t25 158v812q0 80 123 80h59q69 0 96 -22t27 -58v-809q0 -260 -137.5 -392t-428.5 -132q-281 0 -414 133.5zM330 1630v29q0 77 57 77
h540q57 0 57 -77v-29q0 -42 -15.5 -59t-41.5 -17h-540q-57 0 -57 76z" />
    <glyph glyph-name="Uogonek" unicode="&#x172;" horiz-adv-x="1317" 
d="M1188 1371q27 -22 27 -58v-809q0 -209 -88 -335t-272 -168v-1q-69 -27 -113.5 -67t-44.5 -89q0 -31 18.5 -46.5t57.5 -15.5q28 0 49.5 6t49.5 18q14 6 28 10.5t25 4.5q20 0 30.5 -11.5t10.5 -32.5q0 -37 -34.5 -69t-91.5 -50.5t-119 -18.5q-95 0 -149 40t-54 115
q0 61 41 109t103 77h-13q-281 0 -414 133.5t-133 391.5v808q0 80 122 80h59q124 0 124 -80v-812q0 -141 59 -208t194 -67q91 0 145.5 28.5t79.5 88.5t25 158v812q0 80 123 80h59q69 0 96 -22z" />
    <glyph glyph-name="Uring" unicode="&#x16e;" horiz-adv-x="1317" 
d="M102 0zM235 113.5q-133 133.5 -133 391.5v808q0 80 122 80h59q124 0 124 -80v-812q0 -141 59 -208t194 -67q91 0 145.5 28.5t79.5 88.5t25 158v812q0 80 123 80h59q69 0 96 -22t27 -58v-809q0 -260 -137.5 -392t-428.5 -132q-281 0 -414 133.5zM531 1487
q-55 28 -85.5 77.5t-30.5 111.5q0 63 30.5 113t85.5 78t125 28q71 0 125.5 -28t84.5 -78t30 -113q0 -62 -30 -111.5t-84.5 -77.5t-125.5 -28q-70 0 -125 28zM728.5 1606.5q27.5 27.5 27.5 70.5q0 42 -27.5 70t-70.5 28q-44 0 -71 -27.5t-27 -70.5q0 -44 27 -71t71 -27
q43 0 70.5 27.5z" />
    <glyph glyph-name="V" unicode="V" horiz-adv-x="1401" 
d="M1322 1331q0 -7 -4 -25l-358 -1107q-31 -106 -87 -152.5t-160 -46.5h-32q-97 0 -156 47.5t-87 148.5l-355 1110q-4 16 -4 24q0 63 108 63h71q69 0 101.5 -23.5t42.5 -63.5l287 -1027q4 -15 18 -15q12 0 16 15l295 1027q19 87 146 87h51q107 0 107 -62z" />
    <glyph glyph-name="W" unicode="W" horiz-adv-x="1905" 
d="M322 171l-239 1138q-2 7 -2 22q0 29 24 45.5t83 16.5h74q71 0 106.5 -23.5t39.5 -60.5l164 -1025q2 -15 17 -15q6 0 9.5 3t6.5 12l213 1025q15 84 139 84h40q120 0 133 -84l215 -1025q2 -9 6 -12t11 -3q14 0 15 15l164 1025q10 84 135 84h45q104 0 104 -62q0 -10 -3 -22
l-239 -1138q-32 -171 -197 -171h-34q-172 0 -201 174l-189 809l-184 -809q-30 -174 -212 -174h-35q-177 0 -209 171z" />
    <glyph glyph-name="Wacute" unicode="&#x1e82;" horiz-adv-x="1905" 
d="M81 0zM322 171l-239 1138q-2 7 -2 22q0 29 24 45.5t83 16.5h74q71 0 106.5 -23.5t39.5 -60.5l164 -1025q2 -15 17 -15q6 0 9.5 3t6.5 12l213 1025q15 84 139 84h40q120 0 133 -84l215 -1025q2 -9 6 -12t11 -3q14 0 15 15l164 1025q10 84 135 84h45q104 0 104 -62
q0 -10 -3 -22l-239 -1138q-32 -171 -197 -171h-34q-172 0 -201 174l-189 809l-184 -809q-30 -174 -212 -174h-35q-177 0 -209 171zM862 1502q-15 12 -15 31q0 25 26 52l129 138q22 24 44.5 36t52.5 12h95q32 0 50.5 -13.5t18.5 -34.5q0 -26 -28 -51l-128 -113
q-42 -37 -75 -53t-71 -16h-60q-24 0 -39 12z" />
    <glyph glyph-name="Wcircumflex" unicode="&#x174;" horiz-adv-x="1905" 
d="M81 0zM322 171l-239 1138q-2 7 -2 22q0 29 24 45.5t83 16.5h74q71 0 106.5 -23.5t39.5 -60.5l164 -1025q2 -15 17 -15q6 0 9.5 3t6.5 12l213 1025q15 84 139 84h40q120 0 133 -84l215 -1025q2 -9 6 -12t11 -3q14 0 15 15l164 1025q10 84 135 84h45q104 0 104 -62
q0 -10 -3 -22l-239 -1138q-32 -171 -197 -171h-34q-172 0 -201 174l-189 809l-184 -809q-30 -174 -212 -174h-35q-177 0 -209 171zM1304 1538q0 -20 -17 -32.5t-48 -12.5h-34q-36 0 -59 7t-43.5 24t-52.5 52l-69 76l-70 -76q-32 -36 -52 -52.5t-42.5 -23.5t-58.5 -7h-30
q-32 0 -50 13t-18 34q0 23 24 50l127 134q22 25 44.5 36t51.5 11h148q29 0 52 -11.5t44 -35.5l127 -134q26 -26 26 -52z" />
    <glyph glyph-name="Wdieresis" unicode="&#x1e84;" horiz-adv-x="1905" 
d="M81 0zM322 171l-239 1138q-2 7 -2 22q0 29 24 45.5t83 16.5h74q71 0 106.5 -23.5t39.5 -60.5l164 -1025q2 -15 17 -15q6 0 9.5 3t6.5 12l213 1025q15 84 139 84h40q120 0 133 -84l215 -1025q2 -9 6 -12t11 -3q14 0 15 15l164 1025q10 84 135 84h45q104 0 104 -62
q0 -10 -3 -22l-239 -1138q-32 -171 -197 -171h-34q-172 0 -201 174l-189 809l-184 -809q-30 -174 -212 -174h-35q-177 0 -209 171zM714.5 1533.5q-37.5 36.5 -37.5 98.5q0 59 37.5 95t98.5 36q60 0 97 -35.5t37 -95.5q0 -62 -37 -98.5t-97 -36.5q-61 0 -98.5 36.5z
M1059 1533.5q-37 36.5 -37 98.5q0 60 37.5 95.5t97.5 35.5t97 -35.5t37 -95.5q0 -62 -37 -98.5t-97 -36.5q-61 0 -98 36.5z" />
    <glyph glyph-name="Wgrave" unicode="&#x1e80;" horiz-adv-x="1905" 
d="M81 0zM322 171l-239 1138q-2 7 -2 22q0 29 24 45.5t83 16.5h74q71 0 106.5 -23.5t39.5 -60.5l164 -1025q2 -15 17 -15q6 0 9.5 3t6.5 12l213 1025q15 84 139 84h40q120 0 133 -84l215 -1025q2 -9 6 -12t11 -3q14 0 15 15l164 1025q10 84 135 84h45q104 0 104 -62
q0 -10 -3 -22l-239 -1138q-32 -171 -197 -171h-34q-172 0 -201 174l-189 809l-184 -809q-30 -174 -212 -174h-35q-177 0 -209 171zM1006 1490q-38 0 -71.5 16t-75.5 53l-128 113q-28 25 -28 51q0 21 18.5 34.5t50.5 13.5h94q30 0 53 -12t45 -36l128 -138q26 -27 26 -53
q0 -19 -14 -30.5t-38 -11.5h-60z" />
    <glyph glyph-name="X" unicode="X" horiz-adv-x="1345" 
d="M1261 54q0 -24 -27 -39t-81 -15h-101q-66 0 -95.5 20.5t-45.5 58.5l-258 492l-250 -492q-14 -38 -44.5 -58.5t-97.5 -20.5h-69q-54 0 -80.5 14.5t-26.5 39.5q0 13 7 27l352 617l-352 613q-8 16 -8 28q0 25 26.5 39.5t80.5 14.5h109q66 0 95.5 -20.5t44.5 -58.5l251 -486
l249 486q15 38 44.5 58.5t97.5 20.5h69q54 0 80.5 -15t26.5 -40q0 -14 -7 -27l-355 -611l358 -619q7 -13 7 -27z" />
    <glyph glyph-name="Y" unicode="Y" horiz-adv-x="1347" 
d="M524 80v488l-441 743q-8 16 -8 28q0 24 27 39t81 15h98q66 0 95.5 -20.5t44.5 -58.5l272 -506l270 506q15 39 44.5 59t96.5 20h60q54 0 81 -15t27 -40q0 -14 -7 -27l-436 -738v-493q0 -36 -27 -58t-96 -22h-59q-123 0 -123 80z" />
    <glyph glyph-name="Yacute" unicode="&#xdd;" horiz-adv-x="1347" 
d="M75 0zM524 80v488l-441 743q-8 16 -8 28q0 24 27 39t81 15h98q66 0 95.5 -20.5t44.5 -58.5l272 -506l270 506q15 39 44.5 59t96.5 20h60q54 0 81 -15t27 -40q0 -14 -7 -27l-436 -738v-493q0 -36 -27 -58t-96 -22h-59q-123 0 -123 80zM571 1502q-15 12 -15 31q0 25 26 52
l129 138q22 24 44.5 36t52.5 12h95q32 0 50.5 -13.5t18.5 -34.5q0 -26 -28 -51l-128 -113q-42 -37 -75 -53t-71 -16h-60q-24 0 -39 12z" />
    <glyph glyph-name="Ycircumflex" unicode="&#x176;" horiz-adv-x="1347" 
d="M75 0zM524 80v488l-441 743q-8 16 -8 28q0 24 27 39t81 15h98q66 0 95.5 -20.5t44.5 -58.5l272 -506l270 506q15 39 44.5 59t96.5 20h60q54 0 81 -15t27 -40q0 -14 -7 -27l-436 -738v-493q0 -36 -27 -58t-96 -22h-59q-123 0 -123 80zM1013 1538q0 -20 -17 -32.5
t-48 -12.5h-34q-36 0 -59 7t-43.5 24t-52.5 52l-69 76l-70 -76q-32 -36 -52 -52.5t-42.5 -23.5t-58.5 -7h-30q-32 0 -50 13t-18 34q0 23 24 50l127 134q22 25 44.5 36t51.5 11h148q29 0 52 -11.5t44 -35.5l127 -134q26 -26 26 -52z" />
    <glyph glyph-name="Ydieresis" unicode="&#x178;" horiz-adv-x="1347" 
d="M75 0zM524 80v488l-441 743q-8 16 -8 28q0 24 27 39t81 15h98q66 0 95.5 -20.5t44.5 -58.5l272 -506l270 506q15 39 44.5 59t96.5 20h60q54 0 81 -15t27 -40q0 -14 -7 -27l-436 -738v-493q0 -36 -27 -58t-96 -22h-59q-123 0 -123 80zM423.5 1533.5q-37.5 36.5 -37.5 98.5
q0 59 37.5 95t98.5 36q60 0 97 -35.5t37 -95.5q0 -62 -37 -98.5t-97 -36.5q-61 0 -98.5 36.5zM768 1533.5q-37 36.5 -37 98.5q0 60 37.5 95.5t97.5 35.5t97 -35.5t37 -95.5q0 -62 -37 -98.5t-97 -36.5q-61 0 -98 36.5z" />
    <glyph glyph-name="Ygrave" unicode="&#x1ef2;" horiz-adv-x="1347" 
d="M75 0zM524 80v488l-441 743q-8 16 -8 28q0 24 27 39t81 15h98q66 0 95.5 -20.5t44.5 -58.5l272 -506l270 506q15 39 44.5 59t96.5 20h60q54 0 81 -15t27 -40q0 -14 -7 -27l-436 -738v-493q0 -36 -27 -58t-96 -22h-59q-123 0 -123 80zM715 1490q-38 0 -71.5 16t-75.5 53
l-128 113q-28 25 -28 51q0 21 18.5 34.5t50.5 13.5h94q30 0 53 -12t45 -36l128 -138q26 -27 26 -53q0 -19 -14 -30.5t-38 -11.5h-60z" />
    <glyph glyph-name="Z" unicode="Z" horiz-adv-x="1227" 
d="M112 36.5q-38 36.5 -38 105.5q0 47 14 83t49 83l636 839q7 8 7 18q0 15 -21 15h-608q-64 0 -64 90v34q0 89 64 89h823q75 0 115.5 -36.5t40.5 -108.5q0 -47 -13 -82t-49 -82l-629 -839q-7 -8 -7 -18q0 -7 5 -11t15 -4h638q63 0 63 -90v-34q0 -49 -17 -68.5t-46 -19.5
h-874q-66 0 -104 36.5z" />
    <glyph glyph-name="Zacute" unicode="&#x179;" horiz-adv-x="1227" 
d="M74 0zM112 36.5q-38 36.5 -38 105.5q0 47 14 83t49 83l636 839q7 8 7 18q0 15 -21 15h-608q-64 0 -64 90v34q0 89 64 89h823q75 0 115.5 -36.5t40.5 -108.5q0 -47 -13 -82t-49 -82l-629 -839q-7 -8 -7 -18q0 -7 5 -11t15 -4h638q63 0 63 -90v-34q0 -49 -17 -68.5
t-46 -19.5h-874q-66 0 -104 36.5zM504 1502q-15 12 -15 31q0 25 26 52l129 138q22 24 44.5 36t52.5 12h95q32 0 50.5 -13.5t18.5 -34.5q0 -26 -28 -51l-128 -113q-42 -37 -75 -53t-71 -16h-60q-24 0 -39 12z" />
    <glyph glyph-name="Zcaron" unicode="&#x17d;" horiz-adv-x="1227" 
d="M74 0zM112 36.5q-38 36.5 -38 105.5q0 47 14 83t49 83l636 839q7 8 7 18q0 15 -21 15h-608q-64 0 -64 90v34q0 89 64 89h823q75 0 115.5 -36.5t40.5 -108.5q0 -47 -13 -82t-49 -82l-629 -839q-7 -8 -7 -18q0 -7 5 -11t15 -4h638q63 0 63 -90v-34q0 -49 -17 -68.5
t-46 -19.5h-874q-66 0 -104 36.5zM929 1758.5q17 -12.5 17 -32.5q0 -26 -26 -53l-127 -134q-21 -24 -44 -35t-52 -11h-148q-29 0 -51.5 11t-44.5 35l-127 134q-24 27 -24 51q0 21 18 34t50 13h30q36 0 58.5 -6.5t42 -23t52.5 -53.5l70 -77l69 77q32 35 52.5 52t43.5 24t59 7
h34q31 0 48 -12.5z" />
    <glyph glyph-name="Zdotaccent" unicode="&#x17b;" horiz-adv-x="1227" 
d="M74 0zM112 36.5q-38 36.5 -38 105.5q0 47 14 83t49 83l636 839q7 8 7 18q0 15 -21 15h-608q-64 0 -64 90v34q0 89 64 89h823q75 0 115.5 -36.5t40.5 -108.5q0 -47 -13 -82t-49 -82l-629 -839q-7 -8 -7 -18q0 -7 5 -11t15 -4h638q63 0 63 -90v-34q0 -49 -17 -68.5
t-46 -19.5h-874q-66 0 -104 36.5zM514.5 1538.5q-42.5 41.5 -42.5 111.5q0 68 42.5 109t111.5 41q68 0 110.5 -41t42.5 -109q0 -70 -42.5 -111.5t-110.5 -41.5q-69 0 -111.5 41.5z" />
    <glyph glyph-name="a" unicode="a" horiz-adv-x="1051" 
d="M861.5 903.5q99.5 -85.5 99.5 -254.5v-359q0 -110 -47 -178.5t-143.5 -100t-248.5 -31.5q-228 0 -337 71.5t-109 216.5v20q0 141 98.5 211t307.5 81l222 12v26q0 83 -45.5 123.5t-142.5 40.5q-60 0 -132.5 -13t-129.5 -33l-50 -18q-17 -5 -28 -5q-17 0 -27 12t-17 39
l-15 63q-4 15 -4 29q0 18 9 29.5t28 18.5l70 27q149 58 326 58q216 0 315.5 -85.5zM661.5 174.5q42.5 36.5 42.5 116.5v150l-162 -9q-105 -6 -153.5 -38.5t-48.5 -101.5v-18q0 -70 41.5 -103t140.5 -33q97 0 139.5 36.5z" />
    <glyph glyph-name="aacute" unicode="&#xe1;" horiz-adv-x="1051" 
d="M76 0zM861.5 903.5q99.5 -85.5 99.5 -254.5v-359q0 -110 -47 -178.5t-143.5 -100t-248.5 -31.5q-228 0 -337 71.5t-109 216.5v20q0 141 98.5 211t307.5 81l222 12v26q0 83 -45.5 123.5t-142.5 40.5q-60 0 -132.5 -13t-129.5 -33l-50 -18q-17 -5 -28 -5q-17 0 -27 12
t-17 39l-15 63q-4 15 -4 29q0 18 9 29.5t28 18.5l70 27q149 58 326 58q216 0 315.5 -85.5zM661.5 174.5q42.5 36.5 42.5 116.5v150l-162 -9q-105 -6 -153.5 -38.5t-48.5 -101.5v-18q0 -70 41.5 -103t140.5 -33q97 0 139.5 36.5zM422 1124q-15 12 -15 31q0 25 26 52l129 138
q22 24 44.5 36t52.5 12h95q32 0 50.5 -13.5t18.5 -34.5q0 -26 -28 -51l-128 -113q-42 -37 -75 -53t-71 -16h-60q-24 0 -39 12z" />
    <glyph glyph-name="abreve" unicode="&#x103;" horiz-adv-x="1051" 
d="M76 0zM861.5 903.5q99.5 -85.5 99.5 -254.5v-359q0 -110 -47 -178.5t-143.5 -100t-248.5 -31.5q-228 0 -337 71.5t-109 216.5v20q0 141 98.5 211t307.5 81l222 12v26q0 83 -45.5 123.5t-142.5 40.5q-60 0 -132.5 -13t-129.5 -33l-50 -18q-17 -5 -28 -5q-17 0 -27 12
t-17 39l-15 63q-4 15 -4 29q0 18 9 29.5t28 18.5l70 27q149 58 326 58q216 0 315.5 -85.5zM661.5 174.5q42.5 36.5 42.5 116.5v150l-162 -9q-105 -6 -153.5 -38.5t-48.5 -101.5v-18q0 -70 41.5 -103t140.5 -33q97 0 139.5 36.5zM357.5 1132.5q-76.5 34.5 -115 94.5
t-38.5 136q0 48 18 74t45 26q22 0 35.5 -15t29.5 -46q20 -40 40.5 -65.5t62.5 -44.5t109 -19t109 19t62.5 44.5t40.5 65.5q16 31 29.5 46t35.5 15q27 0 45 -26t18 -74q0 -76 -38.5 -136t-115 -94.5t-186.5 -34.5t-186.5 34.5z" />
    <glyph glyph-name="acircumflex" unicode="&#xe2;" horiz-adv-x="1051" 
d="M76 0zM861.5 903.5q99.5 -85.5 99.5 -254.5v-359q0 -110 -47 -178.5t-143.5 -100t-248.5 -31.5q-228 0 -337 71.5t-109 216.5v20q0 141 98.5 211t307.5 81l222 12v26q0 83 -45.5 123.5t-142.5 40.5q-60 0 -132.5 -13t-129.5 -33l-50 -18q-17 -5 -28 -5q-17 0 -27 12
t-17 39l-15 63q-4 15 -4 29q0 18 9 29.5t28 18.5l70 27q149 58 326 58q216 0 315.5 -85.5zM661.5 174.5q42.5 36.5 42.5 116.5v150l-162 -9q-105 -6 -153.5 -38.5t-48.5 -101.5v-18q0 -70 41.5 -103t140.5 -33q97 0 139.5 36.5zM864 1160q0 -20 -17 -32.5t-48 -12.5h-34
q-36 0 -59 7t-43.5 24t-52.5 52l-69 76l-70 -76q-32 -36 -52 -52.5t-42.5 -23.5t-58.5 -7h-30q-32 0 -50 13t-18 34q0 23 24 50l127 134q22 25 44.5 36t51.5 11h148q29 0 52 -11.5t44 -35.5l127 -134q26 -26 26 -52z" />
    <glyph glyph-name="adieresis" unicode="&#xe4;" horiz-adv-x="1051" 
d="M76 0zM861.5 903.5q99.5 -85.5 99.5 -254.5v-359q0 -110 -47 -178.5t-143.5 -100t-248.5 -31.5q-228 0 -337 71.5t-109 216.5v20q0 141 98.5 211t307.5 81l222 12v26q0 83 -45.5 123.5t-142.5 40.5q-60 0 -132.5 -13t-129.5 -33l-50 -18q-17 -5 -28 -5q-17 0 -27 12
t-17 39l-15 63q-4 15 -4 29q0 18 9 29.5t28 18.5l70 27q149 58 326 58q216 0 315.5 -85.5zM661.5 174.5q42.5 36.5 42.5 116.5v150l-162 -9q-105 -6 -153.5 -38.5t-48.5 -101.5v-18q0 -70 41.5 -103t140.5 -33q97 0 139.5 36.5zM274.5 1155.5q-37.5 36.5 -37.5 98.5
q0 59 37.5 95t98.5 36q60 0 97 -35.5t37 -95.5q0 -62 -37 -98.5t-97 -36.5q-61 0 -98.5 36.5zM619 1155.5q-37 36.5 -37 98.5q0 60 37.5 95.5t97.5 35.5t97 -35.5t37 -95.5q0 -62 -37 -98.5t-97 -36.5q-61 0 -98 36.5z" />
    <glyph glyph-name="agrave" unicode="&#xe0;" horiz-adv-x="1051" 
d="M76 0zM861.5 903.5q99.5 -85.5 99.5 -254.5v-359q0 -110 -47 -178.5t-143.5 -100t-248.5 -31.5q-228 0 -337 71.5t-109 216.5v20q0 141 98.5 211t307.5 81l222 12v26q0 83 -45.5 123.5t-142.5 40.5q-60 0 -132.5 -13t-129.5 -33l-50 -18q-17 -5 -28 -5q-17 0 -27 12
t-17 39l-15 63q-4 15 -4 29q0 18 9 29.5t28 18.5l70 27q149 58 326 58q216 0 315.5 -85.5zM661.5 174.5q42.5 36.5 42.5 116.5v150l-162 -9q-105 -6 -153.5 -38.5t-48.5 -101.5v-18q0 -70 41.5 -103t140.5 -33q97 0 139.5 36.5zM566 1112q-38 0 -71.5 16t-75.5 53l-128 113
q-28 25 -28 51q0 21 18.5 34.5t50.5 13.5h94q30 0 53 -12t45 -36l128 -138q26 -27 26 -53q0 -19 -14 -30.5t-38 -11.5h-60z" />
    <glyph glyph-name="amacron" unicode="&#x101;" horiz-adv-x="1051" 
d="M76 0zM861.5 903.5q99.5 -85.5 99.5 -254.5v-359q0 -110 -47 -178.5t-143.5 -100t-248.5 -31.5q-228 0 -337 71.5t-109 216.5v20q0 141 98.5 211t307.5 81l222 12v26q0 83 -45.5 123.5t-142.5 40.5q-60 0 -132.5 -13t-129.5 -33l-50 -18q-17 -5 -28 -5q-17 0 -27 12
t-17 39l-15 63q-4 15 -4 29q0 18 9 29.5t28 18.5l70 27q149 58 326 58q216 0 315.5 -85.5zM661.5 174.5q42.5 36.5 42.5 116.5v150l-162 -9q-105 -6 -153.5 -38.5t-48.5 -101.5v-18q0 -70 41.5 -103t140.5 -33q97 0 139.5 36.5zM217 1252v29q0 77 57 77h540q57 0 57 -77v-29
q0 -42 -15.5 -59t-41.5 -17h-540q-57 0 -57 76z" />
    <glyph glyph-name="aogonek" unicode="&#x105;" horiz-adv-x="1051" 
d="M923.5 126q-37.5 -65 -115.5 -100v-1q-69 -27 -113.5 -67t-44.5 -89q0 -31 18.5 -46.5t57.5 -15.5q28 0 49.5 6t49.5 18q14 6 28 10.5t25 4.5q20 0 30.5 -11.5t10.5 -32.5q0 -37 -34.5 -69t-91.5 -50.5t-119 -18.5q-95 0 -149 40t-54 115q0 50 27.5 91t73.5 71
q-16 -1 -50 -1q-228 0 -337 71.5t-109 216.5v20q0 141 98.5 211t307.5 81l222 12v26q0 83 -45.5 123.5t-142.5 40.5q-60 0 -132.5 -13t-129.5 -33l-50 -18q-17 -5 -28 -5q-17 0 -27 12t-17 39l-15 63q-4 15 -4 29q0 18 9 29.5t28 18.5l70 27q149 58 326 58
q216 0 315.5 -85.5t99.5 -254.5v-359q0 -99 -37.5 -164zM381.5 171q41.5 -33 140.5 -33q97 0 139.5 36.5t42.5 116.5v150l-162 -9q-105 -6 -153.5 -38.5t-48.5 -101.5v-18q0 -70 41.5 -103z" />
    <glyph glyph-name="aring" unicode="&#xe5;" horiz-adv-x="1051" 
d="M76 0zM861.5 903.5q99.5 -85.5 99.5 -254.5v-359q0 -110 -47 -178.5t-143.5 -100t-248.5 -31.5q-228 0 -337 71.5t-109 216.5v20q0 141 98.5 211t307.5 81l222 12v26q0 83 -45.5 123.5t-142.5 40.5q-60 0 -132.5 -13t-129.5 -33l-50 -18q-17 -5 -28 -5q-17 0 -27 12
t-17 39l-15 63q-4 15 -4 29q0 18 9 29.5t28 18.5l70 27q149 58 326 58q216 0 315.5 -85.5zM661.5 174.5q42.5 36.5 42.5 116.5v150l-162 -9q-105 -6 -153.5 -38.5t-48.5 -101.5v-18q0 -70 41.5 -103t140.5 -33q97 0 139.5 36.5zM418 1109q-55 28 -85.5 77.5t-30.5 111.5
q0 63 30.5 113t85.5 78t125 28q71 0 125.5 -28t84.5 -78t30 -113q0 -62 -30 -111.5t-84.5 -77.5t-125.5 -28q-70 0 -125 28zM615.5 1228.5q27.5 27.5 27.5 70.5q0 42 -27.5 70t-70.5 28q-44 0 -71 -27.5t-27 -70.5q0 -44 27 -71t71 -27q43 0 70.5 27.5z" />
    <glyph glyph-name="atilde" unicode="&#xe3;" horiz-adv-x="1051" 
d="M76 0zM861.5 903.5q99.5 -85.5 99.5 -254.5v-359q0 -110 -47 -178.5t-143.5 -100t-248.5 -31.5q-228 0 -337 71.5t-109 216.5v20q0 141 98.5 211t307.5 81l222 12v26q0 83 -45.5 123.5t-142.5 40.5q-60 0 -132.5 -13t-129.5 -33l-50 -18q-17 -5 -28 -5q-17 0 -27 12
t-17 39l-15 63q-4 15 -4 29q0 18 9 29.5t28 18.5l70 27q149 58 326 58q216 0 315.5 -85.5zM661.5 174.5q42.5 36.5 42.5 116.5v150l-162 -9q-105 -6 -153.5 -38.5t-48.5 -101.5v-18q0 -70 41.5 -103t140.5 -33q97 0 139.5 36.5zM196.5 1153.5q-19.5 24.5 -19.5 70.5
q0 49 24.5 91t74 67t119.5 25q61 0 101.5 -15.5t93.5 -45.5q36 -22 61.5 -32.5t55.5 -10.5q36 0 51 14.5t29 42.5q11 24 22 35.5t35 11.5q27 0 46.5 -24.5t19.5 -69.5q0 -49 -24.5 -91t-73.5 -67.5t-119 -25.5q-58 0 -97 15t-88 44q-38 23 -65.5 34.5t-63.5 11.5
t-51.5 -14.5t-28.5 -43.5q-11 -24 -22 -35.5t-34 -11.5q-27 0 -46.5 24.5z" />
    <glyph glyph-name="ae" unicode="&#xe6;" horiz-adv-x="1679" 
d="M1581 128q4 -15 4 -28q0 -18 -8.5 -29t-25.5 -18l-64 -25q-118 -48 -284 -48q-202 0 -327 89q-52 -46 -139.5 -67.5t-214.5 -21.5q-228 0 -337 71.5t-109 216.5v20q0 141 98.5 211t307.5 81l225 12v26q0 83 -46.5 123.5t-147.5 40.5q-58 0 -129.5 -13.5t-129.5 -33.5
l-50 -18q-13 -4 -27 -4q-18 0 -28.5 11.5t-16.5 38.5l-15 64q-4 15 -4 29q0 18 9 29.5t28 18.5l70 27q149 58 326 58q223 0 324 -93q122 93 313 93q133 0 228 -38t144 -108t49 -166q0 -103 -45 -164t-136.5 -89.5t-239.5 -32.5l-211 -7q24 -100 100 -146t186 -46q48 0 101 9
t94 23l45 16q12 4 24 4q15 0 24 -11t17 -37zM1021 736.5q-57 -65.5 -59 -209.5l165 5q86 2 136.5 11t80 36.5t29.5 82.5q0 65 -44 102.5t-138 37.5q-113 0 -170 -65.5zM664 173.5q43 36.5 43 117.5v152l-165 -10q-105 -5 -153.5 -38t-48.5 -103v-18q0 -71 41.5 -104
t140.5 -33t142 36.5z" />
    <glyph glyph-name="b" unicode="b" horiz-adv-x="1121" 
d="M935 872.5q110 -116.5 110 -365.5v-45q0 -172 -53.5 -278.5t-158.5 -155t-265 -48.5q-238 0 -355 116t-117 367v859q0 33 23 52t80 19h69q54 0 76.5 -18.5t22.5 -52.5v-400q93 67 245 67q213 0 323 -116.5zM778 506q0 113 -21 176.5t-65.5 90.5t-120.5 27q-75 0 -119 -27
t-64.5 -91t-20.5 -177v-41q0 -113 20 -177t64 -91t120 -27t120.5 27t65.5 90.5t21 176.5v43z" />
    <glyph glyph-name="c" unicode="c" horiz-adv-x="975" 
d="M197 93.5q-121 113.5 -121 371.5v39q0 258 121 371.5t339 113.5q146 0 274 -48l57 -23q39 -14 39 -54q0 -9 -4 -31l-16 -60q-6 -29 -16.5 -43.5t-27.5 -14.5q-6 0 -20 4l-47 16q-87 29 -175 29q-122 0 -183.5 -59t-61.5 -201v-39q0 -142 61.5 -201t183.5 -59q88 0 175 29
l47 16q14 4 20 4q17 0 27.5 -14.5t16.5 -43.5l16 -60q4 -24 4 -31q0 -21 -9 -34t-30 -20l-57 -23q-128 -48 -274 -48q-218 0 -339 113.5z" />
    <glyph glyph-name="cacute" unicode="&#x107;" horiz-adv-x="975" 
d="M76 0zM197 93.5q-121 113.5 -121 371.5v39q0 258 121 371.5t339 113.5q146 0 274 -48l57 -23q39 -14 39 -54q0 -9 -4 -31l-16 -60q-6 -29 -16.5 -43.5t-27.5 -14.5q-6 0 -20 4l-47 16q-87 29 -175 29q-122 0 -183.5 -59t-61.5 -201v-39q0 -142 61.5 -201t183.5 -59
q88 0 175 29l47 16q14 4 20 4q17 0 27.5 -14.5t16.5 -43.5l16 -60q4 -24 4 -31q0 -21 -9 -34t-30 -20l-57 -23q-128 -48 -274 -48q-218 0 -339 113.5zM415 1124q-15 12 -15 31q0 25 26 52l129 138q22 24 44.5 36t52.5 12h95q32 0 50.5 -13.5t18.5 -34.5q0 -26 -28 -51
l-128 -113q-42 -37 -75 -53t-71 -16h-60q-24 0 -39 12z" />
    <glyph glyph-name="ccaron" unicode="&#x10d;" horiz-adv-x="975" 
d="M76 0zM197 93.5q-121 113.5 -121 371.5v39q0 258 121 371.5t339 113.5q146 0 274 -48l57 -23q39 -14 39 -54q0 -9 -4 -31l-16 -60q-6 -29 -16.5 -43.5t-27.5 -14.5q-6 0 -20 4l-47 16q-87 29 -175 29q-122 0 -183.5 -59t-61.5 -201v-39q0 -142 61.5 -201t183.5 -59
q88 0 175 29l47 16q14 4 20 4q17 0 27.5 -14.5t16.5 -43.5l16 -60q4 -24 4 -31q0 -21 -9 -34t-30 -20l-57 -23q-128 -48 -274 -48q-218 0 -339 113.5zM840 1380.5q17 -12.5 17 -32.5q0 -26 -26 -53l-127 -134q-21 -24 -44 -35t-52 -11h-148q-29 0 -51.5 11t-44.5 35
l-127 134q-24 27 -24 51q0 21 18 34t50 13h30q36 0 58.5 -6.5t42 -23t52.5 -53.5l70 -77l69 77q32 35 52.5 52t43.5 24t59 7h34q31 0 48 -12.5z" />
    <glyph glyph-name="ccedilla" unicode="&#xe7;" horiz-adv-x="975" 
d="M902 136q4 -24 4 -31q0 -21 -9 -34t-30 -20l-57 -23q-96 -36 -204 -45l-12 -20q-10 -18 -10 -32q0 -18 16 -27t49 -18q39 -11 64 -23t43.5 -39t18.5 -73q0 -79 -66 -123t-189 -44q-63 0 -117 18.5t-86.5 48t-32.5 61.5q0 21 10 32t29 11q11 0 25.5 -5t28.5 -12
q32 -14 58 -22t62 -8q97 0 97 56q0 25 -18.5 37t-56.5 24q-42 13 -63.5 27.5t-21.5 46.5q0 28 20 59l15 25q-187 16 -290 130.5t-103 351.5v39q0 258 121 371.5t339 113.5q146 0 274 -48l57 -23q39 -14 39 -54q0 -9 -4 -31l-16 -60q-6 -29 -16.5 -43.5t-27.5 -14.5
q-6 0 -20 4l-47 16q-87 29 -175 29q-122 0 -183.5 -59t-61.5 -201v-39q0 -142 61.5 -201t183.5 -59q88 0 175 29l47 16q14 4 20 4q17 0 27.5 -14.5t16.5 -43.5z" />
    <glyph glyph-name="cdotaccent" unicode="&#x10b;" horiz-adv-x="975" 
d="M76 0zM197 93.5q-121 113.5 -121 371.5v39q0 258 121 371.5t339 113.5q146 0 274 -48l57 -23q39 -14 39 -54q0 -9 -4 -31l-16 -60q-6 -29 -16.5 -43.5t-27.5 -14.5q-6 0 -20 4l-47 16q-87 29 -175 29q-122 0 -183.5 -59t-61.5 -201v-39q0 -142 61.5 -201t183.5 -59
q88 0 175 29l47 16q14 4 20 4q17 0 27.5 -14.5t16.5 -43.5l16 -60q4 -24 4 -31q0 -21 -9 -34t-30 -20l-57 -23q-128 -48 -274 -48q-218 0 -339 113.5zM425.5 1160.5q-42.5 41.5 -42.5 111.5q0 68 42.5 109t111.5 41q68 0 110.5 -41t42.5 -109q0 -70 -42.5 -111.5
t-110.5 -41.5q-69 0 -111.5 41.5z" />
    <glyph glyph-name="d" unicode="d" horiz-adv-x="1128" 
d="M1032 1323v-860q0 -251 -117.5 -367t-354.5 -116q-163 0 -269.5 48.5t-160.5 155t-54 278.5v45q0 250 111 366t329 116q152 0 245 -67v401q0 71 107 71h60q104 0 104 -71zM761 505q0 113 -20 177t-64 91t-120 27t-120.5 -27t-65.5 -90.5t-21 -176.5v-43q0 -113 21 -176.5
t65.5 -90.5t120.5 -27t120 27t64 91t20 177v41z" />
    <glyph glyph-name="eth" unicode="&#xf0;" horiz-adv-x="1100" 
d="M966 886q59 -161 59 -349v-74q0 -251 -117 -367t-355 -116q-160 0 -265 48.5t-158.5 155t-53.5 278.5v45q0 249 110 365.5t323 116.5q85 0 146 -19q-29 61 -72 126l-157 -54q-19 -6 -35 -6q-26 0 -40.5 15.5t-14.5 44.5v13q0 68 66 89l82 28q-41 47 -88 90q-19 18 -19 39
q0 16 12 27t32 11h139q34 0 63 -12t57 -40q29 -29 36 -37l206 70q18 7 36 7q25 0 39.5 -15.5t14.5 -43.5v-13q0 -67 -66 -90l-127 -43q88 -129 147 -290zM758 491q0 117 -19.5 183.5t-64.5 95.5t-124 29q-76 0 -120.5 -26.5t-65 -90t-20.5 -176.5v-43q0 -113 20.5 -176.5
t65 -90t120.5 -26.5q77 0 122 27t65.5 90.5t20.5 176.5v27z" />
    <glyph glyph-name="dcaron" unicode="&#x10f;" horiz-adv-x="1417" 
d="M1384 1398q18 -15 18 -43q0 -11 -3 -23l-83 -351q-15 -65 -81 -65h-46q-33 0 -51 16t-18 46q0 11 1 17l59 351q4 33 24.5 50t53.5 17h76q32 0 50 -15zM1032 1323v-860q0 -251 -117.5 -367t-354.5 -116q-163 0 -269.5 48.5t-160.5 155t-54 278.5v45q0 250 111 366t329 116
q152 0 245 -67v401q0 71 107 71h60q104 0 104 -71zM761 505q0 113 -20 177t-64 91t-120 27t-120.5 -27t-65.5 -90.5t-21 -176.5v-43q0 -113 21 -176.5t65.5 -90.5t120.5 -27t120 27t64 91t20 177v41z" />
    <glyph glyph-name="dcroat" unicode="&#x111;" horiz-adv-x="1128" 
d="M1100 1216q18 -18 18 -51v-17q0 -34 -18 -51.5t-51 -17.5h-17v-616q0 -251 -117.5 -367t-354.5 -116q-163 0 -269.5 48.5t-160.5 155t-54 278.5v45q0 250 111 366t329 116q152 0 245 -67v157h-224q-33 0 -51 17.5t-18 51.5v17q0 33 18 51t51 18h224v89q0 71 107 71h60
q104 0 104 -71v-89h17q33 0 51 -18zM761 505q0 113 -20 177t-64 91t-120 27t-120.5 -27t-65.5 -90.5t-21 -176.5v-43q0 -113 21 -176.5t65.5 -90.5t120.5 -27t120 27t64 91t20 177v41z" />
    <glyph glyph-name="e" unicode="e" horiz-adv-x="1048" 
d="M950 128q5 -18 5 -29q0 -32 -35 -46l-64 -25q-119 -48 -284 -48q-229 0 -362.5 119t-133.5 367v38q0 158 58.5 267t165.5 163.5t252 54.5q133 0 228 -38t144 -108t49 -166q0 -103 -45 -164t-136.5 -89.5t-239.5 -32.5l-212 -7q23 -104 99.5 -151t187.5 -47q47 0 100.5 9
t94.5 24l45 16q15 5 24 5q15 0 24 -11.5t17 -38.5zM390 737.5q-57 -65.5 -59 -210.5l165 5q86 2 136.5 11t80 36.5t29.5 82.5q0 65 -44 103t-138 38q-113 0 -170 -65.5z" />
    <glyph glyph-name="eacute" unicode="&#xe9;" horiz-adv-x="1048" 
d="M76 0zM950 128q5 -18 5 -29q0 -32 -35 -46l-64 -25q-119 -48 -284 -48q-229 0 -362.5 119t-133.5 367v38q0 158 58.5 267t165.5 163.5t252 54.5q133 0 228 -38t144 -108t49 -166q0 -103 -45 -164t-136.5 -89.5t-239.5 -32.5l-212 -7q23 -104 99.5 -151t187.5 -47
q47 0 100.5 9t94.5 24l45 16q15 5 24 5q15 0 24 -11.5t17 -38.5zM390 737.5q-57 -65.5 -59 -210.5l165 5q86 2 136.5 11t80 36.5t29.5 82.5q0 65 -44 103t-138 38q-113 0 -170 -65.5zM433 1124q-15 12 -15 31q0 25 26 52l129 138q22 24 44.5 36t52.5 12h95q32 0 50.5 -13.5
t18.5 -34.5q0 -26 -28 -51l-128 -113q-42 -37 -75 -53t-71 -16h-60q-24 0 -39 12z" />
    <glyph glyph-name="ecaron" unicode="&#x11b;" horiz-adv-x="1048" 
d="M76 0zM950 128q5 -18 5 -29q0 -32 -35 -46l-64 -25q-119 -48 -284 -48q-229 0 -362.5 119t-133.5 367v38q0 158 58.5 267t165.5 163.5t252 54.5q133 0 228 -38t144 -108t49 -166q0 -103 -45 -164t-136.5 -89.5t-239.5 -32.5l-212 -7q23 -104 99.5 -151t187.5 -47
q47 0 100.5 9t94.5 24l45 16q15 5 24 5q15 0 24 -11.5t17 -38.5zM390 737.5q-57 -65.5 -59 -210.5l165 5q86 2 136.5 11t80 36.5t29.5 82.5q0 65 -44 103t-138 38q-113 0 -170 -65.5zM858 1380.5q17 -12.5 17 -32.5q0 -26 -26 -53l-127 -134q-21 -24 -44 -35t-52 -11h-148
q-29 0 -51.5 11t-44.5 35l-127 134q-24 27 -24 51q0 21 18 34t50 13h30q36 0 58.5 -6.5t42 -23t52.5 -53.5l70 -77l69 77q32 35 52.5 52t43.5 24t59 7h34q31 0 48 -12.5z" />
    <glyph glyph-name="ecircumflex" unicode="&#xea;" horiz-adv-x="1048" 
d="M76 0zM950 128q5 -18 5 -29q0 -32 -35 -46l-64 -25q-119 -48 -284 -48q-229 0 -362.5 119t-133.5 367v38q0 158 58.5 267t165.5 163.5t252 54.5q133 0 228 -38t144 -108t49 -166q0 -103 -45 -164t-136.5 -89.5t-239.5 -32.5l-212 -7q23 -104 99.5 -151t187.5 -47
q47 0 100.5 9t94.5 24l45 16q15 5 24 5q15 0 24 -11.5t17 -38.5zM390 737.5q-57 -65.5 -59 -210.5l165 5q86 2 136.5 11t80 36.5t29.5 82.5q0 65 -44 103t-138 38q-113 0 -170 -65.5zM875 1160q0 -20 -17 -32.5t-48 -12.5h-34q-36 0 -59 7t-43.5 24t-52.5 52l-69 76l-70 -76
q-32 -36 -52 -52.5t-42.5 -23.5t-58.5 -7h-30q-32 0 -50 13t-18 34q0 23 24 50l127 134q22 25 44.5 36t51.5 11h148q29 0 52 -11.5t44 -35.5l127 -134q26 -26 26 -52z" />
    <glyph glyph-name="edieresis" unicode="&#xeb;" horiz-adv-x="1048" 
d="M76 0zM950 128q5 -18 5 -29q0 -32 -35 -46l-64 -25q-119 -48 -284 -48q-229 0 -362.5 119t-133.5 367v38q0 158 58.5 267t165.5 163.5t252 54.5q133 0 228 -38t144 -108t49 -166q0 -103 -45 -164t-136.5 -89.5t-239.5 -32.5l-212 -7q23 -104 99.5 -151t187.5 -47
q47 0 100.5 9t94.5 24l45 16q15 5 24 5q15 0 24 -11.5t17 -38.5zM390 737.5q-57 -65.5 -59 -210.5l165 5q86 2 136.5 11t80 36.5t29.5 82.5q0 65 -44 103t-138 38q-113 0 -170 -65.5zM285.5 1155.5q-37.5 36.5 -37.5 98.5q0 59 37.5 95t98.5 36q60 0 97 -35.5t37 -95.5
q0 -62 -37 -98.5t-97 -36.5q-61 0 -98.5 36.5zM630 1155.5q-37 36.5 -37 98.5q0 60 37.5 95.5t97.5 35.5t97 -35.5t37 -95.5q0 -62 -37 -98.5t-97 -36.5q-61 0 -98 36.5z" />
    <glyph glyph-name="edotaccent" unicode="&#x117;" horiz-adv-x="1048" 
d="M76 0zM950 128q5 -18 5 -29q0 -32 -35 -46l-64 -25q-119 -48 -284 -48q-229 0 -362.5 119t-133.5 367v38q0 158 58.5 267t165.5 163.5t252 54.5q133 0 228 -38t144 -108t49 -166q0 -103 -45 -164t-136.5 -89.5t-239.5 -32.5l-212 -7q23 -104 99.5 -151t187.5 -47
q47 0 100.5 9t94.5 24l45 16q15 5 24 5q15 0 24 -11.5t17 -38.5zM390 737.5q-57 -65.5 -59 -210.5l165 5q86 2 136.5 11t80 36.5t29.5 82.5q0 65 -44 103t-138 38q-113 0 -170 -65.5zM443.5 1160.5q-42.5 41.5 -42.5 111.5q0 68 42.5 109t111.5 41q68 0 110.5 -41t42.5 -109
q0 -70 -42.5 -111.5t-110.5 -41.5q-69 0 -111.5 41.5z" />
    <glyph glyph-name="egrave" unicode="&#xe8;" horiz-adv-x="1048" 
d="M76 0zM950 128q5 -18 5 -29q0 -32 -35 -46l-64 -25q-119 -48 -284 -48q-229 0 -362.5 119t-133.5 367v38q0 158 58.5 267t165.5 163.5t252 54.5q133 0 228 -38t144 -108t49 -166q0 -103 -45 -164t-136.5 -89.5t-239.5 -32.5l-212 -7q23 -104 99.5 -151t187.5 -47
q47 0 100.5 9t94.5 24l45 16q15 5 24 5q15 0 24 -11.5t17 -38.5zM390 737.5q-57 -65.5 -59 -210.5l165 5q86 2 136.5 11t80 36.5t29.5 82.5q0 65 -44 103t-138 38q-113 0 -170 -65.5zM577 1112q-38 0 -71.5 16t-75.5 53l-128 113q-28 25 -28 51q0 21 18.5 34.5t50.5 13.5h94
q30 0 53 -12t45 -36l128 -138q26 -27 26 -53q0 -19 -14 -30.5t-38 -11.5h-60z" />
    <glyph glyph-name="emacron" unicode="&#x113;" horiz-adv-x="1048" 
d="M76 0zM950 128q5 -18 5 -29q0 -32 -35 -46l-64 -25q-119 -48 -284 -48q-229 0 -362.5 119t-133.5 367v38q0 158 58.5 267t165.5 163.5t252 54.5q133 0 228 -38t144 -108t49 -166q0 -103 -45 -164t-136.5 -89.5t-239.5 -32.5l-212 -7q23 -104 99.5 -151t187.5 -47
q47 0 100.5 9t94.5 24l45 16q15 5 24 5q15 0 24 -11.5t17 -38.5zM390 737.5q-57 -65.5 -59 -210.5l165 5q86 2 136.5 11t80 36.5t29.5 82.5q0 65 -44 103t-138 38q-113 0 -170 -65.5zM228 1252v29q0 77 57 77h540q57 0 57 -77v-29q0 -42 -15.5 -59t-41.5 -17h-540
q-57 0 -57 76z" />
    <glyph glyph-name="eogonek" unicode="&#x119;" horiz-adv-x="1048" 
d="M993.5 -149.5q10.5 -11.5 10.5 -32.5q0 -37 -34.5 -69t-91.5 -50.5t-119 -18.5q-95 0 -149 40t-54 115q0 43 22 80.5t59 66.5q-42 -2 -65 -2q-229 0 -362.5 119t-133.5 367v38q0 158 58.5 267t165.5 163.5t252 54.5q133 0 228 -38t144 -108t49 -166q0 -103 -45 -164
t-136.5 -89.5t-239.5 -32.5l-212 -7q23 -104 99.5 -151t187.5 -47q47 0 100.5 9t94.5 24l45 16q15 5 24 5q15 0 24 -11.5t17 -38.5l18 -62q5 -18 5 -29q0 -32 -35 -46l-28 -11l1 -1q-69 -27 -113.5 -67t-44.5 -89q0 -31 18.5 -46.5t57.5 -15.5q28 0 49.5 6t49.5 18
q14 6 28 10.5t25 4.5q20 0 30.5 -11.5zM390 737.5q-57 -65.5 -59 -210.5l165 5q86 2 136.5 11t80 36.5t29.5 82.5q0 65 -44 103t-138 38q-113 0 -170 -65.5z" />
    <glyph glyph-name="f" unicode="f" horiz-adv-x="770" 
d="M761 1316v-48q0 -76 -56 -76h-46q-103 0 -154 -47t-51 -151v-25h226q57 0 57 -77v-29q0 -76 -57 -76h-226v-716q0 -71 -109 -71h-55q-60 0 -84 19t-24 52v716h-88q-58 0 -58 76v29q0 77 58 77h88v27q0 123 47.5 212t141 137t228.5 48h106q56 0 56 -77z" />
    <glyph glyph-name="g" unicode="g" horiz-adv-x="1123" 
d="M1075 892v-26q0 -76 -56 -76h-98q31 -61 31 -135q0 -105 -42.5 -173.5t-137.5 -103.5t-253 -35h-96q-32 0 -51 -16.5t-19 -41.5q0 -29 23.5 -44t76.5 -18l222 -12q200 -10 290.5 -77t90.5 -200q0 -100 -58 -172.5t-171 -111.5t-272 -39q-234 0 -362.5 74t-128.5 212
q0 77 48 125.5t132 64.5q-85 47 -85 139q0 50 27.5 88.5t82.5 61.5q-97 33 -140.5 102t-43.5 177q0 156 103.5 235t335.5 79h1h494q56 0 56 -77zM632 500.5q39 16.5 55 52t16 95.5t-16 95t-55 51t-109 16q-69 0 -108.5 -17t-56.5 -52t-17 -92q0 -61 17 -96.5t56 -52
t109 -16.5t109 16.5zM411 45q-61 0 -94 -31t-33 -82q0 -152 287 -152q233 0 233 132q0 37 -16 59t-57.5 36t-120.5 21z" />
    <glyph glyph-name="gbreve" unicode="&#x11f;" horiz-adv-x="1123" 
d="M64 0zM1075 892v-26q0 -76 -56 -76h-98q31 -61 31 -135q0 -105 -42.5 -173.5t-137.5 -103.5t-253 -35h-96q-32 0 -51 -16.5t-19 -41.5q0 -29 23.5 -44t76.5 -18l222 -12q200 -10 290.5 -77t90.5 -200q0 -100 -58 -172.5t-171 -111.5t-272 -39q-234 0 -362.5 74
t-128.5 212q0 77 48 125.5t132 64.5q-85 47 -85 139q0 50 27.5 88.5t82.5 61.5q-97 33 -140.5 102t-43.5 177q0 156 103.5 235t335.5 79h1h494q56 0 56 -77zM632 500.5q39 16.5 55 52t16 95.5t-16 95t-55 51t-109 16q-69 0 -108.5 -17t-56.5 -52t-17 -92q0 -61 17 -96.5
t56 -52t109 -16.5t109 16.5zM411 45q-61 0 -94 -31t-33 -82q0 -152 287 -152q233 0 233 132q0 37 -16 59t-57.5 36t-120.5 21zM369.5 1132.5q-76.5 34.5 -115 94.5t-38.5 136q0 48 18 74t45 26q22 0 35.5 -15t29.5 -46q20 -40 40.5 -65.5t62.5 -44.5t109 -19t109 19
t62.5 44.5t40.5 65.5q16 31 29.5 46t35.5 15q27 0 45 -26t18 -74q0 -76 -38.5 -136t-115 -94.5t-186.5 -34.5t-186.5 34.5z" />
    <glyph glyph-name="gcommaaccent" unicode="&#x123;" horiz-adv-x="1123" 
d="M474 1123.5q-17 14.5 -17 39.5q0 12 5 30l68 206q19 60 83 60h72q33 0 51 -15t18 -42q0 -10 -3 -22l-52 -207q-13 -64 -82 -64h-95q-31 0 -48 14.5zM1075 892v-26q0 -76 -56 -76h-98q31 -61 31 -135q0 -105 -42.5 -173.5t-137.5 -103.5t-253 -35h-96q-32 0 -51 -16.5
t-19 -41.5q0 -29 23.5 -44t76.5 -18l222 -12q200 -10 290.5 -77t90.5 -200q0 -100 -58 -172.5t-171 -111.5t-272 -39q-234 0 -362.5 74t-128.5 212q0 77 48 125.5t132 64.5q-85 47 -85 139q0 50 27.5 88.5t82.5 61.5q-97 33 -140.5 102t-43.5 177q0 156 103.5 235t335.5 79
h1h494q56 0 56 -77zM632 500.5q39 16.5 55 52t16 95.5t-16 95t-55 51t-109 16q-69 0 -108.5 -17t-56.5 -52t-17 -92q0 -61 17 -96.5t56 -52t109 -16.5t109 16.5zM411 45q-61 0 -94 -31t-33 -82q0 -152 287 -152q233 0 233 132q0 37 -16 59t-57.5 36t-120.5 21z" />
    <glyph glyph-name="gdotaccent" unicode="&#x121;" horiz-adv-x="1123" 
d="M64 0zM1075 892v-26q0 -76 -56 -76h-98q31 -61 31 -135q0 -105 -42.5 -173.5t-137.5 -103.5t-253 -35h-96q-32 0 -51 -16.5t-19 -41.5q0 -29 23.5 -44t76.5 -18l222 -12q200 -10 290.5 -77t90.5 -200q0 -100 -58 -172.5t-171 -111.5t-272 -39q-234 0 -362.5 74
t-128.5 212q0 77 48 125.5t132 64.5q-85 47 -85 139q0 50 27.5 88.5t82.5 61.5q-97 33 -140.5 102t-43.5 177q0 156 103.5 235t335.5 79h1h494q56 0 56 -77zM632 500.5q39 16.5 55 52t16 95.5t-16 95t-55 51t-109 16q-69 0 -108.5 -17t-56.5 -52t-17 -92q0 -61 17 -96.5
t56 -52t109 -16.5t109 16.5zM411 45q-61 0 -94 -31t-33 -82q0 -152 287 -152q233 0 233 132q0 37 -16 59t-57.5 36t-120.5 21zM444.5 1160.5q-42.5 41.5 -42.5 111.5q0 68 42.5 109t111.5 41q68 0 110.5 -41t42.5 -109q0 -70 -42.5 -111.5t-110.5 -41.5q-69 0 -111.5 41.5z
" />
    <glyph glyph-name="h" unicode="h" horiz-adv-x="1097" 
d="M904.5 893.5q97.5 -95.5 97.5 -286.5v-536q0 -71 -105 -71h-61q-106 0 -106 71v528q0 98 -39.5 142.5t-132.5 44.5q-98 0 -141.5 -45t-43.5 -142v-528q0 -71 -108 -71h-56q-60 0 -83.5 19.5t-23.5 51.5v1251q0 32 23.5 51.5t83.5 19.5h56q108 0 108 -71v-383
q94 50 232 50q202 0 299.5 -95.5z" />
    <glyph glyph-name="hbar" unicode="&#x127;" horiz-adv-x="1097" 
d="M939.5 893.5q97.5 -95.5 97.5 -286.5v-536q0 -71 -105 -71h-61q-106 0 -106 71v528q0 98 -39.5 142.5t-132.5 44.5q-98 0 -141.5 -45t-43.5 -142v-528q0 -71 -108 -71h-56q-60 0 -83.5 19.5t-23.5 51.5v1008h-42q-33 0 -51 17.5t-18 51.5v17q0 33 18 51t51 18h42v88
q0 32 23.5 51.5t83.5 19.5h56q108 0 108 -71v-88h377q33 0 51 -18t18 -51v-17q0 -34 -18 -51.5t-51 -17.5h-377v-140q94 50 232 50q202 0 299.5 -95.5z" />
    <glyph glyph-name="i" unicode="i" horiz-adv-x="475" 
d="M132 1165.5q-41 39.5 -41 106.5q0 64 41 103t106 39q64 0 105 -39t41 -103q0 -67 -40.5 -106.5t-105.5 -39.5t-106 39.5zM125.5 19.5q-23.5 19.5 -23.5 51.5v827q0 32 23.5 51.5t83.5 19.5h56q108 0 108 -71v-827q0 -71 -108 -71h-56q-60 0 -83.5 19.5z" />
    <glyph glyph-name="dotlessi" unicode="&#x131;" horiz-adv-x="475" 
d="M125.5 19.5q-23.5 19.5 -23.5 51.5v827q0 32 23.5 51.5t83.5 19.5h56q108 0 108 -71v-827q0 -71 -108 -71h-56q-60 0 -83.5 19.5z" />
    <glyph glyph-name="iacute" unicode="&#xed;" horiz-adv-x="475" 
d="M102 0zM125.5 19.5q-23.5 19.5 -23.5 51.5v827q0 32 23.5 51.5t83.5 19.5h56q108 0 108 -71v-827q0 -71 -108 -71h-56q-60 0 -83.5 19.5zM131 1124q-15 12 -15 31q0 25 26 52l129 138q22 24 44.5 36t52.5 12h95q32 0 50.5 -13.5t18.5 -34.5q0 -26 -28 -51l-128 -113
q-42 -37 -75 -53t-71 -16h-60q-24 0 -39 12z" />
    <glyph glyph-name="icircumflex" unicode="&#xee;" horiz-adv-x="475" 
d="M0 0zM125.5 19.5q-23.5 19.5 -23.5 51.5v827q0 32 23.5 51.5t83.5 19.5h56q108 0 108 -71v-827q0 -71 -108 -71h-56q-60 0 -83.5 19.5zM573 1160q0 -20 -17 -32.5t-48 -12.5h-34q-36 0 -59 7t-43.5 24t-52.5 52l-69 76l-70 -76q-32 -36 -52 -52.5t-42.5 -23.5t-58.5 -7
h-30q-32 0 -50 13t-18 34q0 23 24 50l127 134q22 25 44.5 36t51.5 11h148q29 0 52 -11.5t44 -35.5l127 -134q26 -26 26 -52z" />
    <glyph glyph-name="idieresis" unicode="&#xef;" horiz-adv-x="475" 
d="M0 0zM125.5 19.5q-23.5 19.5 -23.5 51.5v827q0 32 23.5 51.5t83.5 19.5h56q108 0 108 -71v-827q0 -71 -108 -71h-56q-60 0 -83.5 19.5zM-16.5 1155.5q-37.5 36.5 -37.5 98.5q0 59 37.5 95t98.5 36q60 0 97 -35.5t37 -95.5q0 -62 -37 -98.5t-97 -36.5q-61 0 -98.5 36.5z
M328 1155.5q-37 36.5 -37 98.5q0 60 37.5 95.5t97.5 35.5t97 -35.5t37 -95.5q0 -62 -37 -98.5t-97 -36.5q-61 0 -98 36.5z" />
    <glyph glyph-name="i.loclTRK" horiz-adv-x="475" 
d="M99 0zM125.5 19.5q-23.5 19.5 -23.5 51.5v827q0 32 23.5 51.5t83.5 19.5h56q108 0 108 -71v-827q0 -71 -108 -71h-56q-60 0 -83.5 19.5zM141.5 1160.5q-42.5 41.5 -42.5 111.5q0 68 42.5 109t111.5 41q68 0 110.5 -41t42.5 -109q0 -70 -42.5 -111.5t-110.5 -41.5
q-69 0 -111.5 41.5z" />
    <glyph glyph-name="igrave" unicode="&#xec;" horiz-adv-x="475" 
d="M0 0zM125.5 19.5q-23.5 19.5 -23.5 51.5v827q0 32 23.5 51.5t83.5 19.5h56q108 0 108 -71v-827q0 -71 -108 -71h-56q-60 0 -83.5 19.5zM275 1112q-38 0 -71.5 16t-75.5 53l-128 113q-28 25 -28 51q0 21 18.5 34.5t50.5 13.5h94q30 0 53 -12t45 -36l128 -138
q26 -27 26 -53q0 -19 -14 -30.5t-38 -11.5h-60z" />
    <glyph glyph-name="imacron" unicode="&#x12b;" horiz-adv-x="475" 
d="M0 0zM125.5 19.5q-23.5 19.5 -23.5 51.5v827q0 32 23.5 51.5t83.5 19.5h56q108 0 108 -71v-827q0 -71 -108 -71h-56q-60 0 -83.5 19.5zM-74 1252v29q0 77 57 77h540q57 0 57 -77v-29q0 -42 -15.5 -59t-41.5 -17h-540q-57 0 -57 76z" />
    <glyph glyph-name="iogonek" unicode="&#x12f;" horiz-adv-x="475" 
d="M141.5 1160.5q-42.5 41.5 -42.5 111.5q0 68 42.5 109t111.5 41q68 0 110.5 -41t42.5 -109q0 -70 -42.5 -111.5t-110.5 -41.5q-69 0 -111.5 41.5zM439.5 -176.5q10.5 -11.5 10.5 -32.5q0 -37 -34.5 -69t-91.5 -50.5t-119 -18.5q-95 0 -149 40t-54 115q0 66 48 117t117 78
q-65 13 -65 68v827q0 32 23.5 51.5t83.5 19.5h56q108 0 108 -71v-827q0 -50 -52 -64q-62 -28 -101 -65.5t-39 -83.5q0 -31 18.5 -46.5t57.5 -15.5q28 0 49.5 6t49.5 18q14 6 28 10.5t25 4.5q20 0 30.5 -11.5z" />
    <glyph glyph-name="ij" unicode="&#x133;" horiz-adv-x="962" 
d="M91 0zM132 1165.5q-41 39.5 -41 106.5q0 64 41 103t106 39q64 0 105 -39t41 -103q0 -67 -40.5 -106.5t-105.5 -39.5t-106 39.5zM125.5 19.5q-23.5 19.5 -23.5 51.5v827q0 32 23.5 51.5t83.5 19.5h56q108 0 108 -71v-827q0 -71 -108 -71h-56q-60 0 -83.5 19.5z
M608.5 1165.5q-40.5 39.5 -40.5 106.5q0 64 40.5 103t105.5 39t105.5 -39t40.5 -103q0 -67 -40.5 -106.5t-105.5 -39.5t-105.5 39.5zM407 -356q-43 33 -43 89v20q0 53 69 53q72 0 108 39t36 122v931q0 32 23.5 51.5t83.5 19.5h56q108 0 108 -71v-939q0 -113 -40 -191
t-111.5 -117.5t-164.5 -39.5q-82 0 -125 33z" />
    <glyph glyph-name="j" unicode="j" horiz-adv-x="487" 
d="M133.5 1165.5q-40.5 39.5 -40.5 106.5q0 64 40.5 103t105.5 39t105.5 -39t40.5 -103q0 -67 -40.5 -106.5t-105.5 -39.5t-105.5 39.5zM-68 -356q-43 33 -43 89v20q0 53 69 53q72 0 108 39t36 122v931q0 32 23.5 51.5t83.5 19.5h56q108 0 108 -71v-939q0 -113 -40 -191
t-111.5 -117.5t-164.5 -39.5q-82 0 -125 33z" />
    <glyph glyph-name="k" unicode="k" horiz-adv-x="1070" 
d="M125.5 19.5q-23.5 19.5 -23.5 51.5v1251q0 32 23.5 51.5t83.5 19.5h56q108 0 108 -71v-1251q0 -71 -108 -71h-56q-60 0 -83.5 19.5zM749 20q-38 20 -56 52l-261 372q-13 20 -13 42t13 41l263 370q18 32 56 52t99 20h89q76 0 76 -35q0 -15 -15 -37l-332 -408l332 -417
q15 -22 15 -37q0 -35 -76 -35h-91q-61 0 -99 20z" />
    <glyph glyph-name="kcommaaccent" unicode="&#x137;" horiz-adv-x="1070" 
d="M102 0zM125.5 19.5q-23.5 19.5 -23.5 51.5v1251q0 32 23.5 51.5t83.5 19.5h56q108 0 108 -71v-1251q0 -71 -108 -71h-56q-60 0 -83.5 19.5zM749 20q-38 20 -56 52l-261 372q-13 20 -13 42t13 41l263 370q18 32 56 52t99 20h89q76 0 76 -35q0 -15 -15 -37l-332 -408
l332 -417q15 -22 15 -37q0 -35 -76 -35h-91q-61 0 -99 20zM366 -429.5q-16 15.5 -16 43.5q0 12 3 27l48 195q7 34 29.5 52t58.5 18h83q34 0 53 -15.5t19 -42.5q0 -14 -6 -32l-58 -169q-33 -92 -95 -92h-74q-29 0 -45 15.5z" />
    <glyph glyph-name="l" unicode="l" horiz-adv-x="475" 
d="M125.5 19.5q-23.5 19.5 -23.5 51.5v1251q0 32 23.5 51.5t83.5 19.5h56q108 0 108 -71v-1251q0 -71 -108 -71h-56q-60 0 -83.5 19.5z" />
    <glyph glyph-name="lacute" unicode="&#x13a;" horiz-adv-x="475" 
d="M97 0zM125.5 19.5q-23.5 19.5 -23.5 51.5v1251q0 32 23.5 51.5t83.5 19.5h56q108 0 108 -71v-1251q0 -71 -108 -71h-56q-60 0 -83.5 19.5zM112 1501q-15 12 -15 31q0 25 26 52l129 138q22 24 44.5 36t52.5 12h95q32 0 50.5 -13.5t18.5 -34.5q0 -26 -28 -51l-128 -113
q-42 -37 -75 -53t-71 -16h-60q-24 0 -39 12z" />
    <glyph glyph-name="lcaron" unicode="&#x13e;" horiz-adv-x="555" 
d="M102 0zM125.5 19.5q-23.5 19.5 -23.5 51.5v1251q0 32 23.5 51.5t83.5 19.5h56q108 0 108 -71v-1251q0 -71 -108 -71h-56q-60 0 -83.5 19.5zM448 960q0 10 1 15l48 350q4 33 24 50.5t53 17.5h77q32 0 49 -15t17 -44q0 -14 -2 -22l-70 -352q-12 -64 -80 -64h-47
q-70 0 -70 64z" />
    <glyph glyph-name="lcommaaccent" unicode="&#x13c;" horiz-adv-x="475" 
d="M52 0zM125.5 19.5q-23.5 19.5 -23.5 51.5v1251q0 32 23.5 51.5t83.5 19.5h56q108 0 108 -71v-1251q0 -71 -108 -71h-56q-60 0 -83.5 19.5zM68 -429.5q-16 15.5 -16 43.5q0 12 3 27l48 195q7 34 29.5 52t58.5 18h83q34 0 53 -15.5t19 -42.5q0 -14 -6 -32l-58 -169
q-33 -92 -95 -92h-74q-29 0 -45 15.5z" />
    <glyph glyph-name="ldot" unicode="&#x140;" horiz-adv-x="721" 
d="M125.5 19.5q-23.5 19.5 -23.5 51.5v1251q0 32 23.5 51.5t83.5 19.5h56q108 0 108 -71v-1251q0 -71 -108 -71h-56q-60 0 -83.5 19.5zM438 582q0 68 33 101t95 33t93 -32t31 -102q0 -69 -32 -101.5t-94 -32.5q-126 0 -126 134z" />
    <glyph glyph-name="lslash" unicode="&#x142;" horiz-adv-x="475" 
d="M475.5 972q12.5 -15 12.5 -43v-68q0 -63 -56 -94l-59 -33v-663q0 -71 -108 -71h-56q-60 0 -83.5 19.5t-23.5 51.5v511l-22 -12q-25 -14 -47 -14t-34.5 15.5t-12.5 43.5v66q0 33 13.5 55.5t42.5 39.5l60 33v513q0 32 23.5 51.5t83.5 19.5h56q108 0 108 -71v-362l21 12
q27 15 48 15t33.5 -15z" />
    <glyph glyph-name="m" unicode="m" horiz-adv-x="1661" 
d="M1457 893q108 -96 108 -286v-536q0 -32 -22.5 -51.5t-78.5 -19.5h-69q-56 0 -78.5 19.5t-22.5 51.5v528q0 97 -39 141.5t-126 44.5q-90 0 -126.5 -43.5t-36.5 -142.5v-528q0 -33 -22 -52t-78 -19h-69q-102 0 -102 71v528q0 99 -36.5 142.5t-126.5 43.5q-87 0 -126 -44.5
t-39 -141.5v-528q0 -33 -22.5 -52t-80.5 -19h-67q-56 0 -78.5 19.5t-22.5 51.5v536q0 189 109 285.5t323 96.5q92 0 169 -21.5t134 -64.5q115 86 303 86q215 0 323 -96z" />
    <glyph glyph-name="n" unicode="n" horiz-adv-x="1097" 
d="M96 60v548q0 189 114 285t338 96t338.5 -96t114.5 -285v-548q0 -70 -105 -70h-61q-106 0 -106 70v540q0 98 -42 142t-139 44t-139 -44t-42 -142v-540q0 -70 -105 -70h-62q-104 0 -104 70z" />
    <glyph glyph-name="nacute" unicode="&#x144;" horiz-adv-x="1097" 
d="M96 0zM96 60v548q0 189 114 285t338 96t338.5 -96t114.5 -285v-548q0 -70 -105 -70h-61q-106 0 -106 70v540q0 98 -42 142t-139 44t-139 -44t-42 -142v-540q0 -70 -105 -70h-62q-104 0 -104 70zM419 1124q-15 12 -15 31q0 25 26 52l129 138q22 24 44.5 36t52.5 12h95
q32 0 50.5 -13.5t18.5 -34.5q0 -26 -28 -51l-128 -113q-42 -37 -75 -53t-71 -16h-60q-24 0 -39 12z" />
    <glyph glyph-name="ncaron" unicode="&#x148;" horiz-adv-x="1097" 
d="M96 0zM96 60v548q0 189 114 285t338 96t338.5 -96t114.5 -285v-548q0 -70 -105 -70h-61q-106 0 -106 70v540q0 98 -42 142t-139 44t-139 -44t-42 -142v-540q0 -70 -105 -70h-62q-104 0 -104 70zM844 1380.5q17 -12.5 17 -32.5q0 -26 -26 -53l-127 -134q-21 -24 -44 -35
t-52 -11h-148q-29 0 -51.5 11t-44.5 35l-127 134q-24 27 -24 51q0 21 18 34t50 13h30q36 0 58.5 -6.5t42 -23t52.5 -53.5l70 -77l69 77q32 35 52.5 52t43.5 24t59 7h34q31 0 48 -12.5z" />
    <glyph glyph-name="ncommaaccent" unicode="&#x146;" horiz-adv-x="1097" 
d="M96 0zM96 60v548q0 189 114 285t338 96t338.5 -96t114.5 -285v-548q0 -70 -105 -70h-61q-106 0 -106 70v540q0 98 -42 142t-139 44t-139 -44t-42 -142v-540q0 -70 -105 -70h-62q-104 0 -104 70zM377 -429.5q-16 15.5 -16 43.5q0 12 3 27l48 195q7 34 29.5 52t58.5 18h83
q34 0 53 -15.5t19 -42.5q0 -14 -6 -32l-58 -169q-33 -92 -95 -92h-74q-29 0 -45 15.5z" />
    <glyph glyph-name="eng" unicode="&#x14b;" horiz-adv-x="1092" 
d="M557.5 -356q-43.5 33 -43.5 89v21q0 53 70 53t105.5 39t35.5 122v632q0 98 -41.5 142t-137.5 44q-95 0 -137 -44t-42 -142v-529q0 -71 -105 -71h-62q-104 0 -104 71v536q0 189 113.5 285.5t336.5 96.5t336.5 -96.5t113.5 -285.5v-648q0 -170 -83.5 -259t-230.5 -89
q-81 0 -124.5 33z" />
    <glyph glyph-name="ntilde" unicode="&#xf1;" horiz-adv-x="1097" 
d="M96 0zM96 60v548q0 189 114 285t338 96t338.5 -96t114.5 -285v-548q0 -70 -105 -70h-61q-106 0 -106 70v540q0 98 -42 142t-139 44t-139 -44t-42 -142v-540q0 -70 -105 -70h-62q-104 0 -104 70zM193.5 1153.5q-19.5 24.5 -19.5 70.5q0 49 24.5 91t74 67t119.5 25
q61 0 101.5 -15.5t93.5 -45.5q36 -22 61.5 -32.5t55.5 -10.5q36 0 51 14.5t29 42.5q11 24 22 35.5t35 11.5q27 0 46.5 -24.5t19.5 -69.5q0 -49 -24.5 -91t-73.5 -67.5t-119 -25.5q-58 0 -97 15t-88 44q-38 23 -65.5 34.5t-63.5 11.5t-51.5 -14.5t-28.5 -43.5
q-11 -24 -22 -35.5t-34 -11.5q-27 0 -46.5 24.5z" />
    <glyph glyph-name="o" unicode="o" horiz-adv-x="1123" 
d="M197.5 96.5q-121.5 116.5 -121.5 366.5v43q0 250 121.5 366.5t362.5 116.5q242 0 365 -114t123 -368v-45q0 -254 -123 -368t-365 -114q-241 0 -362.5 116.5zM683.5 195.5q45.5 26.5 67.5 90.5t22 177v43q0 113 -22 177t-67.5 90.5t-121.5 26.5q-77 0 -122.5 -27
t-67.5 -91t-22 -177v-41q0 -113 22 -177t67.5 -91t122.5 -27q76 0 121.5 26.5z" />
    <glyph glyph-name="oacute" unicode="&#xf3;" horiz-adv-x="1123" 
d="M76 0zM197.5 96.5q-121.5 116.5 -121.5 366.5v43q0 250 121.5 366.5t362.5 116.5q242 0 365 -114t123 -368v-45q0 -254 -123 -368t-365 -114q-241 0 -362.5 116.5zM683.5 195.5q45.5 26.5 67.5 90.5t22 177v43q0 113 -22 177t-67.5 90.5t-121.5 26.5q-77 0 -122.5 -27
t-67.5 -91t-22 -177v-41q0 -113 22 -177t67.5 -91t122.5 -27q76 0 121.5 26.5zM447 1124q-15 12 -15 31q0 25 26 52l129 138q22 24 44.5 36t52.5 12h95q32 0 50.5 -13.5t18.5 -34.5q0 -26 -28 -51l-128 -113q-42 -37 -75 -53t-71 -16h-60q-24 0 -39 12z" />
    <glyph glyph-name="ocircumflex" unicode="&#xf4;" horiz-adv-x="1123" 
d="M76 0zM197.5 96.5q-121.5 116.5 -121.5 366.5v43q0 250 121.5 366.5t362.5 116.5q242 0 365 -114t123 -368v-45q0 -254 -123 -368t-365 -114q-241 0 -362.5 116.5zM683.5 195.5q45.5 26.5 67.5 90.5t22 177v43q0 113 -22 177t-67.5 90.5t-121.5 26.5q-77 0 -122.5 -27
t-67.5 -91t-22 -177v-41q0 -113 22 -177t67.5 -91t122.5 -27q76 0 121.5 26.5zM889 1160q0 -20 -17 -32.5t-48 -12.5h-34q-36 0 -59 7t-43.5 24t-52.5 52l-69 76l-70 -76q-32 -36 -52 -52.5t-42.5 -23.5t-58.5 -7h-30q-32 0 -50 13t-18 34q0 23 24 50l127 134q22 25 44.5 36
t51.5 11h148q29 0 52 -11.5t44 -35.5l127 -134q26 -26 26 -52z" />
    <glyph glyph-name="odieresis" unicode="&#xf6;" horiz-adv-x="1123" 
d="M76 0zM197.5 96.5q-121.5 116.5 -121.5 366.5v43q0 250 121.5 366.5t362.5 116.5q242 0 365 -114t123 -368v-45q0 -254 -123 -368t-365 -114q-241 0 -362.5 116.5zM683.5 195.5q45.5 26.5 67.5 90.5t22 177v43q0 113 -22 177t-67.5 90.5t-121.5 26.5q-77 0 -122.5 -27
t-67.5 -91t-22 -177v-41q0 -113 22 -177t67.5 -91t122.5 -27q76 0 121.5 26.5zM299.5 1155.5q-37.5 36.5 -37.5 98.5q0 59 37.5 95t98.5 36q60 0 97 -35.5t37 -95.5q0 -62 -37 -98.5t-97 -36.5q-61 0 -98.5 36.5zM644 1155.5q-37 36.5 -37 98.5q0 60 37.5 95.5t97.5 35.5
t97 -35.5t37 -95.5q0 -62 -37 -98.5t-97 -36.5q-61 0 -98 36.5z" />
    <glyph glyph-name="ograve" unicode="&#xf2;" horiz-adv-x="1123" 
d="M76 0zM197.5 96.5q-121.5 116.5 -121.5 366.5v43q0 250 121.5 366.5t362.5 116.5q242 0 365 -114t123 -368v-45q0 -254 -123 -368t-365 -114q-241 0 -362.5 116.5zM683.5 195.5q45.5 26.5 67.5 90.5t22 177v43q0 113 -22 177t-67.5 90.5t-121.5 26.5q-77 0 -122.5 -27
t-67.5 -91t-22 -177v-41q0 -113 22 -177t67.5 -91t122.5 -27q76 0 121.5 26.5zM591 1112q-38 0 -71.5 16t-75.5 53l-128 113q-28 25 -28 51q0 21 18.5 34.5t50.5 13.5h94q30 0 53 -12t45 -36l128 -138q26 -27 26 -53q0 -19 -14 -30.5t-38 -11.5h-60z" />
    <glyph glyph-name="ohungarumlaut" unicode="&#x151;" horiz-adv-x="1123" 
d="M76 0zM197.5 96.5q-121.5 116.5 -121.5 366.5v43q0 250 121.5 366.5t362.5 116.5q242 0 365 -114t123 -368v-45q0 -254 -123 -368t-365 -114q-241 0 -362.5 116.5zM683.5 195.5q45.5 26.5 67.5 90.5t22 177v43q0 113 -22 177t-67.5 90.5t-121.5 26.5q-77 0 -122.5 -27
t-67.5 -91t-22 -177v-41q0 -113 22 -177t67.5 -91t122.5 -27q76 0 121.5 26.5zM346.5 1116q-10.5 9 -10.5 25q0 26 25 61l100 135q20 30 41.5 43t53.5 13h68q32 0 51 -14t19 -36q0 -23 -21 -47l-90 -98q-45 -49 -80 -70t-76 -21h-51q-19 0 -29.5 9zM670.5 1115
q-8.5 8 -8.5 22q0 29 32 67l121 139q23 27 44.5 38.5t51.5 11.5h76q32 0 50.5 -13t18.5 -34q0 -25 -28 -52l-121 -107q-49 -42 -85 -61t-75 -19h-52q-16 0 -24.5 8z" />
    <glyph glyph-name="omacron" unicode="&#x14d;" horiz-adv-x="1123" 
d="M76 0zM197.5 96.5q-121.5 116.5 -121.5 366.5v43q0 250 121.5 366.5t362.5 116.5q242 0 365 -114t123 -368v-45q0 -254 -123 -368t-365 -114q-241 0 -362.5 116.5zM683.5 195.5q45.5 26.5 67.5 90.5t22 177v43q0 113 -22 177t-67.5 90.5t-121.5 26.5q-77 0 -122.5 -27
t-67.5 -91t-22 -177v-41q0 -113 22 -177t67.5 -91t122.5 -27q76 0 121.5 26.5zM242 1252v29q0 77 57 77h540q57 0 57 -77v-29q0 -42 -15.5 -59t-41.5 -17h-540q-57 0 -57 76z" />
    <glyph glyph-name="oslash" unicode="&#xf8;" horiz-adv-x="1123" 
d="M1000.5 767q47.5 -103 47.5 -260v-45q0 -254 -123 -368t-365 -114q-71 0 -137 11l-32 -69q-23 -52 -82 -52h-18q-23 0 -36 11.5t-13 31.5q0 19 10 39l38 80q-106 52 -160 158.5t-54 272.5v43q0 250 121.5 366.5t362.5 116.5q96 0 169 -16l45 95q23 52 82 52h4
q29 0 45 -12.5t16 -34.5q0 -16 -9 -36l-53 -113q94 -54 141.5 -157zM390 247l254 543q-34 10 -82 10q-77 0 -122.5 -27t-67.5 -91t-22 -177v-41q0 -149 40 -217zM773 506q0 116 -24 182l-241 -515q23 -4 54 -4q76 0 121.5 26.5t67.5 90.5t22 177v43z" />
    <glyph glyph-name="otilde" unicode="&#xf5;" horiz-adv-x="1123" 
d="M76 0zM197.5 96.5q-121.5 116.5 -121.5 366.5v43q0 250 121.5 366.5t362.5 116.5q242 0 365 -114t123 -368v-45q0 -254 -123 -368t-365 -114q-241 0 -362.5 116.5zM683.5 195.5q45.5 26.5 67.5 90.5t22 177v43q0 113 -22 177t-67.5 90.5t-121.5 26.5q-77 0 -122.5 -27
t-67.5 -91t-22 -177v-41q0 -113 22 -177t67.5 -91t122.5 -27q76 0 121.5 26.5zM221.5 1153.5q-19.5 24.5 -19.5 70.5q0 49 24.5 91t74 67t119.5 25q61 0 101.5 -15.5t93.5 -45.5q36 -22 61.5 -32.5t55.5 -10.5q36 0 51 14.5t29 42.5q11 24 22 35.5t35 11.5q27 0 46.5 -24.5
t19.5 -69.5q0 -49 -24.5 -91t-73.5 -67.5t-119 -25.5q-58 0 -97 15t-88 44q-38 23 -65.5 34.5t-63.5 11.5t-51.5 -14.5t-28.5 -43.5q-11 -24 -22 -35.5t-34 -11.5q-27 0 -46.5 24.5z" />
    <glyph glyph-name="oe" unicode="&#x153;" horiz-adv-x="1762" 
d="M1664 128q4 -15 4 -28q0 -18 -8.5 -29t-25.5 -18l-64 -25q-118 -48 -284 -48q-112 0 -203.5 32t-155.5 98q-113 -130 -362 -130q-241 0 -365 117t-124 366v43q0 249 124 366t365 117q249 0 362 -130q61 64 147.5 97t191.5 33q133 0 227.5 -38t144 -108t49.5 -166
q0 -103 -45.5 -164t-137 -89.5t-238.5 -32.5l-211 -7q24 -100 100 -146t186 -46q48 0 101 9t94 23l45 16q12 4 24 4q15 0 24 -11t17 -37zM1104 736.5q-57 -65.5 -59 -209.5l165 5q86 2 136 11t79.5 36.5t29.5 82.5q0 65 -43.5 102.5t-137.5 37.5q-113 0 -170 -65.5zM779 506
q0 113 -21.5 176.5t-67 90t-122.5 26.5t-123 -27t-68 -90.5t-22 -176.5v-41q0 -113 22 -177t68 -91t123 -27t122.5 26.5t67 90.5t21.5 177v43z" />
    <glyph glyph-name="p" unicode="p" horiz-adv-x="1123" 
d="M835 940.5q105 -48.5 158.5 -155t53.5 -278.5v-45q0 -249 -110 -365.5t-323 -116.5q-153 0 -247 67v-345q0 -71 -105 -71h-62q-104 0 -104 71v804q0 251 117.5 367t356.5 116q160 0 265 -48.5zM780 506q0 113 -21 176.5t-65.5 90.5t-121.5 27q-76 0 -120.5 -27
t-64.5 -90.5t-20 -177.5v-41q0 -113 20.5 -177t64.5 -91t120 -27q77 0 121.5 27t65.5 90.5t21 176.5v43z" />
    <glyph glyph-name="thorn" unicode="&#xfe;" horiz-adv-x="1121" 
d="M935 872.5q110 -116.5 110 -365.5v-45q0 -249 -110 -365.5t-323 -116.5q-152 0 -245 67v-345q0 -71 -105 -71h-62q-104 0 -104 71v1620q0 71 104 71h62q105 0 105 -71v-400q93 67 245 67q213 0 323 -116.5zM778 506q0 114 -20 177t-64.5 90t-121.5 27q-76 0 -120 -27
t-64.5 -91t-20.5 -177v-41q0 -113 20.5 -177t64.5 -91t120 -27q77 0 121.5 27t64.5 90t20 177v43z" />
    <glyph glyph-name="q" unicode="q" horiz-adv-x="1121" 
d="M908 873q117 -116 117 -367v-805q0 -71 -105 -71h-61q-106 0 -106 71v346q-93 -67 -244 -67q-213 0 -323 116.5t-110 365.5v45q0 172 53.5 278.5t158.5 155t265 48.5q238 0 355 -116zM669 197q44 27 64 90.5t20 176.5v41q0 113 -20 176.5t-64 90.5t-119 27
q-76 0 -120.5 -26.5t-65.5 -90t-21 -176.5v-43q0 -113 21 -176.5t65.5 -90t120.5 -26.5q75 0 119 27z" />
    <glyph glyph-name="r" unicode="r" horiz-adv-x="739" 
d="M96 71v515q0 190 113.5 286.5t336.5 96.5h60q57 0 57 -77v-52q0 -76 -57 -76h-60q-97 0 -139 -43t-42 -141v-509q0 -71 -105 -71h-60q-104 0 -104 71z" />
    <glyph glyph-name="racute" unicode="&#x155;" horiz-adv-x="739" 
d="M96 0zM96 71v515q0 190 113.5 286.5t336.5 96.5h60q57 0 57 -77v-52q0 -76 -57 -76h-60q-97 0 -139 -43t-42 -141v-509q0 -71 -105 -71h-60q-104 0 -104 71zM337 1124q-15 12 -15 31q0 25 26 52l129 138q22 24 44.5 36t52.5 12h95q32 0 50.5 -13.5t18.5 -34.5
q0 -26 -28 -51l-128 -113q-42 -37 -75 -53t-71 -16h-60q-24 0 -39 12z" />
    <glyph glyph-name="rcaron" unicode="&#x159;" horiz-adv-x="739" 
d="M96 0zM96 71v515q0 190 113.5 286.5t336.5 96.5h60q57 0 57 -77v-52q0 -76 -57 -76h-60q-97 0 -139 -43t-42 -141v-509q0 -71 -105 -71h-60q-104 0 -104 71zM762 1380.5q17 -12.5 17 -32.5q0 -26 -26 -53l-127 -134q-21 -24 -44 -35t-52 -11h-148q-29 0 -51.5 11
t-44.5 35l-127 134q-24 27 -24 51q0 21 18 34t50 13h30q36 0 58.5 -6.5t42 -23t52.5 -53.5l70 -77l69 77q32 35 52.5 52t43.5 24t59 7h34q31 0 48 -12.5z" />
    <glyph glyph-name="rcommaaccent" unicode="&#x157;" horiz-adv-x="739" 
d="M45 0zM96 71v515q0 190 113.5 286.5t336.5 96.5h60q57 0 57 -77v-52q0 -76 -57 -76h-60q-97 0 -139 -43t-42 -141v-509q0 -71 -105 -71h-60q-104 0 -104 71zM61 -429.5q-16 15.5 -16 43.5q0 12 3 27l48 195q7 34 29.5 52t58.5 18h83q34 0 53 -15.5t19 -42.5q0 -14 -6 -32
l-58 -169q-33 -92 -95 -92h-74q-29 0 -45 15.5z" />
    <glyph glyph-name="s" unicode="s" horiz-adv-x="983" 
d="M180 37l-70 26q-20 8 -28.5 18.5t-8.5 26.5q0 14 4 27l15 58q7 25 17 36.5t27 11.5q10 0 27 -5l51 -19q59 -22 129 -36t131 -14q79 0 117 25.5t38 76.5q0 31 -16.5 50t-44 30.5t-74.5 24.5l-134 40q-120 30 -190 91.5t-70 181.5q0 90 44.5 158t133 106t216.5 38
q79 0 152.5 -12.5t133.5 -33.5l64 -23q35 -11 35 -46q0 -11 -3 -26l-15 -59q-6 -26 -16 -36.5t-26 -10.5q-12 0 -25 4l-46 16q-116 36 -218 36q-82 0 -117.5 -26t-35.5 -75q0 -35 16.5 -55.5t43.5 -32t75 -23.5l130 -37q125 -31 195 -90.5t70 -180.5q0 -141 -102 -220
t-296 -79q-167 0 -329 58z" />
    <glyph glyph-name="sacute" unicode="&#x15b;" horiz-adv-x="983" 
d="M73 0zM180 37l-70 26q-20 8 -28.5 18.5t-8.5 26.5q0 14 4 27l15 58q7 25 17 36.5t27 11.5q10 0 27 -5l51 -19q59 -22 129 -36t131 -14q79 0 117 25.5t38 76.5q0 31 -16.5 50t-44 30.5t-74.5 24.5l-134 40q-120 30 -190 91.5t-70 181.5q0 90 44.5 158t133 106t216.5 38
q79 0 152.5 -12.5t133.5 -33.5l64 -23q35 -11 35 -46q0 -11 -3 -26l-15 -59q-6 -26 -16 -36.5t-26 -10.5q-12 0 -25 4l-46 16q-116 36 -218 36q-82 0 -117.5 -26t-35.5 -75q0 -35 16.5 -55.5t43.5 -32t75 -23.5l130 -37q125 -31 195 -90.5t70 -180.5q0 -141 -102 -220
t-296 -79q-167 0 -329 58zM393 1124q-15 12 -15 31q0 25 26 52l129 138q22 24 44.5 36t52.5 12h95q32 0 50.5 -13.5t18.5 -34.5q0 -26 -28 -51l-128 -113q-42 -37 -75 -53t-71 -16h-60q-24 0 -39 12z" />
    <glyph glyph-name="scaron" unicode="&#x161;" horiz-adv-x="983" 
d="M73 0zM180 37l-70 26q-20 8 -28.5 18.5t-8.5 26.5q0 14 4 27l15 58q7 25 17 36.5t27 11.5q10 0 27 -5l51 -19q59 -22 129 -36t131 -14q79 0 117 25.5t38 76.5q0 31 -16.5 50t-44 30.5t-74.5 24.5l-134 40q-120 30 -190 91.5t-70 181.5q0 90 44.5 158t133 106t216.5 38
q79 0 152.5 -12.5t133.5 -33.5l64 -23q35 -11 35 -46q0 -11 -3 -26l-15 -59q-6 -26 -16 -36.5t-26 -10.5q-12 0 -25 4l-46 16q-116 36 -218 36q-82 0 -117.5 -26t-35.5 -75q0 -35 16.5 -55.5t43.5 -32t75 -23.5l130 -37q125 -31 195 -90.5t70 -180.5q0 -141 -102 -220
t-296 -79q-167 0 -329 58zM818 1380.5q17 -12.5 17 -32.5q0 -26 -26 -53l-127 -134q-21 -24 -44 -35t-52 -11h-148q-29 0 -51.5 11t-44.5 35l-127 134q-24 27 -24 51q0 21 18 34t50 13h30q36 0 58.5 -6.5t42 -23t52.5 -53.5l70 -77l69 77q32 35 52.5 52t43.5 24t59 7h34
q31 0 48 -12.5z" />
    <glyph glyph-name="scedilla" unicode="&#x15f;" horiz-adv-x="983" 
d="M554 -37q-10 -18 -10 -32q0 -18 16 -27t49 -18q39 -11 64 -23t43.5 -39t18.5 -73q0 -79 -66 -123t-189 -44q-63 0 -117 18.5t-86.5 48t-32.5 61.5q0 21 10 32t29 11q11 0 25.5 -5t28.5 -12q32 -14 58 -22t62 -8q97 0 97 56q0 25 -18.5 37t-56.5 24q-42 13 -63.5 27.5
t-21.5 46.5q0 28 20 59l15 24q-123 11 -249 55l-70 26q-20 8 -28.5 18.5t-8.5 26.5q0 14 4 27l15 58q7 25 17 36.5t27 11.5q10 0 27 -5l51 -19q59 -22 129 -36t131 -14q79 0 117 25.5t38 76.5q0 31 -16.5 50t-44 30.5t-74.5 24.5l-134 40q-120 30 -190 91.5t-70 181.5
q0 90 44.5 158t133 106t216.5 38q79 0 152.5 -12.5t133.5 -33.5l64 -23q35 -11 35 -46q0 -11 -3 -26l-15 -59q-6 -26 -16 -36.5t-26 -10.5q-12 0 -25 4l-46 16q-116 36 -218 36q-82 0 -117.5 -26t-35.5 -75q0 -35 16.5 -55.5t43.5 -32t75 -23.5l130 -37q125 -31 195 -90.5
t70 -180.5q0 -130 -87.5 -208t-254.5 -89z" />
    <glyph glyph-name="scommaaccent" unicode="&#x219;" horiz-adv-x="983" 
d="M73 0zM180 37l-70 26q-20 8 -28.5 18.5t-8.5 26.5q0 14 4 27l15 58q7 25 17 36.5t27 11.5q10 0 27 -5l51 -19q59 -22 129 -36t131 -14q79 0 117 25.5t38 76.5q0 31 -16.5 50t-44 30.5t-74.5 24.5l-134 40q-120 30 -190 91.5t-70 181.5q0 90 44.5 158t133 106t216.5 38
q79 0 152.5 -12.5t133.5 -33.5l64 -23q35 -11 35 -46q0 -11 -3 -26l-15 -59q-6 -26 -16 -36.5t-26 -10.5q-12 0 -25 4l-46 16q-116 36 -218 36q-82 0 -117.5 -26t-35.5 -75q0 -35 16.5 -55.5t43.5 -32t75 -23.5l130 -37q125 -31 195 -90.5t70 -180.5q0 -141 -102 -220
t-296 -79q-167 0 -329 58zM339 -429.5q-16 15.5 -16 43.5q0 12 3 27l48 195q7 34 29.5 52t58.5 18h83q34 0 53 -15.5t19 -42.5q0 -14 -6 -32l-58 -169q-33 -92 -95 -92h-74q-29 0 -45 15.5z" />
    <glyph glyph-name="germandbls" unicode="&#xdf;" horiz-adv-x="1102" 
d="M124.5 19.5q-22.5 19.5 -22.5 51.5v839q0 145 69.5 259.5t198.5 179.5t302 65q117 0 197.5 -37t121.5 -104t41 -157q0 -69 -24.5 -123t-58.5 -92t-87 -85q-54 -49 -78.5 -80t-24.5 -68q0 -33 23.5 -55t75.5 -53q53 -31 88 -60t60.5 -77t25.5 -118q0 -93 -44 -162.5
t-122 -106t-177 -36.5h-137q-26 0 -41.5 17t-15.5 59v28q0 42 15.5 59t41.5 17h44q85 0 128.5 27t43.5 93q0 41 -17 70t-42 48t-68 44q-44 27 -70.5 48t-45 53t-18.5 78q0 44 17.5 80.5t42.5 64t68 68.5q43 40 69.5 69.5t44.5 68t18 85.5q0 62 -33.5 95.5t-98.5 33.5
q-73 0 -133 -36t-94.5 -104t-34.5 -160v-835q0 -71 -105 -71h-64q-57 0 -79.5 19.5z" />
    <glyph glyph-name="t" unicode="t" horiz-adv-x="811" 
d="M457 787v-413q0 -94 39.5 -134t122.5 -40h83q26 0 41.5 -17t15.5 -59v-47q0 -77 -57 -77h-169q-173 0 -262 85t-89 247v455h-88q-58 0 -58 76v29q0 77 58 77h88v197q0 33 24 52t84 19h59q108 0 108 -71v-197h246q57 0 57 -77v-29q0 -76 -57 -76h-246z" />
    <glyph glyph-name="tbar" unicode="&#x167;" horiz-adv-x="811" 
d="M457 787v-152h246q57 0 57 -77v-29q0 -76 -57 -76h-246v-79q0 -94 39.5 -134t122.5 -40h83q26 0 41.5 -17t15.5 -59v-47q0 -77 -57 -77h-169q-173 0 -262 85t-89 247v121h-88q-58 0 -58 77v28q0 77 58 77h88v152h-88q-58 0 -58 76v29q0 77 58 77h88v197q0 33 24 52t84 19
h59q108 0 108 -71v-197h246q57 0 57 -77v-29q0 -76 -57 -76h-246z" />
    <glyph glyph-name="tcaron" unicode="&#x165;" horiz-adv-x="811" 
d="M777 1378q17 -15 17 -41q0 -15 -4 -28l-56 -178q-19 -61 -83 -61h-33q-32 0 -50 15t-18 43q0 11 3 23l44 176q14 66 80 66h51q32 0 49 -15zM760 892v-29q0 -76 -57 -76h-246v-413q0 -94 39.5 -134t122.5 -40h83q26 0 41.5 -17t15.5 -59v-47q0 -77 -57 -77h-169
q-173 0 -262 85t-89 247v455h-88q-58 0 -58 76v29q0 77 58 77h88v197q0 33 24 52t84 19h59q108 0 108 -71v-197h246q57 0 57 -77z" />
    <glyph glyph-name="uni0163" unicode="&#x163;" horiz-adv-x="811" 
d="M457 787v-413q0 -94 39.5 -134t122.5 -40h83q26 0 41.5 -17t15.5 -59v-47q0 -77 -57 -77h-155l-22 -38q-10 -18 -10 -32q0 -18 16 -27t49 -18q39 -11 64 -23t43.5 -39t18.5 -73q0 -79 -66 -123t-189 -44q-63 0 -117 18.5t-86.5 48t-32.5 61.5q0 21 10 32t29 11
q11 0 25.5 -5t28.5 -12q32 -14 58 -22t62 -8q97 0 97 56q0 25 -18.5 37t-56.5 24q-42 13 -63.5 27.5t-21.5 46.5q0 28 20 59l33 54q-117 26 -176.5 107.5t-59.5 213.5v455h-88q-58 0 -58 76v29q0 77 58 77h88v197q0 33 24 52t84 19h59q108 0 108 -71v-197h246q57 0 57 -77
v-29q0 -76 -57 -76h-246z" />
    <glyph glyph-name="uni021B" unicode="&#x21b;" horiz-adv-x="811" 
d="M36 0zM457 787v-413q0 -94 39.5 -134t122.5 -40h83q26 0 41.5 -17t15.5 -59v-47q0 -77 -57 -77h-169q-173 0 -262 85t-89 247v455h-88q-58 0 -58 76v29q0 77 58 77h88v197q0 33 24 52t84 19h59q108 0 108 -71v-197h246q57 0 57 -77v-29q0 -76 -57 -76h-246zM310 -430.5
q-16 15.5 -16 43.5q0 12 3 27l48 195q7 34 29.5 52t58.5 18h83q34 0 53 -15.5t19 -42.5q0 -14 -6 -32l-58 -169q-33 -92 -95 -92h-74q-29 0 -45 15.5z" />
    <glyph glyph-name="u" unicode="u" horiz-adv-x="1081" 
d="M208.5 76.5q-112.5 96.5 -112.5 285.5v536q0 71 104 71h62q105 0 105 -71v-529q0 -97 41 -141.5t132 -44.5q94 0 133.5 44t39.5 142v529q0 71 105 71h62q105 0 105 -71v-536q0 -382 -445 -382q-219 0 -331.5 96.5z" />
    <glyph glyph-name="uacute" unicode="&#xfa;" horiz-adv-x="1081" 
d="M96 0zM208.5 76.5q-112.5 96.5 -112.5 285.5v536q0 71 104 71h62q105 0 105 -71v-529q0 -97 41 -141.5t132 -44.5q94 0 133.5 44t39.5 142v529q0 71 105 71h62q105 0 105 -71v-536q0 -382 -445 -382q-219 0 -331.5 96.5zM427 1124q-15 12 -15 31q0 25 26 52l129 138
q22 24 44.5 36t52.5 12h95q32 0 50.5 -13.5t18.5 -34.5q0 -26 -28 -51l-128 -113q-42 -37 -75 -53t-71 -16h-60q-24 0 -39 12z" />
    <glyph glyph-name="ucircumflex" unicode="&#xfb;" horiz-adv-x="1081" 
d="M96 0zM208.5 76.5q-112.5 96.5 -112.5 285.5v536q0 71 104 71h62q105 0 105 -71v-529q0 -97 41 -141.5t132 -44.5q94 0 133.5 44t39.5 142v529q0 71 105 71h62q105 0 105 -71v-536q0 -382 -445 -382q-219 0 -331.5 96.5zM869 1160q0 -20 -17 -32.5t-48 -12.5h-34
q-36 0 -59 7t-43.5 24t-52.5 52l-69 76l-70 -76q-32 -36 -52 -52.5t-42.5 -23.5t-58.5 -7h-30q-32 0 -50 13t-18 34q0 23 24 50l127 134q22 25 44.5 36t51.5 11h148q29 0 52 -11.5t44 -35.5l127 -134q26 -26 26 -52z" />
    <glyph glyph-name="udieresis" unicode="&#xfc;" horiz-adv-x="1081" 
d="M96 0zM208.5 76.5q-112.5 96.5 -112.5 285.5v536q0 71 104 71h62q105 0 105 -71v-529q0 -97 41 -141.5t132 -44.5q94 0 133.5 44t39.5 142v529q0 71 105 71h62q105 0 105 -71v-536q0 -382 -445 -382q-219 0 -331.5 96.5zM279.5 1155.5q-37.5 36.5 -37.5 98.5
q0 59 37.5 95t98.5 36q60 0 97 -35.5t37 -95.5q0 -62 -37 -98.5t-97 -36.5q-61 0 -98.5 36.5zM624 1155.5q-37 36.5 -37 98.5q0 60 37.5 95.5t97.5 35.5t97 -35.5t37 -95.5q0 -62 -37 -98.5t-97 -36.5q-61 0 -98 36.5z" />
    <glyph glyph-name="ugrave" unicode="&#xf9;" horiz-adv-x="1081" 
d="M96 0zM208.5 76.5q-112.5 96.5 -112.5 285.5v536q0 71 104 71h62q105 0 105 -71v-529q0 -97 41 -141.5t132 -44.5q94 0 133.5 44t39.5 142v529q0 71 105 71h62q105 0 105 -71v-536q0 -382 -445 -382q-219 0 -331.5 96.5zM571 1112q-38 0 -71.5 16t-75.5 53l-128 113
q-28 25 -28 51q0 21 18.5 34.5t50.5 13.5h94q30 0 53 -12t45 -36l128 -138q26 -27 26 -53q0 -19 -14 -30.5t-38 -11.5h-60z" />
    <glyph glyph-name="uhungarumlaut" unicode="&#x171;" horiz-adv-x="1081" 
d="M96 0zM208.5 76.5q-112.5 96.5 -112.5 285.5v536q0 71 104 71h62q105 0 105 -71v-529q0 -97 41 -141.5t132 -44.5q94 0 133.5 44t39.5 142v529q0 71 105 71h62q105 0 105 -71v-536q0 -382 -445 -382q-219 0 -331.5 96.5zM326.5 1116q-10.5 9 -10.5 25q0 26 25 61l100 135
q20 30 41.5 43t53.5 13h68q32 0 51 -14t19 -36q0 -23 -21 -47l-90 -98q-45 -49 -80 -70t-76 -21h-51q-19 0 -29.5 9zM650.5 1115q-8.5 8 -8.5 22q0 29 32 67l121 139q23 27 44.5 38.5t51.5 11.5h76q32 0 50.5 -13t18.5 -34q0 -25 -28 -52l-121 -107q-49 -42 -85 -61t-75 -19
h-52q-16 0 -24.5 8z" />
    <glyph glyph-name="umacron" unicode="&#x16b;" horiz-adv-x="1081" 
d="M96 0zM208.5 76.5q-112.5 96.5 -112.5 285.5v536q0 71 104 71h62q105 0 105 -71v-529q0 -97 41 -141.5t132 -44.5q94 0 133.5 44t39.5 142v529q0 71 105 71h62q105 0 105 -71v-536q0 -382 -445 -382q-219 0 -331.5 96.5zM222 1252v29q0 77 57 77h540q57 0 57 -77v-29
q0 -42 -15.5 -59t-41.5 -17h-540q-57 0 -57 76z" />
    <glyph glyph-name="uogonek" unicode="&#x173;" horiz-adv-x="1081" 
d="M985 898v-536q0 -293 -262 -361v-1q-69 -27 -113.5 -67t-44.5 -89q0 -31 18.5 -46.5t57.5 -15.5q28 0 49.5 6t49.5 18q14 6 28 10.5t25 4.5q20 0 30.5 -11.5t10.5 -32.5q0 -37 -34.5 -69t-91.5 -50.5t-119 -18.5q-95 0 -149 40t-54 115q0 61 41 109t103 77
q-214 2 -324 98.5t-110 283.5v536q0 71 104 71h62q105 0 105 -71v-529q0 -97 41 -141.5t132 -44.5q94 0 133.5 44t39.5 142v529q0 71 105 71h62q105 0 105 -71z" />
    <glyph glyph-name="uring" unicode="&#x16f;" horiz-adv-x="1081" 
d="M96 0zM208.5 76.5q-112.5 96.5 -112.5 285.5v536q0 71 104 71h62q105 0 105 -71v-529q0 -97 41 -141.5t132 -44.5q94 0 133.5 44t39.5 142v529q0 71 105 71h62q105 0 105 -71v-536q0 -382 -445 -382q-219 0 -331.5 96.5zM423 1109q-55 28 -85.5 77.5t-30.5 111.5
q0 63 30.5 113t85.5 78t125 28q71 0 125.5 -28t84.5 -78t30 -113q0 -62 -30 -111.5t-84.5 -77.5t-125.5 -28q-70 0 -125 28zM620.5 1228.5q27.5 27.5 27.5 70.5q0 42 -27.5 70t-70.5 28q-44 0 -71 -27.5t-27 -70.5q0 -44 27 -71t71 -27q43 0 70.5 27.5z" />
    <glyph glyph-name="v" unicode="v" horiz-adv-x="1080" 
d="M379.5 32q-52.5 42 -77.5 133l-229 727q-3 12 -3 22q0 55 97 55h63q115 0 131 -77l168 -652q2 -8 6 -10.5t11 -2.5q11 0 15 13l181 652q8 35 38 56t91 21h42q98 0 98 -55q0 -10 -3 -22l-234 -724q-27 -94 -77 -136t-139 -42h-38q-88 0 -140.5 42z" />
    <glyph glyph-name="w" unicode="w" horiz-adv-x="1544" 
d="M1473 917q0 -8 -3 -19l-190 -758q-17 -75 -59 -112.5t-114 -37.5h-30q-74 0 -119 38.5t-56 113.5l-119 514l-133 -514q-15 -76 -58.5 -114t-120.5 -38h-30q-146 0 -178 150l-191 758q-3 11 -3 20q0 51 91 51h70q60 0 90 -18t34 -49l120 -653q1 -8 5.5 -10.5t11.5 -2.5
q6 0 9 2.5t5 10.5l152 649q11 71 120 71h36q57 0 83.5 -19t32.5 -52l143 -649q2 -8 5.5 -10.5t9.5 -2.5q15 0 16 13l117 653q9 67 124 67h38q91 0 91 -52z" />
    <glyph glyph-name="wacute" unicode="&#x1e83;" horiz-adv-x="1544" 
d="M69 0zM1473 917q0 -8 -3 -19l-190 -758q-17 -75 -59 -112.5t-114 -37.5h-30q-74 0 -119 38.5t-56 113.5l-119 514l-133 -514q-15 -76 -58.5 -114t-120.5 -38h-30q-146 0 -178 150l-191 758q-3 11 -3 20q0 51 91 51h70q60 0 90 -18t34 -49l120 -653q1 -8 5.5 -10.5
t11.5 -2.5q6 0 9 2.5t5 10.5l152 649q11 71 120 71h36q57 0 83.5 -19t32.5 -52l143 -649q2 -8 5.5 -10.5t9.5 -2.5q15 0 16 13l117 653q9 67 124 67h38q91 0 91 -52zM668 1124q-15 12 -15 31q0 25 26 52l129 138q22 24 44.5 36t52.5 12h95q32 0 50.5 -13.5t18.5 -34.5
q0 -26 -28 -51l-128 -113q-42 -37 -75 -53t-71 -16h-60q-24 0 -39 12z" />
    <glyph glyph-name="wcircumflex" unicode="&#x175;" horiz-adv-x="1544" 
d="M69 0zM1473 917q0 -8 -3 -19l-190 -758q-17 -75 -59 -112.5t-114 -37.5h-30q-74 0 -119 38.5t-56 113.5l-119 514l-133 -514q-15 -76 -58.5 -114t-120.5 -38h-30q-146 0 -178 150l-191 758q-3 11 -3 20q0 51 91 51h70q60 0 90 -18t34 -49l120 -653q1 -8 5.5 -10.5
t11.5 -2.5q6 0 9 2.5t5 10.5l152 649q11 71 120 71h36q57 0 83.5 -19t32.5 -52l143 -649q2 -8 5.5 -10.5t9.5 -2.5q15 0 16 13l117 653q9 67 124 67h38q91 0 91 -52zM1110 1160q0 -20 -17 -32.5t-48 -12.5h-34q-36 0 -59 7t-43.5 24t-52.5 52l-69 76l-70 -76
q-32 -36 -52 -52.5t-42.5 -23.5t-58.5 -7h-30q-32 0 -50 13t-18 34q0 23 24 50l127 134q22 25 44.5 36t51.5 11h148q29 0 52 -11.5t44 -35.5l127 -134q26 -26 26 -52z" />
    <glyph glyph-name="wdieresis" unicode="&#x1e85;" horiz-adv-x="1544" 
d="M69 0zM1473 917q0 -8 -3 -19l-190 -758q-17 -75 -59 -112.5t-114 -37.5h-30q-74 0 -119 38.5t-56 113.5l-119 514l-133 -514q-15 -76 -58.5 -114t-120.5 -38h-30q-146 0 -178 150l-191 758q-3 11 -3 20q0 51 91 51h70q60 0 90 -18t34 -49l120 -653q1 -8 5.5 -10.5
t11.5 -2.5q6 0 9 2.5t5 10.5l152 649q11 71 120 71h36q57 0 83.5 -19t32.5 -52l143 -649q2 -8 5.5 -10.5t9.5 -2.5q15 0 16 13l117 653q9 67 124 67h38q91 0 91 -52zM520.5 1155.5q-37.5 36.5 -37.5 98.5q0 59 37.5 95t98.5 36q60 0 97 -35.5t37 -95.5q0 -62 -37 -98.5
t-97 -36.5q-61 0 -98.5 36.5zM865 1155.5q-37 36.5 -37 98.5q0 60 37.5 95.5t97.5 35.5t97 -35.5t37 -95.5q0 -62 -37 -98.5t-97 -36.5q-61 0 -98 36.5z" />
    <glyph glyph-name="wgrave" unicode="&#x1e81;" horiz-adv-x="1544" 
d="M69 0zM1473 917q0 -8 -3 -19l-190 -758q-17 -75 -59 -112.5t-114 -37.5h-30q-74 0 -119 38.5t-56 113.5l-119 514l-133 -514q-15 -76 -58.5 -114t-120.5 -38h-30q-146 0 -178 150l-191 758q-3 11 -3 20q0 51 91 51h70q60 0 90 -18t34 -49l120 -653q1 -8 5.5 -10.5
t11.5 -2.5q6 0 9 2.5t5 10.5l152 649q11 71 120 71h36q57 0 83.5 -19t32.5 -52l143 -649q2 -8 5.5 -10.5t9.5 -2.5q15 0 16 13l117 653q9 67 124 67h38q91 0 91 -52zM812 1112q-38 0 -71.5 16t-75.5 53l-128 113q-28 25 -28 51q0 21 18.5 34.5t50.5 13.5h94q30 0 53 -12
t45 -36l128 -138q26 -27 26 -53q0 -19 -14 -30.5t-38 -11.5h-60z" />
    <glyph glyph-name="x" unicode="x" horiz-adv-x="1066" 
d="M996 48q0 -21 -24 -34.5t-72 -13.5h-90q-59 0 -86 18.5t-40 52.5l-161 293l-163 -293q-13 -35 -39.5 -53t-86.5 -18h-69q-48 0 -72 13.5t-24 34.5q0 12 7 25l251 412l-248 411q-7 13 -7 25q0 21 24 34.5t72 13.5h90q59 0 86.5 -18.5t40.5 -52.5l156 -293l156 293
q13 34 40 52.5t87 18.5h69q48 0 72 -13.5t24 -34.5q0 -12 -7 -25l-247 -406l254 -417q7 -13 7 -25z" />
    <glyph glyph-name="y" unicode="y" horiz-adv-x="1052" 
d="M999 920q0 -11 -4 -22l-335 -897q-68 -184 -177 -277t-274 -93h-88q-58 0 -58 77v31q0 76 58 76h40q164 0 239 192l13 34l-343 857q-4 11 -4 22q0 49 94 49h76q59 0 88 -19t38 -52l195 -585l181 585q19 71 126 71h42q93 0 93 -49z" />
    <glyph glyph-name="yacute" unicode="&#xfd;" horiz-adv-x="1052" 
d="M63 0zM999 920q0 -11 -4 -22l-335 -897q-68 -184 -177 -277t-274 -93h-88q-58 0 -58 77v31q0 76 58 76h40q164 0 239 192l13 34l-343 857q-4 11 -4 22q0 49 94 49h76q59 0 88 -19t38 -52l195 -585l181 585q19 71 126 71h42q93 0 93 -49zM422 1124q-15 12 -15 31
q0 25 26 52l129 138q22 24 44.5 36t52.5 12h95q32 0 50.5 -13.5t18.5 -34.5q0 -26 -28 -51l-128 -113q-42 -37 -75 -53t-71 -16h-60q-24 0 -39 12z" />
    <glyph glyph-name="ycircumflex" unicode="&#x177;" horiz-adv-x="1052" 
d="M63 0zM999 920q0 -11 -4 -22l-335 -897q-68 -184 -177 -277t-274 -93h-88q-58 0 -58 77v31q0 76 58 76h40q164 0 239 192l13 34l-343 857q-4 11 -4 22q0 49 94 49h76q59 0 88 -19t38 -52l195 -585l181 585q19 71 126 71h42q93 0 93 -49zM864 1160q0 -20 -17 -32.5
t-48 -12.5h-34q-36 0 -59 7t-43.5 24t-52.5 52l-69 76l-70 -76q-32 -36 -52 -52.5t-42.5 -23.5t-58.5 -7h-30q-32 0 -50 13t-18 34q0 23 24 50l127 134q22 25 44.5 36t51.5 11h148q29 0 52 -11.5t44 -35.5l127 -134q26 -26 26 -52z" />
    <glyph glyph-name="ydieresis" unicode="&#xff;" horiz-adv-x="1052" 
d="M63 0zM999 920q0 -11 -4 -22l-335 -897q-68 -184 -177 -277t-274 -93h-88q-58 0 -58 77v31q0 76 58 76h40q164 0 239 192l13 34l-343 857q-4 11 -4 22q0 49 94 49h76q59 0 88 -19t38 -52l195 -585l181 585q19 71 126 71h42q93 0 93 -49zM274.5 1155.5
q-37.5 36.5 -37.5 98.5q0 59 37.5 95t98.5 36q60 0 97 -35.5t37 -95.5q0 -62 -37 -98.5t-97 -36.5q-61 0 -98.5 36.5zM619 1155.5q-37 36.5 -37 98.5q0 60 37.5 95.5t97.5 35.5t97 -35.5t37 -95.5q0 -62 -37 -98.5t-97 -36.5q-61 0 -98 36.5z" />
    <glyph glyph-name="ygrave" unicode="&#x1ef3;" horiz-adv-x="1052" 
d="M63 0zM999 920q0 -11 -4 -22l-335 -897q-68 -184 -177 -277t-274 -93h-88q-58 0 -58 77v31q0 76 58 76h40q164 0 239 192l13 34l-343 857q-4 11 -4 22q0 49 94 49h76q59 0 88 -19t38 -52l195 -585l181 585q19 71 126 71h42q93 0 93 -49zM566 1112q-38 0 -71.5 16
t-75.5 53l-128 113q-28 25 -28 51q0 21 18.5 34.5t50.5 13.5h94q30 0 53 -12t45 -36l128 -138q26 -27 26 -53q0 -19 -14 -30.5t-38 -11.5h-60z" />
    <glyph glyph-name="z" unicode="z" horiz-adv-x="970" 
d="M97.5 32q-33.5 32 -33.5 92q0 44 11 75t41 65l439 494q7 7 7 15q0 14 -19 14h-409q-57 0 -57 76v29q0 77 57 77h634q58 0 91.5 -32t33.5 -92q0 -42 -12 -73.5t-42 -66.5l-437 -494q-8 -8 -8 -15q0 -6 5 -10t14 -4h442q57 0 57 -77v-29q0 -42 -15.5 -59t-41.5 -17h-666
q-58 0 -91.5 32z" />
    <glyph glyph-name="zacute" unicode="&#x17a;" horiz-adv-x="970" 
d="M64 0zM97.5 32q-33.5 32 -33.5 92q0 44 11 75t41 65l439 494q7 7 7 15q0 14 -19 14h-409q-57 0 -57 76v29q0 77 57 77h634q58 0 91.5 -32t33.5 -92q0 -42 -12 -73.5t-42 -66.5l-437 -494q-8 -8 -8 -15q0 -6 5 -10t14 -4h442q57 0 57 -77v-29q0 -42 -15.5 -59t-41.5 -17
h-666q-58 0 -91.5 32zM378 1124q-15 12 -15 31q0 25 26 52l129 138q22 24 44.5 36t52.5 12h95q32 0 50.5 -13.5t18.5 -34.5q0 -26 -28 -51l-128 -113q-42 -37 -75 -53t-71 -16h-60q-24 0 -39 12z" />
    <glyph glyph-name="zcaron" unicode="&#x17e;" horiz-adv-x="970" 
d="M64 0zM97.5 32q-33.5 32 -33.5 92q0 44 11 75t41 65l439 494q7 7 7 15q0 14 -19 14h-409q-57 0 -57 76v29q0 77 57 77h634q58 0 91.5 -32t33.5 -92q0 -42 -12 -73.5t-42 -66.5l-437 -494q-8 -8 -8 -15q0 -6 5 -10t14 -4h442q57 0 57 -77v-29q0 -42 -15.5 -59t-41.5 -17
h-666q-58 0 -91.5 32zM803 1380.5q17 -12.5 17 -32.5q0 -26 -26 -53l-127 -134q-21 -24 -44 -35t-52 -11h-148q-29 0 -51.5 11t-44.5 35l-127 134q-24 27 -24 51q0 21 18 34t50 13h30q36 0 58.5 -6.5t42 -23t52.5 -53.5l70 -77l69 77q32 35 52.5 52t43.5 24t59 7h34
q31 0 48 -12.5z" />
    <glyph glyph-name="zdotaccent" unicode="&#x17c;" horiz-adv-x="970" 
d="M64 0zM97.5 32q-33.5 32 -33.5 92q0 44 11 75t41 65l439 494q7 7 7 15q0 14 -19 14h-409q-57 0 -57 76v29q0 77 57 77h634q58 0 91.5 -32t33.5 -92q0 -42 -12 -73.5t-42 -66.5l-437 -494q-8 -8 -8 -15q0 -6 5 -10t14 -4h442q57 0 57 -77v-29q0 -42 -15.5 -59t-41.5 -17
h-666q-58 0 -91.5 32zM388.5 1160.5q-42.5 41.5 -42.5 111.5q0 68 42.5 109t111.5 41q68 0 110.5 -41t42.5 -109q0 -70 -42.5 -111.5t-110.5 -41.5q-69 0 -111.5 41.5z" />
    <glyph glyph-name="ordfeminine" unicode="&#xaa;" horiz-adv-x="876" 
d="M684.5 1350.5q74.5 -61.5 74.5 -188.5v-255q0 -123 -77.5 -176t-242.5 -53q-163 0 -244 51.5t-81 160.5v14q0 104 72 156.5t225 59.5l153 9v12q0 56 -31 82.5t-99 26.5q-41 0 -91.5 -9t-91.5 -24l-37 -13q-12 -3 -21 -3q-15 0 -24.5 9.5t-15.5 31.5l-11 46q-3 14 -3 24
q0 29 29 40l53 19q104 41 234 41q155 0 229.5 -61.5zM535 827.5q29 23.5 29 80.5v99l-110 -5q-75 -5 -106.5 -27t-31.5 -68v-12q0 -49 28.5 -70t94.5 -21q67 0 96 23.5z" />
    <glyph glyph-name="ordmasculine" unicode="&#xba;" horiz-adv-x="914" 
d="M195.5 763q-91.5 84 -91.5 268v30q0 184 91.5 268t264.5 84q174 0 262.5 -82t88.5 -269v-32q0 -187 -88.5 -269t-262.5 -82q-173 0 -264.5 84zM545.5 845q30.5 18 45.5 62.5t15 123.5v30q0 79 -15 123t-46 62t-83 18t-83.5 -18.5t-46.5 -62.5t-15 -123v-28
q0 -79 15 -123.5t46.5 -63t83.5 -18.5q53 0 83.5 18z" />
    <glyph glyph-name="uni0410" unicode="&#x410;" horiz-adv-x="1415" 
d="M67 0zM1348 61q0 -61 -108 -61h-71q-69 0 -102 23.5t-42 62.5l-85 288h-482l-87 -288q-21 -86 -145 -86h-52q-107 0 -107 61q0 7 4 25l376 1124q22 73 52.5 117t77.5 65t117 21h33q95 0 152.5 -47.5t89.5 -152.5l375 -1127q4 -12 4 -25zM882 572l-164 555q-4 16 -17 16
t-17 -16l-167 -555h365z" />
    <glyph glyph-name="uni0411" unicode="&#x411;" horiz-adv-x="1262" 
d="M1074.5 721.5q111.5 -101.5 111.5 -305.5q0 -210 -112.5 -313t-349.5 -103h-406q-107 0 -156.5 40.5t-49.5 118.5v1074q0 160 208 160h703q67 0 67 -92v-35q0 -90 -67 -90h-561q-45 0 -45 -36v-317h320q226 0 337.5 -101.5zM801.5 234.5q51.5 19.5 75 62.5t23.5 116
q0 111 -54 161t-179 50h-250v-374q0 -35 45 -35h201q87 0 138.5 19.5z" />
    <glyph glyph-name="uni0412" unicode="&#x412;" horiz-adv-x="1285" 
d="M112 0zM1130.5 612q67.5 -80 67.5 -223q0 -187 -111 -288t-325 -101h-444q-107 0 -156.5 40.5t-49.5 118.5v1074q0 78 49.5 119t156.5 41h428q204 0 306 -86.5t102 -266.5q0 -122 -57 -202.5t-162 -115.5q128 -30 195.5 -110zM404 1151v-355h242q121 0 174 51t53 150
q0 69 -21 110t-68.5 60t-130.5 19h-204q-45 0 -45 -35zM846 255q53 53 53 160q0 104 -57.5 156t-186.5 52h-251v-386q0 -35 45 -35h222q122 0 175 53z" />
    <glyph glyph-name="uni0413" unicode="&#x413;" horiz-adv-x="1094" 
d="M112 80v1153q0 78 49.5 119t156.5 41h649q67 0 67 -92v-35q0 -90 -67 -90h-507q-45 0 -45 -36v-1060q0 -80 -124 -80h-56q-123 0 -123 80z" />
    <glyph glyph-name="uni0403" unicode="&#x403;" horiz-adv-x="1094" 
d="M112 0zM112 80v1153q0 78 49.5 119t156.5 41h649q67 0 67 -92v-35q0 -90 -67 -90h-507q-45 0 -45 -36v-1060q0 -80 -124 -80h-56q-123 0 -123 80zM482 1502q-15 12 -15 31q0 25 26 52l129 138q22 24 44.5 36t52.5 12h95q32 0 50.5 -13.5t18.5 -34.5q0 -26 -28 -51
l-128 -113q-42 -37 -75 -53t-71 -16h-60q-24 0 -39 12z" />
    <glyph glyph-name="uni0490" unicode="&#x490;" horiz-adv-x="1094" 
d="M992 1697.5q24 -21.5 25 -58.5l17 -374q2 -49 -16 -69t-51 -20h-505q-45 0 -45 -36v-1060q0 -80 -123 -80h-59q-123 0 -123 80v1153q0 160 208 160h447v246q0 37 27 58.5t95 21.5h19q60 0 84 -21.5z" />
    <glyph glyph-name="uni0414" unicode="&#x414;" horiz-adv-x="1710" 
d="M1635 197q18 -20 16 -70l-17 -374q-2 -80 -110 -80h-18q-68 0 -95 22t-27 58v247h-1058v-247q0 -36 -27 -58t-95 -22h-18q-108 0 -110 80l-16 374q-5 90 66 90h29q169 0 185 211l63 805q6 80 52 120t152 40h638q107 0 156.5 -41t49.5 -119v-1016h133q33 0 51 -20z
M580 217h566v923q0 36 -46 36h-359q-23 0 -33 -9t-12 -27l-53 -700q-10 -133 -63 -223z" />
    <glyph glyph-name="uni0415" unicode="&#x415;" horiz-adv-x="1149" 
d="M417 1140v-332h482q63 0 63 -86v-32q0 -85 -63 -85h-482v-353q0 -35 45 -35h534q67 0 67 -92v-34q0 -51 -18 -71t-49 -20h-678q-107 0 -156.5 40.5t-49.5 118.5v1074q0 78 49.5 119t156.5 41h678q67 0 67 -92v-35q0 -90 -67 -90h-534q-45 0 -45 -36z" />
    <glyph glyph-name="uni0401" unicode="&#x401;" horiz-adv-x="1149" 
d="M112 0zM417 1140v-332h482q63 0 63 -86v-32q0 -85 -63 -85h-482v-353q0 -35 45 -35h534q67 0 67 -92v-34q0 -51 -18 -71t-49 -20h-678q-107 0 -156.5 40.5t-49.5 118.5v1074q0 78 49.5 119t156.5 41h678q67 0 67 -92v-35q0 -90 -67 -90h-534q-45 0 -45 -36zM326.5 1533.5
q-37.5 36.5 -37.5 98.5q0 59 37.5 95t98.5 36q60 0 97 -35.5t37 -95.5q0 -62 -37 -98.5t-97 -36.5q-61 0 -98.5 36.5zM671 1533.5q-37 36.5 -37 98.5q0 60 37.5 95.5t97.5 35.5t97 -35.5t37 -95.5q0 -62 -37 -98.5t-97 -36.5q-61 0 -98 36.5z" />
    <glyph glyph-name="uni0416" unicode="&#x416;" horiz-adv-x="2008" 
d="M81 38q0 18 16 44l421 614l-419 615q-15 27 -15 44q0 39 85 39h89q70 0 114 -23t61 -60l346 -572q13 -23 13 -46q0 -24 -13 -46l-345 -565q-17 -37 -61 -59.5t-115 -22.5h-92q-85 0 -85 38zM850 80v1234q0 80 123 80h59q69 0 96 -22t27 -58v-1234q0 -36 -27 -58t-96 -22
h-59q-123 0 -123 80zM1634 22.5q-44 22.5 -62 59.5l-345 565q-12 23 -12 47q0 25 12 45l346 572q19 37 62.5 60t112.5 23h90q85 0 85 -39q0 -18 -16 -44l-422 -615l424 -614q17 -27 17 -44q0 -38 -86 -38h-92q-70 0 -114 22.5z" />
    <glyph glyph-name="uni0417" unicode="&#x417;" 
d="M399 -3q-101 18 -186 48l-98 36q-25 7 -36 20.5t-11 36.5q0 18 6 42l19 65q9 35 21.5 51.5t31.5 16.5q10 0 25 -5l84 -31q89 -33 171.5 -53t164.5 -20q123 0 187 55t64 153q0 192 -251 192h-123q-28 0 -43.5 18t-15.5 64v37q0 46 15.5 64.5t43.5 18.5h118q117 0 179.5 54
t62.5 146q0 85 -55.5 133t-169.5 48q-79 0 -158 -18.5t-166 -48.5l-81 -29q-12 -4 -24 -4q-19 0 -30.5 15t-19.5 50l-18 67q-6 24 -6 42q0 21 10.5 34t35.5 20l94 35q187 63 385 63q156 0 265.5 -45.5t166 -129.5t56.5 -199q0 -113 -57.5 -197.5t-155.5 -127.5
q112 -34 175 -114t63 -205q0 -123 -65.5 -217t-185.5 -146.5t-279 -52.5q-108 0 -209 18z" />
    <glyph glyph-name="uni0418" unicode="&#x418;" horiz-adv-x="1407" 
d="M173 54q-61 54 -61 155v1106q0 78 106 78h31q107 0 107 -78v-1055q0 -15 14 -15q15 0 20 15l365 940q31 101 92 147t158 46h59q105 0 168 -54t63 -155v-1106q0 -36 -23.5 -57t-81.5 -21h-32q-60 0 -83.5 21t-23.5 57v1054q0 16 -13 16q-16 0 -21 -16l-365 -940
q-31 -101 -91.5 -146.5t-157.5 -45.5h-64q-105 0 -166 54z" />
    <glyph glyph-name="uni0419" unicode="&#x419;" horiz-adv-x="1407" 
d="M112 0zM173 54q-61 54 -61 155v1106q0 78 106 78h31q107 0 107 -78v-1055q0 -15 14 -15q15 0 20 15l365 940q31 101 92 147t158 46h59q105 0 168 -54t63 -155v-1106q0 -36 -23.5 -57t-81.5 -21h-32q-60 0 -83.5 21t-23.5 57v1054q0 16 -13 16q-16 0 -21 -16l-365 -940
q-31 -101 -91.5 -146.5t-157.5 -45.5h-64q-105 0 -166 54zM530.5 1510.5q-76.5 34.5 -115 94.5t-38.5 136q0 48 18 74t45 26q22 0 35.5 -15t29.5 -46q20 -40 40.5 -65.5t62.5 -44.5t109 -19t109 19t62.5 44.5t40.5 65.5q16 31 29.5 46t35.5 15q27 0 45 -26t18 -74
q0 -76 -38.5 -136t-115 -94.5t-186.5 -34.5t-186.5 34.5z" />
    <glyph glyph-name="uni041A" unicode="&#x41a;" horiz-adv-x="1314" 
d="M417 1313v-1233q0 -80 -123 -80h-59q-123 0 -123 80v1233q0 80 123 80h59q123 0 123 -80zM1232 39q0 -39 -85 -39h-102q-70 0 -114 22.5t-63 59.5l-379 565q-13 22 -13 45q0 25 13 47l381 571q18 37 61.5 60t113.5 23h100q85 0 85 -40q0 -19 -16 -43l-447 -613l449 -615
q16 -26 16 -43z" />
    <glyph glyph-name="uni040C" unicode="&#x40c;" horiz-adv-x="1314" 
d="M112 0zM417 1313v-1233q0 -80 -123 -80h-59q-123 0 -123 80v1233q0 80 123 80h59q123 0 123 -80zM1232 39q0 -39 -85 -39h-102q-70 0 -114 22.5t-63 59.5l-379 565q-13 22 -13 45q0 25 13 47l381 571q18 37 61.5 60t113.5 23h100q85 0 85 -40q0 -19 -16 -43l-447 -613
l449 -615q16 -26 16 -43zM535 1502q-15 12 -15 31q0 25 26 52l129 138q22 24 44.5 36t52.5 12h95q32 0 50.5 -13.5t18.5 -34.5q0 -26 -28 -51l-128 -113q-42 -37 -75 -53t-71 -16h-60q-24 0 -39 12z" />
    <glyph glyph-name="uni041B" unicode="&#x41b;" horiz-adv-x="1537" 
d="M60 92v34q0 51 18 71t49 20h24q76 0 121.5 52.5t52.5 158.5l61 805q6 80 52 120t152 40h627q208 0 208 -160v-1153q0 -80 -124 -80h-59q-122 0 -122 80v1060q0 36 -46 36h-350q-23 0 -33 -9t-12 -27l-51 -700q-10 -142 -68 -241t-154 -149t-219 -50h-60q-67 0 -67 92z
" />
    <glyph glyph-name="uni041C" unicode="&#x41c;" horiz-adv-x="1719" 
d="M80 0zM1528 0h-39q-63 0 -86.5 20.5t-25.5 57.5l-62 1058q0 15 -14 15q-7 0 -13 -3.5t-7 -11.5l-219 -973q-14 -83 -64 -123t-131 -40h-21q-165 0 -195 163l-226 973q-2 15 -21 15q-13 0 -13 -15l-62 -1058q-2 -36 -25 -57t-82 -21h-36q-110 0 -106 78l65 1111
q6 105 66.5 159t164.5 54h27q104 0 168 -46t82 -151l207 -999l208 1002q16 98 81.5 146t168.5 48h30q103 0 161.5 -53.5t64.5 -159.5l65 -1111q4 -78 -111 -78z" />
    <glyph glyph-name="uni041D" unicode="&#x41d;" horiz-adv-x="1360" 
d="M112 0zM1221 1371q27 -22 27 -58v-1233q0 -36 -27 -58t-96 -22h-59q-123 0 -123 80v532h-526v-532q0 -80 -123 -80h-59q-123 0 -123 80v1233q0 80 123 80h59q123 0 123 -80v-494h526v494q0 80 123 80h59q69 0 96 -22z" />
    <glyph glyph-name="uni041E" unicode="&#x41e;" horiz-adv-x="1489" 
d="M92 0zM255.5 150.5q-163.5 170.5 -163.5 525.5v41q0 350 166 523t486 173q321 0 487 -173t166 -523v-41q0 -354 -164 -525t-489 -171t-488.5 170.5zM936 247.5q72 47.5 105 151t33 277.5v41q0 173 -33 277t-105 152t-192 48t-192 -48t-105 -152t-33 -277v-41
q0 -174 33 -277.5t105 -151t192 -47.5t192 47.5z" />
    <glyph glyph-name="uni041F" unicode="&#x41f;" horiz-adv-x="1357" 
d="M139 22q-27 22 -27 58v1153q0 78 49.5 119t156.5 41h721q107 0 156.5 -41t49.5 -119v-1153q0 -36 -27 -58t-96 -22h-53q-123 0 -123 80v1060q0 36 -46 36h-444q-45 0 -45 -36v-1060q0 -80 -123 -80h-53q-69 0 -96 22z" />
    <glyph glyph-name="uni0420" unicode="&#x420;" horiz-adv-x="1262" 
d="M112 0zM1076 1293.5q110 -99.5 110 -308.5q0 -207 -114.5 -319t-338.5 -112h-316v-474q0 -80 -123 -80h-59q-123 0 -123 80v1153q0 78 50 119t157 41h410q237 0 347 -99.5zM845 813q54 52 54 163q0 74 -23 117.5t-73.5 63.5t-137.5 20h-204q-44 0 -44 -35v-381h252
q122 0 176 52z" />
    <glyph glyph-name="uni0421" unicode="&#x421;" horiz-adv-x="1295" 
d="M92 0zM389 59q-145 79 -221 234.5t-76 382.5v41q0 227 76 382.5t221 234.5t351 79q164 0 342 -58l89 -33q23 -8 33.5 -20t10.5 -33q0 -17 -6 -41l-16 -58q-10 -35 -21 -49.5t-29 -14.5q-11 0 -22 4l-74 25q-64 21 -121.5 31t-119.5 10q-392 0 -392 -459v-41
q0 -459 392 -459q62 0 119.5 10t121.5 31l74 25q11 4 22 4q18 0 29 -15t21 -50l16 -57q6 -24 6 -41q0 -21 -10.5 -33.5t-33.5 -20.5l-89 -32q-172 -58 -342 -58q-206 0 -351 79z" />
    <glyph glyph-name="uni0422" unicode="&#x422;" horiz-adv-x="1272" 
d="M58 0zM510.5 22q-26.5 22 -26.5 58v1096h-359q-67 0 -67 90v35q0 92 67 92h1022q67 0 67 -92v-35q0 -90 -67 -90h-359v-1096q0 -36 -27 -58t-96 -22h-59q-69 0 -95.5 22z" />
    <glyph glyph-name="uni0423" unicode="&#x423;" horiz-adv-x="1275" 
d="M1199 1344q0 -10 -5 -23l-407 -907q-61 -135 -133 -226t-169.5 -140t-226.5 -49h-99q-68 0 -68 78v59q0 42 19 60t49 18h43q98 0 168 51t117 155l20 43l-414 858q-6 12 -6 24q0 22 26 35t83 13h78q71 0 103.5 -19.5t43.5 -52.5l244 -609l229 609q10 33 43 52.5t104 19.5
h50q108 0 108 -49z" />
    <glyph glyph-name="uni040E" unicode="&#x40e;" horiz-adv-x="1275" 
d="M87 0zM1199 1344q0 -10 -5 -23l-407 -907q-61 -135 -133 -226t-169.5 -140t-226.5 -49h-99q-68 0 -68 78v59q0 42 19 60t49 18h43q98 0 168 51t117 155l20 43l-414 858q-6 12 -6 24q0 22 26 35t83 13h78q71 0 103.5 -19.5t43.5 -52.5l244 -609l229 609q10 33 43 52.5
t104 19.5h50q108 0 108 -49zM477.5 1510.5q-76.5 34.5 -115 94.5t-38.5 136q0 48 18 74t45 26q22 0 35.5 -15t29.5 -46q20 -40 40.5 -65.5t62.5 -44.5t109 -19t109 19t62.5 44.5t40.5 65.5q16 31 29.5 46t35.5 15q27 0 45 -26t18 -74q0 -76 -38.5 -136t-115 -94.5
t-186.5 -34.5t-186.5 34.5z" />
    <glyph glyph-name="uni0424" unicode="&#x424;" horiz-adv-x="1832" 
d="M1570 300.5q-170 -132.5 -504 -141.5v-79q0 -36 -27 -58t-96 -22h-59q-123 0 -123 80v79q-331 10 -500 142.5t-169 396.5q0 261 164.5 394.5t504.5 143.5v77q0 80 123 80h59q69 0 96 -22t27 -58v-77q342 -9 508 -142.5t166 -395.5q0 -265 -170 -397.5zM1277 424
q80 33 117.5 98t37.5 168q0 107 -36.5 175t-116.5 104t-213 41v-625q131 6 211 39zM436 523q37 -65 116.5 -98.5t208.5 -39.5v625q-131 -6 -210.5 -42t-115.5 -104t-36 -174q0 -102 37 -167z" />
    <glyph glyph-name="uni0425" unicode="&#x425;" horiz-adv-x="1345" 
d="M84 0zM1261 54q0 -24 -27 -39t-81 -15h-101q-66 0 -95.5 20.5t-45.5 58.5l-258 492l-250 -492q-14 -38 -44.5 -58.5t-97.5 -20.5h-69q-54 0 -80.5 14.5t-26.5 39.5q0 13 7 27l352 617l-352 613q-8 16 -8 28q0 25 26.5 39.5t80.5 14.5h109q66 0 95.5 -20.5t44.5 -58.5
l251 -486l249 486q15 38 44.5 58.5t97.5 20.5h69q54 0 80.5 -15t26.5 -40q0 -14 -7 -27l-355 -611l358 -619q7 -13 7 -27z" />
    <glyph glyph-name="uni0427" unicode="&#x427;" horiz-adv-x="1361" 
d="M1249 1313v-1233q0 -80 -115 -80h-68q-68 0 -95 22t-27 58v429q-112 -68 -280 -68h-129q-226 0 -333 100.5t-107 294.5v486q0 71 110 71h67q115 0 115 -71v-478q0 -65 19 -106.5t64.5 -62.5t125.5 -21h125q120 0 171.5 47.5t51.5 142.5v469q0 36 27 58t95 22h68
q115 0 115 -80z" />
    <glyph glyph-name="uni0426" unicode="&#x426;" horiz-adv-x="1505" 
d="M1457 127l-16 -374q-2 -36 -26.5 -58t-83.5 -22h-18q-123 0 -123 80v247h-872q-107 0 -156.5 40.5t-49.5 118.5v1154q0 36 27 58t96 22h53q123 0 123 -80v-1061q0 -35 45 -35h490v1096q0 80 123 80h53q69 0 96 -22t27 -58v-1096h146q71 0 66 -90z" />
    <glyph glyph-name="uni0428" unicode="&#x428;" horiz-adv-x="1908" 
d="M1769.5 1371q26.5 -22 26.5 -58v-1154q0 -78 -49.5 -118.5t-156.5 -40.5h-1272q-107 0 -156.5 40.5t-49.5 118.5v1154q0 36 27 58t96 22h53q123 0 123 -80v-1061q0 -35 45 -35h348v1096q0 80 124 80h53q69 0 95.5 -22t26.5 -58v-1096h349q45 0 45 35v1061q0 80 124 80h53
q69 0 95.5 -22z" />
    <glyph glyph-name="uni0429" unicode="&#x429;" horiz-adv-x="2048" 
d="M2000 127l-16 -374q-2 -36 -26.5 -58t-83.5 -22h-18q-123 0 -123 80v247h-1415q-107 0 -156.5 40.5t-49.5 118.5v1154q0 36 27 58t96 22h53q123 0 123 -80v-1061q0 -35 45 -35h348v1096q0 80 124 80h53q69 0 95.5 -22t26.5 -58v-1096h394v1096q0 80 124 80h53
q69 0 95.5 -22t26.5 -58v-1096h138q71 0 66 -90z" />
    <glyph glyph-name="uni040F" unicode="&#x40f;" horiz-adv-x="1357" 
d="M1218 1371q27 -22 27 -58v-1154q0 -78 -49.5 -118.5t-156.5 -40.5h-223l-9 -249q-1 -37 -25.5 -58.5t-84.5 -21.5h-18q-108 0 -110 80l-9 249h-242q-107 0 -156.5 40.5t-49.5 118.5v1154q0 36 27 58t96 22h53q123 0 123 -80v-1061q0 -35 45 -35h444q46 0 46 35v1061
q0 80 123 80h53q69 0 96 -22z" />
    <glyph glyph-name="uni042F" unicode="&#x42f;" horiz-adv-x="1300" 
d="M1138.5 1352q49.5 -41 49.5 -119v-1153q0 -36 -27 -58t-95 -22h-56q-124 0 -124 80v499h-136q-60 -3 -92 -29t-59 -82l-184 -390q-14 -36 -50.5 -57t-104.5 -21h-78q-96 0 -96 47q0 13 8 31l219 423q36 70 95 112q-155 28 -232.5 116t-77.5 250q0 210 112 312t349 102
h423q107 0 156.5 -41zM886 763v379q0 35 -45 35h-220q-87 0 -138 -20t-74.5 -63.5t-23.5 -116.5q0 -111 55 -162.5t177 -51.5h269z" />
    <glyph glyph-name="uni042C" unicode="&#x42c;" horiz-adv-x="1262" 
d="M1076 745.5q110 -102.5 110 -318.5q0 -427 -464 -427h-404q-107 0 -156.5 40.5t-49.5 118.5v1154q0 80 123 80h56q69 0 96 -22t27 -58v-465h324q228 0 338 -102.5zM801 236.5q51 20.5 74.5 65.5t23.5 119q0 75 -22.5 121t-73 68t-136.5 22h-253v-381q0 -35 46 -35h203
q87 0 138 20.5z" />
    <glyph glyph-name="uni042A" unicode="&#x42a;" horiz-adv-x="1473" 
d="M1288 745.5q110 -102.5 110 -318.5q0 -427 -464 -427h-404q-107 0 -156.5 40.5t-49.5 118.5v1027h-193q-31 0 -49 20t-18 71v34q0 92 67 92h345v-10h27q69 0 96 -22t27 -58v-465h324q228 0 338 -102.5zM1013 236.5q51 20.5 74.5 65.5t23.5 119q0 75 -22.5 121t-73 68
t-136.5 22h-253v-381q0 -35 46 -35h203q87 0 138 20.5z" />
    <glyph glyph-name="uni042B" unicode="&#x42b;" horiz-adv-x="1791" 
d="M112 0zM1076 745.5q110 -102.5 110 -318.5q0 -427 -464 -427h-404q-107 0 -156.5 40.5t-49.5 118.5v1154q0 80 123 80h56q69 0 96 -22t27 -58v-465h324q228 0 338 -102.5zM801 236.5q51 20.5 74.5 65.5t23.5 119q0 75 -22.5 121t-73 68t-136.5 22h-253v-381q0 -35 46 -35
h203q87 0 138 20.5zM1374 80v1233q0 80 123 80h60q122 0 122 -80v-1233q0 -80 -122 -80h-60q-123 0 -123 80z" />
    <glyph glyph-name="uni0409" unicode="&#x409;" horiz-adv-x="2214" 
d="M2027.5 744.5q110.5 -102.5 110.5 -319.5q0 -211 -114.5 -318t-349.5 -107h-402q-107 0 -156.5 40.5t-49.5 118.5v981q0 36 -45 36h-297q-23 0 -33 -9t-12 -27l-51 -700q-10 -142 -68 -241t-154 -149t-219 -50h-60q-67 0 -67 92v34q0 51 18 71t49 20h24q76 0 121.5 52.5
t52.5 158.5l61 805q6 80 52 120t152 40h571q107 0 156.5 -41t49.5 -119v-386h322q228 0 338.5 -102.5zM1753.5 235.5q51.5 20.5 75 65t23.5 117.5q0 76 -22.5 122.5t-73.5 69t-137 22.5h-252v-382q0 -35 45 -35h203q87 0 138.5 20.5z" />
    <glyph glyph-name="uni040A" unicode="&#x40a;" horiz-adv-x="2090" 
d="M1903 731.5q111 -100.5 111 -306.5q0 -211 -114.5 -318t-349.5 -107h-404q-108 0 -157.5 40.5t-49.5 118.5v456h-522v-535q0 -80 -123 -80h-59q-123 0 -123 80v1233q0 80 123 80h59q123 0 123 -80v-491h522v491q0 36 27 58t95 22h58q125 0 125 -80v-481h321
q227 0 338 -100.5zM1629.5 235.5q51.5 20.5 75 65t23.5 117.5q0 75 -22.5 121.5t-73.5 69t-137 22.5h-251v-381q0 -35 45 -35h202q87 0 138.5 20.5z" />
    <glyph glyph-name="uni0405" unicode="&#x405;" horiz-adv-x="1276" 
d="M99 0zM247 41l-104 35q-23 8 -33.5 21.5t-10.5 35.5q0 19 5 35l20 65q8 32 20 45.5t32 13.5q11 0 31 -5l79 -26q73 -24 158 -39.5t165 -15.5q129 0 194 42.5t65 125.5q0 47 -22 76.5t-65 49t-125 44.5l-179 54q-117 34 -195.5 81t-121 121t-42.5 184q0 126 60 223
t176.5 151.5t281.5 54.5q183 0 351 -57l93 -33q43 -15 43 -55q0 -13 -5 -33l-19 -67q-9 -31 -20.5 -44.5t-28.5 -13.5q-13 0 -30 6l-71 24q-153 49 -288 49q-247 0 -247 -172q0 -51 22.5 -82t64 -51t119.5 -43l181 -53q127 -36 206 -83t119.5 -119t40.5 -179
q0 -131 -61.5 -227t-183 -148t-296.5 -52q-201 0 -379 61z" />
    <glyph glyph-name="uni0404" unicode="&#x404;" horiz-adv-x="1290" 
d="M1209 165q5 -27 5 -41q0 -21 -10 -33.5t-33 -20.5l-89 -32q-172 -58 -342 -58q-206 0 -351 79t-221 234.5t-76 382.5v41q0 227 76 382.5t221 234.5t351 79q164 0 342 -58l89 -33q23 -7 33 -19.5t10 -33.5q0 -14 -5 -41l-16 -67q-8 -34 -19.5 -49t-29.5 -15q-7 0 -23 4
l-74 25q-66 20 -123 30.5t-118 10.5q-174 0 -272 -88t-117 -268h519q63 0 63 -85v-38q0 -85 -63 -85h-521q15 -192 113 -284.5t278 -92.5q61 0 118 10.5t123 30.5l74 25q16 4 22 4q19 0 30.5 -15t19.5 -50z" />
    <glyph glyph-name="uni042D" unicode="&#x42d;" horiz-adv-x="1290" 
d="M1030.5 1239q168.5 -174 168.5 -513v-41q0 -227 -76 -385t-222 -239t-352 -81q-171 0 -341 58l-89 32q-24 8 -34 20.5t-10 34.5q0 13 5 40l17 66q7 35 18.5 50t31.5 15q6 0 22 -4l73 -25q67 -20 124 -30.5t118 -10.5q176 0 275 94.5t116 282.5h-521q-63 0 -63 85v38
q0 85 63 85h520q-18 183 -115.5 269.5t-274.5 86.5q-61 0 -118 -10.5t-124 -30.5l-73 -25q-18 -4 -23 -4q-19 0 -30.5 15t-18.5 49l-17 67q-5 27 -5 40q0 22 10 34.5t34 19.5l89 33q176 58 341 58q313 0 481.5 -174z" />
    <glyph glyph-name="uni0406" unicode="&#x406;" horiz-adv-x="529" 
d="M112 0zM112 80v1233q0 80 123 80h60q122 0 122 -80v-1233q0 -80 -122 -80h-60q-123 0 -123 80z" />
    <glyph glyph-name="uni0407" unicode="&#x407;" horiz-adv-x="529" 
d="M0 0zM112 80v1233q0 80 123 80h60q122 0 122 -80v-1233q0 -80 -122 -80h-60q-123 0 -123 80zM0.5 1533.5q-37.5 36.5 -37.5 98.5q0 59 37.5 95t98.5 36q60 0 97 -35.5t37 -95.5q0 -62 -37 -98.5t-97 -36.5q-61 0 -98.5 36.5zM345 1533.5q-37 36.5 -37 98.5
q0 60 37.5 95.5t97.5 35.5t97 -35.5t37 -95.5q0 -62 -37 -98.5t-97 -36.5q-61 0 -98 36.5z" />
    <glyph glyph-name="uni0408" unicode="&#x408;" horiz-adv-x="743" 
d="M55 0zM105 16q-50 36 -50 98v21q0 62 78 62q96 0 144.5 46t48.5 151v919q0 36 26 58t94 22h63q122 0 122 -80v-929q0 -134 -48 -224.5t-134 -135t-201 -44.5q-93 0 -143 36z" />
    <glyph glyph-name="uni040B" unicode="&#x40b;" horiz-adv-x="1607" 
d="M1393.5 851q106.5 -101 106.5 -295v-496q0 -70 -110 -70h-63q-111 0 -111 70v488q0 98 -47 144.5t-160 46.5q-111 0 -163 -40.5t-58 -123.5v-495q0 -36 -27 -58t-96 -22h-59q-69 0 -95.5 22t-26.5 58v1096h-359q-67 0 -67 90v35q0 92 67 92h1022q67 0 67 -92v-35
q0 -90 -67 -90h-359v-287q109 63 274 63q225 0 331.5 -101z" />
    <glyph glyph-name="uni042E" unicode="&#x42e;" horiz-adv-x="1953" 
d="M1723.5 1235.5q138.5 -177.5 138.5 -518.5v-41q0 -339 -135 -517.5t-424 -178.5q-275 0 -411 162t-148 470h-327v-532q0 -80 -123 -80h-59q-123 0 -123 80v1233q0 80 123 80h59q123 0 123 -80v-494h329q20 291 158 442.5t399 151.5q282 0 420.5 -177.5zM1568 717
q0 176 -26 279.5t-83.5 150.5t-155.5 47t-155.5 -47t-83.5 -150.5t-26 -279.5v-41q0 -176 25.5 -279.5t83 -150.5t156.5 -47q98 0 155.5 47t83.5 150.5t26 279.5v41z" />
    <glyph glyph-name="uni0402" unicode="&#x402;" horiz-adv-x="1657" 
d="M1466 815q115 -114 115 -327q0 -239 -127.5 -368t-378.5 -129h-114q-30 0 -47.5 19t-17.5 68v33q0 89 65 89h91q109 0 166.5 71.5t57.5 206.5q0 119 -56.5 178.5t-183.5 59.5q-132 0 -190 -47t-58 -144v-445q0 -36 -27 -58t-96 -22h-59q-69 0 -95.5 22t-26.5 58v1096
h-359q-67 0 -67 90v35q0 92 67 92h1022q67 0 67 -92v-35q0 -90 -67 -90h-359v-325q122 78 318 78q245 0 360 -114z" />
    <glyph glyph-name="uni0462" unicode="&#x462;" horiz-adv-x="1405" 
d="M1220 745.5q110 -102.5 110 -318.5q0 -427 -464 -427h-404q-107 0 -156.5 40.5t-49.5 118.5v875h-154q-61 0 -61 82v30q0 83 61 83h154v84q0 80 123 80h56q69 0 96 -22t27 -58v-84h291q61 0 61 -83v-30q0 -82 -61 -82h-291v-186h324q228 0 338 -102.5zM945 236.5
q51 20.5 74.5 65.5t23.5 119q0 75 -22.5 121t-73 68t-136.5 22h-253v-381q0 -35 46 -35h203q87 0 138 20.5z" />
    <glyph glyph-name="uni0472" unicode="&#x472;" horiz-adv-x="1489" 
d="M1231 1240q166 -173 166 -523v-41q0 -354 -164 -525t-489 -171t-488.5 170.5t-163.5 525.5v41q0 350 166 523t486 173q321 0 487 -173zM572 1157.5q-68 -36.5 -105 -114.5t-48 -205q61 35 135 35q61 0 103 -13t96 -38q47 -23 83.5 -34.5t85.5 -11.5q85 0 148 52
q-10 131 -46.5 211t-105 117.5t-174.5 37.5q-104 0 -172 -36.5zM927.5 242q70.5 42 105.5 133.5t40 243.5q-66 -55 -160 -55q-62 0 -105 13t-95 38q-49 23 -84.5 34t-85.5 11q-67 0 -128 -38q5 -153 40 -245.5t105.5 -134.5t183.5 -42t183.5 42z" />
    <glyph glyph-name="uni0474" unicode="&#x474;" horiz-adv-x="1516" 
d="M525 47.5q-59 47.5 -87 148.5l-355 1110q-4 16 -4 24q0 63 108 63h71q125 0 144 -87l287 -1027q4 -15 18 -15q12 0 16 15l247 954q18 79 74 119.5t163 40.5h182q67 0 67 -92v-35q0 -90 -67 -90h-100q-23 0 -33.5 -10t-15.5 -29l-280 -938q-30 -106 -86.5 -152.5
t-160.5 -46.5h-32q-97 0 -156 47.5z" />
    <glyph glyph-name="uni0492" unicode="&#x492;" horiz-adv-x="1219" 
d="M1159 1301v-35q0 -90 -67 -90h-507q-45 0 -45 -36v-337h264q61 0 61 -82v-31q0 -82 -61 -82h-264v-528q0 -80 -124 -80h-56q-123 0 -123 80v528h-135q-61 0 -61 82v31q0 82 61 82h135v430q0 78 49.5 119t156.5 41h649q67 0 67 -92z" />
    <glyph glyph-name="uni0496" unicode="&#x496;" horiz-adv-x="2168" 
d="M779 739q13 -23 13 -46q0 -24 -13 -46l-345 -565q-17 -37 -61 -59.5t-115 -22.5h-92q-85 0 -85 38q0 18 16 44l421 614l-419 615q-15 27 -15 44q0 39 85 39h89q70 0 114 -23t61 -60zM1128 1372q27 -22 27 -58v-1234q0 -36 -27 -58t-96 -22h-59q-123 0 -123 80v1234
q0 80 123 80h59q69 0 96 -22zM2120 122l-16 -369q-2 -36 -26 -58t-84 -22h-18q-123 0 -123 80v237h-92l-2 10h-11q-70 0 -114 22.5t-62 59.5l-345 565q-12 23 -12 47q0 25 12 45l346 572q19 37 62.5 60t112.5 23h90q85 0 85 -39q0 -18 -16 -44l-422 -615l335 -485h234
q71 0 66 -89z" />
    <glyph glyph-name="uni049A" unicode="&#x49a;" horiz-adv-x="1471" 
d="M417 1313v-1233q0 -80 -123 -80h-59q-123 0 -123 80v1233q0 80 123 80h59q123 0 123 -80zM1423 122l-16 -369q-2 -80 -110 -80h-18q-68 0 -95 22t-27 58v237h-92l-2 10h-18q-70 0 -114 22.5t-63 59.5l-379 565q-13 22 -13 45q0 25 13 47l381 571q18 37 61.5 60t113.5 23
h100q85 0 85 -40q0 -19 -16 -43l-447 -613l355 -486h235q71 0 66 -89z" />
    <glyph glyph-name="uni04A2" unicode="&#x4a2;" horiz-adv-x="1520" 
d="M1472 122l-16 -369q-2 -36 -26.5 -58t-83.5 -22h-18q-123 0 -123 80v237h-92l-2 10h-45q-123 0 -123 80v532h-526v-532q0 -80 -123 -80h-59q-123 0 -123 80v1233q0 80 123 80h59q123 0 123 -80v-494h526v494q0 80 123 80h59q69 0 96 -22t27 -58v-1102h158q71 0 66 -89z
" />
    <glyph glyph-name="uni04AE" unicode="&#x4ae;" horiz-adv-x="1347" 
d="M75 0zM524 80v488l-441 743q-8 16 -8 28q0 24 27 39t81 15h98q66 0 95.5 -20.5t44.5 -58.5l272 -506l270 506q15 39 44.5 59t96.5 20h60q54 0 81 -15t27 -40q0 -14 -7 -27l-436 -738v-493q0 -36 -27 -58t-96 -22h-59q-123 0 -123 80z" />
    <glyph glyph-name="uni04B0" unicode="&#x4b0;" horiz-adv-x="1347" 
d="M1265 1311l-405 -686h207q27 0 44 -19t17 -64v-40q0 -82 -61 -82h-238v-340q0 -36 -27 -58t-96 -22h-59q-123 0 -123 80v340h-224q-61 0 -61 82v40q0 45 17 64t44 19h190l-407 686q-8 16 -8 28q0 24 27 39t81 15h98q66 0 95.5 -20.5t44.5 -58.5l272 -506l270 506
q15 39 44.5 59t96.5 20h60q54 0 81 -15t27 -40q0 -14 -7 -27z" />
    <glyph glyph-name="uni04B2" unicode="&#x4b2;" horiz-adv-x="1500" 
d="M1452 132l-16 -379q-2 -80 -110 -80h-18q-123 0 -123 80v247h-133q-66 0 -95.5 20.5t-45.5 58.5l-258 492l-250 -492q-14 -38 -44.5 -58.5t-97.5 -20.5h-69q-54 0 -80.5 14.5t-26.5 39.5q0 13 7 27l352 617l-352 613q-8 16 -8 28q0 25 26.5 39.5t80.5 14.5h109
q66 0 95.5 -20.5t44.5 -58.5l251 -486l249 486q15 38 44.5 58.5t97.5 20.5h69q54 0 80.5 -15t26.5 -40q0 -14 -7 -27l-355 -611l276 -478h213q72 0 67 -90z" />
    <glyph glyph-name="uni04B6" unicode="&#x4b6;" horiz-adv-x="1498" 
d="M1450 132l-17 -379q0 -80 -109 -80h-19q-122 0 -122 80v247h-117q-68 0 -95 22t-27 58v429q-112 -68 -280 -68h-129q-226 0 -333 100.5t-107 294.5v486q0 71 110 71h67q115 0 115 -71v-478q0 -65 19 -106.5t64.5 -62.5t125.5 -21h125q120 0 171.5 47.5t51.5 142.5v469
q0 36 27 58t95 22h68q115 0 115 -80v-1091h134q71 0 67 -90z" />
    <glyph glyph-name="uni04BA" unicode="&#x4ba;" horiz-adv-x="1361" 
d="M1158.5 851q107.5 -101 107.5 -295v-485q0 -71 -110 -71h-67q-116 0 -116 71v477q0 65 -19 106.5t-64.5 63t-124.5 21.5h-125q-121 0 -172 -47.5t-51 -143.5v-468q0 -80 -123 -80h-67q-115 0 -115 80v1233q0 80 115 80h67q123 0 123 -80v-429q112 68 280 68h128
q226 0 333.5 -101z" />
    <glyph glyph-name="uni04C0" unicode="&#x4c0;" horiz-adv-x="529" 
d="M112 0zM112 80v1233q0 80 123 80h60q122 0 122 -80v-1233q0 -80 -122 -80h-60q-123 0 -123 80z" />
    <glyph glyph-name="uni04D8" unicode="&#x4d8;" horiz-adv-x="1425" 
d="M1024.5 1333.5q150.5 -79.5 229.5 -235t79 -381.5v-41q0 -228 -78 -383t-225 -233t-354 -80q-185 0 -317.5 53t-202 152.5t-69.5 238.5q0 151 64.5 239.5t194.5 129t339 46.5l320 11q-28 164 -131.5 245t-278.5 81q-67 0 -129 -12t-132 -34l-74 -25q-11 -4 -22 -4
q-19 0 -30.5 15t-19.5 50l-15 62q-5 27 -5 41q0 21 10 33.5t33 19.5l89 33q167 58 360 58q214 0 364.5 -79.5zM927.5 321.5q86.5 113.5 88.5 343.5l-276 -8q-181 -6 -273.5 -55t-92.5 -169q0 -114 75.5 -169.5t217.5 -55.5q174 0 260.5 113.5z" />
    <glyph glyph-name="uni04E2" unicode="&#x4e2;" horiz-adv-x="1407" 
d="M112 0zM173 54q-61 54 -61 155v1106q0 78 106 78h31q107 0 107 -78v-1055q0 -15 14 -15q15 0 20 15l365 940q31 101 92 147t158 46h59q105 0 168 -54t63 -155v-1106q0 -36 -23.5 -57t-81.5 -21h-32q-60 0 -83.5 21t-23.5 57v1054q0 16 -13 16q-16 0 -21 -16l-365 -940
q-31 -101 -91.5 -146.5t-157.5 -45.5h-64q-105 0 -166 54zM390 1630v29q0 77 57 77h540q57 0 57 -77v-29q0 -42 -15.5 -59t-41.5 -17h-540q-57 0 -57 76z" />
    <glyph glyph-name="uni04E8" unicode="&#x4e8;" horiz-adv-x="1489" 
d="M1231 1240q166 -173 166 -523v-41q0 -354 -164 -525t-489 -171t-488.5 170.5t-163.5 525.5v41q0 350 166 523t486 173q321 0 487 -173zM567 1154.5q-69 -39.5 -105.5 -124t-44.5 -222.5h655q-9 139 -45 223t-105 123.5t-178 39.5q-108 0 -177 -39.5zM924.5 240
q69.5 40 105 128t42.5 233h-656q7 -145 42.5 -233t105 -128t180.5 -40t180.5 40z" />
    <glyph glyph-name="uni04EE" unicode="&#x4ee;" horiz-adv-x="1275" 
d="M87 0zM1199 1344q0 -10 -5 -23l-407 -907q-61 -135 -133 -226t-169.5 -140t-226.5 -49h-99q-68 0 -68 78v59q0 42 19 60t49 18h43q98 0 168 51t117 155l20 43l-414 858q-6 12 -6 24q0 22 26 35t83 13h78q71 0 103.5 -19.5t43.5 -52.5l244 -609l229 609q10 33 43 52.5
t104 19.5h50q108 0 108 -49zM337 1630v29q0 77 57 77h540q57 0 57 -77v-29q0 -42 -15.5 -59t-41.5 -17h-540q-57 0 -57 76z" />
    <glyph glyph-name="uni0430" unicode="&#x430;" horiz-adv-x="1051" 
d="M76 0zM861.5 903.5q99.5 -85.5 99.5 -254.5v-359q0 -110 -47 -178.5t-143.5 -100t-248.5 -31.5q-228 0 -337 71.5t-109 216.5v20q0 141 98.5 211t307.5 81l222 12v26q0 83 -45.5 123.5t-142.5 40.5q-60 0 -132.5 -13t-129.5 -33l-50 -18q-17 -5 -28 -5q-17 0 -27 12
t-17 39l-15 63q-4 15 -4 29q0 18 9 29.5t28 18.5l70 27q149 58 326 58q216 0 315.5 -85.5zM661.5 174.5q42.5 36.5 42.5 116.5v150l-162 -9q-105 -6 -153.5 -38.5t-48.5 -101.5v-18q0 -70 41.5 -103t140.5 -33q97 0 139.5 36.5z" />
    <glyph glyph-name="uni0431" unicode="&#x431;" horiz-adv-x="1123" 
d="M1036 502v-44q0 -252 -118 -365t-359 -113q-239 0 -355.5 114t-116.5 365v55q0 306 82.5 506.5t232 295.5t355.5 95h108q47 0 84 10q18 4 25 4q40 0 40 -50v-85q0 -54 -45 -68q-50 -17 -106 -16l-73 1q-144 2 -242 -63t-150 -205q84 41 205 41q433 0 433 -478zM765 501
q0 109 -20 171.5t-64 90t-119 27.5q-77 0 -122 -27.5t-65.5 -90.5t-20.5 -172v-40q0 -111 20.5 -173.5t65.5 -89.5t122 -27q75 0 119 26.5t64 89t20 173.5v42z" />
    <glyph glyph-name="uni0432" unicode="&#x432;" horiz-adv-x="1136" 
d="M1012 420.5q49 -54.5 49 -144.5q0 -132 -98.5 -204t-289.5 -72h-375q-102 0 -149 38.5t-47 112.5v667q0 74 47 112.5t149 38.5h393q174 0 255.5 -63.5t81.5 -188.5q0 -78 -41 -134t-125 -84q101 -24 150 -78.5zM372 575h243q76 0 110 26t34 84q0 40 -13.5 64t-45 35.5
t-88.5 11.5h-197q-43 0 -43 -33v-188zM709.5 186q35.5 13 50 39.5t14.5 70.5q0 58 -32 85.5t-107 27.5h-263v-203q0 -33 43 -33h196q63 0 98.5 13z" />
    <glyph glyph-name="uni0433" unicode="&#x433;" horiz-adv-x="840" 
d="M125.5 19.5q-23.5 19.5 -23.5 51.5v747q0 74 47 112.5t149 38.5h426q57 0 57 -77v-29q0 -76 -57 -76h-307q-44 0 -44 -33v-683q0 -71 -108 -71h-56q-60 0 -83.5 19.5z" />
    <glyph glyph-name="uni0453" unicode="&#x453;" horiz-adv-x="840" 
d="M102 0zM125.5 19.5q-23.5 19.5 -23.5 51.5v747q0 74 47 112.5t149 38.5h426q57 0 57 -77v-29q0 -76 -57 -76h-307q-44 0 -44 -33v-683q0 -71 -108 -71h-56q-60 0 -83.5 19.5zM344 1124q-15 12 -15 31q0 25 26 52l129 138q22 24 44.5 36t52.5 12h95q32 0 50.5 -13.5
t18.5 -34.5q0 -26 -28 -51l-128 -113q-42 -37 -75 -53t-71 -16h-60q-24 0 -39 12z" />
    <glyph glyph-name="uni0491" unicode="&#x491;" horiz-adv-x="872" 
d="M125.5 19.5q-23.5 19.5 -23.5 51.5v747q0 74 47 112.5t149 38.5h269v257q0 34 25 53.5t88 19.5h16q56 0 78.5 -19.5t23.5 -53.5l15 -357q5 -82 -61 -82h-335q-44 0 -44 -33v-683q0 -71 -108 -71h-56q-60 0 -83.5 19.5z" />
    <glyph glyph-name="uni0434" unicode="&#x434;" horiz-adv-x="1482" 
d="M1427 100l-15 -361q-2 -73 -102 -73h-16q-63 0 -88 20t-25 53v261h-886v-261q0 -33 -25 -53t-88 -20h-16q-100 0 -102 73l-15 361q-4 82 61 82h56q81 0 120 42t47 137l34 457q6 75 51 113t145 38h469q102 0 149 -38.5t47 -112.5v-636h139q64 0 60 -82zM549 182h396v572
q0 33 -44 33h-217q-22 0 -31.5 -8t-11.5 -25l-30 -372q-9 -123 -62 -200z" />
    <glyph glyph-name="uni0435" unicode="&#x435;" horiz-adv-x="1048" 
d="M950 128q5 -18 5 -29q0 -32 -35 -46l-64 -25q-119 -48 -284 -48q-229 0 -362.5 119t-133.5 367v38q0 158 58.5 267t165.5 163.5t252 54.5q133 0 228 -38t144 -108t49 -166q0 -103 -45 -164t-136.5 -89.5t-239.5 -32.5l-212 -7q23 -104 99.5 -151t187.5 -47q47 0 100.5 9
t94.5 24l45 16q15 5 24 5q15 0 24 -11.5t17 -38.5zM390 737.5q-57 -65.5 -59 -210.5l165 5q86 2 136.5 11t80 36.5t29.5 82.5q0 65 -44 103t-138 38q-113 0 -170 -65.5z" />
    <glyph glyph-name="uni0451" unicode="&#x451;" horiz-adv-x="1048" 
d="M76 0zM950 128q5 -18 5 -29q0 -32 -35 -46l-64 -25q-119 -48 -284 -48q-229 0 -362.5 119t-133.5 367v38q0 158 58.5 267t165.5 163.5t252 54.5q133 0 228 -38t144 -108t49 -166q0 -103 -45 -164t-136.5 -89.5t-239.5 -32.5l-212 -7q23 -104 99.5 -151t187.5 -47
q47 0 100.5 9t94.5 24l45 16q15 5 24 5q15 0 24 -11.5t17 -38.5zM390 737.5q-57 -65.5 -59 -210.5l165 5q86 2 136.5 11t80 36.5t29.5 82.5q0 65 -44 103t-138 38q-113 0 -170 -65.5zM285.5 1155.5q-37.5 36.5 -37.5 98.5q0 59 37.5 95t98.5 36q60 0 97 -35.5t37 -95.5
q0 -62 -37 -98.5t-97 -36.5q-61 0 -98.5 36.5zM630 1155.5q-37 36.5 -37 98.5q0 60 37.5 95.5t97.5 35.5t97 -35.5t37 -95.5q0 -62 -37 -98.5t-97 -36.5q-61 0 -98 36.5z" />
    <glyph glyph-name="uni0436" unicode="&#x436;" horiz-adv-x="1666" 
d="M55 35q0 15 15 37l332 417l-332 408q-15 22 -15 37q0 35 76 35h89q113 0 155 -72l263 -370q13 -19 13 -41t-13 -42l-261 -372q-18 -32 -56 -52t-99 -20h-91q-76 0 -76 35zM697 71v827q0 71 109 71h55q60 0 84 -19t24 -52v-827q0 -33 -24 -52t-84 -19h-55q-109 0 -109 71z
M1289 72l-261 372q-13 20 -13 42t13 41l264 370q18 32 56 52t99 20h88q76 0 76 -35q0 -15 -15 -37l-332 -408l332 -417q15 -22 15 -37q0 -35 -76 -35h-91q-113 0 -155 72z" />
    <glyph glyph-name="uni0437" unicode="&#x437;" horiz-adv-x="1019" 
d="M886.5 419q46.5 -56 46.5 -146q0 -140 -107 -217t-314 -77q-166 0 -328 58l-71 26q-19 7 -28 19t-9 29q0 14 4 27l16 59q7 25 18 36.5t28 11.5q9 0 26 -5l51 -20q60 -22 130 -36t132 -14q96 0 135 30t39 94q0 58 -31 87t-101 29h-216q-52 0 -52 69v32q0 70 52 70h196
q140 0 140 114q0 39 -15 62t-50 34t-96 11q-62 0 -130.5 -14.5t-128.5 -37.5l-51 -19q-17 -5 -27 -5q-16 0 -27 11.5t-18 36.5l-15 56q-4 13 -4 27q0 17 9 29t28 19l71 26q157 58 325 58q198 0 295.5 -67.5t97.5 -198.5q0 -79 -41 -137.5t-123 -86.5q97 -24 143.5 -80z" />
    <glyph glyph-name="uni0438" unicode="&#x438;" horiz-adv-x="1253" 
d="M161 53.5q-59 53.5 -59 155.5v682q0 36 23.5 57t81.5 21h35q60 0 83 -21t23 -57v-631q0 -15 14 -15q15 0 20 15l240 517q38 102 97.5 147t155.5 45h49q105 0 166 -54t61 -155v-682q0 -36 -23.5 -57t-81.5 -21h-35q-60 0 -83 21t-23 57v631q0 15 -14 15q-15 0 -20 -15
l-241 -517q-39 -103 -97.5 -147.5t-154.5 -44.5h-54q-104 0 -163 53.5z" />
    <glyph glyph-name="uni0439" unicode="&#x439;" horiz-adv-x="1253" 
d="M102 0zM161 53.5q-59 53.5 -59 155.5v682q0 36 23.5 57t81.5 21h35q60 0 83 -21t23 -57v-631q0 -15 14 -15q15 0 20 15l240 517q38 102 97.5 147t155.5 45h49q105 0 166 -54t61 -155v-682q0 -36 -23.5 -57t-81.5 -21h-35q-60 0 -83 21t-23 57v631q0 15 -14 15
q-15 0 -20 -15l-241 -517q-39 -103 -97.5 -147.5t-154.5 -44.5h-54q-104 0 -163 53.5zM438.5 1132.5q-76.5 34.5 -115 94.5t-38.5 136q0 48 18 74t45 26q22 0 35.5 -15t29.5 -46q20 -40 40.5 -65.5t62.5 -44.5t109 -19t109 19t62.5 44.5t40.5 65.5q16 31 29.5 46t35.5 15
q27 0 45 -26t18 -74q0 -76 -38.5 -136t-115 -94.5t-186.5 -34.5t-186.5 34.5z" />
    <glyph glyph-name="uni043A" unicode="&#x43a;" horiz-adv-x="1070" 
d="M125.5 19.5q-23.5 19.5 -23.5 51.5v827q0 32 23.5 51.5t83.5 19.5h55q60 0 84 -19t24 -52v-827q0 -33 -24 -52t-84 -19h-55q-60 0 -83.5 19.5zM749 20q-38 20 -56 52l-261 372q-13 20 -13 42t13 41l263 370q18 32 56 52t99 20h89q76 0 76 -35q0 -15 -15 -37l-332 -408
l332 -417q15 -22 15 -37q0 -35 -76 -35h-91q-61 0 -99 20z" />
    <glyph glyph-name="uni045C" unicode="&#x45c;" horiz-adv-x="1070" 
d="M102 0zM125.5 19.5q-23.5 19.5 -23.5 51.5v827q0 32 23.5 51.5t83.5 19.5h55q60 0 84 -19t24 -52v-827q0 -33 -24 -52t-84 -19h-55q-60 0 -83.5 19.5zM749 20q-38 20 -56 52l-261 372q-13 20 -13 42t13 41l263 370q18 32 56 52t99 20h89q76 0 76 -35q0 -15 -15 -37
l-332 -408l332 -417q15 -22 15 -37q0 -35 -76 -35h-91q-61 0 -99 20zM422 1124q-15 12 -15 31q0 25 26 52l129 138q22 24 44.5 36t52.5 12h95q32 0 50.5 -13.5t18.5 -34.5q0 -26 -28 -51l-128 -113q-42 -37 -75 -53t-71 -16h-60q-24 0 -39 12z" />
    <glyph glyph-name="uni043B" unicode="&#x43b;" horiz-adv-x="1277" 
d="M904 71v683q0 33 -43 33h-235q-22 0 -31.5 -8t-11.5 -25l-32 -402q-13 -166 -100.5 -259t-235.5 -93h-97q-27 0 -42.5 17.5t-15.5 60.5v38q0 77 58 77h15q67 0 106.5 41t47.5 138l33 446q6 75 51 113t145 38h463q102 0 149 -38.5t47 -112.5v-747q0 -32 -23.5 -51.5
t-83.5 -19.5h-56q-108 0 -108 71z" />
    <glyph glyph-name="uni043C" unicode="&#x43c;" horiz-adv-x="1441" 
d="M1350 20.5q-24 -20.5 -82 -20.5h-46q-58 0 -79.5 19.5t-23.5 53.5l-42 652q0 14 -13 14q-17 0 -19 -14l-138 -573q-29 -152 -183 -152h-19q-152 0 -182 152l-140 573q-2 14 -18 14q-14 0 -14 -14l-41 -652q-2 -34 -23 -53.5t-78 -19.5h-41q-55 0 -78 20.5t-21 52.5
l44 701q2 95 59.5 145t155.5 50h36q97 0 157 -42t76 -138l121 -593l127 596q15 89 77 133t159 44h35q98 0 153.5 -49.5t57.5 -145.5l45 -701q2 -32 -22 -52.5z" />
    <glyph glyph-name="uni043D" unicode="&#x43d;" horiz-adv-x="1148" 
d="M1022 950q24 -19 24 -52v-827q0 -33 -24 -52t-84 -19h-56q-60 0 -83.5 19.5t-23.5 51.5v333h-402v-333q0 -71 -108 -71h-56q-60 0 -83.5 19.5t-23.5 51.5v827q0 32 23.5 51.5t83.5 19.5h56q108 0 108 -71v-312h402v312q0 32 23.5 51.5t83.5 19.5h56q60 0 84 -19z" />
    <glyph glyph-name="uni043E" unicode="&#x43e;" horiz-adv-x="1123" 
d="M76 0zM197.5 96.5q-121.5 116.5 -121.5 366.5v43q0 250 121.5 366.5t362.5 116.5q242 0 365 -114t123 -368v-45q0 -254 -123 -368t-365 -114q-241 0 -362.5 116.5zM683.5 195.5q45.5 26.5 67.5 90.5t22 177v43q0 113 -22 177t-67.5 90.5t-121.5 26.5q-77 0 -122.5 -27
t-67.5 -91t-22 -177v-41q0 -113 22 -177t67.5 -91t122.5 -27q76 0 121.5 26.5z" />
    <glyph glyph-name="uni043F" unicode="&#x43f;" horiz-adv-x="1148" 
d="M125.5 19.5q-23.5 19.5 -23.5 51.5v747q0 74 47 112.5t149 38.5h552q102 0 149 -38.5t47 -112.5v-747q0 -33 -23.5 -52t-83.5 -19h-56q-108 0 -108 71v683q0 33 -43 33h-315q-44 0 -44 -33v-683q0 -71 -108 -71h-56q-60 0 -83.5 19.5z" />
    <glyph glyph-name="uni0440" unicode="&#x440;" horiz-adv-x="1123" 
d="M96 0zM835 940.5q105 -48.5 158.5 -155t53.5 -278.5v-45q0 -249 -110 -365.5t-323 -116.5q-153 0 -247 67v-345q0 -71 -105 -71h-62q-104 0 -104 71v804q0 251 117.5 367t356.5 116q160 0 265 -48.5zM780 506q0 113 -21 176.5t-65.5 90.5t-121.5 27q-76 0 -120.5 -27
t-64.5 -90.5t-20 -177.5v-41q0 -113 20.5 -177t64.5 -91t120 -27q77 0 121.5 27t65.5 90.5t21 176.5v43z" />
    <glyph glyph-name="uni0441" unicode="&#x441;" horiz-adv-x="975" 
d="M76 0zM197 93.5q-121 113.5 -121 371.5v39q0 258 121 371.5t339 113.5q146 0 274 -48l57 -23q39 -14 39 -54q0 -9 -4 -31l-16 -60q-6 -29 -16.5 -43.5t-27.5 -14.5q-6 0 -20 4l-47 16q-87 29 -175 29q-122 0 -183.5 -59t-61.5 -201v-39q0 -142 61.5 -201t183.5 -59
q88 0 175 29l47 16q14 4 20 4q17 0 27.5 -14.5t16.5 -43.5l16 -60q4 -24 4 -31q0 -21 -9 -34t-30 -20l-57 -23q-128 -48 -274 -48q-218 0 -339 113.5z" />
    <glyph glyph-name="uni0442" unicode="&#x442;" horiz-adv-x="956" 
d="M920 892v-29q0 -76 -57 -76h-249v-716q0 -71 -109 -71h-55q-60 0 -84 19t-24 52v716h-248q-58 0 -58 76v29q0 77 58 77h769q57 0 57 -77z" />
    <glyph glyph-name="uni0443" unicode="&#x443;" horiz-adv-x="1052" 
d="M999 920q0 -11 -4 -22l-335 -897q-68 -184 -177 -277t-274 -93h-88q-58 0 -58 77v31q0 76 58 76h40q164 0 239 192l13 34l-343 857q-4 11 -4 22q0 49 94 49h76q59 0 88 -19t38 -52l195 -585l181 585q19 71 126 71h42q93 0 93 -49z" />
    <glyph glyph-name="uni045E" unicode="&#x45e;" horiz-adv-x="1052" 
d="M63 0zM999 920q0 -11 -4 -22l-335 -897q-68 -184 -177 -277t-274 -93h-88q-58 0 -58 77v31q0 76 58 76h40q164 0 239 192l13 34l-343 857q-4 11 -4 22q0 49 94 49h76q59 0 88 -19t38 -52l195 -585l181 585q19 71 126 71h42q93 0 93 -49zM369.5 1132.5
q-76.5 34.5 -115 94.5t-38.5 136q0 48 18 74t45 26q22 0 35.5 -15t29.5 -46q20 -40 40.5 -65.5t62.5 -44.5t109 -19t109 19t62.5 44.5t40.5 65.5q16 31 29.5 46t35.5 15q27 0 45 -26t18 -74q0 -76 -38.5 -136t-115 -94.5t-186.5 -34.5t-186.5 34.5z" />
    <glyph glyph-name="uni0444" unicode="&#x444;" horiz-adv-x="1459" 
d="M1260.5 858.5q123.5 -110.5 123.5 -358.5v-43q0 -167 -56 -267.5t-164.5 -145t-272.5 -44.5h-25v-298q0 -71 -105 -71h-62q-104 0 -104 71v298h-26q-163 0 -271 44.5t-165 145t-57 267.5v43q0 247 124.5 358t368.5 111h26v353q0 71 104 71h62q105 0 105 -71v-353h25
q246 0 369.5 -110.5zM595 176v617h-33q-77 0 -123 -26.5t-68 -90.5t-22 -177v-41q0 -112 22 -173t67.5 -85t123.5 -24h33zM1111 499q0 113 -22 177t-68 90.5t-124 26.5h-31v-617h31q79 0 124.5 24t67.5 85t22 173v41z" />
    <glyph glyph-name="uni0445" unicode="&#x445;" horiz-adv-x="1066" 
d="M69 0zM996 48q0 -21 -24 -34.5t-72 -13.5h-90q-59 0 -86 18.5t-40 52.5l-161 293l-163 -293q-13 -35 -39.5 -53t-86.5 -18h-69q-48 0 -72 13.5t-24 34.5q0 12 7 25l251 412l-248 411q-7 13 -7 25q0 21 24 34.5t72 13.5h90q59 0 86.5 -18.5t40.5 -52.5l156 -293l156 293
q13 34 40 52.5t87 18.5h69q48 0 72 -13.5t24 -34.5q0 -12 -7 -25l-247 -406l254 -417q7 -13 7 -25z" />
    <glyph glyph-name="uni0447" unicode="&#x447;" horiz-adv-x="1095" 
d="M969.5 950q23.5 -19 23.5 -52v-833q0 -33 -23.5 -52t-84.5 -19h-55q-108 0 -108 71v238q-94 -51 -232 -51q-202 0 -300 95.5t-98 286.5v264q0 71 104 71h63q106 0 106 -71v-256q0 -99 39 -143t134 -44q97 0 140.5 45t43.5 142v256q0 71 108 71h56q60 0 83.5 -19z" />
    <glyph glyph-name="uni0446" unicode="&#x446;" horiz-adv-x="1292" 
d="M1249 100l-15 -361q-2 -73 -102 -73h-16q-104 0 -104 73v261h-714q-103 0 -149.5 37t-46.5 111v750q0 32 23.5 51.5t83.5 19.5h56q108 0 108 -71v-683q0 -33 44 -33h358v716q0 71 108 71h56q60 0 83.5 -19.5t23.5 -51.5v-716h142q65 0 61 -82z" />
    <glyph glyph-name="uni0448" unicode="&#x448;" horiz-adv-x="1730" 
d="M149 38.5q-47 38.5 -47 112.5v747q0 32 23.5 51.5t83.5 19.5h56q108 0 108 -71v-683q0 -33 44 -33h319v716q0 71 107 71h56q108 0 108 -71v-716h307q43 0 43 33v683q0 71 109 71h55q60 0 84 -19t24 -52v-747q0 -74 -47 -112.5t-149 -38.5h-1135q-102 0 -149 38.5z" />
    <glyph glyph-name="uni0449" unicode="&#x449;" horiz-adv-x="1860" 
d="M1817 100l-15 -361q-2 -73 -102 -73h-16q-64 0 -88.5 19.5t-24.5 53.5v261h-1273q-102 0 -149 38.5t-47 112.5v747q0 32 23.5 51.5t83.5 19.5h56q108 0 108 -71v-683q0 -33 44 -33h307v716q0 71 108 71h55q109 0 109 -71v-716h350v716q0 33 24 52t84 19h56
q60 0 83.5 -19.5t23.5 -51.5v-716h139q65 0 61 -82z" />
    <glyph glyph-name="uni045F" unicode="&#x45f;" horiz-adv-x="1148" 
d="M1022.5 950q23.5 -19 23.5 -52v-747q0 -74 -47 -112.5t-149 -38.5h-154l-10 -261q-2 -73 -99 -73h-17q-98 0 -100 73l-10 261h-162q-102 0 -149 38.5t-47 112.5v747q0 32 23.5 51.5t83.5 19.5h56q108 0 108 -71v-683q0 -33 44 -33h315q43 0 43 33v683q0 71 108 71h56
q60 0 83.5 -19z" />
    <glyph glyph-name="uni044F" unicode="&#x44f;" horiz-adv-x="1139" 
d="M990.5 931.5q46.5 -38.5 46.5 -112.5v-748q0 -33 -23.5 -52t-83.5 -19h-53q-60 0 -84 19t-24 52v311h-187q-51 -2 -79 -25t-50 -71l-100 -219q-24 -67 -133 -67h-73q-83 0 -83 40q0 14 7 27l122 240q30 60 83 96q-97 27 -146 91.5t-49 172.5q0 157 95 230t287 73h378
q103 0 149.5 -38.5zM769 763q0 33 -44 33h-199q-92 0 -126.5 -30t-34.5 -96q0 -119 154 -119h250v212z" />
    <glyph glyph-name="uni044C" unicode="&#x44c;" horiz-adv-x="1130" 
d="M957.5 519.5q92.5 -66.5 92.5 -216.5q0 -157 -93.5 -230t-279.5 -73h-379q-102 0 -149 38.5t-47 112.5v747q0 32 23.5 51.5t83.5 19.5h56q108 0 108 -71v-312h307q185 0 277.5 -66.5zM740.5 204q34.5 30 34.5 96q0 118 -153 118h-249v-211q0 -33 44 -33h198
q91 0 125.5 30z" />
    <glyph glyph-name="uni044A" unicode="&#x44a;" horiz-adv-x="1346" 
d="M1173.5 523.5q92.5 -67.5 92.5 -220.5q0 -157 -94 -230t-283 -73h-381q-102 0 -149 38.5t-47 112.5v636h-190q-57 0 -57 72v33q0 77 57 77h353q109 0 109 -71v-307h308q189 0 281.5 -67.5zM956.5 204q34.5 30 34.5 96q0 118 -153 118h-254v-211q0 -17 10 -25t33 -8h203
q92 0 126.5 30z" />
    <glyph glyph-name="uni044B" unicode="&#x44b;" horiz-adv-x="1605" 
d="M102 0zM957.5 519.5q92.5 -66.5 92.5 -216.5q0 -157 -93.5 -230t-279.5 -73h-379q-102 0 -149 38.5t-47 112.5v747q0 32 23.5 51.5t83.5 19.5h56q108 0 108 -71v-312h307q185 0 277.5 -66.5zM740.5 204q34.5 30 34.5 96q0 118 -153 118h-249v-211q0 -33 44 -33h198
q91 0 125.5 30zM1255.5 19.5q-23.5 19.5 -23.5 51.5v827q0 32 23.5 51.5t83.5 19.5h56q108 0 108 -71v-827q0 -71 -108 -71h-56q-60 0 -83.5 19.5z" />
    <glyph glyph-name="uni0459" unicode="&#x459;" horiz-adv-x="1924" 
d="M1751.5 521q92.5 -67 92.5 -218q0 -157 -94 -230t-283 -73h-376q-102 0 -149 38.5t-47 112.5v599q0 33 -44 33h-213q-23 0 -32.5 -8t-11.5 -25l-32 -398q-13 -167 -102 -259.5t-245 -92.5h-97q-27 0 -42.5 17.5t-15.5 60.5v27q0 77 58 77h15q66 0 106.5 43t47.5 136
l33 457q6 75 51 113t145 38h454q102 0 148.5 -38.5t46.5 -112.5v-230h306q188 0 280.5 -67zM1535.5 204q34.5 30 34.5 96q0 118 -154 118h-251v-211q0 -17 10 -25t33 -8h201q92 0 126.5 30z" />
    <glyph glyph-name="uni045A" unicode="&#x45a;" horiz-adv-x="1796" 
d="M1623 521q93 -67 93 -218q0 -157 -94 -230t-283 -73h-369q-103 0 -150 38.5t-47 112.5v261h-400v-341q0 -71 -108 -71h-56q-60 0 -83.5 19.5t-23.5 51.5v827q0 32 23.5 51.5t83.5 19.5h56q108 0 108 -71v-299h400v299q0 32 23.5 51.5t83.5 19.5h56q60 0 84 -19t24 -52
v-310h298q188 0 281 -67zM1406.5 204q34.5 30 34.5 96q0 118 -153 118h-244v-211q0 -33 44 -33h193q91 0 125.5 30z" />
    <glyph glyph-name="uni0455" unicode="&#x455;" horiz-adv-x="983" 
d="M73 0zM180 37l-70 26q-20 8 -28.5 18.5t-8.5 26.5q0 14 4 27l15 58q7 25 17 36.5t27 11.5q10 0 27 -5l51 -19q59 -22 129 -36t131 -14q79 0 117 25.5t38 76.5q0 31 -16.5 50t-44 30.5t-74.5 24.5l-134 40q-120 30 -190 91.5t-70 181.5q0 90 44.5 158t133 106t216.5 38
q79 0 152.5 -12.5t133.5 -33.5l64 -23q35 -11 35 -46q0 -11 -3 -26l-15 -59q-6 -26 -16 -36.5t-26 -10.5q-12 0 -25 4l-46 16q-116 36 -218 36q-82 0 -117.5 -26t-35.5 -75q0 -35 16.5 -55.5t43.5 -32t75 -23.5l130 -37q125 -31 195 -90.5t70 -180.5q0 -141 -102 -220
t-296 -79q-167 0 -329 58z" />
    <glyph glyph-name="uni0454" unicode="&#x454;" horiz-adv-x="976" 
d="M902 136q4 -24 4 -31q0 -21 -9 -34t-30 -20l-57 -23q-128 -48 -274 -48q-218 0 -339 113.5t-121 371.5v39q0 258 121 371.5t339 113.5q146 0 274 -48l57 -23q20 -7 29.5 -19.5t9.5 -32.5q0 -16 -4 -33l-13 -43q-7 -31 -17 -44.5t-27 -13.5q-10 0 -21 4l-47 16
q-87 29 -177 29q-110 0 -174 -49t-75 -162h365q57 0 57 -70v-30q0 -69 -57 -69h-365q11 -114 74.5 -163.5t174.5 -49.5q93 0 177 28l47 16q14 4 20 4q17 0 27 -14t18 -44z" />
    <glyph glyph-name="uni044D" unicode="&#x44d;" horiz-adv-x="976" 
d="M779.5 875.5q121.5 -113.5 121.5 -371.5v-39q0 -258 -121.5 -371.5t-339.5 -113.5q-147 0 -273 48l-58 23q-21 7 -30 20t-9 34q0 7 4 31l14 42q7 30 17 44t27 14q6 0 20 -4l47 -16q84 -28 177 -28q111 0 174.5 49.5t74.5 163.5h-365q-57 0 -57 69v30q0 70 57 70h365
q-11 113 -75 162t-174 49q-90 0 -177 -29l-47 -16q-11 -4 -21 -4q-17 0 -26.5 13.5t-16.5 44.5l-14 43q-4 17 -4 33q0 20 9.5 32.5t29.5 19.5l58 23q126 48 273 48q218 0 339.5 -113.5z" />
    <glyph glyph-name="uni0456" unicode="&#x456;" horiz-adv-x="475" 
d="M91 0zM132 1165.5q-41 39.5 -41 106.5q0 64 41 103t106 39q64 0 105 -39t41 -103q0 -67 -40.5 -106.5t-105.5 -39.5t-106 39.5zM125.5 19.5q-23.5 19.5 -23.5 51.5v827q0 32 23.5 51.5t83.5 19.5h56q108 0 108 -71v-827q0 -71 -108 -71h-56q-60 0 -83.5 19.5z" />
    <glyph glyph-name="uni0457" unicode="&#x457;" horiz-adv-x="475" 
d="M0 0zM125.5 19.5q-23.5 19.5 -23.5 51.5v827q0 32 23.5 51.5t83.5 19.5h56q108 0 108 -71v-827q0 -71 -108 -71h-56q-60 0 -83.5 19.5zM-16.5 1155.5q-37.5 36.5 -37.5 98.5q0 59 37.5 95t98.5 36q60 0 97 -35.5t37 -95.5q0 -62 -37 -98.5t-97 -36.5q-61 0 -98.5 36.5z
M328 1155.5q-37 36.5 -37 98.5q0 60 37.5 95.5t97.5 35.5t97 -35.5t37 -95.5q0 -62 -37 -98.5t-97 -36.5q-61 0 -98 36.5z" />
    <glyph glyph-name="uni0458" unicode="&#x458;" horiz-adv-x="487" 
d="M0 0zM133.5 1165.5q-40.5 39.5 -40.5 106.5q0 64 40.5 103t105.5 39t105.5 -39t40.5 -103q0 -67 -40.5 -106.5t-105.5 -39.5t-105.5 39.5zM-68 -356q-43 33 -43 89v20q0 53 69 53q72 0 108 39t36 122v931q0 32 23.5 51.5t83.5 19.5h56q108 0 108 -71v-939
q0 -113 -40 -191t-111.5 -117.5t-164.5 -39.5q-82 0 -125 33z" />
    <glyph glyph-name="uni045B" unicode="&#x45b;" horiz-adv-x="1097" 
d="M26 0zM939.5 893.5q97.5 -95.5 97.5 -286.5v-536q0 -71 -105 -71h-61q-106 0 -106 71v528q0 98 -39.5 142.5t-132.5 44.5q-98 0 -141.5 -45t-43.5 -142v-528q0 -71 -108 -71h-56q-60 0 -83.5 19.5t-23.5 51.5v1008h-42q-33 0 -51 17.5t-18 51.5v17q0 33 18 51t51 18h42
v88q0 32 23.5 51.5t83.5 19.5h56q108 0 108 -71v-88h377q33 0 51 -18t18 -51v-17q0 -34 -18 -51.5t-51 -17.5h-377v-140q94 50 232 50q202 0 299.5 -95.5z" />
    <glyph glyph-name="uni044E" unicode="&#x44e;" horiz-adv-x="1620" 
d="M1425 875.5q120 -113.5 120 -368.5v-45q0 -255 -120 -368.5t-362 -113.5q-225 0 -343.5 102t-131.5 322h-203v-333q0 -71 -109 -71h-67q-60 0 -83.5 19.5t-23.5 51.5v827q0 32 23.5 51.5t83.5 19.5h67q109 0 109 -71v-312h204q18 209 136.5 306t337.5 97
q242 0 362 -113.5zM1278 506q0 113 -22 176.5t-67.5 90t-122.5 26.5t-123 -27t-67.5 -90.5t-21.5 -176.5v-41q0 -113 21.5 -177t67.5 -91t123 -27t122.5 26.5t67.5 90.5t22 177v43z" />
    <glyph glyph-name="uni0452" unicode="&#x452;" horiz-adv-x="1132" 
d="M938.5 893.5q97.5 -95.5 97.5 -286.5v-648q0 -169 -84.5 -258.5t-229.5 -89.5q-79 0 -123.5 33t-44.5 89v20q0 53 70 53q71 0 106 38.5t35 122.5v632q0 99 -39.5 143t-133.5 44q-99 0 -141.5 -44.5t-42.5 -142.5v-528q0 -33 -24 -52t-84 -19h-56q-60 0 -83.5 19.5
t-23.5 51.5v1008h-51q-27 0 -43.5 18t-16.5 51v17q0 32 16.5 50.5t43.5 18.5h51v88q0 32 23.5 51.5t83.5 19.5h56q60 0 84 -19t24 -52v-88h377q33 0 51 -18t18 -51v-17q0 -34 -18 -51.5t-51 -17.5h-377v-140q94 50 231 50q202 0 299.5 -95.5z" />
    <glyph glyph-name="uni0463" unicode="&#x463;" horiz-adv-x="1172" 
d="M999.5 521q92.5 -67 92.5 -218q0 -157 -94 -230t-283 -73h-381q-102 0 -149 38.5t-47 112.5v737h-52q-32 0 -50.5 18t-18.5 51v41q0 33 18 51t51 18h52v255q0 32 23.5 51.5t83.5 19.5h56q60 0 84 -19t24 -52v-255h362q34 0 52 -18t18 -51v-41q0 -33 -18.5 -51t-51.5 -18
h-362v-300h309q189 0 281.5 -67zM783 204q35 30 35 96q0 118 -154 118h-255v-211q0 -33 44 -33h204q91 0 126 30z" />
    <glyph glyph-name="uni0473" unicode="&#x473;" horiz-adv-x="1123" 
d="M925 875q123 -114 123 -368v-45q0 -254 -123 -368t-365 -114q-241 0 -362.5 116.5t-121.5 366.5v43q0 250 121.5 366.5t362.5 116.5q242 0 365 -114zM445.5 776.5q-44.5 -23.5 -67.5 -78.5t-27 -151q17 17 45.5 31.5t68.5 14.5q37 0 63.5 -8.5t61.5 -25.5
q28 -14 48.5 -21t45.5 -7q51 0 87 34q-5 89 -29 140.5t-67.5 73t-112.5 21.5q-72 0 -116.5 -23.5zM673 190q43 21 67.5 70.5t30.5 135.5q-38 -32 -93 -32q-38 0 -64.5 8t-61.5 25q-28 14 -48.5 20.5t-45.5 6.5q-34 0 -60.5 -14.5t-43.5 -32.5q7 -78 31.5 -123.5t67.5 -65
t109 -19.5q68 0 111 21z" />
    <glyph glyph-name="uni0475" unicode="&#x475;" horiz-adv-x="1186" 
d="M380.5 42q-51.5 42 -78.5 134l-229 716q-3 12 -3 22q0 55 97 55h63q115 0 131 -77l168 -646q2 -8 6 -11t11 -3q6 0 9 3t5 11l148 581q17 71 67 106.5t145 35.5h152q58 0 58 -81v-26q0 -42 -15.5 -58.5t-42.5 -16.5h-83q-21 0 -31 -9.5t-14 -25.5l-171 -574
q-24 -94 -75.5 -136t-147.5 -42h-30q-88 0 -139.5 42z" />
    <glyph glyph-name="uni0493" unicode="&#x493;" horiz-adv-x="944" 
d="M874 892v-29q0 -76 -57 -76h-307q-44 0 -44 -33v-211h237q57 0 57 -76v-30q0 -76 -57 -76h-237v-290q0 -71 -108 -71h-56q-60 0 -83.5 19.5t-23.5 51.5v290h-101q-58 0 -58 77v29q0 76 58 76h101v275q0 74 47 112.5t149 38.5h426q57 0 57 -77z" />
    <glyph glyph-name="uni0497" unicode="&#x497;" horiz-adv-x="1807" 
d="M638 527q13 -19 13 -41t-13 -42l-261 -372q-18 -32 -56 -52t-99 -20h-91q-76 0 -76 35q0 15 15 37l332 417l-332 408q-15 22 -15 37q0 35 76 35h89q113 0 155 -72zM945 950q24 -19 24 -52v-827q0 -33 -24 -52t-84 -19h-55q-109 0 -109 71v827q0 71 109 71h55q60 0 84 -19
zM1763 97l-15 -354q-1 -34 -23.5 -53.5t-77.5 -19.5h-17q-63 0 -88 19.5t-25 53.5v247h-58l-1 10h-14q-113 0 -155 72l-261 372q-13 20 -13 42t13 41l264 370q18 32 56 52t99 20h88q76 0 76 -35q0 -15 -15 -37l-332 -408l247 -310h192q65 0 60 -82z" />
    <glyph glyph-name="uni049B" unicode="&#x49b;" horiz-adv-x="1204" 
d="M348 950q24 -19 24 -52v-827q0 -33 -24 -52t-84 -19h-55q-60 0 -83.5 19.5t-23.5 51.5v827q0 32 23.5 51.5t83.5 19.5h55q60 0 84 -19zM1160 97l-15 -354q0 -34 -22.5 -53.5t-78.5 -19.5h-16q-64 0 -88.5 19.5t-24.5 53.5v247h-58l-1 10h-8q-61 0 -99 20t-56 52l-261 372
q-13 20 -13 42t13 41l263 370q18 32 56 52t99 20h89q76 0 76 -35q0 -15 -15 -37l-332 -408l247 -310h185q65 0 60 -82z" />
    <glyph glyph-name="uni04A3" unicode="&#x4a3;" horiz-adv-x="1309" 
d="M1265 97l-15 -354q-1 -34 -23.5 -53.5t-77.5 -19.5h-17q-63 0 -88 19.5t-25 53.5v247h-91v10h-46q-60 0 -83.5 19.5t-23.5 51.5v333h-402v-333q0 -71 -108 -71h-56q-60 0 -83.5 19.5t-23.5 51.5v827q0 32 23.5 51.5t83.5 19.5h56q108 0 108 -71v-312h402v312
q0 32 23.5 51.5t83.5 19.5h56q60 0 84 -19t24 -52v-719h159q65 0 60 -82z" />
    <glyph glyph-name="uni04AF" unicode="&#x4af;" horiz-adv-x="1083" 
d="M421.5 -349.5q-23.5 19.5 -23.5 51.5v298l-323 892q-4 11 -4 23q0 54 99 54h62q63 0 93 -21t38 -56l169 -587q4 -14 16 -14q6 0 9.5 3t5.5 11l182 587q9 36 39 56.5t91 20.5h41q98 0 98 -53q0 -9 -5 -24l-325 -892v-298q0 -71 -109 -71h-70q-60 0 -83.5 19.5z" />
    <glyph glyph-name="uni04B1" unicode="&#x4b1;" horiz-adv-x="1083" 
d="M684 0v-39h168q57 0 57 -77v-30q0 -75 -57 -75h-168v-77q0 -71 -109 -71h-70q-60 0 -83.5 19.5t-23.5 51.5v77h-155q-58 0 -58 76v29q0 77 58 77h155v39l-323 892q-4 11 -4 23q0 54 99 54h62q63 0 93 -21t38 -56l169 -587q4 -14 16 -14q6 0 9.5 3t5.5 11l182 587
q9 36 39 56.5t91 20.5h41q98 0 98 -53q0 -9 -5 -24z" />
    <glyph glyph-name="uni04B3" unicode="&#x4b3;" horiz-adv-x="1201" 
d="M1158 97l-15 -354q-1 -34 -23.5 -53.5t-78.5 -19.5h-16q-64 0 -88.5 19.5t-24.5 53.5v247h-58l-1 10h-43q-59 0 -86 18.5t-40 52.5l-161 293l-163 -293q-13 -35 -39.5 -53t-86.5 -18h-69q-48 0 -72 13.5t-24 34.5q0 12 7 25l251 412l-248 411q-7 13 -7 25q0 21 24 34.5
t72 13.5h90q59 0 86.5 -18.5t40.5 -52.5l156 -293l156 293q13 34 40 52.5t87 18.5h69q48 0 72 -13.5t24 -34.5q0 -12 -7 -25l-247 -406l190 -311h172q65 0 61 -82z" />
    <glyph glyph-name="uni04B7" unicode="&#x4b7;" horiz-adv-x="1242" 
d="M1199 97l-15 -354q-1 -34 -23.5 -53.5t-78.5 -19.5h-16q-63 0 -88 19.5t-25 53.5v247h-91v4h-32q-108 0 -108 71v238q-94 -51 -232 -51q-202 0 -300 95.5t-98 286.5v264q0 71 104 71h63q106 0 106 -71v-256q0 -99 39 -143t134 -44q97 0 140.5 45t43.5 142v256
q0 71 108 71h56q60 0 83.5 -19t23.5 -52v-719h145q66 0 61 -82z" />
    <glyph glyph-name="uni04BB" unicode="&#x4bb;" horiz-adv-x="1097" 
d="M102 0zM904.5 893.5q97.5 -95.5 97.5 -286.5v-536q0 -71 -105 -71h-61q-106 0 -106 71v528q0 98 -39.5 142.5t-132.5 44.5q-98 0 -141.5 -45t-43.5 -142v-528q0 -71 -108 -71h-56q-60 0 -83.5 19.5t-23.5 51.5v1251q0 32 23.5 51.5t83.5 19.5h56q108 0 108 -71v-383
q94 50 232 50q202 0 299.5 -95.5z" />
    <glyph glyph-name="uni04CF" unicode="&#x4cf;" horiz-adv-x="475" 
d="M102 0zM125.5 19.5q-23.5 19.5 -23.5 51.5v827q0 32 23.5 51.5t83.5 19.5h56q108 0 108 -71v-827q0 -71 -108 -71h-56q-60 0 -83.5 19.5z" />
    <glyph glyph-name="uni04D9" unicode="&#x4d9;" horiz-adv-x="1048" 
d="M839 870q134 -119 134 -367v-38q0 -158 -59 -266.5t-166 -163.5t-252 -55q-133 0 -227.5 38t-143.5 108t-49 166q0 103 45 164t136.5 89.5t238.5 32.5l210 6q-24 102 -99.5 149.5t-185.5 47.5q-47 0 -100.5 -9t-94.5 -24l-45 -16q-12 -4 -24 -4q-15 0 -24.5 11t-16.5 38
l-18 64q-4 15 -4 28q0 18 8.5 29t25.5 18l64 25q118 48 284 48q229 0 363 -119zM657.5 232q56.5 66 58.5 210l-164 -5q-86 -2 -135 -11t-77 -36.5t-28 -82.5q0 -66 41.5 -103.5t134.5 -37.5q113 0 169.5 66z" />
    <glyph glyph-name="uni04E3" unicode="&#x4e3;" horiz-adv-x="1253" 
d="M102 0zM161 53.5q-59 53.5 -59 155.5v682q0 36 23.5 57t81.5 21h35q60 0 83 -21t23 -57v-631q0 -15 14 -15q15 0 20 15l240 517q38 102 97.5 147t155.5 45h49q105 0 166 -54t61 -155v-682q0 -36 -23.5 -57t-81.5 -21h-35q-60 0 -83 21t-23 57v631q0 15 -14 15
q-15 0 -20 -15l-241 -517q-39 -103 -97.5 -147.5t-154.5 -44.5h-54q-104 0 -163 53.5zM298 1252v29q0 77 57 77h540q57 0 57 -77v-29q0 -42 -15.5 -59t-41.5 -17h-540q-57 0 -57 76z" />
    <glyph glyph-name="uni04E9" unicode="&#x4e9;" horiz-adv-x="1123" 
d="M925 875q123 -114 123 -368v-45q0 -254 -123 -368t-365 -114q-241 0 -362.5 116.5t-121.5 366.5v43q0 250 121.5 366.5t362.5 116.5q242 0 365 -114zM448 778q-44 -22 -68 -74.5t-29 -142.5h421q-5 91 -29 143t-68 74t-113 22q-70 0 -114 -22zM675 191q44 22 68 74
t29 143h-421q5 -90 29 -142.5t68 -74.5t114 -22q69 0 113 22z" />
    <glyph glyph-name="uni04EF" unicode="&#x4ef;" horiz-adv-x="1052" 
d="M63 0zM999 920q0 -11 -4 -22l-335 -897q-68 -184 -177 -277t-274 -93h-88q-58 0 -58 77v31q0 76 58 76h40q164 0 239 192l13 34l-343 857q-4 11 -4 22q0 49 94 49h76q59 0 88 -19t38 -52l195 -585l181 585q19 71 126 71h42q93 0 93 -49zM229 1252v29q0 77 57 77h540
q57 0 57 -77v-29q0 -42 -15.5 -59t-41.5 -17h-540q-57 0 -57 76z" />
    <glyph glyph-name="Alpha" unicode="&#x391;" horiz-adv-x="1415" 
d="M67 0zM1348 61q0 -61 -108 -61h-71q-69 0 -102 23.5t-42 62.5l-85 288h-482l-87 -288q-21 -86 -145 -86h-52q-107 0 -107 61q0 7 4 25l376 1124q22 73 52.5 117t77.5 65t117 21h33q95 0 152.5 -47.5t89.5 -152.5l375 -1127q4 -12 4 -25zM882 572l-164 555q-4 16 -17 16
t-17 -16l-167 -555h365z" />
    <glyph glyph-name="Beta" unicode="&#x392;" horiz-adv-x="1285" 
d="M112 0zM1130.5 612q67.5 -80 67.5 -223q0 -187 -111 -288t-325 -101h-444q-107 0 -156.5 40.5t-49.5 118.5v1074q0 78 49.5 119t156.5 41h428q204 0 306 -86.5t102 -266.5q0 -122 -57 -202.5t-162 -115.5q128 -30 195.5 -110zM404 1151v-355h242q121 0 174 51t53 150
q0 69 -21 110t-68.5 60t-130.5 19h-204q-45 0 -45 -35zM846 255q53 53 53 160q0 104 -57.5 156t-186.5 52h-251v-386q0 -35 45 -35h222q122 0 175 53z" />
    <glyph glyph-name="Gamma" unicode="&#x393;" horiz-adv-x="1094" 
d="M112 80v1153q0 78 49.5 119t156.5 41h649q67 0 67 -92v-30q0 -51 -18 -71t-49 -20h-507q-45 0 -45 -35v-1065q0 -80 -124 -80h-56q-123 0 -123 80z" />
    <glyph glyph-name="uni0394" unicode="&#x394;" horiz-adv-x="1405" 
d="M89.5 17.5q-24.5 17.5 -24.5 53.5q0 26 10 59l368 1074q31 106 86.5 152.5t159.5 46.5h33q96 0 153.5 -47t88.5 -149l362 -1078q11 -38 11 -61q0 -36 -24 -52t-78 -16h-1066q-55 0 -79.5 17.5zM992 195l-278 926q-5 16 -18 16q-12 0 -17 -16l-284 -926h597z" />
    <glyph glyph-name="Epsilon" unicode="&#x395;" horiz-adv-x="1149" 
d="M112 0zM417 1140v-332h482q63 0 63 -86v-32q0 -85 -63 -85h-482v-353q0 -35 45 -35h534q67 0 67 -92v-34q0 -51 -18 -71t-49 -20h-678q-107 0 -156.5 40.5t-49.5 118.5v1074q0 78 49.5 119t156.5 41h678q67 0 67 -92v-35q0 -90 -67 -90h-534q-45 0 -45 -36z" />
    <glyph glyph-name="Zeta" unicode="&#x396;" horiz-adv-x="1227" 
d="M74 0zM112 36.5q-38 36.5 -38 105.5q0 47 14 83t49 83l636 839q7 8 7 18q0 15 -21 15h-608q-64 0 -64 90v34q0 89 64 89h823q75 0 115.5 -36.5t40.5 -108.5q0 -47 -13 -82t-49 -82l-629 -839q-7 -8 -7 -18q0 -7 5 -11t15 -4h638q63 0 63 -90v-34q0 -49 -17 -68.5
t-46 -19.5h-874q-66 0 -104 36.5z" />
    <glyph glyph-name="Eta" unicode="&#x397;" horiz-adv-x="1360" 
d="M112 0zM1221 1371q27 -22 27 -58v-1233q0 -36 -27 -58t-96 -22h-59q-123 0 -123 80v532h-526v-532q0 -80 -123 -80h-59q-123 0 -123 80v1233q0 80 123 80h59q123 0 123 -80v-494h526v494q0 80 123 80h59q69 0 96 -22z" />
    <glyph glyph-name="Theta" unicode="&#x398;" horiz-adv-x="1489" 
d="M92 0zM1231 1240q166 -173 166 -523v-41q0 -354 -164 -525t-489 -171t-488.5 170.5t-163.5 525.5v41q0 350 166 523t486 173q321 0 487 -173zM567 1154.5q-69 -39.5 -105.5 -124t-44.5 -222.5h655q-9 139 -45 223t-105 123.5t-178 39.5q-108 0 -177 -39.5zM924.5 240
q69.5 40 105 128t42.5 233h-656q7 -145 42.5 -233t105 -128t180.5 -40t180.5 40z" />
    <glyph glyph-name="Iota" unicode="&#x399;" horiz-adv-x="529" 
d="M112 0zM112 80v1233q0 80 123 80h60q122 0 122 -80v-1233q0 -80 -122 -80h-60q-123 0 -123 80z" />
    <glyph glyph-name="Kappa" unicode="&#x39a;" horiz-adv-x="1314" 
d="M112 0zM417 1313v-1233q0 -80 -123 -80h-59q-123 0 -123 80v1233q0 80 123 80h59q123 0 123 -80zM1232 39q0 -39 -85 -39h-102q-70 0 -114 22.5t-63 59.5l-379 565q-13 22 -13 45q0 25 13 47l381 571q18 37 61.5 60t113.5 23h100q85 0 85 -40q0 -19 -16 -43l-447 -613
l449 -615q16 -26 16 -43z" />
    <glyph glyph-name="Lambda" unicode="&#x39b;" horiz-adv-x="1412" 
d="M66 61q0 7 4 25l376 1108q32 106 87.5 152.5t159.5 46.5h33q96 0 153.5 -47t88.5 -149l375 -1111q4 -16 4 -24q0 -62 -108 -62h-71q-69 0 -102 23.5t-42 62.5l-307 1025q-4 16 -17 16t-17 -16l-313 -1025q-21 -86 -145 -86h-52q-107 0 -107 61z" />
    <glyph glyph-name="Mu" unicode="&#x39c;" horiz-adv-x="1719" 
d="M80 0zM1528 0h-39q-63 0 -86.5 20.5t-25.5 57.5l-62 1058q0 15 -14 15q-7 0 -13 -3.5t-7 -11.5l-219 -973q-14 -83 -64 -123t-131 -40h-21q-165 0 -195 163l-226 973q-2 15 -21 15q-13 0 -13 -15l-62 -1058q-2 -36 -25 -57t-82 -21h-36q-110 0 -106 78l65 1111
q6 105 66.5 159t164.5 54h27q104 0 168 -46t82 -151l207 -999l208 1002q16 98 81.5 146t168.5 48h30q103 0 161.5 -53.5t64.5 -159.5l65 -1111q4 -78 -111 -78z" />
    <glyph glyph-name="Nu" unicode="&#x39d;" horiz-adv-x="1407" 
d="M112 0zM135.5 21q-23.5 21 -23.5 57v1106q0 101 63.5 155t168.5 54h59q97 0 158 -46t92 -147l364 -940q5 -15 21 -15q13 0 13 15v1055q0 78 107 78h32q105 0 105 -78v-1106q0 -101 -61 -155t-166 -54h-63q-97 0 -157.5 45.5t-91.5 146.5l-366 940q-5 16 -20 16
q-14 0 -14 -16v-1054q0 -36 -23.5 -57t-83.5 -21h-31q-59 0 -82.5 21z" />
    <glyph glyph-name="Xi" unicode="&#x39e;" horiz-adv-x="1149" 
d="M86 1266v35q0 92 67 92h843q67 0 67 -92v-35q0 -90 -67 -90h-843q-67 0 -67 90zM187 693v38q0 86 63 86h649q63 0 63 -86v-38q0 -84 -63 -84h-649q-63 0 -63 84zM104 20q-18 20 -18 71v34q0 92 67 92h843q67 0 67 -92v-34q0 -51 -18 -71t-49 -20h-843q-31 0 -49 20z" />
    <glyph glyph-name="Omicron" unicode="&#x39f;" horiz-adv-x="1489" 
d="M92 0zM255.5 150.5q-163.5 170.5 -163.5 525.5v41q0 350 166 523t486 173q321 0 487 -173t166 -523v-41q0 -354 -164 -525t-489 -171t-488.5 170.5zM936 247.5q72 47.5 105 151t33 277.5v41q0 173 -33 277t-105 152t-192 48t-192 -48t-105 -152t-33 -277v-41
q0 -174 33 -277.5t105 -151t192 -47.5t192 47.5z" />
    <glyph glyph-name="Pi" unicode="&#x3a0;" horiz-adv-x="1357" 
d="M139 22q-27 22 -27 58v1153q0 78 49.5 119t156.5 41h721q107 0 156.5 -41t49.5 -119v-1153q0 -36 -27 -58t-96 -22h-59q-123 0 -123 80v1066q0 35 -46 35h-432q-45 0 -45 -35v-1066q0 -80 -123 -80h-59q-69 0 -96 22z" />
    <glyph glyph-name="Rho" unicode="&#x3a1;" horiz-adv-x="1262" 
d="M112 0zM1076 1293.5q110 -99.5 110 -308.5q0 -207 -114.5 -319t-338.5 -112h-316v-474q0 -80 -123 -80h-59q-123 0 -123 80v1153q0 78 50 119t157 41h410q237 0 347 -99.5zM845 813q54 52 54 163q0 74 -23 117.5t-73.5 63.5t-137.5 20h-204q-44 0 -44 -35v-381h252
q122 0 176 52z" />
    <glyph glyph-name="Sigma" unicode="&#x3a3;" horiz-adv-x="1098" 
d="M967 1179h-574l406 -440q20 -23 20 -48q0 -26 -20 -47l-406 -430h574q67 0 67 -89v-34q0 -51 -18 -71t-49 -20h-824q-36 0 -54.5 21.5t-18.5 69.5v63q0 29 6 49.5t23 40.5l411 446l-412 458q-18 20 -23 40t-5 51v63q0 91 73 91h824q67 0 67 -92v-35q0 -87 -67 -87z" />
    <glyph glyph-name="Tau" unicode="&#x3a4;" horiz-adv-x="1272" 
d="M58 0zM510.5 22q-26.5 22 -26.5 58v1096h-359q-67 0 -67 90v35q0 92 67 92h1022q67 0 67 -92v-35q0 -90 -67 -90h-359v-1096q0 -36 -27 -58t-96 -22h-59q-69 0 -95.5 22z" />
    <glyph glyph-name="Upsilon" unicode="&#x3a5;" horiz-adv-x="1358" 
d="M1299 1301v-35q0 -90 -67 -90h-11q-108 0 -196.5 -78t-141 -236t-52.5 -388v-394q0 -36 -26.5 -58t-94.5 -22h-62q-68 0 -95 22t-27 58v394q0 230 -52.5 388.5t-141 236t-196.5 77.5h-11q-67 0 -67 90v35q0 92 67 92h44q131 0 239 -57t181 -161t99 -243q24 136 94 240.5
t175 162.5t231 58h44q67 0 67 -92z" />
    <glyph glyph-name="Phi" unicode="&#x3a6;" horiz-adv-x="1832" 
d="M92 0zM1570 300.5q-170 -132.5 -504 -141.5v-79q0 -36 -27 -58t-96 -22h-59q-123 0 -123 80v79q-331 10 -500 142.5t-169 396.5q0 261 164.5 394.5t504.5 143.5v77q0 80 123 80h59q69 0 96 -22t27 -58v-77q342 -9 508 -142.5t166 -395.5q0 -265 -170 -397.5zM1277 424
q80 33 117.5 98t37.5 168q0 107 -36.5 175t-116.5 104t-213 41v-625q131 6 211 39zM436 523q37 -65 116.5 -98.5t208.5 -39.5v625q-131 -6 -210.5 -42t-115.5 -104t-36 -174q0 -102 37 -167z" />
    <glyph glyph-name="Chi" unicode="&#x3a7;" horiz-adv-x="1345" 
d="M84 0zM1261 54q0 -24 -27 -39t-81 -15h-101q-66 0 -95.5 20.5t-45.5 58.5l-258 492l-250 -492q-14 -38 -44.5 -58.5t-97.5 -20.5h-69q-54 0 -80.5 14.5t-26.5 39.5q0 13 7 27l352 617l-352 613q-8 16 -8 28q0 25 26.5 39.5t80.5 14.5h109q66 0 95.5 -20.5t44.5 -58.5
l251 -486l249 486q15 38 44.5 58.5t97.5 20.5h69q54 0 80.5 -15t26.5 -40q0 -14 -7 -27l-355 -611l358 -619q7 -13 7 -27z" />
    <glyph glyph-name="Psi" unicode="&#x3a8;" horiz-adv-x="1684" 
d="M1626 1301v-35q0 -90 -67 -90h-11q-44 0 -69 -18t-40 -57t-28 -111l-39 -212q-29 -172 -120.5 -256t-257.5 -90v-358q0 -80 -124 -80h-58q-69 0 -95.5 22t-26.5 58v357q-167 7 -258 91t-120 256l-37 212q-13 72 -28.5 111t-41 57t-69.5 18h-11q-67 0 -67 90v35
q0 92 67 92h24q113 0 186.5 -35t114.5 -108t56 -190l30 -224q11 -67 27 -106t46 -59t81 -24v666q0 36 26.5 58t95.5 22h58q124 0 124 -80v-666q51 5 81 25t46.5 59t26.5 105l30 224q15 117 56.5 190t114.5 108t186 35h24q67 0 67 -92z" />
    <glyph glyph-name="uni03A9" unicode="&#x3a9;" horiz-adv-x="1483" 
d="M92 88v33q0 89 66 89h162q-58 58 -105 120.5t-85 164t-38 231.5v30q0 657 651 657q328 0 488.5 -167t160.5 -487v-32q0 -131 -38 -232.5t-85 -164t-105 -120.5h162q66 0 66 -89v-33q0 -88 -66 -88h-404q-29 0 -45.5 13.5t-16.5 35.5t17 48q82 105 137 247.5t56 356.5v33
q0 164 -32 265.5t-104 150.5t-192 49t-192 -47.5t-104.5 -149.5t-32.5 -270v-32q1 -214 55.5 -355t137.5 -248q17 -26 17 -48t-16.5 -35.5t-45.5 -13.5h-403q-66 0 -66 88z" />
    <glyph glyph-name="Alphatonos" unicode="&#x386;" horiz-adv-x="1427" 
d="M1359 61q0 -61 -108 -61h-71q-69 0 -102 23.5t-42 62.5l-85 288h-482l-87 -288q-21 -86 -145 -86h-52q-107 0 -107 61q0 7 4 25l376 1124q22 73 52.5 117t77.5 65t117 21h33q95 0 152.5 -47.5t89.5 -152.5l375 -1127q4 -12 4 -25zM83 1043.5q-16 16.5 -16 47.5q0 7 2 21
l36 222q4 33 27 51.5t59 18.5h46q34 0 52.5 -16.5t18.5 -45.5q0 -15 -4 -28l-47 -195q-24 -92 -92 -92h-36q-30 0 -46 16.5zM893 572l-164 555q-4 16 -17 16t-17 -16l-167 -555h365z" />
    <glyph glyph-name="Epsilontonos" unicode="&#x388;" horiz-adv-x="1372" 
d="M255.5 1387.5q18.5 -16.5 18.5 -45.5q0 -15 -4 -28l-48 -195q-11 -44 -34 -68t-58 -24h-35q-30 0 -46 17t-16 49q0 12 1 19l37 222q4 33 26.5 51.5t58.5 18.5h46q35 0 53.5 -16.5zM640 1140v-332h482q63 0 63 -86v-32q0 -85 -63 -85h-482v-353q0 -35 45 -35h534
q67 0 67 -92v-34q0 -51 -18 -71t-49 -20h-678q-107 0 -156.5 40.5t-49.5 118.5v1074q0 78 49.5 119t156.5 41h678q67 0 67 -92v-35q0 -90 -67 -90h-534q-45 0 -45 -36z" />
    <glyph glyph-name="Etatonos" unicode="&#x389;" horiz-adv-x="1594" 
d="M255.5 1387.5q18.5 -16.5 18.5 -45.5q0 -15 -4 -28l-48 -195q-11 -44 -34 -68t-58 -24h-35q-30 0 -46 17t-16 49q0 12 1 19l37 222q4 33 26.5 51.5t58.5 18.5h46q35 0 53.5 -16.5zM1455 1371q27 -22 27 -58v-1233q0 -36 -27 -58t-96 -22h-59q-123 0 -123 80v532h-526
v-532q0 -80 -123 -80h-59q-123 0 -123 80v1233q0 80 123 80h59q123 0 123 -80v-494h526v494q0 80 123 80h59q69 0 96 -22z" />
    <glyph glyph-name="Iotatonos" unicode="&#x38a;" horiz-adv-x="777" 
d="M49 1044q-16 17 -16 49q0 12 1 19l37 222q4 33 26.5 51.5t58.5 18.5h46q35 0 53.5 -16.5t18.5 -45.5q0 -15 -4 -28l-48 -195q-11 -44 -34 -68t-58 -24h-35q-30 0 -46 17zM355 80v1233q0 80 123 80h60q122 0 122 -80v-1233q0 -80 -122 -80h-60q-123 0 -123 80z" />
    <glyph glyph-name="Omicrontonos" unicode="&#x38c;" horiz-adv-x="1629" 
d="M395.5 150.5q-163.5 170.5 -163.5 525.5v41q0 350 166 523t486 173q321 0 487 -173t166 -523v-41q0 -354 -164 -525t-489 -171t-488.5 170.5zM49 1044q-16 17 -16 49q0 12 1 19l37 222q4 33 26.5 51.5t58.5 18.5h46q35 0 53.5 -16.5t18.5 -45.5q0 -15 -4 -28l-48 -195
q-11 -44 -34 -68t-58 -24h-35q-30 0 -46 17zM1076 247.5q72 47.5 105 151t33 277.5v41q0 173 -33 277t-105 152t-192 48t-192 -48t-105 -152t-33 -277v-41q0 -174 33 -277.5t105 -151t192 -47.5t192 47.5z" />
    <glyph glyph-name="Upsilontonos" unicode="&#x38e;" horiz-adv-x="1635" 
d="M255.5 1387.5q18.5 -16.5 18.5 -45.5q0 -15 -4 -28l-48 -195q-11 -44 -34 -68t-58 -24h-35q-30 0 -46 17t-16 49q0 12 1 19l37 222q4 33 26.5 51.5t58.5 18.5h46q35 0 53.5 -16.5zM1577 1301v-35q0 -90 -67 -90h-11q-108 0 -196.5 -78t-141 -236t-52.5 -388v-394
q0 -36 -26.5 -58t-94.5 -22h-62q-68 0 -95 22t-27 58v394q0 230 -52.5 388.5t-141 236t-196.5 77.5h-11q-67 0 -67 90v35q0 92 67 92h44q131 0 239 -57t181 -161t99 -243q24 136 94 240.5t175 162.5t231 58h44q67 0 67 -92z" />
    <glyph glyph-name="Omegatonos" unicode="&#x38f;" horiz-adv-x="1630" 
d="M239 88v33q0 89 66 89h162q-58 58 -105 120.5t-85 164t-38 231.5v30q0 657 651 657q328 0 488.5 -167t160.5 -487v-32q0 -131 -38 -232.5t-85 -164t-105 -120.5h162q66 0 66 -89v-33q0 -88 -66 -88h-404q-29 0 -45.5 13.5t-16.5 35.5t17 48q82 105 137 247.5t56 356.5v33
q0 164 -32 265.5t-104 150.5t-192 49t-192 -47.5t-104.5 -149.5t-32.5 -270v-32q1 -214 55.5 -355t137.5 -248q17 -26 17 -48t-16.5 -35.5t-45.5 -13.5h-403q-66 0 -66 88zM49 1044q-16 17 -16 49q0 12 1 19l37 222q4 33 26.5 51.5t58.5 18.5h46q35 0 53.5 -16.5t18.5 -45.5
q0 -15 -4 -28l-48 -195q-11 -44 -34 -68t-58 -24h-35q-30 0 -46 17z" />
    <glyph glyph-name="Iotadieresis" unicode="&#x3aa;" horiz-adv-x="529" 
d="M0 0zM112 80v1233q0 80 123 80h60q122 0 122 -80v-1233q0 -80 -122 -80h-60q-123 0 -123 80zM0.5 1533.5q-37.5 36.5 -37.5 98.5q0 59 37.5 95t98.5 36q60 0 97 -35.5t37 -95.5q0 -62 -37 -98.5t-97 -36.5q-61 0 -98.5 36.5zM345 1533.5q-37 36.5 -37 98.5
q0 60 37.5 95.5t97.5 35.5t97 -35.5t37 -95.5q0 -62 -37 -98.5t-97 -36.5q-61 0 -98 36.5z" />
    <glyph glyph-name="Upsilondieresis" unicode="&#x3ab;" horiz-adv-x="1358" 
d="M58 0zM1299 1301v-35q0 -90 -67 -90h-11q-108 0 -196.5 -78t-141 -236t-52.5 -388v-394q0 -36 -26.5 -58t-94.5 -22h-62q-68 0 -95 22t-27 58v394q0 230 -52.5 388.5t-141 236t-196.5 77.5h-11q-67 0 -67 90v35q0 92 67 92h44q131 0 239 -57t181 -161t99 -243
q24 136 94 240.5t175 162.5t231 58h44q67 0 67 -92zM416.5 1533.5q-37.5 36.5 -37.5 98.5q0 59 37.5 95t98.5 36q60 0 97 -35.5t37 -95.5q0 -62 -37 -98.5t-97 -36.5q-61 0 -98.5 36.5zM761 1533.5q-37 36.5 -37 98.5q0 60 37.5 95.5t97.5 35.5t97 -35.5t37 -95.5
q0 -62 -37 -98.5t-97 -36.5q-61 0 -98 36.5z" />
    <glyph glyph-name="alpha" unicode="&#x3b1;" horiz-adv-x="1257" 
d="M1193 71q4 -11 4 -22q0 -49 -88 -49h-43q-58 0 -83.5 16t-35.5 48l-36 113q-63 -96 -154 -146.5t-231 -50.5q-219 0 -334.5 121t-115.5 368v37q0 249 117.5 366t343.5 117q135 0 224 -49.5t151 -142.5l34 107q11 33 36 49t83 16h44q88 0 88 -49q0 -11 -4 -22l-146 -411z
M812 487l-11 36q-32 98 -56 150.5t-67.5 86t-115.5 33.5q-75 0 -121 -26t-68.5 -89t-22.5 -173v-35q0 -111 22.5 -175t68.5 -91.5t121 -27.5q72 0 115.5 34.5t67.5 87.5t56 154z" />
    <glyph glyph-name="beta" unicode="&#x3b2;" horiz-adv-x="1097" 
d="M782.5 615q23.5 -22 74.5 -53q55 -33 89.5 -61.5t60 -77.5t25.5 -121q0 -101 -53 -173.5t-142.5 -110.5t-198.5 -38q-164 0 -267 75v-353q0 -71 -103 -71h-64q-57 0 -79.5 19.5t-22.5 51.5v1208q0 145 70.5 259t200 179t299.5 65q117 0 197.5 -36.5t121.5 -103.5t41 -157
q0 -69 -24.5 -123t-58.5 -92t-87 -85t-78 -78.5t-25 -68.5q0 -32 23.5 -54zM719.5 201.5q48.5 33.5 48.5 103.5q0 42 -17.5 72t-43 50t-67.5 45q-44 27 -70.5 47.5t-44.5 52.5t-18 77q0 43 17 79.5t42.5 65t68.5 67.5q43 40 69.5 69t44.5 67.5t18 85.5q0 60 -34 94t-98 34
q-73 0 -133.5 -36.5t-95.5 -104.5t-35 -158v-535q0 -103 52 -156t165 -53q83 0 131.5 33.5z" />
    <glyph glyph-name="gamma" unicode="&#x3b3;" horiz-adv-x="1139" 
d="M1078 898q-88 -115 -198 -296.5t-189 -361.5q43 -165 43 -305q0 -134 -36 -229t-112 -95h-24q-76 0 -112.5 95t-36.5 229q0 137 43 299q-80 180 -193 363t-203 301q-12 17 -12 31q0 18 20.5 29t61.5 11h104q58 0 88 -18.5t52 -52.5q47 -63 100.5 -153.5t101.5 -193.5
q49 102 103 192t102 155q21 34 51.5 52.5t88.5 18.5h88q41 0 61 -11t20 -29q0 -14 -12 -31z" />
    <glyph glyph-name="delta" unicode="&#x3b4;" horiz-adv-x="1140" 
d="M465 1060.5q25 -24.5 63.5 -41t109.5 -41.5q130 -45 215 -91.5t148.5 -142.5t63.5 -252v-42q0 -244 -124 -357t-367 -113q-247 0 -372.5 116.5t-125.5 366.5v43q0 146 67.5 241t162.5 150q-64 38 -98.5 92t-34.5 134q0 139 101 214.5t298 75.5q174 0 319 -52l71 -26
q19 -7 28 -19t9 -29q0 -14 -4 -27l-15 -56q-7 -26 -18 -37.5t-27 -11.5q-9 0 -26 5l-52 20q-58 21 -123 33.5t-129 12.5q-90 0 -127.5 -25t-37.5 -81q0 -35 25 -59.5zM795 492q0 90 -39 150t-98.5 95.5t-150.5 70.5q-66 -49 -109 -123.5t-43 -179.5v-41q0 -114 22 -177.5
t70 -90.5t129 -27q80 0 127.5 26.5t69.5 87.5t22 168v41z" />
    <glyph glyph-name="epsilon" unicode="&#x3b5;" horiz-adv-x="1019" 
d="M943 106q0 -17 -9 -29t-28 -19l-71 -26q-148 -53 -328 -53q-207 0 -314 77.5t-107 217.5q0 90 48.5 146t147.5 79q-85 29 -127.5 86t-42.5 135q0 130 100.5 199.5t298.5 69.5q174 0 319 -52l71 -26q19 -7 28 -19t9 -29q0 -14 -4 -27l-15 -56q-7 -25 -18 -36.5t-27 -11.5
q-10 0 -27 5l-51 19q-58 21 -125 33.5t-130 12.5q-89 0 -128 -26.5t-39 -80.5q0 -113 140 -113h198q52 0 52 -70v-31q0 -70 -52 -70h-218q-70 0 -103 -29.5t-33 -87.5q0 -62 41 -93t137 -31q65 0 136 12.5t128 33.5l51 19q17 5 27 5q16 0 27 -11.5t18 -36.5l16 -59
q4 -13 4 -27z" />
    <glyph glyph-name="zeta" unicode="&#x3b6;" horiz-adv-x="949" 
d="M851 157.5q78 -65.5 78 -202.5q0 -99 -40.5 -170.5t-111.5 -109t-162 -37.5t-165 18q-22 6 -31.5 18.5t-9.5 37.5v67q0 26 9 38.5t25 12.5q7 0 11 -1q72 -14 125 -14q61 0 94.5 27t33.5 74t-28.5 65.5t-93.5 18.5h-45q-464 0 -464 475v38q0 148 54 295t148 272
q-46 3 -80 10t-77 18q-23 6 -32 18.5t-9 37.5v114q0 26 9 39t24 13q4 0 12 -2q7 -2 42 -10.5t81.5 -14.5t95.5 -6q90 0 176 11q77 51 157.5 78t157.5 27q37 0 58.5 -22.5t21.5 -62.5v-50q0 -38 -14.5 -65t-54.5 -44q-35 -17 -92.5 -34t-128.5 -31q-79 -63 -141.5 -154.5
t-99 -204t-36.5 -233.5v-37q0 -135 64 -193.5t182 -58.5h37q142 0 220 -65.5z" />
    <glyph glyph-name="eta" unicode="&#x3b7;" horiz-adv-x="1092" 
d="M800.5 -350q-28.5 19 -39.5 52q-17 46 -25.5 97.5t-8.5 117.5v697q0 98 -42 142t-139 44t-139 -44t-42 -142v-543q0 -71 -105 -71h-60q-104 0 -104 71v536q0 189 113.5 285.5t336.5 96.5t336.5 -96.5t113.5 -285.5v-689q0 -64 8.5 -114.5t25.5 -101.5q4 -16 4 -22
q0 -49 -89 -49h-59q-57 0 -85.5 19z" />
    <glyph glyph-name="theta" unicode="&#x3b8;" horiz-adv-x="1192" 
d="M896.5 1333.5q109.5 -79.5 156.5 -229.5t47 -377v-72q0 -228 -51 -376.5t-161.5 -224t-290.5 -75.5q-184 0 -295 76t-160.5 224.5t-49.5 375.5v72q0 344 120 515t389 171q186 0 295.5 -79.5zM462 1160.5q-49 -42.5 -71 -134t-25 -248.5h460q-3 158 -23.5 249t-69 133.5
t-135.5 42.5t-136 -42.5zM730 233.5q49 42.5 71 133t25 242.5h-460q3 -154 24.5 -243.5t70.5 -132t135 -42.5q85 0 134 42.5z" />
    <glyph glyph-name="iota" unicode="&#x3b9;" horiz-adv-x="635" 
d="M191.5 67q-83.5 89 -83.5 260v571q0 33 24 52t84 19h55q60 0 84 -19t24 -52v-564q0 -83 35.5 -121.5t107.5 -38.5q70 0 70 -57v-25q0 -114 -168 -114q-149 0 -232.5 89z" />
    <glyph glyph-name="kappa" unicode="&#x3ba;" horiz-adv-x="1070" 
d="M373 898v-827q0 -71 -108 -71h-56q-60 0 -83.5 19.5t-23.5 51.5v827q0 32 23.5 51.5t83.5 19.5h56q108 0 108 -71zM882.5 765q-32.5 -22 -69.5 -76l-132 -204l319 -413q15 -22 15 -37q0 -35 -76 -35h-91q-61 0 -99 20t-56 52l-261 372q-13 23 -13 42q0 20 13 41l178 271
q52 87 120 129t184 42h59q55 0 55 -77v-29q0 -76 -54 -76h-11q-48 0 -80.5 -22z" />
    <glyph glyph-name="lambda" unicode="&#x3bb;" horiz-adv-x="1054" 
d="M999 49q0 -49 -93 -49h-57q-60 0 -89 19.5t-38 51.5l-187 621l-193 -621q-9 -32 -38 -51.5t-89 -19.5h-55q-94 0 -94 49q0 11 4 22l342 893l-13 36q-41 107 -98 158t-140 51h-40q-58 0 -58 76v31q0 77 58 77h88q166 0 273 -94t178 -292l335 -936q4 -11 4 -22z" />
    <glyph glyph-name="uni03BC" unicode="&#x3bc;" horiz-adv-x="1142" 
d="M1046 909v-447q0 -249 -110.5 -365.5t-323.5 -116.5q-155 0 -249 69v-359q0 -70 -105 -70h-58q-104 0 -104 70v1219q0 70 104 70h58q105 0 105 -70v-445q0 -113 20.5 -176.5t65.5 -90.5t122 -27q76 0 120.5 26.5t65 90t20.5 176.5v446q0 70 105 70h60q104 0 104 -70z" />
    <glyph glyph-name="nu" unicode="&#x3bd;" horiz-adv-x="1080" 
d="M382.5 42q-52.5 42 -77.5 134l-137 466q-43 146 -96 250q-8 16 -8 28q0 22 24 35.5t73 13.5h64q62 0 91.5 -19t44.5 -55q40 -91 71 -232l102 -413q2 -8 5.5 -10.5t10.5 -2.5t10.5 2.5t5.5 10.5l126 365q30 85 40 147.5t10 129.5q0 77 116 77h42q64 0 86 -20t22 -57
q0 -69 -16.5 -140t-62.5 -188l-151 -386q-24 -65 -51 -103t-66.5 -56.5t-98.5 -18.5h-38q-89 0 -141.5 42z" />
    <glyph glyph-name="xi" unicode="&#x3be;" horiz-adv-x="949" 
d="M849.5 155.5q79.5 -64.5 79.5 -200.5q0 -99 -40.5 -171t-111.5 -110t-162 -38q-87 0 -165 19q-22 6 -31.5 18.5t-9.5 37.5v70q0 51 35 51q7 0 10 -1q77 -15 125 -15q62 0 95 26.5t33 73.5q0 46 -28.5 65t-93.5 19h-35q-220 0 -348 97t-128 287q0 131 63.5 210.5
t176.5 110.5q-97 35 -152 111.5t-55 174.5q0 106 61 196q-45 14 -72 25q-22 9 -32 24t-10 39v96q0 45 29 45q8 0 17 -3q75 -27 135.5 -43.5t124.5 -25.5q69 34 146.5 51.5t154.5 17.5q90 0 140.5 -12t70.5 -34.5t20 -58.5v-29q0 -71 -69 -97q-51 -19 -138 -32t-192 -13
q-22 0 -60 2q-63 -61 -63 -161q0 -85 59.5 -135t170.5 -50h107q26 0 41 -18t15 -62v-31q0 -45 -14.5 -62.5t-41.5 -17.5h-124q-118 0 -178 -48t-60 -142q0 -97 63.5 -144.5t184.5 -47.5h39q138 0 217.5 -64.5z" />
    <glyph glyph-name="omicron" unicode="&#x3bf;" horiz-adv-x="1123" 
d="M76 0zM197.5 96.5q-121.5 116.5 -121.5 366.5v43q0 250 121.5 366.5t362.5 116.5q242 0 365 -114t123 -368v-45q0 -254 -123 -368t-365 -114q-241 0 -362.5 116.5zM683.5 195.5q45.5 26.5 67.5 90.5t22 177v43q0 113 -22 177t-67.5 90.5t-121.5 26.5q-77 0 -122.5 -27
t-67.5 -91t-22 -177v-41q0 -113 22 -177t67.5 -91t122.5 -27q76 0 121.5 26.5z" />
    <glyph glyph-name="rho" unicode="&#x3c1;" horiz-adv-x="1121" 
d="M833 940.5q105 -48.5 158.5 -155t53.5 -278.5v-45q0 -249 -110 -365.5t-323 -116.5q-152 0 -245 67v-345q0 -71 -107 -71h-60q-104 0 -104 71v804q0 251 117 367t355 116q160 0 265 -48.5zM778 506q0 113 -21 176.5t-65.5 90.5t-120.5 27t-120 -27t-64 -91t-20 -177v-41
q0 -113 20.5 -177t64.5 -91t119 -27q76 0 120.5 27t65.5 90.5t21 176.5v43z" />
    <glyph glyph-name="uni03C2" unicode="&#x3c2;" horiz-adv-x="974" 
d="M450 -344q-22 6 -31.5 18.5t-9.5 37.5v67q0 26 9 38.5t25 12.5q7 0 11 -1q72 -14 125 -14q61 0 94.5 27t33.5 74t-28.5 65.5t-93.5 18.5h-45q-464 0 -464 475v39q0 252 121 363.5t339 111.5q146 0 274 -48l57 -21q21 -8 29.5 -20.5t8.5 -33.5q0 -13 -3 -30l-16 -61
q-6 -29 -16.5 -43.5t-27.5 -14.5q-6 0 -20 4l-47 16q-92 29 -175 29q-122 0 -186 -59.5t-64 -192.5v-39q0 -136 63 -194t181 -58h47q136 0 212 -65.5t76 -202.5q0 -99 -40.5 -170.5t-111.5 -109t-162 -37.5t-165 18z" />
    <glyph glyph-name="sigma" unicode="&#x3c3;" horiz-adv-x="1171" 
d="M1134 913v-25q0 -42 -15.5 -59t-41.5 -17h-101q72 -113 72 -305v-45q0 -254 -123 -368t-365 -114q-241 0 -362.5 116.5t-121.5 366.5v43q0 250 121.5 366.5t362.5 116.5h19h498q57 0 57 -76zM773 506q0 113 -22 177t-67.5 90.5t-121.5 26.5q-77 0 -122.5 -27t-67.5 -91
t-22 -177v-41q0 -113 22 -177t67.5 -91t122.5 -27q76 0 121.5 26.5t67.5 90.5t22 177v43z" />
    <glyph glyph-name="tau" unicode="&#x3c4;" horiz-adv-x="956" 
d="M920 892v-29q0 -76 -57 -76h-253v-500q0 -65 8.5 -116.5t25.5 -99.5q3 -10 3 -21q0 -50 -88 -50h-64q-57 0 -85.5 19t-39.5 52q-17 46 -25 97t-8 118v501h-81q-51 0 -91 -7.5t-78 -23.5q-5 -2 -15 -2q-36 0 -36 63v32q0 41 13.5 62t37.5 31q70 27 170 27h606q57 0 57 -77
z" />
    <glyph glyph-name="upsilon" unicode="&#x3c5;" horiz-adv-x="1074" 
d="M208 76.5q-112 96.5 -112 285.5v536q0 71 104 71h61q106 0 106 -71v-528q0 -98 40 -142.5t131 -44.5q99 0 143.5 65t44.5 207q0 115 -15.5 221t-46.5 222q-2 6 -2 18q0 53 93 53h63q58 0 83.5 -19t35.5 -52q31 -110 46.5 -215.5t15.5 -228.5q0 -233 -117 -353.5
t-344 -120.5q-218 0 -330 96.5z" />
    <glyph glyph-name="phi" unicode="&#x3c6;" horiz-adv-x="1507" 
d="M1316.5 875q114.5 -114 114.5 -361v-43q0 -230 -136 -347.5t-407 -138.5v-283q0 -71 -106 -71h-61q-105 0 -105 71v283q-269 22 -404.5 138.5t-135.5 339.5v42q0 145 57 249.5t163 159.5t249 55q25 0 38 -17t13 -60v-29q0 -42 -12 -59t-33 -17q-92 0 -146.5 -70.5
t-54.5 -212.5v-40q0 -139 64 -207t202 -86v361q0 146 47 248.5t133.5 155.5t205.5 53q200 0 314.5 -114zM1157 513q0 109 -19 170t-50.5 83.5t-76.5 22.5q-41 0 -67.5 -23t-41 -79.5t-14.5 -155.5v-361q141 18 205 88t64 214v41z" />
    <glyph glyph-name="chi" unicode="&#x3c7;" horiz-adv-x="1065" 
d="M996 -318q0 -51 -96 -51h-89q-62 0 -89 18.5t-37 60.5l-161 454l-165 -454q-11 -42 -37.5 -60.5t-88.5 -18.5h-68q-96 0 -96 50q0 15 7 32l255 586l-252 590q-7 19 -7 31q0 49 96 49h89q62 0 89 -18.5t37 -59.5l158 -469l157 469q11 42 38 60t89 18h68q96 0 96 -49
q0 -12 -7 -31l-250 -582l257 -594q7 -21 7 -31z" />
    <glyph glyph-name="psi" unicode="&#x3c8;" horiz-adv-x="1505" 
d="M1295 129.5q-135 -122.5 -405 -144.5v-283q0 -71 -107 -71h-60q-105 0 -105 71v283q-261 22 -392 138.5t-131 339.5v219q0 64 -8.5 115t-25.5 101q-4 16 -4 22q0 49 89 49h63q57 0 85.5 -19t39.5 -52q17 -46 25 -97t8 -118v-219q0 -138 60 -206t191 -87v1151q0 71 105 71
h62q105 0 105 -71v-1150q138 22 201.5 99t63.5 222q0 174 -61 405q-3 9 -3 18q0 53 91 53h64q58 0 84 -18.5t37 -52.5q63 -211 63 -406q0 -240 -135 -362.5z" />
    <glyph glyph-name="omega" unicode="&#x3c9;" horiz-adv-x="1521" 
d="M1430.5 682.5q15.5 -105.5 15.5 -228.5q0 -233 -114 -353.5t-332 -120.5q-144 0 -240 91q-94 -91 -239 -91q-218 0 -331.5 120.5t-113.5 353.5q0 124 15.5 230t45.5 214q10 33 36.5 52t84.5 19h63q48 0 70 -14.5t22 -38.5q0 -9 -3 -18q-31 -117 -46.5 -218.5
t-15.5 -211.5q0 -147 46 -215.5t146 -68.5q73 0 122 36q-44 112 -44 262q0 164 31 271.5t99 107.5h25q68 0 97 -105t29 -274q0 -149 -42 -260q50 -38 124 -38q100 0 146 68.5t46 215.5q0 110 -15.5 211.5t-46.5 218.5q-3 9 -3 18q0 24 22 38.5t70 14.5h63q58 0 84.5 -19
t36.5 -52q31 -110 46.5 -215.5z" />
    <glyph glyph-name="iotatonos" unicode="&#x3af;" horiz-adv-x="635" 
d="M108 0zM191.5 67q-83.5 89 -83.5 260v571q0 33 24 52t84 19h55q60 0 84 -19t24 -52v-564q0 -83 35.5 -121.5t107.5 -38.5q70 0 70 -57v-25q0 -114 -168 -114q-149 0 -232.5 89zM176 1119q-16 15 -16 43q0 12 3 27l48 195q8 34 30 52t58 18h83q34 0 53 -15.5t19 -42.5
q0 -14 -6 -32l-58 -168q-16 -45 -38.5 -68.5t-56.5 -23.5h-74q-29 0 -45 15z" />
    <glyph glyph-name="iotadieresis" unicode="&#x3ca;" horiz-adv-x="635" 
d="M0 0zM191.5 67q-83.5 89 -83.5 260v571q0 33 24 52t84 19h55q60 0 84 -19t24 -52v-564q0 -83 35.5 -121.5t107.5 -38.5q70 0 70 -57v-25q0 -114 -168 -114q-149 0 -232.5 89zM-17.5 1155.5q-37.5 36.5 -37.5 98.5q0 59 37.5 95t98.5 36q60 0 97 -35.5t37 -95.5
q0 -62 -37 -98.5t-97 -36.5q-61 0 -98.5 36.5zM327 1155.5q-37 36.5 -37 98.5q0 60 37.5 95.5t97.5 35.5t97 -35.5t37 -95.5q0 -62 -37 -98.5t-97 -36.5q-61 0 -98 36.5z" />
    </font>
</defs>
</svg>
