<?xml version="1.0" standalone="no"?>
<!DOCTYPE svg PUBLIC "-//W3C//DTD SVG 1.1//EN" "http://www.w3.org/Graphics/SVG/1.1/DTD/svg11.dtd" >
<svg xmlns="http://www.w3.org/2000/svg" width="100%" height="100%">
<metadata>
Created by Ingo Preuss | PreussType
Copyright (c) 2016 by Hubert Jocham.
</metadata>
<defs>
<font id="Innogy-Medium" horiz-adv-x="1229" >
  <font-face 
    font-family="Innogy"
    font-weight="500"
    font-stretch="normal"
    units-per-em="2048"
    panose-1="2 11 6 3 4 0 0 2 0 3"
    ascent="1638"
    descent="-410"
    x-height="959"
    bbox="-867 -614 2120 1878"
    underline-thickness="102"
    underline-position="-103"
    unicode-range="U+0020-FB02"
  />
<missing-glyph horiz-adv-x="1002" 
d="M822 -369h-636v2004h636v-2004zM337 1501v-66h130v-75h-132v-66h332v66h-132v75h132v66h-330zM335 1242v-208h332v68h-132v140h-200zM467 1102h-66v72h66v-72zM335 980v-66h132v-75h-132v-66h200v141h132v66h-332zM601 859v-132h-266v-68h332v200h-66zM467 615v-112h68
v46h66v-94h-200v160h-66v-226h332v226h-200zM335 268v-226h332v226h-332zM601 108h-200v94h200v-94zM335 -4v-66h140l-140 -95v-66h332v66h-204l140 95h64v66h-332z" />
    <glyph glyph-name="fi" unicode="fi" horiz-adv-x="1197" 
d="M38 0zM730 1377.5q14 -15.5 14 -50.5v-45q0 -65 -50 -65h-40q-119 0 -176.5 -55t-57.5 -178v-25h242q22 0 36 -15.5t14 -50.5v-27q0 -35 -14 -50t-36 -15h-242v-741q0 -60 -90 -60h-45q-89 0 -89 60v741h-107q-23 0 -37 15.5t-14 50.5v26q0 66 51 66h107v27
q0 126 48.5 217.5t142.5 140.5t229 49h78q22 0 36 -15.5zM881 1178q-35 34 -35 91q0 55 35 88.5t91 33.5q55 0 90 -33.5t35 -88.5q0 -57 -35 -91t-90 -34q-56 0 -91 34zM859 60v839q0 60 89 60h46q89 0 89 -60v-839q0 -60 -89 -60h-46q-89 0 -89 60z" />
    <glyph glyph-name="fl" unicode="fl" horiz-adv-x="1197" 
d="M38 0zM730 1377.5q14 -15.5 14 -50.5v-45q0 -65 -50 -65h-40q-119 0 -176.5 -55t-57.5 -178v-25h242q22 0 36 -15.5t14 -50.5v-27q0 -35 -14 -50t-36 -15h-242v-741q0 -60 -90 -60h-45q-89 0 -89 60v741h-107q-23 0 -37 15.5t-14 50.5v26q0 66 51 66h107v27
q0 126 48.5 217.5t142.5 140.5t229 49h78q22 0 36 -15.5zM859 60v1273q0 60 89 60h46q89 0 89 -60v-1273q0 -60 -89 -60h-46q-89 0 -89 60z" />
    <glyph glyph-name=".notdef" horiz-adv-x="1002" 
d="M822 -369h-636v2004h636v-2004zM337 1501v-66h130v-75h-132v-66h332v66h-132v75h132v66h-330zM335 1242v-208h332v68h-132v140h-200zM467 1102h-66v72h66v-72zM335 980v-66h132v-75h-132v-66h200v141h132v66h-332zM601 859v-132h-266v-68h332v200h-66zM467 615v-112h68
v46h66v-94h-200v160h-66v-226h332v226h-200zM335 268v-226h332v226h-332zM601 108h-200v94h200v-94zM335 -4v-66h140l-140 -95v-66h332v66h-204l140 95h64v66h-332z" />
    <glyph glyph-name="space" unicode=" " horiz-adv-x="487" 
 />
    <glyph glyph-name="A" unicode="A" horiz-adv-x="1405" 
d="M1333 50q0 -23 -21 -36.5t-66 -13.5h-62q-100 0 -119 71l-103 328h-531l-106 -328q-8 -32 -37 -51.5t-84 -19.5h-46q-85 0 -85 50q0 11 3 21l411 1175q29 90 74 128.5t132 38.5h28q79 0 126 -39.5t75 -126.5l407 -1176q4 -14 4 -21zM908 571l-191 606q-5 16 -18 16
t-17 -16l-196 -606h422z" />
    <glyph glyph-name="Aacute" unicode="&#xc1;" horiz-adv-x="1405" 
d="M73 0zM1333 50q0 -23 -21 -36.5t-66 -13.5h-62q-100 0 -119 71l-103 328h-531l-106 -328q-8 -32 -37 -51.5t-84 -19.5h-46q-85 0 -85 50q0 11 3 21l411 1175q29 90 74 128.5t132 38.5h28q79 0 126 -39.5t75 -126.5l407 -1176q4 -14 4 -21zM908 571l-191 606q-5 16 -18 16
t-17 -16l-196 -606h422zM601.5 1508.5q-13.5 10.5 -13.5 27.5q0 23 25 49l128 138q20 23 40.5 33.5t48.5 10.5h73q29 0 46 -12.5t17 -31.5q0 -23 -24 -46l-119 -109q-42 -38 -72 -54t-65 -16h-49q-22 0 -35.5 10.5z" />
    <glyph glyph-name="Abreve" unicode="&#x102;" horiz-adv-x="1405" 
d="M73 0zM1333 50q0 -23 -21 -36.5t-66 -13.5h-62q-100 0 -119 71l-103 328h-531l-106 -328q-8 -32 -37 -51.5t-84 -19.5h-46q-85 0 -85 50q0 11 3 21l411 1175q29 90 74 128.5t132 38.5h28q79 0 126 -39.5t75 -126.5l407 -1176q4 -14 4 -21zM908 571l-191 606q-5 16 -18 16
t-17 -16l-196 -606h422zM527.5 1514.5q-72.5 34.5 -108.5 93.5t-36 134q0 40 14.5 62.5t37.5 22.5q21 0 33 -14t28 -47q19 -39 39 -66t61.5 -46.5t108.5 -19.5t108.5 19.5t61.5 46.5t39 66q16 33 28 47t33 14q23 0 37.5 -22.5t14.5 -62.5q0 -75 -36 -134t-108.5 -93.5
t-177.5 -34.5t-177.5 34.5z" />
    <glyph glyph-name="Acircumflex" unicode="&#xc2;" horiz-adv-x="1405" 
d="M73 0zM1333 50q0 -23 -21 -36.5t-66 -13.5h-62q-100 0 -119 71l-103 328h-531l-106 -328q-8 -32 -37 -51.5t-84 -19.5h-46q-85 0 -85 50q0 11 3 21l411 1175q29 90 74 128.5t132 38.5h28q79 0 126 -39.5t75 -126.5l407 -1176q4 -14 4 -21zM908 571l-191 606q-5 16 -18 16
t-17 -16l-196 -606h422zM1011 1538q0 -18 -15 -28.5t-43 -10.5h-26q-35 0 -57 7.5t-42 24t-54 53.5l-70 75l-71 -75q-35 -38 -54 -54t-40.5 -23.5t-56.5 -7.5h-23q-29 0 -45 11.5t-16 30.5q0 24 23 48l133 136q20 22 40.5 32t47.5 10h123q27 0 48 -10t40 -32l132 -136
q26 -28 26 -51z" />
    <glyph glyph-name="Adieresis" unicode="&#xc4;" horiz-adv-x="1405" 
d="M73 0zM1333 50q0 -23 -21 -36.5t-66 -13.5h-62q-100 0 -119 71l-103 328h-531l-106 -328q-8 -32 -37 -51.5t-84 -19.5h-46q-85 0 -85 50q0 11 3 21l411 1175q29 90 74 128.5t132 38.5h28q79 0 126 -39.5t75 -126.5l407 -1176q4 -14 4 -21zM908 571l-191 606q-5 16 -18 16
t-17 -16l-196 -606h422zM457 1545q-33 32 -33 85t33 84.5t86 31.5q52 0 85 -31.5t33 -84.5t-33 -85t-85 -32q-53 0 -86 32zM783 1545q-33 32 -33 85t33 84.5t86 31.5q52 0 84.5 -31.5t32.5 -84.5t-32.5 -85t-84.5 -32q-53 0 -86 32z" />
    <glyph glyph-name="Agrave" unicode="&#xc0;" horiz-adv-x="1405" 
d="M73 0zM1333 50q0 -23 -21 -36.5t-66 -13.5h-62q-100 0 -119 71l-103 328h-531l-106 -328q-8 -32 -37 -51.5t-84 -19.5h-46q-85 0 -85 50q0 11 3 21l411 1175q29 90 74 128.5t132 38.5h28q79 0 126 -39.5t75 -126.5l407 -1176q4 -14 4 -21zM908 571l-191 606q-5 16 -18 16
t-17 -16l-196 -606h422zM723 1498q-35 0 -66 16t-73 54l-119 109q-24 23 -24 46q0 19 17 31.5t46 12.5h73q28 0 48.5 -10.5t40.5 -33.5l128 -138q26 -27 26 -50q0 -17 -13 -27t-35 -10h-49z" />
    <glyph glyph-name="Amacron" unicode="&#x100;" horiz-adv-x="1405" 
d="M73 0zM1333 50q0 -23 -21 -36.5t-66 -13.5h-62q-100 0 -119 71l-103 328h-531l-106 -328q-8 -32 -37 -51.5t-84 -19.5h-46q-85 0 -85 50q0 11 3 21l411 1175q29 90 74 128.5t132 38.5h28q79 0 126 -39.5t75 -126.5l407 -1176q4 -14 4 -21zM908 571l-191 606q-5 16 -18 16
t-17 -16l-196 -606h422zM392 1637v27q0 35 14 50.5t37 15.5h525q22 0 36 -15.5t14 -50.5v-27q0 -35 -14 -50t-36 -15h-525q-51 0 -51 65z" />
    <glyph glyph-name="Aogonek" unicode="&#x104;" horiz-adv-x="1405" 
d="M1398 -185q9 -11 9 -29q0 -33 -32.5 -63.5t-86.5 -48.5t-115 -18q-89 0 -140 38.5t-51 110.5q0 66 49.5 118t118.5 79q-71 12 -85 69l-103 328h-531l-106 -328q-8 -32 -37 -51.5t-84 -19.5h-46q-85 0 -85 50q0 11 3 21l411 1175q29 90 74 128.5t132 38.5h28
q79 0 126 -39.5t75 -126.5l407 -1176q4 -14 4 -21q0 -32 -37 -44q-66 -25 -110.5 -66.5t-44.5 -92.5q0 -32 18.5 -47.5t57.5 -15.5q30 0 53.5 7t49.5 19q34 16 51 16q18 0 27 -11zM908 571l-191 606q-5 16 -18 16t-17 -16l-196 -606h422z" />
    <glyph glyph-name="Aring" unicode="&#xc5;" horiz-adv-x="1405" 
d="M73 0zM1333 50q0 -23 -21 -36.5t-66 -13.5h-62q-100 0 -119 71l-103 328h-531l-106 -328q-8 -32 -37 -51.5t-84 -19.5h-46q-85 0 -85 50q0 11 3 21l411 1175q29 90 74 128.5t132 38.5h28q79 0 126 -39.5t75 -126.5l407 -1176q4 -14 4 -21zM908 571l-191 606q-5 16 -18 16
t-17 -16l-196 -606h422zM585 1488q-52 27 -80.5 74.5t-28.5 106.5q0 60 28.5 107.5t80.5 74.5t119 27q68 0 120 -27t80 -74.5t28 -107.5q0 -59 -28 -106.5t-80 -74.5t-120 -27q-67 0 -119 27zM782.5 1594.5q29.5 29.5 29.5 75.5q0 44 -30 74t-76 30t-75 -30t-29 -74
q0 -47 29 -76t75 -29q47 0 76.5 29.5z" />
    <glyph glyph-name="Atilde" unicode="&#xc3;" horiz-adv-x="1405" 
d="M73 0zM1333 50q0 -23 -21 -36.5t-66 -13.5h-62q-100 0 -119 71l-103 328h-531l-106 -328q-8 -32 -37 -51.5t-84 -19.5h-46q-85 0 -85 50q0 11 3 21l411 1175q29 90 74 128.5t132 38.5h28q79 0 126 -39.5t75 -126.5l407 -1176q4 -14 4 -21zM908 571l-191 606q-5 16 -18 16
t-17 -16l-196 -606h422zM367.5 1544q-17.5 23 -17.5 63q0 45 24 84.5t71 64t114 24.5q60 0 100 -16.5t89 -47.5q36 -23 59 -33.5t52 -10.5q38 0 54.5 16t28.5 45q10 24 20.5 35.5t33.5 11.5q27 0 44 -23t17 -63q0 -45 -23.5 -84.5t-70 -64t-113.5 -24.5q-55 0 -93 15.5
t-82 44.5q-37 24 -64 36t-62 12q-38 0 -54 -15t-29 -45q-10 -24 -21 -36t-34 -12q-26 0 -43.5 23z" />
    <glyph glyph-name="AE" unicode="&#xc6;" horiz-adv-x="1989" 
d="M1206 1208v-411h523q25 0 40.5 -17.5t15.5 -56.5v-28q0 -73 -56 -73h-523v-401q0 -36 46 -36h575q26 0 42.5 -18t16.5 -59v-31q0 -41 -16.5 -59t-42.5 -18h-662q-105 0 -153 40t-48 116v246h-496l-144 -341q-26 -71 -125 -71h-46q-43 0 -63 12.5t-20 33.5q0 10 5 25
l516 1167q34 88 82.5 126.5t135.5 38.5h1018q26 0 42.5 -18t16.5 -60v-31q0 -76 -59 -76h-621zM964 571v635h-144q-13 0 -21 -17l-260 -618h425z" />
    <glyph glyph-name="B" unicode="B" horiz-adv-x="1275" 
d="M1110.5 609q64.5 -81 64.5 -220q0 -187 -109.5 -288t-328.5 -101h-412q-105 0 -153 40t-48 116v1081q0 76 48 116t153 40h392q211 0 312.5 -87t101.5 -267q0 -119 -53.5 -199t-155.5 -117q124 -33 188.5 -114zM364 1180v-391h279q137 0 197 55t60 165q0 75 -23.5 120
t-76.5 66t-145 21h-245q-46 0 -46 -36zM869 231q59 57 59 174q0 115 -64 172.5t-209 57.5h-291v-425q0 -36 46 -36h263q137 0 196 57z" />
    <glyph glyph-name="C" unicode="C" horiz-adv-x="1297" 
d="M395 60q-143 80 -217.5 235.5t-74.5 380.5v41q0 225 74.5 380.5t217.5 235.5t347 80q165 0 336 -59l92 -34q20 -7 29.5 -17.5t9.5 -27.5q0 -11 -5 -31l-17 -56q-8 -27 -17 -39t-24 -12q-5 0 -21 4l-82 29q-65 22 -126 33t-128 11q-208 0 -316 -123.5t-108 -373.5v-41
q0 -250 108 -373.5t316 -123.5q67 0 128 11t126 33l82 29q16 4 21 4q15 0 24 -12t17 -40l17 -56q5 -20 5 -30q0 -17 -9.5 -28t-29.5 -18l-92 -34q-169 -58 -336 -58q-204 0 -347 80z" />
    <glyph glyph-name="Cacute" unicode="&#x106;" horiz-adv-x="1297" 
d="M103 0zM395 60q-143 80 -217.5 235.5t-74.5 380.5v41q0 225 74.5 380.5t217.5 235.5t347 80q165 0 336 -59l92 -34q20 -7 29.5 -17.5t9.5 -27.5q0 -11 -5 -31l-17 -56q-8 -27 -17 -39t-24 -12q-5 0 -21 4l-82 29q-65 22 -126 33t-128 11q-208 0 -316 -123.5t-108 -373.5
v-41q0 -250 108 -373.5t316 -123.5q67 0 128 11t126 33l82 29q16 4 21 4q15 0 24 -12t17 -40l17 -56q5 -20 5 -30q0 -17 -9.5 -28t-29.5 -18l-92 -34q-169 -58 -336 -58q-204 0 -347 80zM633.5 1508.5q-13.5 10.5 -13.5 27.5q0 23 25 49l128 138q20 23 40.5 33.5t48.5 10.5
h73q29 0 46 -12.5t17 -31.5q0 -23 -24 -46l-119 -109q-42 -38 -72 -54t-65 -16h-49q-22 0 -35.5 10.5z" />
    <glyph glyph-name="Ccaron" unicode="&#x10c;" horiz-adv-x="1297" 
d="M103 0zM395 60q-143 80 -217.5 235.5t-74.5 380.5v41q0 225 74.5 380.5t217.5 235.5t347 80q165 0 336 -59l92 -34q20 -7 29.5 -17.5t9.5 -27.5q0 -11 -5 -31l-17 -56q-8 -27 -17 -39t-24 -12q-5 0 -21 4l-82 29q-65 22 -126 33t-128 11q-208 0 -316 -123.5t-108 -373.5
v-41q0 -250 108 -373.5t316 -123.5q67 0 128 11t126 33l82 29q16 4 21 4q15 0 24 -12t17 -40l17 -56q5 -20 5 -30q0 -17 -9.5 -28t-29.5 -18l-92 -34q-169 -58 -336 -58q-204 0 -347 80zM1028 1756.5q15 -10.5 15 -28.5q0 -23 -26 -51l-132 -136q-19 -22 -40 -32t-48 -10
h-123q-27 0 -47.5 10t-40.5 32l-133 136q-23 24 -23 48q0 19 16 30.5t45 11.5h23q35 0 56.5 -7.5t40 -23.5t54.5 -54l71 -75l70 75q34 37 54 53.5t42 24t57 7.5h26q28 0 43 -10.5z" />
    <glyph glyph-name="Ccedilla" unicode="&#xc7;" horiz-adv-x="1297" 
d="M1204 148q5 -20 5 -30q0 -17 -9.5 -28t-29.5 -18l-92 -34q-148 -50 -290 -57l-12 -20q-11 -18 -11 -32q0 -18 15.5 -26.5t49.5 -18.5q39 -11 63.5 -23t43 -39t18.5 -73q0 -77 -64 -120t-183 -43q-61 0 -113.5 19t-83.5 48.5t-31 59.5q0 19 9 29.5t26 10.5q11 0 21.5 -4
t30.5 -14q30 -16 59 -25t69 -9q102 0 102 58q0 26 -19.5 38.5t-58.5 24.5q-44 13 -66 28t-22 49q0 16 5 29t16 30l15 25q-272 22 -418 199.5t-146 493.5v41q0 225 74.5 380.5t217.5 235.5t347 80q165 0 336 -59l92 -34q20 -7 29.5 -17.5t9.5 -27.5q0 -11 -5 -31l-17 -56
q-8 -27 -17 -39t-24 -12q-5 0 -21 4l-82 29q-65 22 -126 33t-128 11q-208 0 -316 -123.5t-108 -373.5v-41q0 -250 108 -373.5t316 -123.5q67 0 128 11t126 33l82 29q16 4 21 4q15 0 24 -12t17 -40z" />
    <glyph glyph-name="Cdotaccent" unicode="&#x10a;" horiz-adv-x="1297" 
d="M103 0zM395 60q-143 80 -217.5 235.5t-74.5 380.5v41q0 225 74.5 380.5t217.5 235.5t347 80q165 0 336 -59l92 -34q20 -7 29.5 -17.5t9.5 -27.5q0 -11 -5 -31l-17 -56q-8 -27 -17 -39t-24 -12q-5 0 -21 4l-82 29q-65 22 -126 33t-128 11q-208 0 -316 -123.5t-108 -373.5
v-41q0 -250 108 -373.5t316 -123.5q67 0 128 11t126 33l82 29q16 4 21 4q15 0 24 -12t17 -40l17 -56q5 -20 5 -30q0 -17 -9.5 -28t-29.5 -18l-92 -34q-169 -58 -336 -58q-204 0 -347 80zM643 1548q-36 35 -36 94q0 57 36 92t94 35t94 -35t36 -92q0 -59 -36 -94t-94 -35
t-94 35z" />
    <glyph glyph-name="C.ss01" horiz-adv-x="1297" 
d="M395 60q-143 80 -217.5 235.5t-74.5 380.5v41q0 225 74.5 380.5t217.5 235.5t347 80q165 0 336 -59l92 -34q21 -7 29.5 -17.5t8.5 -27.5q0 -7 -4 -31l-17 -61q-7 -28 -16 -39.5t-25 -11.5q-9 0 -21 3l-82 29q-67 22 -127.5 33t-126.5 11q-210 0 -318.5 -122t-108.5 -369
v-41q0 -247 108.5 -369t318.5 -122q67 0 128 11t126 33l82 28q11 4 22 4q15 0 24.5 -12t15.5 -39l17 -62q4 -24 4 -30q0 -18 -8.5 -28.5t-29.5 -17.5l-92 -34q-169 -58 -336 -58q-204 0 -347 80z" />
    <glyph glyph-name="C.ss02" horiz-adv-x="1297" 
d="M393 60.5q-142 80.5 -216 236t-74 379.5v41q0 224 74 379.5t216 236t344 80.5q137 0 241.5 -28t171.5 -70q41 -26 41 -62v-105q0 -37 -25 -37q-11 0 -24 7q-176 90 -353 90q-210 0 -318.5 -122t-108.5 -369v-41q0 -247 108.5 -369t318.5 -122q179 0 353 89q13 7 24 7
q25 0 25 -36v-105q0 -36 -41 -62q-67 -42 -171 -70t-242 -28q-202 0 -344 80.5z" />
    <glyph glyph-name="D" unicode="D" horiz-adv-x="1361" 
d="M172 40q-48 40 -48 116v1081q0 76 48 116t153 40h307q316 0 471 -172t155 -504v-41q0 -328 -159.5 -502t-468.5 -174h-305q-105 0 -153 40zM606 187q209 0 305.5 120.5t96.5 368.5v41q0 250 -96 369.5t-307 119.5h-191q-46 0 -46 -36v-948q0 -17 10.5 -26t35.5 -9h192z
" />
    <glyph glyph-name="Eth" unicode="&#xd0;" horiz-adv-x="1361" 
d="M1103 1221q155 -172 155 -504v-41q0 -328 -159.5 -502t-468.5 -174h-305q-105 0 -153 40t-48 116v467h-70q-24 0 -39 17t-15 55v27q0 38 15.5 55t38.5 17h70v443q0 76 48 116t153 40h307q316 0 471 -172zM1008 717q0 250 -96 369.5t-307 119.5h-191q-46 0 -46 -36v-376
h330q24 0 39 -17t15 -55v-27q0 -72 -54 -72h-330v-401q0 -17 10.5 -26t35.5 -9h192q209 0 305.5 120.5t96.5 368.5v41z" />
    <glyph glyph-name="Dcaron" unicode="&#x10e;" horiz-adv-x="1361" 
d="M124 0zM172 40q-48 40 -48 116v1081q0 76 48 116t153 40h307q316 0 471 -172t155 -504v-41q0 -328 -159.5 -502t-468.5 -174h-305q-105 0 -153 40zM606 187q209 0 305.5 120.5t96.5 368.5v41q0 250 -96 369.5t-307 119.5h-191q-46 0 -46 -36v-948q0 -17 10.5 -26t35.5 -9
h192zM944 1756.5q15 -10.5 15 -28.5q0 -23 -26 -51l-132 -136q-19 -22 -40 -32t-48 -10h-123q-27 0 -47.5 10t-40.5 32l-133 136q-23 24 -23 48q0 19 16 30.5t45 11.5h23q35 0 56.5 -7.5t40 -23.5t54.5 -54l71 -75l70 75q34 37 54 53.5t42 24t57 7.5h26q28 0 43 -10.5z" />
    <glyph glyph-name="Dcroat" unicode="&#x110;" horiz-adv-x="1361" 
d="M0 0zM1103 1221q155 -172 155 -504v-41q0 -328 -159.5 -502t-468.5 -174h-305q-105 0 -153 40t-48 116v467h-70q-24 0 -39 17t-15 55v27q0 38 15.5 55t38.5 17h70v443q0 76 48 116t153 40h307q316 0 471 -172zM1008 717q0 250 -96 369.5t-307 119.5h-191q-46 0 -46 -36
v-376h330q24 0 39 -17t15 -55v-27q0 -72 -54 -72h-330v-401q0 -17 10.5 -26t35.5 -9h192q209 0 305.5 120.5t96.5 368.5v41z" />
    <glyph glyph-name="E" unicode="E" horiz-adv-x="1141" 
d="M372 1172v-375h517q25 0 40.5 -17.5t15.5 -56.5v-29q0 -73 -56 -73h-517v-400q0 -36 46 -36h569q26 0 42.5 -18t16.5 -59v-31q0 -41 -16.5 -59t-42.5 -18h-662q-105 0 -153 40t-48 116v1081q0 76 48 116t153 40h662q26 0 42.5 -18t16.5 -60v-31q0 -76 -59 -76h-569
q-46 0 -46 -36z" />
    <glyph glyph-name="Eacute" unicode="&#xc9;" horiz-adv-x="1141" 
d="M124 0zM372 1172v-375h517q25 0 40.5 -17.5t15.5 -56.5v-29q0 -73 -56 -73h-517v-400q0 -36 46 -36h569q26 0 42.5 -18t16.5 -59v-31q0 -41 -16.5 -59t-42.5 -18h-662q-105 0 -153 40t-48 116v1081q0 76 48 116t153 40h662q26 0 42.5 -18t16.5 -60v-31q0 -76 -59 -76
h-569q-46 0 -46 -36zM491.5 1508.5q-13.5 10.5 -13.5 27.5q0 23 25 49l128 138q20 23 40.5 33.5t48.5 10.5h73q29 0 46 -12.5t17 -31.5q0 -23 -24 -46l-119 -109q-42 -38 -72 -54t-65 -16h-49q-22 0 -35.5 10.5z" />
    <glyph glyph-name="Ecaron" unicode="&#x11a;" horiz-adv-x="1141" 
d="M124 0zM372 1172v-375h517q25 0 40.5 -17.5t15.5 -56.5v-29q0 -73 -56 -73h-517v-400q0 -36 46 -36h569q26 0 42.5 -18t16.5 -59v-31q0 -41 -16.5 -59t-42.5 -18h-662q-105 0 -153 40t-48 116v1081q0 76 48 116t153 40h662q26 0 42.5 -18t16.5 -60v-31q0 -76 -59 -76
h-569q-46 0 -46 -36zM886 1756.5q15 -10.5 15 -28.5q0 -23 -26 -51l-132 -136q-19 -22 -40 -32t-48 -10h-123q-27 0 -47.5 10t-40.5 32l-133 136q-23 24 -23 48q0 19 16 30.5t45 11.5h23q35 0 56.5 -7.5t40 -23.5t54.5 -54l71 -75l70 75q34 37 54 53.5t42 24t57 7.5h26
q28 0 43 -10.5z" />
    <glyph glyph-name="Ecircumflex" unicode="&#xca;" horiz-adv-x="1141" 
d="M124 0zM372 1172v-375h517q25 0 40.5 -17.5t15.5 -56.5v-29q0 -73 -56 -73h-517v-400q0 -36 46 -36h569q26 0 42.5 -18t16.5 -59v-31q0 -41 -16.5 -59t-42.5 -18h-662q-105 0 -153 40t-48 116v1081q0 76 48 116t153 40h662q26 0 42.5 -18t16.5 -60v-31q0 -76 -59 -76
h-569q-46 0 -46 -36zM901 1538q0 -18 -15 -28.5t-43 -10.5h-26q-35 0 -57 7.5t-42 24t-54 53.5l-70 75l-71 -75q-35 -38 -54 -54t-40.5 -23.5t-56.5 -7.5h-23q-29 0 -45 11.5t-16 30.5q0 24 23 48l133 136q20 22 40.5 32t47.5 10h123q27 0 48 -10t40 -32l132 -136
q26 -28 26 -51z" />
    <glyph glyph-name="Edieresis" unicode="&#xcb;" horiz-adv-x="1141" 
d="M124 0zM372 1172v-375h517q25 0 40.5 -17.5t15.5 -56.5v-29q0 -73 -56 -73h-517v-400q0 -36 46 -36h569q26 0 42.5 -18t16.5 -59v-31q0 -41 -16.5 -59t-42.5 -18h-662q-105 0 -153 40t-48 116v1081q0 76 48 116t153 40h662q26 0 42.5 -18t16.5 -60v-31q0 -76 -59 -76
h-569q-46 0 -46 -36zM347 1545q-33 32 -33 85t33 84.5t86 31.5q52 0 85 -31.5t33 -84.5t-33 -85t-85 -32q-53 0 -86 32zM673 1545q-33 32 -33 85t33 84.5t86 31.5q52 0 84.5 -31.5t32.5 -84.5t-32.5 -85t-84.5 -32q-53 0 -86 32z" />
    <glyph glyph-name="Edotaccent" unicode="&#x116;" horiz-adv-x="1141" 
d="M124 0zM372 1172v-375h517q25 0 40.5 -17.5t15.5 -56.5v-29q0 -73 -56 -73h-517v-400q0 -36 46 -36h569q26 0 42.5 -18t16.5 -59v-31q0 -41 -16.5 -59t-42.5 -18h-662q-105 0 -153 40t-48 116v1081q0 76 48 116t153 40h662q26 0 42.5 -18t16.5 -60v-31q0 -76 -59 -76
h-569q-46 0 -46 -36zM501 1548q-36 35 -36 94q0 57 36 92t94 35t94 -35t36 -92q0 -59 -36 -94t-94 -35t-94 35z" />
    <glyph glyph-name="Egrave" unicode="&#xc8;" horiz-adv-x="1141" 
d="M124 0zM372 1172v-375h517q25 0 40.5 -17.5t15.5 -56.5v-29q0 -73 -56 -73h-517v-400q0 -36 46 -36h569q26 0 42.5 -18t16.5 -59v-31q0 -41 -16.5 -59t-42.5 -18h-662q-105 0 -153 40t-48 116v1081q0 76 48 116t153 40h662q26 0 42.5 -18t16.5 -60v-31q0 -76 -59 -76
h-569q-46 0 -46 -36zM613 1498q-35 0 -66 16t-73 54l-119 109q-24 23 -24 46q0 19 17 31.5t46 12.5h73q28 0 48.5 -10.5t40.5 -33.5l128 -138q26 -27 26 -50q0 -17 -13 -27t-35 -10h-49z" />
    <glyph glyph-name="Emacron" unicode="&#x112;" horiz-adv-x="1141" 
d="M124 0zM372 1172v-375h517q25 0 40.5 -17.5t15.5 -56.5v-29q0 -73 -56 -73h-517v-400q0 -36 46 -36h569q26 0 42.5 -18t16.5 -59v-31q0 -41 -16.5 -59t-42.5 -18h-662q-105 0 -153 40t-48 116v1081q0 76 48 116t153 40h662q26 0 42.5 -18t16.5 -60v-31q0 -76 -59 -76
h-569q-46 0 -46 -36zM282 1637v27q0 35 14 50.5t37 15.5h525q22 0 36 -15.5t14 -50.5v-27q0 -35 -14 -50t-36 -15h-525q-51 0 -51 65z" />
    <glyph glyph-name="Eogonek" unicode="&#x118;" horiz-adv-x="1141" 
d="M1100 -192q9 -11 9 -29q0 -33 -32.5 -63.5t-86.5 -48.5t-115 -18q-89 0 -140 38.5t-51 110.5q0 69 53.5 122.5t126.5 79.5h-539q-105 0 -153 40t-48 116v1081q0 76 48 116t153 40h662q26 0 42.5 -18t16.5 -60v-31q0 -76 -59 -76h-569q-46 0 -46 -36v-375h517
q25 0 40.5 -17.5t15.5 -56.5v-29q0 -73 -56 -73h-517v-400q0 -36 46 -36h569q26 0 42.5 -18t16.5 -59v-31q0 -63 -41 -75q-69 -25 -115.5 -67.5t-46.5 -94.5q0 -32 18.5 -47.5t57.5 -15.5q30 0 53.5 7t49.5 19q34 16 51 16q18 0 27 -11z" />
    <glyph glyph-name="F" unicode="F" horiz-adv-x="1118" 
d="M1043 1315v-31q0 -76 -58 -76h-569q-46 0 -46 -36v-400h516q56 0 56 -73v-34q0 -72 -56 -72h-516v-526q0 -67 -101 -67h-45q-100 0 -100 67v1170q0 76 48 116t153 40h660q58 0 58 -78z" />
    <glyph glyph-name="G" unicode="G" horiz-adv-x="1387" 
d="M273.5 156.5q-170.5 175.5 -170.5 519.5v41q0 224 76.5 379.5t224 236t357.5 80.5q187 0 352 -59l92 -34q21 -7 29.5 -17.5t8.5 -27.5q0 -7 -4 -31l-16 -59q-7 -27 -16 -39t-25 -12q-10 0 -21 4l-82 29q-70 23 -134.5 35t-136.5 12q-216 0 -329.5 -124.5t-113.5 -372.5
v-41q0 -257 111.5 -376.5t330.5 -119.5q66 0 118.5 11.5t85 24.5t32.5 15v479q0 62 93 62h42q94 0 94 -62v-486q0 -50 -17 -85.5t-57 -57.5q-184 -100 -436 -100q-318 0 -488.5 175.5z" />
    <glyph glyph-name="Gbreve" unicode="&#x11e;" horiz-adv-x="1387" 
d="M103 0zM273.5 156.5q-170.5 175.5 -170.5 519.5v41q0 224 76.5 379.5t224 236t357.5 80.5q187 0 352 -59l92 -34q21 -7 29.5 -17.5t8.5 -27.5q0 -7 -4 -31l-16 -59q-7 -27 -16 -39t-25 -12q-10 0 -21 4l-82 29q-70 23 -134.5 35t-136.5 12q-216 0 -329.5 -124.5
t-113.5 -372.5v-41q0 -257 111.5 -376.5t330.5 -119.5q66 0 118.5 11.5t85 24.5t32.5 15v479q0 62 93 62h42q94 0 94 -62v-486q0 -50 -17 -85.5t-57 -57.5q-184 -100 -436 -100q-318 0 -488.5 175.5zM577.5 1514.5q-72.5 34.5 -108.5 93.5t-36 134q0 40 14.5 62.5t37.5 22.5
q21 0 33 -14t28 -47q19 -39 39 -66t61.5 -46.5t108.5 -19.5t108.5 19.5t61.5 46.5t39 66q16 33 28 47t33 14q23 0 37.5 -22.5t14.5 -62.5q0 -75 -36 -134t-108.5 -93.5t-177.5 -34.5t-177.5 34.5z" />
    <glyph glyph-name="Gcommaaccent" unicode="&#x122;" horiz-adv-x="1387" 
d="M103 0zM273.5 156.5q-170.5 175.5 -170.5 519.5v41q0 224 76.5 379.5t224 236t357.5 80.5q187 0 352 -59l92 -34q21 -7 29.5 -17.5t8.5 -27.5q0 -7 -4 -31l-16 -59q-7 -27 -16 -39t-25 -12q-10 0 -21 4l-82 29q-70 23 -134.5 35t-136.5 12q-216 0 -329.5 -124.5
t-113.5 -372.5v-41q0 -257 111.5 -376.5t330.5 -119.5q66 0 118.5 11.5t85 24.5t32.5 15v479q0 62 93 62h42q94 0 94 -62v-486q0 -50 -17 -85.5t-57 -57.5q-184 -100 -436 -100q-318 0 -488.5 175.5zM599 -421.5q-14 13.5 -14 38.5q0 14 4 27l54 193q7 30 28 46.5t53 16.5
h61q31 0 48.5 -14t17.5 -38q0 -14 -6 -30l-57 -161q-17 -46 -38 -69t-52 -23h-61q-24 0 -38 13.5z" />
    <glyph glyph-name="Gdotaccent" unicode="&#x120;" horiz-adv-x="1387" 
d="M103 0zM273.5 156.5q-170.5 175.5 -170.5 519.5v41q0 224 76.5 379.5t224 236t357.5 80.5q187 0 352 -59l92 -34q21 -7 29.5 -17.5t8.5 -27.5q0 -7 -4 -31l-16 -59q-7 -27 -16 -39t-25 -12q-10 0 -21 4l-82 29q-70 23 -134.5 35t-136.5 12q-216 0 -329.5 -124.5
t-113.5 -372.5v-41q0 -257 111.5 -376.5t330.5 -119.5q66 0 118.5 11.5t85 24.5t32.5 15v479q0 62 93 62h42q94 0 94 -62v-486q0 -50 -17 -85.5t-57 -57.5q-184 -100 -436 -100q-318 0 -488.5 175.5zM661 1548q-36 35 -36 94q0 57 36 92t94 35t94 -35t36 -92q0 -59 -36 -94
t-94 -35t-94 35z" />
    <glyph glyph-name="H" unicode="H" horiz-adv-x="1351" 
d="M1227 1326v-1259q0 -31 -22.5 -49t-78.5 -18h-47q-100 0 -100 67v559h-607v-559q0 -31 -22.5 -49t-78.5 -18h-47q-100 0 -100 67v1259q0 67 100 67h47q101 0 101 -67v-522h607v522q0 67 100 67h47q101 0 101 -67z" />
    <glyph glyph-name="Hbar" unicode="&#x126;" horiz-adv-x="1351" 
d="M1340.5 1151.5q16.5 -16.5 16.5 -48.5v-13q0 -31 -16.5 -48t-48.5 -17h-65v-958q0 -31 -22.5 -49t-78.5 -18h-47q-100 0 -100 67v559h-607v-559q0 -31 -22.5 -49t-78.5 -18h-47q-100 0 -100 67v958h-64q-32 0 -49 17t-17 48v13q0 31 17 48t49 17h64v158q0 67 100 67h47
q101 0 101 -67v-158h607v158q0 67 100 67h47q101 0 101 -67v-158h65q32 0 48.5 -16.5zM979 1025h-607v-221h607v221z" />
    <glyph glyph-name="I" unicode="I" horiz-adv-x="496" 
d="M124 67v1259q0 67 100 67h49q99 0 99 -67v-1259q0 -67 -99 -67h-49q-100 0 -100 67z" />
    <glyph glyph-name="Iacute" unicode="&#xcd;" horiz-adv-x="496" 
d="M124 0zM124 67v1259q0 67 100 67h49q99 0 99 -67v-1259q0 -67 -99 -67h-49q-100 0 -100 67zM149.5 1508.5q-13.5 10.5 -13.5 27.5q0 23 25 49l128 138q20 23 40.5 33.5t48.5 10.5h73q29 0 46 -12.5t17 -31.5q0 -23 -24 -46l-119 -109q-42 -38 -72 -54t-65 -16h-49
q-22 0 -35.5 10.5z" />
    <glyph glyph-name="Icircumflex" unicode="&#xce;" horiz-adv-x="496" 
d="M0 0zM124 67v1259q0 67 100 67h49q99 0 99 -67v-1259q0 -67 -99 -67h-49q-100 0 -100 67zM559 1538q0 -18 -15 -28.5t-43 -10.5h-26q-35 0 -57 7.5t-42 24t-54 53.5l-70 75l-71 -75q-35 -38 -54 -54t-40.5 -23.5t-56.5 -7.5h-23q-29 0 -45 11.5t-16 30.5q0 24 23 48
l133 136q20 22 40.5 32t47.5 10h123q27 0 48 -10t40 -32l132 -136q26 -28 26 -51z" />
    <glyph glyph-name="Idieresis" unicode="&#xcf;" horiz-adv-x="496" 
d="M0 0zM124 67v1259q0 67 100 67h49q99 0 99 -67v-1259q0 -67 -99 -67h-49q-100 0 -100 67zM5 1545q-33 32 -33 85t33 84.5t86 31.5q52 0 85 -31.5t33 -84.5t-33 -85t-85 -32q-53 0 -86 32zM331 1545q-33 32 -33 85t33 84.5t86 31.5q52 0 84.5 -31.5t32.5 -84.5t-32.5 -85
t-84.5 -32q-53 0 -86 32z" />
    <glyph glyph-name="Idotaccent" unicode="&#x130;" horiz-adv-x="496" 
d="M123 0zM124 67v1259q0 67 100 67h49q99 0 99 -67v-1259q0 -67 -99 -67h-49q-100 0 -100 67zM159 1548q-36 35 -36 94q0 57 36 92t94 35t94 -35t36 -92q0 -59 -36 -94t-94 -35t-94 35z" />
    <glyph glyph-name="Igrave" unicode="&#xcc;" horiz-adv-x="496" 
d="M0 0zM124 67v1259q0 67 100 67h49q99 0 99 -67v-1259q0 -67 -99 -67h-49q-100 0 -100 67zM271 1498q-35 0 -66 16t-73 54l-119 109q-24 23 -24 46q0 19 17 31.5t46 12.5h73q28 0 48.5 -10.5t40.5 -33.5l128 -138q26 -27 26 -50q0 -17 -13 -27t-35 -10h-49z" />
    <glyph glyph-name="Imacron" unicode="&#x12a;" horiz-adv-x="496" 
d="M0 0zM124 67v1259q0 67 100 67h49q99 0 99 -67v-1259q0 -67 -99 -67h-49q-100 0 -100 67zM-60 1637v27q0 35 14 50.5t37 15.5h525q22 0 36 -15.5t14 -50.5v-27q0 -35 -14 -50t-36 -15h-525q-51 0 -51 65z" />
    <glyph glyph-name="Iogonek" unicode="&#x12e;" horiz-adv-x="496" 
d="M423 -186q9 -11 9 -29q0 -33 -32.5 -63.5t-86.5 -48.5t-115 -18q-89 0 -140 38.5t-51 110.5q0 68 51.5 121t122.5 79q-57 12 -57 63v1259q0 67 100 67h49q99 0 99 -67v-1259q0 -49 -53 -62q-65 -26 -109 -67.5t-44 -91.5q0 -32 18.5 -47.5t57.5 -15.5q30 0 53.5 7
t49.5 19q34 16 51 16q18 0 27 -11z" />
    <glyph glyph-name="IJ" unicode="&#x132;" horiz-adv-x="1224" 
d="M124 0zM124 67v1259q0 67 100 67h49q99 0 99 -67v-1259q0 -67 -99 -67h-49q-100 0 -100 67zM602 9.5q-44 29.5 -44 82.5v17q0 55 74 55q108 0 163.5 51t55.5 168v943q0 67 99 67h51q53 0 76 -18.5t23 -48.5v-951q0 -131 -46.5 -219.5t-130.5 -132t-196 -43.5
q-81 0 -125 29.5z" />
    <glyph glyph-name="J" unicode="J" horiz-adv-x="728" 
d="M106 9.5q-44 29.5 -44 82.5v17q0 55 74 55q108 0 163.5 51t55.5 168v943q0 67 99 67h51q53 0 76 -18.5t23 -48.5v-951q0 -131 -46.5 -219.5t-130.5 -132t-196 -43.5q-81 0 -125 29.5z" />
    <glyph glyph-name="K" unicode="K" horiz-adv-x="1292" 
d="M372 1326v-1259q0 -31 -22.5 -49t-78.5 -18h-47q-100 0 -100 67v1259q0 67 100 67h47q101 0 101 -67zM1199 31q0 -31 -68 -31h-94q-56 0 -93 18.5t-54 49.5l-440 580q-14 22 -14 43q0 23 14 45l441 588q18 31 54.5 50t91.5 19h91q67 0 67 -32q0 -15 -15 -37l-501 -627
l504 -629q16 -22 16 -37z" />
    <glyph glyph-name="Kcommaaccent" unicode="&#x136;" horiz-adv-x="1292" 
d="M124 0zM1194 37q0 -37 -76 -37h-85q-55 0 -85.5 17.5t-46.5 47.5l-331 568l-198 -231v-335q0 -31 -22.5 -49t-78.5 -18h-47q-100 0 -100 67v1259q0 67 100 67h47q101 0 101 -67v-669l510 671q43 65 145 65h85q69 0 69 -31q0 -15 -16 -34l-430 -502l451 -761q8 -16 8 -28z
M483 -421.5q-14 13.5 -14 38.5q0 14 4 27l54 193q7 30 28 46.5t53 16.5h61q31 0 48.5 -14t17.5 -38q0 -14 -6 -30l-57 -161q-17 -46 -38 -69t-52 -23h-61q-24 0 -38 13.5z" />
    <glyph glyph-name="K.ss01" horiz-adv-x="1292" 
d="M1194 37q0 -37 -76 -37h-85q-55 0 -85.5 17.5t-46.5 47.5l-331 568l-198 -231v-335q0 -31 -22.5 -49t-78.5 -18h-47q-100 0 -100 67v1259q0 67 100 67h47q101 0 101 -67v-669l510 671q43 65 145 65h85q69 0 69 -31q0 -15 -16 -34l-430 -502l451 -761q8 -16 8 -28z" />
    <glyph glyph-name="L" unicode="L" horiz-adv-x="1087" 
d="M172 40q-48 40 -48 116v1170q0 67 100 67h47q101 0 101 -67v-1107q0 -35 46 -35h543q26 0 42 -18t16 -59v-30q0 -41 -16 -59t-42 -18h-636q-105 0 -153 40z" />
    <glyph glyph-name="Lacute" unicode="&#x139;" horiz-adv-x="1087" 
d="M124 0zM172 40q-48 40 -48 116v1170q0 67 100 67h47q101 0 101 -67v-1107q0 -35 46 -35h543q26 0 42 -18t16 -59v-30q0 -41 -16 -59t-42 -18h-636q-105 0 -153 40zM210.5 1508.5q-13.5 10.5 -13.5 27.5q0 23 25 49l128 138q20 23 40.5 33.5t48.5 10.5h73q29 0 46 -12.5
t17 -31.5q0 -23 -24 -46l-119 -109q-42 -38 -72 -54t-65 -16h-49q-22 0 -35.5 10.5z" />
    <glyph glyph-name="Lcaron" unicode="&#x13d;" horiz-adv-x="1087" 
d="M596 955q-16 14 -16 42q0 10 1 15l68 341q12 60 71 60h74q29 0 44.5 -13.5t15.5 -38.5q0 -13 -2 -20l-81 -342q-14 -58 -70 -58h-60q-29 0 -45 14zM172 40q-48 40 -48 116v1170q0 67 100 67h47q101 0 101 -67v-1107q0 -35 46 -35h543q26 0 42 -18t16 -59v-30
q0 -41 -16 -59t-42 -18h-636q-105 0 -153 40z" />
    <glyph glyph-name="Lcommaaccent" unicode="&#x13b;" horiz-adv-x="1087" 
d="M124 0zM172 40q-48 40 -48 116v1170q0 67 100 67h47q101 0 101 -67v-1107q0 -35 46 -35h543q26 0 42 -18t16 -59v-30q0 -41 -16 -59t-42 -18h-636q-105 0 -153 40zM403 -421.5q-14 13.5 -14 38.5q0 14 4 27l54 193q7 30 28 46.5t53 16.5h61q31 0 48.5 -14t17.5 -38
q0 -14 -6 -30l-57 -161q-17 -46 -38 -69t-52 -23h-61q-24 0 -38 13.5z" />
    <glyph glyph-name="Ldot" unicode="&#x13f;" horiz-adv-x="1087" 
d="M172 40q-48 40 -48 116v1170q0 67 100 67h47q101 0 101 -67v-1107q0 -35 46 -35h543q26 0 42 -18t16 -59v-30q0 -41 -16 -59t-42 -18h-636q-105 0 -153 40zM612.5 507q-32.5 32 -32.5 86q0 52 32.5 83.5t85.5 31.5t86 -31.5t33 -83.5q0 -54 -33 -86t-86 -32t-85.5 32z
" />
    <glyph glyph-name="Lslash" unicode="&#x141;" horiz-adv-x="1087" 
d="M1038 166q16 -18 16 -59v-30q0 -41 -16 -59t-42 -18h-636q-105 0 -153 40t-48 116v377l-37 -18q-22 -11 -40 -11q-21 0 -34 14.5t-13 41.5v38q0 60 54 85l70 34v609q0 67 100 67h47q101 0 101 -67v-487l319 156q22 11 40 11q21 0 34 -14.5t13 -41.5v-38q0 -59 -54 -85
l-352 -172v-436q0 -35 46 -35h543q26 0 42 -18z" />
    <glyph glyph-name="M" unicode="M" horiz-adv-x="1681" 
d="M1572.5 18q-21.5 -18 -71.5 -18h-37q-51 0 -70.5 17t-21.5 47l-69 1109q0 16 -14 16q-17 0 -21 -16l-260 -1035q-27 -138 -163 -138h-16q-67 0 -108 33t-56 105l-264 1035q-4 16 -21 16q-14 0 -14 -16l-70 -1109q-2 -30 -21 -47t-67 -17h-32q-48 0 -69 18t-19 46l72 1153
q6 88 57 134.5t139 46.5h25q90 0 143.5 -38.5t72.5 -132.5l244 -1045l246 1050q16 85 71 125.5t143 40.5h28q88 0 137 -45.5t54 -135.5l72 -1153q2 -28 -19.5 -46z" />
    <glyph glyph-name="N" unicode="N" horiz-adv-x="1379" 
d="M124 64v1150q0 85 53.5 132t143.5 47h45q82 0 132 -38.5t83 -129.5l434 -1004q6 -16 21 -16q14 0 14 16v1108q0 64 89 64h29q87 0 87 -64v-1151q0 -85 -52.5 -131.5t-141.5 -46.5h-48q-82 0 -131.5 38.5t-83.5 129.5l-434 1004q-7 16 -21 16t-14 -16v-1108q0 -64 -89 -64
h-29q-87 0 -87 64z" />
    <glyph glyph-name="Nacute" unicode="&#x143;" horiz-adv-x="1379" 
d="M124 0zM124 64v1150q0 85 53.5 132t143.5 47h45q82 0 132 -38.5t83 -129.5l434 -1004q6 -16 21 -16q14 0 14 16v1108q0 64 89 64h29q87 0 87 -64v-1151q0 -85 -52.5 -131.5t-141.5 -46.5h-48q-82 0 -131.5 38.5t-83.5 129.5l-434 1004q-7 16 -21 16t-14 -16v-1108
q0 -64 -89 -64h-29q-87 0 -87 64zM612.5 1508.5q-13.5 10.5 -13.5 27.5q0 23 25 49l128 138q20 23 40.5 33.5t48.5 10.5h73q29 0 46 -12.5t17 -31.5q0 -23 -24 -46l-119 -109q-42 -38 -72 -54t-65 -16h-49q-22 0 -35.5 10.5z" />
    <glyph glyph-name="Ncaron" unicode="&#x147;" horiz-adv-x="1379" 
d="M124 0zM124 64v1150q0 85 53.5 132t143.5 47h45q82 0 132 -38.5t83 -129.5l434 -1004q6 -16 21 -16q14 0 14 16v1108q0 64 89 64h29q87 0 87 -64v-1151q0 -85 -52.5 -131.5t-141.5 -46.5h-48q-82 0 -131.5 38.5t-83.5 129.5l-434 1004q-7 16 -21 16t-14 -16v-1108
q0 -64 -89 -64h-29q-87 0 -87 64zM1007 1756.5q15 -10.5 15 -28.5q0 -23 -26 -51l-132 -136q-19 -22 -40 -32t-48 -10h-123q-27 0 -47.5 10t-40.5 32l-133 136q-23 24 -23 48q0 19 16 30.5t45 11.5h23q35 0 56.5 -7.5t40 -23.5t54.5 -54l71 -75l70 75q34 37 54 53.5t42 24
t57 7.5h26q28 0 43 -10.5z" />
    <glyph glyph-name="Ncommaaccent" unicode="&#x145;" horiz-adv-x="1379" 
d="M124 0zM124 64v1150q0 85 53.5 132t143.5 47h45q82 0 132 -38.5t83 -129.5l434 -1004q6 -16 21 -16q14 0 14 16v1108q0 64 89 64h29q87 0 87 -64v-1151q0 -85 -52.5 -131.5t-141.5 -46.5h-48q-82 0 -131.5 38.5t-83.5 129.5l-434 1004q-7 16 -21 16t-14 -16v-1108
q0 -64 -89 -64h-29q-87 0 -87 64zM511 -421.5q-14 13.5 -14 38.5q0 14 4 27l54 193q7 30 28 46.5t53 16.5h61q31 0 48.5 -14t17.5 -38q0 -14 -6 -30l-57 -161q-17 -46 -38 -69t-52 -23h-61q-24 0 -38 13.5z" />
    <glyph glyph-name="Eng" unicode="&#x14a;" horiz-adv-x="1379" 
d="M1255 1329v-1372q0 -109 -37 -187t-103.5 -118.5t-154.5 -40.5q-67 0 -102.5 28t-35.5 76v17q0 25 16.5 35.5t50.5 10.5q78 0 120 46.5t42 138.5v34h-38q-82 0 -131.5 38.5t-83.5 129.5l-434 1007q-7 16 -21 16t-14 -16v-1108q0 -64 -89 -64h-29q-87 0 -87 64v1150
q0 85 53.5 132t143.5 47h45q82 0 132 -38.5t83 -129.5l434 -1007q7 -16 21 -16t14 16v1111q0 64 89 64h29q87 0 87 -64z" />
    <glyph glyph-name="Ntilde" unicode="&#xd1;" horiz-adv-x="1379" 
d="M124 0zM124 64v1150q0 85 53.5 132t143.5 47h45q82 0 132 -38.5t83 -129.5l434 -1004q6 -16 21 -16q14 0 14 16v1108q0 64 89 64h29q87 0 87 -64v-1151q0 -85 -52.5 -131.5t-141.5 -46.5h-48q-82 0 -131.5 38.5t-83.5 129.5l-434 1004q-7 16 -21 16t-14 -16v-1108
q0 -64 -89 -64h-29q-87 0 -87 64zM378.5 1544q-17.5 23 -17.5 63q0 45 24 84.5t71 64t114 24.5q60 0 100 -16.5t89 -47.5q36 -23 59 -33.5t52 -10.5q38 0 54.5 16t28.5 45q10 24 20.5 35.5t33.5 11.5q27 0 44 -23t17 -63q0 -45 -23.5 -84.5t-70 -64t-113.5 -24.5
q-55 0 -93 15.5t-82 44.5q-37 24 -64 36t-62 12q-38 0 -54 -15t-29 -45q-10 -24 -21 -36t-34 -12q-26 0 -43.5 23z" />
    <glyph glyph-name="O" unicode="O" horiz-adv-x="1488" 
d="M262 152q-159 172 -159 524v41q0 349 160 522.5t481 173.5t481 -173.5t160 -522.5v-41q0 -352 -159 -524t-482 -172t-482 172zM964.5 221q82.5 52 120.5 162.5t38 292.5v41q0 181 -38 292t-121 163.5t-220 52.5t-220 -52.5t-121 -163.5t-38 -292v-41q0 -182 38 -292.5
t120.5 -162.5t220.5 -52t220.5 52z" />
    <glyph glyph-name="Oacute" unicode="&#xd3;" horiz-adv-x="1488" 
d="M103 0zM262 152q-159 172 -159 524v41q0 349 160 522.5t481 173.5t481 -173.5t160 -522.5v-41q0 -352 -159 -524t-482 -172t-482 172zM964.5 221q82.5 52 120.5 162.5t38 292.5v41q0 181 -38 292t-121 163.5t-220 52.5t-220 -52.5t-121 -163.5t-38 -292v-41
q0 -182 38 -292.5t120.5 -162.5t220.5 -52t220.5 52zM641.5 1508.5q-13.5 10.5 -13.5 27.5q0 23 25 49l128 138q20 23 40.5 33.5t48.5 10.5h73q29 0 46 -12.5t17 -31.5q0 -23 -24 -46l-119 -109q-42 -38 -72 -54t-65 -16h-49q-22 0 -35.5 10.5z" />
    <glyph glyph-name="Ocircumflex" unicode="&#xd4;" horiz-adv-x="1488" 
d="M103 0zM262 152q-159 172 -159 524v41q0 349 160 522.5t481 173.5t481 -173.5t160 -522.5v-41q0 -352 -159 -524t-482 -172t-482 172zM964.5 221q82.5 52 120.5 162.5t38 292.5v41q0 181 -38 292t-121 163.5t-220 52.5t-220 -52.5t-121 -163.5t-38 -292v-41
q0 -182 38 -292.5t120.5 -162.5t220.5 -52t220.5 52zM1051 1538q0 -18 -15 -28.5t-43 -10.5h-26q-35 0 -57 7.5t-42 24t-54 53.5l-70 75l-71 -75q-35 -38 -54 -54t-40.5 -23.5t-56.5 -7.5h-23q-29 0 -45 11.5t-16 30.5q0 24 23 48l133 136q20 22 40.5 32t47.5 10h123
q27 0 48 -10t40 -32l132 -136q26 -28 26 -51z" />
    <glyph glyph-name="Odieresis" unicode="&#xd6;" horiz-adv-x="1488" 
d="M103 0zM262 152q-159 172 -159 524v41q0 349 160 522.5t481 173.5t481 -173.5t160 -522.5v-41q0 -352 -159 -524t-482 -172t-482 172zM964.5 221q82.5 52 120.5 162.5t38 292.5v41q0 181 -38 292t-121 163.5t-220 52.5t-220 -52.5t-121 -163.5t-38 -292v-41
q0 -182 38 -292.5t120.5 -162.5t220.5 -52t220.5 52zM497 1545q-33 32 -33 85t33 84.5t86 31.5q52 0 85 -31.5t33 -84.5t-33 -85t-85 -32q-53 0 -86 32zM823 1545q-33 32 -33 85t33 84.5t86 31.5q52 0 84.5 -31.5t32.5 -84.5t-32.5 -85t-84.5 -32q-53 0 -86 32z" />
    <glyph glyph-name="Ograve" unicode="&#xd2;" horiz-adv-x="1488" 
d="M103 0zM262 152q-159 172 -159 524v41q0 349 160 522.5t481 173.5t481 -173.5t160 -522.5v-41q0 -352 -159 -524t-482 -172t-482 172zM964.5 221q82.5 52 120.5 162.5t38 292.5v41q0 181 -38 292t-121 163.5t-220 52.5t-220 -52.5t-121 -163.5t-38 -292v-41
q0 -182 38 -292.5t120.5 -162.5t220.5 -52t220.5 52zM763 1498q-35 0 -66 16t-73 54l-119 109q-24 23 -24 46q0 19 17 31.5t46 12.5h73q28 0 48.5 -10.5t40.5 -33.5l128 -138q26 -27 26 -50q0 -17 -13 -27t-35 -10h-49z" />
    <glyph glyph-name="Ohungarumlaut" unicode="&#x150;" horiz-adv-x="1488" 
d="M103 0zM262 152q-159 172 -159 524v41q0 349 160 522.5t481 173.5t481 -173.5t160 -522.5v-41q0 -352 -159 -524t-482 -172t-482 172zM964.5 221q82.5 52 120.5 162.5t38 292.5v41q0 181 -38 292t-121 163.5t-220 52.5t-220 -52.5t-121 -163.5t-38 -292v-41
q0 -182 38 -292.5t120.5 -162.5t220.5 -52t220.5 52zM537 1521q0 25 26 60l108 137q19 26 39 37.5t49 11.5h52q29 0 46.5 -12.5t17.5 -32.5q0 -23 -20 -44l-90 -95q-46 -48 -80.5 -69t-71.5 -21h-41q-35 0 -35 28zM841 1518q0 26 33 64l127 140q21 24 41 34.5t47 10.5h57
q29 0 45.5 -12t16.5 -31q0 -24 -26 -47l-114 -103q-49 -43 -84.5 -62t-70.5 -19h-43q-29 0 -29 25z" />
    <glyph glyph-name="Omacron" unicode="&#x14c;" horiz-adv-x="1488" 
d="M103 0zM262 152q-159 172 -159 524v41q0 349 160 522.5t481 173.5t481 -173.5t160 -522.5v-41q0 -352 -159 -524t-482 -172t-482 172zM964.5 221q82.5 52 120.5 162.5t38 292.5v41q0 181 -38 292t-121 163.5t-220 52.5t-220 -52.5t-121 -163.5t-38 -292v-41
q0 -182 38 -292.5t120.5 -162.5t220.5 -52t220.5 52zM432 1637v27q0 35 14 50.5t37 15.5h525q22 0 36 -15.5t14 -50.5v-27q0 -35 -14 -50t-36 -15h-525q-51 0 -51 65z" />
    <glyph glyph-name="Oslash" unicode="&#xd8;" horiz-adv-x="1488" 
d="M1385 717v-41q0 -352 -159 -524t-482 -172q-129 0 -233 27l-39 -83q-13 -28 -34 -41t-52 -13h-24q-27 0 -41.5 12.5t-14.5 33.5q0 19 10 40l52 110q-133 79 -199 231t-66 379v41q0 349 160 522.5t481 173.5q135 0 245 -32l39 83q12 28 33.5 40.5t52.5 12.5h15
q30 0 47 -13t17 -35q0 -14 -10 -37l-53 -113q255 -162 255 -602zM389 430.5q24 -99.5 76 -159.5l439 930q-67 24 -160 24q-137 0 -220 -52.5t-121 -163.5t-38 -292v-41q0 -146 24 -245.5zM1123 717q0 139 -22 236t-69 158l-435 -923q61 -19 147 -19q138 0 220.5 52
t120.5 162.5t38 292.5v41z" />
    <glyph glyph-name="Otilde" unicode="&#xd5;" horiz-adv-x="1488" 
d="M103 0zM262 152q-159 172 -159 524v41q0 349 160 522.5t481 173.5t481 -173.5t160 -522.5v-41q0 -352 -159 -524t-482 -172t-482 172zM964.5 221q82.5 52 120.5 162.5t38 292.5v41q0 181 -38 292t-121 163.5t-220 52.5t-220 -52.5t-121 -163.5t-38 -292v-41
q0 -182 38 -292.5t120.5 -162.5t220.5 -52t220.5 52zM407.5 1544q-17.5 23 -17.5 63q0 45 24 84.5t71 64t114 24.5q60 0 100 -16.5t89 -47.5q36 -23 59 -33.5t52 -10.5q38 0 54.5 16t28.5 45q10 24 20.5 35.5t33.5 11.5q27 0 44 -23t17 -63q0 -45 -23.5 -84.5t-70 -64
t-113.5 -24.5q-55 0 -93 15.5t-82 44.5q-37 24 -64 36t-62 12q-38 0 -54 -15t-29 -45q-10 -24 -21 -36t-34 -12q-26 0 -43.5 23z" />
    <glyph glyph-name="OE" unicode="&#x152;" horiz-adv-x="2118" 
d="M1342 1172v-375h524q24 0 39.5 -17.5t15.5 -56.5v-28q0 -39 -15.5 -56t-39.5 -17h-524v-401q0 -36 46 -36h576q26 0 42 -18t16 -59v-31q0 -41 -16 -59t-42 -18h-663q-189 0 -200 137q-47 -60 -139 -109t-241 -49q-313 0 -465.5 173t-152.5 524v41q0 350 152.5 523
t465.5 173q151 0 242.5 -45t138.5 -101q17 126 199 126h663q58 0 58 -78v-31q0 -76 -58 -76h-576q-46 0 -46 -36zM982.5 219q81.5 53 117.5 125v698q-37 74 -119 129.5t-226 55.5q-140 0 -225.5 -52.5t-125 -164t-39.5 -293.5v-41q0 -184 39.5 -295.5t125 -163t225.5 -51.5
q146 0 227.5 53z" />
    <glyph glyph-name="P" unicode="P" horiz-adv-x="1246" 
d="M1051.5 1295.5q108.5 -97.5 108.5 -300.5t-113 -312t-340 -109h-335v-507q0 -31 -22.5 -49t-78.5 -18h-47q-100 0 -100 67v1170q0 156 202 156h379q238 0 346.5 -97.5zM864 809q59 57 59 179q0 81 -24.5 129t-81.5 70t-155 22h-244q-46 0 -46 -36v-421h295q138 0 197 57z
" />
    <glyph glyph-name="Thorn" unicode="&#xde;" horiz-adv-x="1246" 
d="M969 1078q100 -43 147 -130t47 -222q0 -202 -112 -307.5t-340 -105.5h-339v-250q0 -63 -96 -63h-57q-95 0 -95 63v1267q0 63 95 63h57q96 0 96 -63v-209h336q161 0 261 -43zM867 544q60 57 60 178q0 81 -25 129.5t-82 71t-156 22.5h-292v-458h297q138 0 198 57z" />
    <glyph glyph-name="Q" unicode="Q" horiz-adv-x="1485" 
d="M1883 -194q16 -18 16 -59v-37q0 -77 -58 -77h-99q-85 0 -168.5 25.5t-156 62t-177.5 98.5q-105 61 -175 96.5t-150 60t-161 24.5h-10q-323 0 -482 170t-159 516v41q0 344 160 515t481 171t481 -171t160 -515v-41q0 -227 -68 -378t-206 -228q60 -22 112.5 -46.5
t139.5 -67.5q94 -48 157.5 -76t137 -47t153.5 -19h30q26 0 42 -18zM403 398q38 -109 120.5 -160t220.5 -51t220.5 51t120.5 160t38 288v41q0 178 -38 287.5t-121 161t-220 51.5t-220 -51.5t-121 -161t-38 -287.5v-41q0 -179 38 -288z" />
    <glyph glyph-name="R" unicode="R" horiz-adv-x="1281" 
d="M1186 38q0 -38 -77 -38h-70q-101 0 -130 65l-207 406q-32 61 -66.5 89.5t-98.5 31.5h-165v-525q0 -31 -23 -49t-81 -18h-44q-100 0 -100 67v1170q0 156 202 156h389q161 0 261 -42t147 -128t47 -221q0 -168 -83.5 -263t-249.5 -121q62 -40 102 -115l239 -438q8 -16 8 -27
zM676 754q138 0 198 57t60 178q0 81 -25 129.5t-82.5 71t-155.5 22.5h-254q-24 0 -34.5 -9t-10.5 -27v-422h304z" />
    <glyph glyph-name="Racute" unicode="&#x154;" horiz-adv-x="1281" 
d="M124 0zM1186 38q0 -38 -77 -38h-70q-101 0 -130 65l-207 406q-32 61 -66.5 89.5t-98.5 31.5h-165v-525q0 -31 -23 -49t-81 -18h-44q-100 0 -100 67v1170q0 156 202 156h389q161 0 261 -42t147 -128t47 -221q0 -168 -83.5 -263t-249.5 -121q62 -40 102 -115l239 -438
q8 -16 8 -27zM676 754q138 0 198 57t60 178q0 81 -25 129.5t-82.5 71t-155.5 22.5h-254q-24 0 -34.5 -9t-10.5 -27v-422h304zM509.5 1508.5q-13.5 10.5 -13.5 27.5q0 23 25 49l128 138q20 23 40.5 33.5t48.5 10.5h73q29 0 46 -12.5t17 -31.5q0 -23 -24 -46l-119 -109
q-42 -38 -72 -54t-65 -16h-49q-22 0 -35.5 10.5z" />
    <glyph glyph-name="Rcaron" unicode="&#x158;" horiz-adv-x="1281" 
d="M124 0zM1186 38q0 -38 -77 -38h-70q-101 0 -130 65l-207 406q-32 61 -66.5 89.5t-98.5 31.5h-165v-525q0 -31 -23 -49t-81 -18h-44q-100 0 -100 67v1170q0 156 202 156h389q161 0 261 -42t147 -128t47 -221q0 -168 -83.5 -263t-249.5 -121q62 -40 102 -115l239 -438
q8 -16 8 -27zM676 754q138 0 198 57t60 178q0 81 -25 129.5t-82.5 71t-155.5 22.5h-254q-24 0 -34.5 -9t-10.5 -27v-422h304zM904 1756.5q15 -10.5 15 -28.5q0 -23 -26 -51l-132 -136q-19 -22 -40 -32t-48 -10h-123q-27 0 -47.5 10t-40.5 32l-133 136q-23 24 -23 48
q0 19 16 30.5t45 11.5h23q35 0 56.5 -7.5t40 -23.5t54.5 -54l71 -75l70 75q34 37 54 53.5t42 24t57 7.5h26q28 0 43 -10.5z" />
    <glyph glyph-name="Rcommaaccent" unicode="&#x156;" horiz-adv-x="1281" 
d="M124 0zM1186 38q0 -38 -77 -38h-70q-101 0 -130 65l-207 406q-32 61 -66.5 89.5t-98.5 31.5h-165v-525q0 -31 -23 -49t-81 -18h-44q-100 0 -100 67v1170q0 156 202 156h389q161 0 261 -42t147 -128t47 -221q0 -168 -83.5 -263t-249.5 -121q62 -40 102 -115l239 -438
q8 -16 8 -27zM676 754q138 0 198 57t60 178q0 81 -25 129.5t-82.5 71t-155.5 22.5h-254q-24 0 -34.5 -9t-10.5 -27v-422h304zM478 -421.5q-14 13.5 -14 38.5q0 14 4 27l54 193q7 30 28 46.5t53 16.5h61q31 0 48.5 -14t17.5 -38q0 -14 -6 -30l-57 -161q-17 -46 -38 -69
t-52 -23h-61q-24 0 -38 13.5z" />
    <glyph glyph-name="S" unicode="S" horiz-adv-x="1286" 
d="M258 42l-107 38q-20 7 -30 18.5t-10 29.5q0 10 5 28l20 62q8 26 17.5 37t25.5 11q10 0 28 -5l91 -31q75 -26 159 -41.5t168 -15.5q144 0 216.5 50.5t72.5 144.5q0 52 -23.5 84t-69.5 55t-135 52l-189 61q-120 37 -198 83t-121 118t-43 180q0 122 58.5 215t171.5 145
t270 52q180 0 347 -58l94 -34q20 -8 29 -19t9 -28q0 -5 -4 -25l-19 -64q-8 -26 -17 -36.5t-24 -10.5q-9 0 -26 5l-80 28q-151 51 -290 51q-140 0 -207.5 -51.5t-67.5 -144.5q0 -57 23.5 -92t69 -58t129.5 -50l190 -61q131 -41 210 -86.5t119 -114.5t40 -173
q0 -128 -60.5 -220t-178.5 -141.5t-286 -49.5q-198 0 -377 62z" />
    <glyph glyph-name="Sacute" unicode="&#x15a;" horiz-adv-x="1286" 
d="M111 0zM258 42l-107 38q-20 7 -30 18.5t-10 29.5q0 10 5 28l20 62q8 26 17.5 37t25.5 11q10 0 28 -5l91 -31q75 -26 159 -41.5t168 -15.5q144 0 216.5 50.5t72.5 144.5q0 52 -23.5 84t-69.5 55t-135 52l-189 61q-120 37 -198 83t-121 118t-43 180q0 122 58.5 215
t171.5 145t270 52q180 0 347 -58l94 -34q20 -8 29 -19t9 -28q0 -5 -4 -25l-19 -64q-8 -26 -17 -36.5t-24 -10.5q-9 0 -26 5l-80 28q-151 51 -290 51q-140 0 -207.5 -51.5t-67.5 -144.5q0 -57 23.5 -92t69 -58t129.5 -50l190 -61q131 -41 210 -86.5t119 -114.5t40 -173
q0 -128 -60.5 -220t-178.5 -141.5t-286 -49.5q-198 0 -377 62zM564.5 1508.5q-13.5 10.5 -13.5 27.5q0 23 25 49l128 138q20 23 40.5 33.5t48.5 10.5h73q29 0 46 -12.5t17 -31.5q0 -23 -24 -46l-119 -109q-42 -38 -72 -54t-65 -16h-49q-22 0 -35.5 10.5z" />
    <glyph glyph-name="Scaron" unicode="&#x160;" horiz-adv-x="1286" 
d="M111 0zM258 42l-107 38q-20 7 -30 18.5t-10 29.5q0 10 5 28l20 62q8 26 17.5 37t25.5 11q10 0 28 -5l91 -31q75 -26 159 -41.5t168 -15.5q144 0 216.5 50.5t72.5 144.5q0 52 -23.5 84t-69.5 55t-135 52l-189 61q-120 37 -198 83t-121 118t-43 180q0 122 58.5 215
t171.5 145t270 52q180 0 347 -58l94 -34q20 -8 29 -19t9 -28q0 -5 -4 -25l-19 -64q-8 -26 -17 -36.5t-24 -10.5q-9 0 -26 5l-80 28q-151 51 -290 51q-140 0 -207.5 -51.5t-67.5 -144.5q0 -57 23.5 -92t69 -58t129.5 -50l190 -61q131 -41 210 -86.5t119 -114.5t40 -173
q0 -128 -60.5 -220t-178.5 -141.5t-286 -49.5q-198 0 -377 62zM959 1756.5q15 -10.5 15 -28.5q0 -23 -26 -51l-132 -136q-19 -22 -40 -32t-48 -10h-123q-27 0 -47.5 10t-40.5 32l-133 136q-23 24 -23 48q0 19 16 30.5t45 11.5h23q35 0 56.5 -7.5t40 -23.5t54.5 -54l71 -75
l70 75q34 37 54 53.5t42 24t57 7.5h26q28 0 43 -10.5z" />
    <glyph glyph-name="Scedilla" unicode="&#x15e;" horiz-adv-x="1286" 
d="M690 -39q-11 -18 -11 -32q0 -18 15.5 -26.5t49.5 -18.5q39 -11 63.5 -23t43 -39t18.5 -73q0 -77 -64 -120t-183 -43q-61 0 -113.5 19t-83.5 48.5t-31 59.5q0 19 9 29.5t26 10.5q11 0 21.5 -4t30.5 -14q30 -16 59 -25t69 -9q102 0 102 58q0 26 -19.5 38.5t-58.5 24.5
q-44 13 -66 28t-22 49q0 16 5 29t16 30l14 23q-167 8 -322 61l-107 38q-20 7 -30 18.5t-10 29.5q0 10 5 28l20 62q8 26 17.5 37t25.5 11q10 0 28 -5l91 -31q75 -26 159 -41.5t168 -15.5q144 0 216.5 50.5t72.5 144.5q0 52 -23.5 84t-69.5 55t-135 52l-189 61
q-120 37 -198 83t-121 118t-43 180q0 122 58.5 215t171.5 145t270 52q180 0 347 -58l94 -34q20 -8 29 -19t9 -28q0 -5 -4 -25l-19 -64q-8 -26 -17 -36.5t-24 -10.5q-9 0 -26 5l-80 28q-151 51 -290 51q-140 0 -207.5 -51.5t-67.5 -144.5q0 -57 23.5 -92t69 -58t129.5 -50
l190 -61q131 -41 210 -86.5t119 -114.5t40 -173q0 -180 -118 -287t-340 -122z" />
    <glyph glyph-name="Scommaaccent" unicode="&#x218;" horiz-adv-x="1286" 
d="M111 0zM258 42l-107 38q-20 7 -30 18.5t-10 29.5q0 10 5 28l20 62q8 26 17.5 37t25.5 11q10 0 28 -5l91 -31q75 -26 159 -41.5t168 -15.5q144 0 216.5 50.5t72.5 144.5q0 52 -23.5 84t-69.5 55t-135 52l-189 61q-120 37 -198 83t-121 118t-43 180q0 122 58.5 215
t171.5 145t270 52q180 0 347 -58l94 -34q20 -8 29 -19t9 -28q0 -5 -4 -25l-19 -64q-8 -26 -17 -36.5t-24 -10.5q-9 0 -26 5l-80 28q-151 51 -290 51q-140 0 -207.5 -51.5t-67.5 -144.5q0 -57 23.5 -92t69 -58t129.5 -50l190 -61q131 -41 210 -86.5t119 -114.5t40 -173
q0 -128 -60.5 -220t-178.5 -141.5t-286 -49.5q-198 0 -377 62zM493 -421.5q-14 13.5 -14 38.5q0 14 4 27l54 193q7 30 28 46.5t53 16.5h61q31 0 48.5 -14t17.5 -38q0 -14 -6 -30l-57 -161q-17 -46 -38 -69t-52 -23h-61q-24 0 -38 13.5z" />
    <glyph glyph-name="T" unicode="T" horiz-adv-x="1260" 
d="M506 67v1141h-385q-58 0 -58 76v31q0 78 58 78h1017q26 0 42.5 -18t16.5 -60v-31q0 -76 -59 -76h-385v-1141q0 -31 -22.5 -49t-78.5 -18h-45q-101 0 -101 67z" />
    <glyph glyph-name="Tbar" unicode="&#x166;" horiz-adv-x="1260" 
d="M1180.5 1375q16.5 -18 16.5 -60v-31q0 -76 -59 -76h-385v-411h229q32 0 48.5 -18t16.5 -53v-32q0 -71 -65 -71h-229v-556q0 -31 -22.5 -49t-78.5 -18h-45q-101 0 -101 67v556h-216q-65 0 -65 71v32q0 35 16.5 53t48.5 18h216v411h-385q-58 0 -58 76v31q0 78 58 78h1017
q26 0 42.5 -18z" />
    <glyph glyph-name="Tcaron" unicode="&#x164;" horiz-adv-x="1260" 
d="M63 0zM506 67v1141h-385q-58 0 -58 76v31q0 78 58 78h1017q26 0 42.5 -18t16.5 -60v-31q0 -76 -59 -76h-385v-1141q0 -31 -22.5 -49t-78.5 -18h-45q-101 0 -101 67zM922 1756.5q15 -10.5 15 -28.5q0 -23 -26 -51l-132 -136q-19 -22 -40 -32t-48 -10h-123q-27 0 -47.5 10
t-40.5 32l-133 136q-23 24 -23 48q0 19 16 30.5t45 11.5h23q35 0 56.5 -7.5t40 -23.5t54.5 -54l71 -75l70 75q34 37 54 53.5t42 24t57 7.5h26q28 0 43 -10.5z" />
    <glyph glyph-name="uni0162" unicode="&#x162;" horiz-adv-x="1260" 
d="M1180.5 1375q16.5 -18 16.5 -60v-31q0 -76 -59 -76h-385v-1141q0 -55 -66 -65l-24 -41q-11 -18 -11 -32q0 -18 15.5 -26.5t49.5 -18.5q39 -11 63.5 -23t43 -39t18.5 -73q0 -77 -64 -120t-183 -43q-61 0 -113.5 19t-83.5 48.5t-31 59.5q0 19 9 29.5t26 10.5q11 0 21.5 -4
t30.5 -14q30 -16 59 -25t69 -9q102 0 102 58q0 26 -19.5 38.5t-58.5 24.5q-44 13 -66 28t-22 49q0 16 5 29t16 30l27 45q-60 12 -60 64v1141h-385q-58 0 -58 76v31q0 78 58 78h1017q26 0 42.5 -18z" />
    <glyph glyph-name="uni021A" unicode="&#x21a;" horiz-adv-x="1260" 
d="M63 0zM506 67v1141h-385q-58 0 -58 76v31q0 78 58 78h1017q26 0 42.5 -18t16.5 -60v-31q0 -76 -59 -76h-385v-1141q0 -31 -22.5 -49t-78.5 -18h-45q-101 0 -101 67zM466 -421.5q-14 13.5 -14 38.5q0 14 4 27l54 193q7 30 28 46.5t53 16.5h61q31 0 48.5 -14t17.5 -38
q0 -14 -6 -30l-57 -161q-17 -46 -38 -69t-52 -23h-61q-24 0 -38 13.5z" />
    <glyph glyph-name="U" unicode="U" horiz-adv-x="1315" 
d="M243 114.5q-130 134.5 -130 397.5v814q0 67 101 67h47q101 0 101 -67v-816q0 -112 29.5 -183.5t94.5 -106.5t173 -35t171.5 33t92.5 103.5t29 188.5v816q0 67 101 67h47q101 0 101 -67v-815q0 -264 -132.5 -397.5t-416.5 -133.5q-279 0 -409 134.5z" />
    <glyph glyph-name="Uacute" unicode="&#xda;" horiz-adv-x="1315" 
d="M113 0zM243 114.5q-130 134.5 -130 397.5v814q0 67 101 67h47q101 0 101 -67v-816q0 -112 29.5 -183.5t94.5 -106.5t173 -35t171.5 33t92.5 103.5t29 188.5v816q0 67 101 67h47q101 0 101 -67v-815q0 -264 -132.5 -397.5t-416.5 -133.5q-279 0 -409 134.5zM552.5 1508.5
q-13.5 10.5 -13.5 27.5q0 23 25 49l128 138q20 23 40.5 33.5t48.5 10.5h73q29 0 46 -12.5t17 -31.5q0 -23 -24 -46l-119 -109q-42 -38 -72 -54t-65 -16h-49q-22 0 -35.5 10.5z" />
    <glyph glyph-name="Ucircumflex" unicode="&#xdb;" horiz-adv-x="1315" 
d="M113 0zM243 114.5q-130 134.5 -130 397.5v814q0 67 101 67h47q101 0 101 -67v-816q0 -112 29.5 -183.5t94.5 -106.5t173 -35t171.5 33t92.5 103.5t29 188.5v816q0 67 101 67h47q101 0 101 -67v-815q0 -264 -132.5 -397.5t-416.5 -133.5q-279 0 -409 134.5zM962 1538
q0 -18 -15 -28.5t-43 -10.5h-26q-35 0 -57 7.5t-42 24t-54 53.5l-70 75l-71 -75q-35 -38 -54 -54t-40.5 -23.5t-56.5 -7.5h-23q-29 0 -45 11.5t-16 30.5q0 24 23 48l133 136q20 22 40.5 32t47.5 10h123q27 0 48 -10t40 -32l132 -136q26 -28 26 -51z" />
    <glyph glyph-name="Udieresis" unicode="&#xdc;" horiz-adv-x="1315" 
d="M113 0zM243 114.5q-130 134.5 -130 397.5v814q0 67 101 67h47q101 0 101 -67v-816q0 -112 29.5 -183.5t94.5 -106.5t173 -35t171.5 33t92.5 103.5t29 188.5v816q0 67 101 67h47q101 0 101 -67v-815q0 -264 -132.5 -397.5t-416.5 -133.5q-279 0 -409 134.5zM408 1545
q-33 32 -33 85t33 84.5t86 31.5q52 0 85 -31.5t33 -84.5t-33 -85t-85 -32q-53 0 -86 32zM734 1545q-33 32 -33 85t33 84.5t86 31.5q52 0 84.5 -31.5t32.5 -84.5t-32.5 -85t-84.5 -32q-53 0 -86 32z" />
    <glyph glyph-name="Ugrave" unicode="&#xd9;" horiz-adv-x="1315" 
d="M113 0zM243 114.5q-130 134.5 -130 397.5v814q0 67 101 67h47q101 0 101 -67v-816q0 -112 29.5 -183.5t94.5 -106.5t173 -35t171.5 33t92.5 103.5t29 188.5v816q0 67 101 67h47q101 0 101 -67v-815q0 -264 -132.5 -397.5t-416.5 -133.5q-279 0 -409 134.5zM674 1498
q-35 0 -66 16t-73 54l-119 109q-24 23 -24 46q0 19 17 31.5t46 12.5h73q28 0 48.5 -10.5t40.5 -33.5l128 -138q26 -27 26 -50q0 -17 -13 -27t-35 -10h-49z" />
    <glyph glyph-name="Uhungarumlaut" unicode="&#x170;" horiz-adv-x="1315" 
d="M113 0zM243 114.5q-130 134.5 -130 397.5v814q0 67 101 67h47q101 0 101 -67v-816q0 -112 29.5 -183.5t94.5 -106.5t173 -35t171.5 33t92.5 103.5t29 188.5v816q0 67 101 67h47q101 0 101 -67v-815q0 -264 -132.5 -397.5t-416.5 -133.5q-279 0 -409 134.5zM448 1521
q0 25 26 60l108 137q19 26 39 37.5t49 11.5h52q29 0 46.5 -12.5t17.5 -32.5q0 -23 -20 -44l-90 -95q-46 -48 -80.5 -69t-71.5 -21h-41q-35 0 -35 28zM752 1518q0 26 33 64l127 140q21 24 41 34.5t47 10.5h57q29 0 45.5 -12t16.5 -31q0 -24 -26 -47l-114 -103
q-49 -43 -84.5 -62t-70.5 -19h-43q-29 0 -29 25z" />
    <glyph glyph-name="Umacron" unicode="&#x16a;" horiz-adv-x="1315" 
d="M113 0zM243 114.5q-130 134.5 -130 397.5v814q0 67 101 67h47q101 0 101 -67v-816q0 -112 29.5 -183.5t94.5 -106.5t173 -35t171.5 33t92.5 103.5t29 188.5v816q0 67 101 67h47q101 0 101 -67v-815q0 -264 -132.5 -397.5t-416.5 -133.5q-279 0 -409 134.5zM343 1637v27
q0 35 14 50.5t37 15.5h525q22 0 36 -15.5t14 -50.5v-27q0 -35 -14 -50t-36 -15h-525q-51 0 -51 65z" />
    <glyph glyph-name="Uogonek" unicode="&#x172;" horiz-adv-x="1315" 
d="M1201 1326v-815q0 -213 -85 -340.5t-265 -169.5v-1q-69 -25 -115.5 -67.5t-46.5 -94.5q0 -32 18.5 -47.5t57.5 -15.5q30 0 53.5 7t49.5 19q34 16 51 16q18 0 27 -11t9 -29q0 -33 -32.5 -63.5t-86.5 -48.5t-115 -18q-89 0 -140 38.5t-51 110.5q0 59 39 106.5t99 77.5h-16
q-279 0 -409 134.5t-130 397.5v814q0 67 101 67h47q101 0 101 -67v-816q0 -112 29.5 -183.5t94.5 -106.5t173 -35t171.5 33t92.5 103.5t29 188.5v816q0 67 101 67h47q101 0 101 -67z" />
    <glyph glyph-name="Uring" unicode="&#x16e;" horiz-adv-x="1315" 
d="M113 0zM243 114.5q-130 134.5 -130 397.5v814q0 67 101 67h47q101 0 101 -67v-816q0 -112 29.5 -183.5t94.5 -106.5t173 -35t171.5 33t92.5 103.5t29 188.5v816q0 67 101 67h47q101 0 101 -67v-815q0 -264 -132.5 -397.5t-416.5 -133.5q-279 0 -409 134.5zM536 1488
q-52 27 -80.5 74.5t-28.5 106.5q0 60 28.5 107.5t80.5 74.5t119 27q68 0 120 -27t80 -74.5t28 -107.5q0 -59 -28 -106.5t-80 -74.5t-120 -27q-67 0 -119 27zM733.5 1594.5q29.5 29.5 29.5 75.5q0 44 -30 74t-76 30t-75 -30t-29 -74q0 -47 29 -76t75 -29q47 0 76.5 29.5z" />
    <glyph glyph-name="V" unicode="V" horiz-adv-x="1396" 
d="M1309 1344q0 -6 -4 -22l-392 -1157q-27 -88 -73 -126.5t-133 -38.5h-27q-80 0 -128 39t-73 124l-388 1159q-3 11 -3 20q0 51 86 51h62q100 0 119 -71l328 -1092q5 -16 18 -16t18 16l338 1092q8 32 37 51.5t84 19.5h45q86 0 86 -49z" />
    <glyph glyph-name="W" unicode="W" horiz-adv-x="1901" 
d="M407.5 37q-43.5 37 -56.5 105l-256 1181q-2 12 -2 19q0 51 84 51h61q56 0 86 -20t33 -50l196 -1088q2 -15 17 -15q7 0 10.5 3t6.5 12l248 1088q13 70 114 70h35q98 0 111 -70l251 -1088q2 -9 6 -12t11 -3q15 0 17 15l195 1088q3 31 29.5 50.5t81.5 19.5h41q82 0 82 -49
q0 -10 -3 -21l-257 -1181q-27 -142 -167 -142h-33q-72 0 -114 37t-55 106l-225 911l-219 -911q-13 -69 -57 -106t-120 -37h-33q-75 0 -118.5 37z" />
    <glyph glyph-name="Wacute" unicode="&#x1e82;" horiz-adv-x="1901" 
d="M93 0zM407.5 37q-43.5 37 -56.5 105l-256 1181q-2 12 -2 19q0 51 84 51h61q56 0 86 -20t33 -50l196 -1088q2 -15 17 -15q7 0 10.5 3t6.5 12l248 1088q13 70 114 70h35q98 0 111 -70l251 -1088q2 -9 6 -12t11 -3q15 0 17 15l195 1088q3 31 29.5 50.5t81.5 19.5h41
q82 0 82 -49q0 -10 -3 -21l-257 -1181q-27 -142 -167 -142h-33q-72 0 -114 37t-55 106l-225 911l-219 -911q-13 -69 -57 -106t-120 -37h-33q-75 0 -118.5 37zM870.5 1508.5q-13.5 10.5 -13.5 27.5q0 23 25 49l128 138q20 23 40.5 33.5t48.5 10.5h73q29 0 46 -12.5t17 -31.5
q0 -23 -24 -46l-119 -109q-42 -38 -72 -54t-65 -16h-49q-22 0 -35.5 10.5z" />
    <glyph glyph-name="Wcircumflex" unicode="&#x174;" horiz-adv-x="1901" 
d="M93 0zM407.5 37q-43.5 37 -56.5 105l-256 1181q-2 12 -2 19q0 51 84 51h61q56 0 86 -20t33 -50l196 -1088q2 -15 17 -15q7 0 10.5 3t6.5 12l248 1088q13 70 114 70h35q98 0 111 -70l251 -1088q2 -9 6 -12t11 -3q15 0 17 15l195 1088q3 31 29.5 50.5t81.5 19.5h41
q82 0 82 -49q0 -10 -3 -21l-257 -1181q-27 -142 -167 -142h-33q-72 0 -114 37t-55 106l-225 911l-219 -911q-13 -69 -57 -106t-120 -37h-33q-75 0 -118.5 37zM1280 1538q0 -18 -15 -28.5t-43 -10.5h-26q-35 0 -57 7.5t-42 24t-54 53.5l-70 75l-71 -75q-35 -38 -54 -54
t-40.5 -23.5t-56.5 -7.5h-23q-29 0 -45 11.5t-16 30.5q0 24 23 48l133 136q20 22 40.5 32t47.5 10h123q27 0 48 -10t40 -32l132 -136q26 -28 26 -51z" />
    <glyph glyph-name="Wdieresis" unicode="&#x1e84;" horiz-adv-x="1901" 
d="M93 0zM407.5 37q-43.5 37 -56.5 105l-256 1181q-2 12 -2 19q0 51 84 51h61q56 0 86 -20t33 -50l196 -1088q2 -15 17 -15q7 0 10.5 3t6.5 12l248 1088q13 70 114 70h35q98 0 111 -70l251 -1088q2 -9 6 -12t11 -3q15 0 17 15l195 1088q3 31 29.5 50.5t81.5 19.5h41
q82 0 82 -49q0 -10 -3 -21l-257 -1181q-27 -142 -167 -142h-33q-72 0 -114 37t-55 106l-225 911l-219 -911q-13 -69 -57 -106t-120 -37h-33q-75 0 -118.5 37zM726 1545q-33 32 -33 85t33 84.5t86 31.5q52 0 85 -31.5t33 -84.5t-33 -85t-85 -32q-53 0 -86 32zM1052 1545
q-33 32 -33 85t33 84.5t86 31.5q52 0 84.5 -31.5t32.5 -84.5t-32.5 -85t-84.5 -32q-53 0 -86 32z" />
    <glyph glyph-name="Wgrave" unicode="&#x1e80;" horiz-adv-x="1901" 
d="M93 0zM407.5 37q-43.5 37 -56.5 105l-256 1181q-2 12 -2 19q0 51 84 51h61q56 0 86 -20t33 -50l196 -1088q2 -15 17 -15q7 0 10.5 3t6.5 12l248 1088q13 70 114 70h35q98 0 111 -70l251 -1088q2 -9 6 -12t11 -3q15 0 17 15l195 1088q3 31 29.5 50.5t81.5 19.5h41
q82 0 82 -49q0 -10 -3 -21l-257 -1181q-27 -142 -167 -142h-33q-72 0 -114 37t-55 106l-225 911l-219 -911q-13 -69 -57 -106t-120 -37h-33q-75 0 -118.5 37zM992 1498q-35 0 -66 16t-73 54l-119 109q-24 23 -24 46q0 19 17 31.5t46 12.5h73q28 0 48.5 -10.5t40.5 -33.5
l128 -138q26 -27 26 -50q0 -17 -13 -27t-35 -10h-49z" />
    <glyph glyph-name="X" unicode="X" horiz-adv-x="1342" 
d="M1248 45q0 -20 -22 -32.5t-65 -12.5h-87q-52 0 -76 17t-41 49l-301 517l-297 -517q-13 -32 -38.5 -49t-78.5 -17h-61q-43 0 -64.5 12.5t-21.5 32.5q0 11 7 24l388 629l-387 626q-7 11 -7 23q0 21 22 33.5t65 12.5h92q52 0 76 -17t39 -49l294 -509l293 509q14 32 39 49
t78 17h61q43 0 65 -13t22 -33q0 -12 -7 -23l-388 -621l394 -634q7 -11 7 -24z" />
    <glyph glyph-name="Y" unicode="Y" horiz-adv-x="1349" 
d="M554 67v512l-462 745q-7 11 -7 24q0 20 22 32.5t64 12.5h86q52 0 76 -17t39 -49l319 -551l314 551q15 33 39.5 49.5t77.5 16.5h56q42 0 64 -13t22 -34q0 -11 -6 -22l-455 -740v-517q0 -67 -101 -67h-47q-101 0 -101 67z" />
    <glyph glyph-name="Yacute" unicode="&#xdd;" horiz-adv-x="1349" 
d="M85 0zM554 67v512l-462 745q-7 11 -7 24q0 20 22 32.5t64 12.5h86q52 0 76 -17t39 -49l319 -551l314 551q15 33 39.5 49.5t77.5 16.5h56q42 0 64 -13t22 -34q0 -11 -6 -22l-455 -740v-517q0 -67 -101 -67h-47q-101 0 -101 67zM587.5 1508.5q-13.5 10.5 -13.5 27.5
q0 23 25 49l128 138q20 23 40.5 33.5t48.5 10.5h73q29 0 46 -12.5t17 -31.5q0 -23 -24 -46l-119 -109q-42 -38 -72 -54t-65 -16h-49q-22 0 -35.5 10.5z" />
    <glyph glyph-name="Ycircumflex" unicode="&#x176;" horiz-adv-x="1349" 
d="M85 0zM554 67v512l-462 745q-7 11 -7 24q0 20 22 32.5t64 12.5h86q52 0 76 -17t39 -49l319 -551l314 551q15 33 39.5 49.5t77.5 16.5h56q42 0 64 -13t22 -34q0 -11 -6 -22l-455 -740v-517q0 -67 -101 -67h-47q-101 0 -101 67zM997 1538q0 -18 -15 -28.5t-43 -10.5h-26
q-35 0 -57 7.5t-42 24t-54 53.5l-70 75l-71 -75q-35 -38 -54 -54t-40.5 -23.5t-56.5 -7.5h-23q-29 0 -45 11.5t-16 30.5q0 24 23 48l133 136q20 22 40.5 32t47.5 10h123q27 0 48 -10t40 -32l132 -136q26 -28 26 -51z" />
    <glyph glyph-name="Ydieresis" unicode="&#x178;" horiz-adv-x="1349" 
d="M85 0zM554 67v512l-462 745q-7 11 -7 24q0 20 22 32.5t64 12.5h86q52 0 76 -17t39 -49l319 -551l314 551q15 33 39.5 49.5t77.5 16.5h56q42 0 64 -13t22 -34q0 -11 -6 -22l-455 -740v-517q0 -67 -101 -67h-47q-101 0 -101 67zM443 1545q-33 32 -33 85t33 84.5t86 31.5
q52 0 85 -31.5t33 -84.5t-33 -85t-85 -32q-53 0 -86 32zM769 1545q-33 32 -33 85t33 84.5t86 31.5q52 0 84.5 -31.5t32.5 -84.5t-32.5 -85t-84.5 -32q-53 0 -86 32z" />
    <glyph glyph-name="Ygrave" unicode="&#x1ef2;" horiz-adv-x="1349" 
d="M85 0zM554 67v512l-462 745q-7 11 -7 24q0 20 22 32.5t64 12.5h86q52 0 76 -17t39 -49l319 -551l314 551q15 33 39.5 49.5t77.5 16.5h56q42 0 64 -13t22 -34q0 -11 -6 -22l-455 -740v-517q0 -67 -101 -67h-47q-101 0 -101 67zM709 1498q-35 0 -66 16t-73 54l-119 109
q-24 23 -24 46q0 19 17 31.5t46 12.5h73q28 0 48.5 -10.5t40.5 -33.5l128 -138q26 -27 26 -50q0 -17 -13 -27t-35 -10h-49z" />
    <glyph glyph-name="Z" unicode="Z" horiz-adv-x="1216" 
d="M115.5 32.5q-34.5 32.5 -34.5 93.5q0 42 12.5 74t44.5 76l683 902q7 8 7 17q0 7 -6 11.5t-16 4.5h-658q-25 0 -40.5 18t-15.5 59v30q0 40 15.5 57.5t40.5 17.5h827q65 0 101.5 -32.5t36.5 -95.5q0 -42 -12.5 -73t-44.5 -76l-678 -901q-8 -11 -8 -19q0 -15 21 -15h688
q25 0 40.5 -17.5t15.5 -58.5v-31q0 -74 -56 -74h-870q-59 0 -93.5 32.5z" />
    <glyph glyph-name="Zacute" unicode="&#x179;" horiz-adv-x="1216" 
d="M81 0zM115.5 32.5q-34.5 32.5 -34.5 93.5q0 42 12.5 74t44.5 76l683 902q7 8 7 17q0 7 -6 11.5t-16 4.5h-658q-25 0 -40.5 18t-15.5 59v30q0 40 15.5 57.5t40.5 17.5h827q65 0 101.5 -32.5t36.5 -95.5q0 -42 -12.5 -73t-44.5 -76l-678 -901q-8 -11 -8 -19q0 -15 21 -15
h688q25 0 40.5 -17.5t15.5 -58.5v-31q0 -74 -56 -74h-870q-59 0 -93.5 32.5zM516.5 1508.5q-13.5 10.5 -13.5 27.5q0 23 25 49l128 138q20 23 40.5 33.5t48.5 10.5h73q29 0 46 -12.5t17 -31.5q0 -23 -24 -46l-119 -109q-42 -38 -72 -54t-65 -16h-49q-22 0 -35.5 10.5z" />
    <glyph glyph-name="Zcaron" unicode="&#x17d;" horiz-adv-x="1216" 
d="M81 0zM115.5 32.5q-34.5 32.5 -34.5 93.5q0 42 12.5 74t44.5 76l683 902q7 8 7 17q0 7 -6 11.5t-16 4.5h-658q-25 0 -40.5 18t-15.5 59v30q0 40 15.5 57.5t40.5 17.5h827q65 0 101.5 -32.5t36.5 -95.5q0 -42 -12.5 -73t-44.5 -76l-678 -901q-8 -11 -8 -19q0 -15 21 -15
h688q25 0 40.5 -17.5t15.5 -58.5v-31q0 -74 -56 -74h-870q-59 0 -93.5 32.5zM911 1756.5q15 -10.5 15 -28.5q0 -23 -26 -51l-132 -136q-19 -22 -40 -32t-48 -10h-123q-27 0 -47.5 10t-40.5 32l-133 136q-23 24 -23 48q0 19 16 30.5t45 11.5h23q35 0 56.5 -7.5t40 -23.5
t54.5 -54l71 -75l70 75q34 37 54 53.5t42 24t57 7.5h26q28 0 43 -10.5z" />
    <glyph glyph-name="Zdotaccent" unicode="&#x17b;" horiz-adv-x="1216" 
d="M81 0zM115.5 32.5q-34.5 32.5 -34.5 93.5q0 42 12.5 74t44.5 76l683 902q7 8 7 17q0 7 -6 11.5t-16 4.5h-658q-25 0 -40.5 18t-15.5 59v30q0 40 15.5 57.5t40.5 17.5h827q65 0 101.5 -32.5t36.5 -95.5q0 -42 -12.5 -73t-44.5 -76l-678 -901q-8 -11 -8 -19q0 -15 21 -15
h688q25 0 40.5 -17.5t15.5 -58.5v-31q0 -74 -56 -74h-870q-59 0 -93.5 32.5zM526 1548q-36 35 -36 94q0 57 36 92t94 35t94 -35t36 -92q0 -59 -36 -94t-94 -35t-94 35z" />
    <glyph glyph-name="a" unicode="a" horiz-adv-x="1032" 
d="M840 894.5q94 -84.5 94 -247.5v-358q0 -159 -101.5 -234t-320.5 -75t-322.5 72t-103.5 214v20q0 142 100.5 210.5t313.5 79.5l220 12v33q0 93 -48 136.5t-152 43.5q-62 0 -134.5 -13.5t-130.5 -35.5l-56 -22q-11 -4 -22 -4q-14 0 -23.5 10t-14.5 32l-15 60q-3 12 -3 23
q0 28 32 41l68 26q147 61 319 61q206 0 300 -84.5zM671.5 162.5q48.5 40.5 48.5 127.5v162l-181 -11q-123 -7 -178 -41.5t-55 -110.5v-19q0 -76 46 -112t160 -36q111 0 159.5 40.5z" />
    <glyph glyph-name="aacute" unicode="&#xe1;" horiz-adv-x="1032" 
d="M86 0zM840 894.5q94 -84.5 94 -247.5v-358q0 -159 -101.5 -234t-320.5 -75t-322.5 72t-103.5 214v20q0 142 100.5 210.5t313.5 79.5l220 12v33q0 93 -48 136.5t-152 43.5q-62 0 -134.5 -13.5t-130.5 -35.5l-56 -22q-11 -4 -22 -4q-14 0 -23.5 10t-14.5 32l-15 60
q-3 12 -3 23q0 28 32 41l68 26q147 61 319 61q206 0 300 -84.5zM671.5 162.5q48.5 40.5 48.5 127.5v162l-181 -11q-123 -7 -178 -41.5t-55 -110.5v-19q0 -76 46 -112t160 -36q111 0 159.5 40.5zM434.5 1134.5q-13.5 10.5 -13.5 27.5q0 23 25 49l128 138q20 23 40.5 33.5
t48.5 10.5h73q29 0 46 -12.5t17 -31.5q0 -23 -24 -46l-119 -109q-42 -38 -72 -54t-65 -16h-49q-22 0 -35.5 10.5z" />
    <glyph glyph-name="abreve" unicode="&#x103;" horiz-adv-x="1032" 
d="M86 0zM840 894.5q94 -84.5 94 -247.5v-358q0 -159 -101.5 -234t-320.5 -75t-322.5 72t-103.5 214v20q0 142 100.5 210.5t313.5 79.5l220 12v33q0 93 -48 136.5t-152 43.5q-62 0 -134.5 -13.5t-130.5 -35.5l-56 -22q-11 -4 -22 -4q-14 0 -23.5 10t-14.5 32l-15 60
q-3 12 -3 23q0 28 32 41l68 26q147 61 319 61q206 0 300 -84.5zM671.5 162.5q48.5 40.5 48.5 127.5v162l-181 -11q-123 -7 -178 -41.5t-55 -110.5v-19q0 -76 46 -112t160 -36q111 0 159.5 40.5zM360.5 1140.5q-72.5 34.5 -108.5 93.5t-36 134q0 40 14.5 62.5t37.5 22.5
q21 0 33 -14t28 -47q19 -39 39 -66t61.5 -46.5t108.5 -19.5t108.5 19.5t61.5 46.5t39 66q16 33 28 47t33 14q23 0 37.5 -22.5t14.5 -62.5q0 -75 -36 -134t-108.5 -93.5t-177.5 -34.5t-177.5 34.5z" />
    <glyph glyph-name="acircumflex" unicode="&#xe2;" horiz-adv-x="1032" 
d="M86 0zM840 894.5q94 -84.5 94 -247.5v-358q0 -159 -101.5 -234t-320.5 -75t-322.5 72t-103.5 214v20q0 142 100.5 210.5t313.5 79.5l220 12v33q0 93 -48 136.5t-152 43.5q-62 0 -134.5 -13.5t-130.5 -35.5l-56 -22q-11 -4 -22 -4q-14 0 -23.5 10t-14.5 32l-15 60
q-3 12 -3 23q0 28 32 41l68 26q147 61 319 61q206 0 300 -84.5zM671.5 162.5q48.5 40.5 48.5 127.5v162l-181 -11q-123 -7 -178 -41.5t-55 -110.5v-19q0 -76 46 -112t160 -36q111 0 159.5 40.5zM844 1164q0 -18 -15 -28.5t-43 -10.5h-26q-35 0 -57 7.5t-42 24t-54 53.5
l-70 75l-71 -75q-35 -38 -54 -54t-40.5 -23.5t-56.5 -7.5h-23q-29 0 -45 11.5t-16 30.5q0 24 23 48l133 136q20 22 40.5 32t47.5 10h123q27 0 48 -10t40 -32l132 -136q26 -28 26 -51z" />
    <glyph glyph-name="adieresis" unicode="&#xe4;" horiz-adv-x="1032" 
d="M86 0zM840 894.5q94 -84.5 94 -247.5v-358q0 -159 -101.5 -234t-320.5 -75t-322.5 72t-103.5 214v20q0 142 100.5 210.5t313.5 79.5l220 12v33q0 93 -48 136.5t-152 43.5q-62 0 -134.5 -13.5t-130.5 -35.5l-56 -22q-11 -4 -22 -4q-14 0 -23.5 10t-14.5 32l-15 60
q-3 12 -3 23q0 28 32 41l68 26q147 61 319 61q206 0 300 -84.5zM671.5 162.5q48.5 40.5 48.5 127.5v162l-181 -11q-123 -7 -178 -41.5t-55 -110.5v-19q0 -76 46 -112t160 -36q111 0 159.5 40.5zM290 1171q-33 32 -33 85t33 84.5t86 31.5q52 0 85 -31.5t33 -84.5t-33 -85
t-85 -32q-53 0 -86 32zM616 1171q-33 32 -33 85t33 84.5t86 31.5q52 0 84.5 -31.5t32.5 -84.5t-32.5 -85t-84.5 -32q-53 0 -86 32z" />
    <glyph glyph-name="agrave" unicode="&#xe0;" horiz-adv-x="1032" 
d="M86 0zM840 894.5q94 -84.5 94 -247.5v-358q0 -159 -101.5 -234t-320.5 -75t-322.5 72t-103.5 214v20q0 142 100.5 210.5t313.5 79.5l220 12v33q0 93 -48 136.5t-152 43.5q-62 0 -134.5 -13.5t-130.5 -35.5l-56 -22q-11 -4 -22 -4q-14 0 -23.5 10t-14.5 32l-15 60
q-3 12 -3 23q0 28 32 41l68 26q147 61 319 61q206 0 300 -84.5zM671.5 162.5q48.5 40.5 48.5 127.5v162l-181 -11q-123 -7 -178 -41.5t-55 -110.5v-19q0 -76 46 -112t160 -36q111 0 159.5 40.5zM556 1124q-35 0 -66 16t-73 54l-119 109q-24 23 -24 46q0 19 17 31.5t46 12.5
h73q28 0 48.5 -10.5t40.5 -33.5l128 -138q26 -27 26 -50q0 -17 -13 -27t-35 -10h-49z" />
    <glyph glyph-name="amacron" unicode="&#x101;" horiz-adv-x="1032" 
d="M86 0zM840 894.5q94 -84.5 94 -247.5v-358q0 -159 -101.5 -234t-320.5 -75t-322.5 72t-103.5 214v20q0 142 100.5 210.5t313.5 79.5l220 12v33q0 93 -48 136.5t-152 43.5q-62 0 -134.5 -13.5t-130.5 -35.5l-56 -22q-11 -4 -22 -4q-14 0 -23.5 10t-14.5 32l-15 60
q-3 12 -3 23q0 28 32 41l68 26q147 61 319 61q206 0 300 -84.5zM671.5 162.5q48.5 40.5 48.5 127.5v162l-181 -11q-123 -7 -178 -41.5t-55 -110.5v-19q0 -76 46 -112t160 -36q111 0 159.5 40.5zM225 1263v27q0 35 14 50.5t37 15.5h525q22 0 36 -15.5t14 -50.5v-27
q0 -35 -14 -50t-36 -15h-525q-51 0 -51 65z" />
    <glyph glyph-name="aogonek" unicode="&#x105;" horiz-adv-x="1032" 
d="M897 127q-37 -65 -114 -101v-1q-69 -25 -115.5 -67.5t-46.5 -94.5q0 -32 18.5 -47.5t57.5 -15.5q30 0 53.5 7t49.5 19q34 16 51 16q18 0 27 -11t9 -29q0 -33 -32.5 -63.5t-86.5 -48.5t-115 -18q-89 0 -140 38.5t-51 110.5q0 48 26.5 88.5t70.5 71.5q-15 -1 -47 -1
q-219 0 -322.5 72t-103.5 214v20q0 142 100.5 210.5t313.5 79.5l220 12v33q0 93 -48 136.5t-152 43.5q-62 0 -134.5 -13.5t-130.5 -35.5l-56 -22q-11 -4 -22 -4q-14 0 -23.5 10t-14.5 32l-15 60q-3 12 -3 23q0 28 32 41l68 26q147 61 319 61q206 0 300 -84.5t94 -247.5v-358
q0 -97 -37 -162zM352 158q46 -36 160 -36q111 0 159.5 40.5t48.5 127.5v162l-181 -11q-123 -7 -178 -41.5t-55 -110.5v-19q0 -76 46 -112z" />
    <glyph glyph-name="aring" unicode="&#xe5;" horiz-adv-x="1032" 
d="M86 0zM840 894.5q94 -84.5 94 -247.5v-358q0 -159 -101.5 -234t-320.5 -75t-322.5 72t-103.5 214v20q0 142 100.5 210.5t313.5 79.5l220 12v33q0 93 -48 136.5t-152 43.5q-62 0 -134.5 -13.5t-130.5 -35.5l-56 -22q-11 -4 -22 -4q-14 0 -23.5 10t-14.5 32l-15 60
q-3 12 -3 23q0 28 32 41l68 26q147 61 319 61q206 0 300 -84.5zM671.5 162.5q48.5 40.5 48.5 127.5v162l-181 -11q-123 -7 -178 -41.5t-55 -110.5v-19q0 -76 46 -112t160 -36q111 0 159.5 40.5zM418 1114q-52 27 -80.5 74.5t-28.5 106.5q0 60 28.5 107.5t80.5 74.5t119 27
q68 0 120 -27t80 -74.5t28 -107.5q0 -59 -28 -106.5t-80 -74.5t-120 -27q-67 0 -119 27zM615.5 1220.5q29.5 29.5 29.5 75.5q0 44 -30 74t-76 30t-75 -30t-29 -74q0 -47 29 -76t75 -29q47 0 76.5 29.5z" />
    <glyph glyph-name="atilde" unicode="&#xe3;" horiz-adv-x="1032" 
d="M86 0zM840 894.5q94 -84.5 94 -247.5v-358q0 -159 -101.5 -234t-320.5 -75t-322.5 72t-103.5 214v20q0 142 100.5 210.5t313.5 79.5l220 12v33q0 93 -48 136.5t-152 43.5q-62 0 -134.5 -13.5t-130.5 -35.5l-56 -22q-11 -4 -22 -4q-14 0 -23.5 10t-14.5 32l-15 60
q-3 12 -3 23q0 28 32 41l68 26q147 61 319 61q206 0 300 -84.5zM671.5 162.5q48.5 40.5 48.5 127.5v162l-181 -11q-123 -7 -178 -41.5t-55 -110.5v-19q0 -76 46 -112t160 -36q111 0 159.5 40.5zM200.5 1170q-17.5 23 -17.5 63q0 45 24 84.5t71 64t114 24.5q60 0 100 -16.5
t89 -47.5q36 -23 59 -33.5t52 -10.5q38 0 54.5 16t28.5 45q10 24 20.5 35.5t33.5 11.5q27 0 44 -23t17 -63q0 -45 -23.5 -84.5t-70 -64t-113.5 -24.5q-55 0 -93 15.5t-82 44.5q-37 24 -64 36t-62 12q-38 0 -54 -15t-29 -45q-10 -24 -21 -36t-34 -12q-26 0 -43.5 23z" />
    <glyph glyph-name="ae" unicode="&#xe6;" horiz-adv-x="1678" 
d="M1571 113q3 -12 3 -22q0 -27 -29 -39l-62 -25q-117 -47 -276 -47q-215 0 -340 106q-49 -54 -136.5 -80t-218.5 -26q-219 0 -322.5 72t-103.5 214v20q0 142 100.5 211t313.5 79l223 12v33q0 93 -49.5 136.5t-156.5 43.5q-60 0 -131.5 -14.5t-130.5 -35.5l-56 -21
q-12 -4 -23 -4q-14 0 -23 9.5t-14 31.5l-15 61q-3 12 -3 23q0 28 32 41l68 26q147 61 319 61q228 0 324 -108q59 53 141 80.5t181 27.5q130 0 221.5 -37t138.5 -105t47 -162q0 -103 -46.5 -163.5t-138.5 -87.5t-239 -32l-227 -6q21 -116 103.5 -170.5t203.5 -54.5
q50 0 104 9t96 24l50 19q11 4 20 4q12 0 20 -9t14 -30zM1000.5 744.5q-63.5 -70.5 -65.5 -226.5l186 5q98 2 154 11t89.5 38.5t33.5 89.5q0 70 -50 111.5t-157 41.5q-127 0 -190.5 -70.5zM674.5 161.5q48.5 40.5 48.5 128.5v163l-184 -11q-122 -6 -177.5 -41t-55.5 -112v-19
q0 -77 46 -113t160 -36t162.5 40.5z" />
    <glyph glyph-name="b" unicode="b" horiz-adv-x="1109" 
d="M917 861.5q107 -117.5 107 -360.5v-43q0 -247 -113 -362.5t-349 -115.5q-235 0 -345.5 116t-110.5 362v875q0 60 87 60h55q44 0 63 -15.5t19 -44.5v-438q95 84 266 84q214 0 321 -117.5zM802 501q0 118 -23.5 186t-75 98t-140.5 30q-86 0 -136.5 -30t-73.5 -98.5
t-23 -186.5v-41q0 -118 22.5 -186.5t73 -98.5t137.5 -30q89 0 140.5 30t75 98t23.5 186v43z" />
    <glyph glyph-name="c" unicode="c" horiz-adv-x="971" 
d="M204.5 93q-118.5 113 -118.5 367v38q0 254 118.5 367.5t334.5 113.5q145 0 264 -48l58 -23q33 -13 33 -43q0 -6 -4 -24l-17 -58q-5 -22 -13 -33t-23 -11q-8 0 -17 3l-52 19q-87 31 -185 31q-132 0 -200 -67.5t-68 -226.5v-38q0 -159 68 -226t200 -67q98 0 185 31l52 19
q9 3 17 3q15 0 23 -11t13 -33l17 -58q4 -18 4 -24q0 -30 -33 -43l-58 -23q-119 -48 -264 -48q-216 0 -334.5 113z" />
    <glyph glyph-name="cacute" unicode="&#x107;" horiz-adv-x="971" 
d="M86 0zM204.5 93q-118.5 113 -118.5 367v38q0 254 118.5 367.5t334.5 113.5q145 0 264 -48l58 -23q33 -13 33 -43q0 -6 -4 -24l-17 -58q-5 -22 -13 -33t-23 -11q-8 0 -17 3l-52 19q-87 31 -185 31q-132 0 -200 -67.5t-68 -226.5v-38q0 -159 68 -226t200 -67q98 0 185 31
l52 19q9 3 17 3q15 0 23 -11t13 -33l17 -58q4 -18 4 -24q0 -30 -33 -43l-58 -23q-119 -48 -264 -48q-216 0 -334.5 113zM431.5 1134.5q-13.5 10.5 -13.5 27.5q0 23 25 49l128 138q20 23 40.5 33.5t48.5 10.5h73q29 0 46 -12.5t17 -31.5q0 -23 -24 -46l-119 -109
q-42 -38 -72 -54t-65 -16h-49q-22 0 -35.5 10.5z" />
    <glyph glyph-name="ccaron" unicode="&#x10d;" horiz-adv-x="971" 
d="M86 0zM204.5 93q-118.5 113 -118.5 367v38q0 254 118.5 367.5t334.5 113.5q145 0 264 -48l58 -23q33 -13 33 -43q0 -6 -4 -24l-17 -58q-5 -22 -13 -33t-23 -11q-8 0 -17 3l-52 19q-87 31 -185 31q-132 0 -200 -67.5t-68 -226.5v-38q0 -159 68 -226t200 -67q98 0 185 31
l52 19q9 3 17 3q15 0 23 -11t13 -33l17 -58q4 -18 4 -24q0 -30 -33 -43l-58 -23q-119 -48 -264 -48q-216 0 -334.5 113zM826 1382.5q15 -10.5 15 -28.5q0 -23 -26 -51l-132 -136q-19 -22 -40 -32t-48 -10h-123q-27 0 -47.5 10t-40.5 32l-133 136q-23 24 -23 48q0 19 16 30.5
t45 11.5h23q35 0 56.5 -7.5t40 -23.5t54.5 -54l71 -75l70 75q34 37 54 53.5t42 24t57 7.5h26q28 0 43 -10.5z" />
    <glyph glyph-name="ccedilla" unicode="&#xe7;" horiz-adv-x="971" 
d="M890 118q4 -18 4 -24q0 -30 -33 -43l-58 -23q-94 -38 -200 -45l-12 -22q-11 -18 -11 -32q0 -18 15.5 -26.5t49.5 -18.5q39 -11 63.5 -23t43 -39t18.5 -73q0 -77 -64 -120t-183 -43q-61 0 -113.5 19t-83.5 48.5t-31 59.5q0 19 9 29.5t26 10.5q11 0 21.5 -4t30.5 -14
q30 -16 59 -25t69 -9q102 0 102 58q0 26 -19.5 38.5t-58.5 24.5q-44 13 -66 28t-22 49q0 16 5 29t16 30l15 24q-396 28 -396 478v38q0 254 118.5 367.5t334.5 113.5q145 0 264 -48l58 -23q33 -13 33 -43q0 -6 -4 -24l-17 -58q-5 -22 -13 -33t-23 -11q-8 0 -17 3l-52 19
q-87 31 -185 31q-132 0 -200 -67.5t-68 -226.5v-38q0 -159 68 -226t200 -67q98 0 185 31l52 19q9 3 17 3q15 0 23 -11t13 -33z" />
    <glyph glyph-name="cdotaccent" unicode="&#x10b;" horiz-adv-x="971" 
d="M86 0zM204.5 93q-118.5 113 -118.5 367v38q0 254 118.5 367.5t334.5 113.5q145 0 264 -48l58 -23q33 -13 33 -43q0 -6 -4 -24l-17 -58q-5 -22 -13 -33t-23 -11q-8 0 -17 3l-52 19q-87 31 -185 31q-132 0 -200 -67.5t-68 -226.5v-38q0 -159 68 -226t200 -67q98 0 185 31
l52 19q9 3 17 3q15 0 23 -11t13 -33l17 -58q4 -18 4 -24q0 -30 -33 -43l-58 -23q-119 -48 -264 -48q-216 0 -334.5 113zM441 1174q-36 35 -36 94q0 57 36 92t94 35t94 -35t36 -92q0 -59 -36 -94t-94 -35t-94 35z" />
    <glyph glyph-name="d" unicode="d" horiz-adv-x="1114" 
d="M1008 1335v-877q0 -245 -111.5 -361.5t-344.5 -116.5q-240 0 -353 115t-113 363v43q0 244 107 361t324 117q171 0 267 -84v440q0 59 92 59h43q89 0 89 -59zM784 500q0 119 -22.5 187t-73 98t-138.5 30t-139.5 -30t-75 -98t-23.5 -186v-43q0 -118 23.5 -186t75 -98
t139.5 -30t138.5 30t73 98t22.5 187v41z" />
    <glyph glyph-name="eth" unicode="&#xf0;" horiz-adv-x="1089" 
d="M943 881.5q60 -164.5 60 -355.5v-68q0 -246 -110.5 -362t-344.5 -116q-237 0 -349.5 115t-112.5 363v43q0 243 106.5 360.5t320.5 117.5q98 0 174 -28q-35 76 -86 153l-165 -62q-19 -6 -35 -6q-23 0 -35.5 13t-12.5 38v13q0 62 59 83l101 38q-46 54 -97 101
q-18 17 -18 37q0 15 11.5 24.5t29.5 9.5h107q32 0 58 -11.5t51 -37.5q28 -28 48 -51l204 76q18 7 36 7q22 0 34.5 -13.5t12.5 -37.5v-13q0 -62 -59 -83l-138 -52q90 -131 150 -295.5zM783 487q0 123 -22.5 193.5t-73.5 101.5t-141 31q-88 0 -139.5 -29.5t-74.5 -97
t-23 -185.5v-43q0 -118 23 -185.5t74.5 -97t139.5 -29.5q89 0 140 29.5t74 97.5t23 186v28z" />
    <glyph glyph-name="dcaron" unicode="&#x10f;" horiz-adv-x="1378" 
d="M1348 1400q15 -13 15 -38q0 -13 -2 -21l-84 -334q-13 -57 -73 -57h-38q-29 0 -45 13.5t-16 38.5q0 5 2 19l67 334q10 58 71 58h59q29 0 44 -13zM1008 1335v-877q0 -245 -111.5 -361.5t-344.5 -116.5q-240 0 -353 115t-113 363v43q0 244 107 361t324 117q171 0 267 -84
v440q0 59 92 59h43q89 0 89 -59zM784 500q0 119 -22.5 187t-73 98t-138.5 30t-139.5 -30t-75 -98t-23.5 -186v-43q0 -118 23.5 -186t75 -98t139.5 -30t138.5 30t73 98t22.5 187v41z" />
    <glyph glyph-name="dcroat" unicode="&#x111;" horiz-adv-x="1114" 
d="M1083 1205.5q16 -16.5 16 -46.5v-17q0 -30 -16 -46t-46 -16h-29v-622q0 -245 -111.5 -361.5t-344.5 -116.5q-240 0 -353 115t-113 363v43q0 244 107 361t324 117q171 0 267 -84v185h-234q-30 0 -46 16t-16 46v17q0 30 16 46.5t46 16.5h234v113q0 59 92 59h43q89 0 89 -59
v-113h29q30 0 46 -16.5zM784 500q0 119 -22.5 187t-73 98t-138.5 30t-139.5 -30t-75 -98t-23.5 -186v-43q0 -118 23.5 -186t75 -98t139.5 -30t138.5 30t73 98t22.5 187v41z" />
    <glyph glyph-name="e" unicode="e" horiz-adv-x="1041" 
d="M934 113q4 -16 4 -22q0 -27 -30 -39l-62 -25q-117 -47 -276 -47q-223 0 -353.5 118.5t-130.5 362.5v37q0 155 56.5 263t160.5 163t246 55q130 0 221.5 -37t138.5 -105t47 -162q0 -103 -46.5 -163.5t-138.5 -87.5t-239 -32l-227 -6q21 -119 103 -173.5t204 -54.5
q51 0 105 8.5t95 24.5l50 18q11 4 21 4q12 0 19.5 -9t13.5 -30zM364 745q-64 -71 -66 -227l186 5q98 2 153.5 11t89 38.5t33.5 89.5q0 71 -49.5 112.5t-156.5 41.5q-126 0 -190 -71z" />
    <glyph glyph-name="eacute" unicode="&#xe9;" horiz-adv-x="1041" 
d="M86 0zM934 113q4 -16 4 -22q0 -27 -30 -39l-62 -25q-117 -47 -276 -47q-223 0 -353.5 118.5t-130.5 362.5v37q0 155 56.5 263t160.5 163t246 55q130 0 221.5 -37t138.5 -105t47 -162q0 -103 -46.5 -163.5t-138.5 -87.5t-239 -32l-227 -6q21 -119 103 -173.5t204 -54.5
q51 0 105 8.5t95 24.5l50 18q11 4 21 4q12 0 19.5 -9t13.5 -30zM364 745q-64 -71 -66 -227l186 5q98 2 153.5 11t89 38.5t33.5 89.5q0 71 -49.5 112.5t-156.5 41.5q-126 0 -190 -71zM447.5 1134.5q-13.5 10.5 -13.5 27.5q0 23 25 49l128 138q20 23 40.5 33.5t48.5 10.5h73
q29 0 46 -12.5t17 -31.5q0 -23 -24 -46l-119 -109q-42 -38 -72 -54t-65 -16h-49q-22 0 -35.5 10.5z" />
    <glyph glyph-name="ecaron" unicode="&#x11b;" horiz-adv-x="1041" 
d="M86 0zM934 113q4 -16 4 -22q0 -27 -30 -39l-62 -25q-117 -47 -276 -47q-223 0 -353.5 118.5t-130.5 362.5v37q0 155 56.5 263t160.5 163t246 55q130 0 221.5 -37t138.5 -105t47 -162q0 -103 -46.5 -163.5t-138.5 -87.5t-239 -32l-227 -6q21 -119 103 -173.5t204 -54.5
q51 0 105 8.5t95 24.5l50 18q11 4 21 4q12 0 19.5 -9t13.5 -30zM364 745q-64 -71 -66 -227l186 5q98 2 153.5 11t89 38.5t33.5 89.5q0 71 -49.5 112.5t-156.5 41.5q-126 0 -190 -71zM842 1382.5q15 -10.5 15 -28.5q0 -23 -26 -51l-132 -136q-19 -22 -40 -32t-48 -10h-123
q-27 0 -47.5 10t-40.5 32l-133 136q-23 24 -23 48q0 19 16 30.5t45 11.5h23q35 0 56.5 -7.5t40 -23.5t54.5 -54l71 -75l70 75q34 37 54 53.5t42 24t57 7.5h26q28 0 43 -10.5z" />
    <glyph glyph-name="ecircumflex" unicode="&#xea;" horiz-adv-x="1041" 
d="M86 0zM934 113q4 -16 4 -22q0 -27 -30 -39l-62 -25q-117 -47 -276 -47q-223 0 -353.5 118.5t-130.5 362.5v37q0 155 56.5 263t160.5 163t246 55q130 0 221.5 -37t138.5 -105t47 -162q0 -103 -46.5 -163.5t-138.5 -87.5t-239 -32l-227 -6q21 -119 103 -173.5t204 -54.5
q51 0 105 8.5t95 24.5l50 18q11 4 21 4q12 0 19.5 -9t13.5 -30zM364 745q-64 -71 -66 -227l186 5q98 2 153.5 11t89 38.5t33.5 89.5q0 71 -49.5 112.5t-156.5 41.5q-126 0 -190 -71zM857 1164q0 -18 -15 -28.5t-43 -10.5h-26q-35 0 -57 7.5t-42 24t-54 53.5l-70 75l-71 -75
q-35 -38 -54 -54t-40.5 -23.5t-56.5 -7.5h-23q-29 0 -45 11.5t-16 30.5q0 24 23 48l133 136q20 22 40.5 32t47.5 10h123q27 0 48 -10t40 -32l132 -136q26 -28 26 -51z" />
    <glyph glyph-name="edieresis" unicode="&#xeb;" horiz-adv-x="1041" 
d="M86 0zM934 113q4 -16 4 -22q0 -27 -30 -39l-62 -25q-117 -47 -276 -47q-223 0 -353.5 118.5t-130.5 362.5v37q0 155 56.5 263t160.5 163t246 55q130 0 221.5 -37t138.5 -105t47 -162q0 -103 -46.5 -163.5t-138.5 -87.5t-239 -32l-227 -6q21 -119 103 -173.5t204 -54.5
q51 0 105 8.5t95 24.5l50 18q11 4 21 4q12 0 19.5 -9t13.5 -30zM364 745q-64 -71 -66 -227l186 5q98 2 153.5 11t89 38.5t33.5 89.5q0 71 -49.5 112.5t-156.5 41.5q-126 0 -190 -71zM303 1171q-33 32 -33 85t33 84.5t86 31.5q52 0 85 -31.5t33 -84.5t-33 -85t-85 -32
q-53 0 -86 32zM629 1171q-33 32 -33 85t33 84.5t86 31.5q52 0 84.5 -31.5t32.5 -84.5t-32.5 -85t-84.5 -32q-53 0 -86 32z" />
    <glyph glyph-name="edotaccent" unicode="&#x117;" horiz-adv-x="1041" 
d="M86 0zM934 113q4 -16 4 -22q0 -27 -30 -39l-62 -25q-117 -47 -276 -47q-223 0 -353.5 118.5t-130.5 362.5v37q0 155 56.5 263t160.5 163t246 55q130 0 221.5 -37t138.5 -105t47 -162q0 -103 -46.5 -163.5t-138.5 -87.5t-239 -32l-227 -6q21 -119 103 -173.5t204 -54.5
q51 0 105 8.5t95 24.5l50 18q11 4 21 4q12 0 19.5 -9t13.5 -30zM364 745q-64 -71 -66 -227l186 5q98 2 153.5 11t89 38.5t33.5 89.5q0 71 -49.5 112.5t-156.5 41.5q-126 0 -190 -71zM457 1174q-36 35 -36 94q0 57 36 92t94 35t94 -35t36 -92q0 -59 -36 -94t-94 -35t-94 35z
" />
    <glyph glyph-name="egrave" unicode="&#xe8;" horiz-adv-x="1041" 
d="M86 0zM934 113q4 -16 4 -22q0 -27 -30 -39l-62 -25q-117 -47 -276 -47q-223 0 -353.5 118.5t-130.5 362.5v37q0 155 56.5 263t160.5 163t246 55q130 0 221.5 -37t138.5 -105t47 -162q0 -103 -46.5 -163.5t-138.5 -87.5t-239 -32l-227 -6q21 -119 103 -173.5t204 -54.5
q51 0 105 8.5t95 24.5l50 18q11 4 21 4q12 0 19.5 -9t13.5 -30zM364 745q-64 -71 -66 -227l186 5q98 2 153.5 11t89 38.5t33.5 89.5q0 71 -49.5 112.5t-156.5 41.5q-126 0 -190 -71zM569 1124q-35 0 -66 16t-73 54l-119 109q-24 23 -24 46q0 19 17 31.5t46 12.5h73
q28 0 48.5 -10.5t40.5 -33.5l128 -138q26 -27 26 -50q0 -17 -13 -27t-35 -10h-49z" />
    <glyph glyph-name="emacron" unicode="&#x113;" horiz-adv-x="1041" 
d="M86 0zM934 113q4 -16 4 -22q0 -27 -30 -39l-62 -25q-117 -47 -276 -47q-223 0 -353.5 118.5t-130.5 362.5v37q0 155 56.5 263t160.5 163t246 55q130 0 221.5 -37t138.5 -105t47 -162q0 -103 -46.5 -163.5t-138.5 -87.5t-239 -32l-227 -6q21 -119 103 -173.5t204 -54.5
q51 0 105 8.5t95 24.5l50 18q11 4 21 4q12 0 19.5 -9t13.5 -30zM364 745q-64 -71 -66 -227l186 5q98 2 153.5 11t89 38.5t33.5 89.5q0 71 -49.5 112.5t-156.5 41.5q-126 0 -190 -71zM238 1263v27q0 35 14 50.5t37 15.5h525q22 0 36 -15.5t14 -50.5v-27q0 -35 -14 -50
t-36 -15h-525q-51 0 -51 65z" />
    <glyph glyph-name="eogonek" unicode="&#x119;" horiz-adv-x="1041" 
d="M966 -157q9 -11 9 -29q0 -33 -32.5 -63.5t-86.5 -48.5t-115 -18q-89 0 -140 38.5t-51 110.5q0 44 22.5 82t60.5 67q-42 -2 -63 -2q-223 0 -353.5 118.5t-130.5 362.5v37q0 155 56.5 263t160.5 163t246 55q130 0 221.5 -37t138.5 -105t47 -162q0 -103 -46.5 -163.5
t-138.5 -87.5t-239 -32l-227 -6q21 -119 103 -173.5t204 -54.5q51 0 105 8.5t95 24.5l50 18q11 4 21 4q12 0 19.5 -9t13.5 -30l18 -61q4 -16 4 -22q0 -27 -30 -39l-37 -15l-2 -1l-23 -9h-1q-59 -26 -97.5 -65.5t-38.5 -86.5q0 -32 18.5 -47.5t57.5 -15.5q30 0 53.5 7
t49.5 19q34 16 51 16q18 0 27 -11zM364 745q-64 -71 -66 -227l186 5q98 2 153.5 11t89 38.5t33.5 89.5q0 71 -49.5 112.5t-156.5 41.5q-126 0 -190 -71z" />
    <glyph glyph-name="f" unicode="f" horiz-adv-x="746" 
d="M730 1377.5q14 -15.5 14 -50.5v-45q0 -65 -50 -65h-40q-119 0 -176.5 -55t-57.5 -178v-25h242q22 0 36 -15.5t14 -50.5v-27q0 -35 -14 -50t-36 -15h-242v-741q0 -60 -90 -60h-45q-89 0 -89 60v741h-107q-23 0 -37 15.5t-14 50.5v26q0 66 51 66h107v27q0 126 48.5 217.5
t142.5 140.5t229 49h78q22 0 36 -15.5z" />
    <glyph glyph-name="g" unicode="g" horiz-adv-x="1113" 
d="M1060 893v-24q0 -66 -50 -66h-111q39 -64 39 -152q0 -103 -41 -170t-134 -101t-246 -34h-99q-35 0 -55 -18.5t-20 -45.5q0 -31 24.5 -48t79.5 -21l218 -13q199 -11 286 -77.5t87 -197.5q0 -95 -56 -166t-163.5 -109.5t-258.5 -38.5q-231 0 -360 75t-129 219
q0 79 48.5 129.5t130.5 66.5q-75 46 -75 131q0 48 26 85.5t76 59.5q-95 33 -137.5 100.5t-42.5 173.5q0 152 100 230t325 78h1h487q50 0 50 -66zM647 491.5q45 17.5 63.5 55t18.5 100.5t-18.5 100t-64 55t-126.5 18q-80 0 -125.5 -18.5t-65 -56t-19.5 -98.5q0 -63 19 -100.5
t64.5 -55t126.5 -17.5q82 0 127 17.5zM403 57q-71 0 -108.5 -35.5t-37.5 -91.5q0 -90 83 -130t229 -40q131 0 193.5 38.5t62.5 109.5q0 42 -17.5 66.5t-64.5 40t-138 24.5z" />
    <glyph glyph-name="gbreve" unicode="&#x11f;" horiz-adv-x="1113" 
d="M71 0zM1060 893v-24q0 -66 -50 -66h-111q39 -64 39 -152q0 -103 -41 -170t-134 -101t-246 -34h-99q-35 0 -55 -18.5t-20 -45.5q0 -31 24.5 -48t79.5 -21l218 -13q199 -11 286 -77.5t87 -197.5q0 -95 -56 -166t-163.5 -109.5t-258.5 -38.5q-231 0 -360 75t-129 219
q0 79 48.5 129.5t130.5 66.5q-75 46 -75 131q0 48 26 85.5t76 59.5q-95 33 -137.5 100.5t-42.5 173.5q0 152 100 230t325 78h1h487q50 0 50 -66zM647 491.5q45 17.5 63.5 55t18.5 100.5t-18.5 100t-64 55t-126.5 18q-80 0 -125.5 -18.5t-65 -56t-19.5 -98.5q0 -63 19 -100.5
t64.5 -55t126.5 -17.5q82 0 127 17.5zM403 57q-71 0 -108.5 -35.5t-37.5 -91.5q0 -90 83 -130t229 -40q131 0 193.5 38.5t62.5 109.5q0 42 -17.5 66.5t-64.5 40t-138 24.5zM372.5 1140.5q-72.5 34.5 -108.5 93.5t-36 134q0 40 14.5 62.5t37.5 22.5q21 0 33 -14t28 -47
q19 -39 39 -66t61.5 -46.5t108.5 -19.5t108.5 19.5t61.5 46.5t39 66q16 33 28 47t33 14q23 0 37.5 -22.5t14.5 -62.5q0 -75 -36 -134t-108.5 -93.5t-177.5 -34.5t-177.5 34.5z" />
    <glyph glyph-name="gcommaaccent" unicode="&#x123;" horiz-adv-x="1113" 
d="M482 1124.5q-15 12.5 -15 34.5q0 11 5 28l69 206q18 54 73 54h62q29 0 44.5 -13t15.5 -37q0 -10 -3 -22l-58 -208q-14 -55 -74 -55h-77q-27 0 -42 12.5zM1060 893v-24q0 -66 -50 -66h-111q39 -64 39 -152q0 -103 -41 -170t-134 -101t-246 -34h-99q-35 0 -55 -18.5
t-20 -45.5q0 -31 24.5 -48t79.5 -21l218 -13q199 -11 286 -77.5t87 -197.5q0 -95 -56 -166t-163.5 -109.5t-258.5 -38.5q-231 0 -360 75t-129 219q0 79 48.5 129.5t130.5 66.5q-75 46 -75 131q0 48 26 85.5t76 59.5q-95 33 -137.5 100.5t-42.5 173.5q0 152 100 230t325 78h1
h487q50 0 50 -66zM647 491.5q45 17.5 63.5 55t18.5 100.5t-18.5 100t-64 55t-126.5 18q-80 0 -125.5 -18.5t-65 -56t-19.5 -98.5q0 -63 19 -100.5t64.5 -55t126.5 -17.5q82 0 127 17.5zM403 57q-71 0 -108.5 -35.5t-37.5 -91.5q0 -90 83 -130t229 -40q131 0 193.5 38.5
t62.5 109.5q0 42 -17.5 66.5t-64.5 40t-138 24.5z" />
    <glyph glyph-name="gdotaccent" unicode="&#x121;" horiz-adv-x="1113" 
d="M71 0zM1060 893v-24q0 -66 -50 -66h-111q39 -64 39 -152q0 -103 -41 -170t-134 -101t-246 -34h-99q-35 0 -55 -18.5t-20 -45.5q0 -31 24.5 -48t79.5 -21l218 -13q199 -11 286 -77.5t87 -197.5q0 -95 -56 -166t-163.5 -109.5t-258.5 -38.5q-231 0 -360 75t-129 219
q0 79 48.5 129.5t130.5 66.5q-75 46 -75 131q0 48 26 85.5t76 59.5q-95 33 -137.5 100.5t-42.5 173.5q0 152 100 230t325 78h1h487q50 0 50 -66zM647 491.5q45 17.5 63.5 55t18.5 100.5t-18.5 100t-64 55t-126.5 18q-80 0 -125.5 -18.5t-65 -56t-19.5 -98.5q0 -63 19 -100.5
t64.5 -55t126.5 -17.5q82 0 127 17.5zM403 57q-71 0 -108.5 -35.5t-37.5 -91.5q0 -90 83 -130t229 -40q131 0 193.5 38.5t62.5 109.5q0 42 -17.5 66.5t-64.5 40t-138 24.5zM456 1174q-36 35 -36 94q0 57 36 92t94 35t94 -35t36 -92q0 -59 -36 -94t-94 -35t-94 35z" />
    <glyph glyph-name="h" unicode="h" horiz-adv-x="1084" 
d="M884 883q95 -96 95 -286v-537q0 -60 -89 -60h-46q-89 0 -89 60v532q0 112 -46.5 163t-154.5 51q-114 0 -165.5 -51t-51.5 -163v-532q0 -60 -89 -60h-46q-89 0 -89 60v1273q0 60 89 60h46q89 0 89 -60v-417q97 63 250 63q202 0 297 -96z" />
    <glyph glyph-name="hbar" unicode="&#x127;" horiz-adv-x="1084" 
d="M918 883q95 -96 95 -286v-537q0 -60 -89 -60h-46q-89 0 -89 60v532q0 112 -46.5 163t-154.5 51q-114 0 -165.5 -51t-51.5 -163v-532q0 -60 -89 -60h-46q-89 0 -89 60v1020h-57q-30 0 -46 16t-16 46v17q0 30 16 46.5t46 16.5h57v111q0 60 89 60h46q89 0 89 -60v-111h394
q30 0 46 -16.5t16 -46.5v-17q0 -30 -16 -46t-46 -16h-394v-164q97 63 250 63q202 0 297 -96z" />
    <glyph glyph-name="i" unicode="i" horiz-adv-x="451" 
d="M135 1178q-35 34 -35 91q0 55 35 88.5t91 33.5q55 0 90 -33.5t35 -88.5q0 -57 -35 -91t-90 -34q-56 0 -91 34zM113 60v839q0 60 89 60h46q89 0 89 -60v-839q0 -60 -89 -60h-46q-89 0 -89 60z" />
    <glyph glyph-name="dotlessi" unicode="&#x131;" horiz-adv-x="451" 
d="M113 60v839q0 60 89 60h46q89 0 89 -60v-839q0 -60 -89 -60h-46q-89 0 -89 60z" />
    <glyph glyph-name="iacute" unicode="&#xed;" horiz-adv-x="451" 
d="M113 0zM113 60v839q0 60 89 60h46q89 0 89 -60v-839q0 -60 -89 -60h-46q-89 0 -89 60zM132.5 1134.5q-13.5 10.5 -13.5 27.5q0 23 25 49l128 138q20 23 40.5 33.5t48.5 10.5h73q29 0 46 -12.5t17 -31.5q0 -23 -24 -46l-119 -109q-42 -38 -72 -54t-65 -16h-49
q-22 0 -35.5 10.5z" />
    <glyph glyph-name="icircumflex" unicode="&#xee;" horiz-adv-x="451" 
d="M0 0zM113 60v839q0 60 89 60h46q89 0 89 -60v-839q0 -60 -89 -60h-46q-89 0 -89 60zM542 1164q0 -18 -15 -28.5t-43 -10.5h-26q-35 0 -57 7.5t-42 24t-54 53.5l-70 75l-71 -75q-35 -38 -54 -54t-40.5 -23.5t-56.5 -7.5h-23q-29 0 -45 11.5t-16 30.5q0 24 23 48l133 136
q20 22 40.5 32t47.5 10h123q27 0 48 -10t40 -32l132 -136q26 -28 26 -51z" />
    <glyph glyph-name="idieresis" unicode="&#xef;" horiz-adv-x="451" 
d="M0 0zM113 60v839q0 60 89 60h46q89 0 89 -60v-839q0 -60 -89 -60h-46q-89 0 -89 60zM-12 1171q-33 32 -33 85t33 84.5t86 31.5q52 0 85 -31.5t33 -84.5t-33 -85t-85 -32q-53 0 -86 32zM314 1171q-33 32 -33 85t33 84.5t86 31.5q52 0 84.5 -31.5t32.5 -84.5t-32.5 -85
t-84.5 -32q-53 0 -86 32z" />
    <glyph glyph-name="i.loclTRK" horiz-adv-x="451" 
d="M106 0zM113 60v839q0 60 89 60h46q89 0 89 -60v-839q0 -60 -89 -60h-46q-89 0 -89 60zM142 1174q-36 35 -36 94q0 57 36 92t94 35t94 -35t36 -92q0 -59 -36 -94t-94 -35t-94 35z" />
    <glyph glyph-name="igrave" unicode="&#xec;" horiz-adv-x="451" 
d="M0 0zM113 60v839q0 60 89 60h46q89 0 89 -60v-839q0 -60 -89 -60h-46q-89 0 -89 60zM254 1124q-35 0 -66 16t-73 54l-119 109q-24 23 -24 46q0 19 17 31.5t46 12.5h73q28 0 48.5 -10.5t40.5 -33.5l128 -138q26 -27 26 -50q0 -17 -13 -27t-35 -10h-49z" />
    <glyph glyph-name="imacron" unicode="&#x12b;" horiz-adv-x="451" 
d="M0 0zM113 60v839q0 60 89 60h46q89 0 89 -60v-839q0 -60 -89 -60h-46q-89 0 -89 60zM-77 1263v27q0 35 14 50.5t37 15.5h525q22 0 36 -15.5t14 -50.5v-27q0 -35 -14 -50t-36 -15h-525q-51 0 -51 65z" />
    <glyph glyph-name="iogonek" unicode="&#x12f;" horiz-adv-x="451" 
d="M142 1174q-36 35 -36 94q0 57 36 92t94 35t94 -35t36 -92q0 -59 -36 -94t-94 -35t-94 35zM403 -182q9 -11 9 -29q0 -33 -32.5 -63.5t-86.5 -48.5t-115 -18q-89 0 -140 38.5t-51 110.5q0 67 49.5 119t119.5 79q-43 12 -43 54v839q0 60 89 60h46q89 0 89 -60v-839
q0 -45 -50 -56q-62 -26 -101.5 -66t-39.5 -88q0 -32 18.5 -47.5t57.5 -15.5q30 0 53.5 7t49.5 19q34 16 51 16q18 0 27 -11z" />
    <glyph glyph-name="ij" unicode="&#x133;" horiz-adv-x="910" 
d="M100 0zM135 1178q-35 34 -35 91q0 55 35 88.5t91 33.5q55 0 90 -33.5t35 -88.5q0 -57 -35 -91t-90 -34q-56 0 -91 34zM113 60v839q0 60 89 60h46q89 0 89 -60v-839q0 -60 -89 -60h-46q-89 0 -89 60zM587.5 1178q-34.5 34 -34.5 91q0 55 34.5 88.5t90.5 33.5t90.5 -33.5
t34.5 -88.5q0 -57 -34.5 -91t-90.5 -34t-90.5 34zM376.5 -361q-37.5 28 -37.5 76v17q0 25 16.5 35.5t49.5 10.5q79 0 119 43t40 135v943q0 60 89 60h46q89 0 89 -60v-950q0 -108 -38.5 -184t-107 -115t-157.5 -39q-71 0 -108.5 28z" />
    <glyph glyph-name="j" unicode="j" horiz-adv-x="459" 
d="M136.5 1178q-34.5 34 -34.5 91q0 55 34.5 88.5t90.5 33.5t90.5 -33.5t34.5 -88.5q0 -57 -34.5 -91t-90.5 -34t-90.5 34zM-74.5 -361q-37.5 28 -37.5 76v17q0 25 16.5 35.5t49.5 10.5q79 0 119 43t40 135v943q0 60 89 60h46q89 0 89 -60v-950q0 -108 -38.5 -184t-107 -115
t-157.5 -39q-71 0 -108.5 28z" />
    <glyph glyph-name="k" unicode="k" horiz-adv-x="1042" 
d="M113 60v1273q0 60 89 60h46q89 0 89 -60v-1273q0 -60 -89 -60h-46q-89 0 -89 60zM699 61l-295 378q-15 21 -15 42t15 40l298 377q39 61 132 61h82q61 0 61 -29q0 -13 -14 -32l-362 -413l362 -424q14 -19 14 -32q0 -29 -61 -29h-85q-93 0 -132 61z" />
    <glyph glyph-name="kcommaaccent" unicode="&#x137;" horiz-adv-x="1042" 
d="M113 0zM113 60v1273q0 60 89 60h46q89 0 89 -60v-1273q0 -60 -89 -60h-46q-89 0 -89 60zM699 61l-295 378q-15 21 -15 42t15 40l298 377q39 61 132 61h82q61 0 61 -29q0 -13 -14 -32l-362 -413l362 -424q14 -19 14 -32q0 -29 -61 -29h-85q-93 0 -132 61zM364 -421.5
q-14 13.5 -14 38.5q0 14 4 27l54 193q7 30 28 46.5t53 16.5h61q31 0 48.5 -14t17.5 -38q0 -14 -6 -30l-57 -161q-17 -46 -38 -69t-52 -23h-61q-24 0 -38 13.5z" />
    <glyph glyph-name="l" unicode="l" horiz-adv-x="451" 
d="M113 60v1273q0 60 89 60h46q89 0 89 -60v-1273q0 -60 -89 -60h-46q-89 0 -89 60z" />
    <glyph glyph-name="lacute" unicode="&#x13a;" horiz-adv-x="451" 
d="M106 0zM113 60v1273q0 60 89 60h46q89 0 89 -60v-1273q0 -60 -89 -60h-46q-89 0 -89 60zM119.5 1508.5q-13.5 10.5 -13.5 27.5q0 23 25 49l128 138q20 23 40.5 33.5t48.5 10.5h73q29 0 46 -12.5t17 -31.5q0 -23 -24 -46l-119 -109q-42 -38 -72 -54t-65 -16h-49
q-22 0 -35.5 10.5z" />
    <glyph glyph-name="lcaron" unicode="&#x13e;" horiz-adv-x="531" 
d="M113 0zM113 60v1273q0 60 89 60h46q89 0 89 -60v-1273q0 -60 -89 -60h-46q-89 0 -89 60zM440.5 944q-15.5 14 -15.5 41q0 10 1 16l53 333q4 29 22.5 44t47.5 15h60q58 0 58 -52q0 -6 -2 -20l-68 -335q-11 -56 -72 -56h-40q-29 0 -44.5 14z" />
    <glyph glyph-name="lcommaaccent" unicode="&#x13c;" horiz-adv-x="451" 
d="M49 0zM113 60v1273q0 60 89 60h46q89 0 89 -60v-1273q0 -60 -89 -60h-46q-89 0 -89 60zM63 -421.5q-14 13.5 -14 38.5q0 14 4 27l54 193q7 30 28 46.5t53 16.5h61q31 0 48.5 -14t17.5 -38q0 -14 -6 -30l-57 -161q-17 -46 -38 -69t-52 -23h-61q-24 0 -38 13.5z" />
    <glyph glyph-name="ldot" unicode="&#x140;" horiz-adv-x="665" 
d="M113 60v1273q0 60 89 60h46q89 0 89 -60v-1273q0 -60 -89 -60h-46q-89 0 -89 60zM412 585q0 121 112 121q56 0 83.5 -29.5t27.5 -91.5t-28 -91t-84 -29q-111 0 -111 120z" />
    <glyph glyph-name="lslash" unicode="&#x142;" horiz-adv-x="451" 
d="M448.5 968q10.5 -13 10.5 -37v-50q0 -57 -50 -87l-72 -42v-692q0 -60 -89 -60h-46q-89 0 -89 60v561l-35 -21q-26 -15 -46 -15q-19 0 -30 13t-11 37v50q0 56 51 86l71 42v520q0 60 89 60h46q89 0 89 -60v-388l35 21q27 15 47 15q19 0 29.5 -13z" />
    <glyph glyph-name="m" unicode="m" horiz-adv-x="1644" 
d="M1538 597v-537q0 -60 -85 -60h-54q-85 0 -85 60v532q0 111 -45 161.5t-146 50.5q-71 0 -112.5 -22t-59 -68t-17.5 -122v-532q0 -60 -85 -60h-54q-85 0 -85 60v532q0 76 -17.5 122t-59 68t-112.5 22q-101 0 -146 -50.5t-45 -161.5v-532q0 -60 -88 -60h-51q-85 0 -85 60
v537q0 188 102.5 285t309.5 97q195 0 304 -97q109 97 304 97q412 0 412 -382z" />
    <glyph glyph-name="n" unicode="n" horiz-adv-x="1083" 
d="M106 49v550q0 188 108.5 284t327.5 96t327 -96t108 -284v-550q0 -59 -88 -59h-46q-89 0 -89 59v545q0 112 -49.5 162t-162.5 50q-114 0 -163 -50t-49 -162v-545q0 -59 -89 -59h-47q-88 0 -88 59z" />
    <glyph glyph-name="nacute" unicode="&#x144;" horiz-adv-x="1083" 
d="M106 0zM106 49v550q0 188 108.5 284t327.5 96t327 -96t108 -284v-550q0 -59 -88 -59h-46q-89 0 -89 59v545q0 112 -49.5 162t-162.5 50q-114 0 -163 -50t-49 -162v-545q0 -59 -89 -59h-47q-88 0 -88 59zM428.5 1134.5q-13.5 10.5 -13.5 27.5q0 23 25 49l128 138
q20 23 40.5 33.5t48.5 10.5h73q29 0 46 -12.5t17 -31.5q0 -23 -24 -46l-119 -109q-42 -38 -72 -54t-65 -16h-49q-22 0 -35.5 10.5z" />
    <glyph glyph-name="ncaron" unicode="&#x148;" horiz-adv-x="1083" 
d="M106 0zM106 49v550q0 188 108.5 284t327.5 96t327 -96t108 -284v-550q0 -59 -88 -59h-46q-89 0 -89 59v545q0 112 -49.5 162t-162.5 50q-114 0 -163 -50t-49 -162v-545q0 -59 -89 -59h-47q-88 0 -88 59zM823 1382.5q15 -10.5 15 -28.5q0 -23 -26 -51l-132 -136
q-19 -22 -40 -32t-48 -10h-123q-27 0 -47.5 10t-40.5 32l-133 136q-23 24 -23 48q0 19 16 30.5t45 11.5h23q35 0 56.5 -7.5t40 -23.5t54.5 -54l71 -75l70 75q34 37 54 53.5t42 24t57 7.5h26q28 0 43 -10.5z" />
    <glyph glyph-name="ncommaaccent" unicode="&#x146;" horiz-adv-x="1083" 
d="M106 0zM106 49v550q0 188 108.5 284t327.5 96t327 -96t108 -284v-550q0 -59 -88 -59h-46q-89 0 -89 59v545q0 112 -49.5 162t-162.5 50q-114 0 -163 -50t-49 -162v-545q0 -59 -89 -59h-47q-88 0 -88 59zM380 -421.5q-14 13.5 -14 38.5q0 14 4 27l54 193q7 30 28 46.5
t53 16.5h61q31 0 48.5 -14t17.5 -38q0 -14 -6 -30l-57 -161q-17 -46 -38 -69t-52 -23h-61q-24 0 -38 13.5z" />
    <glyph glyph-name="eng" unicode="&#x14b;" horiz-adv-x="1077" 
d="M562.5 -361q-37.5 28 -37.5 76v19q0 24 16.5 35t49.5 11q77 0 117 42.5t40 134.5v637q0 112 -48 162t-161 50q-112 0 -160.5 -50t-48.5 -162v-534q0 -60 -89 -60h-47q-88 0 -88 60v537q0 382 433 382q432 0 432 -382v-648q0 -109 -37 -184.5t-104.5 -114.5t-158.5 -39
q-71 0 -108.5 28z" />
    <glyph glyph-name="ntilde" unicode="&#xf1;" horiz-adv-x="1083" 
d="M106 0zM106 49v550q0 188 108.5 284t327.5 96t327 -96t108 -284v-550q0 -59 -88 -59h-46q-89 0 -89 59v545q0 112 -49.5 162t-162.5 50q-114 0 -163 -50t-49 -162v-545q0 -59 -89 -59h-47q-88 0 -88 59zM194.5 1170q-17.5 23 -17.5 63q0 45 24 84.5t71 64t114 24.5
q60 0 100 -16.5t89 -47.5q36 -23 59 -33.5t52 -10.5q38 0 54.5 16t28.5 45q10 24 20.5 35.5t33.5 11.5q27 0 44 -23t17 -63q0 -45 -23.5 -84.5t-70 -64t-113.5 -24.5q-55 0 -93 15.5t-82 44.5q-37 24 -64 36t-62 12q-38 0 -54 -15t-29 -45q-10 -24 -21 -36t-34 -12
q-26 0 -43.5 23z" />
    <glyph glyph-name="o" unicode="o" horiz-adv-x="1110" 
d="M201.5 97q-115.5 117 -115.5 361v43q0 244 115.5 361t351.5 117q238 0 355 -116t117 -362v-43q0 -246 -117 -362t-355 -116q-236 0 -351.5 117zM695.5 174q52.5 30 77.5 98t25 186v43q0 118 -25 186t-77.5 98t-140.5 30q-89 0 -141.5 -30t-77 -98.5t-24.5 -186.5v-41
q0 -118 24.5 -186.5t77 -98.5t141.5 -30q88 0 140.5 30z" />
    <glyph glyph-name="oacute" unicode="&#xf3;" horiz-adv-x="1110" 
d="M86 0zM201.5 97q-115.5 117 -115.5 361v43q0 244 115.5 361t351.5 117q238 0 355 -116t117 -362v-43q0 -246 -117 -362t-355 -116q-236 0 -351.5 117zM695.5 174q52.5 30 77.5 98t25 186v43q0 118 -25 186t-77.5 98t-140.5 30q-89 0 -141.5 -30t-77 -98.5t-24.5 -186.5
v-41q0 -118 24.5 -186.5t77 -98.5t141.5 -30q88 0 140.5 30zM456.5 1134.5q-13.5 10.5 -13.5 27.5q0 23 25 49l128 138q20 23 40.5 33.5t48.5 10.5h73q29 0 46 -12.5t17 -31.5q0 -23 -24 -46l-119 -109q-42 -38 -72 -54t-65 -16h-49q-22 0 -35.5 10.5z" />
    <glyph glyph-name="ocircumflex" unicode="&#xf4;" horiz-adv-x="1110" 
d="M86 0zM201.5 97q-115.5 117 -115.5 361v43q0 244 115.5 361t351.5 117q238 0 355 -116t117 -362v-43q0 -246 -117 -362t-355 -116q-236 0 -351.5 117zM695.5 174q52.5 30 77.5 98t25 186v43q0 118 -25 186t-77.5 98t-140.5 30q-89 0 -141.5 -30t-77 -98.5t-24.5 -186.5
v-41q0 -118 24.5 -186.5t77 -98.5t141.5 -30q88 0 140.5 30zM866 1164q0 -18 -15 -28.5t-43 -10.5h-26q-35 0 -57 7.5t-42 24t-54 53.5l-70 75l-71 -75q-35 -38 -54 -54t-40.5 -23.5t-56.5 -7.5h-23q-29 0 -45 11.5t-16 30.5q0 24 23 48l133 136q20 22 40.5 32t47.5 10h123
q27 0 48 -10t40 -32l132 -136q26 -28 26 -51z" />
    <glyph glyph-name="odieresis" unicode="&#xf6;" horiz-adv-x="1110" 
d="M86 0zM201.5 97q-115.5 117 -115.5 361v43q0 244 115.5 361t351.5 117q238 0 355 -116t117 -362v-43q0 -246 -117 -362t-355 -116q-236 0 -351.5 117zM695.5 174q52.5 30 77.5 98t25 186v43q0 118 -25 186t-77.5 98t-140.5 30q-89 0 -141.5 -30t-77 -98.5t-24.5 -186.5
v-41q0 -118 24.5 -186.5t77 -98.5t141.5 -30q88 0 140.5 30zM312 1171q-33 32 -33 85t33 84.5t86 31.5q52 0 85 -31.5t33 -84.5t-33 -85t-85 -32q-53 0 -86 32zM638 1171q-33 32 -33 85t33 84.5t86 31.5q52 0 84.5 -31.5t32.5 -84.5t-32.5 -85t-84.5 -32q-53 0 -86 32z" />
    <glyph glyph-name="ograve" unicode="&#xf2;" horiz-adv-x="1110" 
d="M86 0zM201.5 97q-115.5 117 -115.5 361v43q0 244 115.5 361t351.5 117q238 0 355 -116t117 -362v-43q0 -246 -117 -362t-355 -116q-236 0 -351.5 117zM695.5 174q52.5 30 77.5 98t25 186v43q0 118 -25 186t-77.5 98t-140.5 30q-89 0 -141.5 -30t-77 -98.5t-24.5 -186.5
v-41q0 -118 24.5 -186.5t77 -98.5t141.5 -30q88 0 140.5 30zM578 1124q-35 0 -66 16t-73 54l-119 109q-24 23 -24 46q0 19 17 31.5t46 12.5h73q28 0 48.5 -10.5t40.5 -33.5l128 -138q26 -27 26 -50q0 -17 -13 -27t-35 -10h-49z" />
    <glyph glyph-name="ohungarumlaut" unicode="&#x151;" horiz-adv-x="1110" 
d="M86 0zM201.5 97q-115.5 117 -115.5 361v43q0 244 115.5 361t351.5 117q238 0 355 -116t117 -362v-43q0 -246 -117 -362t-355 -116q-236 0 -351.5 117zM695.5 174q52.5 30 77.5 98t25 186v43q0 118 -25 186t-77.5 98t-140.5 30q-89 0 -141.5 -30t-77 -98.5t-24.5 -186.5
v-41q0 -118 24.5 -186.5t77 -98.5t141.5 -30q88 0 140.5 30zM352 1147q0 25 26 60l108 137q19 26 39 37.5t49 11.5h52q29 0 46.5 -12.5t17.5 -32.5q0 -23 -20 -44l-90 -95q-46 -48 -80.5 -69t-71.5 -21h-41q-35 0 -35 28zM656 1144q0 26 33 64l127 140q21 24 41 34.5
t47 10.5h57q29 0 45.5 -12t16.5 -31q0 -24 -26 -47l-114 -103q-49 -43 -84.5 -62t-70.5 -19h-43q-29 0 -29 25z" />
    <glyph glyph-name="omacron" unicode="&#x14d;" horiz-adv-x="1110" 
d="M86 0zM201.5 97q-115.5 117 -115.5 361v43q0 244 115.5 361t351.5 117q238 0 355 -116t117 -362v-43q0 -246 -117 -362t-355 -116q-236 0 -351.5 117zM695.5 174q52.5 30 77.5 98t25 186v43q0 118 -25 186t-77.5 98t-140.5 30q-89 0 -141.5 -30t-77 -98.5t-24.5 -186.5
v-41q0 -118 24.5 -186.5t77 -98.5t141.5 -30q88 0 140.5 30zM247 1263v27q0 35 14 50.5t37 15.5h525q22 0 36 -15.5t14 -50.5v-27q0 -35 -14 -50t-36 -15h-525q-51 0 -51 65z" />
    <glyph glyph-name="oslash" unicode="&#xf8;" horiz-adv-x="1110" 
d="M981 754.5q44 -101.5 44 -253.5v-43q0 -246 -117 -362t-355 -116q-71 0 -135 11l-32 -69q-12 -26 -31 -37.5t-48 -11.5h-17q-22 0 -34 10.5t-12 29.5q0 18 10 38l38 81q-104 52 -155 157.5t-51 268.5v43q0 244 115.5 361t351.5 117q98 0 173 -19l43 93q12 26 31 37.5
t48 11.5h4q27 0 42.5 -12t15.5 -32q0 -16 -9 -34l-53 -113q89 -55 133 -156.5zM327 304.5q15 -61.5 46 -97.5l279 596q-42 12 -97 12q-89 0 -141.5 -30t-77 -98.5t-24.5 -186.5v-41q0 -93 15 -154.5zM798 501q0 147 -39 218l-267 -571q25 -4 63 -4q88 0 140.5 30t77.5 98
t25 186v43z" />
    <glyph glyph-name="otilde" unicode="&#xf5;" horiz-adv-x="1110" 
d="M86 0zM201.5 97q-115.5 117 -115.5 361v43q0 244 115.5 361t351.5 117q238 0 355 -116t117 -362v-43q0 -246 -117 -362t-355 -116q-236 0 -351.5 117zM695.5 174q52.5 30 77.5 98t25 186v43q0 118 -25 186t-77.5 98t-140.5 30q-89 0 -141.5 -30t-77 -98.5t-24.5 -186.5
v-41q0 -118 24.5 -186.5t77 -98.5t141.5 -30q88 0 140.5 30zM222.5 1170q-17.5 23 -17.5 63q0 45 24 84.5t71 64t114 24.5q60 0 100 -16.5t89 -47.5q36 -23 59 -33.5t52 -10.5q38 0 54.5 16t28.5 45q10 24 20.5 35.5t33.5 11.5q27 0 44 -23t17 -63q0 -45 -23.5 -84.5
t-70 -64t-113.5 -24.5q-55 0 -93 15.5t-82 44.5q-37 24 -64 36t-62 12q-38 0 -54 -15t-29 -45q-10 -24 -21 -36t-34 -12q-26 0 -43.5 23z" />
    <glyph glyph-name="oe" unicode="&#x153;" horiz-adv-x="1764" 
d="M1657 113q3 -12 3 -21q0 -28 -30 -40l-61 -25q-117 -47 -277 -47q-117 0 -211.5 37t-156.5 112q-110 -149 -367 -149q-237 0 -354 117t-117 361v43q0 244 117 361t354 117q257 0 367 -148q59 73 147.5 110.5t200.5 37.5q129 0 220.5 -37t139 -105t47.5 -162
q0 -103 -46.5 -163.5t-138.5 -87.5t-239 -32l-227 -6q21 -116 103 -170.5t203 -54.5q51 0 105 9t96 24l50 19q11 4 20 4q12 0 20 -9.5t14 -29.5zM1086.5 744.5q-63.5 -70.5 -65.5 -226.5l185 5q99 2 154.5 11t89 38.5t33.5 89.5q0 70 -50 111.5t-156 41.5
q-127 0 -190.5 -70.5zM801 501q0 117 -24.5 185t-77 97.5t-141.5 29.5q-88 0 -141 -30t-77.5 -98t-24.5 -185v-41q0 -118 24.5 -186.5t77.5 -98.5t141 -30q89 0 141.5 30t77 98t24.5 186v43z" />
    <glyph glyph-name="p" unicode="p" horiz-adv-x="1110" 
d="M912 863.5q113 -115.5 113 -362.5v-43q0 -243 -106.5 -360.5t-320.5 -117.5q-172 0 -268 84v-373q0 -27 -21 -43.5t-68 -16.5h-47q-88 0 -88 60v810q0 246 111 362t346 116q236 0 349 -115.5zM803 501q0 118 -23.5 186t-75 98t-140.5 30q-88 0 -138.5 -30t-73 -98
t-22.5 -187v-41q0 -118 23 -186.5t73.5 -98.5t137.5 -30q89 0 140.5 30t75 98t23.5 186v43z" />
    <glyph glyph-name="thorn" unicode="&#xfe;" horiz-adv-x="1109" 
d="M917 861.5q107 -117.5 107 -360.5v-43q0 -243 -107 -360.5t-321 -117.5q-171 0 -266 84v-373q0 -27 -21 -43.5t-68 -16.5h-47q-88 0 -88 60v1642q0 60 88 60h47q47 0 68 -16.5t21 -43.5v-438q95 84 266 84q214 0 321 -117.5zM802 501q0 118 -23 186t-74.5 98t-140.5 30
q-87 0 -137.5 -30t-73.5 -98.5t-23 -186.5v-41q0 -118 23 -186.5t73.5 -98.5t137.5 -30q89 0 140.5 30t74.5 98t23 186v43z" />
    <glyph glyph-name="q" unicode="q" horiz-adv-x="1109" 
d="M892.5 863q110.5 -116 110.5 -362v-812q0 -59 -88 -59h-47q-89 0 -89 59v376q-94 -85 -266 -85q-214 0 -320.5 117.5t-106.5 360.5v43q0 248 112.5 363t349.5 115q234 0 344.5 -116zM683 175.5q50 29.5 73 97.5t23 186v41q0 118 -23 186t-73 97.5t-137 29.5
q-88 0 -139.5 -29.5t-75 -97t-23.5 -185.5v-43q0 -118 23.5 -185.5t75 -97t139.5 -29.5q87 0 137 29.5z" />
    <glyph glyph-name="r" unicode="r" horiz-adv-x="732" 
d="M106 60v517q0 188 107.5 285t325.5 97h57q51 0 51 -66v-44q0 -65 -51 -65h-57q-114 0 -163 -48.5t-49 -160.5v-515q0 -60 -89 -60h-44q-88 0 -88 60z" />
    <glyph glyph-name="racute" unicode="&#x155;" horiz-adv-x="732" 
d="M106 0zM106 60v517q0 188 107.5 285t325.5 97h57q51 0 51 -66v-44q0 -65 -51 -65h-57q-114 0 -163 -48.5t-49 -160.5v-515q0 -60 -89 -60h-44q-88 0 -88 60zM340.5 1134.5q-13.5 10.5 -13.5 27.5q0 23 25 49l128 138q20 23 40.5 33.5t48.5 10.5h73q29 0 46 -12.5
t17 -31.5q0 -23 -24 -46l-119 -109q-42 -38 -72 -54t-65 -16h-49q-22 0 -35.5 10.5z" />
    <glyph glyph-name="rcaron" unicode="&#x159;" horiz-adv-x="732" 
d="M106 0zM106 60v517q0 188 107.5 285t325.5 97h57q51 0 51 -66v-44q0 -65 -51 -65h-57q-114 0 -163 -48.5t-49 -160.5v-515q0 -60 -89 -60h-44q-88 0 -88 60zM735 1382.5q15 -10.5 15 -28.5q0 -23 -26 -51l-132 -136q-19 -22 -40 -32t-48 -10h-123q-27 0 -47.5 10
t-40.5 32l-133 136q-23 24 -23 48q0 19 16 30.5t45 11.5h23q35 0 56.5 -7.5t40 -23.5t54.5 -54l71 -75l70 75q34 37 54 53.5t42 24t57 7.5h26q28 0 43 -10.5z" />
    <glyph glyph-name="rcommaaccent" unicode="&#x157;" horiz-adv-x="732" 
d="M43 0zM106 60v517q0 188 107.5 285t325.5 97h57q51 0 51 -66v-44q0 -65 -51 -65h-57q-114 0 -163 -48.5t-49 -160.5v-515q0 -60 -89 -60h-44q-88 0 -88 60zM57 -421.5q-14 13.5 -14 38.5q0 14 4 27l54 193q7 30 28 46.5t53 16.5h61q31 0 48.5 -14t17.5 -38q0 -14 -6 -30
l-57 -161q-17 -46 -38 -69t-52 -23h-61q-24 0 -38 13.5z" />
    <glyph glyph-name="s" unicode="s" horiz-adv-x="966" 
d="M183 40l-68 26q-31 13 -31 39q0 10 3 22l15 57q10 39 37 39q11 0 22 -4l57 -22q60 -23 131 -37.5t134 -14.5q87 0 128.5 27.5t41.5 84.5q0 34 -17 55t-45 33.5t-76 27.5l-147 46q-75 22 -130.5 52t-90.5 83.5t-35 135.5q0 86 43 151t127 101.5t204 36.5q76 0 147 -12.5
t127 -34.5l62 -23q30 -11 30 -39q0 -10 -3 -22l-14 -59q-5 -21 -13.5 -30t-22.5 -9q-5 0 -21 4l-51 19q-107 38 -217 38q-91 0 -131 -29.5t-40 -83.5q0 -39 17.5 -62.5t45 -35.5t76.5 -26l141 -44q81 -23 136 -51.5t90.5 -80t35.5 -133.5q0 -88 -43.5 -152.5t-128 -99
t-204.5 -34.5q-161 0 -322 61z" />
    <glyph glyph-name="sacute" unicode="&#x15b;" horiz-adv-x="966" 
d="M84 0zM183 40l-68 26q-31 13 -31 39q0 10 3 22l15 57q10 39 37 39q11 0 22 -4l57 -22q60 -23 131 -37.5t134 -14.5q87 0 128.5 27.5t41.5 84.5q0 34 -17 55t-45 33.5t-76 27.5l-147 46q-75 22 -130.5 52t-90.5 83.5t-35 135.5q0 86 43 151t127 101.5t204 36.5
q76 0 147 -12.5t127 -34.5l62 -23q30 -11 30 -39q0 -10 -3 -22l-14 -59q-5 -21 -13.5 -30t-22.5 -9q-5 0 -21 4l-51 19q-107 38 -217 38q-91 0 -131 -29.5t-40 -83.5q0 -39 17.5 -62.5t45 -35.5t76.5 -26l141 -44q81 -23 136 -51.5t90.5 -80t35.5 -133.5q0 -88 -43.5 -152.5
t-128 -99t-204.5 -34.5q-161 0 -322 61zM403.5 1134.5q-13.5 10.5 -13.5 27.5q0 23 25 49l128 138q20 23 40.5 33.5t48.5 10.5h73q29 0 46 -12.5t17 -31.5q0 -23 -24 -46l-119 -109q-42 -38 -72 -54t-65 -16h-49q-22 0 -35.5 10.5z" />
    <glyph glyph-name="scaron" unicode="&#x161;" horiz-adv-x="966" 
d="M84 0zM183 40l-68 26q-31 13 -31 39q0 10 3 22l15 57q10 39 37 39q11 0 22 -4l57 -22q60 -23 131 -37.5t134 -14.5q87 0 128.5 27.5t41.5 84.5q0 34 -17 55t-45 33.5t-76 27.5l-147 46q-75 22 -130.5 52t-90.5 83.5t-35 135.5q0 86 43 151t127 101.5t204 36.5
q76 0 147 -12.5t127 -34.5l62 -23q30 -11 30 -39q0 -10 -3 -22l-14 -59q-5 -21 -13.5 -30t-22.5 -9q-5 0 -21 4l-51 19q-107 38 -217 38q-91 0 -131 -29.5t-40 -83.5q0 -39 17.5 -62.5t45 -35.5t76.5 -26l141 -44q81 -23 136 -51.5t90.5 -80t35.5 -133.5q0 -88 -43.5 -152.5
t-128 -99t-204.5 -34.5q-161 0 -322 61zM798 1382.5q15 -10.5 15 -28.5q0 -23 -26 -51l-132 -136q-19 -22 -40 -32t-48 -10h-123q-27 0 -47.5 10t-40.5 32l-133 136q-23 24 -23 48q0 19 16 30.5t45 11.5h23q35 0 56.5 -7.5t40 -23.5t54.5 -54l71 -75l70 75q34 37 54 53.5
t42 24t57 7.5h26q28 0 43 -10.5z" />
    <glyph glyph-name="scedilla" unicode="&#x15f;" horiz-adv-x="966" 
d="M541 -39q-11 -18 -11 -32q0 -18 15.5 -26.5t49.5 -18.5q39 -11 63.5 -23t43 -39t18.5 -73q0 -77 -64 -120t-183 -43q-61 0 -113.5 19t-83.5 48.5t-31 59.5q0 19 9 29.5t26 10.5q11 0 21.5 -4t30.5 -14q30 -16 59 -25t69 -9q102 0 102 58q0 26 -19.5 38.5t-58.5 24.5
q-44 13 -66 28t-22 49q0 16 5 29t16 30l15 24q-122 11 -249 58l-68 26q-31 13 -31 39q0 10 3 22l15 57q10 39 37 39q11 0 22 -4l57 -22q60 -23 131 -37.5t134 -14.5q87 0 128.5 27.5t41.5 84.5q0 34 -17 55t-45 33.5t-76 27.5l-147 46q-75 22 -130.5 52t-90.5 83.5
t-35 135.5q0 86 43 151t127 101.5t204 36.5q76 0 147 -12.5t127 -34.5l62 -23q30 -11 30 -39q0 -10 -3 -22l-14 -59q-5 -21 -13.5 -30t-22.5 -9q-5 0 -21 4l-51 19q-107 38 -217 38q-91 0 -131 -29.5t-40 -83.5q0 -39 17.5 -62.5t45 -35.5t76.5 -26l141 -44
q81 -23 136 -51.5t90.5 -80t35.5 -133.5q0 -124 -85 -199.5t-244 -85.5z" />
    <glyph glyph-name="scommaaccent" unicode="&#x219;" horiz-adv-x="966" 
d="M84 0zM183 40l-68 26q-31 13 -31 39q0 10 3 22l15 57q10 39 37 39q11 0 22 -4l57 -22q60 -23 131 -37.5t134 -14.5q87 0 128.5 27.5t41.5 84.5q0 34 -17 55t-45 33.5t-76 27.5l-147 46q-75 22 -130.5 52t-90.5 83.5t-35 135.5q0 86 43 151t127 101.5t204 36.5
q76 0 147 -12.5t127 -34.5l62 -23q30 -11 30 -39q0 -10 -3 -22l-14 -59q-5 -21 -13.5 -30t-22.5 -9q-5 0 -21 4l-51 19q-107 38 -217 38q-91 0 -131 -29.5t-40 -83.5q0 -39 17.5 -62.5t45 -35.5t76.5 -26l141 -44q81 -23 136 -51.5t90.5 -80t35.5 -133.5q0 -88 -43.5 -152.5
t-128 -99t-204.5 -34.5q-161 0 -322 61zM344 -421.5q-14 13.5 -14 38.5q0 14 4 27l54 193q7 30 28 46.5t53 16.5h61q31 0 48.5 -14t17.5 -38q0 -14 -6 -30l-57 -161q-17 -46 -38 -69t-52 -23h-61q-24 0 -38 13.5z" />
    <glyph glyph-name="germandbls" unicode="&#xdf;" horiz-adv-x="1074" 
d="M113 60v856q0 142 68 255.5t191.5 178t285.5 64.5q110 0 185.5 -36t114 -101.5t38.5 -152.5q0 -73 -27 -129t-64 -94t-95 -86q-59 -47 -86 -78.5t-27 -70.5q0 -34 26 -56.5t82 -52.5q60 -32 98 -60t65.5 -77t27.5 -122q0 -92 -44 -159.5t-121 -103t-176 -35.5h-130
q-50 0 -50 65v29q0 65 50 65h53q99 0 149.5 29t50.5 105q0 44 -19.5 74.5t-47.5 50.5t-75 45q-50 27 -79 47.5t-49.5 54t-20.5 81.5q0 46 19 84t47.5 67t75.5 68q49 41 78 71t49 70.5t20 89.5q0 68 -37 104.5t-109 36.5q-82 0 -148.5 -39t-105.5 -113t-39 -175v-850
q0 -60 -89 -60h-49q-86 0 -86 60z" />
    <glyph glyph-name="t" unicode="t" horiz-adv-x="793" 
d="M420 801v-437q0 -106 43.5 -150.5t135.5 -44.5h92q50 0 50 -65v-38q0 -66 -50 -66h-150q-169 0 -257 83t-88 244v474h-107q-23 0 -37 15.5t-14 50.5v26q0 66 51 66h107v214q0 60 89 60h46q89 0 89 -60v-214h271q51 0 51 -66v-27q0 -65 -51 -65h-271z" />
    <glyph glyph-name="tbar" unicode="&#x167;" horiz-adv-x="793" 
d="M420 801v-176h271q51 0 51 -66v-27q0 -65 -51 -65h-271v-103q0 -106 43.5 -150.5t135.5 -44.5h92q50 0 50 -65v-38q0 -66 -50 -66h-150q-169 0 -257 83t-88 244v140h-107q-23 0 -37 15.5t-14 50.5v26q0 66 51 66h107v176h-107q-23 0 -37 15.5t-14 50.5v26q0 66 51 66h107
v214q0 60 89 60h46q89 0 89 -60v-214h271q51 0 51 -66v-27q0 -65 -51 -65h-271z" />
    <glyph glyph-name="tcaron" unicode="&#x165;" horiz-adv-x="793" 
d="M743.5 1380q15.5 -13 15.5 -36q0 -13 -4 -25l-59 -190q-16 -54 -74 -54h-34q-29 0 -44.5 13t-15.5 37q0 10 3 22l51 189q13 57 72 57h46q28 0 43.5 -13zM742 893v-27q0 -65 -51 -65h-271v-437q0 -106 43.5 -150.5t135.5 -44.5h92q50 0 50 -65v-38q0 -66 -50 -66h-150
q-169 0 -257 83t-88 244v474h-107q-23 0 -37 15.5t-14 50.5v26q0 66 51 66h107v214q0 60 89 60h46q89 0 89 -60v-214h271q51 0 51 -66z" />
    <glyph glyph-name="uni0163" unicode="&#x163;" horiz-adv-x="793" 
d="M420 801v-437q0 -106 43.5 -150.5t135.5 -44.5h92q50 0 50 -65v-38q0 -66 -50 -66h-150h-3l-23 -40q-11 -18 -11 -32q0 -18 15.5 -26.5t49.5 -18.5q39 -11 63.5 -23t43 -39t18.5 -73q0 -77 -64 -120t-183 -43q-61 0 -113.5 19t-83.5 48.5t-31 59.5q0 19 9 29.5t26 10.5
q11 0 21.5 -4t30.5 -14q30 -16 59 -25t69 -9q102 0 102 58q0 26 -19.5 38.5t-58.5 24.5q-44 13 -66 28t-22 49q0 16 5 29t16 30l33 55q-112 26 -170 105.5t-58 209.5v474h-107q-23 0 -37 15.5t-14 50.5v26q0 66 51 66h107v214q0 60 89 60h46q89 0 89 -60v-214h271
q51 0 51 -66v-27q0 -65 -51 -65h-271z" />
    <glyph glyph-name="uni021B" unicode="&#x21b;" horiz-adv-x="793" 
d="M38 0zM420 801v-437q0 -106 43.5 -150.5t135.5 -44.5h92q50 0 50 -65v-38q0 -66 -50 -66h-150q-169 0 -257 83t-88 244v474h-107q-23 0 -37 15.5t-14 50.5v26q0 66 51 66h107v214q0 60 89 60h46q89 0 89 -60v-214h271q51 0 51 -66v-27q0 -65 -51 -65h-271zM318 -422.5
q-14 13.5 -14 38.5q0 14 4 27l54 193q7 30 28 46.5t53 16.5h61q31 0 48.5 -14t17.5 -38q0 -14 -6 -30l-57 -161q-17 -46 -38 -69t-52 -23h-61q-24 0 -38 13.5z" />
    <glyph glyph-name="u" unicode="u" horiz-adv-x="1063" 
d="M212 77q-106 97 -106 285v537q0 60 88 60h47q89 0 89 -60v-534q0 -111 47.5 -161.5t153.5 -50.5q75 0 119 22t63.5 68t19.5 122v534q0 60 89 60h46q89 0 89 -60v-537q0 -190 -104.5 -286t-321.5 -96q-213 0 -319 97z" />
    <glyph glyph-name="uacute" unicode="&#xfa;" horiz-adv-x="1063" 
d="M106 0zM212 77q-106 97 -106 285v537q0 60 88 60h47q89 0 89 -60v-534q0 -111 47.5 -161.5t153.5 -50.5q75 0 119 22t63.5 68t19.5 122v534q0 60 89 60h46q89 0 89 -60v-537q0 -190 -104.5 -286t-321.5 -96q-213 0 -319 97zM436.5 1134.5q-13.5 10.5 -13.5 27.5
q0 23 25 49l128 138q20 23 40.5 33.5t48.5 10.5h73q29 0 46 -12.5t17 -31.5q0 -23 -24 -46l-119 -109q-42 -38 -72 -54t-65 -16h-49q-22 0 -35.5 10.5z" />
    <glyph glyph-name="ucircumflex" unicode="&#xfb;" horiz-adv-x="1063" 
d="M106 0zM212 77q-106 97 -106 285v537q0 60 88 60h47q89 0 89 -60v-534q0 -111 47.5 -161.5t153.5 -50.5q75 0 119 22t63.5 68t19.5 122v534q0 60 89 60h46q89 0 89 -60v-537q0 -190 -104.5 -286t-321.5 -96q-213 0 -319 97zM846 1164q0 -18 -15 -28.5t-43 -10.5h-26
q-35 0 -57 7.5t-42 24t-54 53.5l-70 75l-71 -75q-35 -38 -54 -54t-40.5 -23.5t-56.5 -7.5h-23q-29 0 -45 11.5t-16 30.5q0 24 23 48l133 136q20 22 40.5 32t47.5 10h123q27 0 48 -10t40 -32l132 -136q26 -28 26 -51z" />
    <glyph glyph-name="udieresis" unicode="&#xfc;" horiz-adv-x="1063" 
d="M106 0zM212 77q-106 97 -106 285v537q0 60 88 60h47q89 0 89 -60v-534q0 -111 47.5 -161.5t153.5 -50.5q75 0 119 22t63.5 68t19.5 122v534q0 60 89 60h46q89 0 89 -60v-537q0 -190 -104.5 -286t-321.5 -96q-213 0 -319 97zM292 1171q-33 32 -33 85t33 84.5t86 31.5
q52 0 85 -31.5t33 -84.5t-33 -85t-85 -32q-53 0 -86 32zM618 1171q-33 32 -33 85t33 84.5t86 31.5q52 0 84.5 -31.5t32.5 -84.5t-32.5 -85t-84.5 -32q-53 0 -86 32z" />
    <glyph glyph-name="ugrave" unicode="&#xf9;" horiz-adv-x="1063" 
d="M106 0zM212 77q-106 97 -106 285v537q0 60 88 60h47q89 0 89 -60v-534q0 -111 47.5 -161.5t153.5 -50.5q75 0 119 22t63.5 68t19.5 122v534q0 60 89 60h46q89 0 89 -60v-537q0 -190 -104.5 -286t-321.5 -96q-213 0 -319 97zM558 1124q-35 0 -66 16t-73 54l-119 109
q-24 23 -24 46q0 19 17 31.5t46 12.5h73q28 0 48.5 -10.5t40.5 -33.5l128 -138q26 -27 26 -50q0 -17 -13 -27t-35 -10h-49z" />
    <glyph glyph-name="uhungarumlaut" unicode="&#x171;" horiz-adv-x="1063" 
d="M106 0zM212 77q-106 97 -106 285v537q0 60 88 60h47q89 0 89 -60v-534q0 -111 47.5 -161.5t153.5 -50.5q75 0 119 22t63.5 68t19.5 122v534q0 60 89 60h46q89 0 89 -60v-537q0 -190 -104.5 -286t-321.5 -96q-213 0 -319 97zM332 1147q0 25 26 60l108 137q19 26 39 37.5
t49 11.5h52q29 0 46.5 -12.5t17.5 -32.5q0 -23 -20 -44l-90 -95q-46 -48 -80.5 -69t-71.5 -21h-41q-35 0 -35 28zM636 1144q0 26 33 64l127 140q21 24 41 34.5t47 10.5h57q29 0 45.5 -12t16.5 -31q0 -24 -26 -47l-114 -103q-49 -43 -84.5 -62t-70.5 -19h-43q-29 0 -29 25z
" />
    <glyph glyph-name="umacron" unicode="&#x16b;" horiz-adv-x="1063" 
d="M106 0zM212 77q-106 97 -106 285v537q0 60 88 60h47q89 0 89 -60v-534q0 -111 47.5 -161.5t153.5 -50.5q75 0 119 22t63.5 68t19.5 122v534q0 60 89 60h46q89 0 89 -60v-537q0 -190 -104.5 -286t-321.5 -96q-213 0 -319 97zM227 1263v27q0 35 14 50.5t37 15.5h525
q22 0 36 -15.5t14 -50.5v-27q0 -35 -14 -50t-36 -15h-525q-51 0 -51 65z" />
    <glyph glyph-name="uogonek" unicode="&#x173;" horiz-adv-x="1063" 
d="M957 899v-537q0 -294 -248 -361v-1q-69 -25 -115.5 -67.5t-46.5 -94.5q0 -32 18.5 -47.5t57.5 -15.5q30 0 53.5 7t49.5 19q34 16 51 16q18 0 27 -11t9 -29q0 -33 -32.5 -63.5t-86.5 -48.5t-115 -18q-89 0 -140 38.5t-51 110.5q0 59 39 106.5t99 77.5q-211 1 -315.5 98
t-104.5 284v537q0 60 88 60h47q89 0 89 -60v-534q0 -111 47.5 -161.5t153.5 -50.5q75 0 119 22t63.5 68t19.5 122v534q0 60 89 60h46q89 0 89 -60z" />
    <glyph glyph-name="uring" unicode="&#x16f;" horiz-adv-x="1063" 
d="M106 0zM212 77q-106 97 -106 285v537q0 60 88 60h47q89 0 89 -60v-534q0 -111 47.5 -161.5t153.5 -50.5q75 0 119 22t63.5 68t19.5 122v534q0 60 89 60h46q89 0 89 -60v-537q0 -190 -104.5 -286t-321.5 -96q-213 0 -319 97zM420 1114q-52 27 -80.5 74.5t-28.5 106.5
q0 60 28.5 107.5t80.5 74.5t119 27q68 0 120 -27t80 -74.5t28 -107.5q0 -59 -28 -106.5t-80 -74.5t-120 -27q-67 0 -119 27zM617.5 1220.5q29.5 29.5 29.5 75.5q0 44 -30 74t-76 30t-75 -30t-29 -74q0 -47 29 -76t75 -29q47 0 76.5 29.5z" />
    <glyph glyph-name="v" unicode="v" horiz-adv-x="1059" 
d="M395.5 25q-43.5 35 -65.5 112l-249 758q-3 11 -3 19q0 45 80 45h53q95 0 110 -64l196 -696q3 -9 7 -11.5t11 -2.5q13 0 16 14l205 696q16 64 108 64h38q80 0 80 -45q0 -8 -3 -19l-252 -756q-24 -79 -65 -114t-113 -35h-36q-74 0 -117.5 35z" />
    <glyph glyph-name="w" unicode="w" horiz-adv-x="1535" 
d="M1455 915q0 -4 -2 -16l-206 -782q-14 -62 -49 -94.5t-97 -32.5h-29q-63 0 -101.5 33.5t-49.5 94.5l-144 575l-159 -575q-29 -128 -152 -128h-29q-123 0 -152 127l-206 782q-2 12 -2 17q0 43 73 43h60q93 0 103 -55l145 -699q2 -13 17 -13q6 0 9.5 2.5t5.5 10.5l178 694
q13 60 101 60h32q85 0 98 -60l170 -694q2 -8 5.5 -10.5t9.5 -2.5q16 0 17 13l143 699q9 55 103 55h35q73 0 73 -44z" />
    <glyph glyph-name="wacute" unicode="&#x1e83;" horiz-adv-x="1535" 
d="M77 0zM1455 915q0 -4 -2 -16l-206 -782q-14 -62 -49 -94.5t-97 -32.5h-29q-63 0 -101.5 33.5t-49.5 94.5l-144 575l-159 -575q-29 -128 -152 -128h-29q-123 0 -152 127l-206 782q-2 12 -2 17q0 43 73 43h60q93 0 103 -55l145 -699q2 -13 17 -13q6 0 9.5 2.5t5.5 10.5
l178 694q13 60 101 60h32q85 0 98 -60l170 -694q2 -8 5.5 -10.5t9.5 -2.5q16 0 17 13l143 699q9 55 103 55h35q73 0 73 -44zM678.5 1134.5q-13.5 10.5 -13.5 27.5q0 23 25 49l128 138q20 23 40.5 33.5t48.5 10.5h73q29 0 46 -12.5t17 -31.5q0 -23 -24 -46l-119 -109
q-42 -38 -72 -54t-65 -16h-49q-22 0 -35.5 10.5z" />
    <glyph glyph-name="wcircumflex" unicode="&#x175;" horiz-adv-x="1535" 
d="M77 0zM1455 915q0 -4 -2 -16l-206 -782q-14 -62 -49 -94.5t-97 -32.5h-29q-63 0 -101.5 33.5t-49.5 94.5l-144 575l-159 -575q-29 -128 -152 -128h-29q-123 0 -152 127l-206 782q-2 12 -2 17q0 43 73 43h60q93 0 103 -55l145 -699q2 -13 17 -13q6 0 9.5 2.5t5.5 10.5
l178 694q13 60 101 60h32q85 0 98 -60l170 -694q2 -8 5.5 -10.5t9.5 -2.5q16 0 17 13l143 699q9 55 103 55h35q73 0 73 -44zM1088 1164q0 -18 -15 -28.5t-43 -10.5h-26q-35 0 -57 7.5t-42 24t-54 53.5l-70 75l-71 -75q-35 -38 -54 -54t-40.5 -23.5t-56.5 -7.5h-23
q-29 0 -45 11.5t-16 30.5q0 24 23 48l133 136q20 22 40.5 32t47.5 10h123q27 0 48 -10t40 -32l132 -136q26 -28 26 -51z" />
    <glyph glyph-name="wdieresis" unicode="&#x1e85;" horiz-adv-x="1535" 
d="M77 0zM1455 915q0 -4 -2 -16l-206 -782q-14 -62 -49 -94.5t-97 -32.5h-29q-63 0 -101.5 33.5t-49.5 94.5l-144 575l-159 -575q-29 -128 -152 -128h-29q-123 0 -152 127l-206 782q-2 12 -2 17q0 43 73 43h60q93 0 103 -55l145 -699q2 -13 17 -13q6 0 9.5 2.5t5.5 10.5
l178 694q13 60 101 60h32q85 0 98 -60l170 -694q2 -8 5.5 -10.5t9.5 -2.5q16 0 17 13l143 699q9 55 103 55h35q73 0 73 -44zM534 1171q-33 32 -33 85t33 84.5t86 31.5q52 0 85 -31.5t33 -84.5t-33 -85t-85 -32q-53 0 -86 32zM860 1171q-33 32 -33 85t33 84.5t86 31.5
q52 0 84.5 -31.5t32.5 -84.5t-32.5 -85t-84.5 -32q-53 0 -86 32z" />
    <glyph glyph-name="wgrave" unicode="&#x1e81;" horiz-adv-x="1535" 
d="M77 0zM1455 915q0 -4 -2 -16l-206 -782q-14 -62 -49 -94.5t-97 -32.5h-29q-63 0 -101.5 33.5t-49.5 94.5l-144 575l-159 -575q-29 -128 -152 -128h-29q-123 0 -152 127l-206 782q-2 12 -2 17q0 43 73 43h60q93 0 103 -55l145 -699q2 -13 17 -13q6 0 9.5 2.5t5.5 10.5
l178 694q13 60 101 60h32q85 0 98 -60l170 -694q2 -8 5.5 -10.5t9.5 -2.5q16 0 17 13l143 699q9 55 103 55h35q73 0 73 -44zM800 1124q-35 0 -66 16t-73 54l-119 109q-24 23 -24 46q0 19 17 31.5t46 12.5h73q28 0 48.5 -10.5t40.5 -33.5l128 -138q26 -27 26 -50
q0 -17 -13 -27t-35 -10h-49z" />
    <glyph glyph-name="x" unicode="x" horiz-adv-x="1040" 
d="M965 41q0 -18 -20 -29.5t-59 -11.5h-79q-47 0 -70 15.5t-36 44.5l-189 308l-194 -308q-13 -29 -36 -44.5t-70 -15.5h-60q-38 0 -58.5 11.5t-20.5 29.5q0 8 7 22l274 418l-270 415q-7 14 -7 22q0 18 20 29.5t59 11.5h79q47 0 70 -15.5t36 -44.5l185 -307l187 307
q14 29 36 44.5t70 15.5h59q39 0 59.5 -11.5t20.5 -29.5q0 -8 -7 -22l-270 -410l277 -423q7 -14 7 -22z" />
    <glyph glyph-name="y" unicode="y" horiz-adv-x="1022" 
d="M967 918q0 -5 -4 -19l-341 -904q-68 -180 -172.5 -272t-257.5 -92h-79q-22 0 -36 15.5t-14 50.5v28q0 35 14 50t36 15h42q88 0 150.5 54t103.5 161l14 37l-346 857q-4 14 -4 19q0 41 76 41h63q49 0 73.5 -16t32.5 -44l223 -618l207 618q16 60 106 60h37q76 0 76 -41z" />
    <glyph glyph-name="yacute" unicode="&#xfd;" horiz-adv-x="1022" 
d="M63 0zM967 918q0 -5 -4 -19l-341 -904q-68 -180 -172.5 -272t-257.5 -92h-79q-22 0 -36 15.5t-14 50.5v28q0 35 14 50t36 15h42q88 0 150.5 54t103.5 161l14 37l-346 857q-4 14 -4 19q0 41 76 41h63q49 0 73.5 -16t32.5 -44l223 -618l207 618q16 60 106 60h37
q76 0 76 -41zM424.5 1134.5q-13.5 10.5 -13.5 27.5q0 23 25 49l128 138q20 23 40.5 33.5t48.5 10.5h73q29 0 46 -12.5t17 -31.5q0 -23 -24 -46l-119 -109q-42 -38 -72 -54t-65 -16h-49q-22 0 -35.5 10.5z" />
    <glyph glyph-name="ycircumflex" unicode="&#x177;" horiz-adv-x="1022" 
d="M63 0zM967 918q0 -5 -4 -19l-341 -904q-68 -180 -172.5 -272t-257.5 -92h-79q-22 0 -36 15.5t-14 50.5v28q0 35 14 50t36 15h42q88 0 150.5 54t103.5 161l14 37l-346 857q-4 14 -4 19q0 41 76 41h63q49 0 73.5 -16t32.5 -44l223 -618l207 618q16 60 106 60h37
q76 0 76 -41zM834 1164q0 -18 -15 -28.5t-43 -10.5h-26q-35 0 -57 7.5t-42 24t-54 53.5l-70 75l-71 -75q-35 -38 -54 -54t-40.5 -23.5t-56.5 -7.5h-23q-29 0 -45 11.5t-16 30.5q0 24 23 48l133 136q20 22 40.5 32t47.5 10h123q27 0 48 -10t40 -32l132 -136q26 -28 26 -51z
" />
    <glyph glyph-name="ydieresis" unicode="&#xff;" horiz-adv-x="1022" 
d="M63 0zM967 918q0 -5 -4 -19l-341 -904q-68 -180 -172.5 -272t-257.5 -92h-79q-22 0 -36 15.5t-14 50.5v28q0 35 14 50t36 15h42q88 0 150.5 54t103.5 161l14 37l-346 857q-4 14 -4 19q0 41 76 41h63q49 0 73.5 -16t32.5 -44l223 -618l207 618q16 60 106 60h37
q76 0 76 -41zM280 1171q-33 32 -33 85t33 84.5t86 31.5q52 0 85 -31.5t33 -84.5t-33 -85t-85 -32q-53 0 -86 32zM606 1171q-33 32 -33 85t33 84.5t86 31.5q52 0 84.5 -31.5t32.5 -84.5t-32.5 -85t-84.5 -32q-53 0 -86 32z" />
    <glyph glyph-name="ygrave" unicode="&#x1ef3;" horiz-adv-x="1022" 
d="M63 0zM967 918q0 -5 -4 -19l-341 -904q-68 -180 -172.5 -272t-257.5 -92h-79q-22 0 -36 15.5t-14 50.5v28q0 35 14 50t36 15h42q88 0 150.5 54t103.5 161l14 37l-346 857q-4 14 -4 19q0 41 76 41h63q49 0 73.5 -16t32.5 -44l223 -618l207 618q16 60 106 60h37
q76 0 76 -41zM546 1124q-35 0 -66 16t-73 54l-119 109q-24 23 -24 46q0 19 17 31.5t46 12.5h73q28 0 48.5 -10.5t40.5 -33.5l128 -138q26 -27 26 -50q0 -17 -13 -27t-35 -10h-49z" />
    <glyph glyph-name="z" unicode="z" horiz-adv-x="948" 
d="M102 29q-31 29 -31 84q0 40 10.5 68.5t39.5 61.5l468 528q7 8 7 16q0 14 -19 14h-445q-22 0 -36 15.5t-14 50.5v26q0 35 14 50.5t36 15.5h618q53 0 84 -29t31 -84q0 -39 -11.5 -68t-40.5 -62l-466 -528q-7 -7 -7 -15q0 -15 19 -15h475q22 0 36 -15.5t14 -50.5v-27
q0 -65 -50 -65h-648q-53 0 -84 29z" />
    <glyph glyph-name="zacute" unicode="&#x17a;" horiz-adv-x="948" 
d="M71 0zM102 29q-31 29 -31 84q0 40 10.5 68.5t39.5 61.5l468 528q7 8 7 16q0 14 -19 14h-445q-22 0 -36 15.5t-14 50.5v26q0 35 14 50.5t36 15.5h618q53 0 84 -29t31 -84q0 -39 -11.5 -68t-40.5 -62l-466 -528q-7 -7 -7 -15q0 -15 19 -15h475q22 0 36 -15.5t14 -50.5v-27
q0 -65 -50 -65h-648q-53 0 -84 29zM382.5 1134.5q-13.5 10.5 -13.5 27.5q0 23 25 49l128 138q20 23 40.5 33.5t48.5 10.5h73q29 0 46 -12.5t17 -31.5q0 -23 -24 -46l-119 -109q-42 -38 -72 -54t-65 -16h-49q-22 0 -35.5 10.5z" />
    <glyph glyph-name="zcaron" unicode="&#x17e;" horiz-adv-x="948" 
d="M71 0zM102 29q-31 29 -31 84q0 40 10.5 68.5t39.5 61.5l468 528q7 8 7 16q0 14 -19 14h-445q-22 0 -36 15.5t-14 50.5v26q0 35 14 50.5t36 15.5h618q53 0 84 -29t31 -84q0 -39 -11.5 -68t-40.5 -62l-466 -528q-7 -7 -7 -15q0 -15 19 -15h475q22 0 36 -15.5t14 -50.5v-27
q0 -65 -50 -65h-648q-53 0 -84 29zM777 1382.5q15 -10.5 15 -28.5q0 -23 -26 -51l-132 -136q-19 -22 -40 -32t-48 -10h-123q-27 0 -47.5 10t-40.5 32l-133 136q-23 24 -23 48q0 19 16 30.5t45 11.5h23q35 0 56.5 -7.5t40 -23.5t54.5 -54l71 -75l70 75q34 37 54 53.5t42 24
t57 7.5h26q28 0 43 -10.5z" />
    <glyph glyph-name="zdotaccent" unicode="&#x17c;" horiz-adv-x="948" 
d="M71 0zM102 29q-31 29 -31 84q0 40 10.5 68.5t39.5 61.5l468 528q7 8 7 16q0 14 -19 14h-445q-22 0 -36 15.5t-14 50.5v26q0 35 14 50.5t36 15.5h618q53 0 84 -29t31 -84q0 -39 -11.5 -68t-40.5 -62l-466 -528q-7 -7 -7 -15q0 -15 19 -15h475q22 0 36 -15.5t14 -50.5v-27
q0 -65 -50 -65h-648q-53 0 -84 29zM392 1174q-36 35 -36 94q0 57 36 92t94 35t94 -35t36 -92q0 -59 -36 -94t-94 -35t-94 35z" />
    <glyph glyph-name="ordfeminine" unicode="&#xaa;" horiz-adv-x="875" 
d="M676.5 1351q71.5 -61 71.5 -185v-255q0 -121 -76 -175.5t-234 -54.5q-157 0 -235 52.5t-78 160.5v14q0 104 74 156t230 60l151 8v16q0 61 -32 89.5t-102 28.5q-44 0 -95 -9t-93 -26l-40 -15q-11 -3 -19 -3q-27 0 -37 36l-11 45q-3 11 -3 19q0 25 27 36l52 20
q107 43 230 43q148 0 219.5 -61zM547 825.5q33 25.5 33 85.5v105l-121 -5q-88 -5 -123.5 -28t-35.5 -74v-12q0 -53 31.5 -75t106.5 -22q76 0 109 25.5z" />
    <glyph glyph-name="ordmasculine" unicode="&#xba;" horiz-adv-x="924" 
d="M206.5 767q-87.5 85 -87.5 266v30q0 180 87.5 265t256.5 85q172 0 257.5 -83t85.5 -267v-31q0 -183 -85.5 -266.5t-257.5 -83.5q-169 0 -256.5 85zM560.5 837q35.5 20 52 66.5t16.5 129.5v30q0 82 -16.5 128t-52 66t-96.5 20q-60 0 -95.5 -20t-52 -66.5t-16.5 -128.5v-29
q0 -82 16.5 -129t52 -67t95.5 -20q61 0 96.5 20z" />
    <glyph glyph-name="uni0410" unicode="&#x410;" horiz-adv-x="1405" 
d="M73 0zM1333 50q0 -23 -21 -36.5t-66 -13.5h-62q-100 0 -119 71l-103 328h-531l-106 -328q-8 -32 -37 -51.5t-84 -19.5h-46q-85 0 -85 50q0 11 3 21l411 1175q29 90 74 128.5t132 38.5h28q79 0 126 -39.5t75 -126.5l407 -1176q4 -14 4 -21zM908 571l-191 606q-5 16 -18 16
t-17 -16l-196 -606h422z" />
    <glyph glyph-name="uni0411" unicode="&#x411;" horiz-adv-x="1246" 
d="M1049.5 706.5q110.5 -99.5 110.5 -299.5q0 -204 -110 -305.5t-348 -101.5h-377q-105 0 -153 40t-48 116v1081q0 156 204 156h674q58 0 58 -78v-31q0 -76 -58 -76h-584q-46 0 -46 -36v-366h338q229 0 339.5 -99.5zM816.5 204q57.5 22 82.5 69.5t25 128.5q0 122 -59.5 178
t-198.5 56h-294v-418q0 -36 46 -36h243q98 0 155.5 22z" />
    <glyph glyph-name="uni0412" unicode="&#x412;" horiz-adv-x="1275" 
d="M124 0zM1110.5 609q64.5 -81 64.5 -220q0 -187 -109.5 -288t-328.5 -101h-412q-105 0 -153 40t-48 116v1081q0 76 48 116t153 40h392q211 0 312.5 -87t101.5 -267q0 -119 -53.5 -199t-155.5 -117q124 -33 188.5 -114zM364 1180v-391h279q137 0 197 55t60 165
q0 75 -23.5 120t-76.5 66t-145 21h-245q-46 0 -46 -36zM869 231q59 57 59 174q0 115 -64 172.5t-209 57.5h-291v-425q0 -36 46 -36h263q137 0 196 57z" />
    <glyph glyph-name="uni0413" unicode="&#x413;" horiz-adv-x="1087" 
d="M124 67v1170q0 76 48 116t153 40h636q58 0 58 -78v-31q0 -76 -58 -76h-546q-46 0 -46 -36v-1105q0 -31 -22.5 -49t-78.5 -18h-44q-100 0 -100 67z" />
    <glyph glyph-name="uni0403" unicode="&#x403;" horiz-adv-x="1087" 
d="M124 0zM124 67v1170q0 76 48 116t153 40h636q58 0 58 -78v-31q0 -76 -58 -76h-546q-46 0 -46 -36v-1105q0 -31 -22.5 -49t-78.5 -18h-44q-100 0 -100 67zM495.5 1508.5q-13.5 10.5 -13.5 27.5q0 23 25 49l128 138q20 23 40.5 33.5t48.5 10.5h73q29 0 46 -12.5t17 -31.5
q0 -23 -24 -46l-119 -109q-42 -38 -72 -54t-65 -16h-49q-22 0 -35.5 10.5z" />
    <glyph glyph-name="uni0490" unicode="&#x490;" horiz-adv-x="1087" 
d="M1003 1653l16 -370q4 -75 -58 -75h-543q-46 0 -46 -36v-1105q0 -31 -22.5 -49t-78.5 -18h-47q-100 0 -100 67v1170q0 156 204 156h467v260q0 67 101 67h18q87 0 89 -67z" />
    <glyph glyph-name="uni0414" unicode="&#x414;" horiz-adv-x="1678" 
d="M1610 110l-15 -370q-2 -67 -90 -67h-17q-101 0 -101 67v260h-1096v-260q0 -67 -101 -67h-17q-88 0 -90 67l-15 370q-4 75 57 75h24q180 0 198 226l64 826q6 78 51.5 117t148.5 39h606q201 0 201 -156v-1052h135q61 0 57 -75zM519 185h650v987q0 36 -46 36h-426
q-24 0 -34 -9t-12 -27l-58 -755q-10 -142 -74 -232z" />
    <glyph glyph-name="uni0415" unicode="&#x415;" horiz-adv-x="1141" 
d="M372 1172v-375h517q25 0 40.5 -17.5t15.5 -56.5v-29q0 -73 -56 -73h-517v-400q0 -36 46 -36h569q26 0 42.5 -18t16.5 -59v-31q0 -41 -16.5 -59t-42.5 -18h-662q-105 0 -153 40t-48 116v1081q0 76 48 116t153 40h662q26 0 42.5 -18t16.5 -60v-31q0 -76 -59 -76h-569
q-46 0 -46 -36z" />
    <glyph glyph-name="uni0401" unicode="&#x401;" horiz-adv-x="1141" 
d="M124 0zM372 1172v-375h517q25 0 40.5 -17.5t15.5 -56.5v-29q0 -73 -56 -73h-517v-400q0 -36 46 -36h569q26 0 42.5 -18t16.5 -59v-31q0 -41 -16.5 -59t-42.5 -18h-662q-105 0 -153 40t-48 116v1081q0 76 48 116t153 40h662q26 0 42.5 -18t16.5 -60v-31q0 -76 -59 -76
h-569q-46 0 -46 -36zM347 1545q-33 32 -33 85t33 84.5t86 31.5q52 0 85 -31.5t33 -84.5t-33 -85t-85 -32q-53 0 -86 32zM673 1545q-33 32 -33 85t33 84.5t86 31.5q52 0 84.5 -31.5t32.5 -84.5t-32.5 -85t-84.5 -32q-53 0 -86 32z" />
    <glyph glyph-name="uni0416" unicode="&#x416;" horiz-adv-x="1969" 
d="M92 30q0 15 15 38l461 628l-458 629q-14 25 -14 38q0 31 66 31h78q55 0 92.5 -19t53.5 -50l396 -589q14 -21 14 -44q0 -22 -14 -44l-395 -580q-16 -30 -53.5 -49t-93.5 -19h-81q-67 0 -67 30zM859 67v1260q0 67 101 67h47q101 0 101 -67v-1260q0 -67 -101 -67h-47
q-101 0 -101 67zM1635 18.5q-37 18.5 -54 49.5l-395 580q-14 22 -14 44q0 23 14 44l396 589q18 31 54.5 50t91.5 19h78q67 0 67 -31q0 -16 -16 -38l-462 -629l465 -628q16 -22 16 -38q0 -30 -67 -30h-81q-56 0 -93 18.5z" />
    <glyph glyph-name="uni0417" unicode="&#x417;" horiz-adv-x="1228" 
d="M218 47l-103 39q-22 7 -32.5 18.5t-10.5 29.5q0 14 6 33l20 61q8 29 19 42.5t26 13.5q8 0 23 -5l95 -36q89 -33 171 -52.5t166 -19.5q139 0 211.5 61.5t72.5 173.5q0 216 -286 216h-129q-53 0 -53 70v32q0 71 53 71h124q134 0 203.5 60.5t69.5 163.5q0 95 -63 148.5
t-190 53.5q-82 0 -161.5 -18.5t-162.5 -49.5l-90 -33q-11 -4 -23 -4q-16 0 -25.5 12t-16.5 40l-19 64q-5 20 -5 32q0 18 9.5 29t31.5 18l99 37q181 65 377 65q152 0 258.5 -45.5t160.5 -129t54 -196.5t-57.5 -197.5t-158.5 -127.5q116 -35 179 -115.5t63 -206.5
q0 -122 -63 -216t-179.5 -147t-272.5 -53q-200 0 -391 68z" />
    <glyph glyph-name="uni0418" unicode="&#x418;" horiz-adv-x="1379" 
d="M176.5 46.5q-52.5 46.5 -52.5 131.5v1151q0 64 87 64h29q89 0 89 -64v-1108q0 -16 14 -16q15 0 21 16l434 1004q33 91 83 129.5t132 38.5h45q90 0 143.5 -47t53.5 -132v-1150q0 -64 -87 -64h-29q-89 0 -89 64v1108q0 16 -14 16t-21 -16l-434 -1004q-34 -91 -83.5 -129.5
t-131.5 -38.5h-48q-89 0 -141.5 46.5z" />
    <glyph glyph-name="uni0419" unicode="&#x419;" horiz-adv-x="1379" 
d="M124 0zM176.5 46.5q-52.5 46.5 -52.5 131.5v1151q0 64 87 64h29q89 0 89 -64v-1108q0 -16 14 -16q15 0 21 16l434 1004q33 91 83 129.5t132 38.5h45q90 0 143.5 -47t53.5 -132v-1150q0 -64 -87 -64h-29q-89 0 -89 64v1108q0 16 -14 16t-21 -16l-434 -1004
q-34 -91 -83.5 -129.5t-131.5 -38.5h-48q-89 0 -141.5 46.5zM523.5 1514.5q-72.5 34.5 -108.5 93.5t-36 134q0 40 14.5 62.5t37.5 22.5q21 0 33 -14t28 -47q19 -39 39 -66t61.5 -46.5t108.5 -19.5t108.5 19.5t61.5 46.5t39 66q16 33 28 47t33 14q23 0 37.5 -22.5t14.5 -62.5
q0 -75 -36 -134t-108.5 -93.5t-177.5 -34.5t-177.5 34.5z" />
    <glyph glyph-name="uni041A" unicode="&#x41a;" horiz-adv-x="1292" 
d="M372 1326v-1259q0 -31 -22.5 -49t-78.5 -18h-47q-100 0 -100 67v1259q0 67 100 67h47q101 0 101 -67zM1199 31q0 -31 -68 -31h-94q-56 0 -93 18.5t-54 49.5l-440 580q-14 22 -14 43q0 23 14 45l441 588q18 31 54.5 50t91.5 19h91q67 0 67 -32q0 -15 -15 -37l-501 -627
l504 -629q16 -22 16 -37z" />
    <glyph glyph-name="uni040C" unicode="&#x40c;" horiz-adv-x="1292" 
d="M124 0zM372 1326v-1259q0 -31 -22.5 -49t-78.5 -18h-47q-100 0 -100 67v1259q0 67 100 67h47q101 0 101 -67zM1199 31q0 -31 -68 -31h-94q-56 0 -93 18.5t-54 49.5l-440 580q-14 22 -14 43q0 23 14 45l441 588q18 31 54.5 50t91.5 19h91q67 0 67 -32q0 -15 -15 -37
l-501 -627l504 -629q16 -22 16 -37zM536.5 1508.5q-13.5 10.5 -13.5 27.5q0 23 25 49l128 138q20 23 40.5 33.5t48.5 10.5h73q29 0 46 -12.5t17 -31.5q0 -23 -24 -46l-119 -109q-42 -38 -72 -54t-65 -16h-49q-22 0 -35.5 10.5z" />
    <glyph glyph-name="uni041B" unicode="&#x41b;" horiz-adv-x="1528" 
d="M84 18q-16 18 -16 59v31q0 77 58 77h27q81 0 130 55.5t58 170.5l63 826q5 78 50.5 117t149.5 39h597q203 0 203 -156v-1170q0 -31 -22.5 -49t-78.5 -18h-47q-100 0 -100 67v1105q0 36 -46 36h-421q-24 0 -34 -9t-12 -27l-56 -755q-9 -132 -63.5 -226t-143.5 -142.5
t-201 -48.5h-53q-26 0 -42 18z" />
    <glyph glyph-name="uni041C" unicode="&#x41c;" horiz-adv-x="1681" 
d="M88 0zM1572.5 18q-21.5 -18 -71.5 -18h-37q-51 0 -70.5 17t-21.5 47l-69 1109q0 16 -14 16q-17 0 -21 -16l-260 -1035q-27 -138 -163 -138h-16q-67 0 -108 33t-56 105l-264 1035q-4 16 -21 16q-14 0 -14 -16l-70 -1109q-2 -30 -21 -47t-67 -17h-32q-48 0 -69 18t-19 46
l72 1153q6 88 57 134.5t139 46.5h25q90 0 143.5 -38.5t72.5 -132.5l244 -1045l246 1050q16 85 71 125.5t143 40.5h28q88 0 137 -45.5t54 -135.5l72 -1153q2 -28 -19.5 -46z" />
    <glyph glyph-name="uni041D" unicode="&#x41d;" horiz-adv-x="1351" 
d="M124 0zM1227 1326v-1259q0 -31 -22.5 -49t-78.5 -18h-47q-100 0 -100 67v559h-607v-559q0 -31 -22.5 -49t-78.5 -18h-47q-100 0 -100 67v1259q0 67 100 67h47q101 0 101 -67v-522h607v522q0 67 100 67h47q101 0 101 -67z" />
    <glyph glyph-name="uni041E" unicode="&#x41e;" horiz-adv-x="1488" 
d="M103 0zM262 152q-159 172 -159 524v41q0 349 160 522.5t481 173.5t481 -173.5t160 -522.5v-41q0 -352 -159 -524t-482 -172t-482 172zM964.5 221q82.5 52 120.5 162.5t38 292.5v41q0 181 -38 292t-121 163.5t-220 52.5t-220 -52.5t-121 -163.5t-38 -292v-41
q0 -182 38 -292.5t120.5 -162.5t220.5 -52t220.5 52z" />
    <glyph glyph-name="uni041F" unicode="&#x41f;" horiz-adv-x="1354" 
d="M124 67v1170q0 76 48 116t153 40h705q104 0 152 -40t48 -116v-1170q0 -67 -100 -67h-42q-101 0 -101 67v1105q0 36 -46 36h-528q-46 0 -46 -36v-1105q0 -67 -101 -67h-42q-100 0 -100 67z" />
    <glyph glyph-name="uni0420" unicode="&#x420;" horiz-adv-x="1246" 
d="M124 0zM1051.5 1295.5q108.5 -97.5 108.5 -300.5t-113 -312t-340 -109h-335v-507q0 -31 -22.5 -49t-78.5 -18h-47q-100 0 -100 67v1170q0 156 202 156h379q238 0 346.5 -97.5zM864 809q59 57 59 179q0 81 -24.5 129t-81.5 70t-155 22h-244q-46 0 -46 -36v-421h295
q138 0 197 57z" />
    <glyph glyph-name="uni0421" unicode="&#x421;" horiz-adv-x="1297" 
d="M103 0zM395 60q-143 80 -217.5 235.5t-74.5 380.5v41q0 225 74.5 380.5t217.5 235.5t347 80q165 0 336 -59l92 -34q20 -7 29.5 -17.5t9.5 -27.5q0 -11 -5 -31l-17 -56q-8 -27 -17 -39t-24 -12q-5 0 -21 4l-82 29q-65 22 -126 33t-128 11q-208 0 -316 -123.5t-108 -373.5
v-41q0 -250 108 -373.5t316 -123.5q67 0 128 11t126 33l82 29q16 4 21 4q15 0 24 -12t17 -40l17 -56q5 -20 5 -30q0 -17 -9.5 -28t-29.5 -18l-92 -34q-169 -58 -336 -58q-204 0 -347 80z" />
    <glyph glyph-name="uni0422" unicode="&#x422;" horiz-adv-x="1260" 
d="M63 0zM506 67v1141h-385q-58 0 -58 76v31q0 78 58 78h1017q26 0 42.5 -18t16.5 -60v-31q0 -76 -59 -76h-385v-1141q0 -31 -22.5 -49t-78.5 -18h-45q-101 0 -101 67z" />
    <glyph glyph-name="uni0423" unicode="&#x423;" horiz-adv-x="1266" 
d="M1180 1353q0 -9 -5 -21l-423 -928q-92 -203 -210 -304t-296 -101h-90q-61 0 -61 67v50q0 36 17 51.5t44 15.5h46q106 0 180.5 56t128.5 174l22 49l-427 870q-5 12 -5 21q0 40 87 40h65q58 0 85 -16.5t38 -44.5l285 -658l266 658q11 28 38 44.5t85 16.5h43q87 0 87 -40z
" />
    <glyph glyph-name="uni040E" unicode="&#x40e;" horiz-adv-x="1266" 
d="M95 0zM1180 1353q0 -9 -5 -21l-423 -928q-92 -203 -210 -304t-296 -101h-90q-61 0 -61 67v50q0 36 17 51.5t44 15.5h46q106 0 180.5 56t128.5 174l22 49l-427 870q-5 12 -5 21q0 40 87 40h65q58 0 85 -16.5t38 -44.5l285 -658l266 658q11 28 38 44.5t85 16.5h43
q87 0 87 -40zM483.5 1514.5q-72.5 34.5 -108.5 93.5t-36 134q0 40 14.5 62.5t37.5 22.5q21 0 33 -14t28 -47q19 -39 39 -66t61.5 -46.5t108.5 -19.5t108.5 19.5t61.5 46.5t39 66q16 33 28 47t33 14q23 0 37.5 -22.5t14.5 -62.5q0 -75 -36 -134t-108.5 -93.5t-177.5 -34.5
t-177.5 34.5z" />
    <glyph glyph-name="uni0424" unicode="&#x424;" horiz-adv-x="1777" 
d="M1505.5 302q-168.5 -134 -494.5 -145v-90q0 -67 -101 -67h-47q-101 0 -101 67v90q-324 11 -491.5 145.5t-167.5 394.5q0 516 659 540v89q0 67 101 67h47q101 0 101 -67v-89q663 -21 663 -540q0 -261 -168.5 -395zM1248 387q91 37 134.5 110.5t43.5 190.5q0 121 -42 198.5
t-133.5 118t-239.5 46.5v-707q146 6 237 43zM394.5 498.5q43.5 -73.5 133.5 -110.5t234 -44v707q-147 -7 -237 -47.5t-132 -118t-42 -197.5q0 -116 43.5 -189.5z" />
    <glyph glyph-name="uni0425" unicode="&#x425;" horiz-adv-x="1342" 
d="M95 0zM1248 45q0 -20 -22 -32.5t-65 -12.5h-87q-52 0 -76 17t-41 49l-301 517l-297 -517q-13 -32 -38.5 -49t-78.5 -17h-61q-43 0 -64.5 12.5t-21.5 32.5q0 11 7 24l388 629l-387 626q-7 11 -7 23q0 21 22 33.5t65 12.5h92q52 0 76 -17t39 -49l294 -509l293 509
q14 32 39 49t78 17h61q43 0 65 -13t22 -33q0 -12 -7 -23l-388 -621l394 -634q7 -11 7 -24z" />
    <glyph glyph-name="uni0427" unicode="&#x427;" horiz-adv-x="1357" 
d="M1234 1326v-1259q0 -67 -96 -67h-52q-101 0 -101 67v457q-110 -82 -291 -82h-154q-229 0 -334 102.5t-105 296.5v492q0 27 22 43.5t71 16.5h49q99 0 99 -60v-487q0 -75 21.5 -122.5t74 -71.5t144.5 -24h153q135 0 192.5 54.5t57.5 163.5v480q0 67 101 67h52q96 0 96 -67z
" />
    <glyph glyph-name="uni0426" unicode="&#x426;" horiz-adv-x="1486" 
d="M1433 110l-15 -370q-2 -67 -90 -67h-17q-101 0 -101 67v260h-885q-105 0 -153 40t-48 116v1170q0 67 100 67h42q101 0 101 -67v-1105q0 -36 46 -36h574v1141q0 67 101 67h42q100 0 100 -67v-1141h146q61 0 57 -75z" />
    <glyph glyph-name="uni0428" unicode="&#x428;" horiz-adv-x="1883" 
d="M1760 1326v-1170q0 -156 -201 -156h-1234q-105 0 -153 40t-48 116v1170q0 67 100 67h42q101 0 101 -67v-1105q0 -36 46 -36h406v1141q0 67 101 67h42q101 0 101 -67v-1141h407q46 0 46 36v1105q0 30 23.5 48.5t77.5 18.5h42q101 0 101 -67z" />
    <glyph glyph-name="uni0429" unicode="&#x429;" horiz-adv-x="2009" 
d="M1956 110l-16 -370q-2 -67 -90 -67h-17q-101 0 -101 67v260h-1407q-105 0 -153 40t-48 116v1170q0 67 100 67h42q101 0 101 -67v-1105q0 -36 46 -36h406v1141q0 67 101 67h42q101 0 101 -67v-1141h453v1141q0 30 23.5 48.5t77.5 18.5h42q101 0 101 -67v-1141h138
q62 0 58 -75z" />
    <glyph glyph-name="uni040F" unicode="&#x40f;" horiz-adv-x="1354" 
d="M1230 1326v-1170q0 -76 -48 -116t-152 -40h-233l-10 -262q-2 -67 -90 -67h-18q-48 0 -68.5 18.5t-20.5 48.5l-10 262h-255q-105 0 -153 40t-48 116v1170q0 67 100 67h42q101 0 101 -67v-1105q0 -36 46 -36h528q46 0 46 36v1105q0 67 101 67h42q100 0 100 -67z" />
    <glyph glyph-name="uni042F" unicode="&#x42f;" horiz-adv-x="1281" 
d="M1158 1237v-1170q0 -67 -101 -67h-45q-101 0 -101 67v525h-166q-64 -3 -99 -31.5t-67 -89.5l-207 -406q-29 -65 -130 -65h-70q-76 0 -76 38q0 14 7 27l240 438q39 72 100 114q-167 24 -249.5 113.5t-82.5 255.5q0 204 110 305.5t348 101.5h388q201 0 201 -156zM911 754
v419q0 36 -46 36h-255q-98 0 -155 -22t-81.5 -69.5t-24.5 -128.5q0 -122 59 -178.5t197 -56.5h306z" />
    <glyph glyph-name="uni042C" unicode="&#x42c;" horiz-adv-x="1246" 
d="M1051 725.5q109 -99.5 109 -308.5q0 -205 -111.5 -311t-348.5 -106h-375q-105 0 -153 40t-48 116v1170q0 67 100 67h46q101 0 101 -67v-501h340q231 0 340 -99.5zM816 207q57 23 82 72t25 130q0 82 -25 133t-81 75.5t-151 24.5h-295v-423q0 -17 10.5 -26t35.5 -9h244
q98 0 155 23z" />
    <glyph glyph-name="uni042A" unicode="&#x42a;" horiz-adv-x="1440" 
d="M1246 725.5q109 -99.5 109 -308.5q0 -205 -111.5 -311t-348.5 -106h-375q-105 0 -153 40t-48 116v1062h-190q-58 0 -58 77v30q0 78 58 78h313v-10h23q101 0 101 -67v-501h340q231 0 340 -99.5zM1011 207q57 23 82 72t25 130q0 82 -25 133t-81 75.5t-151 24.5h-295v-423
q0 -17 10.5 -26t35.5 -9h244q98 0 155 23z" />
    <glyph glyph-name="uni042B" unicode="&#x42b;" horiz-adv-x="1742" 
d="M124 0zM1051 725.5q109 -99.5 109 -308.5q0 -205 -111.5 -311t-348.5 -106h-375q-105 0 -153 40t-48 116v1170q0 67 100 67h46q101 0 101 -67v-501h340q231 0 340 -99.5zM816 207q57 23 82 72t25 130q0 82 -25 133t-81 75.5t-151 24.5h-295v-423q0 -17 10.5 -26t35.5 -9
h244q98 0 155 23zM1370 67v1259q0 67 100 67h49q99 0 99 -67v-1259q0 -67 -99 -67h-49q-100 0 -100 67z" />
    <glyph glyph-name="uni0409" unicode="&#x409;" horiz-adv-x="2205" 
d="M2010 724q110 -100 110 -309q0 -205 -111.5 -310t-348.5 -105h-373q-201 0 -201 156v1016q0 36 -46 36h-351q-24 0 -34 -9t-12 -27l-56 -755q-9 -132 -63.5 -226t-143.5 -142.5t-201 -48.5h-53q-26 0 -42 18t-16 59v31q0 77 58 77h27q81 0 130 55.5t58 170.5l63 826
q5 78 50.5 117t149.5 39h526q201 0 201 -156v-413h339q230 0 340 -100zM1776.5 205q57.5 23 82.5 72t25 129q0 83 -25 134.5t-81.5 76.5t-151.5 25h-295v-424q0 -36 46 -36h244q98 0 155.5 23z" />
    <glyph glyph-name="uni040A" unicode="&#x40a;" horiz-adv-x="2097" 
d="M1901.5 715.5q110.5 -98.5 110.5 -300.5q0 -205 -111.5 -310t-348.5 -105h-375q-105 0 -153.5 40t-48.5 116v474h-603v-563q0 -31 -22.5 -49t-78.5 -18h-47q-100 0 -100 67v1259q0 67 100 67h47q101 0 101 -67v-518h603v518q0 67 101 67h45q56 0 79.5 -18.5t23.5 -48.5
v-512h337q230 0 340.5 -98.5zM1667.5 205q57.5 23 83 72t25.5 129q0 82 -25 133.5t-82 76.5t-152 25h-293v-423q0 -36 46 -36h242q98 0 155.5 23z" />
    <glyph glyph-name="uni0405" unicode="&#x405;" horiz-adv-x="1286" 
d="M111 0zM258 42l-107 38q-20 7 -30 18.5t-10 29.5q0 10 5 28l20 62q8 26 17.5 37t25.5 11q10 0 28 -5l91 -31q75 -26 159 -41.5t168 -15.5q144 0 216.5 50.5t72.5 144.5q0 52 -23.5 84t-69.5 55t-135 52l-189 61q-120 37 -198 83t-121 118t-43 180q0 122 58.5 215
t171.5 145t270 52q180 0 347 -58l94 -34q20 -8 29 -19t9 -28q0 -5 -4 -25l-19 -64q-8 -26 -17 -36.5t-24 -10.5q-9 0 -26 5l-80 28q-151 51 -290 51q-140 0 -207.5 -51.5t-67.5 -144.5q0 -57 23.5 -92t69 -58t129.5 -50l190 -61q131 -41 210 -86.5t119 -114.5t40 -173
q0 -128 -60.5 -220t-178.5 -141.5t-286 -49.5q-198 0 -377 62z" />
    <glyph glyph-name="uni0404" unicode="&#x404;" horiz-adv-x="1293" 
d="M1204 148q4 -24 4 -30q0 -18 -8.5 -28.5t-29.5 -17.5l-92 -34q-169 -58 -336 -58q-204 0 -347 80t-217.5 235.5t-74.5 380.5v41q0 225 74.5 380.5t217.5 235.5t347 80q165 0 336 -59l92 -34q21 -7 29.5 -17.5t8.5 -27.5q0 -7 -4 -31l-17 -61q-7 -28 -16 -39.5t-25 -11.5
q-9 0 -21 3l-82 29q-67 22 -127.5 33t-126.5 11q-386 0 -420 -409h558q56 0 56 -73v-33q0 -73 -56 -73h-560q24 -435 422 -435q67 0 128 11t126 33l82 28q11 4 22 4q15 0 24.5 -12t15.5 -39z" />
    <glyph glyph-name="uni042D" unicode="&#x42d;" horiz-adv-x="1293" 
d="M898 1335q143 -78 217.5 -231.5t74.5 -377.5v-41q0 -225 -74.5 -383t-218 -240t-346.5 -82q-167 0 -336 58l-92 34q-21 7 -29.5 17.5t-8.5 28.5q0 6 4 30l17 62q6 27 15.5 39t24.5 12q11 0 22 -4l82 -28q65 -22 126 -33t127 -11q196 0 303 109t120 326h-561
q-24 0 -39.5 17t-15.5 56v33q0 39 15.5 56t39.5 17h560q-15 208 -121 308.5t-301 100.5q-65 0 -125.5 -11t-127.5 -33l-82 -29q-12 -3 -21 -3q-16 0 -25 11.5t-16 39.5l-17 61q-4 24 -4 31q0 17 8.5 27.5t29.5 17.5l92 34q171 59 336 59q204 0 347 -78z" />
    <glyph glyph-name="uni0406" unicode="&#x406;" horiz-adv-x="496" 
d="M124 0zM124 67v1259q0 67 100 67h49q99 0 99 -67v-1259q0 -67 -99 -67h-49q-100 0 -100 67z" />
    <glyph glyph-name="uni0407" unicode="&#x407;" horiz-adv-x="496" 
d="M0 0zM124 67v1259q0 67 100 67h49q99 0 99 -67v-1259q0 -67 -99 -67h-49q-100 0 -100 67zM5 1545q-33 32 -33 85t33 84.5t86 31.5q52 0 85 -31.5t33 -84.5t-33 -85t-85 -32q-53 0 -86 32zM331 1545q-33 32 -33 85t33 84.5t86 31.5q52 0 84.5 -31.5t32.5 -84.5t-32.5 -85
t-84.5 -32q-53 0 -86 32z" />
    <glyph glyph-name="uni0408" unicode="&#x408;" horiz-adv-x="728" 
d="M62 0zM106 9.5q-44 29.5 -44 82.5v17q0 55 74 55q108 0 163.5 51t55.5 168v943q0 67 99 67h51q53 0 76 -18.5t23 -48.5v-951q0 -131 -46.5 -219.5t-130.5 -132t-196 -43.5q-81 0 -125 29.5z" />
    <glyph glyph-name="uni040B" unicode="&#x40b;" horiz-adv-x="1604" 
d="M1383 848q105 -102 105 -296v-503q0 -59 -93 -59h-47q-49 0 -71 16.5t-22 42.5v498q0 112 -54.5 165t-187.5 53q-140 0 -200 -53.5t-60 -164.5v-480q0 -31 -22.5 -49t-78.5 -18h-45q-101 0 -101 67v1141h-385q-58 0 -58 76v31q0 78 58 78h1017q26 0 42.5 -18t16.5 -60
v-31q0 -76 -59 -76h-385v-337q112 79 297 79q228 0 333 -102z" />
    <glyph glyph-name="uni042E" unicode="&#x42e;" horiz-adv-x="1955" 
d="M1716.5 1237q135.5 -176 135.5 -520v-41q0 -341 -133.5 -518.5t-418.5 -177.5q-273 0 -407 164.5t-143 481.5h-378v-559q0 -31 -22.5 -49t-78.5 -18h-47q-100 0 -100 67v1259q0 67 100 67h47q101 0 101 -67v-522h379q17 301 152 455t397 154q281 0 416.5 -176zM1608 717
q0 183 -30.5 293.5t-97.5 162.5t-180 52q-112 0 -179 -52t-97.5 -162.5t-30.5 -293.5v-41q0 -183 30 -294t97 -162.5t180 -51.5t180 51.5t97.5 162.5t30.5 294v41z" />
    <glyph glyph-name="uni0402" unicode="&#x402;" horiz-adv-x="1639" 
d="M1438 806.5q115 -114.5 115 -323.5q0 -151 -56 -262t-165.5 -171t-266.5 -60h-133q-56 0 -56 73v29q0 73 56 73h113q125 0 192 80.5t67 227.5q0 131 -64 196.5t-206 65.5q-149 0 -215 -53.5t-66 -164.5v-450q0 -31 -22.5 -49t-78.5 -18h-45q-101 0 -101 67v1141h-385
q-58 0 -58 76v31q0 78 58 78h1017q26 0 42.5 -18t16.5 -60v-31q0 -76 -59 -76h-385v-378q122 91 328 91q242 0 357 -114.5z" />
    <glyph glyph-name="uni0462" unicode="&#x462;" horiz-adv-x="1382" 
d="M1188 725.5q109 -99.5 109 -308.5q0 -205 -111.5 -311t-348.5 -106h-375q-105 0 -153 40t-48 116v892h-166q-24 0 -39 17t-15 55v27q0 38 15 55t39 17h166v107q0 67 100 67h46q101 0 101 -67v-107h304q54 0 54 -72v-27q0 -72 -54 -72h-304v-223h340q231 0 340 -99.5z
M953 207q57 23 82 72t25 130q0 82 -25 133t-81 75.5t-151 24.5h-295v-423q0 -17 10.5 -26t35.5 -9h244q98 0 155 23z" />
    <glyph glyph-name="uni0472" unicode="&#x472;" horiz-adv-x="1488" 
d="M1225 1239.5q160 -173.5 160 -522.5v-41q0 -352 -159 -524t-482 -172t-482 172t-159 524v41q0 349 160 522.5t481 173.5t481 -173.5zM543 1183.5q-79 -41.5 -121 -128t-53 -226.5q68 37 153 37q68 0 115 -14.5t111 -43.5q55 -27 97 -40t98 -13q104 0 177 64
q-10 143 -52 232t-121 131.5t-203 42.5q-122 0 -201 -41.5zM958.5 217.5q81.5 48.5 121 151t43.5 270.5q-77 -65 -189 -65q-70 0 -118.5 14.5t-106.5 43.5q-57 26 -98 39t-99 13q-76 0 -147 -42q4 -169 43 -272.5t121 -152t215 -48.5t214.5 48.5z" />
    <glyph glyph-name="uni0474" unicode="&#x474;" horiz-adv-x="1513" 
d="M552 39q-48 39 -73 124l-388 1159q-3 11 -3 20q0 51 86 51h62q55 0 83 -20t36 -51l328 -1092q5 -16 18 -16t18 16l282 1007q20 77 75.5 116.5t159.5 39.5h151q58 0 58 -78v-31q0 -76 -58 -76h-111q-22 0 -32.5 -10.5t-16.5 -30.5l-314 -1002q-26 -88 -72.5 -126.5
t-133.5 -38.5h-27q-80 0 -128 39z" />
    <glyph glyph-name="uni0492" unicode="&#x492;" horiz-adv-x="1207" 
d="M1139 1315v-31q0 -76 -58 -76h-546q-46 0 -46 -36v-378h295q24 0 39 -17t15 -55v-27q0 -72 -54 -72h-295v-556q0 -31 -22.5 -49t-78.5 -18h-44q-100 0 -100 67v556h-149q-24 0 -39 17t-15 55v27q0 38 15.5 55t38.5 17h149v443q0 76 48 116t153 40h636q58 0 58 -78z" />
    <glyph glyph-name="uni0496" unicode="&#x496;" horiz-adv-x="2116" 
d="M782 736q14 -21 14 -44q0 -22 -14 -44l-395 -580q-16 -30 -53.5 -49t-93.5 -19h-81q-67 0 -67 30q0 15 15 38l461 628l-458 629q-14 25 -14 38q0 31 66 31h78q55 0 92.5 -19t53.5 -50zM1108 1327v-1260q0 -67 -101 -67h-47q-101 0 -101 67v1260q0 67 101 67h47
q101 0 101 -67zM2063 102l-16 -362q-2 -67 -89 -67h-18q-100 0 -100 67v250h-97l-2 10h-13q-56 0 -93 18.5t-54 49.5l-395 580q-14 22 -14 44q0 23 14 44l396 589q18 31 54.5 50t91.5 19h78q67 0 67 -31q0 -16 -16 -38l-462 -629l384 -518h226q62 0 58 -76z" />
    <glyph glyph-name="uni049A" unicode="&#x49a;" horiz-adv-x="1432" 
d="M372 1326v-1259q0 -31 -22.5 -49t-78.5 -18h-47q-100 0 -100 67v1259q0 67 100 67h47q101 0 101 -67zM1379 102l-16 -362q-2 -67 -90 -67h-17q-101 0 -101 67v250h-96l-2 10h-20q-56 0 -93 18.5t-54 49.5l-440 580q-14 22 -14 43q0 23 14 45l441 588q18 31 54.5 50
t91.5 19h91q67 0 67 -32q0 -15 -15 -37l-501 -627l416 -519h226q62 0 58 -76z" />
    <glyph glyph-name="uni04A2" unicode="&#x4a2;" horiz-adv-x="1494" 
d="M1441 102l-16 -362q-2 -67 -89 -67h-18q-100 0 -100 67v250h-97l-2 10h-40q-100 0 -100 67v559h-607v-559q0 -31 -22.5 -49t-78.5 -18h-47q-100 0 -100 67v1259q0 67 100 67h47q101 0 101 -67v-522h607v522q0 67 100 67h47q101 0 101 -67v-1148h156q62 0 58 -76z" />
    <glyph glyph-name="uni04AE" unicode="&#x4ae;" horiz-adv-x="1349" 
d="M85 0zM554 67v512l-462 745q-7 11 -7 24q0 20 22 32.5t64 12.5h86q52 0 76 -17t39 -49l319 -551l314 551q15 33 39.5 49.5t77.5 16.5h56q42 0 64 -13t22 -34q0 -11 -6 -22l-455 -740v-517q0 -67 -101 -67h-47q-101 0 -101 67z" />
    <glyph glyph-name="uni04B0" unicode="&#x4b0;" horiz-adv-x="1349" 
d="M1258 1324l-432 -702h237q24 0 39 -17t15 -55v-34q0 -38 -15 -54.5t-39 -16.5h-260v-378q0 -67 -101 -67h-47q-101 0 -101 67v378h-250q-24 0 -39.5 16.5t-15.5 54.5v34q0 38 15.5 55t39.5 17h223l-435 702q-7 11 -7 24q0 20 22 32.5t64 12.5h86q52 0 76 -17t39 -49
l319 -551l314 551q15 33 39.5 49.5t77.5 16.5h56q42 0 64 -13t22 -34q0 -11 -6 -22z" />
    <glyph glyph-name="uni04B2" unicode="&#x4b2;" horiz-adv-x="1483" 
d="M1430 113l-16 -373q0 -30 -20.5 -48.5t-68.5 -18.5h-18q-100 0 -100 67v260h-133q-52 0 -76 17t-41 49l-301 517l-297 -517q-13 -32 -38.5 -49t-78.5 -17h-61q-43 0 -64.5 12.5t-21.5 32.5q0 11 7 24l388 629l-387 626q-7 11 -7 23q0 21 22 33.5t65 12.5h92q52 0 76 -17
t39 -49l294 -509l293 509q14 32 39 49t78 17h61q43 0 65 -13t22 -33q0 -12 -7 -23l-388 -621l320 -515h205q62 0 58 -75z" />
    <glyph glyph-name="uni04B6" unicode="&#x4b6;" horiz-adv-x="1483" 
d="M1430 113l-15 -373q-2 -67 -90 -67h-18q-100 0 -100 67v260h-121q-101 0 -101 67v457q-110 -82 -291 -82h-154q-229 0 -334 102.5t-105 296.5v492q0 27 22 43.5t71 16.5h49q99 0 99 -60v-487q0 -75 21.5 -122.5t74 -71.5t144.5 -24h153q135 0 192.5 54.5t57.5 163.5v480
q0 67 101 67h52q96 0 96 -67v-1138h138q62 0 58 -75z" />
    <glyph glyph-name="uni04BA" unicode="&#x4ba;" horiz-adv-x="1357" 
d="M1151 848q105 -102 105 -296v-492q0 -60 -93 -60h-49q-99 0 -99 60v487q0 75 -21.5 122.5t-74 71.5t-144.5 24h-152q-135 0 -193 -54.5t-58 -163.5v-480q0 -67 -100 -67h-53q-95 0 -95 67v1259q0 30 22 48.5t73 18.5h53q100 0 100 -67v-458q110 82 291 82h154
q229 0 334 -102z" />
    <glyph glyph-name="uni04C0" unicode="&#x4c0;" horiz-adv-x="496" 
d="M124 0zM124 67v1259q0 67 100 67h49q99 0 99 -67v-1259q0 -67 -99 -67h-49q-100 0 -100 67z" />
    <glyph glyph-name="uni04D8" unicode="&#x4d8;" horiz-adv-x="1430" 
d="M1025.5 1332.5q147.5 -80.5 224.5 -236t77 -379.5v-41q0 -338 -167 -515t-480 -181q-183 0 -313 51t-198.5 149t-68.5 235q0 154 67.5 242.5t200.5 127.5t346 45l346 11q-27 186 -138 279.5t-301 93.5q-72 0 -136 -12t-134 -35l-82 -29q-11 -4 -22 -4q-15 0 -24.5 12
t-15.5 39l-16 59q-4 16 -4 31q0 17 8.5 27.5t29.5 17.5l91 34q167 59 352 59q210 0 357.5 -80.5zM970.5 298.5q97.5 125.5 97.5 377.5v1l-314 -8q-135 -3 -226.5 -26t-141.5 -76.5t-50 -144.5q0 -249 336 -249q201 0 298.5 125.5z" />
    <glyph glyph-name="uni04E2" unicode="&#x4e2;" horiz-adv-x="1379" 
d="M124 0zM176.5 46.5q-52.5 46.5 -52.5 131.5v1151q0 64 87 64h29q89 0 89 -64v-1108q0 -16 14 -16q15 0 21 16l434 1004q33 91 83 129.5t132 38.5h45q90 0 143.5 -47t53.5 -132v-1150q0 -64 -87 -64h-29q-89 0 -89 64v1108q0 16 -14 16t-21 -16l-434 -1004
q-34 -91 -83.5 -129.5t-131.5 -38.5h-48q-89 0 -141.5 46.5zM388 1637v27q0 35 14 50.5t37 15.5h525q22 0 36 -15.5t14 -50.5v-27q0 -35 -14 -50t-36 -15h-525q-51 0 -51 65z" />
    <glyph glyph-name="uni04E8" unicode="&#x4e8;" horiz-adv-x="1488" 
d="M1225 1239.5q160 -173.5 160 -522.5v-41q0 -352 -159 -524t-482 -172t-482 172t-159 524v41q0 349 160 522.5t481 173.5t481 -173.5zM537 1180q-80 -45 -121 -139t-49 -246h754q-8 152 -49 246t-121 139t-207 45t-207 -45zM955 215q81 46 121 144.5t46 257.5h-756
q6 -159 46 -257.5t121 -144.5t211 -46t211 46z" />
    <glyph glyph-name="uni04EE" unicode="&#x4ee;" horiz-adv-x="1266" 
d="M95 0zM1180 1353q0 -9 -5 -21l-423 -928q-92 -203 -210 -304t-296 -101h-90q-61 0 -61 67v50q0 36 17 51.5t44 15.5h46q106 0 180.5 56t128.5 174l22 49l-427 870q-5 12 -5 21q0 40 87 40h65q58 0 85 -16.5t38 -44.5l285 -658l266 658q11 28 38 44.5t85 16.5h43
q87 0 87 -40zM348 1637v27q0 35 14 50.5t37 15.5h525q22 0 36 -15.5t14 -50.5v-27q0 -35 -14 -50t-36 -15h-525q-51 0 -51 65z" />
    <glyph glyph-name="uni0430" unicode="&#x430;" horiz-adv-x="1032" 
d="M86 0zM840 894.5q94 -84.5 94 -247.5v-358q0 -159 -101.5 -234t-320.5 -75t-322.5 72t-103.5 214v20q0 142 100.5 210.5t313.5 79.5l220 12v33q0 93 -48 136.5t-152 43.5q-62 0 -134.5 -13.5t-130.5 -35.5l-56 -22q-11 -4 -22 -4q-14 0 -23.5 10t-14.5 32l-15 60
q-3 12 -3 23q0 28 32 41l68 26q147 61 319 61q206 0 300 -84.5zM671.5 162.5q48.5 40.5 48.5 127.5v162l-181 -11q-123 -7 -178 -41.5t-55 -110.5v-19q0 -76 46 -112t160 -36q111 0 159.5 40.5z" />
    <glyph glyph-name="uni0431" unicode="&#x431;" horiz-adv-x="1118" 
d="M911 856q107 -118 107 -358v-43q0 -245 -113 -360t-349 -115q-235 0 -345.5 115.5t-110.5 360.5v54q0 310 81 509.5t226 292t344 92.5h106q50 0 88 12q12 3 23 3q35 0 35 -43v-69q0 -23 -9.5 -38t-30.5 -22q-51 -20 -108 -18l-81 1q-153 2 -257.5 -73t-157.5 -239
q88 56 232 56q213 0 320 -118zM793 498q0 115 -23 182.5t-74 98t-138 30.5q-88 0 -140 -30.5t-75 -98t-23 -183.5v-41q0 -117 23 -184t74.5 -97t140.5 -30q87 0 138 30t74 97t23 184v42z" />
    <glyph glyph-name="uni0432" unicode="&#x432;" horiz-adv-x="1112" 
d="M978.5 416q44.5 -54 44.5 -142q0 -130 -95 -202t-277 -72h-346q-100 0 -146 38t-46 110v663q0 72 46 110t146 38h360q165 0 245 -64.5t80 -186.5q0 -75 -37 -130t-112 -83q93 -25 137.5 -79zM336 564h282q80 0 115 29t35 93q0 45 -14 71t-47 38t-92 12h-235
q-23 0 -33.5 -8.5t-10.5 -25.5v-209zM717 166.5q38 14.5 53.5 44t15.5 78.5q0 66 -33.5 97t-112.5 31h-304v-231q0 -17 10.5 -25.5t33.5 -8.5h231q68 0 106 14.5z" />
    <glyph glyph-name="uni0433" unicode="&#x433;" horiz-adv-x="822" 
d="M113 60v751q0 72 46 110t146 38h399q51 0 51 -66v-27q0 -65 -51 -65h-323q-44 0 -44 -34v-707q0 -60 -89 -60h-46q-89 0 -89 60z" />
    <glyph glyph-name="uni0453" unicode="&#x453;" horiz-adv-x="822" 
d="M113 0zM113 60v751q0 72 46 110t146 38h399q51 0 51 -66v-27q0 -65 -51 -65h-323q-44 0 -44 -34v-707q0 -60 -89 -60h-46q-89 0 -89 60zM357.5 1134.5q-13.5 10.5 -13.5 27.5q0 23 25 49l128 138q20 23 40.5 33.5t48.5 10.5h73q29 0 46 -12.5t17 -31.5q0 -23 -24 -46
l-119 -109q-42 -38 -72 -54t-65 -16h-49q-22 0 -35.5 10.5z" />
    <glyph glyph-name="uni0491" unicode="&#x491;" horiz-adv-x="843" 
d="M113 60v751q0 72 46 110t146 38h271v261q0 61 93 61h16q83 0 83 -61l14 -350q3 -36 -11.5 -52.5t-40.5 -16.5h-349q-44 0 -44 -34v-707q0 -60 -89 -60h-46q-89 0 -89 60z" />
    <glyph glyph-name="uni0434" unicode="&#x434;" horiz-adv-x="1453" 
d="M1388 89l-14 -352q0 -61 -83 -61h-16q-93 0 -93 61v263h-918v-263q0 -61 -93 -61h-16q-83 0 -83 61l-14 352q-4 69 52 69h60q87 0 130.5 48t51.5 153l36 452q6 73 50 110.5t142 37.5h418q100 0 146 -38t46 -110v-653h146q56 0 52 -69zM507 158h452v609q0 17 -10.5 25.5
t-33.5 8.5h-258q-22 0 -32 -8.5t-12 -25.5l-34 -395q-10 -134 -72 -214z" />
    <glyph glyph-name="uni0435" unicode="&#x435;" horiz-adv-x="1041" 
d="M934 113q4 -16 4 -22q0 -27 -30 -39l-62 -25q-117 -47 -276 -47q-223 0 -353.5 118.5t-130.5 362.5v37q0 155 56.5 263t160.5 163t246 55q130 0 221.5 -37t138.5 -105t47 -162q0 -103 -46.5 -163.5t-138.5 -87.5t-239 -32l-227 -6q21 -119 103 -173.5t204 -54.5
q51 0 105 8.5t95 24.5l50 18q11 4 21 4q12 0 19.5 -9t13.5 -30zM364 745q-64 -71 -66 -227l186 5q98 2 153.5 11t89 38.5t33.5 89.5q0 71 -49.5 112.5t-156.5 41.5q-126 0 -190 -71z" />
    <glyph glyph-name="uni0451" unicode="&#x451;" horiz-adv-x="1041" 
d="M86 0zM934 113q4 -16 4 -22q0 -27 -30 -39l-62 -25q-117 -47 -276 -47q-223 0 -353.5 118.5t-130.5 362.5v37q0 155 56.5 263t160.5 163t246 55q130 0 221.5 -37t138.5 -105t47 -162q0 -103 -46.5 -163.5t-138.5 -87.5t-239 -32l-227 -6q21 -119 103 -173.5t204 -54.5
q51 0 105 8.5t95 24.5l50 18q11 4 21 4q12 0 19.5 -9t13.5 -30zM364 745q-64 -71 -66 -227l186 5q98 2 153.5 11t89 38.5t33.5 89.5q0 71 -49.5 112.5t-156.5 41.5q-126 0 -190 -71zM303 1171q-33 32 -33 85t33 84.5t86 31.5q52 0 85 -31.5t33 -84.5t-33 -85t-85 -32
q-53 0 -86 32zM629 1171q-33 32 -33 85t33 84.5t86 31.5q52 0 84.5 -31.5t32.5 -84.5t-32.5 -85t-84.5 -32q-53 0 -86 32z" />
    <glyph glyph-name="uni0436" unicode="&#x436;" horiz-adv-x="1635" 
d="M65 29q0 13 14 32l362 424l-362 413q-14 19 -14 32q0 29 61 29h82q93 0 132 -61l298 -377q15 -19 15 -40t-15 -42l-295 -378q-39 -61 -132 -61h-85q-61 0 -61 29zM705 60v839q0 60 90 60h45q89 0 89 -60v-839q0 -60 -89 -60h-45q-90 0 -90 60zM1342.5 16.5
q-32.5 16.5 -49.5 44.5l-296 378q-14 22 -14 42q0 22 14 40l299 377q17 28 49.5 44.5t81.5 16.5h83q60 0 60 -28q0 -14 -14 -33l-362 -413l362 -424q14 -19 14 -33q0 -28 -60 -28h-86q-49 0 -81.5 16.5z" />
    <glyph glyph-name="uni0437" unicode="&#x437;" horiz-adv-x="1003" 
d="M865.5 414.5q42.5 -56.5 42.5 -146.5q0 -135 -102 -212t-298 -77q-163 0 -322 61l-68 26q-32 13 -32 40q0 10 3 22l16 58q5 21 13.5 30.5t22.5 9.5q8 0 23 -5l56 -22q62 -23 133.5 -38.5t134.5 -15.5q105 0 147 33.5t42 106.5q0 65 -32.5 98t-107.5 33h-233q-47 0 -47 61
v30q0 33 13 47.5t34 14.5h210q76 0 111.5 31.5t35.5 95.5q0 44 -15.5 70t-53 38t-104.5 12q-62 0 -131 -15.5t-132 -39.5l-57 -22q-15 -5 -23 -5q-14 0 -22.5 9.5t-13.5 30.5l-15 56q-3 12 -3 22q0 27 31 40l68 26q157 61 318 61q187 0 279.5 -68.5t92.5 -195.5
q0 -76 -37 -134t-110 -86q90 -24 132.5 -80.5z" />
    <glyph glyph-name="uni0438" unicode="&#x438;" horiz-adv-x="1207" 
d="M163 46.5q-50 46.5 -50 131.5v717q0 64 88 64h32q89 0 89 -64v-674q0 -16 13 -16q16 0 22 16l286 570q39 92 88 130t131 38h40q89 0 140 -46.5t51 -131.5v-717q0 -64 -87 -64h-32q-89 0 -89 64v674q0 16 -14 16q-15 0 -21 -16l-287 -570q-40 -93 -88.5 -130.5
t-129.5 -37.5h-43q-89 0 -139 46.5z" />
    <glyph glyph-name="uni0439" unicode="&#x439;" horiz-adv-x="1207" 
d="M113 0zM163 46.5q-50 46.5 -50 131.5v717q0 64 88 64h32q89 0 89 -64v-674q0 -16 13 -16q16 0 22 16l286 570q39 92 88 130t131 38h40q89 0 140 -46.5t51 -131.5v-717q0 -64 -87 -64h-32q-89 0 -89 64v674q0 16 -14 16q-15 0 -21 -16l-287 -570q-40 -93 -88.5 -130.5
t-129.5 -37.5h-43q-89 0 -139 46.5zM422.5 1140.5q-72.5 34.5 -108.5 93.5t-36 134q0 40 14.5 62.5t37.5 22.5q21 0 33 -14t28 -47q19 -39 39 -66t61.5 -46.5t108.5 -19.5t108.5 19.5t61.5 46.5t39 66q16 33 28 47t33 14q23 0 37.5 -22.5t14.5 -62.5q0 -75 -36 -134
t-108.5 -93.5t-177.5 -34.5t-177.5 34.5z" />
    <glyph glyph-name="uni043A" unicode="&#x43a;" horiz-adv-x="1042" 
d="M113 60v839q0 60 89 60h45q90 0 90 -60v-839q0 -60 -90 -60h-45q-89 0 -89 60zM699 61l-295 378q-15 21 -15 42t15 40l298 377q39 61 132 61h82q61 0 61 -29q0 -13 -14 -32l-362 -413l362 -424q14 -19 14 -32q0 -29 -61 -29h-85q-93 0 -132 61z" />
    <glyph glyph-name="uni045C" unicode="&#x45c;" horiz-adv-x="1042" 
d="M113 0zM113 60v839q0 60 89 60h45q90 0 90 -60v-839q0 -60 -90 -60h-45q-89 0 -89 60zM699 61l-295 378q-15 21 -15 42t15 40l298 377q39 61 132 61h82q61 0 61 -29q0 -13 -14 -32l-362 -413l362 -424q14 -19 14 -32q0 -29 -61 -29h-85q-93 0 -132 61zM423.5 1134.5
q-13.5 10.5 -13.5 27.5q0 23 25 49l128 138q20 23 40.5 33.5t48.5 10.5h73q29 0 46 -12.5t17 -31.5q0 -23 -24 -46l-119 -109q-42 -38 -72 -54t-65 -16h-49q-22 0 -35.5 10.5z" />
    <glyph glyph-name="uni043B" unicode="&#x43b;" horiz-adv-x="1256" 
d="M919 60v707q0 34 -44 34h-272q-23 0 -32.5 -8.5t-11.5 -25.5l-36 -414q-9 -109 -52 -188.5t-115 -122t-166 -42.5h-70q-52 0 -52 67v31q0 67 52 67h15q74 0 117.5 46t52.5 155l35 445q6 73 50 110.5t142 37.5h419q100 0 146 -38t46 -110v-751q0 -60 -89 -60h-46
q-89 0 -89 60z" />
    <glyph glyph-name="uni043C" unicode="&#x43c;" horiz-adv-x="1378" 
d="M1282 17q-21 -17 -68 -17h-41q-46 0 -64 16.5t-20 43.5l-47 691q0 15 -13 15q-16 0 -20 -15l-164 -622q-15 -68 -53.5 -98.5t-100.5 -30.5h-15q-63 0 -100.5 30.5t-52.5 98.5l-165 622q-4 15 -19 15q-14 0 -14 -15l-47 -691q-2 -28 -19.5 -44t-64.5 -16h-34
q-45 0 -64.5 17t-17.5 43l48 731q4 81 52.5 124.5t131.5 43.5h30q84 0 134.5 -36t67.5 -122l146 -629l151 633q15 78 67 116t135 38h30q85 0 131 -42.5t49 -125.5l50 -731q2 -26 -19 -43z" />
    <glyph glyph-name="uni043D" unicode="&#x43d;" horiz-adv-x="1125" 
d="M1011 899v-839q0 -60 -89 -60h-46q-88 0 -88 60v348h-451v-348q0 -60 -89 -60h-46q-89 0 -89 60v839q0 60 89 60h46q89 0 89 -60v-333h451v333q0 60 88 60h46q89 0 89 -60z" />
    <glyph glyph-name="uni043E" unicode="&#x43e;" horiz-adv-x="1110" 
d="M86 0zM201.5 97q-115.5 117 -115.5 361v43q0 244 115.5 361t351.5 117q238 0 355 -116t117 -362v-43q0 -246 -117 -362t-355 -116q-236 0 -351.5 117zM695.5 174q52.5 30 77.5 98t25 186v43q0 118 -25 186t-77.5 98t-140.5 30q-89 0 -141.5 -30t-77 -98.5t-24.5 -186.5
v-41q0 -118 24.5 -186.5t77 -98.5t141.5 -30q88 0 140.5 30z" />
    <glyph glyph-name="uni043F" unicode="&#x43f;" horiz-adv-x="1125" 
d="M113 60v751q0 72 46 110t146 38h515q100 0 145.5 -38t45.5 -110v-751q0 -60 -88 -60h-46q-89 0 -89 60v707q0 34 -44 34h-363q-44 0 -44 -34v-707q0 -60 -89 -60h-46q-89 0 -89 60z" />
    <glyph glyph-name="uni0440" unicode="&#x440;" horiz-adv-x="1110" 
d="M106 0zM912 863.5q113 -115.5 113 -362.5v-43q0 -243 -106.5 -360.5t-320.5 -117.5q-172 0 -268 84v-373q0 -27 -21 -43.5t-68 -16.5h-47q-88 0 -88 60v810q0 246 111 362t346 116q236 0 349 -115.5zM803 501q0 118 -23.5 186t-75 98t-140.5 30q-88 0 -138.5 -30t-73 -98
t-22.5 -187v-41q0 -118 23 -186.5t73.5 -98.5t137.5 -30q89 0 140.5 30t75 98t23.5 186v43z" />
    <glyph glyph-name="uni0441" unicode="&#x441;" horiz-adv-x="971" 
d="M86 0zM204.5 93q-118.5 113 -118.5 367v38q0 254 118.5 367.5t334.5 113.5q145 0 264 -48l58 -23q33 -13 33 -43q0 -6 -4 -24l-17 -58q-5 -22 -13 -33t-23 -11q-8 0 -17 3l-52 19q-87 31 -185 31q-132 0 -200 -67.5t-68 -226.5v-38q0 -159 68 -226t200 -67q98 0 185 31
l52 19q9 3 17 3q15 0 23 -11t13 -33l17 -58q4 -18 4 -24q0 -30 -33 -43l-58 -23q-119 -48 -264 -48q-216 0 -334.5 113z" />
    <glyph glyph-name="uni0442" unicode="&#x442;" horiz-adv-x="935" 
d="M883 943.5q14 -15.5 14 -50.5v-27q0 -35 -14 -50t-36 -15h-266v-741q0 -60 -90 -60h-45q-89 0 -89 60v741h-268q-23 0 -37 15.5t-14 50.5v26q0 66 51 66h758q22 0 36 -15.5z" />
    <glyph glyph-name="uni0443" unicode="&#x443;" horiz-adv-x="1022" 
d="M967 918q0 -5 -4 -19l-341 -904q-68 -180 -172.5 -272t-257.5 -92h-79q-22 0 -36 15.5t-14 50.5v28q0 35 14 50t36 15h42q88 0 150.5 54t103.5 161l14 37l-346 857q-4 14 -4 19q0 41 76 41h63q49 0 73.5 -16t32.5 -44l223 -618l207 618q16 60 106 60h37q76 0 76 -41z" />
    <glyph glyph-name="uni045E" unicode="&#x45e;" horiz-adv-x="1022" 
d="M63 0zM967 918q0 -5 -4 -19l-341 -904q-68 -180 -172.5 -272t-257.5 -92h-79q-22 0 -36 15.5t-14 50.5v28q0 35 14 50t36 15h42q88 0 150.5 54t103.5 161l14 37l-346 857q-4 14 -4 19q0 41 76 41h63q49 0 73.5 -16t32.5 -44l223 -618l207 618q16 60 106 60h37
q76 0 76 -41zM362.5 1140.5q-72.5 34.5 -108.5 93.5t-36 134q0 40 14.5 62.5t37.5 22.5q21 0 33 -14t28 -47q19 -39 39 -66t61.5 -46.5t108.5 -19.5t108.5 19.5t61.5 46.5t39 66q16 33 28 47t33 14q23 0 37.5 -22.5t14.5 -62.5q0 -75 -36 -134t-108.5 -93.5t-177.5 -34.5
t-177.5 34.5z" />
    <glyph glyph-name="uni0444" unicode="&#x444;" horiz-adv-x="1396" 
d="M1193.5 847q116.5 -112 116.5 -354v-42q0 -162 -52 -261.5t-156 -144.5t-265 -45h-26v-309q0 -27 -20.5 -43.5t-68.5 -16.5h-47q-88 0 -88 60v309h-28q-160 0 -264 45t-156.5 144.5t-52.5 261.5v42q0 242 117.5 354t355.5 112h28v374q0 60 88 60h47q47 0 68 -16.5
t21 -43.5v-374h26q240 0 356.5 -112zM587 153v653h-32q-89 0 -142 -30t-77.5 -98t-24.5 -185v-41q0 -118 24.5 -182.5t77 -90.5t142.5 -26h32zM1085 493q0 117 -24.5 185t-77.5 98t-142 30h-30v-653h30q90 0 142.5 26t77 90.5t24.5 182.5v41z" />
    <glyph glyph-name="uni0445" unicode="&#x445;" horiz-adv-x="1040" 
d="M73 0zM965 41q0 -18 -20 -29.5t-59 -11.5h-79q-47 0 -70 15.5t-36 44.5l-189 308l-194 -308q-13 -29 -36 -44.5t-70 -15.5h-60q-38 0 -58.5 11.5t-20.5 29.5q0 8 7 22l274 418l-270 415q-7 14 -7 22q0 18 20 29.5t59 11.5h79q47 0 70 -15.5t36 -44.5l185 -307l187 307
q14 29 36 44.5t70 15.5h59q39 0 59.5 -11.5t20.5 -29.5q0 -8 -7 -22l-270 -410l277 -423q7 -14 7 -22z" />
    <glyph glyph-name="uni0447" unicode="&#x447;" horiz-adv-x="1083" 
d="M970 899v-847q0 -59 -90 -59h-45q-89 0 -89 59v263q-98 -64 -250 -64q-202 0 -297.5 96t-95.5 286v266q0 60 89 60h47q89 0 89 -60v-261q0 -113 45.5 -163t156.5 -50q114 0 165 51t51 162v261q0 60 89 60h46q89 0 89 -60z" />
    <glyph glyph-name="uni0446" unicode="&#x446;" horiz-adv-x="1257" 
d="M1194.5 141.5q14.5 -16.5 12.5 -52.5l-14 -352q-2 -61 -84 -61h-15q-88 0 -88 61v263h-701q-101 0 -146.5 36t-45.5 108v755q0 60 89 60h46q89 0 89 -60v-707q0 -34 44 -34h407v741q0 60 89 60h46q88 0 88 -60v-741h144q25 0 39.5 -16.5z" />
    <glyph glyph-name="uni0448" unicode="&#x448;" horiz-adv-x="1711" 
d="M159 38q-46 38 -46 110v751q0 60 89 60h46q89 0 89 -60v-707q0 -34 44 -34h367v741q0 60 89 60h45q90 0 90 -60v-741h358q23 0 33.5 8.5t10.5 25.5v707q0 60 90 60h45q89 0 89 -60v-751q0 -72 -46 -110t-146 -38h-1101q-100 0 -146 38z" />
    <glyph glyph-name="uni0449" unicode="&#x449;" horiz-adv-x="1835" 
d="M1785 89l-14 -352q-2 -61 -84 -61h-15q-94 0 -94 61v263h-1273q-100 0 -146 38t-46 110v751q0 60 89 60h46q89 0 89 -60v-707q0 -34 44 -34h359v741q0 60 89 60h46q89 0 89 -60v-741h403v741q0 60 89 60h46q89 0 89 -60v-741h141q56 0 53 -69z" />
    <glyph glyph-name="uni045F" unicode="&#x45f;" horiz-adv-x="1125" 
d="M1011 899v-751q0 -72 -45.5 -110t-145.5 -38h-150l-11 -262q0 -28 -19 -45t-63 -17h-17q-83 0 -83 62l-11 262h-161q-100 0 -146 38t-46 110v751q0 60 89 60h46q89 0 89 -60v-707q0 -34 44 -34h363q44 0 44 34v707q0 60 89 60h46q88 0 88 -60z" />
    <glyph glyph-name="uni044F" unicode="&#x44f;" horiz-adv-x="1114" 
d="M954.5 922.5q45.5 -37.5 45.5 -110.5v-752q0 -60 -88 -60h-44q-90 0 -90 60v325h-218q-54 -3 -84 -28t-56 -77l-109 -224q-10 -25 -36.5 -40.5t-73.5 -15.5h-64q-66 0 -66 33q0 11 6 23l131 247q34 64 88 99q-203 52 -203 265q0 151 91 222t274 71h351q100 0 145.5 -37.5
zM778 774q0 17 -10.5 25.5t-33.5 8.5h-237q-66 0 -103.5 -15t-53 -45t-15.5 -80q0 -64 41 -97.5t124 -33.5h288v237z" />
    <glyph glyph-name="uni044C" unicode="&#x44c;" horiz-adv-x="1104" 
d="M926.5 505.5q89.5 -66.5 89.5 -211.5q0 -151 -90.5 -222.5t-268.5 -71.5h-352q-100 0 -146 38t-46 110v751q0 60 89 60h46q89 0 89 -60v-327h323q177 0 266.5 -66.5zM721 167.5q37 14.5 52.5 45t15.5 79.5q0 130 -165 130h-287v-236q0 -33 44 -33h237q66 0 103 14.5z" />
    <glyph glyph-name="uni044A" unicode="&#x44a;" horiz-adv-x="1320" 
d="M1142 510.5q90 -67.5 90 -216.5q0 -151 -91 -222.5t-271 -71.5h-353q-191 0 -191 148v653h-201q-22 0 -36 15t-14 48v29q0 35 14 50.5t36 15.5h335q90 0 90 -60v-321h323q179 0 269 -67.5zM936.5 167.5q37.5 14.5 53 45t15.5 79.5q0 130 -165 130h-290v-236q0 -33 43 -33
h240q66 0 103.5 14.5z" />
    <glyph glyph-name="uni044B" unicode="&#x44b;" horiz-adv-x="1555" 
d="M113 0zM926.5 505.5q89.5 -66.5 89.5 -211.5q0 -151 -90.5 -222.5t-268.5 -71.5h-352q-100 0 -146 38t-46 110v751q0 60 89 60h46q89 0 89 -60v-327h323q177 0 266.5 -66.5zM721 167.5q37 14.5 52.5 45t15.5 79.5q0 130 -165 130h-287v-236q0 -33 44 -33h237
q66 0 103 14.5zM1217 60v839q0 60 89 60h46q89 0 89 -60v-839q0 -60 -89 -60h-46q-89 0 -89 60z" />
    <glyph glyph-name="uni0459" unicode="&#x459;" horiz-adv-x="1899" 
d="M1721 508.5q90 -67.5 90 -214.5q0 -151 -91 -222.5t-271 -71.5h-350q-100 0 -146 38t-46 110v617q0 17 -10.5 25.5t-33.5 8.5h-253q-23 0 -32.5 -8.5t-11.5 -25.5l-35 -412q-14 -166 -103.5 -259.5t-237.5 -93.5h-70q-52 0 -52 67v24q0 67 52 67h15q72 0 116.5 48.5
t53.5 152.5l35 452q6 73 50 110.5t142 37.5h407q100 0 145 -38t45 -110v-235h323q179 0 269 -67.5zM1515.5 167.5q37.5 14.5 53 45t15.5 79.5q0 130 -165 130h-290v-236q0 -33 44 -33h239q66 0 103.5 14.5z" />
    <glyph glyph-name="uni045A" unicode="&#x45a;" horiz-adv-x="1769" 
d="M1590.5 509q89.5 -67 89.5 -215q0 -151 -90.5 -222.5t-271.5 -71.5h-339q-101 0 -147 38t-46 110v271h-449v-359q0 -60 -89 -60h-46q-89 0 -89 60v839q0 60 89 60h46q89 0 89 -60v-316h449v316q0 60 88 60h46q89 0 89 -60v-323h313q179 0 268.5 -67zM1385.5 168
q37.5 15 53 45t15.5 79q0 130 -165 130h-280v-236q0 -33 44 -33h229q66 0 103.5 15z" />
    <glyph glyph-name="uni0455" unicode="&#x455;" horiz-adv-x="966" 
d="M84 0zM183 40l-68 26q-31 13 -31 39q0 10 3 22l15 57q10 39 37 39q11 0 22 -4l57 -22q60 -23 131 -37.5t134 -14.5q87 0 128.5 27.5t41.5 84.5q0 34 -17 55t-45 33.5t-76 27.5l-147 46q-75 22 -130.5 52t-90.5 83.5t-35 135.5q0 86 43 151t127 101.5t204 36.5
q76 0 147 -12.5t127 -34.5l62 -23q30 -11 30 -39q0 -10 -3 -22l-14 -59q-5 -21 -13.5 -30t-22.5 -9q-5 0 -21 4l-51 19q-107 38 -217 38q-91 0 -131 -29.5t-40 -83.5q0 -39 17.5 -62.5t45 -35.5t76.5 -26l141 -44q81 -23 136 -51.5t90.5 -80t35.5 -133.5q0 -88 -43.5 -152.5
t-128 -99t-204.5 -34.5q-161 0 -322 61z" />
    <glyph glyph-name="uni0454" unicode="&#x454;" horiz-adv-x="972" 
d="M890 118q3 -13 3 -24q0 -30 -32 -43l-58 -23q-119 -48 -264 -48q-216 0 -334.5 113t-118.5 367v38q0 254 118.5 367.5t334.5 113.5q145 0 264 -48l58 -23q17 -7 25 -16.5t8 -25.5q0 -12 -4 -25l-15 -47q-5 -23 -13.5 -33.5t-21.5 -10.5q-7 0 -18 3l-52 19q-91 31 -187 31
q-121 0 -190.5 -58.5t-79.5 -188.5h394q22 0 36 -14.5t14 -47.5v-27q0 -33 -14 -47t-36 -14h-395q10 -133 79.5 -191.5t191.5 -58.5q100 0 187 31l52 18q12 4 17 4q14 0 22.5 -11t13.5 -34z" />
    <glyph glyph-name="uni044D" unicode="&#x44d;" horiz-adv-x="972" 
d="M767.5 865.5q118.5 -113.5 118.5 -367.5v-38q0 -254 -118.5 -367t-334.5 -113q-145 0 -264 48l-58 23q-32 13 -32 43q0 11 3 24l15 46q5 23 13.5 34t22.5 11q5 0 17 -4l52 -18q87 -31 187 -31q122 0 191.5 58.5t79.5 191.5h-395q-22 0 -36 14t-14 47v27q0 33 14 47.5
t36 14.5h394q-10 130 -79.5 188.5t-190.5 58.5q-96 0 -187 -31l-52 -19q-10 -3 -18 -3q-13 0 -21.5 10.5t-13.5 33.5l-15 47q-4 13 -4 25q0 16 8 25.5t25 16.5l58 23q119 48 264 48q216 0 334.5 -113.5z" />
    <glyph glyph-name="uni0456" unicode="&#x456;" horiz-adv-x="451" 
d="M100 0zM135 1178q-35 34 -35 91q0 55 35 88.5t91 33.5q55 0 90 -33.5t35 -88.5q0 -57 -35 -91t-90 -34q-56 0 -91 34zM113 60v839q0 60 89 60h46q89 0 89 -60v-839q0 -60 -89 -60h-46q-89 0 -89 60z" />
    <glyph glyph-name="uni0457" unicode="&#x457;" horiz-adv-x="451" 
d="M0 0zM113 60v839q0 60 89 60h46q89 0 89 -60v-839q0 -60 -89 -60h-46q-89 0 -89 60zM-12 1171q-33 32 -33 85t33 84.5t86 31.5q52 0 85 -31.5t33 -84.5t-33 -85t-85 -32q-53 0 -86 32zM314 1171q-33 32 -33 85t33 84.5t86 31.5q52 0 84.5 -31.5t32.5 -84.5t-32.5 -85
t-84.5 -32q-53 0 -86 32z" />
    <glyph glyph-name="uni0458" unicode="&#x458;" horiz-adv-x="459" 
d="M0 0zM136.5 1178q-34.5 34 -34.5 91q0 55 34.5 88.5t90.5 33.5t90.5 -33.5t34.5 -88.5q0 -57 -34.5 -91t-90.5 -34t-90.5 34zM-74.5 -361q-37.5 28 -37.5 76v17q0 25 16.5 35.5t49.5 10.5q79 0 119 43t40 135v943q0 60 89 60h46q89 0 89 -60v-950q0 -108 -38.5 -184
t-107 -115t-157.5 -39q-71 0 -108.5 28z" />
    <glyph glyph-name="uni045B" unicode="&#x45b;" horiz-adv-x="1084" 
d="M28 0zM918 883q95 -96 95 -286v-537q0 -60 -89 -60h-46q-89 0 -89 60v532q0 112 -46.5 163t-154.5 51q-114 0 -165.5 -51t-51.5 -163v-532q0 -60 -89 -60h-46q-89 0 -89 60v1020h-57q-30 0 -46 16t-16 46v17q0 30 16 46.5t46 16.5h57v111q0 60 89 60h46q89 0 89 -60v-111
h394q30 0 46 -16.5t16 -46.5v-17q0 -30 -16 -46t-46 -16h-394v-164q97 63 250 63q202 0 297 -96z" />
    <glyph glyph-name="uni044E" unicode="&#x44e;" horiz-adv-x="1574" 
d="M1373.5 863.5q114.5 -115.5 114.5 -362.5v-43q0 -247 -114.5 -362.5t-351.5 -115.5q-223 0 -337 105t-125 323h-215v-348q0 -60 -90 -60h-53q-89 0 -89 60v839q0 60 89 60h53q90 0 90 -60v-333h216q14 211 128 312t333 101q237 0 351.5 -115.5zM1266 501q0 117 -24.5 185
t-77 97.5t-140.5 29.5q-89 0 -141.5 -30t-77 -98t-24.5 -185v-41q0 -118 24.5 -186.5t77 -98.5t141.5 -30q88 0 140.5 30t77 98t24.5 186v43z" />
    <glyph glyph-name="uni0452" unicode="&#x452;" horiz-adv-x="1118" 
d="M917 883q95 -96 95 -286v-648q0 -108 -37.5 -184t-105 -115t-157.5 -39q-70 0 -108.5 28.5t-38.5 75.5v17q0 25 16.5 35.5t50.5 10.5q78 0 117 43t39 135v636q0 113 -45.5 163.5t-155.5 50.5q-108 0 -159 -44t-57 -139v-563q0 -60 -90 -60h-45q-89 0 -89 60v1020h-62
q-27 0 -42 16t-15 46v17q0 30 15.5 46.5t41.5 16.5h62v111q0 60 89 60h45q90 0 90 -60v-111h394q30 0 46 -16.5t16 -46.5v-17q0 -30 -16 -46t-46 -16h-394v-163q95 62 249 62q202 0 297 -96z" />
    <glyph glyph-name="uni0463" unicode="&#x463;" horiz-adv-x="1142" 
d="M964.5 508.5q89.5 -67.5 89.5 -214.5q0 -151 -91 -222.5t-271 -71.5h-353q-100 0 -145.5 38t-45.5 110v749h-63q-30 0 -46.5 16t-16.5 46v32q0 30 16.5 46t46.5 16h63v280q0 60 88 60h46q89 0 89 -60v-280h385q31 0 47 -16t16 -46v-32q0 -30 -16.5 -46t-46.5 -16h-385
v-321h325q179 0 268.5 -67.5zM759 167.5q37 14.5 52.5 45t15.5 79.5q0 130 -165 130h-291v-236q0 -33 44 -33h241q66 0 103 14.5z" />
    <glyph glyph-name="uni0473" unicode="&#x473;" horiz-adv-x="1110" 
d="M908 863q117 -116 117 -362v-43q0 -246 -117 -362t-355 -116q-236 0 -351.5 117t-115.5 361v43q0 244 115.5 361t351.5 117q238 0 355 -116zM418.5 788q-51.5 -27 -77 -88.5t-29.5 -167.5q54 51 128 51q43 0 73.5 -10t70.5 -29q32 -16 55 -24t51 -8q62 0 107 43
q-5 96 -32 153t-78 82t-132 25q-85 0 -136.5 -27zM687 169q51 25 78 82t32 153q-18 -16 -46.5 -28t-66.5 -12q-42 0 -72.5 9.5t-70.5 28.5q-32 16 -55 23.5t-51 7.5q-39 0 -69.5 -16.5t-50.5 -36.5q7 -87 34.5 -138.5t77.5 -74.5t128 -23q81 0 132 25z" />
    <glyph glyph-name="uni0475" unicode="&#x475;" horiz-adv-x="1174" 
d="M396 35.5q-43 35.5 -66 112.5l-249 747q-3 11 -3 19q0 45 80 45h53q95 0 110 -64l196 -689q3 -8 7 -10.5t11 -2.5q6 0 9 2.5t6 10.5l168 611q19 71 68.5 106.5t143.5 35.5h127q52 0 52 -70v-22q0 -66 -52 -66h-93q-21 0 -31.5 -10t-14.5 -27l-192 -615
q-22 -79 -64.5 -114t-123.5 -35h-25q-74 0 -117 35.5z" />
    <glyph glyph-name="uni0493" unicode="&#x493;" horiz-adv-x="918" 
d="M844 893v-27q0 -65 -51 -65h-323q-44 0 -44 -34v-230h265q51 0 51 -66v-27q0 -65 -51 -65h-265v-319q0 -60 -89 -60h-46q-89 0 -89 60v319h-113q-23 0 -37 15.5t-14 50.5v26q0 66 51 66h113v274q0 72 46 110t146 38h399q51 0 51 -66z" />
    <glyph glyph-name="uni0497" unicode="&#x497;" horiz-adv-x="1762" 
d="M638 521q15 -19 15 -40t-15 -42l-295 -378q-39 -61 -132 -61h-85q-61 0 -61 29q0 13 14 32l362 424l-362 413q-14 19 -14 32q0 29 61 29h82q93 0 132 -61zM929 899v-839q0 -60 -89 -60h-45q-90 0 -90 60v839q0 60 90 60h45q89 0 89 -60zM1712 85l-14 -346q0 -61 -83 -61
h-16q-93 0 -93 61v251h-65l-2 10h-15q-49 0 -81.5 16.5t-49.5 44.5l-296 378q-14 22 -14 42q0 22 14 40l299 377q17 28 49.5 44.5t81.5 16.5h83q60 0 60 -28q0 -14 -14 -33l-362 -413l283 -331h183q56 0 52 -69z" />
    <glyph glyph-name="uni049B" unicode="&#x49b;" horiz-adv-x="1161" 
d="M337 899v-839q0 -60 -90 -60h-45q-89 0 -89 60v839q0 60 89 60h45q90 0 90 -60zM1098.5 138q14.5 -16 12.5 -53l-14 -346q-2 -61 -84 -61h-16q-93 0 -93 61v251h-64l-2 10h-7q-93 0 -132 61l-295 378q-15 21 -15 42t15 40l298 377q39 61 132 61h82q61 0 61 -29
q0 -13 -14 -32l-362 -413l283 -331h174q26 0 40.5 -16z" />
    <glyph glyph-name="uni04A3" unicode="&#x4a3;" horiz-adv-x="1277" 
d="M1214.5 138q14.5 -16 12.5 -53l-14 -346q-2 -61 -84 -61h-16q-93 0 -93 61v251h-100v10h-44q-88 0 -88 60v348h-451v-348q0 -60 -89 -60h-46q-89 0 -89 60v839q0 60 89 60h46q89 0 89 -60v-333h451v333q0 60 88 60h46q89 0 89 -60v-745h163q26 0 40.5 -16z" />
    <glyph glyph-name="uni04AF" unicode="&#x4af;" horiz-adv-x="1060" 
d="M413 -309v309l-331 895q-4 9 -4 20q0 20 20 32t61 12h54q94 0 110 -64l196 -633q3 -8 6.5 -11t10.5 -3q6 0 9.5 2.5t6.5 11.5l205 633q18 64 110 64h37q41 0 60 -11.5t19 -31.5q0 -12 -4 -21l-333 -895v-309q0 -60 -90 -60h-54q-89 0 -89 60z" />
    <glyph glyph-name="uni04B1" unicode="&#x4b1;" horiz-adv-x="1060" 
d="M646 0v-50h190q22 0 36 -15.5t14 -50.5v-27q0 -65 -50 -65h-190v-101q0 -60 -90 -60h-54q-89 0 -89 60v101h-180q-22 0 -36 15t-14 50v27q0 35 14 50.5t36 15.5h180v50l-331 895q-4 9 -4 20q0 20 20 32t61 12h54q94 0 110 -64l196 -633q3 -8 6.5 -11t10.5 -3q6 0 9.5 2.5
t6.5 11.5l205 633q18 64 110 64h37q41 0 60 -11.5t19 -31.5q0 -12 -4 -21z" />
    <glyph glyph-name="uni04B3" unicode="&#x4b3;" horiz-adv-x="1169" 
d="M1106.5 138q14.5 -16 12.5 -53l-14 -346q-2 -61 -84 -61h-16q-93 0 -93 61v251h-64l-2 10h-39q-47 0 -70 15.5t-36 44.5l-189 308l-194 -308q-13 -29 -36 -44.5t-70 -15.5h-60q-38 0 -58.5 11.5t-20.5 29.5q0 8 7 22l274 418l-270 415q-7 14 -7 22q0 18 20 29.5t59 11.5
h79q47 0 70 -15.5t36 -44.5l185 -307l187 307q14 29 36 44.5t70 15.5h59q39 0 59.5 -11.5t20.5 -29.5q0 -8 -7 -22l-270 -410l217 -332h168q26 0 40.5 -16z" />
    <glyph glyph-name="uni04B7" unicode="&#x4b7;" horiz-adv-x="1219" 
d="M1156.5 138q14.5 -16 12.5 -53l-14 -346q-2 -61 -84 -61h-15q-93 0 -93 61v251h-100v3h-28q-89 0 -89 59v263q-98 -64 -250 -64q-202 0 -297.5 96t-95.5 286v266q0 60 89 60h47q89 0 89 -60v-261q0 -113 45.5 -163t156.5 -50q114 0 165 51t51 162v261q0 60 89 60h46
q89 0 89 -60v-745h146q26 0 40.5 -16z" />
    <glyph glyph-name="uni04BB" unicode="&#x4bb;" horiz-adv-x="1084" 
d="M113 0zM884 883q95 -96 95 -286v-537q0 -60 -89 -60h-46q-89 0 -89 60v532q0 112 -46.5 163t-154.5 51q-114 0 -165.5 -51t-51.5 -163v-532q0 -60 -89 -60h-46q-89 0 -89 60v1273q0 60 89 60h46q89 0 89 -60v-417q97 63 250 63q202 0 297 -96z" />
    <glyph glyph-name="uni04CF" unicode="&#x4cf;" horiz-adv-x="451" 
d="M113 0zM113 60v839q0 60 89 60h46q89 0 89 -60v-839q0 -60 -89 -60h-46q-89 0 -89 60z" />
    <glyph glyph-name="uni04D9" unicode="&#x4d9;" horiz-adv-x="1041" 
d="M825 860.5q131 -118.5 131 -362.5v-38q0 -155 -56.5 -262.5t-161 -162.5t-246.5 -55q-129 0 -220.5 37t-138.5 105t-47 162q0 103 46.5 163.5t138 87.5t238.5 32l226 6q-21 117 -103 173.5t-202 56.5q-51 0 -105 -9t-96 -25l-50 -18q-11 -4 -20 -4q-12 0 -20 9.5
t-13 29.5l-19 60q-3 12 -3 21q0 28 30 40l61 25q117 47 277 47q222 0 353 -118.5zM676.5 213.5q63.5 71.5 65.5 227.5l-184 -5q-98 -2 -152 -11t-86 -38t-32 -90q0 -71 47 -113t152 -42q126 0 189.5 71.5z" />
    <glyph glyph-name="uni04E3" unicode="&#x4e3;" horiz-adv-x="1207" 
d="M113 0zM163 46.5q-50 46.5 -50 131.5v717q0 64 88 64h32q89 0 89 -64v-674q0 -16 13 -16q16 0 22 16l286 570q39 92 88 130t131 38h40q89 0 140 -46.5t51 -131.5v-717q0 -64 -87 -64h-32q-89 0 -89 64v674q0 16 -14 16q-15 0 -21 -16l-287 -570q-40 -93 -88.5 -130.5
t-129.5 -37.5h-43q-89 0 -139 46.5zM287 1263v27q0 35 14 50.5t37 15.5h525q22 0 36 -15.5t14 -50.5v-27q0 -35 -14 -50t-36 -15h-525q-51 0 -51 65z" />
    <glyph glyph-name="uni04E9" unicode="&#x4e9;" horiz-adv-x="1110" 
d="M908 863q117 -116 117 -362v-43q0 -246 -117 -362t-355 -116q-236 0 -351.5 117t-115.5 361v43q0 244 115.5 361t351.5 117q238 0 355 -116zM422 789.5q-51 -25.5 -77.5 -83.5t-31.5 -157h484q-5 99 -31.5 157t-77.5 83.5t-133 25.5t-133 -25.5zM687 169.5q51 25.5 78 83
t32 155.5h-484q5 -99 31.5 -156.5t77.5 -82.5t133 -25q81 0 132 25.5z" />
    <glyph glyph-name="uni04EF" unicode="&#x4ef;" horiz-adv-x="1022" 
d="M63 0zM967 918q0 -5 -4 -19l-341 -904q-68 -180 -172.5 -272t-257.5 -92h-79q-22 0 -36 15.5t-14 50.5v28q0 35 14 50t36 15h42q88 0 150.5 54t103.5 161l14 37l-346 857q-4 14 -4 19q0 41 76 41h63q49 0 73.5 -16t32.5 -44l223 -618l207 618q16 60 106 60h37
q76 0 76 -41zM227 1263v27q0 35 14 50.5t37 15.5h525q22 0 36 -15.5t14 -50.5v-27q0 -35 -14 -50t-36 -15h-525q-51 0 -51 65z" />
    <glyph glyph-name="Alpha" unicode="&#x391;" horiz-adv-x="1405" 
d="M73 0zM1333 50q0 -23 -21 -36.5t-66 -13.5h-62q-100 0 -119 71l-103 328h-531l-106 -328q-8 -32 -37 -51.5t-84 -19.5h-46q-85 0 -85 50q0 11 3 21l411 1175q29 90 74 128.5t132 38.5h28q79 0 126 -39.5t75 -126.5l407 -1176q4 -14 4 -21zM908 571l-191 606q-5 16 -18 16
t-17 -16l-196 -606h422z" />
    <glyph glyph-name="Beta" unicode="&#x392;" horiz-adv-x="1275" 
d="M124 0zM1110.5 609q64.5 -81 64.5 -220q0 -187 -109.5 -288t-328.5 -101h-412q-105 0 -153 40t-48 116v1081q0 76 48 116t153 40h392q211 0 312.5 -87t101.5 -267q0 -119 -53.5 -199t-155.5 -117q124 -33 188.5 -114zM364 1180v-391h279q137 0 197 55t60 165
q0 75 -23.5 120t-76.5 66t-145 21h-245q-46 0 -46 -36zM869 231q59 57 59 174q0 115 -64 172.5t-209 57.5h-291v-425q0 -36 46 -36h263q137 0 196 57z" />
    <glyph glyph-name="Gamma" unicode="&#x393;" horiz-adv-x="1087" 
d="M124 67v1170q0 76 48 116t153 40h636q58 0 58 -78v-27q0 -41 -16 -59t-42 -18h-546q-46 0 -46 -35v-1109q0 -31 -22.5 -49t-78.5 -18h-44q-100 0 -100 67z" />
    <glyph glyph-name="uni0394" unicode="&#x394;" horiz-adv-x="1396" 
d="M89.5 14.5q-20.5 14.5 -20.5 44.5q0 18 8 47l407 1132q27 88 73 126.5t133 38.5h27q79 0 126.5 -39t74.5 -124l396 -1135q10 -33 10 -50q0 -29 -19.5 -42t-62.5 -13h-1088q-44 0 -64.5 14.5zM1033 169l-320 1001q-4 15 -18 15q-12 0 -17 -15l-328 -1001h683z" />
    <glyph glyph-name="Epsilon" unicode="&#x395;" horiz-adv-x="1141" 
d="M124 0zM372 1172v-375h517q25 0 40.5 -17.5t15.5 -56.5v-29q0 -73 -56 -73h-517v-400q0 -36 46 -36h569q26 0 42.5 -18t16.5 -59v-31q0 -41 -16.5 -59t-42.5 -18h-662q-105 0 -153 40t-48 116v1081q0 76 48 116t153 40h662q26 0 42.5 -18t16.5 -60v-31q0 -76 -59 -76
h-569q-46 0 -46 -36z" />
    <glyph glyph-name="Zeta" unicode="&#x396;" horiz-adv-x="1216" 
d="M81 0zM115.5 32.5q-34.5 32.5 -34.5 93.5q0 42 12.5 74t44.5 76l683 902q7 8 7 17q0 7 -6 11.5t-16 4.5h-658q-25 0 -40.5 18t-15.5 59v30q0 40 15.5 57.5t40.5 17.5h827q65 0 101.5 -32.5t36.5 -95.5q0 -42 -12.5 -73t-44.5 -76l-678 -901q-8 -11 -8 -19q0 -15 21 -15
h688q25 0 40.5 -17.5t15.5 -58.5v-31q0 -74 -56 -74h-870q-59 0 -93.5 32.5z" />
    <glyph glyph-name="Eta" unicode="&#x397;" horiz-adv-x="1351" 
d="M124 0zM1227 1326v-1259q0 -31 -22.5 -49t-78.5 -18h-47q-100 0 -100 67v559h-607v-559q0 -31 -22.5 -49t-78.5 -18h-47q-100 0 -100 67v1259q0 67 100 67h47q101 0 101 -67v-522h607v522q0 67 100 67h47q101 0 101 -67z" />
    <glyph glyph-name="Theta" unicode="&#x398;" horiz-adv-x="1488" 
d="M103 0zM1225 1239.5q160 -173.5 160 -522.5v-41q0 -352 -159 -524t-482 -172t-482 172t-159 524v41q0 349 160 522.5t481 173.5t481 -173.5zM537 1180q-80 -45 -121 -139t-49 -246h754q-8 152 -49 246t-121 139t-207 45t-207 -45zM955 215q81 46 121 144.5t46 257.5h-756
q6 -159 46 -257.5t121 -144.5t211 -46t211 46z" />
    <glyph glyph-name="Iota" unicode="&#x399;" horiz-adv-x="496" 
d="M124 0zM124 67v1259q0 67 100 67h49q99 0 99 -67v-1259q0 -67 -99 -67h-49q-100 0 -100 67z" />
    <glyph glyph-name="Kappa" unicode="&#x39a;" horiz-adv-x="1292" 
d="M124 0zM372 1326v-1259q0 -31 -22.5 -49t-78.5 -18h-47q-100 0 -100 67v1259q0 67 100 67h47q101 0 101 -67zM1199 31q0 -31 -68 -31h-94q-56 0 -93 18.5t-54 49.5l-440 580q-14 22 -14 43q0 23 14 45l441 588q18 31 54.5 50t91.5 19h91q67 0 67 -32q0 -15 -15 -37
l-501 -627l504 -629q16 -22 16 -37z" />
    <glyph glyph-name="Lambda" unicode="&#x39b;" horiz-adv-x="1401" 
d="M71 49q0 6 4 22l411 1157q28 88 73.5 126.5t132.5 38.5h27q79 0 126.5 -39.5t74.5 -123.5l408 -1159q3 -10 3 -20q0 -51 -87 -51h-61q-101 0 -120 71l-347 1088q-5 16 -18 16t-18 -16l-357 -1088q-19 -71 -121 -71h-45q-86 0 -86 49z" />
    <glyph glyph-name="Mu" unicode="&#x39c;" horiz-adv-x="1681" 
d="M88 0zM1572.5 18q-21.5 -18 -71.5 -18h-37q-51 0 -70.5 17t-21.5 47l-69 1109q0 16 -14 16q-17 0 -21 -16l-260 -1035q-27 -138 -163 -138h-16q-67 0 -108 33t-56 105l-264 1035q-4 16 -21 16q-14 0 -14 -16l-70 -1109q-2 -30 -21 -47t-67 -17h-32q-48 0 -69 18t-19 46
l72 1153q6 88 57 134.5t139 46.5h25q90 0 143.5 -38.5t72.5 -132.5l244 -1045l246 1050q16 85 71 125.5t143 40.5h28q88 0 137 -45.5t54 -135.5l72 -1153q2 -28 -19.5 -46z" />
    <glyph glyph-name="Nu" unicode="&#x39d;" horiz-adv-x="1379" 
d="M124 0zM124 64v1150q0 85 53.5 132t143.5 47h45q82 0 132 -38.5t83 -129.5l434 -1004q6 -16 21 -16q14 0 14 16v1108q0 64 89 64h29q87 0 87 -64v-1151q0 -85 -52.5 -131.5t-141.5 -46.5h-48q-82 0 -131.5 38.5t-83.5 129.5l-434 1004q-7 16 -21 16t-14 -16v-1108
q0 -64 -89 -64h-29q-87 0 -87 64z" />
    <glyph glyph-name="Xi" unicode="&#x39e;" horiz-adv-x="1141" 
d="M96 1284v31q0 78 58 78h833q26 0 42.5 -18t16.5 -60v-31q0 -76 -59 -76h-833q-58 0 -58 76zM212.5 642q-15.5 17 -15.5 56v33q0 39 15.5 56.5t39.5 17.5h637q25 0 40.5 -17.5t15.5 -56.5v-33q0 -73 -56 -73h-637q-24 0 -39.5 17zM112 18q-16 18 -16 59v31q0 41 16 59
t42 18h833q26 0 42.5 -18t16.5 -59v-31q0 -41 -16.5 -59t-42.5 -18h-833q-26 0 -42 18z" />
    <glyph glyph-name="Omicron" unicode="&#x39f;" horiz-adv-x="1488" 
d="M103 0zM262 152q-159 172 -159 524v41q0 349 160 522.5t481 173.5t481 -173.5t160 -522.5v-41q0 -352 -159 -524t-482 -172t-482 172zM964.5 221q82.5 52 120.5 162.5t38 292.5v41q0 181 -38 292t-121 163.5t-220 52.5t-220 -52.5t-121 -163.5t-38 -292v-41
q0 -182 38 -292.5t120.5 -162.5t220.5 -52t220.5 52z" />
    <glyph glyph-name="Pi" unicode="&#x3a0;" horiz-adv-x="1354" 
d="M124 67v1170q0 76 48 116t153 40h705q104 0 152 -40t48 -116v-1170q0 -67 -100 -67h-47q-101 0 -101 67v1109q0 36 -46 36h-518q-46 0 -46 -36v-1109q0 -67 -101 -67h-47q-100 0 -100 67z" />
    <glyph glyph-name="Rho" unicode="&#x3a1;" horiz-adv-x="1246" 
d="M124 0zM1051.5 1295.5q108.5 -97.5 108.5 -300.5t-113 -312t-340 -109h-335v-507q0 -31 -22.5 -49t-78.5 -18h-47q-100 0 -100 67v1170q0 156 202 156h379q238 0 346.5 -97.5zM864 809q59 57 59 179q0 81 -24.5 129t-81.5 70t-155 22h-244q-46 0 -46 -36v-421h295
q138 0 197 57z" />
    <glyph glyph-name="Sigma" unicode="&#x3a3;" horiz-adv-x="1104" 
d="M975 1210h-637l443 -478q17 -20 17 -42t-17 -40l-443 -467h637q26 0 42 -17.5t16 -57.5v-31q0 -41 -16 -59t-42 -18h-832q-65 0 -65 76v47q0 26 5 44.5t21 36.5l441 486l-442 499q-16 18 -20.5 35.5t-4.5 44.5v48q0 76 65 76h832q58 0 58 -78v-31q0 -74 -58 -74z" />
    <glyph glyph-name="Tau" unicode="&#x3a4;" horiz-adv-x="1260" 
d="M63 0zM506 67v1141h-385q-58 0 -58 76v31q0 78 58 78h1017q26 0 42.5 -18t16.5 -60v-31q0 -76 -59 -76h-385v-1141q0 -31 -22.5 -49t-78.5 -18h-45q-101 0 -101 67z" />
    <glyph glyph-name="Upsilon" unicode="&#x3a5;" horiz-adv-x="1344" 
d="M1281 1315v-31q0 -76 -58 -76h-10q-114 0 -209 -81t-151.5 -241t-56.5 -386v-433q0 -67 -100 -67h-48q-100 0 -100 67v433q0 226 -56.5 386t-151.5 241t-209 81h-10q-58 0 -58 76v31q0 78 58 78h33q130 0 240 -59.5t185 -166.5t102 -247q25 135 97.5 243t179.5 169
t232 61h33q58 0 58 -78z" />
    <glyph glyph-name="Phi" unicode="&#x3a6;" horiz-adv-x="1777" 
d="M103 0zM1505.5 302q-168.5 -134 -494.5 -145v-90q0 -67 -101 -67h-47q-101 0 -101 67v90q-324 11 -491.5 145.5t-167.5 394.5q0 516 659 540v89q0 67 101 67h47q101 0 101 -67v-89q663 -21 663 -540q0 -261 -168.5 -395zM1248 387q91 37 134.5 110.5t43.5 190.5
q0 121 -42 198.5t-133.5 118t-239.5 46.5v-707q146 6 237 43zM394.5 498.5q43.5 -73.5 133.5 -110.5t234 -44v707q-147 -7 -237 -47.5t-132 -118t-42 -197.5q0 -116 43.5 -189.5z" />
    <glyph glyph-name="Chi" unicode="&#x3a7;" horiz-adv-x="1342" 
d="M95 0zM1248 45q0 -20 -22 -32.5t-65 -12.5h-87q-52 0 -76 17t-41 49l-301 517l-297 -517q-13 -32 -38.5 -49t-78.5 -17h-61q-43 0 -64.5 12.5t-21.5 32.5q0 11 7 24l388 629l-387 626q-7 11 -7 23q0 21 22 33.5t65 12.5h92q52 0 76 -17t39 -49l294 -509l293 509
q14 32 39 49t78 17h61q43 0 65 -13t22 -33q0 -12 -7 -23l-388 -621l394 -634q7 -11 7 -24z" />
    <glyph glyph-name="Psi" unicode="&#x3a8;" horiz-adv-x="1625" 
d="M1562 1315v-31q0 -76 -58 -76h-10q-47 0 -74 -20t-43 -61.5t-32 -119.5l-41 -220q-31 -168 -118.5 -250.5t-249.5 -89.5v-387q0 -67 -102 -67h-45q-101 0 -101 67v387q-162 7 -249 89.5t-117 250.5l-40 220q-14 77 -31 119t-45 62t-75 20h-10q-58 0 -58 76v31q0 78 58 78
h19q155 0 234.5 -79t103.5 -247l34 -229q13 -76 31.5 -119t52.5 -65t92 -26v698q0 67 101 67h45q102 0 102 -67v-698q59 5 93 26.5t53 64.5t31 119l34 229q24 168 103.5 247t234.5 79h19q58 0 58 -78z" />
    <glyph glyph-name="uni03A9" unicode="&#x3a9;" horiz-adv-x="1485" 
d="M119 17.5q-16 17.5 -16 56.5v30q0 39 16 56.5t41 17.5h179q-61 64 -111 133.5t-87.5 174t-37.5 235.5v27q0 329 156.5 497t483.5 168q326 0 482 -168.5t156 -494.5v-28q0 -132 -37 -236.5t-87 -174.5t-111 -133h179q24 0 40 -17.5t16 -56.5v-30q0 -39 -16 -56.5
t-40 -17.5h-395q-26 0 -41 12.5t-15 32.5q0 23 19 46q95 104 160 249t66 365v29q0 173 -37 281t-119.5 160.5t-220.5 52.5q-137 0 -219.5 -52t-120 -160t-37.5 -283v-28q1 -221 66 -365t161 -249q19 -23 19 -46q0 -19 -15 -32t-41 -13h-395q-25 0 -41 17.5z" />
    <glyph glyph-name="Alphatonos" unicode="&#x386;" horiz-adv-x="1413" 
d="M1340 50q0 -23 -21 -36.5t-66 -13.5h-62q-100 0 -119 71l-103 328h-531l-106 -328q-8 -32 -37 -51.5t-84 -19.5h-46q-85 0 -85 50q0 11 3 21l411 1175q29 90 74 128.5t132 38.5h28q79 0 126 -39.5t75 -126.5l407 -1176q4 -14 4 -21zM94 1051q-14 15 -14 43q0 5 2 21
l42 225q4 30 24.5 46.5t53.5 16.5h38q32 0 49 -14.5t17 -41.5q0 -8 -4 -26l-46 -193q-24 -92 -85 -92h-38q-25 0 -39 15zM915 571l-191 606q-5 16 -18 16t-17 -16l-196 -606h422z" />
    <glyph glyph-name="Epsilontonos" unicode="&#x388;" horiz-adv-x="1349" 
d="M244.5 1388q16.5 -15 16.5 -42q0 -11 -3 -25l-47 -193q-23 -92 -85 -92h-37q-26 0 -39.5 15.5t-13.5 44.5q0 12 1 19l43 225q3 30 24 46.5t53 16.5h39q32 0 48.5 -15zM579 1172v-375h517q25 0 40.5 -17.5t15.5 -56.5v-29q0 -73 -56 -73h-517v-400q0 -36 46 -36h569
q26 0 42.5 -18t16.5 -59v-31q0 -41 -16.5 -59t-42.5 -18h-662q-105 0 -153 40t-48 116v1081q0 76 48 116t153 40h662q26 0 42.5 -18t16.5 -60v-31q0 -76 -59 -76h-569q-46 0 -46 -36z" />
    <glyph glyph-name="Etatonos" unicode="&#x389;" horiz-adv-x="1572" 
d="M244.5 1388q16.5 -15 16.5 -42q0 -11 -3 -25l-47 -193q-23 -92 -85 -92h-37q-26 0 -39.5 15.5t-13.5 44.5q0 12 1 19l43 225q3 30 24 46.5t53 16.5h39q32 0 48.5 -15zM1448 1326v-1259q0 -31 -22.5 -49t-78.5 -18h-47q-100 0 -100 67v559h-607v-559q0 -31 -22.5 -49
t-78.5 -18h-47q-100 0 -100 67v1259q0 67 100 67h47q101 0 101 -67v-522h607v522q0 67 100 67h47q101 0 101 -67z" />
    <glyph glyph-name="Iotatonos" unicode="&#x38a;" horiz-adv-x="732" 
d="M49.5 1051.5q-13.5 15.5 -13.5 44.5q0 12 1 19l43 225q3 30 24 46.5t53 16.5h39q32 0 48.5 -15t16.5 -42q0 -11 -3 -25l-47 -193q-23 -92 -85 -92h-37q-26 0 -39.5 15.5zM356 67v1259q0 67 100 67h49q99 0 99 -67v-1259q0 -67 -99 -67h-49q-100 0 -100 67z" />
    <glyph glyph-name="Omicrontonos" unicode="&#x38c;" horiz-adv-x="1612" 
d="M386 152q-159 172 -159 524v41q0 349 160 522.5t481 173.5t481 -173.5t160 -522.5v-41q0 -352 -159 -524t-482 -172t-482 172zM49.5 1051.5q-13.5 15.5 -13.5 44.5q0 12 1 19l43 225q3 30 24 46.5t53 16.5h39q32 0 48.5 -15t16.5 -42q0 -11 -3 -25l-47 -193
q-23 -92 -85 -92h-37q-26 0 -39.5 15.5zM1088.5 221q82.5 52 120.5 162.5t38 292.5v41q0 181 -38 292t-121 163.5t-220 52.5t-220 -52.5t-121 -163.5t-38 -292v-41q0 -182 38 -292.5t120.5 -162.5t220.5 -52t220.5 52z" />
    <glyph glyph-name="Upsilontonos" unicode="&#x38e;" horiz-adv-x="1605" 
d="M244.5 1388q16.5 -15 16.5 -42q0 -11 -3 -25l-47 -193q-23 -92 -85 -92h-37q-26 0 -39.5 15.5t-13.5 44.5q0 12 1 19l43 225q3 30 24 46.5t53 16.5h39q32 0 48.5 -15zM1543 1315v-31q0 -76 -58 -76h-10q-114 0 -209 -81t-151.5 -241t-56.5 -386v-433q0 -67 -100 -67h-48
q-100 0 -100 67v433q0 226 -56.5 386t-151.5 241t-209 81h-10q-58 0 -58 76v31q0 78 58 78h33q130 0 240 -59.5t185 -166.5t102 -247q25 135 97.5 243t179.5 169t232 61h33q58 0 58 -78z" />
    <glyph glyph-name="Omegatonos" unicode="&#x38f;" horiz-adv-x="1615" 
d="M250 17.5q-16 17.5 -16 56.5v30q0 39 16 56.5t41 17.5h179q-61 64 -111 133.5t-87.5 174t-37.5 235.5v27q0 329 156.5 497t483.5 168q326 0 482 -168.5t156 -494.5v-28q0 -132 -37 -236.5t-87 -174.5t-111 -133h179q24 0 40 -17.5t16 -56.5v-30q0 -39 -16 -56.5
t-40 -17.5h-395q-26 0 -41 12.5t-15 32.5q0 23 19 46q95 104 160 249t66 365v29q0 173 -37 281t-119.5 160.5t-220.5 52.5q-137 0 -219.5 -52t-120 -160t-37.5 -283v-28q1 -221 66 -365t161 -249q19 -23 19 -46q0 -19 -15 -32t-41 -13h-395q-25 0 -41 17.5zM49.5 1051.5
q-13.5 15.5 -13.5 44.5q0 12 1 19l43 225q3 30 24 46.5t53 16.5h39q32 0 48.5 -15t16.5 -42q0 -11 -3 -25l-47 -193q-23 -92 -85 -92h-37q-26 0 -39.5 15.5z" />
    <glyph glyph-name="Iotadieresis" unicode="&#x3aa;" horiz-adv-x="496" 
d="M0 0zM124 67v1259q0 67 100 67h49q99 0 99 -67v-1259q0 -67 -99 -67h-49q-100 0 -100 67zM5 1545q-33 32 -33 85t33 84.5t86 31.5q52 0 85 -31.5t33 -84.5t-33 -85t-85 -32q-53 0 -86 32zM331 1545q-33 32 -33 85t33 84.5t86 31.5q52 0 84.5 -31.5t32.5 -84.5t-32.5 -85
t-84.5 -32q-53 0 -86 32z" />
    <glyph glyph-name="Upsilondieresis" unicode="&#x3ab;" horiz-adv-x="1344" 
d="M63 0zM1281 1315v-31q0 -76 -58 -76h-10q-114 0 -209 -81t-151.5 -241t-56.5 -386v-433q0 -67 -100 -67h-48q-100 0 -100 67v433q0 226 -56.5 386t-151.5 241t-209 81h-10q-58 0 -58 76v31q0 78 58 78h33q130 0 240 -59.5t185 -166.5t102 -247q25 135 97.5 243t179.5 169
t232 61h33q58 0 58 -78zM431 1545q-33 32 -33 85t33 84.5t86 31.5q52 0 85 -31.5t33 -84.5t-33 -85t-85 -32q-53 0 -86 32zM757 1545q-33 32 -33 85t33 84.5t86 31.5q52 0 84.5 -31.5t32.5 -84.5t-32.5 -85t-84.5 -32q-53 0 -86 32z" />
    <glyph glyph-name="alpha" unicode="&#x3b1;" horiz-adv-x="1243" 
d="M1171 60q3 -9 3 -19q0 -41 -73 -41h-33q-48 0 -71 14.5t-31 41.5l-47 148q-60 -108 -151 -166t-237 -58q-445 0 -445 486v35q0 243 113 360.5t340 117.5q142 0 232 -56t149 -162l45 142q8 27 31 41.5t71 14.5h34q73 0 73 -41q0 -10 -3 -19l-141 -416zM832 483l-15 47
q-32 101 -57.5 155t-74 89.5t-130.5 35.5q-88 0 -140.5 -29.5t-77.5 -97t-25 -183.5v-34q0 -116 25 -185.5t78 -100.5t140 -31q82 0 130.5 37t73.5 91.5t58 158.5z" />
    <glyph glyph-name="beta" unicode="&#x3b2;" horiz-adv-x="1071" 
d="M710.5 626.5q13.5 -18.5 34 -32t59.5 -34.5q59 -32 97.5 -60.5t66.5 -79t28 -125.5q0 -97 -51 -168.5t-138.5 -109t-193.5 -37.5q-176 0 -279 86v-375q0 -60 -86 -60h-49q-86 0 -86 60v1225q0 142 68.5 255t192.5 177.5t284 64.5q110 0 185.5 -36t114 -101t38.5 -152
q0 -73 -27 -129t-63.5 -93.5t-95.5 -85.5t-86 -78.5t-27 -69.5q0 -23 13.5 -41.5zM724.5 180.5q53.5 36.5 53.5 114.5q0 45 -19.5 77t-48 52t-76.5 46q-49 27 -78 47.5t-49 53.5t-20 81q0 46 19 83.5t47.5 66.5t75.5 68q48 40 77.5 70t49.5 70.5t20 89.5q0 66 -37.5 103.5
t-108.5 37.5q-82 0 -149.5 -40t-107 -114t-39.5 -174v-536q0 -116 58 -174.5t186 -58.5q93 0 146.5 36.5z" />
    <glyph glyph-name="gamma" unicode="&#x3b3;" horiz-adv-x="1104" 
d="M1041 899q-96 -122 -206.5 -303.5t-184.5 -359.5q42 -163 42 -309q0 -125 -30.5 -220.5t-94.5 -95.5h-24q-65 0 -95.5 95.5t-30.5 220.5q0 144 42 304q-74 178 -186.5 361t-209.5 307q-10 15 -10 25q0 16 17.5 25.5t51.5 9.5h83q48 0 73 -15.5t45 -44.5
q59 -78 121 -180.5t113 -218.5q52 115 115 217t123 182q20 29 45 44.5t74 15.5h68q34 0 51 -9.5t17 -25.5q0 -11 -9 -25z" />
    <glyph glyph-name="delta" unicode="&#x3b4;" horiz-adv-x="1128" 
d="M435 1063.5q27 -27.5 68 -46.5t117 -46q129 -47 214 -94t147 -142t62 -248v-41q0 -238 -118 -352t-359 -114q-243 0 -361.5 117t-118.5 361v43q0 156 72 253t172 150q-69 40 -106 94t-37 136q0 131 96.5 205t283.5 74q89 0 163.5 -13t146.5 -40l68 -27q31 -11 31 -40
q0 -10 -3 -22l-15 -56q-5 -21 -13.5 -30.5t-22.5 -9.5q-8 0 -23 5l-57 22q-127 48 -255 48q-98 0 -138.5 -28t-40.5 -91q0 -40 27 -67.5zM819 487q0 100 -42.5 164.5t-106 101.5t-163.5 75q-82 -49 -137 -129t-55 -199v-41q0 -119 25 -187t80 -98t148 -30q92 0 146.5 29.5
t79.5 95t25 177.5v41z" />
    <glyph glyph-name="epsilon" unicode="&#x3b5;" horiz-adv-x="1003" 
d="M917 100q0 -27 -31 -40l-68 -26q-145 -55 -322 -55q-196 0 -298 77.5t-102 212.5q0 90 45.5 146t138.5 81q-78 28 -117 84t-39 131q0 126 96 197t283 71q89 0 163.5 -13t146.5 -40l68 -26q32 -13 32 -39q0 -6 -4 -24l-14 -55q-11 -40 -38 -40q-11 0 -22 4l-56 22
q-58 22 -124.5 35t-132.5 13q-97 0 -139 -30t-42 -90q0 -64 35.5 -94.5t111.5 -30.5h211q21 0 34.5 -14.5t13.5 -47.5v-30q0 -33 -13.5 -47.5t-34.5 -14.5h-233q-76 0 -110.5 -33.5t-34.5 -98.5q0 -71 44 -105.5t149 -34.5q67 0 139 13t130 35l56 23q12 4 22 4q14 0 23 -9.5
t15 -30.5l15 -58q3 -12 3 -22z" />
    <glyph glyph-name="zeta" unicode="&#x3b6;" horiz-adv-x="939" 
d="M919 -63q0 -92 -38.5 -158.5t-107 -101.5t-155.5 -35q-93 0 -163 17q-20 5 -29 17t-9 35v57q0 23 8.5 34.5t23.5 11.5q6 0 10 -1q72 -15 129 -15q67 0 103.5 30.5t36.5 80.5q0 51 -31.5 71t-103.5 20h-51q-456 0 -456 471v38q0 161 61.5 317t166.5 284q-57 2 -100 10
t-88 20q-20 5 -29 17t-9 35v86q0 23 8.5 35t23.5 12q7 0 10 -1q55 -14 99.5 -22t107.5 -8q100 0 192 14q77 50 155.5 77.5t151.5 27.5q33 0 51.5 -19.5t18.5 -52.5v-43q0 -32 -13.5 -55t-47.5 -39q-34 -17 -92 -34.5t-129 -31.5q-87 -64 -158 -161t-113 -218t-42 -251v-37
q0 -152 69.5 -218.5t199.5 -66.5h42q297 0 297 -249z" />
    <glyph glyph-name="eta" unicode="&#x3b7;" horiz-adv-x="1077" 
d="M788 -309q-19 49 -28 103t-9 124v685q0 112 -49.5 162t-162.5 50q-114 0 -163 -50t-49 -162v-543q0 -60 -89 -60h-44q-88 0 -88 60v537q0 382 433 382q432 0 432 -382v-678q0 -67 9.5 -120.5t28.5 -107.5q3 -9 3 -18q0 -42 -74 -42h-43q-86 0 -107 60z" />
    <glyph glyph-name="theta" unicode="&#x3b8;" horiz-adv-x="1199" 
d="M892.5 1333.5q108.5 -79.5 155.5 -229.5t47 -374v-76q0 -227 -49 -375.5t-157.5 -224t-287.5 -75.5q-183 0 -292.5 76t-157.5 224t-48 375v76q0 341 117 512t383 171q181 0 289.5 -79.5zM442 1187q-58 -49 -83.5 -150t-28.5 -267h539q-3 167 -27.5 267.5t-82 149.5
t-158.5 49t-159 -49zM759 206q58 48 83 148t27 266h-539q2 -167 27 -266.5t83 -147.5t160 -48q101 0 159 48z" />
    <glyph glyph-name="iota" unicode="&#x3b9;" horiz-adv-x="621" 
d="M202 65.5q-81 87.5 -81 250.5v583q0 60 89 60h46q89 0 89 -60v-576q0 -92 40 -134.5t119 -42.5q67 0 67 -51v-23q0 -50 -36 -72t-111 -22q-141 0 -222 87.5z" />
    <glyph glyph-name="kappa" unicode="&#x3ba;" horiz-adv-x="1042" 
d="M337 899v-839q0 -60 -89 -60h-46q-89 0 -89 60v839q0 60 89 60h46q89 0 89 -60zM997 893v-26q0 -35 -13.5 -50.5t-33.5 -15.5h-12q-52 0 -88.5 -23t-78.5 -78l-159 -219l351 -420q14 -19 14 -32q0 -29 -61 -29h-85q-93 0 -132 61l-295 378q-14 22 -14 41q0 21 14 41
l202 274q38 55 77.5 90t93.5 54.5t129 19.5h42q49 0 49 -66z" />
    <glyph glyph-name="lambda" unicode="&#x3bb;" horiz-adv-x="1025" 
d="M967 41q0 -41 -76 -41h-49q-90 0 -106 60l-211 666l-221 -666q-16 -60 -106 -60h-49q-76 0 -76 41q0 5 4 19l344 901l-14 39q-47 122 -105.5 178t-146.5 56h-42q-22 0 -36 15t-14 50v28q0 35 14 50.5t36 15.5h79q154 0 256 -92.5t174 -289.5l341 -951q4 -14 4 -19z" />
    <glyph glyph-name="uni03BC" unicode="&#x3bc;" horiz-adv-x="1127" 
d="M1021 910v-452q0 -244 -105.5 -361t-319.5 -117q-175 0 -270 86v-387q0 -59 -89 -59h-43q-88 0 -88 59v1231q0 59 88 59h43q89 0 89 -59v-451q0 -118 23 -186t74 -97.5t140 -29.5t140 29.5t74 97t23 185.5v452q0 59 89 59h44q88 0 88 -59z" />
    <glyph glyph-name="nu" unicode="&#x3bd;" horiz-adv-x="1059" 
d="M397.5 35.5q-43.5 35.5 -65.5 112.5l-151 493q-44 143 -102 254q-6 12 -6 23q0 19 19.5 30t59.5 11h55q50 0 75.5 -16.5t38.5 -46.5q46 -98 79 -231l121 -456q3 -8 6.5 -11t10.5 -3t11 3t6 11l143 394q35 96 46.5 160.5t11.5 131.5q0 64 95 64h38q53 0 71.5 -16.5
t18.5 -47.5q0 -70 -17.5 -143t-68.5 -198l-164 -405q-30 -81 -68.5 -115t-109.5 -34h-36q-74 0 -117.5 35.5z" />
    <glyph glyph-name="xi" unicode="&#x3be;" horiz-adv-x="939" 
d="M841.5 125.5q77.5 -60.5 77.5 -188.5q0 -92 -38.5 -159.5t-107 -102.5t-155.5 -35q-82 0 -163 18q-21 6 -29.5 17.5t-8.5 34.5v60q0 47 33 47q6 0 9 -1q81 -15 129 -15q67 0 103.5 29t36.5 79q0 51 -31.5 71t-103.5 20h-39q-144 0 -249.5 44.5t-163 131.5t-57.5 212
q0 130 62.5 210.5t177.5 113.5q-99 39 -154 116t-55 175q0 115 71 207q-50 14 -92 30q-20 8 -29.5 22t-9.5 36v77q0 20 8 30.5t21 10.5q7 0 15 -3q73 -26 132 -43t121 -26q66 34 143.5 51.5t156.5 17.5q89 0 137.5 -10.5t67.5 -31t19 -52.5v-24q0 -61 -60 -84
q-48 -18 -135 -30.5t-191 -12.5q-40 0 -79 3q-79 -65 -79 -179q0 -93 67 -149t194 -56h114q50 0 50 -69v-28q0 -68 -50 -68h-127q-135 0 -204 -54.5t-69 -161.5q0 -108 71.5 -164t205.5 -56h45q135 0 212.5 -60.5z" />
    <glyph glyph-name="omicron" unicode="&#x3bf;" horiz-adv-x="1110" 
d="M86 0zM201.5 97q-115.5 117 -115.5 361v43q0 244 115.5 361t351.5 117q238 0 355 -116t117 -362v-43q0 -246 -117 -362t-355 -116q-236 0 -351.5 117zM695.5 174q52.5 30 77.5 98t25 186v43q0 118 -25 186t-77.5 98t-140.5 30q-89 0 -141.5 -30t-77 -98.5t-24.5 -186.5
v-41q0 -118 24.5 -186.5t77 -98.5t141.5 -30q88 0 140.5 30z" />
    <glyph glyph-name="rho" unicode="&#x3c1;" horiz-adv-x="1109" 
d="M911 863.5q113 -115.5 113 -362.5v-43q0 -243 -107 -360.5t-321 -117.5q-171 0 -266 84v-373q0 -60 -92 -60h-44q-88 0 -88 60v810q0 246 110.5 362t345.5 116q236 0 349 -115.5zM802 501q0 118 -23.5 186t-75 98t-140.5 30q-87 0 -137.5 -30t-73 -98.5t-22.5 -186.5v-41
q0 -118 23 -186.5t73.5 -98.5t136.5 -30q89 0 140.5 30t75 98t23.5 186v43z" />
    <glyph glyph-name="uni03C2" unicode="&#x3c2;" horiz-adv-x="970" 
d="M455 -341q-20 5 -29 17t-9 35v57q0 23 8.5 34.5t23.5 11.5q6 0 10 -1q72 -15 129 -15q67 0 103.5 30.5t36.5 80.5q0 51 -31.5 71t-103.5 20h-51q-456 0 -456 471v38q0 249 118.5 359.5t334.5 110.5q145 0 264 -48l58 -21q17 -7 24.5 -17t7.5 -26q0 -9 -3 -23l-17 -60
q-5 -22 -13 -33t-23 -11q-8 0 -17 3l-52 19q-96 31 -185 31q-132 0 -201.5 -67t-69.5 -217v-38q0 -152 69 -218.5t199 -66.5h54q134 0 209.5 -60.5t75.5 -188.5q0 -92 -38.5 -158.5t-107 -101.5t-155.5 -35q-93 0 -163 17z" />
    <glyph glyph-name="sigma" unicode="&#x3c3;" horiz-adv-x="1155" 
d="M1103 964q14 -15 14 -50v-24q0 -35 -14 -50.5t-36 -15.5h-126q84 -115 84 -323v-43q0 -246 -117 -362t-355 -116q-236 0 -351.5 117t-115.5 361v43q0 244 115.5 361t351.5 117h18h496q22 0 36 -15zM798 501q0 118 -25 186t-77.5 98t-140.5 30q-89 0 -141.5 -30t-77 -98.5
t-24.5 -186.5v-41q0 -118 24.5 -186.5t77 -98.5t141.5 -30q88 0 140.5 30t77.5 98t25 186v43z" />
    <glyph glyph-name="tau" unicode="&#x3c4;" horiz-adv-x="935" 
d="M883 943.5q14 -15.5 14 -50.5v-27q0 -35 -14 -50t-36 -15h-268v-513q0 -68 9 -121.5t28 -106.5q3 -10 3 -19q0 -41 -74 -41h-49q-87 0 -107 60q-19 48 -27.5 102t-8.5 124v515h-89q-56 0 -99 -8t-83 -25q-8 -2 -13 -2q-31 0 -31 55v27q0 35 12 54t32 28q75 29 182 29h583
q22 0 36 -15.5z" />
    <glyph glyph-name="upsilon" unicode="&#x3c5;" horiz-adv-x="1059" 
d="M211.5 77q-105.5 97 -105.5 285v537q0 60 88 60h45q91 0 91 -60v-532q0 -112 46 -163t152 -51q115 0 167.5 72t52.5 225q0 121 -16 227t-48 222q-2 10 -2 14q0 21 19.5 33.5t60.5 12.5h48q48 0 70 -16t30 -44q31 -113 47 -218.5t16 -230.5q0 -229 -112 -349.5
t-333 -120.5q-211 0 -316.5 97z" />
    <glyph glyph-name="phi" unicode="&#x3c6;" horiz-adv-x="1458" 
d="M1264.5 867.5q107.5 -111.5 107.5 -362.5v-41q0 -226 -133.5 -343.5t-399.5 -136.5v-293q0 -60 -89 -60h-46q-88 0 -88 60v293q-265 19 -397.5 136t-132.5 338v41q0 145 55 248.5t157.5 157.5t240.5 54q22 0 34 -15t12 -51v-27q0 -65 -43 -65q-106 0 -168 -77t-62 -226
v-39q0 -153 73.5 -227t230.5 -90v395q0 217 94 329.5t260 112.5q187 0 294.5 -111.5zM1146 504q0 174 -44.5 239t-122.5 65q-71 0 -105.5 -61t-34.5 -212v-393q160 16 233.5 91.5t73.5 231.5v39z" />
    <glyph glyph-name="chi" unicode="&#x3c7;" horiz-adv-x="1038" 
d="M965 -326q0 -43 -79 -43h-77q-50 0 -72.5 16t-33.5 51l-191 470l-196 -470q-11 -35 -33.5 -51t-72.5 -16h-58q-79 0 -79 44q0 10 7 28l278 592l-274 595q-7 18 -7 27q0 42 79 42h77q49 0 72 -16t34 -50l187 -478l188 478q11 35 34 50.5t72 15.5h58q79 0 79 -43
q0 -11 -6 -26l-273 -586l280 -601q7 -19 7 -29z" />
    <glyph glyph-name="psi" unicode="&#x3c8;" horiz-adv-x="1455" 
d="M1237 126q-133 -122 -398 -142v-293q0 -60 -90 -60h-45q-89 0 -89 60v293q-257 20 -384.5 136.5t-127.5 337.5v213q0 68 -9 121.5t-28 106.5q-3 11 -3 19q0 41 74 41h47q87 0 107 -60q19 -47 27.5 -100.5t8.5 -125.5v-214q0 -153 69 -226.5t219 -89.5v1190q0 60 89 60h46
q89 0 89 -60v-1190q157 18 230.5 99t73.5 240q0 180 -63 417q-2 10 -2 15q0 45 77 45h47q50 0 72 -15.5t31 -44.5q65 -227 65 -417q0 -234 -133 -356z" />
    <glyph glyph-name="omega" unicode="&#x3c9;" horiz-adv-x="1514" 
d="M1413 680.5q16 -105.5 16 -230.5q0 -229 -108 -349.5t-318 -120.5q-151 0 -247 102q-93 -102 -245 -102q-209 0 -317 120.5t-108 349.5q0 127 16 232.5t47 216.5q8 28 30.5 44t71.5 16h48q77 0 77 -45q0 -5 -2 -15q-31 -118 -47 -220.5t-16 -219.5q0 -156 51 -230
t161 -74q96 0 153 59q-43 112 -43 263q0 154 26.5 262.5t85.5 108.5h25q58 0 82 -105.5t24 -265.5q0 -149 -41 -260q59 -62 157 -62q110 0 161 74t51 230q0 117 -16 220t-48 220q-2 10 -2 14q0 21 18.5 33.5t58.5 12.5h48q49 0 72 -16t31 -44q31 -113 47 -218.5z" />
    <glyph glyph-name="iotatonos" unicode="&#x3af;" horiz-adv-x="621" 
d="M121 0zM202 65.5q-81 87.5 -81 250.5v583q0 60 89 60h46q89 0 89 -60v-576q0 -92 40 -134.5t119 -42.5q67 0 67 -51v-23q0 -50 -36 -72t-111 -22q-141 0 -222 87.5zM173 1127.5q-14 13.5 -14 37.5q0 14 4 27l54 194q8 30 28.5 46.5t52.5 16.5h62q31 0 48 -14t17 -38
q0 -14 -6 -31l-57 -160q-17 -47 -37.5 -69.5t-51.5 -22.5h-62q-24 0 -38 13.5z" />
    <glyph glyph-name="iotadieresis" unicode="&#x3ca;" horiz-adv-x="621" 
d="M0 0zM202 65.5q-81 87.5 -81 250.5v583q0 60 89 60h46q89 0 89 -60v-576q0 -92 40 -134.5t119 -42.5q67 0 67 -51v-23q0 -50 -36 -72t-111 -22q-141 0 -222 87.5zM-9 1171q-33 32 -33 85t33 84.5t86 31.5q52 0 85 -31.5t33 -84.5t-33 -85t-85 -32q-53 0 -86 32zM317 1171
q-33 32 -33 85t33 84.5t86 31.5q52 0 84.5 -31.5t32.5 -84.5t-32.5 -85t-84.5 -32q-53 0 -86 32z" />
    <glyph glyph-name="iotadieresistonos" unicode="&#x390;" horiz-adv-x="621" 
d="M0 0zM202 65.5q-81 87.5 -81 250.5v583q0 60 89 60h46q89 0 89 -60v-576q0 -92 40 -134.5t119 -42.5q67 0 67 -51v-23q0 -50 -36 -72t-111 -22q-141 0 -222 87.5zM175 1127q-14 13 -14 37q0 15 4 28l53 194q8 30 29 46.5t52 16.5h30q31 0 48 -14t17 -39q0 -13 -6 -30
l-57 -160q-17 -46 -38 -69t-52 -23h-28q-24 0 -38 13zM-43 1187q-30 29 -30 77t30 76.5t78 28.5t77.5 -28.5t29.5 -76.5t-29.5 -77t-77.5 -29t-78 29zM423 1187q-30 29 -30 77t30 76.5t78 28.5q47 0 76.5 -28.5t29.5 -76.5t-29.5 -77t-76.5 -29q-48 0 -78 29z" />
    <glyph glyph-name="upsilontonos" unicode="&#x3cd;" horiz-adv-x="1059" 
d="M106 0zM211.5 77q-105.5 97 -105.5 285v537q0 60 88 60h45q91 0 91 -60v-532q0 -112 46 -163t152 -51q115 0 167.5 72t52.5 225q0 121 -16 227t-48 222q-2 10 -2 14q0 21 19.5 33.5t60.5 12.5h48q48 0 70 -16t30 -44q31 -113 47 -218.5t16 -230.5q0 -229 -112 -349.5
t-333 -120.5q-211 0 -316.5 97zM436 1127.5q-14 13.5 -14 37.5q0 14 4 27l54 194q8 30 28.5 46.5t52.5 16.5h62q31 0 48 -14t17 -38q0 -14 -6 -31l-57 -160q-17 -47 -37.5 -69.5t-51.5 -22.5h-62q-24 0 -38 13.5z" />
    <glyph glyph-name="upsilondieresis" unicode="&#x3cb;" horiz-adv-x="1059" 
d="M106 0zM211.5 77q-105.5 97 -105.5 285v537q0 60 88 60h45q91 0 91 -60v-532q0 -112 46 -163t152 -51q115 0 167.5 72t52.5 225q0 121 -16 227t-48 222q-2 10 -2 14q0 21 19.5 33.5t60.5 12.5h48q48 0 70 -16t30 -44q31 -113 47 -218.5t16 -230.5q0 -229 -112 -349.5
t-333 -120.5q-211 0 -316.5 97zM254 1171q-33 32 -33 85t33 84.5t86 31.5q52 0 85 -31.5t33 -84.5t-33 -85t-85 -32q-53 0 -86 32zM580 1171q-33 32 -33 85t33 84.5t86 31.5q52 0 84.5 -31.5t32.5 -84.5t-32.5 -85t-84.5 -32q-53 0 -86 32z" />
    <glyph glyph-name="upsilondieresistonos" unicode="&#x3b0;" horiz-adv-x="1059" 
d="M106 0zM211.5 77q-105.5 97 -105.5 285v537q0 60 88 60h45q91 0 91 -60v-532q0 -112 46 -163t152 -51q115 0 167.5 72t52.5 225q0 121 -16 227t-48 222q-2 10 -2 14q0 21 19.5 33.5t60.5 12.5h48q48 0 70 -16t30 -44q31 -113 47 -218.5t16 -230.5q0 -229 -112 -349.5
t-333 -120.5q-211 0 -316.5 97zM438 1127q-14 13 -14 37q0 15 4 28l53 194q8 30 29 46.5t52 16.5h30q31 0 48 -14t17 -39q0 -13 -6 -30l-57 -160q-17 -46 -38 -69t-52 -23h-28q-24 0 -38 13zM220 1187q-30 29 -30 77t30 76.5t78 28.5t77.5 -28.5t29.5 -76.5t-29.5 -77
t-77.5 -29t-78 29zM686 1187q-30 29 -30 77t30 76.5t78 28.5q47 0 76.5 -28.5t29.5 -76.5t-29.5 -77t-76.5 -29q-48 0 -78 29z" />
    <glyph glyph-name="omicrontonos" unicode="&#x3cc;" horiz-adv-x="1110" 
d="M86 0zM201.5 97q-115.5 117 -115.5 361v43q0 244 115.5 361t351.5 117q238 0 355 -116t117 -362v-43q0 -246 -117 -362t-355 -116q-236 0 -351.5 117zM695.5 174q52.5 30 77.5 98t25 186v43q0 118 -25 186t-77.5 98t-140.5 30q-89 0 -141.5 -30t-77 -98.5t-24.5 -186.5
v-41q0 -118 24.5 -186.5t77 -98.5t141.5 -30q88 0 140.5 30zM494 1127.5q-14 13.5 -14 37.5q0 14 4 27l54 194q8 30 28.5 46.5t52.5 16.5h62q31 0 48 -14t17 -38q0 -14 -6 -31l-57 -160q-17 -47 -37.5 -69.5t-51.5 -22.5h-62q-24 0 -38 13.5z" />
    </font>
</defs>
</svg>
