<?xml version="1.0" standalone="no"?>
<!DOCTYPE svg PUBLIC "-//W3C//DTD SVG 1.1//EN" "http://www.w3.org/Graphics/SVG/1.1/DTD/svg11.dtd" >
<svg xmlns="http://www.w3.org/2000/svg" width="100%" height="100%">
<metadata>
Created by Ingo Preuss | PreussType
Copyright (c) 2016 by Hubert Jocham.
</metadata>
<defs>
<font id="Innogy-Regular" horiz-adv-x="1229" >
  <font-face 
    font-family="Innogy"
    font-weight="400"
    font-stretch="normal"
    units-per-em="2048"
    panose-1="2 11 5 3 4 0 0 2 0 3"
    ascent="1638"
    descent="-410"
    x-height="946"
    bbox="-851 -614 2096 1858"
    underline-thickness="102"
    underline-position="-103"
    unicode-range="U+0020-FB02"
  />
<missing-glyph horiz-adv-x="972" 
d="M797 -369h-616v1943h616v-1943zM326 1444v-64h127v-72h-129v-64h323v64h-128v72h128v64h-321zM324 1193v-202h323v66h-128v136h-195zM453 1057h-64v70h64v-70zM324 939v-64h129v-72h-129v-64h195v136h128v64h-323zM583 822v-128h-259v-66h323v194h-64zM453 585v-109h66
v45h64v-91h-194v155h-65v-220h323v220h-194zM324 249v-220h323v220h-323zM583 93h-194v92h194v-92zM324 -15v-64h136l-136 -92v-64h323v64h-198l136 92h62v64h-323z" />
    <glyph glyph-name="fi" unicode="fi" horiz-adv-x="1133" 
d="M40 0zM709.5 1380q11.5 -13 11.5 -39v-40q0 -26 -11.5 -38.5t-29.5 -12.5h-33q-139 0 -205 -65.5t-66 -212.5v-26h262q18 0 29.5 -12.5t11.5 -38.5v-24q0 -26 -11.5 -38.5t-29.5 -12.5h-262v-775q0 -20 -16 -32.5t-49 -12.5h-33q-33 0 -48.5 12.5t-15.5 32.5v775h-132
q-18 0 -30 12.5t-12 38.5v24q0 25 12 38t30 13h132v27q0 131 49.5 225.5t145 144.5t230.5 50h41q18 0 29.5 -13zM852.5 1193.5q-27.5 26.5 -27.5 71.5q0 43 27.5 69.5t71.5 26.5q43 0 70.5 -26.5t27.5 -69.5q0 -44 -27.5 -71t-70.5 -27q-44 0 -71.5 26.5zM858.5 12.5
q-15.5 12.5 -15.5 32.5v856q0 20 15.5 32.5t48.5 12.5h33q33 0 48.5 -12.5t15.5 -32.5v-856q0 -20 -15.5 -32.5t-48.5 -12.5h-33q-33 0 -48.5 12.5z" />
    <glyph glyph-name="fl" unicode="fl" horiz-adv-x="1133" 
d="M40 0zM709.5 1380q11.5 -13 11.5 -39v-40q0 -26 -11.5 -38.5t-29.5 -12.5h-33q-139 0 -205 -65.5t-66 -212.5v-26h262q18 0 29.5 -12.5t11.5 -38.5v-24q0 -26 -11.5 -38.5t-29.5 -12.5h-262v-775q0 -20 -16 -32.5t-49 -12.5h-33q-33 0 -48.5 12.5t-15.5 32.5v775h-132
q-18 0 -30 12.5t-12 38.5v24q0 25 12 38t30 13h132v27q0 131 49.5 225.5t145 144.5t230.5 50h41q18 0 29.5 -13zM858.5 12.5q-15.5 12.5 -15.5 32.5v1302q0 20 15.5 33t48.5 13h33q33 0 48.5 -13t15.5 -33v-1302q0 -20 -15.5 -32.5t-48.5 -12.5h-33q-33 0 -48.5 12.5z" />
    <glyph glyph-name=".notdef" horiz-adv-x="972" 
d="M797 -369h-616v1943h616v-1943zM326 1444v-64h127v-72h-129v-64h323v64h-128v72h128v64h-321zM324 1193v-202h323v66h-128v136h-195zM453 1057h-64v70h64v-70zM324 939v-64h129v-72h-129v-64h195v136h128v64h-323zM583 822v-128h-259v-66h323v194h-64zM453 585v-109h66
v45h64v-91h-194v155h-65v-220h323v220h-194zM324 249v-220h323v220h-323zM583 93h-194v92h194v-92zM324 -15v-64h136l-136 -92v-64h323v64h-198l136 92h62v64h-323z" />
    <glyph glyph-name="space" unicode=" " horiz-adv-x="483" 
 />
    <glyph glyph-name="A" unicode="A" horiz-adv-x="1392" 
d="M1313 36q0 -36 -60 -36h-49q-37 0 -58.5 14t-28.5 37l-128 380h-593l-132 -380q-7 -23 -29.5 -37t-60.5 -14h-37q-30 0 -44 9.5t-14 25.5q0 7 3 16l458 1242q23 65 55 92.5t97 27.5h21q58 0 91.5 -28.5t55.5 -91.5l450 -1242q3 -7 3 -15zM942 570l-227 672q-5 17 -18 17
t-18 -17l-234 -672h497z" />
    <glyph glyph-name="Aacute" unicode="&#xc1;" horiz-adv-x="1392" 
d="M79 0zM1313 36q0 -36 -60 -36h-49q-37 0 -58.5 14t-28.5 37l-128 380h-593l-132 -380q-7 -23 -29.5 -37t-60.5 -14h-37q-30 0 -44 9.5t-14 25.5q0 7 3 16l458 1242q23 65 55 92.5t97 27.5h21q58 0 91.5 -28.5t55.5 -91.5l450 -1242q3 -7 3 -15zM942 570l-227 672
q-5 17 -18 17t-18 -17l-234 -672h497zM620.5 1517q-11.5 9 -11.5 24q0 21 24 46l127 137q18 20 36 29.5t43 9.5h45q25 0 40 -11t15 -28q0 -21 -20 -40l-107 -104q-43 -40 -69.5 -56t-55.5 -16h-35q-20 0 -31.5 9z" />
    <glyph glyph-name="Abreve" unicode="&#x102;" horiz-adv-x="1392" 
d="M79 0zM1313 36q0 -36 -60 -36h-49q-37 0 -58.5 14t-28.5 37l-128 380h-593l-132 -380q-7 -23 -29.5 -37t-60.5 -14h-37q-30 0 -44 9.5t-14 25.5q0 7 3 16l458 1242q23 65 55 92.5t97 27.5h21q58 0 91.5 -28.5t55.5 -91.5l450 -1242q3 -7 3 -15zM942 570l-227 672
q-5 17 -18 17t-18 -17l-234 -672h497zM536 1519.5q-67 34.5 -100 93.5t-33 131q0 30 9.5 47.5t27.5 17.5q19 0 30 -14t25 -46q18 -41 37.5 -68.5t60.5 -48t108 -20.5t108 20.5t60.5 48t37.5 68.5q14 32 25 46t30 14q18 0 27.5 -17.5t9.5 -47.5q0 -72 -33 -131t-100 -93.5
t-165 -34.5t-165 34.5z" />
    <glyph glyph-name="Acircumflex" unicode="&#xc2;" horiz-adv-x="1392" 
d="M79 0zM1313 36q0 -36 -60 -36h-49q-37 0 -58.5 14t-28.5 37l-128 380h-593l-132 -380q-7 -23 -29.5 -37t-60.5 -14h-37q-30 0 -44 9.5t-14 25.5q0 7 3 16l458 1242q23 65 55 92.5t97 27.5h21q58 0 91.5 -28.5t55.5 -91.5l450 -1242q3 -7 3 -15zM942 570l-227 672
q-5 17 -18 17t-18 -17l-234 -672h497zM987 1540q0 -14 -12.5 -22.5t-35.5 -8.5h-15q-32 0 -53.5 8t-39.5 23.5t-57 55.5l-72 73l-73 -73q-7 -7 -37 -37.5t-53.5 -40t-55.5 -9.5h-15q-25 0 -38.5 9.5t-13.5 25.5q0 21 23 44l139 140q17 18 36 26.5t43 8.5h89q47 0 79 -35
l137 -140q25 -25 25 -48z" />
    <glyph glyph-name="Adieresis" unicode="&#xc4;" horiz-adv-x="1392" 
d="M79 0zM1313 36q0 -36 -60 -36h-49q-37 0 -58.5 14t-28.5 37l-128 380h-593l-132 -380q-7 -23 -29.5 -37t-60.5 -14h-37q-30 0 -44 9.5t-14 25.5q0 7 3 16l458 1242q23 65 55 92.5t97 27.5h21q58 0 91.5 -28.5t55.5 -91.5l450 -1242q3 -7 3 -15zM942 570l-227 672
q-5 17 -18 17t-18 -17l-234 -672h497zM480.5 1560q-26.5 26 -26.5 70q0 43 26.5 69t69.5 26t70 -26t27 -69q0 -44 -27 -70t-70 -26t-69.5 26zM782.5 1560q-26.5 26 -26.5 70q0 43 26.5 69t69.5 26t70 -26t27 -69q0 -44 -27 -70t-70 -26t-69.5 26z" />
    <glyph glyph-name="Agrave" unicode="&#xc0;" horiz-adv-x="1392" 
d="M79 0zM1313 36q0 -36 -60 -36h-49q-37 0 -58.5 14t-28.5 37l-128 380h-593l-132 -380q-7 -23 -29.5 -37t-60.5 -14h-37q-30 0 -44 9.5t-14 25.5q0 7 3 16l458 1242q23 65 55 92.5t97 27.5h21q58 0 91.5 -28.5t55.5 -91.5l450 -1242q3 -7 3 -15zM942 570l-227 672
q-5 17 -18 17t-18 -17l-234 -672h497zM713 1508q-30 0 -57.5 16t-68.5 56l-108 104q-20 19 -20 39q0 18 15 29t41 11h45q25 0 42.5 -9.5t35.5 -29.5l128 -137q24 -25 24 -47q0 -14 -11.5 -23t-30.5 -9h-35z" />
    <glyph glyph-name="Amacron" unicode="&#x100;" horiz-adv-x="1392" 
d="M79 0zM1313 36q0 -36 -60 -36h-49q-37 0 -58.5 14t-28.5 37l-128 380h-593l-132 -380q-7 -23 -29.5 -37t-60.5 -14h-37q-30 0 -44 9.5t-14 25.5q0 7 3 16l458 1242q23 65 55 92.5t97 27.5h21q58 0 91.5 -28.5t55.5 -91.5l450 -1242q3 -7 3 -15zM942 570l-227 672
q-5 17 -18 17t-18 -17l-234 -672h497zM418.5 1609q-11.5 13 -11.5 39v23q0 26 11.5 39t29.5 13h506q18 0 29.5 -13t11.5 -39v-23q0 -26 -11.5 -39t-29.5 -13h-506q-18 0 -29.5 13z" />
    <glyph glyph-name="Aogonek" unicode="&#x104;" horiz-adv-x="1392" 
d="M1379 -193q8 -9 8 -25q0 -29 -29.5 -56.5t-80 -45.5t-109.5 -18q-81 0 -129 37t-48 105q0 67 52 121t123 80q-39 13 -49 46l-128 380h-593l-132 -380q-7 -23 -29.5 -37t-60.5 -14h-37q-30 0 -44 9.5t-14 25.5q0 7 3 16l458 1242q23 65 55 92.5t97 27.5h21
q58 0 91.5 -28.5t55.5 -91.5l450 -1242q3 -7 3 -15q0 -21 -23 -31q-68 -22 -116 -68t-48 -102q0 -65 74 -65q32 0 56.5 8t53.5 22q32 16 47 16q14 0 22 -9zM942 570l-227 672q-5 17 -18 17t-18 -17l-234 -672h497z" />
    <glyph glyph-name="Aring" unicode="&#xc5;" horiz-adv-x="1392" 
d="M79 0zM1313 36q0 -36 -60 -36h-49q-37 0 -58.5 14t-28.5 37l-128 380h-593l-132 -380q-7 -23 -29.5 -37t-60.5 -14h-37q-30 0 -44 9.5t-14 25.5q0 7 3 16l458 1242q23 65 55 92.5t97 27.5h21q58 0 91.5 -28.5t55.5 -91.5l450 -1242q3 -7 3 -15zM942 570l-227 672
q-5 17 -18 17t-18 -17l-234 -672h497zM588.5 1490q-47.5 26 -73.5 70.5t-26 100.5q0 55 26 100t73.5 71t110.5 26q65 0 113 -26t74 -71t26 -100q0 -56 -26 -100.5t-74 -70.5t-113 -26q-63 0 -110.5 26zM786.5 1579.5q32.5 32.5 32.5 82.5q0 47 -33 79.5t-83 32.5t-82 -32.5
t-32 -79.5q0 -51 31.5 -83t82.5 -32t83.5 32.5z" />
    <glyph glyph-name="Atilde" unicode="&#xc3;" horiz-adv-x="1392" 
d="M79 0zM1313 36q0 -36 -60 -36h-49q-37 0 -58.5 14t-28.5 37l-128 380h-593l-132 -380q-7 -23 -29.5 -37t-60.5 -14h-37q-30 0 -44 9.5t-14 25.5q0 7 3 16l458 1242q23 65 55 92.5t97 27.5h21q58 0 91.5 -28.5t55.5 -91.5l450 -1242q3 -7 3 -15zM942 570l-227 672
q-5 17 -18 17t-18 -17l-234 -672h497zM376.5 1561.5q-14.5 20.5 -14.5 52.5q0 39 22.5 76t67 60.5t107.5 23.5q58 0 96.5 -17t83.5 -50q33 -24 54.5 -34.5t48.5 -10.5q29 0 46 9t25 21.5t16 33.5q9 24 19 36t33 12q26 0 40.5 -21t14.5 -53q0 -39 -22 -75.5t-66 -60
t-106 -23.5q-52 0 -87 15.5t-76 45.5q-35 25 -61 37.5t-62 12.5q-41 0 -57.5 -16.5t-28.5 -47.5q-10 -24 -20 -35.5t-33 -11.5q-26 0 -40.5 20.5z" />
    <glyph glyph-name="AE" unicode="&#xc6;" horiz-adv-x="2004" 
d="M1173 1249v-467h567q20 0 33 -14t13 -43v-24q0 -29 -13 -43.5t-33 -14.5h-567v-463q0 -37 47 -37h620q20 0 33 -14t13 -44v-26q0 -30 -13 -44.5t-33 -14.5h-643q-101 0 -148 38.5t-47 112.5v284h-559l-181 -394q-24 -51 -93 -51h-38q-56 0 -56 31q0 8 5 20l585 1232
q29 64 64 92t99 28h1012q20 0 33 -14.5t13 -44.5v-26q0 -30 -13 -44.5t-33 -14.5h-667zM1002 570v677h-173q-13 0 -21 -16l-303 -661h497z" />
    <glyph glyph-name="B" unicode="B" horiz-adv-x="1263" 
d="M1086.5 604q58.5 -83 58.5 -215q0 -188 -108 -288.5t-333 -100.5h-371q-101 0 -147.5 38.5t-46.5 112.5v1091q0 74 46.5 112.5t147.5 38.5h346q220 0 321 -88.5t101 -267.5q0 -232 -192 -312q119 -38 177.5 -121zM312 1218v-439h326q159 0 227.5 61t68.5 185
q0 83 -26 132.5t-86.5 73t-164.5 23.5h-298q-47 0 -47 -36zM899.5 200.5q66.5 62.5 66.5 192.5q0 129 -72.5 193.5t-238.5 64.5h-343v-477q0 -36 47 -36h316q158 0 224.5 62.5z" />
    <glyph glyph-name="C" unicode="C" horiz-adv-x="1300" 
d="M404 61q-140 81 -213 237t-73 378v41q0 221 73 377t213.5 237.5t340.5 81.5q160 0 328 -59l95 -36q16 -6 23.5 -14t7.5 -20q0 -7 -3 -18l-16 -54q-5 -18 -12 -26t-18 -8q-10 0 -19 4l-93 33q-138 48 -270 48q-229 0 -348 -137t-119 -409v-41q0 -272 119 -409.5
t348 -137.5q132 0 270 48l93 34q9 4 19 4q11 0 18 -8t12 -26l16 -54q3 -10 3 -18q0 -12 -7.5 -20t-23.5 -14l-95 -36q-163 -59 -328 -59q-201 0 -341 81z" />
    <glyph glyph-name="Cacute" unicode="&#x106;" horiz-adv-x="1300" 
d="M118 0zM404 61q-140 81 -213 237t-73 378v41q0 221 73 377t213.5 237.5t340.5 81.5q160 0 328 -59l95 -36q16 -6 23.5 -14t7.5 -20q0 -7 -3 -18l-16 -54q-5 -18 -12 -26t-18 -8q-10 0 -19 4l-93 33q-138 48 -270 48q-229 0 -348 -137t-119 -409v-41q0 -272 119 -409.5
t348 -137.5q132 0 270 48l93 34q9 4 19 4q11 0 18 -8t12 -26l16 -54q3 -10 3 -18q0 -12 -7.5 -20t-23.5 -14l-95 -36q-163 -59 -328 -59q-201 0 -341 81zM656.5 1517q-11.5 9 -11.5 24q0 21 24 46l127 137q18 20 36 29.5t43 9.5h45q25 0 40 -11t15 -28q0 -21 -20 -40
l-107 -104q-43 -40 -69.5 -56t-55.5 -16h-35q-20 0 -31.5 9z" />
    <glyph glyph-name="Ccaron" unicode="&#x10c;" horiz-adv-x="1300" 
d="M118 0zM404 61q-140 81 -213 237t-73 378v41q0 221 73 377t213.5 237.5t340.5 81.5q160 0 328 -59l95 -36q16 -6 23.5 -14t7.5 -20q0 -7 -3 -18l-16 -54q-5 -18 -12 -26t-18 -8q-10 0 -19 4l-93 33q-138 48 -270 48q-229 0 -348 -137t-119 -409v-41q0 -272 119 -409.5
t348 -137.5q132 0 270 48l93 34q9 4 19 4q11 0 18 -8t12 -26l16 -54q3 -10 3 -18q0 -12 -7.5 -20t-23.5 -14l-95 -36q-163 -59 -328 -59q-201 0 -341 81zM1010.5 1754.5q12.5 -8.5 12.5 -23.5q0 -22 -25 -47l-137 -140q-32 -35 -79 -35h-89q-24 0 -43 8.5t-36 26.5l-139 140
q-23 23 -23 44q0 16 13.5 25.5t38.5 9.5h15q29 0 48.5 -7t35.5 -20.5t46 -44.5l16 -16l73 -73l72 73q39 40 57 56t39.5 24t53.5 8h15q23 0 35.5 -8.5z" />
    <glyph glyph-name="Ccedilla" unicode="&#xc7;" horiz-adv-x="1300" 
d="M1196 127q3 -10 3 -18q0 -12 -7.5 -20t-23.5 -14l-95 -36q-146 -53 -296 -58l-12 -21q-5 -8 -8.5 -16.5t-3.5 -16.5q0 -18 16 -27.5t49 -18.5q38 -10 63 -22t43 -39t18 -73q0 -73 -61.5 -115t-175.5 -42q-59 0 -109 19.5t-79.5 48.5t-29.5 57q0 16 8 25t22 9
q10 0 20.5 -4.5t27.5 -13.5q32 -18 63.5 -29t76.5 -11q109 0 109 61q0 27 -20 40t-61 25q-31 10 -49 18t-31 23.5t-13 41.5q0 15 5.5 27t16.5 30l15 25q-179 14 -304.5 99t-190 235.5t-64.5 359.5v41q0 221 73 377t213.5 237.5t340.5 81.5q160 0 328 -59l95 -36
q16 -6 23.5 -14t7.5 -20q0 -7 -3 -18l-16 -54q-5 -18 -12 -26t-18 -8q-10 0 -19 4l-93 33q-138 48 -270 48q-229 0 -348 -137t-119 -409v-41q0 -272 119 -409.5t348 -137.5q132 0 270 48l93 34q9 4 19 4q11 0 18 -8t12 -26z" />
    <glyph glyph-name="Cdotaccent" unicode="&#x10a;" horiz-adv-x="1300" 
d="M118 0zM404 61q-140 81 -213 237t-73 378v41q0 221 73 377t213.5 237.5t340.5 81.5q160 0 328 -59l95 -36q16 -6 23.5 -14t7.5 -20q0 -7 -3 -18l-16 -54q-5 -18 -12 -26t-18 -8q-10 0 -19 4l-93 33q-138 48 -270 48q-229 0 -348 -137t-119 -409v-41q0 -272 119 -409.5
t348 -137.5q132 0 270 48l93 34q9 4 19 4q11 0 18 -8t12 -26l16 -54q3 -10 3 -18q0 -12 -7.5 -20t-23.5 -14l-95 -36q-163 -59 -328 -59q-201 0 -341 81zM665 1561q-27 27 -27 72q0 44 27.5 70.5t71.5 26.5t71.5 -26.5t27.5 -70.5q0 -45 -27.5 -72t-71.5 -27q-45 0 -72 27z
" />
    <glyph glyph-name="C.ss01" horiz-adv-x="1300" 
d="M404 61q-140 81 -213 237t-73 378v41q0 221 73 377t213.5 237.5t340.5 81.5q160 0 328 -59l95 -36q16 -6 23.5 -14t7.5 -20q0 -7 -3 -18l-16 -56q-5 -18 -12 -25.5t-17 -7.5q-9 0 -20 4l-93 33q-138 48 -270 48q-229 0 -348 -137t-119 -408v-41q0 -271 119 -408t348 -137
q132 0 270 48l93 33q9 4 19 4q11 0 18 -8t12 -26l16 -55q3 -10 3 -18q0 -12 -7.5 -20t-23.5 -14l-95 -36q-163 -59 -328 -59q-201 0 -341 81z" />
    <glyph glyph-name="C.ss02" horiz-adv-x="1300" 
d="M401.5 61.5q-139.5 81.5 -211.5 237.5t-72 377v41q0 220 72 376.5t211.5 238t338.5 81.5q136 0 237 -28.5t167 -71.5q19 -12 28 -25.5t9 -31.5v-63q0 -34 -21 -34q-9 0 -22 7q-185 96 -370 96q-229 0 -348 -137t-119 -408v-41q0 -271 119 -408t348 -137q185 0 370 96
q14 7 22 7q21 0 21 -34v-64q0 -17 -9 -30.5t-28 -26.5q-66 -42 -167 -70.5t-237 -28.5q-199 0 -338.5 81.5z" />
    <glyph glyph-name="D" unicode="D" horiz-adv-x="1357" 
d="M185.5 38.5q-46.5 38.5 -46.5 112.5v1091q0 74 46.5 112.5t147.5 38.5h279q317 0 472 -172.5t155 -503.5v-41q0 -330 -156.5 -503t-470.5 -173h-279q-101 0 -147.5 38.5zM600 145q241 0 350.5 131t109.5 400v41q0 269 -109.5 399.5t-350.5 130.5h-242q-46 0 -46 -36
v-1029q0 -37 46 -37h242z" />
    <glyph glyph-name="Eth" unicode="&#xd0;" horiz-adv-x="1357" 
d="M1084 1220.5q155 -172.5 155 -503.5v-41q0 -330 -156.5 -503t-470.5 -173h-279q-101 0 -147.5 38.5t-46.5 112.5v492h-93q-20 0 -33 14.5t-13 43.5v23q0 29 13 43.5t33 14.5h93v460q0 74 46.5 112.5t147.5 38.5h279q317 0 472 -172.5zM1060 717q0 269 -109.5 399.5
t-350.5 130.5h-242q-46 0 -46 -36v-429h394q20 0 33 -14.5t13 -43.5v-23q0 -29 -13 -43.5t-33 -14.5h-394v-461q0 -37 46 -37h242q241 0 350.5 131t109.5 400v41z" />
    <glyph glyph-name="Dcaron" unicode="&#x10e;" horiz-adv-x="1357" 
d="M139 0zM185.5 38.5q-46.5 38.5 -46.5 112.5v1091q0 74 46.5 112.5t147.5 38.5h279q317 0 472 -172.5t155 -503.5v-41q0 -330 -156.5 -503t-470.5 -173h-279q-101 0 -147.5 38.5zM600 145q241 0 350.5 131t109.5 400v41q0 269 -109.5 399.5t-350.5 130.5h-242
q-46 0 -46 -36v-1029q0 -37 46 -37h242zM931.5 1754.5q12.5 -8.5 12.5 -23.5q0 -22 -25 -47l-137 -140q-32 -35 -79 -35h-89q-24 0 -43 8.5t-36 26.5l-139 140q-23 23 -23 44q0 16 13.5 25.5t38.5 9.5h15q29 0 48.5 -7t35.5 -20.5t46 -44.5l16 -16l73 -73l72 73q39 40 57 56
t39.5 24t53.5 8h15q23 0 35.5 -8.5z" />
    <glyph glyph-name="Dcroat" unicode="&#x110;" horiz-adv-x="1357" 
d="M0 0zM1084 1220.5q155 -172.5 155 -503.5v-41q0 -330 -156.5 -503t-470.5 -173h-279q-101 0 -147.5 38.5t-46.5 112.5v492h-93q-20 0 -33 14.5t-13 43.5v23q0 29 13 43.5t33 14.5h93v460q0 74 46.5 112.5t147.5 38.5h279q317 0 472 -172.5zM1060 717q0 269 -109.5 399.5
t-350.5 130.5h-242q-46 0 -46 -36v-429h394q20 0 33 -14.5t13 -43.5v-23q0 -29 -13 -43.5t-33 -14.5h-394v-461q0 -37 46 -37h242q241 0 350.5 131t109.5 400v41z" />
    <glyph glyph-name="E" unicode="E" horiz-adv-x="1131" 
d="M314 1213v-431h562q20 0 33 -14t13 -43v-26q0 -29 -13 -43.5t-33 -14.5h-562v-461q0 -37 47 -37h615q21 0 34 -14t13 -44v-26q0 -30 -13.5 -44.5t-33.5 -14.5h-643q-101 0 -147.5 38.5t-46.5 112.5v1091q0 74 46.5 112.5t147.5 38.5h643q20 0 33.5 -14.5t13.5 -44.5v-26
q0 -30 -13.5 -44.5t-33.5 -14.5h-615q-47 0 -47 -36z" />
    <glyph glyph-name="Eacute" unicode="&#xc9;" horiz-adv-x="1131" 
d="M139 0zM314 1213v-431h562q20 0 33 -14t13 -43v-26q0 -29 -13 -43.5t-33 -14.5h-562v-461q0 -37 47 -37h615q21 0 34 -14t13 -44v-26q0 -30 -13.5 -44.5t-33.5 -14.5h-643q-101 0 -147.5 38.5t-46.5 112.5v1091q0 74 46.5 112.5t147.5 38.5h643q20 0 33.5 -14.5
t13.5 -44.5v-26q0 -30 -13.5 -44.5t-33.5 -14.5h-615q-47 0 -47 -36zM512.5 1517q-11.5 9 -11.5 24q0 21 24 46l127 137q18 20 36 29.5t43 9.5h45q25 0 40 -11t15 -28q0 -21 -20 -40l-107 -104q-43 -40 -69.5 -56t-55.5 -16h-35q-20 0 -31.5 9z" />
    <glyph glyph-name="Ecaron" unicode="&#x11a;" horiz-adv-x="1131" 
d="M139 0zM314 1213v-431h562q20 0 33 -14t13 -43v-26q0 -29 -13 -43.5t-33 -14.5h-562v-461q0 -37 47 -37h615q21 0 34 -14t13 -44v-26q0 -30 -13.5 -44.5t-33.5 -14.5h-643q-101 0 -147.5 38.5t-46.5 112.5v1091q0 74 46.5 112.5t147.5 38.5h643q20 0 33.5 -14.5
t13.5 -44.5v-26q0 -30 -13.5 -44.5t-33.5 -14.5h-615q-47 0 -47 -36zM866.5 1754.5q12.5 -8.5 12.5 -23.5q0 -22 -25 -47l-137 -140q-32 -35 -79 -35h-89q-24 0 -43 8.5t-36 26.5l-139 140q-23 23 -23 44q0 16 13.5 25.5t38.5 9.5h15q29 0 48.5 -7t35.5 -20.5t46 -44.5
l16 -16l73 -73l72 73q39 40 57 56t39.5 24t53.5 8h15q23 0 35.5 -8.5z" />
    <glyph glyph-name="Ecircumflex" unicode="&#xca;" horiz-adv-x="1131" 
d="M139 0zM314 1213v-431h562q20 0 33 -14t13 -43v-26q0 -29 -13 -43.5t-33 -14.5h-562v-461q0 -37 47 -37h615q21 0 34 -14t13 -44v-26q0 -30 -13.5 -44.5t-33.5 -14.5h-643q-101 0 -147.5 38.5t-46.5 112.5v1091q0 74 46.5 112.5t147.5 38.5h643q20 0 33.5 -14.5
t13.5 -44.5v-26q0 -30 -13.5 -44.5t-33.5 -14.5h-615q-47 0 -47 -36zM879 1540q0 -14 -12.5 -22.5t-35.5 -8.5h-15q-32 0 -53.5 8t-39.5 23.5t-57 55.5l-72 73l-73 -73q-7 -7 -37 -37.5t-53.5 -40t-55.5 -9.5h-15q-25 0 -38.5 9.5t-13.5 25.5q0 21 23 44l139 140
q17 18 36 26.5t43 8.5h89q47 0 79 -35l137 -140q25 -25 25 -48z" />
    <glyph glyph-name="Edieresis" unicode="&#xcb;" horiz-adv-x="1131" 
d="M139 0zM314 1213v-431h562q20 0 33 -14t13 -43v-26q0 -29 -13 -43.5t-33 -14.5h-562v-461q0 -37 47 -37h615q21 0 34 -14t13 -44v-26q0 -30 -13.5 -44.5t-33.5 -14.5h-643q-101 0 -147.5 38.5t-46.5 112.5v1091q0 74 46.5 112.5t147.5 38.5h643q20 0 33.5 -14.5
t13.5 -44.5v-26q0 -30 -13.5 -44.5t-33.5 -14.5h-615q-47 0 -47 -36zM372.5 1560q-26.5 26 -26.5 70q0 43 26.5 69t69.5 26t70 -26t27 -69q0 -44 -27 -70t-70 -26t-69.5 26zM674.5 1560q-26.5 26 -26.5 70q0 43 26.5 69t69.5 26t70 -26t27 -69q0 -44 -27 -70t-70 -26
t-69.5 26z" />
    <glyph glyph-name="Edotaccent" unicode="&#x116;" horiz-adv-x="1131" 
d="M139 0zM314 1213v-431h562q20 0 33 -14t13 -43v-26q0 -29 -13 -43.5t-33 -14.5h-562v-461q0 -37 47 -37h615q21 0 34 -14t13 -44v-26q0 -30 -13.5 -44.5t-33.5 -14.5h-643q-101 0 -147.5 38.5t-46.5 112.5v1091q0 74 46.5 112.5t147.5 38.5h643q20 0 33.5 -14.5
t13.5 -44.5v-26q0 -30 -13.5 -44.5t-33.5 -14.5h-615q-47 0 -47 -36zM521 1561q-27 27 -27 72q0 44 27.5 70.5t71.5 26.5t71.5 -26.5t27.5 -70.5q0 -45 -27.5 -72t-71.5 -27q-45 0 -72 27z" />
    <glyph glyph-name="Egrave" unicode="&#xc8;" horiz-adv-x="1131" 
d="M139 0zM314 1213v-431h562q20 0 33 -14t13 -43v-26q0 -29 -13 -43.5t-33 -14.5h-562v-461q0 -37 47 -37h615q21 0 34 -14t13 -44v-26q0 -30 -13.5 -44.5t-33.5 -14.5h-643q-101 0 -147.5 38.5t-46.5 112.5v1091q0 74 46.5 112.5t147.5 38.5h643q20 0 33.5 -14.5
t13.5 -44.5v-26q0 -30 -13.5 -44.5t-33.5 -14.5h-615q-47 0 -47 -36zM605 1508q-30 0 -57.5 16t-68.5 56l-108 104q-20 19 -20 39q0 18 15 29t41 11h45q25 0 42.5 -9.5t35.5 -29.5l128 -137q24 -25 24 -47q0 -14 -11.5 -23t-30.5 -9h-35z" />
    <glyph glyph-name="Emacron" unicode="&#x112;" horiz-adv-x="1131" 
d="M139 0zM314 1213v-431h562q20 0 33 -14t13 -43v-26q0 -29 -13 -43.5t-33 -14.5h-562v-461q0 -37 47 -37h615q21 0 34 -14t13 -44v-26q0 -30 -13.5 -44.5t-33.5 -14.5h-643q-101 0 -147.5 38.5t-46.5 112.5v1091q0 74 46.5 112.5t147.5 38.5h643q20 0 33.5 -14.5
t13.5 -44.5v-26q0 -30 -13.5 -44.5t-33.5 -14.5h-615q-47 0 -47 -36zM310.5 1609q-11.5 13 -11.5 39v23q0 26 11.5 39t29.5 13h506q18 0 29.5 -13t11.5 -39v-23q0 -26 -11.5 -39t-29.5 -13h-506q-18 0 -29.5 13z" />
    <glyph glyph-name="Eogonek" unicode="&#x118;" horiz-adv-x="1131" 
d="M1074 -197q8 -9 8 -25q0 -29 -29.5 -56.5t-80 -45.5t-109.5 -18q-81 0 -129 37t-48 105q0 66 51 119.5t121 80.5h-525q-101 0 -147.5 38.5t-46.5 112.5v1091q0 74 46.5 112.5t147.5 38.5h643q20 0 33.5 -14.5t13.5 -44.5v-26q0 -30 -13.5 -44.5t-33.5 -14.5h-615
q-47 0 -47 -36v-431h562q20 0 33 -14t13 -43v-26q0 -29 -13 -43.5t-33 -14.5h-562v-461q0 -37 47 -37h615q21 0 34 -14t13 -44v-26q0 -27 -11 -41.5t-28 -16.5q-69 -23 -116 -68.5t-47 -101.5q0 -65 74 -65q32 0 56.5 8t53.5 22q32 16 47 16q14 0 22 -9z" />
    <glyph glyph-name="F" unicode="F" horiz-adv-x="1109" 
d="M1008.5 1378.5q13.5 -14.5 13.5 -44.5v-26q0 -30 -13.5 -44.5t-33.5 -14.5h-615q-46 0 -46 -36v-454h558q20 0 33 -14t13 -43v-27q0 -29 -13 -43.5t-33 -14.5h-558v-567q0 -22 -17 -36t-55 -14h-31q-37 0 -54.5 14t-17.5 36v1192q0 74 46.5 112.5t147.5 38.5h642
q20 0 33.5 -14.5z" />
    <glyph glyph-name="G" unicode="G" horiz-adv-x="1388" 
d="M282 158.5q-164 177.5 -164 517.5v41q0 221 74 377t218 237.5t349 81.5q177 0 341 -59l95 -36q16 -6 23.5 -14t7.5 -20q0 -7 -3 -18l-16 -55q-5 -18 -12 -26t-18 -8q-10 0 -19 4l-93 34q-68 24 -136 36t-147 12q-236 0 -358.5 -137.5t-122.5 -408.5v-41q0 -281 122 -413
t368 -132q85 0 151 14.5t106 32t40 19.5v539q0 21 17 35t54 14h30q37 0 53.5 -13.5t16.5 -35.5v-522q0 -47 -16.5 -80.5t-55.5 -55.5q-82 -41 -183.5 -69t-242.5 -28q-315 0 -479 177.5z" />
    <glyph glyph-name="Gbreve" unicode="&#x11e;" horiz-adv-x="1388" 
d="M118 0zM282 158.5q-164 177.5 -164 517.5v41q0 221 74 377t218 237.5t349 81.5q177 0 341 -59l95 -36q16 -6 23.5 -14t7.5 -20q0 -7 -3 -18l-16 -55q-5 -18 -12 -26t-18 -8q-10 0 -19 4l-93 34q-68 24 -136 36t-147 12q-236 0 -358.5 -137.5t-122.5 -408.5v-41
q0 -281 122 -413t368 -132q85 0 151 14.5t106 32t40 19.5v539q0 21 17 35t54 14h30q37 0 53.5 -13.5t16.5 -35.5v-522q0 -47 -16.5 -80.5t-55.5 -55.5q-82 -41 -183.5 -69t-242.5 -28q-315 0 -479 177.5zM589 1519.5q-67 34.5 -100 93.5t-33 131q0 30 9.5 47.5t27.5 17.5
q19 0 30 -14t25 -46q18 -41 37.5 -68.5t60.5 -48t108 -20.5t108 20.5t60.5 48t37.5 68.5q14 32 25 46t30 14q18 0 27.5 -17.5t9.5 -47.5q0 -72 -33 -131t-100 -93.5t-165 -34.5t-165 34.5z" />
    <glyph glyph-name="Gcommaaccent" unicode="&#x122;" horiz-adv-x="1388" 
d="M118 0zM282 158.5q-164 177.5 -164 517.5v41q0 221 74 377t218 237.5t349 81.5q177 0 341 -59l95 -36q16 -6 23.5 -14t7.5 -20q0 -7 -3 -18l-16 -55q-5 -18 -12 -26t-18 -8q-10 0 -19 4l-93 34q-68 24 -136 36t-147 12q-236 0 -358.5 -137.5t-122.5 -408.5v-41
q0 -281 122 -413t368 -132q85 0 151 14.5t106 32t40 19.5v539q0 21 17 35t54 14h30q37 0 53.5 -13.5t16.5 -35.5v-522q0 -47 -16.5 -80.5t-55.5 -55.5q-82 -41 -183.5 -69t-242.5 -28q-315 0 -479 177.5zM608 -411q-11 11 -11 31q0 11 5 29l62 191q8 25 26.5 39.5t45.5 14.5
h33q27 0 42 -12t15 -33q0 -13 -6 -28l-55 -150q-19 -49 -36.5 -71t-45.5 -22h-46q-18 0 -29 11z" />
    <glyph glyph-name="Gdotaccent" unicode="&#x120;" horiz-adv-x="1388" 
d="M118 0zM282 158.5q-164 177.5 -164 517.5v41q0 221 74 377t218 237.5t349 81.5q177 0 341 -59l95 -36q16 -6 23.5 -14t7.5 -20q0 -7 -3 -18l-16 -55q-5 -18 -12 -26t-18 -8q-10 0 -19 4l-93 34q-68 24 -136 36t-147 12q-236 0 -358.5 -137.5t-122.5 -408.5v-41
q0 -281 122 -413t368 -132q85 0 151 14.5t106 32t40 19.5v539q0 21 17 35t54 14h30q37 0 53.5 -13.5t16.5 -35.5v-522q0 -47 -16.5 -80.5t-55.5 -55.5q-82 -41 -183.5 -69t-242.5 -28q-315 0 -479 177.5zM682 1561q-27 27 -27 72q0 44 27.5 70.5t71.5 26.5t71.5 -26.5
t27.5 -70.5q0 -45 -27.5 -72t-71.5 -27q-45 0 -72 27z" />
    <glyph glyph-name="H" unicode="H" horiz-adv-x="1339" 
d="M1200 1343v-1293q0 -50 -72 -50h-31q-37 0 -54.5 14t-17.5 36v594h-711v-594q0 -50 -72 -50h-31q-37 0 -54.5 14t-17.5 36v1293q0 22 17.5 36t54.5 14h31q72 0 72 -50v-559h711v559q0 22 17.5 36t54.5 14h31q72 0 72 -50z" />
    <glyph glyph-name="Hbar" unicode="&#x126;" horiz-adv-x="1339" 
d="M1326 1136q14 -14 14 -40v-16q0 -26 -14 -40t-40 -14h-86v-976q0 -50 -72 -50h-31q-37 0 -54.5 14t-17.5 36v594h-711v-594q0 -50 -72 -50h-31q-37 0 -54.5 14t-17.5 36v976h-86q-26 0 -40 14t-14 40v16q0 26 14 40t40 14h86v193q0 22 17.5 36t54.5 14h31q72 0 72 -50
v-193h711v193q0 22 17.5 36t54.5 14h31q72 0 72 -50v-193h86q26 0 40 -14zM1025 1026h-711v-242h711v242z" />
    <glyph glyph-name="I" unicode="I" horiz-adv-x="453" 
d="M156.5 14q-17.5 14 -17.5 36v1293q0 22 17.5 36t54.5 14h33q37 0 53.5 -14t16.5 -36v-1293q0 -22 -16.5 -36t-53.5 -14h-33q-37 0 -54.5 14z" />
    <glyph glyph-name="Iacute" unicode="&#xcd;" horiz-adv-x="453" 
d="M138 0zM156.5 14q-17.5 14 -17.5 36v1293q0 22 17.5 36t54.5 14h33q37 0 53.5 -14t16.5 -36v-1293q0 -22 -16.5 -36t-53.5 -14h-33q-37 0 -54.5 14zM149.5 1517q-11.5 9 -11.5 24q0 21 24 46l127 137q18 20 36 29.5t43 9.5h45q25 0 40 -11t15 -28q0 -21 -20 -40
l-107 -104q-43 -40 -69.5 -56t-55.5 -16h-35q-20 0 -31.5 9z" />
    <glyph glyph-name="Icircumflex" unicode="&#xce;" horiz-adv-x="453" 
d="M0 0zM156.5 14q-17.5 14 -17.5 36v1293q0 22 17.5 36t54.5 14h33q37 0 53.5 -14t16.5 -36v-1293q0 -22 -16.5 -36t-53.5 -14h-33q-37 0 -54.5 14zM516 1540q0 -14 -12.5 -22.5t-35.5 -8.5h-15q-32 0 -53.5 8t-39.5 23.5t-57 55.5l-72 73l-73 -73q-7 -7 -37 -37.5
t-53.5 -40t-55.5 -9.5h-15q-25 0 -38.5 9.5t-13.5 25.5q0 21 23 44l139 140q17 18 36 26.5t43 8.5h89q47 0 79 -35l137 -140q25 -25 25 -48z" />
    <glyph glyph-name="Idieresis" unicode="&#xcf;" horiz-adv-x="453" 
d="M0 0zM156.5 14q-17.5 14 -17.5 36v1293q0 22 17.5 36t54.5 14h33q37 0 53.5 -14t16.5 -36v-1293q0 -22 -16.5 -36t-53.5 -14h-33q-37 0 -54.5 14zM9.5 1560q-26.5 26 -26.5 70q0 43 26.5 69t69.5 26t70 -26t27 -69q0 -44 -27 -70t-70 -26t-69.5 26zM311.5 1560
q-26.5 26 -26.5 70q0 43 26.5 69t69.5 26t70 -26t27 -69q0 -44 -27 -70t-70 -26t-69.5 26z" />
    <glyph glyph-name="Idotaccent" unicode="&#x130;" horiz-adv-x="453" 
d="M131 0zM156.5 14q-17.5 14 -17.5 36v1293q0 22 17.5 36t54.5 14h33q37 0 53.5 -14t16.5 -36v-1293q0 -22 -16.5 -36t-53.5 -14h-33q-37 0 -54.5 14zM158 1561q-27 27 -27 72q0 44 27.5 70.5t71.5 26.5t71.5 -26.5t27.5 -70.5q0 -45 -27.5 -72t-71.5 -27q-45 0 -72 27z
" />
    <glyph glyph-name="Igrave" unicode="&#xcc;" horiz-adv-x="453" 
d="M0 0zM156.5 14q-17.5 14 -17.5 36v1293q0 22 17.5 36t54.5 14h33q37 0 53.5 -14t16.5 -36v-1293q0 -22 -16.5 -36t-53.5 -14h-33q-37 0 -54.5 14zM242 1508q-30 0 -57.5 16t-68.5 56l-108 104q-20 19 -20 39q0 18 15 29t41 11h45q25 0 42.5 -9.5t35.5 -29.5l128 -137
q24 -25 24 -47q0 -14 -11.5 -23t-30.5 -9h-35z" />
    <glyph glyph-name="Imacron" unicode="&#x12a;" horiz-adv-x="453" 
d="M0 0zM156.5 14q-17.5 14 -17.5 36v1293q0 22 17.5 36t54.5 14h33q37 0 53.5 -14t16.5 -36v-1293q0 -22 -16.5 -36t-53.5 -14h-33q-37 0 -54.5 14zM-52.5 1609q-11.5 13 -11.5 39v23q0 26 11.5 39t29.5 13h506q18 0 29.5 -13t11.5 -39v-23q0 -26 -11.5 -39t-29.5 -13h-506
q-18 0 -29.5 13z" />
    <glyph glyph-name="Iogonek" unicode="&#x12e;" horiz-adv-x="453" 
d="M363 -195q8 -9 8 -25q0 -29 -29.5 -56.5t-80 -45.5t-109.5 -18q-81 0 -129 37t-48 105q0 48 28 90t71.5 72t90.5 44q-26 14 -26 42v1293q0 22 17.5 36t54.5 14h33q37 0 53.5 -14t16.5 -36v-1293q0 -38 -40 -47q-68 -22 -116 -68t-48 -102q0 -65 74 -65q32 0 56.5 8
t53.5 22q32 16 47 16q14 0 22 -9z" />
    <glyph glyph-name="IJ" unicode="&#x132;" horiz-adv-x="1161" 
d="M139 0zM156.5 14q-17.5 14 -17.5 36v1293q0 22 17.5 36t54.5 14h33q37 0 53.5 -14t16.5 -36v-1293q0 -22 -16.5 -36t-53.5 -14h-33q-37 0 -54.5 14zM560 2q-36 22 -36 62v12q0 24 17.5 34.5t51.5 10.5q124 0 189 57.5t65 190.5v974q0 22 16.5 36t53.5 14h35q36 0 53 -14
t17 -36v-981q0 -126 -45 -211.5t-126 -128t-189 -42.5q-66 0 -102 22z" />
    <glyph glyph-name="J" unicode="J" horiz-adv-x="708" 
d="M107 2q-36 22 -36 62v12q0 24 17.5 34.5t51.5 10.5q124 0 189 57.5t65 190.5v974q0 22 16.5 36t53.5 14h35q36 0 53 -14t17 -36v-981q0 -126 -45 -211.5t-126 -128t-189 -42.5q-66 0 -102 22z" />
    <glyph glyph-name="K" unicode="K" horiz-adv-x="1262" 
d="M314 1343v-1293q0 -50 -72 -50h-31q-37 0 -54.5 14t-17.5 36v1293q0 22 17.5 36t54.5 14h31q72 0 72 -50zM1153 20q0 -20 -43 -20h-83q-37 0 -65 13.5t-44 35.5l-518 600q-16 19 -16 41q0 23 16 42l519 610q17 23 44.5 37t63.5 14h79q44 0 44 -22q0 -11 -15 -29
l-576 -645l580 -648q14 -17 14 -29z" />
    <glyph glyph-name="Kcommaaccent" unicode="&#x136;" horiz-adv-x="1262" 
d="M139 0zM1156 26q0 -26 -50 -26h-66q-68 0 -98 48l-404 641l-224 -248v-391q0 -50 -72 -50h-31q-37 0 -54.5 14t-17.5 36v1293q0 22 17.5 36t54.5 14h31q72 0 72 -50v-702l602 704q37 48 107 48h76q45 0 45 -21q0 -11 -14 -27l-473 -525l491 -772q8 -13 8 -22zM479 -411
q-11 11 -11 31q0 11 5 29l62 191q8 25 26.5 39.5t45.5 14.5h33q27 0 42 -12t15 -33q0 -13 -6 -28l-55 -150q-19 -49 -36.5 -71t-45.5 -22h-46q-18 0 -29 11z" />
    <glyph glyph-name="K.ss01" horiz-adv-x="1262" 
d="M1156 26q0 -26 -50 -26h-66q-68 0 -98 48l-404 641l-224 -248v-391q0 -50 -72 -50h-31q-37 0 -54.5 14t-17.5 36v1293q0 22 17.5 36t54.5 14h31q72 0 72 -50v-702l602 704q37 48 107 48h76q45 0 45 -21q0 -11 -14 -27l-473 -525l491 -772q8 -13 8 -22z" />
    <glyph glyph-name="L" unicode="L" horiz-adv-x="1078" 
d="M185.5 38.5q-46.5 38.5 -46.5 112.5v1192q0 22 17.5 36t54.5 14h31q72 0 72 -50v-1165q0 -37 47 -37h592q20 0 33 -14t13 -44v-24q0 -30 -13 -44.5t-33 -14.5h-620q-101 0 -147.5 38.5z" />
    <glyph glyph-name="Lacute" unicode="&#x139;" horiz-adv-x="1078" 
d="M139 0zM185.5 38.5q-46.5 38.5 -46.5 112.5v1192q0 22 17.5 36t54.5 14h31q72 0 72 -50v-1165q0 -37 47 -37h592q20 0 33 -14t13 -44v-24q0 -30 -13 -44.5t-33 -14.5h-620q-101 0 -147.5 38.5zM214.5 1517q-11.5 9 -11.5 24q0 21 24 46l127 137q18 20 36 29.5t43 9.5h45
q25 0 40 -11t15 -28q0 -21 -20 -40l-107 -104q-43 -40 -69.5 -56t-55.5 -16h-35q-20 0 -31.5 9z" />
    <glyph glyph-name="Lcaron" unicode="&#x13d;" horiz-adv-x="1078" 
d="M577.5 994.5q-13.5 11.5 -13.5 32.5q0 4 2 16l77 322q12 48 60 48h52q23 0 36.5 -11.5t13.5 -32.5q0 -5 -2 -17l-80 -321q-7 -24 -21 -36t-38 -12h-50q-23 0 -36.5 11.5zM185.5 38.5q-46.5 38.5 -46.5 112.5v1192q0 22 17.5 36t54.5 14h31q72 0 72 -50v-1165
q0 -37 47 -37h592q20 0 33 -14t13 -44v-24q0 -30 -13 -44.5t-33 -14.5h-620q-101 0 -147.5 38.5z" />
    <glyph glyph-name="Lcommaaccent" unicode="&#x13b;" horiz-adv-x="1078" 
d="M139 0zM185.5 38.5q-46.5 38.5 -46.5 112.5v1192q0 22 17.5 36t54.5 14h31q72 0 72 -50v-1165q0 -37 47 -37h592q20 0 33 -14t13 -44v-24q0 -30 -13 -44.5t-33 -14.5h-620q-101 0 -147.5 38.5zM412 -411q-11 11 -11 31q0 11 5 29l62 191q8 25 26.5 39.5t45.5 14.5h33
q27 0 42 -12t15 -33q0 -13 -6 -28l-55 -150q-19 -49 -36.5 -71t-45.5 -22h-46q-18 0 -29 11z" />
    <glyph glyph-name="Ldot" unicode="&#x13f;" horiz-adv-x="1078" 
d="M185.5 38.5q-46.5 38.5 -46.5 112.5v1192q0 22 17.5 36t54.5 14h31q72 0 72 -50v-1165q0 -37 47 -37h592q20 0 33 -14t13 -44v-24q0 -30 -13 -44.5t-33 -14.5h-620q-101 0 -147.5 38.5zM584.5 520q-26.5 26 -26.5 70q0 43 26.5 69t69.5 26t70 -26t27 -69q0 -44 -27 -70
t-70 -26t-69.5 26z" />
    <glyph glyph-name="Lslash" unicode="&#x141;" horiz-adv-x="1078" 
d="M1026 127q13 -14 13 -44v-24q0 -30 -13 -44.5t-33 -14.5h-620q-101 0 -147.5 38.5t-46.5 112.5v421l-63 -32q-19 -10 -37 -10t-28.5 12t-10.5 33v25q0 52 47 74l92 46v623q0 22 17.5 36t54.5 14h31q72 0 72 -50v-535l367 184q19 10 36 10q18 0 29 -12t11 -33v-25
q0 -53 -47 -75l-396 -198v-481q0 -37 47 -37h592q20 0 33 -14z" />
    <glyph glyph-name="M" unicode="M" horiz-adv-x="1631" 
d="M1516.5 13q-16.5 -13 -50.5 -13h-35q-35 0 -49 12.5t-16 33.5l-79 1177q0 16 -15 16q-17 0 -22 -16l-312 -1117q-14 -58 -44 -82t-79 -24h-9q-49 0 -79 24t-44 82l-313 1117q-3 8 -9.5 12t-13.5 4q-14 0 -14 -16l-79 -1177q-2 -21 -16 -33.5t-48 -12.5h-27
q-33 0 -49.5 13t-14.5 33l81 1209q5 66 44 102.5t107 36.5h22q70 0 110 -29.5t60 -107.5l293 -1101l295 1107q32 131 167 131h26q68 0 104.5 -36t41.5 -103l81 -1209q2 -20 -14.5 -33z" />
    <glyph glyph-name="N" unicode="N" horiz-adv-x="1342" 
d="M154.5 13q-15.5 13 -15.5 33v1208q0 64 41.5 101.5t110.5 37.5h26q43 0 71.5 -12.5t51.5 -42t48 -82.5l524 -1087q8 -16 23 -16q14 0 14 16v1177q0 47 64 47h26q33 0 48.5 -13t15.5 -34v-1207q0 -65 -41 -102t-111 -37h-26q-42 0 -71 12.5t-52 41.5t-48 82l-524 1088
q-8 16 -23 16q-14 0 -14 -16v-1178q0 -46 -64 -46h-26q-33 0 -48.5 13z" />
    <glyph glyph-name="Nacute" unicode="&#x143;" horiz-adv-x="1342" 
d="M139 0zM154.5 13q-15.5 13 -15.5 33v1208q0 64 41.5 101.5t110.5 37.5h26q43 0 71.5 -12.5t51.5 -42t48 -82.5l524 -1087q8 -16 23 -16q14 0 14 16v1177q0 47 64 47h26q33 0 48.5 -13t15.5 -34v-1207q0 -65 -41 -102t-111 -37h-26q-42 0 -71 12.5t-52 41.5t-48 82
l-524 1088q-8 16 -23 16q-14 0 -14 -16v-1178q0 -46 -64 -46h-26q-33 0 -48.5 13zM609.5 1517q-11.5 9 -11.5 24q0 21 24 46l127 137q18 20 36 29.5t43 9.5h45q25 0 40 -11t15 -28q0 -21 -20 -40l-107 -104q-43 -40 -69.5 -56t-55.5 -16h-35q-20 0 -31.5 9z" />
    <glyph glyph-name="Ncaron" unicode="&#x147;" horiz-adv-x="1342" 
d="M139 0zM154.5 13q-15.5 13 -15.5 33v1208q0 64 41.5 101.5t110.5 37.5h26q43 0 71.5 -12.5t51.5 -42t48 -82.5l524 -1087q8 -16 23 -16q14 0 14 16v1177q0 47 64 47h26q33 0 48.5 -13t15.5 -34v-1207q0 -65 -41 -102t-111 -37h-26q-42 0 -71 12.5t-52 41.5t-48 82
l-524 1088q-8 16 -23 16q-14 0 -14 -16v-1178q0 -46 -64 -46h-26q-33 0 -48.5 13zM963.5 1754.5q12.5 -8.5 12.5 -23.5q0 -22 -25 -47l-137 -140q-32 -35 -79 -35h-89q-24 0 -43 8.5t-36 26.5l-139 140q-23 23 -23 44q0 16 13.5 25.5t38.5 9.5h15q29 0 48.5 -7t35.5 -20.5
t46 -44.5l16 -16l73 -73l72 73q39 40 57 56t39.5 24t53.5 8h15q23 0 35.5 -8.5z" />
    <glyph glyph-name="Ncommaaccent" unicode="&#x145;" horiz-adv-x="1342" 
d="M139 0zM154.5 13q-15.5 13 -15.5 33v1208q0 64 41.5 101.5t110.5 37.5h26q43 0 71.5 -12.5t51.5 -42t48 -82.5l524 -1087q8 -16 23 -16q14 0 14 16v1177q0 47 64 47h26q33 0 48.5 -13t15.5 -34v-1207q0 -65 -41 -102t-111 -37h-26q-42 0 -71 12.5t-52 41.5t-48 82
l-524 1088q-8 16 -23 16q-14 0 -14 -16v-1178q0 -46 -64 -46h-26q-33 0 -48.5 13zM514 -411q-11 11 -11 31q0 11 5 29l62 191q8 25 26.5 39.5t45.5 14.5h33q27 0 42 -12t15 -33q0 -13 -6 -28l-55 -150q-19 -49 -36.5 -71t-45.5 -22h-46q-18 0 -29 11z" />
    <glyph glyph-name="Eng" unicode="&#x14a;" horiz-adv-x="1342" 
d="M1187.5 1380q15.5 -13 15.5 -34v-1400q0 -103 -36 -178.5t-100.5 -116t-147.5 -40.5q-57 0 -87 21.5t-30 59.5v13q0 21 15.5 29t47.5 8q87 0 135.5 52.5t48.5 155.5v49h-24q-42 0 -71 12.5t-52 42t-48 82.5l-524 1088q-8 16 -23 16q-14 0 -14 -16v-1178q0 -46 -64 -46
h-26q-33 0 -48.5 13t-15.5 33v1208q0 64 41.5 101.5t110.5 37.5h26q43 0 71.5 -12.5t51.5 -42t48 -82.5l524 -1088q8 -16 23 -16q14 0 14 16v1178q0 47 64 47h26q33 0 48.5 -13z" />
    <glyph glyph-name="Ntilde" unicode="&#xd1;" horiz-adv-x="1342" 
d="M139 0zM154.5 13q-15.5 13 -15.5 33v1208q0 64 41.5 101.5t110.5 37.5h26q43 0 71.5 -12.5t51.5 -42t48 -82.5l524 -1087q8 -16 23 -16q14 0 14 16v1177q0 47 64 47h26q33 0 48.5 -13t15.5 -34v-1207q0 -65 -41 -102t-111 -37h-26q-42 0 -71 12.5t-52 41.5t-48 82
l-524 1088q-8 16 -23 16q-14 0 -14 -16v-1178q0 -46 -64 -46h-26q-33 0 -48.5 13zM365.5 1561.5q-14.5 20.5 -14.5 52.5q0 39 22.5 76t67 60.5t107.5 23.5q58 0 96.5 -17t83.5 -50q33 -24 54.5 -34.5t48.5 -10.5q29 0 46 9t25 21.5t16 33.5q9 24 19 36t33 12q26 0 40.5 -21
t14.5 -53q0 -39 -22 -75.5t-66 -60t-106 -23.5q-52 0 -87 15.5t-76 45.5q-35 25 -61 37.5t-62 12.5q-41 0 -57.5 -16.5t-28.5 -47.5q-10 -24 -20 -35.5t-33 -11.5q-26 0 -40.5 20.5z" />
    <glyph glyph-name="O" unicode="O" horiz-adv-x="1487" 
d="M270 154q-152 174 -152 522v41q0 348 152 522t474 174q321 0 473 -174t152 -522v-41q0 -347 -151.5 -521.5t-473.5 -174.5t-474 174zM1001 186.5q97 57.5 141 177.5t44 312v41q0 192 -44 312t-141 178.5t-257 58.5q-161 0 -258 -58.5t-141 -178.5t-44 -312v-41
q0 -192 44 -312t141 -177.5t258 -57.5q160 0 257 57.5z" />
    <glyph glyph-name="Oacute" unicode="&#xd3;" horiz-adv-x="1487" 
d="M118 0zM270 154q-152 174 -152 522v41q0 348 152 522t474 174q321 0 473 -174t152 -522v-41q0 -347 -151.5 -521.5t-473.5 -174.5t-474 174zM1001 186.5q97 57.5 141 177.5t44 312v41q0 192 -44 312t-141 178.5t-257 58.5q-161 0 -258 -58.5t-141 -178.5t-44 -312v-41
q0 -192 44 -312t141 -177.5t258 -57.5q160 0 257 57.5zM663.5 1517q-11.5 9 -11.5 24q0 21 24 46l127 137q18 20 36 29.5t43 9.5h45q25 0 40 -11t15 -28q0 -21 -20 -40l-107 -104q-43 -40 -69.5 -56t-55.5 -16h-35q-20 0 -31.5 9z" />
    <glyph glyph-name="Ocircumflex" unicode="&#xd4;" horiz-adv-x="1487" 
d="M118 0zM270 154q-152 174 -152 522v41q0 348 152 522t474 174q321 0 473 -174t152 -522v-41q0 -347 -151.5 -521.5t-473.5 -174.5t-474 174zM1001 186.5q97 57.5 141 177.5t44 312v41q0 192 -44 312t-141 178.5t-257 58.5q-161 0 -258 -58.5t-141 -178.5t-44 -312v-41
q0 -192 44 -312t141 -177.5t258 -57.5q160 0 257 57.5zM1030 1540q0 -14 -12.5 -22.5t-35.5 -8.5h-15q-32 0 -53.5 8t-39.5 23.5t-57 55.5l-72 73l-73 -73q-7 -7 -37 -37.5t-53.5 -40t-55.5 -9.5h-15q-25 0 -38.5 9.5t-13.5 25.5q0 21 23 44l139 140q17 18 36 26.5t43 8.5
h89q47 0 79 -35l137 -140q25 -25 25 -48z" />
    <glyph glyph-name="Odieresis" unicode="&#xd6;" horiz-adv-x="1487" 
d="M118 0zM270 154q-152 174 -152 522v41q0 348 152 522t474 174q321 0 473 -174t152 -522v-41q0 -347 -151.5 -521.5t-473.5 -174.5t-474 174zM1001 186.5q97 57.5 141 177.5t44 312v41q0 192 -44 312t-141 178.5t-257 58.5q-161 0 -258 -58.5t-141 -178.5t-44 -312v-41
q0 -192 44 -312t141 -177.5t258 -57.5q160 0 257 57.5zM523.5 1560q-26.5 26 -26.5 70q0 43 26.5 69t69.5 26t70 -26t27 -69q0 -44 -27 -70t-70 -26t-69.5 26zM825.5 1560q-26.5 26 -26.5 70q0 43 26.5 69t69.5 26t70 -26t27 -69q0 -44 -27 -70t-70 -26t-69.5 26z" />
    <glyph glyph-name="Ograve" unicode="&#xd2;" horiz-adv-x="1487" 
d="M118 0zM270 154q-152 174 -152 522v41q0 348 152 522t474 174q321 0 473 -174t152 -522v-41q0 -347 -151.5 -521.5t-473.5 -174.5t-474 174zM1001 186.5q97 57.5 141 177.5t44 312v41q0 192 -44 312t-141 178.5t-257 58.5q-161 0 -258 -58.5t-141 -178.5t-44 -312v-41
q0 -192 44 -312t141 -177.5t258 -57.5q160 0 257 57.5zM756 1508q-30 0 -57.5 16t-68.5 56l-108 104q-20 19 -20 39q0 18 15 29t41 11h45q25 0 42.5 -9.5t35.5 -29.5l128 -137q24 -25 24 -47q0 -14 -11.5 -23t-30.5 -9h-35z" />
    <glyph glyph-name="Ohungarumlaut" unicode="&#x150;" horiz-adv-x="1487" 
d="M118 0zM270 154q-152 174 -152 522v41q0 348 152 522t474 174q321 0 473 -174t152 -522v-41q0 -347 -151.5 -521.5t-473.5 -174.5t-474 174zM1001 186.5q97 57.5 141 177.5t44 312v41q0 192 -44 312t-141 178.5t-257 58.5q-161 0 -258 -58.5t-141 -178.5t-44 -312v-41
q0 -192 44 -312t141 -177.5t258 -57.5q160 0 257 57.5zM567 1525q0 22 30 58l118 140q16 21 34.5 30.5t43.5 9.5h31q26 0 41 -11t15 -29q0 -20 -19 -39l-90 -91q-47 -48 -81 -68.5t-65 -20.5h-28q-30 0 -30 21zM844 1524q0 23 34 59l135 143q17 20 35.5 28.5t42.5 8.5h30
q26 0 41 -10.5t15 -27.5q0 -21 -23 -41l-107 -96q-51 -45 -85 -64.5t-64 -19.5h-29q-25 0 -25 20z" />
    <glyph glyph-name="Omacron" unicode="&#x14c;" horiz-adv-x="1487" 
d="M118 0zM270 154q-152 174 -152 522v41q0 348 152 522t474 174q321 0 473 -174t152 -522v-41q0 -347 -151.5 -521.5t-473.5 -174.5t-474 174zM1001 186.5q97 57.5 141 177.5t44 312v41q0 192 -44 312t-141 178.5t-257 58.5q-161 0 -258 -58.5t-141 -178.5t-44 -312v-41
q0 -192 44 -312t141 -177.5t258 -57.5q160 0 257 57.5zM461.5 1609q-11.5 13 -11.5 39v23q0 26 11.5 39t29.5 13h506q18 0 29.5 -13t11.5 -39v-23q0 -26 -11.5 -39t-29.5 -13h-506q-18 0 -29.5 13z" />
    <glyph glyph-name="Oslash" unicode="&#xd8;" horiz-adv-x="1487" 
d="M1308 1089q61 -151 61 -372v-41q0 -347 -151.5 -521.5t-473.5 -174.5q-137 0 -245 32l-42 -89q-11 -25 -30 -36t-47 -11h-21q-24 0 -37 10.5t-13 28.5q0 13 10 35l56 117q-131 79 -194 231t-63 378v41q0 348 152 522t474 174q143 0 254 -35l43 91q11 25 29.5 36t46.5 11
h15q27 0 41 -11t14 -31q0 -17 -8 -33l-57 -121q125 -80 186 -231zM335.5 392q34.5 -113 109.5 -176l487 1023q-80 27 -188 27q-161 0 -258 -58.5t-141 -178.5t-44 -312v-41q0 -171 34.5 -284zM1186 717q0 166 -32.5 277.5t-103.5 176.5l-484 -1019q78 -23 178 -23
q160 0 257 57.5t141 177.5t44 312v41z" />
    <glyph glyph-name="Otilde" unicode="&#xd5;" horiz-adv-x="1487" 
d="M118 0zM270 154q-152 174 -152 522v41q0 348 152 522t474 174q321 0 473 -174t152 -522v-41q0 -347 -151.5 -521.5t-473.5 -174.5t-474 174zM1001 186.5q97 57.5 141 177.5t44 312v41q0 192 -44 312t-141 178.5t-257 58.5q-161 0 -258 -58.5t-141 -178.5t-44 -312v-41
q0 -192 44 -312t141 -177.5t258 -57.5q160 0 257 57.5zM419.5 1561.5q-14.5 20.5 -14.5 52.5q0 39 22.5 76t67 60.5t107.5 23.5q58 0 96.5 -17t83.5 -50q33 -24 54.5 -34.5t48.5 -10.5q29 0 46 9t25 21.5t16 33.5q9 24 19 36t33 12q26 0 40.5 -21t14.5 -53q0 -39 -22 -75.5
t-66 -60t-106 -23.5q-52 0 -87 15.5t-76 45.5q-35 25 -61 37.5t-62 12.5q-41 0 -57.5 -16.5t-28.5 -47.5q-10 -24 -20 -35.5t-33 -11.5q-26 0 -40.5 20.5z" />
    <glyph glyph-name="OE" unicode="&#x152;" horiz-adv-x="2138" 
d="M1316 1213v-431h567q20 0 33 -14t13 -43v-24q0 -29 -13 -43.5t-33 -14.5h-567v-463q0 -37 47 -37h620q20 0 33 -14t13 -44v-26q0 -30 -13 -44.5t-33 -14.5h-643q-101 0 -147.5 38.5t-46.5 112.5v9q-45 -67 -142 -124t-266 -57q-319 0 -469.5 174.5t-150.5 522.5v41
q0 348 150.5 522t469.5 174q169 0 267 -51.5t141 -111.5q5 143 194 143h643q20 0 33 -14.5t13 -44.5v-26q0 -30 -13 -44.5t-33 -14.5h-620q-47 0 -47 -36zM1016.5 192.5q93.5 64.5 129.5 144.5v713q-39 81 -133 148.5t-267 67.5q-161 0 -258.5 -58t-142 -178.5t-44.5 -312.5
v-41q0 -193 44.5 -312.5t142 -177.5t258.5 -58q177 0 270.5 64.5z" />
    <glyph glyph-name="P" unicode="P" horiz-adv-x="1225" 
d="M936 1350q100 -43 145 -128t45 -214q0 -198 -110.5 -302.5t-341.5 -104.5h-360v-551q0 -50 -72 -50h-31q-37 0 -54.5 14t-17.5 36v1192q0 151 196 151h338q163 0 263 -43zM835 770q64 29 92 86.5t28 148.5q0 89 -27 142.5t-91.5 78.5t-178.5 25h-297q-47 0 -47 -36v-474
h350q107 0 171 29z" />
    <glyph glyph-name="Thorn" unicode="&#xde;" horiz-adv-x="1225" 
d="M936 1066q100 -43 145.5 -127.5t45.5 -213.5q0 -401 -453 -401h-360v-275q0 -49 -71 -49h-33q-37 0 -54 13.5t-17 35.5v1295q0 21 17 35t54 14h33q38 0 54.5 -13.5t16.5 -35.5v-235h360q162 0 262 -43zM836 488q64 29 92 86.5t28 148.5q0 90 -27 143.5t-91.5 79
t-178.5 25.5h-345v-512h351q107 0 171 29z" />
    <glyph glyph-name="Q" unicode="Q" horiz-adv-x="1486" 
d="M1899.5 -226.5q13.5 -14.5 13.5 -44.5v-37q0 -30 -13.5 -44.5t-33.5 -14.5h-89q-81 0 -164 25t-158.5 61t-187.5 97t-188 97.5t-160.5 61.5t-166.5 25h-8q-322 0 -474 172t-152 514v41q0 343 152 514.5t474 171.5q321 0 473 -171.5t152 -514.5v-41q0 -238 -73 -393.5
t-224 -228.5q69 -23 130 -51t159 -76q102 -51 169 -80t144.5 -49t158.5 -20h33q20 0 33.5 -14.5zM345 379q44 -118 141 -175t258 -57q160 0 257 57t141 175t44 307v41q0 189 -44 307.5t-141 176t-257 57.5t-257.5 -57.5t-141.5 -176t-44 -307.5v-41q0 -189 44 -307z" />
    <glyph glyph-name="R" unicode="R" horiz-adv-x="1256" 
d="M1148 26q0 -12 -12.5 -19t-38.5 -7h-60q-69 0 -96 48l-237 426q-26 45 -49 73t-55.5 44t-80.5 18h-205v-559q0 -50 -74 -50h-29q-37 0 -54.5 14t-17.5 36v1192q0 151 196 151h340q163 0 263 -43t145 -127t45 -214q0 -347 -364 -384q66 -43 111 -120l266 -457q7 -14 7 -22
zM666 741q107 0 171 29t92.5 86.5t28.5 148.5q0 90 -27.5 143.5t-92 79t-178.5 25.5h-299q-47 0 -47 -36v-476h352z" />
    <glyph glyph-name="Racute" unicode="&#x154;" horiz-adv-x="1256" 
d="M139 0zM1148 26q0 -12 -12.5 -19t-38.5 -7h-60q-69 0 -96 48l-237 426q-26 45 -49 73t-55.5 44t-80.5 18h-205v-559q0 -50 -74 -50h-29q-37 0 -54.5 14t-17.5 36v1192q0 151 196 151h340q163 0 263 -43t145 -127t45 -214q0 -347 -364 -384q66 -43 111 -120l266 -457
q7 -14 7 -22zM666 741q107 0 171 29t92.5 86.5t28.5 148.5q0 90 -27.5 143.5t-92 79t-178.5 25.5h-299q-47 0 -47 -36v-476h352zM514.5 1517q-11.5 9 -11.5 24q0 21 24 46l127 137q18 20 36 29.5t43 9.5h45q25 0 40 -11t15 -28q0 -21 -20 -40l-107 -104q-43 -40 -69.5 -56
t-55.5 -16h-35q-20 0 -31.5 9z" />
    <glyph glyph-name="Rcaron" unicode="&#x158;" horiz-adv-x="1256" 
d="M139 0zM1148 26q0 -12 -12.5 -19t-38.5 -7h-60q-69 0 -96 48l-237 426q-26 45 -49 73t-55.5 44t-80.5 18h-205v-559q0 -50 -74 -50h-29q-37 0 -54.5 14t-17.5 36v1192q0 151 196 151h340q163 0 263 -43t145 -127t45 -214q0 -347 -364 -384q66 -43 111 -120l266 -457
q7 -14 7 -22zM666 741q107 0 171 29t92.5 86.5t28.5 148.5q0 90 -27.5 143.5t-92 79t-178.5 25.5h-299q-47 0 -47 -36v-476h352zM868.5 1754.5q12.5 -8.5 12.5 -23.5q0 -22 -25 -47l-137 -140q-32 -35 -79 -35h-89q-24 0 -43 8.5t-36 26.5l-139 140q-23 23 -23 44
q0 16 13.5 25.5t38.5 9.5h15q29 0 48.5 -7t35.5 -20.5t46 -44.5l16 -16l73 -73l72 73q39 40 57 56t39.5 24t53.5 8h15q23 0 35.5 -8.5z" />
    <glyph glyph-name="Rcommaaccent" unicode="&#x156;" horiz-adv-x="1256" 
d="M139 0zM1148 26q0 -12 -12.5 -19t-38.5 -7h-60q-69 0 -96 48l-237 426q-26 45 -49 73t-55.5 44t-80.5 18h-205v-559q0 -50 -74 -50h-29q-37 0 -54.5 14t-17.5 36v1192q0 151 196 151h340q163 0 263 -43t145 -127t45 -214q0 -347 -364 -384q66 -43 111 -120l266 -457
q7 -14 7 -22zM666 741q107 0 171 29t92.5 86.5t28.5 148.5q0 90 -27.5 143.5t-92 79t-178.5 25.5h-299q-47 0 -47 -36v-476h352zM473 -411q-11 11 -11 31q0 11 5 29l62 191q8 25 26.5 39.5t45.5 14.5h33q27 0 42 -12t15 -33q0 -13 -6 -28l-55 -150q-19 -49 -36.5 -71
t-45.5 -22h-46q-18 0 -29 11z" />
    <glyph glyph-name="S" unicode="S" horiz-adv-x="1299" 
d="M272 44l-111 41q-17 6 -24.5 14t-7.5 21q0 10 3 20l21 58q5 18 12 26t19 8q8 0 23 -5l106 -37q165 -59 332 -59q164 0 247 59.5t83 168.5q0 58 -25 95t-76 63.5t-148 60.5l-203 71q-125 43 -201.5 87t-119.5 113t-43 174q0 117 57 205.5t165 136.5t256 48q177 0 338 -59
l96 -36q31 -12 31 -34q0 -8 -3 -17l-19 -59q-5 -18 -12 -25.5t-18 -7.5q-9 0 -20 4l-92 34q-149 52 -292 52q-158 0 -235.5 -60.5t-77.5 -167.5q0 -65 25.5 -105.5t75 -66.5t141.5 -58l203 -71q138 -47 216.5 -91.5t117.5 -109.5t39 -166q0 -123 -59 -210.5t-171.5 -133
t-272.5 -45.5q-193 0 -376 64z" />
    <glyph glyph-name="Sacute" unicode="&#x15a;" horiz-adv-x="1299" 
d="M129 0zM272 44l-111 41q-17 6 -24.5 14t-7.5 21q0 10 3 20l21 58q5 18 12 26t19 8q8 0 23 -5l106 -37q165 -59 332 -59q164 0 247 59.5t83 168.5q0 58 -25 95t-76 63.5t-148 60.5l-203 71q-125 43 -201.5 87t-119.5 113t-43 174q0 117 57 205.5t165 136.5t256 48
q177 0 338 -59l96 -36q31 -12 31 -34q0 -8 -3 -17l-19 -59q-5 -18 -12 -25.5t-18 -7.5q-9 0 -20 4l-92 34q-149 52 -292 52q-158 0 -235.5 -60.5t-77.5 -167.5q0 -65 25.5 -105.5t75 -66.5t141.5 -58l203 -71q138 -47 216.5 -91.5t117.5 -109.5t39 -166q0 -123 -59 -210.5
t-171.5 -133t-272.5 -45.5q-193 0 -376 64zM595.5 1517q-11.5 9 -11.5 24q0 21 24 46l127 137q18 20 36 29.5t43 9.5h45q25 0 40 -11t15 -28q0 -21 -20 -40l-107 -104q-43 -40 -69.5 -56t-55.5 -16h-35q-20 0 -31.5 9z" />
    <glyph glyph-name="Scaron" unicode="&#x160;" horiz-adv-x="1299" 
d="M129 0zM272 44l-111 41q-17 6 -24.5 14t-7.5 21q0 10 3 20l21 58q5 18 12 26t19 8q8 0 23 -5l106 -37q165 -59 332 -59q164 0 247 59.5t83 168.5q0 58 -25 95t-76 63.5t-148 60.5l-203 71q-125 43 -201.5 87t-119.5 113t-43 174q0 117 57 205.5t165 136.5t256 48
q177 0 338 -59l96 -36q31 -12 31 -34q0 -8 -3 -17l-19 -59q-5 -18 -12 -25.5t-18 -7.5q-9 0 -20 4l-92 34q-149 52 -292 52q-158 0 -235.5 -60.5t-77.5 -167.5q0 -65 25.5 -105.5t75 -66.5t141.5 -58l203 -71q138 -47 216.5 -91.5t117.5 -109.5t39 -166q0 -123 -59 -210.5
t-171.5 -133t-272.5 -45.5q-193 0 -376 64zM949.5 1754.5q12.5 -8.5 12.5 -23.5q0 -22 -25 -47l-137 -140q-32 -35 -79 -35h-89q-24 0 -43 8.5t-36 26.5l-139 140q-23 23 -23 44q0 16 13.5 25.5t38.5 9.5h15q29 0 48.5 -7t35.5 -20.5t46 -44.5l16 -16l73 -73l72 73
q39 40 57 56t39.5 24t53.5 8h15q23 0 35.5 -8.5z" />
    <glyph glyph-name="Scedilla" unicode="&#x15e;" horiz-adv-x="1299" 
d="M695 -40q-5 -8 -8.5 -16.5t-3.5 -16.5q0 -18 16 -27.5t49 -18.5q38 -10 63 -22t43 -39t18 -73q0 -73 -61.5 -115t-175.5 -42q-59 0 -109 19.5t-79.5 48.5t-29.5 57q0 16 8 25t22 9q10 0 20.5 -4.5t27.5 -13.5q32 -18 63.5 -29t76.5 -11q109 0 109 61q0 27 -20 40t-61 25
q-31 10 -49 18t-31 23.5t-13 41.5q0 15 5.5 27t16.5 30l14 24q-170 7 -334 63l-111 41q-17 6 -24.5 14t-7.5 21q0 10 3 20l21 58q5 18 12 26t19 8q8 0 23 -5l106 -37q165 -59 332 -59q164 0 247 59.5t83 168.5q0 58 -25 95t-76 63.5t-148 60.5l-203 71q-125 43 -201.5 87
t-119.5 113t-43 174q0 117 57 205.5t165 136.5t256 48q177 0 338 -59l96 -36q31 -12 31 -34q0 -8 -3 -17l-19 -59q-5 -18 -12 -25.5t-18 -7.5q-9 0 -20 4l-92 34q-149 52 -292 52q-158 0 -235.5 -60.5t-77.5 -167.5q0 -65 25.5 -105.5t75 -66.5t141.5 -58l203 -71
q138 -47 216.5 -91.5t117.5 -109.5t39 -166q0 -174 -115 -274.5t-328 -112.5z" />
    <glyph glyph-name="Scommaaccent" unicode="&#x218;" horiz-adv-x="1299" 
d="M129 0zM272 44l-111 41q-17 6 -24.5 14t-7.5 21q0 10 3 20l21 58q5 18 12 26t19 8q8 0 23 -5l106 -37q165 -59 332 -59q164 0 247 59.5t83 168.5q0 58 -25 95t-76 63.5t-148 60.5l-203 71q-125 43 -201.5 87t-119.5 113t-43 174q0 117 57 205.5t165 136.5t256 48
q177 0 338 -59l96 -36q31 -12 31 -34q0 -8 -3 -17l-19 -59q-5 -18 -12 -25.5t-18 -7.5q-9 0 -20 4l-92 34q-149 52 -292 52q-158 0 -235.5 -60.5t-77.5 -167.5q0 -65 25.5 -105.5t75 -66.5t141.5 -58l203 -71q138 -47 216.5 -91.5t117.5 -109.5t39 -166q0 -123 -59 -210.5
t-171.5 -133t-272.5 -45.5q-193 0 -376 64zM521 -411q-11 11 -11 31q0 11 5 29l62 191q8 25 26.5 39.5t45.5 14.5h33q27 0 42 -12t15 -33q0 -13 -6 -28l-55 -150q-19 -49 -36.5 -71t-45.5 -22h-46q-18 0 -29 11z" />
    <glyph glyph-name="T" unicode="T" horiz-adv-x="1244" 
d="M536 50v1199h-420q-20 0 -33 14.5t-13 44.5v26q0 30 13 44.5t33 14.5h1012q20 0 33 -14.5t13 -44.5v-26q0 -30 -13 -44.5t-33 -14.5h-420v-1199q0 -22 -17 -36t-55 -14h-28q-72 0 -72 50z" />
    <glyph glyph-name="Tbar" unicode="&#x166;" horiz-adv-x="1244" 
d="M1161 1378.5q13 -14.5 13 -44.5v-26q0 -30 -13 -44.5t-33 -14.5h-420v-467h249q26 0 40.5 -14t14.5 -41v-28q0 -27 -14.5 -41.5t-40.5 -14.5h-249v-593q0 -22 -17 -36t-55 -14h-28q-72 0 -72 50v593h-238q-26 0 -40 14.5t-14 41.5v28q0 27 14 41t40 14h238v467h-420
q-20 0 -33 14.5t-13 44.5v26q0 30 13 44.5t33 14.5h1012q20 0 33 -14.5z" />
    <glyph glyph-name="Tcaron" unicode="&#x164;" horiz-adv-x="1244" 
d="M70 0zM536 50v1199h-420q-20 0 -33 14.5t-13 44.5v26q0 30 13 44.5t33 14.5h1012q20 0 33 -14.5t13 -44.5v-26q0 -30 -13 -44.5t-33 -14.5h-420v-1199q0 -22 -17 -36t-55 -14h-28q-72 0 -72 50zM896.5 1754.5q12.5 -8.5 12.5 -23.5q0 -22 -25 -47l-137 -140
q-32 -35 -79 -35h-89q-24 0 -43 8.5t-36 26.5l-139 140q-23 23 -23 44q0 16 13.5 25.5t38.5 9.5h15q29 0 48.5 -7t35.5 -20.5t46 -44.5l16 -16l73 -73l72 73q39 40 57 56t39.5 24t53.5 8h15q23 0 35.5 -8.5z" />
    <glyph glyph-name="uni0162" unicode="&#x162;" horiz-adv-x="1244" 
d="M1161 1378.5q13 -14.5 13 -44.5v-26q0 -30 -13 -44.5t-33 -14.5h-420v-1199q0 -37 -39 -46l-26 -44q-5 -8 -8.5 -16.5t-3.5 -16.5q0 -18 16 -27.5t49 -18.5q38 -10 63 -22t43 -39t18 -73q0 -73 -61.5 -115t-175.5 -42q-59 0 -109 19.5t-79.5 48.5t-29.5 57q0 16 8 25
t22 9q10 0 20.5 -4.5t27.5 -13.5q32 -18 63.5 -29t76.5 -11q109 0 109 61q0 27 -20 40t-61 25q-31 10 -49 18t-31 23.5t-13 41.5q0 15 5.5 27t16.5 30l29 48q-33 12 -33 45v1199h-420q-20 0 -33 14.5t-13 44.5v26q0 30 13 44.5t33 14.5h1012q20 0 33 -14.5z" />
    <glyph glyph-name="uni021A" unicode="&#x21a;" horiz-adv-x="1244" 
d="M70 0zM536 50v1199h-420q-20 0 -33 14.5t-13 44.5v26q0 30 13 44.5t33 14.5h1012q20 0 33 -14.5t13 -44.5v-26q0 -30 -13 -44.5t-33 -14.5h-420v-1199q0 -22 -17 -36t-55 -14h-28q-72 0 -72 50zM469 -411q-11 11 -11 31q0 11 5 29l62 191q8 25 26.5 39.5t45.5 14.5h33
q27 0 42 -12t15 -33q0 -13 -6 -28l-55 -150q-19 -49 -36.5 -71t-45.5 -22h-46q-18 0 -29 11z" />
    <glyph glyph-name="U" unicode="U" horiz-adv-x="1312" 
d="M254.5 115.5q-125.5 135.5 -125.5 405.5v822q0 22 17.5 36t54.5 14h31q38 0 55 -14t17 -36v-822q0 -135 35 -220.5t112.5 -127.5t206.5 -42t205 39t110.5 124t34.5 227v822q0 22 17.5 36t54.5 14h31q72 0 72 -50v-822q0 -270 -126 -405.5t-401 -135.5
q-276 0 -401.5 135.5z" />
    <glyph glyph-name="Uacute" unicode="&#xda;" horiz-adv-x="1312" 
d="M129 0zM254.5 115.5q-125.5 135.5 -125.5 405.5v822q0 22 17.5 36t54.5 14h31q38 0 55 -14t17 -36v-822q0 -135 35 -220.5t112.5 -127.5t206.5 -42t205 39t110.5 124t34.5 227v822q0 22 17.5 36t54.5 14h31q72 0 72 -50v-822q0 -270 -126 -405.5t-401 -135.5
q-276 0 -401.5 135.5zM575.5 1517q-11.5 9 -11.5 24q0 21 24 46l127 137q18 20 36 29.5t43 9.5h45q25 0 40 -11t15 -28q0 -21 -20 -40l-107 -104q-43 -40 -69.5 -56t-55.5 -16h-35q-20 0 -31.5 9z" />
    <glyph glyph-name="Ucircumflex" unicode="&#xdb;" horiz-adv-x="1312" 
d="M129 0zM254.5 115.5q-125.5 135.5 -125.5 405.5v822q0 22 17.5 36t54.5 14h31q38 0 55 -14t17 -36v-822q0 -135 35 -220.5t112.5 -127.5t206.5 -42t205 39t110.5 124t34.5 227v822q0 22 17.5 36t54.5 14h31q72 0 72 -50v-822q0 -270 -126 -405.5t-401 -135.5
q-276 0 -401.5 135.5zM942 1540q0 -14 -12.5 -22.5t-35.5 -8.5h-15q-32 0 -53.5 8t-39.5 23.5t-57 55.5l-72 73l-73 -73q-7 -7 -37 -37.5t-53.5 -40t-55.5 -9.5h-15q-25 0 -38.5 9.5t-13.5 25.5q0 21 23 44l139 140q17 18 36 26.5t43 8.5h89q47 0 79 -35l137 -140
q25 -25 25 -48z" />
    <glyph glyph-name="Udieresis" unicode="&#xdc;" horiz-adv-x="1312" 
d="M129 0zM254.5 115.5q-125.5 135.5 -125.5 405.5v822q0 22 17.5 36t54.5 14h31q38 0 55 -14t17 -36v-822q0 -135 35 -220.5t112.5 -127.5t206.5 -42t205 39t110.5 124t34.5 227v822q0 22 17.5 36t54.5 14h31q72 0 72 -50v-822q0 -270 -126 -405.5t-401 -135.5
q-276 0 -401.5 135.5zM435.5 1560q-26.5 26 -26.5 70q0 43 26.5 69t69.5 26t70 -26t27 -69q0 -44 -27 -70t-70 -26t-69.5 26zM737.5 1560q-26.5 26 -26.5 70q0 43 26.5 69t69.5 26t70 -26t27 -69q0 -44 -27 -70t-70 -26t-69.5 26z" />
    <glyph glyph-name="Ugrave" unicode="&#xd9;" horiz-adv-x="1312" 
d="M129 0zM254.5 115.5q-125.5 135.5 -125.5 405.5v822q0 22 17.5 36t54.5 14h31q38 0 55 -14t17 -36v-822q0 -135 35 -220.5t112.5 -127.5t206.5 -42t205 39t110.5 124t34.5 227v822q0 22 17.5 36t54.5 14h31q72 0 72 -50v-822q0 -270 -126 -405.5t-401 -135.5
q-276 0 -401.5 135.5zM668 1508q-30 0 -57.5 16t-68.5 56l-108 104q-20 19 -20 39q0 18 15 29t41 11h45q25 0 42.5 -9.5t35.5 -29.5l128 -137q24 -25 24 -47q0 -14 -11.5 -23t-30.5 -9h-35z" />
    <glyph glyph-name="Uhungarumlaut" unicode="&#x170;" horiz-adv-x="1312" 
d="M129 0zM254.5 115.5q-125.5 135.5 -125.5 405.5v822q0 22 17.5 36t54.5 14h31q38 0 55 -14t17 -36v-822q0 -135 35 -220.5t112.5 -127.5t206.5 -42t205 39t110.5 124t34.5 227v822q0 22 17.5 36t54.5 14h31q72 0 72 -50v-822q0 -270 -126 -405.5t-401 -135.5
q-276 0 -401.5 135.5zM479 1525q0 22 30 58l118 140q16 21 34.5 30.5t43.5 9.5h31q26 0 41 -11t15 -29q0 -20 -19 -39l-90 -91q-47 -48 -81 -68.5t-65 -20.5h-28q-30 0 -30 21zM756 1524q0 23 34 59l135 143q17 20 35.5 28.5t42.5 8.5h30q26 0 41 -10.5t15 -27.5
q0 -21 -23 -41l-107 -96q-51 -45 -85 -64.5t-64 -19.5h-29q-25 0 -25 20z" />
    <glyph glyph-name="Umacron" unicode="&#x16a;" horiz-adv-x="1312" 
d="M129 0zM254.5 115.5q-125.5 135.5 -125.5 405.5v822q0 22 17.5 36t54.5 14h31q38 0 55 -14t17 -36v-822q0 -135 35 -220.5t112.5 -127.5t206.5 -42t205 39t110.5 124t34.5 227v822q0 22 17.5 36t54.5 14h31q72 0 72 -50v-822q0 -270 -126 -405.5t-401 -135.5
q-276 0 -401.5 135.5zM373.5 1609q-11.5 13 -11.5 39v23q0 26 11.5 39t29.5 13h506q18 0 29.5 -13t11.5 -39v-23q0 -26 -11.5 -39t-29.5 -13h-506q-18 0 -29.5 13z" />
    <glyph glyph-name="Uogonek" unicode="&#x172;" horiz-adv-x="1312" 
d="M1183 1343v-822q0 -218 -81 -348t-255 -172v-1q-68 -22 -116 -68t-48 -102q0 -65 74 -65q32 0 56.5 8t53.5 22q32 16 47 16q14 0 22 -9t8 -25q0 -29 -29.5 -56.5t-80 -45.5t-109.5 -18q-81 0 -129 37t-48 105q0 56 37.5 103.5t93.5 77.5h-23q-276 0 -401.5 135.5
t-125.5 405.5v822q0 22 17.5 36t54.5 14h31q38 0 55 -14t17 -36v-822q0 -135 35 -220.5t112.5 -127.5t206.5 -42t205 39t110.5 124t34.5 227v822q0 22 17.5 36t54.5 14h31q72 0 72 -50z" />
    <glyph glyph-name="Uring" unicode="&#x16e;" horiz-adv-x="1312" 
d="M129 0zM254.5 115.5q-125.5 135.5 -125.5 405.5v822q0 22 17.5 36t54.5 14h31q38 0 55 -14t17 -36v-822q0 -135 35 -220.5t112.5 -127.5t206.5 -42t205 39t110.5 124t34.5 227v822q0 22 17.5 36t54.5 14h31q72 0 72 -50v-822q0 -270 -126 -405.5t-401 -135.5
q-276 0 -401.5 135.5zM543.5 1490q-47.5 26 -73.5 70.5t-26 100.5q0 55 26 100t73.5 71t110.5 26q65 0 113 -26t74 -71t26 -100q0 -56 -26 -100.5t-74 -70.5t-113 -26q-63 0 -110.5 26zM741.5 1579.5q32.5 32.5 32.5 82.5q0 47 -33 79.5t-83 32.5t-82 -32.5t-32 -79.5
q0 -51 31.5 -83t82.5 -32t83.5 32.5z" />
    <glyph glyph-name="V" unicode="V" horiz-adv-x="1390" 
d="M1278 1383.5q14 -9.5 14 -25.5q0 -8 -3 -16l-437 -1222q-23 -65 -55.5 -92.5t-97.5 -27.5h-21q-58 0 -92 28.5t-55 90.5l-430 1223q-2 10 -2 14q0 17 14 27t45 10h49q37 0 58.5 -14.5t28.5 -36.5l382 -1176q5 -16 18 -16t18 16l395 1176q7 22 30 36.5t60 14.5h37
q30 0 44 -9.5z" />
    <glyph glyph-name="W" unicode="W" horiz-adv-x="1896" 
d="M430.5 28q-32.5 28 -42.5 75l-278 1239q-2 10 -2 14q0 37 56 37h42q36 0 59 -14.5t27 -36.5l236 -1170q2 -16 18 -16q8 0 11.5 3t6.5 13l292 1170q5 22 25 36.5t56 14.5h30q35 0 55.5 -14.5t25.5 -36.5l299 -1170q3 -10 7 -13t11 -3q17 0 18 16l236 1170q3 22 23 36.5
t56 14.5h36q54 0 54 -35q0 -11 -2 -16l-280 -1239q-10 -47 -42 -75t-88 -28h-30q-53 0 -85.5 28.5t-42.5 75.5l-271 1044l-265 -1044q-11 -47 -44 -75.5t-88 -28.5h-30q-57 0 -89.5 28z" />
    <glyph glyph-name="Wacute" unicode="&#x1e82;" horiz-adv-x="1896" 
d="M108 0zM430.5 28q-32.5 28 -42.5 75l-278 1239q-2 10 -2 14q0 37 56 37h42q36 0 59 -14.5t27 -36.5l236 -1170q2 -16 18 -16q8 0 11.5 3t6.5 13l292 1170q5 22 25 36.5t56 14.5h30q35 0 55.5 -14.5t25.5 -36.5l299 -1170q3 -10 7 -13t11 -3q17 0 18 16l236 1170
q3 22 23 36.5t56 14.5h36q54 0 54 -35q0 -11 -2 -16l-280 -1239q-10 -47 -42 -75t-88 -28h-30q-53 0 -85.5 28.5t-42.5 75.5l-271 1044l-265 -1044q-11 -47 -44 -75.5t-88 -28.5h-30q-57 0 -89.5 28zM881.5 1517q-11.5 9 -11.5 24q0 21 24 46l127 137q18 20 36 29.5t43 9.5
h45q25 0 40 -11t15 -28q0 -21 -20 -40l-107 -104q-43 -40 -69.5 -56t-55.5 -16h-35q-20 0 -31.5 9z" />
    <glyph glyph-name="Wcircumflex" unicode="&#x174;" horiz-adv-x="1896" 
d="M108 0zM430.5 28q-32.5 28 -42.5 75l-278 1239q-2 10 -2 14q0 37 56 37h42q36 0 59 -14.5t27 -36.5l236 -1170q2 -16 18 -16q8 0 11.5 3t6.5 13l292 1170q5 22 25 36.5t56 14.5h30q35 0 55.5 -14.5t25.5 -36.5l299 -1170q3 -10 7 -13t11 -3q17 0 18 16l236 1170
q3 22 23 36.5t56 14.5h36q54 0 54 -35q0 -11 -2 -16l-280 -1239q-10 -47 -42 -75t-88 -28h-30q-53 0 -85.5 28.5t-42.5 75.5l-271 1044l-265 -1044q-11 -47 -44 -75.5t-88 -28.5h-30q-57 0 -89.5 28zM1248 1540q0 -14 -12.5 -22.5t-35.5 -8.5h-15q-32 0 -53.5 8t-39.5 23.5
t-57 55.5l-72 73l-73 -73q-7 -7 -37 -37.5t-53.5 -40t-55.5 -9.5h-15q-25 0 -38.5 9.5t-13.5 25.5q0 21 23 44l139 140q17 18 36 26.5t43 8.5h89q47 0 79 -35l137 -140q25 -25 25 -48z" />
    <glyph glyph-name="Wdieresis" unicode="&#x1e84;" horiz-adv-x="1896" 
d="M108 0zM430.5 28q-32.5 28 -42.5 75l-278 1239q-2 10 -2 14q0 37 56 37h42q36 0 59 -14.5t27 -36.5l236 -1170q2 -16 18 -16q8 0 11.5 3t6.5 13l292 1170q5 22 25 36.5t56 14.5h30q35 0 55.5 -14.5t25.5 -36.5l299 -1170q3 -10 7 -13t11 -3q17 0 18 16l236 1170
q3 22 23 36.5t56 14.5h36q54 0 54 -35q0 -11 -2 -16l-280 -1239q-10 -47 -42 -75t-88 -28h-30q-53 0 -85.5 28.5t-42.5 75.5l-271 1044l-265 -1044q-11 -47 -44 -75.5t-88 -28.5h-30q-57 0 -89.5 28zM741.5 1560q-26.5 26 -26.5 70q0 43 26.5 69t69.5 26t70 -26t27 -69
q0 -44 -27 -70t-70 -26t-69.5 26zM1043.5 1560q-26.5 26 -26.5 70q0 43 26.5 69t69.5 26t70 -26t27 -69q0 -44 -27 -70t-70 -26t-69.5 26z" />
    <glyph glyph-name="Wgrave" unicode="&#x1e80;" horiz-adv-x="1896" 
d="M108 0zM430.5 28q-32.5 28 -42.5 75l-278 1239q-2 10 -2 14q0 37 56 37h42q36 0 59 -14.5t27 -36.5l236 -1170q2 -16 18 -16q8 0 11.5 3t6.5 13l292 1170q5 22 25 36.5t56 14.5h30q35 0 55.5 -14.5t25.5 -36.5l299 -1170q3 -10 7 -13t11 -3q17 0 18 16l236 1170
q3 22 23 36.5t56 14.5h36q54 0 54 -35q0 -11 -2 -16l-280 -1239q-10 -47 -42 -75t-88 -28h-30q-53 0 -85.5 28.5t-42.5 75.5l-271 1044l-265 -1044q-11 -47 -44 -75.5t-88 -28.5h-30q-57 0 -89.5 28zM974 1508q-30 0 -57.5 16t-68.5 56l-108 104q-20 19 -20 39q0 18 15 29
t41 11h45q25 0 42.5 -9.5t35.5 -29.5l128 -137q24 -25 24 -47q0 -14 -11.5 -23t-30.5 -9h-35z" />
    <glyph glyph-name="X" unicode="X" horiz-adv-x="1338" 
d="M1230 34q0 -15 -15.5 -24.5t-43.5 -9.5h-68q-34 0 -51.5 12t-33.5 36l-358 545l-358 -545q-14 -23 -32.5 -35.5t-53.5 -12.5h-48q-28 0 -43.5 9t-15.5 24q0 10 6 19l438 645l-435 644q-6 9 -6 18q0 14 16 24t43 10h70q35 0 52.5 -12.5t30.5 -35.5l351 -536l351 536
q14 23 32 35.5t52 12.5h51q28 0 43.5 -10t15.5 -24q0 -9 -6 -18l-435 -636l445 -653q6 -9 6 -18z" />
    <glyph glyph-name="Y" unicode="Y" horiz-adv-x="1351" 
d="M610.5 14q-17.5 14 -17.5 36v542l-490 749q-5 10 -5 17q0 15 15 25t43 10h69q34 0 51.5 -12.5t31.5 -35.5l381 -610l372 610q13 24 30.5 36t52.5 12h51q28 0 43 -10t15 -25q0 -7 -5 -17l-480 -741v-550q0 -50 -72 -50h-31q-37 0 -54.5 14z" />
    <glyph glyph-name="Yacute" unicode="&#xdd;" horiz-adv-x="1351" 
d="M98 0zM610.5 14q-17.5 14 -17.5 36v542l-490 749q-5 10 -5 17q0 15 15 25t43 10h69q34 0 51.5 -12.5t31.5 -35.5l381 -610l372 610q13 24 30.5 36t52.5 12h51q28 0 43 -10t15 -25q0 -7 -5 -17l-480 -741v-550q0 -50 -72 -50h-31q-37 0 -54.5 14zM608.5 1517
q-11.5 9 -11.5 24q0 21 24 46l127 137q18 20 36 29.5t43 9.5h45q25 0 40 -11t15 -28q0 -21 -20 -40l-107 -104q-43 -40 -69.5 -56t-55.5 -16h-35q-20 0 -31.5 9z" />
    <glyph glyph-name="Ycircumflex" unicode="&#x176;" horiz-adv-x="1351" 
d="M98 0zM610.5 14q-17.5 14 -17.5 36v542l-490 749q-5 10 -5 17q0 15 15 25t43 10h69q34 0 51.5 -12.5t31.5 -35.5l381 -610l372 610q13 24 30.5 36t52.5 12h51q28 0 43 -10t15 -25q0 -7 -5 -17l-480 -741v-550q0 -50 -72 -50h-31q-37 0 -54.5 14zM975 1540
q0 -14 -12.5 -22.5t-35.5 -8.5h-15q-32 0 -53.5 8t-39.5 23.5t-57 55.5l-72 73l-73 -73q-7 -7 -37 -37.5t-53.5 -40t-55.5 -9.5h-15q-25 0 -38.5 9.5t-13.5 25.5q0 21 23 44l139 140q17 18 36 26.5t43 8.5h89q47 0 79 -35l137 -140q25 -25 25 -48z" />
    <glyph glyph-name="Ydieresis" unicode="&#x178;" horiz-adv-x="1351" 
d="M98 0zM610.5 14q-17.5 14 -17.5 36v542l-490 749q-5 10 -5 17q0 15 15 25t43 10h69q34 0 51.5 -12.5t31.5 -35.5l381 -610l372 610q13 24 30.5 36t52.5 12h51q28 0 43 -10t15 -25q0 -7 -5 -17l-480 -741v-550q0 -50 -72 -50h-31q-37 0 -54.5 14zM468.5 1560
q-26.5 26 -26.5 70q0 43 26.5 69t69.5 26t70 -26t27 -69q0 -44 -27 -70t-70 -26t-69.5 26zM770.5 1560q-26.5 26 -26.5 70q0 43 26.5 69t69.5 26t70 -26t27 -69q0 -44 -27 -70t-70 -26t-69.5 26z" />
    <glyph glyph-name="Ygrave" unicode="&#x1ef2;" horiz-adv-x="1351" 
d="M98 0zM610.5 14q-17.5 14 -17.5 36v542l-490 749q-5 10 -5 17q0 15 15 25t43 10h69q34 0 51.5 -12.5t31.5 -35.5l381 -610l372 610q13 24 30.5 36t52.5 12h51q28 0 43 -10t15 -25q0 -7 -5 -17l-480 -741v-550q0 -50 -72 -50h-31q-37 0 -54.5 14zM701 1508q-30 0 -57.5 16
t-68.5 56l-108 104q-20 19 -20 39q0 18 15 29t41 11h45q25 0 42.5 -9.5t35.5 -29.5l128 -137q24 -25 24 -47q0 -14 -11.5 -23t-30.5 -9h-35z" />
    <glyph glyph-name="Z" unicode="Z" horiz-adv-x="1201" 
d="M120 27.5q-30 27.5 -30 78.5q0 35 11 62t40 66l742 983q7 8 7 18q0 17 -22 17h-723q-21 0 -34 14t-13 44v26q0 30 13 43.5t34 13.5h832q52 0 82.5 -28t30.5 -79q0 -35 -11 -62t-40 -65l-741 -984q-8 -11 -8 -19q0 -7 5 -11t15 -4h755q20 0 33 -14.5t13 -44.5v-26
q0 -28 -13 -42t-33 -14h-864q-51 0 -81 27.5z" />
    <glyph glyph-name="Zacute" unicode="&#x179;" horiz-adv-x="1201" 
d="M90 0zM120 27.5q-30 27.5 -30 78.5q0 35 11 62t40 66l742 983q7 8 7 18q0 17 -22 17h-723q-21 0 -34 14t-13 44v26q0 30 13 43.5t34 13.5h832q52 0 82.5 -28t30.5 -79q0 -35 -11 -62t-40 -65l-741 -984q-8 -11 -8 -19q0 -7 5 -11t15 -4h755q20 0 33 -14.5t13 -44.5v-26
q0 -28 -13 -42t-33 -14h-864q-51 0 -81 27.5zM530.5 1517q-11.5 9 -11.5 24q0 21 24 46l127 137q18 20 36 29.5t43 9.5h45q25 0 40 -11t15 -28q0 -21 -20 -40l-107 -104q-43 -40 -69.5 -56t-55.5 -16h-35q-20 0 -31.5 9z" />
    <glyph glyph-name="Zcaron" unicode="&#x17d;" horiz-adv-x="1201" 
d="M90 0zM120 27.5q-30 27.5 -30 78.5q0 35 11 62t40 66l742 983q7 8 7 18q0 17 -22 17h-723q-21 0 -34 14t-13 44v26q0 30 13 43.5t34 13.5h832q52 0 82.5 -28t30.5 -79q0 -35 -11 -62t-40 -65l-741 -984q-8 -11 -8 -19q0 -7 5 -11t15 -4h755q20 0 33 -14.5t13 -44.5v-26
q0 -28 -13 -42t-33 -14h-864q-51 0 -81 27.5zM884.5 1754.5q12.5 -8.5 12.5 -23.5q0 -22 -25 -47l-137 -140q-32 -35 -79 -35h-89q-24 0 -43 8.5t-36 26.5l-139 140q-23 23 -23 44q0 16 13.5 25.5t38.5 9.5h15q29 0 48.5 -7t35.5 -20.5t46 -44.5l16 -16l73 -73l72 73
q39 40 57 56t39.5 24t53.5 8h15q23 0 35.5 -8.5z" />
    <glyph glyph-name="Zdotaccent" unicode="&#x17b;" horiz-adv-x="1201" 
d="M90 0zM120 27.5q-30 27.5 -30 78.5q0 35 11 62t40 66l742 983q7 8 7 18q0 17 -22 17h-723q-21 0 -34 14t-13 44v26q0 30 13 43.5t34 13.5h832q52 0 82.5 -28t30.5 -79q0 -35 -11 -62t-40 -65l-741 -984q-8 -11 -8 -19q0 -7 5 -11t15 -4h755q20 0 33 -14.5t13 -44.5v-26
q0 -28 -13 -42t-33 -14h-864q-51 0 -81 27.5zM539 1561q-27 27 -27 72q0 44 27.5 70.5t71.5 26.5t71.5 -26.5t27.5 -70.5q0 -45 -27.5 -72t-71.5 -27q-45 0 -72 27z" />
    <glyph glyph-name="a" unicode="a" horiz-adv-x="1009" 
d="M812 883q87 -83 87 -239v-357q0 -152 -96.5 -229.5t-303.5 -77.5q-400 0 -400 285v18q0 143 103 210.5t322 77.5l216 10v43q0 105 -51.5 153.5t-162.5 48.5q-66 0 -138 -15t-132 -39l-64 -25q-14 -4 -17 -4q-18 0 -26 30l-15 56q-2 12 -2 15q0 22 25 31l64 27
q150 64 312 64q192 0 279 -83zM685 145.5q55 45.5 55 141.5v177l-204 -11q-98 -5 -157.5 -22.5t-88.5 -53t-29 -93.5v-18q0 -56 22 -92t74 -55t142 -19q131 0 186 45.5z" />
    <glyph glyph-name="aacute" unicode="&#xe1;" horiz-adv-x="1009" 
d="M99 0zM812 883q87 -83 87 -239v-357q0 -152 -96.5 -229.5t-303.5 -77.5q-400 0 -400 285v18q0 143 103 210.5t322 77.5l216 10v43q0 105 -51.5 153.5t-162.5 48.5q-66 0 -138 -15t-132 -39l-64 -25q-14 -4 -17 -4q-18 0 -26 30l-15 56q-2 12 -2 15q0 22 25 31l64 27
q150 64 312 64q192 0 279 -83zM685 145.5q55 45.5 55 141.5v177l-204 -11q-98 -5 -157.5 -22.5t-88.5 -53t-29 -93.5v-18q0 -56 22 -92t74 -55t142 -19q131 0 186 45.5zM448.5 1147q-11.5 9 -11.5 24q0 21 24 46l127 137q18 20 36 29.5t43 9.5h45q25 0 40 -11t15 -28
q0 -21 -20 -40l-107 -104q-43 -40 -69.5 -56t-55.5 -16h-35q-20 0 -31.5 9z" />
    <glyph glyph-name="abreve" unicode="&#x103;" horiz-adv-x="1009" 
d="M99 0zM812 883q87 -83 87 -239v-357q0 -152 -96.5 -229.5t-303.5 -77.5q-400 0 -400 285v18q0 143 103 210.5t322 77.5l216 10v43q0 105 -51.5 153.5t-162.5 48.5q-66 0 -138 -15t-132 -39l-64 -25q-14 -4 -17 -4q-18 0 -26 30l-15 56q-2 12 -2 15q0 22 25 31l64 27
q150 64 312 64q192 0 279 -83zM685 145.5q55 45.5 55 141.5v177l-204 -11q-98 -5 -157.5 -22.5t-88.5 -53t-29 -93.5v-18q0 -56 22 -92t74 -55t142 -19q131 0 186 45.5zM364 1149.5q-67 34.5 -100 93.5t-33 131q0 30 9.5 47.5t27.5 17.5q19 0 30 -14t25 -46
q18 -41 37.5 -68.5t60.5 -48t108 -20.5t108 20.5t60.5 48t37.5 68.5q14 32 25 46t30 14q18 0 27.5 -17.5t9.5 -47.5q0 -72 -33 -131t-100 -93.5t-165 -34.5t-165 34.5z" />
    <glyph glyph-name="acircumflex" unicode="&#xe2;" horiz-adv-x="1009" 
d="M99 0zM812 883q87 -83 87 -239v-357q0 -152 -96.5 -229.5t-303.5 -77.5q-400 0 -400 285v18q0 143 103 210.5t322 77.5l216 10v43q0 105 -51.5 153.5t-162.5 48.5q-66 0 -138 -15t-132 -39l-64 -25q-14 -4 -17 -4q-18 0 -26 30l-15 56q-2 12 -2 15q0 22 25 31l64 27
q150 64 312 64q192 0 279 -83zM685 145.5q55 45.5 55 141.5v177l-204 -11q-98 -5 -157.5 -22.5t-88.5 -53t-29 -93.5v-18q0 -56 22 -92t74 -55t142 -19q131 0 186 45.5zM815 1170q0 -14 -12.5 -22.5t-35.5 -8.5h-15q-32 0 -53.5 8t-39.5 23.5t-57 55.5l-72 73l-73 -73
q-7 -7 -37 -37.5t-53.5 -40t-55.5 -9.5h-15q-25 0 -38.5 9.5t-13.5 25.5q0 21 23 44l139 140q17 18 36 26.5t43 8.5h89q47 0 79 -35l137 -140q25 -25 25 -48z" />
    <glyph glyph-name="adieresis" unicode="&#xe4;" horiz-adv-x="1009" 
d="M99 0zM812 883q87 -83 87 -239v-357q0 -152 -96.5 -229.5t-303.5 -77.5q-400 0 -400 285v18q0 143 103 210.5t322 77.5l216 10v43q0 105 -51.5 153.5t-162.5 48.5q-66 0 -138 -15t-132 -39l-64 -25q-14 -4 -17 -4q-18 0 -26 30l-15 56q-2 12 -2 15q0 22 25 31l64 27
q150 64 312 64q192 0 279 -83zM685 145.5q55 45.5 55 141.5v177l-204 -11q-98 -5 -157.5 -22.5t-88.5 -53t-29 -93.5v-18q0 -56 22 -92t74 -55t142 -19q131 0 186 45.5zM308.5 1190q-26.5 26 -26.5 70q0 43 26.5 69t69.5 26t70 -26t27 -69q0 -44 -27 -70t-70 -26t-69.5 26z
M610.5 1190q-26.5 26 -26.5 70q0 43 26.5 69t69.5 26t70 -26t27 -69q0 -44 -27 -70t-70 -26t-69.5 26z" />
    <glyph glyph-name="agrave" unicode="&#xe0;" horiz-adv-x="1009" 
d="M99 0zM812 883q87 -83 87 -239v-357q0 -152 -96.5 -229.5t-303.5 -77.5q-400 0 -400 285v18q0 143 103 210.5t322 77.5l216 10v43q0 105 -51.5 153.5t-162.5 48.5q-66 0 -138 -15t-132 -39l-64 -25q-14 -4 -17 -4q-18 0 -26 30l-15 56q-2 12 -2 15q0 22 25 31l64 27
q150 64 312 64q192 0 279 -83zM685 145.5q55 45.5 55 141.5v177l-204 -11q-98 -5 -157.5 -22.5t-88.5 -53t-29 -93.5v-18q0 -56 22 -92t74 -55t142 -19q131 0 186 45.5zM541 1138q-30 0 -57.5 16t-68.5 56l-108 104q-20 19 -20 39q0 18 15 29t41 11h45q25 0 42.5 -9.5
t35.5 -29.5l128 -137q24 -25 24 -47q0 -14 -11.5 -23t-30.5 -9h-35z" />
    <glyph glyph-name="amacron" unicode="&#x101;" horiz-adv-x="1009" 
d="M99 0zM812 883q87 -83 87 -239v-357q0 -152 -96.5 -229.5t-303.5 -77.5q-400 0 -400 285v18q0 143 103 210.5t322 77.5l216 10v43q0 105 -51.5 153.5t-162.5 48.5q-66 0 -138 -15t-132 -39l-64 -25q-14 -4 -17 -4q-18 0 -26 30l-15 56q-2 12 -2 15q0 22 25 31l64 27
q150 64 312 64q192 0 279 -83zM685 145.5q55 45.5 55 141.5v177l-204 -11q-98 -5 -157.5 -22.5t-88.5 -53t-29 -93.5v-18q0 -56 22 -92t74 -55t142 -19q131 0 186 45.5zM246.5 1239q-11.5 13 -11.5 39v23q0 26 11.5 39t29.5 13h506q18 0 29.5 -13t11.5 -39v-23
q0 -26 -11.5 -39t-29.5 -13h-506q-18 0 -29.5 13z" />
    <glyph glyph-name="aogonek" unicode="&#x105;" horiz-adv-x="1009" 
d="M751 26v-1l-4 -1q-10 -5 -36 -15q-54 -26 -89 -66.5t-35 -87.5q0 -65 74 -65q32 0 56.5 8t53.5 22q32 16 47 16q14 0 22 -9t8 -25q0 -29 -29.5 -56.5t-80 -45.5t-109.5 -18q-81 0 -129 37t-48 105q0 46 25.5 86t67.5 71q-15 -1 -46 -1q-400 0 -400 285v18
q0 143 103 210.5t322 77.5l216 10v43q0 105 -51.5 153.5t-162.5 48.5q-66 0 -138 -15t-132 -39l-64 -25q-14 -4 -17 -4q-18 0 -26 30l-15 56q-2 12 -2 15q0 22 25 31l64 27q150 64 312 64q192 0 279 -83t87 -239v-357q0 -190 -148 -261zM283 174q22 -36 74 -55t142 -19
q131 0 186 45.5t55 141.5v177l-204 -11q-98 -5 -157.5 -22.5t-88.5 -53t-29 -93.5v-18q0 -56 22 -92z" />
    <glyph glyph-name="aring" unicode="&#xe5;" horiz-adv-x="1009" 
d="M99 0zM812 883q87 -83 87 -239v-357q0 -152 -96.5 -229.5t-303.5 -77.5q-400 0 -400 285v18q0 143 103 210.5t322 77.5l216 10v43q0 105 -51.5 153.5t-162.5 48.5q-66 0 -138 -15t-132 -39l-64 -25q-14 -4 -17 -4q-18 0 -26 30l-15 56q-2 12 -2 15q0 22 25 31l64 27
q150 64 312 64q192 0 279 -83zM685 145.5q55 45.5 55 141.5v177l-204 -11q-98 -5 -157.5 -22.5t-88.5 -53t-29 -93.5v-18q0 -56 22 -92t74 -55t142 -19q131 0 186 45.5zM416.5 1120q-47.5 26 -73.5 70.5t-26 100.5q0 55 26 100t73.5 71t110.5 26q65 0 113 -26t74 -71
t26 -100q0 -56 -26 -100.5t-74 -70.5t-113 -26q-63 0 -110.5 26zM614.5 1209.5q32.5 32.5 32.5 82.5q0 47 -33 79.5t-83 32.5t-82 -32.5t-32 -79.5q0 -51 31.5 -83t82.5 -32t83.5 32.5z" />
    <glyph glyph-name="atilde" unicode="&#xe3;" horiz-adv-x="1009" 
d="M99 0zM812 883q87 -83 87 -239v-357q0 -152 -96.5 -229.5t-303.5 -77.5q-400 0 -400 285v18q0 143 103 210.5t322 77.5l216 10v43q0 105 -51.5 153.5t-162.5 48.5q-66 0 -138 -15t-132 -39l-64 -25q-14 -4 -17 -4q-18 0 -26 30l-15 56q-2 12 -2 15q0 22 25 31l64 27
q150 64 312 64q192 0 279 -83zM685 145.5q55 45.5 55 141.5v177l-204 -11q-98 -5 -157.5 -22.5t-88.5 -53t-29 -93.5v-18q0 -56 22 -92t74 -55t142 -19q131 0 186 45.5zM204.5 1191.5q-14.5 20.5 -14.5 52.5q0 39 22.5 76t67 60.5t107.5 23.5q58 0 96.5 -17t83.5 -50
q33 -24 54.5 -34.5t48.5 -10.5q29 0 46 9t25 21.5t16 33.5q9 24 19 36t33 12q26 0 40.5 -21t14.5 -53q0 -39 -22 -75.5t-66 -60t-106 -23.5q-52 0 -87 15.5t-76 45.5q-35 25 -61 37.5t-62 12.5q-41 0 -57.5 -16.5t-28.5 -47.5q-10 -24 -20 -35.5t-33 -11.5q-26 0 -40.5 20.5
z" />
    <glyph glyph-name="ae" unicode="&#xe6;" horiz-adv-x="1678" 
d="M1558 94q2 -10 2 -13q0 -20 -24 -30l-58 -24q-112 -47 -267 -47q-113 0 -203.5 33t-152.5 101q-88 -134 -356 -134q-400 0 -400 285v18q0 143 103 210.5t322 77.5l219 10v43q0 105 -52 153.5t-165 48.5q-66 0 -138 -15t-132 -39l-64 -25q-14 -4 -17 -4q-18 0 -26 30
l-15 56q-2 12 -2 15q0 22 25 31l64 27q150 64 312 64q238 0 321 -133q58 65 143.5 99t193.5 34q187 0 287.5 -78t100.5 -215q0 -104 -48.5 -163.5t-140.5 -85t-238 -29.5l-247 -7q19 -138 107.5 -203t223.5 -65q55 0 109 9t98 26l58 22q9 3 14 3q17 0 25 -26zM976.5 755
q-72.5 -78 -75.5 -249l211 5q116 2 178.5 11t101 41t38.5 99q0 77 -57.5 124t-180.5 47q-143 0 -215.5 -78zM743 465l-207 -12q-98 -5 -157.5 -22.5t-88.5 -53t-29 -93.5v-18q0 -56 22 -92t74 -55t142 -19q133 0 188.5 45.5t55.5 141.5v178z" />
    <glyph glyph-name="b" unicode="b" horiz-adv-x="1094" 
d="M893.5 848q101.5 -118 101.5 -354v-42q0 -238 -105.5 -355t-336.5 -117q-230 0 -332 117t-102 355v895q0 21 16 33.5t50 12.5h38q58 0 58 -46v-495q93 114 294 114q217 0 318.5 -118zM833 494q0 124 -27 198t-88 108t-164 34q-102 0 -161 -34t-85.5 -108t-26.5 -199v-41
q0 -125 25.5 -198.5t85 -107.5t162.5 -34t164 34t88 108t27 198v42z" />
    <glyph glyph-name="c" unicode="c" horiz-adv-x="966" 
d="M214.5 92.5q-115.5 112.5 -115.5 361.5v38q0 474 444 474q140 0 252 -47l57 -24q26 -11 26 -30q0 -6 -3 -14l-18 -54q-8 -27 -25 -27q-5 0 -14 3l-58 22q-90 34 -199 34q-146 0 -222 -78t-76 -259v-38q0 -181 76 -259t222 -78q109 0 199 34l58 22q9 3 14 3q17 0 25 -27
l18 -54q3 -7 3 -14q0 -19 -26 -30l-57 -24q-112 -47 -252 -47q-213 0 -328.5 112.5z" />
    <glyph glyph-name="cacute" unicode="&#x107;" horiz-adv-x="966" 
d="M99 0zM214.5 92.5q-115.5 112.5 -115.5 361.5v38q0 474 444 474q140 0 252 -47l57 -24q26 -11 26 -30q0 -6 -3 -14l-18 -54q-8 -27 -25 -27q-5 0 -14 3l-58 22q-90 34 -199 34q-146 0 -222 -78t-76 -259v-38q0 -181 76 -259t222 -78q109 0 199 34l58 22q9 3 14 3
q17 0 25 -27l18 -54q3 -7 3 -14q0 -19 -26 -30l-57 -24q-112 -47 -252 -47q-213 0 -328.5 112.5zM452.5 1147q-11.5 9 -11.5 24q0 21 24 46l127 137q18 20 36 29.5t43 9.5h45q25 0 40 -11t15 -28q0 -21 -20 -40l-107 -104q-43 -40 -69.5 -56t-55.5 -16h-35q-20 0 -31.5 9z
" />
    <glyph glyph-name="ccaron" unicode="&#x10d;" horiz-adv-x="966" 
d="M99 0zM214.5 92.5q-115.5 112.5 -115.5 361.5v38q0 474 444 474q140 0 252 -47l57 -24q26 -11 26 -30q0 -6 -3 -14l-18 -54q-8 -27 -25 -27q-5 0 -14 3l-58 22q-90 34 -199 34q-146 0 -222 -78t-76 -259v-38q0 -181 76 -259t222 -78q109 0 199 34l58 22q9 3 14 3
q17 0 25 -27l18 -54q3 -7 3 -14q0 -19 -26 -30l-57 -24q-112 -47 -252 -47q-213 0 -328.5 112.5zM806.5 1384.5q12.5 -8.5 12.5 -23.5q0 -22 -25 -47l-137 -140q-32 -35 -79 -35h-89q-24 0 -43 8.5t-36 26.5l-139 140q-23 23 -23 44q0 16 13.5 25.5t38.5 9.5h15
q29 0 48.5 -7t35.5 -20.5t46 -44.5l16 -16l73 -73l72 73q39 40 57 56t39.5 24t53.5 8h15q23 0 35.5 -8.5z" />
    <glyph glyph-name="ccedilla" unicode="&#xe7;" horiz-adv-x="966" 
d="M875 95q3 -7 3 -14q0 -19 -26 -30l-57 -24q-91 -38 -195 -45l-13 -22q-5 -8 -8.5 -16.5t-3.5 -16.5q0 -18 16 -27.5t49 -18.5q38 -10 63 -22t43 -39t18 -73q0 -73 -61.5 -115t-175.5 -42q-59 0 -109 19.5t-79.5 48.5t-29.5 57q0 16 8 25t22 9q10 0 20.5 -4.5t27.5 -13.5
q32 -18 63.5 -29t76.5 -11q109 0 109 61q0 27 -20 40t-61 25q-31 10 -49 18t-31 23.5t-13 41.5q0 15 5.5 27t16.5 30l14 24q-192 11 -295.5 124.5t-103.5 348.5v38q0 474 444 474q140 0 252 -47l57 -24q26 -11 26 -30q0 -6 -3 -14l-18 -54q-8 -27 -25 -27q-5 0 -14 3l-58 22
q-90 34 -199 34q-146 0 -222 -78t-76 -259v-38q0 -181 76 -259t222 -78q109 0 199 34l58 22q9 3 14 3q17 0 25 -27z" />
    <glyph glyph-name="cdotaccent" unicode="&#x10b;" horiz-adv-x="966" 
d="M99 0zM214.5 92.5q-115.5 112.5 -115.5 361.5v38q0 474 444 474q140 0 252 -47l57 -24q26 -11 26 -30q0 -6 -3 -14l-18 -54q-8 -27 -25 -27q-5 0 -14 3l-58 22q-90 34 -199 34q-146 0 -222 -78t-76 -259v-38q0 -181 76 -259t222 -78q109 0 199 34l58 22q9 3 14 3
q17 0 25 -27l18 -54q3 -7 3 -14q0 -19 -26 -30l-57 -24q-112 -47 -252 -47q-213 0 -328.5 112.5zM461 1191q-27 27 -27 72q0 44 27.5 70.5t71.5 26.5t71.5 -26.5t27.5 -70.5q0 -45 -27.5 -72t-71.5 -27q-45 0 -72 27z" />
    <glyph glyph-name="d" unicode="d" horiz-adv-x="1095" 
d="M959.5 1382q16.5 -13 16.5 -33v-897q0 -238 -103.5 -355t-330.5 -117q-232 0 -337.5 117t-105.5 355v42q0 236 102 354t319 118q201 0 294 -114v497q0 21 17.5 33.5t54.5 12.5h22q35 0 51.5 -13zM814 493q0 125 -25.5 199t-85 108t-162.5 34t-164 -34t-88 -108t-27 -198
v-42q0 -124 27 -198t88 -108t164 -34t162.5 34t85 107.5t25.5 198.5v41z" />
    <glyph glyph-name="eth" unicode="&#xf0;" horiz-adv-x="1074" 
d="M913.5 872q61.5 -168 61.5 -362v-58q0 -238 -102 -355t-332 -117q-231 0 -336.5 117t-105.5 355v42q0 236 101.5 354t318.5 118q131 0 213 -45q-43 99 -107 196l-176 -75q-21 -8 -35 -8q-18 0 -28.5 11t-10.5 31v13q0 53 49 74l126 54q-54 64 -107 112q-18 17 -18 34
q0 13 10.5 21.5t26.5 8.5h66q30 0 51 -10.5t43 -34.5q31 -31 65 -72l201 86q19 9 36 9q18 0 28.5 -11.5t10.5 -31.5v-12q0 -52 -50 -75l-152 -65q91 -136 152.5 -304zM817 481q0 131 -26.5 207t-86.5 110t-164 34q-103 0 -163.5 -33.5t-87 -107t-26.5 -197.5v-42
q0 -124 26.5 -197.5t87 -107t163.5 -33.5q104 0 164 33.5t86.5 107t26.5 197.5v29z" />
    <glyph glyph-name="dcaron" unicode="&#x10f;" horiz-adv-x="1328" 
d="M1314 1372q0 -9 -3 -20l-86 -311q-11 -46 -60 -46h-30q-23 0 -36 10.5t-13 29.5q0 10 3 20l78 312q12 46 61 46h37q49 0 49 -41zM959.5 1382q16.5 -13 16.5 -33v-897q0 -238 -103.5 -355t-330.5 -117q-232 0 -337.5 117t-105.5 355v42q0 236 102 354t319 118
q201 0 294 -114v497q0 21 17.5 33.5t54.5 12.5h22q35 0 51.5 -13zM814 493q0 125 -25.5 199t-85 108t-162.5 34t-164 -34t-88 -108t-27 -198v-42q0 -124 27 -198t88 -108t164 -34t162.5 34t85 107.5t25.5 198.5v41z" />
    <glyph glyph-name="dcroat" unicode="&#x111;" horiz-adv-x="1095" 
d="M1060.5 1191q13.5 -14 13.5 -40v-16q0 -26 -13.5 -40t-39.5 -14h-45v-629q0 -238 -103.5 -355t-330.5 -117q-232 0 -337.5 117t-105.5 355v42q0 236 102 354t319 118q201 0 294 -114v229h-247q-26 0 -40 14t-14 40v16q0 26 14 40t40 14h247v144q0 21 17.5 33.5t54.5 12.5
h22q35 0 51.5 -13t16.5 -33v-144h45q26 0 39.5 -14zM814 493q0 125 -25.5 199t-85 108t-162.5 34t-164 -34t-88 -108t-27 -198v-42q0 -124 27 -198t88 -108t164 -34t162.5 34t85 107.5t25.5 198.5v41z" />
    <glyph glyph-name="e" unicode="e" horiz-adv-x="1033" 
d="M913 94q2 -5 2 -14q0 -19 -23 -29l-59 -24q-112 -47 -267 -47q-139 0 -244 51t-164 157t-59 267v37q0 150 53.5 256.5t154 162t239.5 55.5q187 0 287.5 -78t100.5 -215q0 -104 -48.5 -163.5t-140.5 -85t-238 -29.5l-247 -7q19 -138 107.5 -203t224.5 -65q55 0 109 9
t98 25l57 22q9 3 15 3q16 0 24 -25zM331.5 755q-72.5 -78 -75.5 -249l212 5q115 3 177.5 11.5t101 40.5t38.5 99q0 78 -57.5 124.5t-180.5 46.5q-143 0 -215.5 -78z" />
    <glyph glyph-name="eacute" unicode="&#xe9;" horiz-adv-x="1033" 
d="M99 0zM913 94q2 -5 2 -14q0 -19 -23 -29l-59 -24q-112 -47 -267 -47q-139 0 -244 51t-164 157t-59 267v37q0 150 53.5 256.5t154 162t239.5 55.5q187 0 287.5 -78t100.5 -215q0 -104 -48.5 -163.5t-140.5 -85t-238 -29.5l-247 -7q19 -138 107.5 -203t224.5 -65
q55 0 109 9t98 25l57 22q9 3 15 3q16 0 24 -25zM331.5 755q-72.5 -78 -75.5 -249l212 5q115 3 177.5 11.5t101 40.5t38.5 99q0 78 -57.5 124.5t-180.5 46.5q-143 0 -215.5 -78zM465.5 1147q-11.5 9 -11.5 24q0 21 24 46l127 137q18 20 36 29.5t43 9.5h45q25 0 40 -11t15 -28
q0 -21 -20 -40l-107 -104q-43 -40 -69.5 -56t-55.5 -16h-35q-20 0 -31.5 9z" />
    <glyph glyph-name="ecaron" unicode="&#x11b;" horiz-adv-x="1033" 
d="M99 0zM913 94q2 -5 2 -14q0 -19 -23 -29l-59 -24q-112 -47 -267 -47q-139 0 -244 51t-164 157t-59 267v37q0 150 53.5 256.5t154 162t239.5 55.5q187 0 287.5 -78t100.5 -215q0 -104 -48.5 -163.5t-140.5 -85t-238 -29.5l-247 -7q19 -138 107.5 -203t224.5 -65
q55 0 109 9t98 25l57 22q9 3 15 3q16 0 24 -25zM331.5 755q-72.5 -78 -75.5 -249l212 5q115 3 177.5 11.5t101 40.5t38.5 99q0 78 -57.5 124.5t-180.5 46.5q-143 0 -215.5 -78zM819.5 1384.5q12.5 -8.5 12.5 -23.5q0 -22 -25 -47l-137 -140q-32 -35 -79 -35h-89
q-24 0 -43 8.5t-36 26.5l-139 140q-23 23 -23 44q0 16 13.5 25.5t38.5 9.5h15q29 0 48.5 -7t35.5 -20.5t46 -44.5l16 -16l73 -73l72 73q39 40 57 56t39.5 24t53.5 8h15q23 0 35.5 -8.5z" />
    <glyph glyph-name="ecircumflex" unicode="&#xea;" horiz-adv-x="1033" 
d="M99 0zM913 94q2 -5 2 -14q0 -19 -23 -29l-59 -24q-112 -47 -267 -47q-139 0 -244 51t-164 157t-59 267v37q0 150 53.5 256.5t154 162t239.5 55.5q187 0 287.5 -78t100.5 -215q0 -104 -48.5 -163.5t-140.5 -85t-238 -29.5l-247 -7q19 -138 107.5 -203t224.5 -65
q55 0 109 9t98 25l57 22q9 3 15 3q16 0 24 -25zM331.5 755q-72.5 -78 -75.5 -249l212 5q115 3 177.5 11.5t101 40.5t38.5 99q0 78 -57.5 124.5t-180.5 46.5q-143 0 -215.5 -78zM832 1170q0 -14 -12.5 -22.5t-35.5 -8.5h-15q-32 0 -53.5 8t-39.5 23.5t-57 55.5l-72 73
l-73 -73q-7 -7 -37 -37.5t-53.5 -40t-55.5 -9.5h-15q-25 0 -38.5 9.5t-13.5 25.5q0 21 23 44l139 140q17 18 36 26.5t43 8.5h89q47 0 79 -35l137 -140q25 -25 25 -48z" />
    <glyph glyph-name="edieresis" unicode="&#xeb;" horiz-adv-x="1033" 
d="M99 0zM913 94q2 -5 2 -14q0 -19 -23 -29l-59 -24q-112 -47 -267 -47q-139 0 -244 51t-164 157t-59 267v37q0 150 53.5 256.5t154 162t239.5 55.5q187 0 287.5 -78t100.5 -215q0 -104 -48.5 -163.5t-140.5 -85t-238 -29.5l-247 -7q19 -138 107.5 -203t224.5 -65
q55 0 109 9t98 25l57 22q9 3 15 3q16 0 24 -25zM331.5 755q-72.5 -78 -75.5 -249l212 5q115 3 177.5 11.5t101 40.5t38.5 99q0 78 -57.5 124.5t-180.5 46.5q-143 0 -215.5 -78zM325.5 1190q-26.5 26 -26.5 70q0 43 26.5 69t69.5 26t70 -26t27 -69q0 -44 -27 -70t-70 -26
t-69.5 26zM627.5 1190q-26.5 26 -26.5 70q0 43 26.5 69t69.5 26t70 -26t27 -69q0 -44 -27 -70t-70 -26t-69.5 26z" />
    <glyph glyph-name="edotaccent" unicode="&#x117;" horiz-adv-x="1033" 
d="M99 0zM913 94q2 -5 2 -14q0 -19 -23 -29l-59 -24q-112 -47 -267 -47q-139 0 -244 51t-164 157t-59 267v37q0 150 53.5 256.5t154 162t239.5 55.5q187 0 287.5 -78t100.5 -215q0 -104 -48.5 -163.5t-140.5 -85t-238 -29.5l-247 -7q19 -138 107.5 -203t224.5 -65
q55 0 109 9t98 25l57 22q9 3 15 3q16 0 24 -25zM331.5 755q-72.5 -78 -75.5 -249l212 5q115 3 177.5 11.5t101 40.5t38.5 99q0 78 -57.5 124.5t-180.5 46.5q-143 0 -215.5 -78zM474 1191q-27 27 -27 72q0 44 27.5 70.5t71.5 26.5t71.5 -26.5t27.5 -70.5q0 -45 -27.5 -72
t-71.5 -27q-45 0 -72 27z" />
    <glyph glyph-name="egrave" unicode="&#xe8;" horiz-adv-x="1033" 
d="M99 0zM913 94q2 -5 2 -14q0 -19 -23 -29l-59 -24q-112 -47 -267 -47q-139 0 -244 51t-164 157t-59 267v37q0 150 53.5 256.5t154 162t239.5 55.5q187 0 287.5 -78t100.5 -215q0 -104 -48.5 -163.5t-140.5 -85t-238 -29.5l-247 -7q19 -138 107.5 -203t224.5 -65
q55 0 109 9t98 25l57 22q9 3 15 3q16 0 24 -25zM331.5 755q-72.5 -78 -75.5 -249l212 5q115 3 177.5 11.5t101 40.5t38.5 99q0 78 -57.5 124.5t-180.5 46.5q-143 0 -215.5 -78zM558 1138q-30 0 -57.5 16t-68.5 56l-108 104q-20 19 -20 39q0 18 15 29t41 11h45
q25 0 42.5 -9.5t35.5 -29.5l128 -137q24 -25 24 -47q0 -14 -11.5 -23t-30.5 -9h-35z" />
    <glyph glyph-name="emacron" unicode="&#x113;" horiz-adv-x="1033" 
d="M99 0zM913 94q2 -5 2 -14q0 -19 -23 -29l-59 -24q-112 -47 -267 -47q-139 0 -244 51t-164 157t-59 267v37q0 150 53.5 256.5t154 162t239.5 55.5q187 0 287.5 -78t100.5 -215q0 -104 -48.5 -163.5t-140.5 -85t-238 -29.5l-247 -7q19 -138 107.5 -203t224.5 -65
q55 0 109 9t98 25l57 22q9 3 15 3q16 0 24 -25zM331.5 755q-72.5 -78 -75.5 -249l212 5q115 3 177.5 11.5t101 40.5t38.5 99q0 78 -57.5 124.5t-180.5 46.5q-143 0 -215.5 -78zM263.5 1239q-11.5 13 -11.5 39v23q0 26 11.5 39t29.5 13h506q18 0 29.5 -13t11.5 -39v-23
q0 -26 -11.5 -39t-29.5 -13h-506q-18 0 -29.5 13z" />
    <glyph glyph-name="eogonek" unicode="&#x119;" horiz-adv-x="1033" 
d="M931 -168q8 -9 8 -25q0 -29 -29.5 -56.5t-80 -45.5t-109.5 -18q-81 0 -129 37t-48 105q0 44 24 83.5t64 69.5q-42 -2 -65 -2q-139 0 -244 51t-164 157t-59 267v37q0 150 53.5 256.5t154 162t239.5 55.5q187 0 287.5 -78t100.5 -215q0 -104 -48.5 -163.5t-140.5 -85
t-238 -29.5l-247 -7q19 -138 107.5 -203t224.5 -65q55 0 109 9t98 25l57 22q9 3 15 3q16 0 24 -25l18 -60q2 -5 2 -14q0 -19 -23 -29l-50 -20v-1l-9 -3q-14 -6 -21 -8q-58 -26 -96 -68t-38 -91q0 -65 74 -65q32 0 56.5 8t53.5 22q32 16 47 16q14 0 22 -9zM331.5 755
q-72.5 -78 -75.5 -249l212 5q115 3 177.5 11.5t101 40.5t38.5 99q0 78 -57.5 124.5t-180.5 46.5q-143 0 -215.5 -78z" />
    <glyph glyph-name="f" unicode="f" horiz-adv-x="714" 
d="M709.5 1380q11.5 -13 11.5 -39v-40q0 -26 -11.5 -38.5t-29.5 -12.5h-33q-139 0 -205 -65.5t-66 -212.5v-26h262q18 0 29.5 -12.5t11.5 -38.5v-24q0 -26 -11.5 -38.5t-29.5 -12.5h-262v-775q0 -20 -16 -32.5t-49 -12.5h-33q-33 0 -48.5 12.5t-15.5 32.5v775h-132
q-18 0 -30 12.5t-12 38.5v24q0 25 12 38t30 13h132v27q0 131 49.5 225.5t145 144.5t230.5 50h41q18 0 29.5 -13z" />
    <glyph glyph-name="g" unicode="g" horiz-adv-x="1100" 
d="M1028.5 933.5q11.5 -12.5 11.5 -38.5v-23q0 -26 -11.5 -39t-29.5 -13h-132q52 -69 52 -173q0 -101 -39.5 -166.5t-128.5 -98.5t-236 -33h-103q-38 0 -60.5 -20.5t-22.5 -50.5q0 -35 26.5 -54.5t84.5 -23.5l211 -14q135 -8 215 -41.5t114.5 -90.5t34.5 -141
q0 -90 -53.5 -158.5t-156 -106t-244.5 -37.5q-224 0 -353 76t-129 228q0 83 50.5 135t130.5 68q-64 46 -64 121q0 45 23.5 81.5t68.5 58.5q-93 31 -134.5 97.5t-41.5 170.5q0 148 96 223.5t311 75.5h480q18 0 29.5 -12.5zM664.5 480q53.5 19 75.5 59t22 107t-22 107
t-75.5 59.5t-149.5 19.5q-94 0 -148 -20.5t-76.5 -60.5t-22.5 -105q0 -67 22 -107t75.5 -59t149.5 -19t149.5 19zM392 73q-84 0 -126.5 -40.5t-42.5 -105.5q0 -102 92 -147t251 -45q145 0 215.5 44t70.5 124q0 47 -20 75.5t-74.5 46.5t-159.5 28z" />
    <glyph glyph-name="gbreve" unicode="&#x11f;" horiz-adv-x="1100" 
d="M79 0zM1028.5 933.5q11.5 -12.5 11.5 -38.5v-23q0 -26 -11.5 -39t-29.5 -13h-132q52 -69 52 -173q0 -101 -39.5 -166.5t-128.5 -98.5t-236 -33h-103q-38 0 -60.5 -20.5t-22.5 -50.5q0 -35 26.5 -54.5t84.5 -23.5l211 -14q135 -8 215 -41.5t114.5 -90.5t34.5 -141
q0 -90 -53.5 -158.5t-156 -106t-244.5 -37.5q-224 0 -353 76t-129 228q0 83 50.5 135t130.5 68q-64 46 -64 121q0 45 23.5 81.5t68.5 58.5q-93 31 -134.5 97.5t-41.5 170.5q0 148 96 223.5t311 75.5h480q18 0 29.5 -12.5zM664.5 480q53.5 19 75.5 59t22 107t-22 107
t-75.5 59.5t-149.5 19.5q-94 0 -148 -20.5t-76.5 -60.5t-22.5 -105q0 -67 22 -107t75.5 -59t149.5 -19t149.5 19zM392 73q-84 0 -126.5 -40.5t-42.5 -105.5q0 -102 92 -147t251 -45q145 0 215.5 44t70.5 124q0 47 -20 75.5t-74.5 46.5t-159.5 28zM378 1149.5
q-67 34.5 -100 93.5t-33 131q0 30 9.5 47.5t27.5 17.5q19 0 30 -14t25 -46q18 -41 37.5 -68.5t60.5 -48t108 -20.5t108 20.5t60.5 48t37.5 68.5q14 32 25 46t30 14q18 0 27.5 -17.5t9.5 -47.5q0 -72 -33 -131t-100 -93.5t-165 -34.5t-165 34.5z" />
    <glyph glyph-name="gcommaaccent" unicode="&#x123;" horiz-adv-x="1100" 
d="M492 1125q-12 10 -12 29q0 12 4 24l71 208q17 44 61 44h47q24 0 37 -10t13 -28q0 -11 -4 -22l-67 -211q-15 -44 -62 -44h-53q-23 0 -35 10zM1028.5 933.5q11.5 -12.5 11.5 -38.5v-23q0 -26 -11.5 -39t-29.5 -13h-132q52 -69 52 -173q0 -101 -39.5 -166.5t-128.5 -98.5
t-236 -33h-103q-38 0 -60.5 -20.5t-22.5 -50.5q0 -35 26.5 -54.5t84.5 -23.5l211 -14q135 -8 215 -41.5t114.5 -90.5t34.5 -141q0 -90 -53.5 -158.5t-156 -106t-244.5 -37.5q-224 0 -353 76t-129 228q0 83 50.5 135t130.5 68q-64 46 -64 121q0 45 23.5 81.5t68.5 58.5
q-93 31 -134.5 97.5t-41.5 170.5q0 148 96 223.5t311 75.5h480q18 0 29.5 -12.5zM664.5 480q53.5 19 75.5 59t22 107t-22 107t-75.5 59.5t-149.5 19.5q-94 0 -148 -20.5t-76.5 -60.5t-22.5 -105q0 -67 22 -107t75.5 -59t149.5 -19t149.5 19zM392 73q-84 0 -126.5 -40.5
t-42.5 -105.5q0 -102 92 -147t251 -45q145 0 215.5 44t70.5 124q0 47 -20 75.5t-74.5 46.5t-159.5 28z" />
    <glyph glyph-name="gdotaccent" unicode="&#x121;" horiz-adv-x="1100" 
d="M79 0zM1028.5 933.5q11.5 -12.5 11.5 -38.5v-23q0 -26 -11.5 -39t-29.5 -13h-132q52 -69 52 -173q0 -101 -39.5 -166.5t-128.5 -98.5t-236 -33h-103q-38 0 -60.5 -20.5t-22.5 -50.5q0 -35 26.5 -54.5t84.5 -23.5l211 -14q135 -8 215 -41.5t114.5 -90.5t34.5 -141
q0 -90 -53.5 -158.5t-156 -106t-244.5 -37.5q-224 0 -353 76t-129 228q0 83 50.5 135t130.5 68q-64 46 -64 121q0 45 23.5 81.5t68.5 58.5q-93 31 -134.5 97.5t-41.5 170.5q0 148 96 223.5t311 75.5h480q18 0 29.5 -12.5zM664.5 480q53.5 19 75.5 59t22 107t-22 107
t-75.5 59.5t-149.5 19.5q-94 0 -148 -20.5t-76.5 -60.5t-22.5 -105q0 -67 22 -107t75.5 -59t149.5 -19t149.5 19zM392 73q-84 0 -126.5 -40.5t-42.5 -105.5q0 -102 92 -147t251 -45q145 0 215.5 44t70.5 124q0 47 -20 75.5t-74.5 46.5t-159.5 28zM471 1191q-27 27 -27 72
q0 44 27.5 70.5t71.5 26.5t71.5 -26.5t27.5 -70.5q0 -45 -27.5 -72t-71.5 -27q-45 0 -72 27z" />
    <glyph glyph-name="h" unicode="h" horiz-adv-x="1068" 
d="M857.5 869.5q91.5 -96.5 91.5 -284.5v-540q0 -20 -16.5 -32.5t-51.5 -12.5h-26q-35 0 -51.5 12.5t-16.5 32.5v539q0 88 -23.5 142t-76 80t-139.5 26q-136 0 -197 -59t-61 -189v-539q0 -20 -15.5 -32.5t-48.5 -12.5h-33q-33 0 -48.5 12.5t-15.5 32.5v1302q0 20 15.5 33
t48.5 13h33q33 0 48.5 -13t15.5 -33v-467q97 86 274 86q202 0 293.5 -96.5z" />
    <glyph glyph-name="hbar" unicode="&#x127;" horiz-adv-x="1068" 
d="M888.5 869.5q91.5 -96.5 91.5 -284.5v-540q0 -20 -16.5 -32.5t-51.5 -12.5h-26q-35 0 -51.5 12.5t-16.5 32.5v539q0 88 -23.5 142t-76 80t-139.5 26q-136 0 -197 -59t-61 -189v-539q0 -20 -15.5 -32.5t-48.5 -12.5h-33q-33 0 -48.5 12.5t-15.5 32.5v1036h-76
q-26 0 -40 14t-14 40v16q0 26 14 40t40 14h76v142q0 20 15.5 33t48.5 13h33q33 0 48.5 -13t15.5 -33v-142h418q26 0 40 -14t14 -40v-16q0 -26 -14 -40t-40 -14h-418v-201q97 86 274 86q202 0 293.5 -96.5z" />
    <glyph glyph-name="i" unicode="i" horiz-adv-x="419" 
d="M138.5 1193.5q-27.5 26.5 -27.5 71.5q0 43 27.5 69.5t71.5 26.5q43 0 70.5 -26.5t27.5 -69.5q0 -44 -27.5 -71t-70.5 -27q-44 0 -71.5 26.5zM144.5 12.5q-15.5 12.5 -15.5 32.5v856q0 20 15.5 32.5t48.5 12.5h33q33 0 48.5 -12.5t15.5 -32.5v-856q0 -20 -15.5 -32.5
t-48.5 -12.5h-33q-33 0 -48.5 12.5z" />
    <glyph glyph-name="dotlessi" unicode="&#x131;" horiz-adv-x="419" 
d="M144.5 12.5q-15.5 12.5 -15.5 32.5v856q0 20 15.5 32.5t48.5 12.5h33q33 0 48.5 -12.5t15.5 -32.5v-856q0 -20 -15.5 -32.5t-48.5 -12.5h-33q-33 0 -48.5 12.5z" />
    <glyph glyph-name="iacute" unicode="&#xed;" horiz-adv-x="419" 
d="M123 0zM144.5 12.5q-15.5 12.5 -15.5 32.5v856q0 20 15.5 32.5t48.5 12.5h33q33 0 48.5 -12.5t15.5 -32.5v-856q0 -20 -15.5 -32.5t-48.5 -12.5h-33q-33 0 -48.5 12.5zM134.5 1147q-11.5 9 -11.5 24q0 21 24 46l127 137q18 20 36 29.5t43 9.5h45q25 0 40 -11t15 -28
q0 -21 -20 -40l-107 -104q-43 -40 -69.5 -56t-55.5 -16h-35q-20 0 -31.5 9z" />
    <glyph glyph-name="icircumflex" unicode="&#xee;" horiz-adv-x="419" 
d="M0 0zM144.5 12.5q-15.5 12.5 -15.5 32.5v856q0 20 15.5 32.5t48.5 12.5h33q33 0 48.5 -12.5t15.5 -32.5v-856q0 -20 -15.5 -32.5t-48.5 -12.5h-33q-33 0 -48.5 12.5zM501 1170q0 -14 -12.5 -22.5t-35.5 -8.5h-15q-32 0 -53.5 8t-39.5 23.5t-57 55.5l-72 73l-73 -73
q-7 -7 -37 -37.5t-53.5 -40t-55.5 -9.5h-15q-25 0 -38.5 9.5t-13.5 25.5q0 21 23 44l139 140q17 18 36 26.5t43 8.5h89q47 0 79 -35l137 -140q25 -25 25 -48z" />
    <glyph glyph-name="idieresis" unicode="&#xef;" horiz-adv-x="419" 
d="M0 0zM144.5 12.5q-15.5 12.5 -15.5 32.5v856q0 20 15.5 32.5t48.5 12.5h33q33 0 48.5 -12.5t15.5 -32.5v-856q0 -20 -15.5 -32.5t-48.5 -12.5h-33q-33 0 -48.5 12.5zM-5.5 1190q-26.5 26 -26.5 70q0 43 26.5 69t69.5 26t70 -26t27 -69q0 -44 -27 -70t-70 -26t-69.5 26z
M296.5 1190q-26.5 26 -26.5 70q0 43 26.5 69t69.5 26t70 -26t27 -69q0 -44 -27 -70t-70 -26t-69.5 26z" />
    <glyph glyph-name="i.loclTRK" horiz-adv-x="419" 
d="M116 0zM144.5 12.5q-15.5 12.5 -15.5 32.5v856q0 20 15.5 32.5t48.5 12.5h33q33 0 48.5 -12.5t15.5 -32.5v-856q0 -20 -15.5 -32.5t-48.5 -12.5h-33q-33 0 -48.5 12.5zM143 1191q-27 27 -27 72q0 44 27.5 70.5t71.5 26.5t71.5 -26.5t27.5 -70.5q0 -45 -27.5 -72
t-71.5 -27q-45 0 -72 27z" />
    <glyph glyph-name="igrave" unicode="&#xec;" horiz-adv-x="419" 
d="M0 0zM144.5 12.5q-15.5 12.5 -15.5 32.5v856q0 20 15.5 32.5t48.5 12.5h33q33 0 48.5 -12.5t15.5 -32.5v-856q0 -20 -15.5 -32.5t-48.5 -12.5h-33q-33 0 -48.5 12.5zM227 1138q-30 0 -57.5 16t-68.5 56l-108 104q-20 19 -20 39q0 18 15 29t41 11h45q25 0 42.5 -9.5
t35.5 -29.5l128 -137q24 -25 24 -47q0 -14 -11.5 -23t-30.5 -9h-35z" />
    <glyph glyph-name="imacron" unicode="&#x12b;" horiz-adv-x="419" 
d="M0 0zM144.5 12.5q-15.5 12.5 -15.5 32.5v856q0 20 15.5 32.5t48.5 12.5h33q33 0 48.5 -12.5t15.5 -32.5v-856q0 -20 -15.5 -32.5t-48.5 -12.5h-33q-33 0 -48.5 12.5zM-67.5 1239q-11.5 13 -11.5 39v23q0 26 11.5 39t29.5 13h506q18 0 29.5 -13t11.5 -39v-23
q0 -26 -11.5 -39t-29.5 -13h-506q-18 0 -29.5 13z" />
    <glyph glyph-name="iogonek" unicode="&#x12f;" horiz-adv-x="419" 
d="M143 1191q-27 27 -27 72q0 44 27.5 70.5t71.5 26.5t71.5 -26.5t27.5 -70.5q0 -45 -27.5 -72t-71.5 -27q-45 0 -72 27zM357 -189q8 -9 8 -25q0 -29 -29.5 -56.5t-80 -45.5t-109.5 -18q-81 0 -129 37t-48 105t53.5 122.5t124.5 79.5q-18 12 -18 35v856q0 20 15.5 32.5
t48.5 12.5h33q33 0 48.5 -12.5t15.5 -32.5v-856q0 -36 -43 -43q-62 -25 -102.5 -68t-40.5 -95q0 -65 74 -65q32 0 56.5 8t53.5 22q32 16 47 16q14 0 22 -9z" />
    <glyph glyph-name="ij" unicode="&#x133;" horiz-adv-x="841" 
d="M111 0zM138.5 1193.5q-27.5 26.5 -27.5 71.5q0 43 27.5 69.5t71.5 26.5q43 0 70.5 -26.5t27.5 -69.5q0 -44 -27.5 -71t-70.5 -27q-44 0 -71.5 26.5zM144.5 12.5q-15.5 12.5 -15.5 32.5v856q0 20 15.5 32.5t48.5 12.5h33q33 0 48.5 -12.5t15.5 -32.5v-856
q0 -20 -15.5 -32.5t-48.5 -12.5h-33q-33 0 -48.5 12.5zM559 1193.5q-27 26.5 -27 71.5q0 43 27 69.5t71 26.5t71.5 -26.5t27.5 -69.5q0 -45 -27.5 -71.5t-71.5 -26.5t-71 26.5zM335.5 -367.5q-30.5 21.5 -30.5 59.5v13q0 21 15 29t47 8q181 0 181 199v960q0 20 15.5 32.5
t48.5 12.5h33q33 0 48.5 -12.5t15.5 -32.5v-965q0 -102 -36 -175t-100.5 -111.5t-148.5 -38.5q-58 0 -88.5 21.5z" />
    <glyph glyph-name="j" unicode="j" horiz-adv-x="422" 
d="M140 1193.5q-27 26.5 -27 71.5q0 43 27 69.5t71 26.5t71.5 -26.5t27.5 -69.5q0 -45 -27.5 -71.5t-71.5 -26.5t-71 26.5zM-83.5 -367.5q-30.5 21.5 -30.5 59.5v13q0 21 15 29t47 8q181 0 181 199v960q0 20 15.5 32.5t48.5 12.5h33q33 0 48.5 -12.5t15.5 -32.5v-965
q0 -102 -36 -175t-100.5 -111.5t-148.5 -38.5q-58 0 -88.5 21.5z" />
    <glyph glyph-name="k" unicode="k" horiz-adv-x="1006" 
d="M144.5 12.5q-15.5 12.5 -15.5 32.5v1302q0 20 15.5 33t48.5 13h33q33 0 48.5 -13t15.5 -33v-1302q0 -20 -15.5 -32.5t-48.5 -12.5h-33q-33 0 -48.5 12.5zM708 45l-341 389q-16 21 -16 40q0 21 16 38l345 388q39 46 101 46h74q41 0 41 -20q0 -10 -13 -26l-402 -421
l402 -434q13 -15 13 -26q0 -19 -41 -19h-78q-63 0 -101 45z" />
    <glyph glyph-name="kcommaaccent" unicode="&#x137;" horiz-adv-x="1006" 
d="M129 0zM144.5 12.5q-15.5 12.5 -15.5 32.5v1302q0 20 15.5 33t48.5 13h33q33 0 48.5 -13t15.5 -33v-1302q0 -20 -15.5 -32.5t-48.5 -12.5h-33q-33 0 -48.5 12.5zM708 45l-341 389q-16 21 -16 40q0 21 16 38l345 388q39 46 101 46h74q41 0 41 -20q0 -10 -13 -26l-402 -421
l402 -434q13 -15 13 -26q0 -19 -41 -19h-78q-63 0 -101 45zM362 -411q-11 11 -11 31q0 11 5 29l62 191q8 25 26.5 39.5t45.5 14.5h33q27 0 42 -12t15 -33q0 -13 -6 -28l-55 -150q-19 -49 -36.5 -71t-45.5 -22h-46q-18 0 -29 11z" />
    <glyph glyph-name="l" unicode="l" horiz-adv-x="419" 
d="M144.5 12.5q-15.5 12.5 -15.5 32.5v1302q0 20 15.5 33t48.5 13h33q33 0 48.5 -13t15.5 -33v-1302q0 -20 -15.5 -32.5t-48.5 -12.5h-33q-33 0 -48.5 12.5z" />
    <glyph glyph-name="lacute" unicode="&#x13a;" horiz-adv-x="419" 
d="M117 0zM144.5 12.5q-15.5 12.5 -15.5 32.5v1302q0 20 15.5 33t48.5 13h33q33 0 48.5 -13t15.5 -33v-1302q0 -20 -15.5 -32.5t-48.5 -12.5h-33q-33 0 -48.5 12.5zM128.5 1517q-11.5 9 -11.5 24q0 21 24 46l127 137q18 20 36 29.5t43 9.5h45q25 0 40 -11t15 -28
q0 -21 -20 -40l-107 -104q-43 -40 -69.5 -56t-55.5 -16h-35q-20 0 -31.5 9z" />
    <glyph glyph-name="lcaron" unicode="&#x13e;" horiz-adv-x="499" 
d="M129 0zM144.5 12.5q-15.5 12.5 -15.5 32.5v1302q0 20 15.5 33t48.5 13h33q33 0 48.5 -13t15.5 -33v-1302q0 -20 -15.5 -32.5t-48.5 -12.5h-33q-33 0 -48.5 12.5zM393 1016q0 4 2 18l59 312q9 47 60 47h38q48 0 48 -43q0 -4 -2 -18l-67 -312q-4 -23 -20 -34.5t-40 -11.5
h-30q-48 0 -48 42z" />
    <glyph glyph-name="lcommaaccent" unicode="&#x13c;" horiz-adv-x="419" 
d="M45 0zM144.5 12.5q-15.5 12.5 -15.5 32.5v1302q0 20 15.5 33t48.5 13h33q33 0 48.5 -13t15.5 -33v-1302q0 -20 -15.5 -32.5t-48.5 -12.5h-33q-33 0 -48.5 12.5zM56 -411q-11 11 -11 31q0 11 5 29l62 191q8 25 26.5 39.5t45.5 14.5h33q27 0 42 -12t15 -33q0 -13 -6 -28
l-55 -150q-19 -49 -36.5 -71t-45.5 -22h-46q-18 0 -29 11z" />
    <glyph glyph-name="ldot" unicode="&#x140;" horiz-adv-x="593" 
d="M144.5 12.5q-15.5 12.5 -15.5 32.5v1302q0 20 15.5 33t48.5 13h33q33 0 48.5 -13t15.5 -33v-1302q0 -20 -15.5 -32.5t-48.5 -12.5h-33q-33 0 -48.5 12.5zM400 512q-22 25 -22 77q0 51 22.5 77t70.5 26t69.5 -25.5t21.5 -77.5t-21.5 -77t-70.5 -25q-48 0 -70 25z" />
    <glyph glyph-name="lslash" unicode="&#x142;" horiz-adv-x="419" 
d="M412.5 964q8.5 -10 8.5 -29v-29q0 -48 -43 -77l-88 -55v-729q0 -20 -15.5 -32.5t-48.5 -12.5h-33q-33 0 -48.5 12.5t-15.5 32.5v627l-54 -34q-25 -16 -44 -16q-15 0 -24 10.5t-9 29.5v27q0 48 43 77l88 55v526q0 20 15.5 33t48.5 13h33q33 0 48.5 -13t15.5 -33v-424
l54 34q26 17 45 17q15 0 23.5 -10z" />
    <glyph glyph-name="m" unicode="m" horiz-adv-x="1621" 
d="M1502 585v-540q0 -20 -15.5 -32.5t-48.5 -12.5h-34q-33 0 -48.5 12.5t-15.5 32.5v539q0 130 -53.5 188t-172.5 58q-85 0 -133.5 -25.5t-69 -78.5t-20.5 -142v-539q0 -20 -15 -32.5t-48 -12.5h-35q-33 0 -48.5 12.5t-15.5 32.5v539q0 89 -20.5 142t-69 78.5t-133.5 25.5
q-119 0 -172 -58t-53 -188v-539q0 -45 -68 -45h-30q-33 0 -48.5 12.5t-15.5 32.5v540q0 381 386 381q206 0 305 -116q99 116 305 116q387 0 387 -381z" />
    <glyph glyph-name="n" unicode="n" horiz-adv-x="1066" 
d="M135.5 2.5q-16.5 12.5 -16.5 32.5v552q0 186 101 282.5t313 96.5t313 -96.5t101 -282.5v-552q0 -20 -16.5 -32.5t-51.5 -12.5h-26q-35 0 -51.5 12.5t-16.5 32.5v551q0 88 -25 141.5t-80.5 79t-146.5 25.5t-146.5 -25.5t-80.5 -79t-25 -141.5v-551q0 -20 -16.5 -32.5
t-51.5 -12.5h-26q-35 0 -51.5 12.5z" />
    <glyph glyph-name="nacute" unicode="&#x144;" horiz-adv-x="1066" 
d="M119 0zM135.5 2.5q-16.5 12.5 -16.5 32.5v552q0 186 101 282.5t313 96.5t313 -96.5t101 -282.5v-552q0 -20 -16.5 -32.5t-51.5 -12.5h-26q-35 0 -51.5 12.5t-16.5 32.5v551q0 88 -25 141.5t-80.5 79t-146.5 25.5t-146.5 -25.5t-80.5 -79t-25 -141.5v-551
q0 -20 -16.5 -32.5t-51.5 -12.5h-26q-35 0 -51.5 12.5zM439.5 1147q-11.5 9 -11.5 24q0 21 24 46l127 137q18 20 36 29.5t43 9.5h45q25 0 40 -11t15 -28q0 -21 -20 -40l-107 -104q-43 -40 -69.5 -56t-55.5 -16h-35q-20 0 -31.5 9z" />
    <glyph glyph-name="ncaron" unicode="&#x148;" horiz-adv-x="1066" 
d="M119 0zM135.5 2.5q-16.5 12.5 -16.5 32.5v552q0 186 101 282.5t313 96.5t313 -96.5t101 -282.5v-552q0 -20 -16.5 -32.5t-51.5 -12.5h-26q-35 0 -51.5 12.5t-16.5 32.5v551q0 88 -25 141.5t-80.5 79t-146.5 25.5t-146.5 -25.5t-80.5 -79t-25 -141.5v-551
q0 -20 -16.5 -32.5t-51.5 -12.5h-26q-35 0 -51.5 12.5zM793.5 1384.5q12.5 -8.5 12.5 -23.5q0 -22 -25 -47l-137 -140q-32 -35 -79 -35h-89q-24 0 -43 8.5t-36 26.5l-139 140q-23 23 -23 44q0 16 13.5 25.5t38.5 9.5h15q29 0 48.5 -7t35.5 -20.5t46 -44.5l16 -16l73 -73
l72 73q39 40 57 56t39.5 24t53.5 8h15q23 0 35.5 -8.5z" />
    <glyph glyph-name="ncommaaccent" unicode="&#x146;" horiz-adv-x="1066" 
d="M119 0zM135.5 2.5q-16.5 12.5 -16.5 32.5v552q0 186 101 282.5t313 96.5t313 -96.5t101 -282.5v-552q0 -20 -16.5 -32.5t-51.5 -12.5h-26q-35 0 -51.5 12.5t-16.5 32.5v551q0 88 -25 141.5t-80.5 79t-146.5 25.5t-146.5 -25.5t-80.5 -79t-25 -141.5v-551
q0 -20 -16.5 -32.5t-51.5 -12.5h-26q-35 0 -51.5 12.5zM383 -411q-11 11 -11 31q0 11 5 29l62 191q8 25 26.5 39.5t45.5 14.5h33q27 0 42 -12t15 -33q0 -13 -6 -28l-55 -150q-19 -49 -36.5 -71t-45.5 -22h-46q-18 0 -29 11z" />
    <glyph glyph-name="eng" unicode="&#x14b;" horiz-adv-x="1058" 
d="M569 -367.5q-30 21.5 -30 59.5v15q0 21 15 29t47 8q177 0 177 199v643q0 88 -24.5 141.5t-79 79t-145.5 25.5q-133 0 -190.5 -58t-57.5 -188v-541q0 -20 -16.5 -32.5t-51.5 -12.5h-26q-35 0 -51.5 12.5t-16.5 32.5v540q0 187 99.5 284t310.5 97q212 0 311 -97t99 -284
v-649q0 -102 -35 -175.5t-99 -111.5t-148 -38q-58 0 -88 21.5z" />
    <glyph glyph-name="ntilde" unicode="&#xf1;" horiz-adv-x="1066" 
d="M119 0zM135.5 2.5q-16.5 12.5 -16.5 32.5v552q0 186 101 282.5t313 96.5t313 -96.5t101 -282.5v-552q0 -20 -16.5 -32.5t-51.5 -12.5h-26q-35 0 -51.5 12.5t-16.5 32.5v551q0 88 -25 141.5t-80.5 79t-146.5 25.5t-146.5 -25.5t-80.5 -79t-25 -141.5v-551
q0 -20 -16.5 -32.5t-51.5 -12.5h-26q-35 0 -51.5 12.5zM195.5 1191.5q-14.5 20.5 -14.5 52.5q0 39 22.5 76t67 60.5t107.5 23.5q58 0 96.5 -17t83.5 -50q33 -24 54.5 -34.5t48.5 -10.5q29 0 46 9t25 21.5t16 33.5q9 24 19 36t33 12q26 0 40.5 -21t14.5 -53q0 -39 -22 -75.5
t-66 -60t-106 -23.5q-52 0 -87 15.5t-76 45.5q-35 25 -61 37.5t-62 12.5q-41 0 -57.5 -16.5t-28.5 -47.5q-10 -24 -20 -35.5t-33 -11.5q-26 0 -40.5 20.5z" />
    <glyph glyph-name="o" unicode="o" horiz-adv-x="1093" 
d="M206.5 97.5q-107.5 117.5 -107.5 354.5v42q0 237 107.5 354.5t338.5 117.5q232 0 340.5 -117.5t108.5 -354.5v-42q0 -237 -108.5 -354.5t-340.5 -117.5q-231 0 -338.5 117.5zM711.5 146q61.5 34 90 108t28.5 198v42q0 124 -28.5 198t-90 108t-165.5 34t-166 -34t-90 -108
t-28 -199v-41q0 -124 28 -198t90 -108t166 -34t165.5 34z" />
    <glyph glyph-name="oacute" unicode="&#xf3;" horiz-adv-x="1093" 
d="M99 0zM206.5 97.5q-107.5 117.5 -107.5 354.5v42q0 237 107.5 354.5t338.5 117.5q232 0 340.5 -117.5t108.5 -354.5v-42q0 -237 -108.5 -354.5t-340.5 -117.5q-231 0 -338.5 117.5zM711.5 146q61.5 34 90 108t28.5 198v42q0 124 -28.5 198t-90 108t-165.5 34t-166 -34
t-90 -108t-28 -199v-41q0 -124 28 -198t90 -108t166 -34t165.5 34zM467.5 1147q-11.5 9 -11.5 24q0 21 24 46l127 137q18 20 36 29.5t43 9.5h45q25 0 40 -11t15 -28q0 -21 -20 -40l-107 -104q-43 -40 -69.5 -56t-55.5 -16h-35q-20 0 -31.5 9z" />
    <glyph glyph-name="ocircumflex" unicode="&#xf4;" horiz-adv-x="1093" 
d="M99 0zM206.5 97.5q-107.5 117.5 -107.5 354.5v42q0 237 107.5 354.5t338.5 117.5q232 0 340.5 -117.5t108.5 -354.5v-42q0 -237 -108.5 -354.5t-340.5 -117.5q-231 0 -338.5 117.5zM711.5 146q61.5 34 90 108t28.5 198v42q0 124 -28.5 198t-90 108t-165.5 34t-166 -34
t-90 -108t-28 -199v-41q0 -124 28 -198t90 -108t166 -34t165.5 34zM834 1170q0 -14 -12.5 -22.5t-35.5 -8.5h-15q-32 0 -53.5 8t-39.5 23.5t-57 55.5l-72 73l-73 -73q-7 -7 -37 -37.5t-53.5 -40t-55.5 -9.5h-15q-25 0 -38.5 9.5t-13.5 25.5q0 21 23 44l139 140
q17 18 36 26.5t43 8.5h89q47 0 79 -35l137 -140q25 -25 25 -48z" />
    <glyph glyph-name="odieresis" unicode="&#xf6;" horiz-adv-x="1093" 
d="M99 0zM206.5 97.5q-107.5 117.5 -107.5 354.5v42q0 237 107.5 354.5t338.5 117.5q232 0 340.5 -117.5t108.5 -354.5v-42q0 -237 -108.5 -354.5t-340.5 -117.5q-231 0 -338.5 117.5zM711.5 146q61.5 34 90 108t28.5 198v42q0 124 -28.5 198t-90 108t-165.5 34t-166 -34
t-90 -108t-28 -199v-41q0 -124 28 -198t90 -108t166 -34t165.5 34zM327.5 1190q-26.5 26 -26.5 70q0 43 26.5 69t69.5 26t70 -26t27 -69q0 -44 -27 -70t-70 -26t-69.5 26zM629.5 1190q-26.5 26 -26.5 70q0 43 26.5 69t69.5 26t70 -26t27 -69q0 -44 -27 -70t-70 -26t-69.5 26
z" />
    <glyph glyph-name="ograve" unicode="&#xf2;" horiz-adv-x="1093" 
d="M99 0zM206.5 97.5q-107.5 117.5 -107.5 354.5v42q0 237 107.5 354.5t338.5 117.5q232 0 340.5 -117.5t108.5 -354.5v-42q0 -237 -108.5 -354.5t-340.5 -117.5q-231 0 -338.5 117.5zM711.5 146q61.5 34 90 108t28.5 198v42q0 124 -28.5 198t-90 108t-165.5 34t-166 -34
t-90 -108t-28 -199v-41q0 -124 28 -198t90 -108t166 -34t165.5 34zM560 1138q-30 0 -57.5 16t-68.5 56l-108 104q-20 19 -20 39q0 18 15 29t41 11h45q25 0 42.5 -9.5t35.5 -29.5l128 -137q24 -25 24 -47q0 -14 -11.5 -23t-30.5 -9h-35z" />
    <glyph glyph-name="ohungarumlaut" unicode="&#x151;" horiz-adv-x="1093" 
d="M99 0zM206.5 97.5q-107.5 117.5 -107.5 354.5v42q0 237 107.5 354.5t338.5 117.5q232 0 340.5 -117.5t108.5 -354.5v-42q0 -237 -108.5 -354.5t-340.5 -117.5q-231 0 -338.5 117.5zM711.5 146q61.5 34 90 108t28.5 198v42q0 124 -28.5 198t-90 108t-165.5 34t-166 -34
t-90 -108t-28 -199v-41q0 -124 28 -198t90 -108t166 -34t165.5 34zM371 1155q0 22 30 58l118 140q16 21 34.5 30.5t43.5 9.5h31q26 0 41 -11t15 -29q0 -20 -19 -39l-90 -91q-47 -48 -81 -68.5t-65 -20.5h-28q-30 0 -30 21zM648 1154q0 23 34 59l135 143q17 20 35.5 28.5
t42.5 8.5h30q26 0 41 -10.5t15 -27.5q0 -21 -23 -41l-107 -96q-51 -45 -85 -64.5t-64 -19.5h-29q-25 0 -25 20z" />
    <glyph glyph-name="omacron" unicode="&#x14d;" horiz-adv-x="1093" 
d="M99 0zM206.5 97.5q-107.5 117.5 -107.5 354.5v42q0 237 107.5 354.5t338.5 117.5q232 0 340.5 -117.5t108.5 -354.5v-42q0 -237 -108.5 -354.5t-340.5 -117.5q-231 0 -338.5 117.5zM711.5 146q61.5 34 90 108t28.5 198v42q0 124 -28.5 198t-90 108t-165.5 34t-166 -34
t-90 -108t-28 -199v-41q0 -124 28 -198t90 -108t166 -34t165.5 34zM265.5 1239q-11.5 13 -11.5 39v23q0 26 11.5 39t29.5 13h506q18 0 29.5 -13t11.5 -39v-23q0 -26 -11.5 -39t-29.5 -13h-506q-18 0 -29.5 13z" />
    <glyph glyph-name="oslash" unicode="&#xf8;" horiz-adv-x="1093" 
d="M955 737.5q39 -99.5 39 -243.5v-42q0 -237 -108.5 -354.5t-340.5 -117.5q-73 0 -133 12l-33 -70q-11 -24 -28.5 -35t-44.5 -11h-17q-21 0 -32 10t-11 28q0 15 9 35l39 83q-100 52 -147.5 157t-47.5 263v42q0 237 107.5 354.5t338.5 117.5q102 0 177 -22l42 90
q10 24 28 35t45 11h4q26 0 40 -11t14 -30q0 -16 -8 -32l-53 -114q82 -56 121 -155.5zM284.5 270.5q22.5 -70.5 70.5 -108.5l308 658q-51 14 -117 14q-104 0 -166 -34t-90 -108t-28 -199v-41q0 -111 22.5 -181.5zM830 494q0 91 -15 154.5t-47 104.5l-298 -636q38 -5 76 -5
q104 0 165.5 34t90 108t28.5 198v42z" />
    <glyph glyph-name="otilde" unicode="&#xf5;" horiz-adv-x="1093" 
d="M99 0zM206.5 97.5q-107.5 117.5 -107.5 354.5v42q0 237 107.5 354.5t338.5 117.5q232 0 340.5 -117.5t108.5 -354.5v-42q0 -237 -108.5 -354.5t-340.5 -117.5q-231 0 -338.5 117.5zM711.5 146q61.5 34 90 108t28.5 198v42q0 124 -28.5 198t-90 108t-165.5 34t-166 -34
t-90 -108t-28 -199v-41q0 -124 28 -198t90 -108t166 -34t165.5 34zM223.5 1191.5q-14.5 20.5 -14.5 52.5q0 39 22.5 76t67 60.5t107.5 23.5q58 0 96.5 -17t83.5 -50q33 -24 54.5 -34.5t48.5 -10.5q29 0 46 9t25 21.5t16 33.5q9 24 19 36t33 12q26 0 40.5 -21t14.5 -53
q0 -39 -22 -75.5t-66 -60t-106 -23.5q-52 0 -87 15.5t-76 45.5q-35 25 -61 37.5t-62 12.5q-41 0 -57.5 -16.5t-28.5 -47.5q-10 -24 -20 -35.5t-33 -11.5q-26 0 -40.5 20.5z" />
    <glyph glyph-name="oe" unicode="&#x153;" horiz-adv-x="1767" 
d="M1647 94q2 -10 2 -13q0 -20 -24 -30l-58 -24q-112 -47 -267 -47q-125 0 -223 44.5t-157 133.5q-101 -178 -374 -178q-231 0 -339 118t-108 354v42q0 236 108 354t339 118q271 0 374 -177q56 86 147.5 131.5t212.5 45.5q187 0 287.5 -78t100.5 -215q0 -104 -48.5 -163.5
t-140.5 -85t-238 -29.5l-247 -7q19 -138 107.5 -203t224.5 -65q54 0 108.5 9t98.5 26l57 22q9 3 15 3q16 0 24 -26zM1065.5 755q-72.5 -78 -75.5 -249l212 5q115 3 177.5 11.5t101 40.5t38.5 99q0 77 -57.5 124t-180.5 47q-143 0 -215.5 -78zM829 494q0 123 -28 197
t-89.5 107.5t-165.5 33.5t-165.5 -34t-89.5 -107.5t-28 -197.5v-41q0 -124 28 -198t89.5 -108t165.5 -34t165.5 34t89.5 108t28 198v42z" />
    <glyph glyph-name="p" unicode="p" horiz-adv-x="1094" 
d="M890.5 849q105.5 -117 105.5 -355v-42q0 -236 -102 -354t-318 -118q-201 0 -295 114v-417q0 -20 -16.5 -33t-51.5 -13h-26q-35 0 -51.5 13t-16.5 33v817q0 239 102.5 355.5t332.5 116.5q231 0 336.5 -117zM833 494q0 124 -27 198t-87.5 108t-164.5 34q-103 0 -162.5 -34
t-85 -108t-25.5 -199v-41q0 -124 26.5 -198t85.5 -108t161 -34q104 0 164.5 34t87.5 108t27 198v42z" />
    <glyph glyph-name="thorn" unicode="&#xfe;" horiz-adv-x="1094" 
d="M893.5 848q101.5 -118 101.5 -354v-42q0 -236 -101.5 -354t-318.5 -118q-201 0 -294 114v-417q0 -20 -16.5 -33t-51.5 -13h-26q-35 0 -51.5 13t-16.5 33v1670q0 20 16.5 33t51.5 13h26q35 0 51.5 -13t16.5 -33v-495q93 114 294 114q217 0 318.5 -118zM833 494
q0 124 -27 198t-87.5 108t-164.5 34q-102 0 -161 -34t-85.5 -108t-26.5 -199v-41q0 -124 26.5 -198t85.5 -108t161 -34q104 0 164.5 34t87.5 108t27 198v42z" />
    <glyph glyph-name="q" unicode="q" horiz-adv-x="1094" 
d="M873 849q102 -117 102 -355v-819q0 -20 -16.5 -33t-51.5 -13h-26q-35 0 -51.5 13t-16.5 33v421q-92 -116 -294 -116q-217 0 -318.5 118t-101.5 354v42q0 238 105.5 355t336.5 117q230 0 332 -117zM701 147.5q59 33.5 85.5 107t26.5 197.5v41q0 125 -26.5 198.5t-85.5 107
t-161 33.5q-103 0 -164 -33.5t-88 -107t-27 -197.5v-42q0 -124 27 -197.5t88 -107t164 -33.5q102 0 161 33.5z" />
    <glyph glyph-name="r" unicode="r" horiz-adv-x="723" 
d="M135.5 12.5q-16.5 12.5 -16.5 32.5v520q0 187 99.5 284t310.5 97h54q18 0 30 -13t12 -38v-34q0 -26 -12 -38.5t-30 -12.5h-54q-92 0 -147 -24.5t-80 -77.5t-25 -141v-522q0 -20 -16.5 -32.5t-51.5 -12.5h-22q-35 0 -51.5 12.5z" />
    <glyph glyph-name="racute" unicode="&#x155;" horiz-adv-x="723" 
d="M119 0zM135.5 12.5q-16.5 12.5 -16.5 32.5v520q0 187 99.5 284t310.5 97h54q18 0 30 -13t12 -38v-34q0 -26 -12 -38.5t-30 -12.5h-54q-92 0 -147 -24.5t-80 -77.5t-25 -141v-522q0 -20 -16.5 -32.5t-51.5 -12.5h-22q-35 0 -51.5 12.5zM343.5 1147q-11.5 9 -11.5 24
q0 21 24 46l127 137q18 20 36 29.5t43 9.5h45q25 0 40 -11t15 -28q0 -21 -20 -40l-107 -104q-43 -40 -69.5 -56t-55.5 -16h-35q-20 0 -31.5 9z" />
    <glyph glyph-name="rcaron" unicode="&#x159;" horiz-adv-x="723" 
d="M119 0zM135.5 12.5q-16.5 12.5 -16.5 32.5v520q0 187 99.5 284t310.5 97h54q18 0 30 -13t12 -38v-34q0 -26 -12 -38.5t-30 -12.5h-54q-92 0 -147 -24.5t-80 -77.5t-25 -141v-522q0 -20 -16.5 -32.5t-51.5 -12.5h-22q-35 0 -51.5 12.5zM697.5 1384.5q12.5 -8.5 12.5 -23.5
q0 -22 -25 -47l-137 -140q-32 -35 -79 -35h-89q-24 0 -43 8.5t-36 26.5l-139 140q-23 23 -23 44q0 16 13.5 25.5t38.5 9.5h15q29 0 48.5 -7t35.5 -20.5t46 -44.5l16 -16l73 -73l72 73q39 40 57 56t39.5 24t53.5 8h15q23 0 35.5 -8.5z" />
    <glyph glyph-name="rcommaaccent" unicode="&#x157;" horiz-adv-x="723" 
d="M39 0zM135.5 12.5q-16.5 12.5 -16.5 32.5v520q0 187 99.5 284t310.5 97h54q18 0 30 -13t12 -38v-34q0 -26 -12 -38.5t-30 -12.5h-54q-92 0 -147 -24.5t-80 -77.5t-25 -141v-522q0 -20 -16.5 -32.5t-51.5 -12.5h-22q-35 0 -51.5 12.5zM50 -411q-11 11 -11 31q0 11 5 29
l62 191q8 25 26.5 39.5t45.5 14.5h33q27 0 42 -12t15 -33q0 -13 -6 -28l-55 -150q-19 -49 -36.5 -71t-45.5 -22h-46q-18 0 -29 11z" />
    <glyph glyph-name="s" unicode="s" horiz-adv-x="944" 
d="M187 44l-64 26q-25 11 -25 31q0 5 2 15l15 56q8 29 26 29q5 0 17 -4l64 -26q61 -24 133.5 -40t138.5 -16q97 0 144 31.5t47 95.5q0 37 -18 60.5t-47 37.5t-79 31l-161 55q-75 25 -128 54t-88.5 81t-35.5 132t40.5 141.5t119 96.5t187.5 35q71 0 139 -13t121 -35l58 -25
q24 -9 24 -30q0 -5 -2 -15l-14 -58q-8 -29 -26 -29q-5 0 -17 4l-58 23q-99 39 -215 39q-105 0 -150.5 -34t-45.5 -95q0 -44 19 -70t47 -40t78 -30l156 -53q84 -28 135 -53.5t86.5 -74.5t35.5 -128q0 -83 -41 -144t-118.5 -93.5t-185.5 -32.5q-151 0 -314 65z" />
    <glyph glyph-name="sacute" unicode="&#x15b;" horiz-adv-x="944" 
d="M98 0zM187 44l-64 26q-25 11 -25 31q0 5 2 15l15 56q8 29 26 29q5 0 17 -4l64 -26q61 -24 133.5 -40t138.5 -16q97 0 144 31.5t47 95.5q0 37 -18 60.5t-47 37.5t-79 31l-161 55q-75 25 -128 54t-88.5 81t-35.5 132t40.5 141.5t119 96.5t187.5 35q71 0 139 -13t121 -35
l58 -25q24 -9 24 -30q0 -5 -2 -15l-14 -58q-8 -29 -26 -29q-5 0 -17 4l-58 23q-99 39 -215 39q-105 0 -150.5 -34t-45.5 -95q0 -44 19 -70t47 -40t78 -30l156 -53q84 -28 135 -53.5t86.5 -74.5t35.5 -128q0 -83 -41 -144t-118.5 -93.5t-185.5 -32.5q-151 0 -314 65z
M416.5 1147q-11.5 9 -11.5 24q0 21 24 46l127 137q18 20 36 29.5t43 9.5h45q25 0 40 -11t15 -28q0 -21 -20 -40l-107 -104q-43 -40 -69.5 -56t-55.5 -16h-35q-20 0 -31.5 9z" />
    <glyph glyph-name="scaron" unicode="&#x161;" horiz-adv-x="944" 
d="M98 0zM187 44l-64 26q-25 11 -25 31q0 5 2 15l15 56q8 29 26 29q5 0 17 -4l64 -26q61 -24 133.5 -40t138.5 -16q97 0 144 31.5t47 95.5q0 37 -18 60.5t-47 37.5t-79 31l-161 55q-75 25 -128 54t-88.5 81t-35.5 132t40.5 141.5t119 96.5t187.5 35q71 0 139 -13t121 -35
l58 -25q24 -9 24 -30q0 -5 -2 -15l-14 -58q-8 -29 -26 -29q-5 0 -17 4l-58 23q-99 39 -215 39q-105 0 -150.5 -34t-45.5 -95q0 -44 19 -70t47 -40t78 -30l156 -53q84 -28 135 -53.5t86.5 -74.5t35.5 -128q0 -83 -41 -144t-118.5 -93.5t-185.5 -32.5q-151 0 -314 65z
M770.5 1384.5q12.5 -8.5 12.5 -23.5q0 -22 -25 -47l-137 -140q-32 -35 -79 -35h-89q-24 0 -43 8.5t-36 26.5l-139 140q-23 23 -23 44q0 16 13.5 25.5t38.5 9.5h15q29 0 48.5 -7t35.5 -20.5t46 -44.5l16 -16l73 -73l72 73q39 40 57 56t39.5 24t53.5 8h15q23 0 35.5 -8.5z" />
    <glyph glyph-name="scedilla" unicode="&#x15f;" horiz-adv-x="944" 
d="M523 -40q-5 -8 -8.5 -16.5t-3.5 -16.5q0 -18 16 -27.5t49 -18.5q38 -10 63 -22t43 -39t18 -73q0 -73 -61.5 -115t-175.5 -42q-59 0 -109 19.5t-79.5 48.5t-29.5 57q0 16 8 25t22 9q10 0 20.5 -4.5t27.5 -13.5q32 -18 63.5 -29t76.5 -11q109 0 109 61q0 27 -20 40t-61 25
q-31 10 -49 18t-31 23.5t-13 41.5q0 15 5.5 27t16.5 30l15 25q-121 11 -248 62l-64 26q-25 11 -25 31q0 5 2 15l15 56q8 29 26 29q5 0 17 -4l64 -26q61 -24 133.5 -40t138.5 -16q97 0 144 31.5t47 95.5q0 37 -18 60.5t-47 37.5t-79 31l-161 55q-75 25 -128 54t-88.5 81
t-35.5 132t40.5 141.5t119 96.5t187.5 35q71 0 139 -13t121 -35l58 -25q24 -9 24 -30q0 -5 -2 -15l-14 -58q-8 -29 -26 -29q-5 0 -17 4l-58 23q-99 39 -215 39q-105 0 -150.5 -34t-45.5 -95q0 -44 19 -70t47 -40t78 -30l156 -53q84 -28 135 -53.5t86.5 -74.5t35.5 -128
q0 -119 -82 -190.5t-229 -78.5z" />
    <glyph glyph-name="scommaaccent" unicode="&#x219;" horiz-adv-x="944" 
d="M98 0zM187 44l-64 26q-25 11 -25 31q0 5 2 15l15 56q8 29 26 29q5 0 17 -4l64 -26q61 -24 133.5 -40t138.5 -16q97 0 144 31.5t47 95.5q0 37 -18 60.5t-47 37.5t-79 31l-161 55q-75 25 -128 54t-88.5 81t-35.5 132t40.5 141.5t119 96.5t187.5 35q71 0 139 -13t121 -35
l58 -25q24 -9 24 -30q0 -5 -2 -15l-14 -58q-8 -29 -26 -29q-5 0 -17 4l-58 23q-99 39 -215 39q-105 0 -150.5 -34t-45.5 -95q0 -44 19 -70t47 -40t78 -30l156 -53q84 -28 135 -53.5t86.5 -74.5t35.5 -128q0 -83 -41 -144t-118.5 -93.5t-185.5 -32.5q-151 0 -314 65z
M349 -411q-11 11 -11 31q0 11 5 29l62 191q8 25 26.5 39.5t45.5 14.5h33q27 0 42 -12t15 -33q0 -13 -6 -28l-55 -150q-19 -49 -36.5 -71t-45.5 -22h-46q-18 0 -29 11z" />
    <glyph glyph-name="germandbls" unicode="&#xdf;" horiz-adv-x="1039" 
d="M144 12.5q-15 12.5 -15 32.5v879q0 138 65.5 249.5t182 175.5t263.5 64q100 0 170 -35.5t105 -98.5t35 -145q0 -78 -30 -137t-72 -98t-107 -85q-64 -45 -94.5 -77.5t-30.5 -72.5q0 -35 29.5 -58t91.5 -52q67 -32 109 -60.5t73 -79t31 -125.5q0 -91 -44 -156.5t-120.5 -99
t-174.5 -33.5h-121q-18 0 -30 12.5t-12 38.5v29q0 26 12 38.5t30 12.5h64q118 0 177.5 32.5t59.5 119.5q0 48 -22 80.5t-54 53t-86 46.5q-57 28 -89.5 49t-55 55.5t-22.5 85.5q0 49 21.5 88.5t52.5 68.5t86 71q55 41 88 72t56 73t23 95q0 76 -42 116.5t-124 40.5
q-93 0 -169 -43.5t-120 -125.5t-44 -195v-869q0 -45 -67 -45h-31q-33 0 -48 12.5z" />
    <glyph glyph-name="t" unicode="t" horiz-adv-x="769" 
d="M372 820v-468q0 -121 48 -172t153 -51h103q18 0 30 -13t12 -39v-26q0 -25 -12 -38t-30 -13h-124q-164 0 -251 81t-87 240v499h-132q-18 0 -30 12.5t-12 38.5v24q0 25 12 38t30 13h132v237q0 20 15.5 32.5t48.5 12.5h30q33 0 48.5 -12.5t15.5 -32.5v-237h304q18 0 30 -13
t12 -38v-24q0 -26 -12 -38.5t-30 -12.5h-304z" />
    <glyph glyph-name="tbar" unicode="&#x167;" horiz-adv-x="769" 
d="M372 820v-208h304q18 0 30 -12.5t12 -38.5v-24q0 -26 -12 -38.5t-30 -12.5h-304v-134q0 -121 48 -172t153 -51h103q18 0 30 -13t12 -39v-26q0 -25 -12 -38t-30 -13h-124q-164 0 -251 81t-87 240v165h-132q-18 0 -30 13t-12 38v24q0 26 12 38.5t30 12.5h132v208h-132
q-18 0 -30 12.5t-12 38.5v24q0 25 12 38t30 13h132v237q0 20 15.5 32.5t48.5 12.5h30q33 0 48.5 -12.5t15.5 -32.5v-237h304q18 0 30 -13t12 -38v-24q0 -26 -12 -38.5t-30 -12.5h-304z" />
    <glyph glyph-name="tcaron" unicode="&#x165;" horiz-adv-x="769" 
d="M499 1122q0 10 3 20l61 204q11 47 60 47h41q23 0 36 -11t13 -30q0 -9 -3 -20l-64 -205q-7 -22 -22.5 -34t-38.5 -12h-37q-49 0 -49 41zM372 820v-468q0 -121 48 -172t153 -51h103q18 0 30 -13t12 -39v-26q0 -25 -12 -38t-30 -13h-124q-164 0 -251 81t-87 240v499h-132
q-18 0 -30 12.5t-12 38.5v24q0 25 12 38t30 13h132v237q0 20 15.5 32.5t48.5 12.5h30q33 0 48.5 -12.5t15.5 -32.5v-237h304q18 0 30 -13t12 -38v-24q0 -26 -12 -38.5t-30 -12.5h-304z" />
    <glyph glyph-name="uni0163" unicode="&#x163;" horiz-adv-x="769" 
d="M372 820v-468q0 -121 48 -172t153 -51h103q18 0 30 -13t12 -39v-26q0 -25 -12 -38t-30 -13h-124q-17 0 -26 1l-24 -41q-5 -8 -8.5 -16.5t-3.5 -16.5q0 -18 16 -27.5t49 -18.5q38 -10 63 -22t43 -39t18 -73q0 -73 -61.5 -115t-175.5 -42q-59 0 -109 19.5t-79.5 48.5
t-29.5 57q0 16 8 25t22 9q10 0 20.5 -4.5t27.5 -13.5q32 -18 63.5 -29t76.5 -11q109 0 109 61q0 27 -20 40t-61 25q-31 10 -49 18t-31 23.5t-13 41.5q0 15 5.5 27t16.5 30l33 56q-106 26 -162 103.5t-56 204.5v499h-132q-18 0 -30 12.5t-12 38.5v24q0 25 12 38t30 13h132
v237q0 20 15.5 32.5t48.5 12.5h30q33 0 48.5 -12.5t15.5 -32.5v-237h304q18 0 30 -13t12 -38v-24q0 -26 -12 -38.5t-30 -12.5h-304z" />
    <glyph glyph-name="uni021B" unicode="&#x21b;" horiz-adv-x="769" 
d="M40 0zM372 820v-468q0 -121 48 -172t153 -51h103q18 0 30 -13t12 -39v-26q0 -25 -12 -38t-30 -13h-124q-164 0 -251 81t-87 240v499h-132q-18 0 -30 12.5t-12 38.5v24q0 25 12 38t30 13h132v237q0 20 15.5 32.5t48.5 12.5h30q33 0 48.5 -12.5t15.5 -32.5v-237h304
q18 0 30 -13t12 -38v-24q0 -26 -12 -38.5t-30 -12.5h-304zM328 -411q-11 11 -11 31q0 11 5 29l62 191q8 25 26.5 39.5t45.5 14.5h33q27 0 42 -12t15 -33q0 -13 -6 -28l-55 -150q-19 -49 -36.5 -71t-45.5 -22h-46q-18 0 -29 11z" />
    <glyph glyph-name="u" unicode="u" horiz-adv-x="1039" 
d="M119 361v540q0 20 16.5 32.5t51.5 12.5h26q35 0 51.5 -12.5t16.5 -32.5v-541q0 -130 56 -188t183 -58q89 0 141 25.5t74.5 78.5t22.5 142v541q0 20 16.5 32.5t51.5 12.5h26q35 0 51.5 -12.5t16.5 -32.5v-540q0 -188 -95 -284.5t-305 -96.5q-401 0 -401 381z" />
    <glyph glyph-name="uacute" unicode="&#xfa;" horiz-adv-x="1039" 
d="M119 0zM119 361v540q0 20 16.5 32.5t51.5 12.5h26q35 0 51.5 -12.5t16.5 -32.5v-541q0 -130 56 -188t183 -58q89 0 141 25.5t74.5 78.5t22.5 142v541q0 20 16.5 32.5t51.5 12.5h26q35 0 51.5 -12.5t16.5 -32.5v-540q0 -188 -95 -284.5t-305 -96.5q-401 0 -401 381z
M447.5 1147q-11.5 9 -11.5 24q0 21 24 46l127 137q18 20 36 29.5t43 9.5h45q25 0 40 -11t15 -28q0 -21 -20 -40l-107 -104q-43 -40 -69.5 -56t-55.5 -16h-35q-20 0 -31.5 9z" />
    <glyph glyph-name="ucircumflex" unicode="&#xfb;" horiz-adv-x="1039" 
d="M119 0zM119 361v540q0 20 16.5 32.5t51.5 12.5h26q35 0 51.5 -12.5t16.5 -32.5v-541q0 -130 56 -188t183 -58q89 0 141 25.5t74.5 78.5t22.5 142v541q0 20 16.5 32.5t51.5 12.5h26q35 0 51.5 -12.5t16.5 -32.5v-540q0 -188 -95 -284.5t-305 -96.5q-401 0 -401 381z
M814 1170q0 -14 -12.5 -22.5t-35.5 -8.5h-15q-32 0 -53.5 8t-39.5 23.5t-57 55.5l-72 73l-73 -73q-7 -7 -37 -37.5t-53.5 -40t-55.5 -9.5h-15q-25 0 -38.5 9.5t-13.5 25.5q0 21 23 44l139 140q17 18 36 26.5t43 8.5h89q47 0 79 -35l137 -140q25 -25 25 -48z" />
    <glyph glyph-name="udieresis" unicode="&#xfc;" horiz-adv-x="1039" 
d="M119 0zM119 361v540q0 20 16.5 32.5t51.5 12.5h26q35 0 51.5 -12.5t16.5 -32.5v-541q0 -130 56 -188t183 -58q89 0 141 25.5t74.5 78.5t22.5 142v541q0 20 16.5 32.5t51.5 12.5h26q35 0 51.5 -12.5t16.5 -32.5v-540q0 -188 -95 -284.5t-305 -96.5q-401 0 -401 381z
M307.5 1190q-26.5 26 -26.5 70q0 43 26.5 69t69.5 26t70 -26t27 -69q0 -44 -27 -70t-70 -26t-69.5 26zM609.5 1190q-26.5 26 -26.5 70q0 43 26.5 69t69.5 26t70 -26t27 -69q0 -44 -27 -70t-70 -26t-69.5 26z" />
    <glyph glyph-name="ugrave" unicode="&#xf9;" horiz-adv-x="1039" 
d="M119 0zM119 361v540q0 20 16.5 32.5t51.5 12.5h26q35 0 51.5 -12.5t16.5 -32.5v-541q0 -130 56 -188t183 -58q89 0 141 25.5t74.5 78.5t22.5 142v541q0 20 16.5 32.5t51.5 12.5h26q35 0 51.5 -12.5t16.5 -32.5v-540q0 -188 -95 -284.5t-305 -96.5q-401 0 -401 381z
M540 1138q-30 0 -57.5 16t-68.5 56l-108 104q-20 19 -20 39q0 18 15 29t41 11h45q25 0 42.5 -9.5t35.5 -29.5l128 -137q24 -25 24 -47q0 -14 -11.5 -23t-30.5 -9h-35z" />
    <glyph glyph-name="uhungarumlaut" unicode="&#x171;" horiz-adv-x="1039" 
d="M119 0zM119 361v540q0 20 16.5 32.5t51.5 12.5h26q35 0 51.5 -12.5t16.5 -32.5v-541q0 -130 56 -188t183 -58q89 0 141 25.5t74.5 78.5t22.5 142v541q0 20 16.5 32.5t51.5 12.5h26q35 0 51.5 -12.5t16.5 -32.5v-540q0 -188 -95 -284.5t-305 -96.5q-401 0 -401 381z
M351 1155q0 22 30 58l118 140q16 21 34.5 30.5t43.5 9.5h31q26 0 41 -11t15 -29q0 -20 -19 -39l-90 -91q-47 -48 -81 -68.5t-65 -20.5h-28q-30 0 -30 21zM628 1154q0 23 34 59l135 143q17 20 35.5 28.5t42.5 8.5h30q26 0 41 -10.5t15 -27.5q0 -21 -23 -41l-107 -96
q-51 -45 -85 -64.5t-64 -19.5h-29q-25 0 -25 20z" />
    <glyph glyph-name="umacron" unicode="&#x16b;" horiz-adv-x="1039" 
d="M119 0zM119 361v540q0 20 16.5 32.5t51.5 12.5h26q35 0 51.5 -12.5t16.5 -32.5v-541q0 -130 56 -188t183 -58q89 0 141 25.5t74.5 78.5t22.5 142v541q0 20 16.5 32.5t51.5 12.5h26q35 0 51.5 -12.5t16.5 -32.5v-540q0 -188 -95 -284.5t-305 -96.5q-401 0 -401 381z
M245.5 1239q-11.5 13 -11.5 39v23q0 26 11.5 39t29.5 13h506q18 0 29.5 -13t11.5 -39v-23q0 -26 -11.5 -39t-29.5 -13h-506q-18 0 -29.5 13z" />
    <glyph glyph-name="uogonek" unicode="&#x173;" horiz-adv-x="1039" 
d="M903.5 933.5q16.5 -12.5 16.5 -32.5v-540q0 -145 -55.5 -235.5t-174.5 -124.5v-1q-68 -22 -116 -68t-48 -102q0 -65 74 -65q32 0 56.5 8t53.5 22q32 16 47 16q14 0 22 -9t8 -25q0 -29 -29.5 -56.5t-80 -45.5t-109.5 -18q-81 0 -129 37t-48 105q0 55 37 102.5t93 78.5h-1
q-401 0 -401 381v540q0 20 16.5 32.5t51.5 12.5h26q35 0 51.5 -12.5t16.5 -32.5v-541q0 -130 56 -188t183 -58q89 0 141 25.5t74.5 78.5t22.5 142v541q0 20 16.5 32.5t51.5 12.5h26q35 0 51.5 -12.5z" />
    <glyph glyph-name="uring" unicode="&#x16f;" horiz-adv-x="1039" 
d="M119 0zM119 361v540q0 20 16.5 32.5t51.5 12.5h26q35 0 51.5 -12.5t16.5 -32.5v-541q0 -130 56 -188t183 -58q89 0 141 25.5t74.5 78.5t22.5 142v541q0 20 16.5 32.5t51.5 12.5h26q35 0 51.5 -12.5t16.5 -32.5v-540q0 -188 -95 -284.5t-305 -96.5q-401 0 -401 381z
M415.5 1120q-47.5 26 -73.5 70.5t-26 100.5q0 55 26 100t73.5 71t110.5 26q65 0 113 -26t74 -71t26 -100q0 -56 -26 -100.5t-74 -70.5t-113 -26q-63 0 -110.5 26zM613.5 1209.5q32.5 32.5 32.5 82.5q0 47 -33 79.5t-83 32.5t-82 -32.5t-32 -79.5q0 -51 31.5 -83t82.5 -32
t83.5 32.5z" />
    <glyph glyph-name="v" unicode="v" horiz-adv-x="1032" 
d="M416 16.5q-32 26.5 -50 84.5l-275 797q-3 8 -3 15q0 15 14 24t43 9h42q68 0 82 -48l233 -753q3 -8 7 -11t11 -3t11 3t7 11l235 753q16 48 82 48h32q29 0 43 -9t14 -24q0 -7 -3 -15l-276 -797q-18 -57 -48.5 -84t-80.5 -27h-33q-55 0 -87 26.5z" />
    <glyph glyph-name="w" unicode="w" horiz-adv-x="1523" 
d="M1420 937.5q12 -8.5 12 -22.5q0 -4 -2 -14l-226 -814q-23 -97 -112 -97h-27q-47 0 -77.5 27t-40.5 70l-178 647l-193 -647q-28 -97 -117 -97h-27q-49 0 -77.5 26.5t-39.5 70.5l-226 814q-2 8 -2 13q0 32 50 32h47q65 0 75 -40l177 -758q2 -14 19 -14q6 0 9.5 2.5
t6.5 11.5l213 753q5 20 24 32.5t51 12.5h26q32 0 50.5 -12.5t23.5 -32.5l205 -753q3 -9 6.5 -11.5t9.5 -2.5q17 0 18 14l177 758q10 40 76 40h31q26 0 38 -8.5z" />
    <glyph glyph-name="wacute" unicode="&#x1e83;" horiz-adv-x="1523" 
d="M87 0zM1420 937.5q12 -8.5 12 -22.5q0 -4 -2 -14l-226 -814q-23 -97 -112 -97h-27q-47 0 -77.5 27t-40.5 70l-178 647l-193 -647q-28 -97 -117 -97h-27q-49 0 -77.5 26.5t-39.5 70.5l-226 814q-2 8 -2 13q0 32 50 32h47q65 0 75 -40l177 -758q2 -14 19 -14q6 0 9.5 2.5
t6.5 11.5l213 753q5 20 24 32.5t51 12.5h26q32 0 50.5 -12.5t23.5 -32.5l205 -753q3 -9 6.5 -11.5t9.5 -2.5q17 0 18 14l177 758q10 40 76 40h31q26 0 38 -8.5zM690.5 1147q-11.5 9 -11.5 24q0 21 24 46l127 137q18 20 36 29.5t43 9.5h45q25 0 40 -11t15 -28q0 -21 -20 -40
l-107 -104q-43 -40 -69.5 -56t-55.5 -16h-35q-20 0 -31.5 9z" />
    <glyph glyph-name="wcircumflex" unicode="&#x175;" horiz-adv-x="1523" 
d="M87 0zM1420 937.5q12 -8.5 12 -22.5q0 -4 -2 -14l-226 -814q-23 -97 -112 -97h-27q-47 0 -77.5 27t-40.5 70l-178 647l-193 -647q-28 -97 -117 -97h-27q-49 0 -77.5 26.5t-39.5 70.5l-226 814q-2 8 -2 13q0 32 50 32h47q65 0 75 -40l177 -758q2 -14 19 -14q6 0 9.5 2.5
t6.5 11.5l213 753q5 20 24 32.5t51 12.5h26q32 0 50.5 -12.5t23.5 -32.5l205 -753q3 -9 6.5 -11.5t9.5 -2.5q17 0 18 14l177 758q10 40 76 40h31q26 0 38 -8.5zM1057 1170q0 -14 -12.5 -22.5t-35.5 -8.5h-15q-32 0 -53.5 8t-39.5 23.5t-57 55.5l-72 73l-73 -73
q-7 -7 -37 -37.5t-53.5 -40t-55.5 -9.5h-15q-25 0 -38.5 9.5t-13.5 25.5q0 21 23 44l139 140q17 18 36 26.5t43 8.5h89q47 0 79 -35l137 -140q25 -25 25 -48z" />
    <glyph glyph-name="wdieresis" unicode="&#x1e85;" horiz-adv-x="1523" 
d="M87 0zM1420 937.5q12 -8.5 12 -22.5q0 -4 -2 -14l-226 -814q-23 -97 -112 -97h-27q-47 0 -77.5 27t-40.5 70l-178 647l-193 -647q-28 -97 -117 -97h-27q-49 0 -77.5 26.5t-39.5 70.5l-226 814q-2 8 -2 13q0 32 50 32h47q65 0 75 -40l177 -758q2 -14 19 -14q6 0 9.5 2.5
t6.5 11.5l213 753q5 20 24 32.5t51 12.5h26q32 0 50.5 -12.5t23.5 -32.5l205 -753q3 -9 6.5 -11.5t9.5 -2.5q17 0 18 14l177 758q10 40 76 40h31q26 0 38 -8.5zM550.5 1190q-26.5 26 -26.5 70q0 43 26.5 69t69.5 26t70 -26t27 -69q0 -44 -27 -70t-70 -26t-69.5 26z
M852.5 1190q-26.5 26 -26.5 70q0 43 26.5 69t69.5 26t70 -26t27 -69q0 -44 -27 -70t-70 -26t-69.5 26z" />
    <glyph glyph-name="wgrave" unicode="&#x1e81;" horiz-adv-x="1523" 
d="M87 0zM1420 937.5q12 -8.5 12 -22.5q0 -4 -2 -14l-226 -814q-23 -97 -112 -97h-27q-47 0 -77.5 27t-40.5 70l-178 647l-193 -647q-28 -97 -117 -97h-27q-49 0 -77.5 26.5t-39.5 70.5l-226 814q-2 8 -2 13q0 32 50 32h47q65 0 75 -40l177 -758q2 -14 19 -14q6 0 9.5 2.5
t6.5 11.5l213 753q5 20 24 32.5t51 12.5h26q32 0 50.5 -12.5t23.5 -32.5l205 -753q3 -9 6.5 -11.5t9.5 -2.5q17 0 18 14l177 758q10 40 76 40h31q26 0 38 -8.5zM783 1138q-30 0 -57.5 16t-68.5 56l-108 104q-20 19 -20 39q0 18 15 29t41 11h45q25 0 42.5 -9.5t35.5 -29.5
l128 -137q24 -25 24 -47q0 -14 -11.5 -23t-30.5 -9h-35z" />
    <glyph glyph-name="x" unicode="x" horiz-adv-x="1005" 
d="M923 31q0 -13 -14.5 -22t-40.5 -9h-64q-32 0 -49 11.5t-31 33.5l-228 328l-234 -328q-13 -21 -30 -33t-49 -12h-47q-26 0 -41 9t-15 22q0 9 6 18l308 426l-304 422q-6 9 -6 18q0 13 15 22t41 9h64q32 0 49 -12t30 -33l225 -321l225 321q14 22 31 33.5t49 11.5h47
q26 0 40.5 -9t14.5 -22q0 -9 -6 -18l-303 -417l311 -431q6 -9 6 -18z" />
    <glyph glyph-name="y" unicode="y" horiz-adv-x="984" 
d="M925 915q0 -6 -3 -14l-350 -913q-67 -177 -166.5 -267t-235.5 -90h-67q-18 0 -29.5 13t-11.5 39v23q0 26 11.5 39t29.5 13h43q95 0 161 60.5t113 182.5l16 42l-350 858q-3 8 -3 15q0 14 13 22t39 8h46q63 0 80 -45l259 -660l240 660q17 45 80 45h32q53 0 53 -31z" />
    <glyph glyph-name="yacute" unicode="&#xfd;" horiz-adv-x="984" 
d="M62 0zM925 915q0 -6 -3 -14l-350 -913q-67 -177 -166.5 -267t-235.5 -90h-67q-18 0 -29.5 13t-11.5 39v23q0 26 11.5 39t29.5 13h43q95 0 161 60.5t113 182.5l16 42l-350 858q-3 8 -3 15q0 14 13 22t39 8h46q63 0 80 -45l259 -660l240 660q17 45 80 45h32q53 0 53 -31z
M427.5 1147q-11.5 9 -11.5 24q0 21 24 46l127 137q18 20 36 29.5t43 9.5h45q25 0 40 -11t15 -28q0 -21 -20 -40l-107 -104q-43 -40 -69.5 -56t-55.5 -16h-35q-20 0 -31.5 9z" />
    <glyph glyph-name="ycircumflex" unicode="&#x177;" horiz-adv-x="984" 
d="M62 0zM925 915q0 -6 -3 -14l-350 -913q-67 -177 -166.5 -267t-235.5 -90h-67q-18 0 -29.5 13t-11.5 39v23q0 26 11.5 39t29.5 13h43q95 0 161 60.5t113 182.5l16 42l-350 858q-3 8 -3 15q0 14 13 22t39 8h46q63 0 80 -45l259 -660l240 660q17 45 80 45h32q53 0 53 -31z
M794 1170q0 -14 -12.5 -22.5t-35.5 -8.5h-15q-32 0 -53.5 8t-39.5 23.5t-57 55.5l-72 73l-73 -73q-7 -7 -37 -37.5t-53.5 -40t-55.5 -9.5h-15q-25 0 -38.5 9.5t-13.5 25.5q0 21 23 44l139 140q17 18 36 26.5t43 8.5h89q47 0 79 -35l137 -140q25 -25 25 -48z" />
    <glyph glyph-name="ydieresis" unicode="&#xff;" horiz-adv-x="984" 
d="M62 0zM925 915q0 -6 -3 -14l-350 -913q-67 -177 -166.5 -267t-235.5 -90h-67q-18 0 -29.5 13t-11.5 39v23q0 26 11.5 39t29.5 13h43q95 0 161 60.5t113 182.5l16 42l-350 858q-3 8 -3 15q0 14 13 22t39 8h46q63 0 80 -45l259 -660l240 660q17 45 80 45h32q53 0 53 -31z
M287.5 1190q-26.5 26 -26.5 70q0 43 26.5 69t69.5 26t70 -26t27 -69q0 -44 -27 -70t-70 -26t-69.5 26zM589.5 1190q-26.5 26 -26.5 70q0 43 26.5 69t69.5 26t70 -26t27 -69q0 -44 -27 -70t-70 -26t-69.5 26z" />
    <glyph glyph-name="ygrave" unicode="&#x1ef3;" horiz-adv-x="984" 
d="M62 0zM925 915q0 -6 -3 -14l-350 -913q-67 -177 -166.5 -267t-235.5 -90h-67q-18 0 -29.5 13t-11.5 39v23q0 26 11.5 39t29.5 13h43q95 0 161 60.5t113 182.5l16 42l-350 858q-3 8 -3 15q0 14 13 22t39 8h46q63 0 80 -45l259 -660l240 660q17 45 80 45h32q53 0 53 -31z
M520 1138q-30 0 -57.5 16t-68.5 56l-108 104q-20 19 -20 39q0 18 15 29t41 11h45q25 0 42.5 -9.5t35.5 -29.5l128 -137q24 -25 24 -47q0 -14 -11.5 -23t-30.5 -9h-35z" />
    <glyph glyph-name="z" unicode="z" horiz-adv-x="918" 
d="M107.5 25.5q-28.5 25.5 -28.5 72.5q0 34 10.5 60t37.5 57l507 573q8 10 8 18q0 6 -5.5 10t-14.5 4h-492q-18 0 -30 12.5t-12 38.5v24q0 25 12 38t30 13h596q47 0 75.5 -25.5t28.5 -73.5q0 -33 -11.5 -58.5t-38.5 -57.5l-505 -573q-8 -8 -8 -17q0 -6 5.5 -10.5t14.5 -4.5
h520q18 0 29.5 -12.5t11.5 -38.5v-24q0 -26 -11.5 -38.5t-29.5 -12.5h-624q-47 0 -75.5 25.5z" />
    <glyph glyph-name="zacute" unicode="&#x17a;" horiz-adv-x="918" 
d="M79 0zM107.5 25.5q-28.5 25.5 -28.5 72.5q0 34 10.5 60t37.5 57l507 573q8 10 8 18q0 6 -5.5 10t-14.5 4h-492q-18 0 -30 12.5t-12 38.5v24q0 25 12 38t30 13h596q47 0 75.5 -25.5t28.5 -73.5q0 -33 -11.5 -58.5t-38.5 -57.5l-505 -573q-8 -8 -8 -17q0 -6 5.5 -10.5
t14.5 -4.5h520q18 0 29.5 -12.5t11.5 -38.5v-24q0 -26 -11.5 -38.5t-29.5 -12.5h-624q-47 0 -75.5 25.5zM387.5 1147q-11.5 9 -11.5 24q0 21 24 46l127 137q18 20 36 29.5t43 9.5h45q25 0 40 -11t15 -28q0 -21 -20 -40l-107 -104q-43 -40 -69.5 -56t-55.5 -16h-35
q-20 0 -31.5 9z" />
    <glyph glyph-name="zcaron" unicode="&#x17e;" horiz-adv-x="918" 
d="M79 0zM107.5 25.5q-28.5 25.5 -28.5 72.5q0 34 10.5 60t37.5 57l507 573q8 10 8 18q0 6 -5.5 10t-14.5 4h-492q-18 0 -30 12.5t-12 38.5v24q0 25 12 38t30 13h596q47 0 75.5 -25.5t28.5 -73.5q0 -33 -11.5 -58.5t-38.5 -57.5l-505 -573q-8 -8 -8 -17q0 -6 5.5 -10.5
t14.5 -4.5h520q18 0 29.5 -12.5t11.5 -38.5v-24q0 -26 -11.5 -38.5t-29.5 -12.5h-624q-47 0 -75.5 25.5zM741.5 1384.5q12.5 -8.5 12.5 -23.5q0 -22 -25 -47l-137 -140q-32 -35 -79 -35h-89q-24 0 -43 8.5t-36 26.5l-139 140q-23 23 -23 44q0 16 13.5 25.5t38.5 9.5h15
q29 0 48.5 -7t35.5 -20.5t46 -44.5l16 -16l73 -73l72 73q39 40 57 56t39.5 24t53.5 8h15q23 0 35.5 -8.5z" />
    <glyph glyph-name="zdotaccent" unicode="&#x17c;" horiz-adv-x="918" 
d="M79 0zM107.5 25.5q-28.5 25.5 -28.5 72.5q0 34 10.5 60t37.5 57l507 573q8 10 8 18q0 6 -5.5 10t-14.5 4h-492q-18 0 -30 12.5t-12 38.5v24q0 25 12 38t30 13h596q47 0 75.5 -25.5t28.5 -73.5q0 -33 -11.5 -58.5t-38.5 -57.5l-505 -573q-8 -8 -8 -17q0 -6 5.5 -10.5
t14.5 -4.5h520q18 0 29.5 -12.5t11.5 -38.5v-24q0 -26 -11.5 -38.5t-29.5 -12.5h-624q-47 0 -75.5 25.5zM396 1191q-27 27 -27 72q0 44 27.5 70.5t71.5 26.5t71.5 -26.5t27.5 -70.5q0 -45 -27.5 -72t-71.5 -27q-45 0 -72 27z" />
    <glyph glyph-name="ordfeminine" unicode="&#xaa;" horiz-adv-x="873" 
d="M665.5 1351q67.5 -60 67.5 -181v-254q0 -117 -73 -174t-223 -57q-298 0 -298 215v12q0 106 76.5 158.5t238.5 58.5l146 7v21q0 68 -33.5 99.5t-108.5 31.5q-47 0 -97 -9.5t-93 -28.5l-46 -18q-8 -3 -15 -3q-24 0 -32 30l-13 41q-2 10 -2 15q0 22 24 31l49 21
q109 44 227 44q138 0 205.5 -60zM562.5 822q37.5 28 37.5 94v113l-135 -6q-70 -4 -110.5 -16t-58 -34.5t-17.5 -59.5v-13q0 -57 36 -81.5t122 -24.5q88 0 125.5 28z" />
    <glyph glyph-name="ordmasculine" unicode="&#xba;" horiz-adv-x="936" 
d="M220 773q-82 86 -82 263v28q0 178 82 263.5t248 85.5q168 0 249.5 -85t81.5 -263v-30q0 -178 -81.5 -263t-249.5 -85q-166 0 -248 86zM580 825.5q41 22.5 60 73t19 137.5v28q0 86 -19 136t-60 72.5t-112 22.5q-70 0 -111.5 -22.5t-60.5 -72.5t-19 -136v-28q0 -86 19 -137
t60.5 -73.5t111.5 -22.5q71 0 112 22.5z" />
    <glyph glyph-name="uni0410" unicode="&#x410;" horiz-adv-x="1392" 
d="M79 0zM1313 36q0 -36 -60 -36h-49q-37 0 -58.5 14t-28.5 37l-128 380h-593l-132 -380q-7 -23 -29.5 -37t-60.5 -14h-37q-30 0 -44 9.5t-14 25.5q0 7 3 16l458 1242q23 65 55 92.5t97 27.5h21q58 0 91.5 -28.5t55.5 -91.5l450 -1242q3 -7 3 -15zM942 570l-227 672
q-5 17 -18 17t-18 -17l-234 -672h497z" />
    <glyph glyph-name="uni0411" unicode="&#x411;" horiz-adv-x="1225" 
d="M1016.5 687.5q109.5 -97.5 109.5 -292.5q0 -196 -107 -295.5t-347 -99.5h-339q-101 0 -147.5 38.5t-46.5 112.5v1091q0 151 198 151h638q20 0 33 -14.5t13 -44.5v-26q0 -30 -13 -44.5t-33 -14.5h-614q-47 0 -47 -36v-428h360q233 0 342.5 -97.5zM836.5 165.5
q64.5 25.5 91.5 79t27 142.5q0 91 -28 148.5t-92 86.5t-171 29h-350v-475q0 -36 47 -36h297q114 0 178.5 25.5z" />
    <glyph glyph-name="uni0412" unicode="&#x412;" horiz-adv-x="1263" 
d="M139 0zM1086.5 604q58.5 -83 58.5 -215q0 -188 -108 -288.5t-333 -100.5h-371q-101 0 -147.5 38.5t-46.5 112.5v1091q0 74 46.5 112.5t147.5 38.5h346q220 0 321 -88.5t101 -267.5q0 -232 -192 -312q119 -38 177.5 -121zM312 1218v-439h326q159 0 227.5 61t68.5 185
q0 83 -26 132.5t-86.5 73t-164.5 23.5h-298q-47 0 -47 -36zM899.5 200.5q66.5 62.5 66.5 192.5q0 129 -72.5 193.5t-238.5 64.5h-343v-477q0 -36 47 -36h316q158 0 224.5 62.5z" />
    <glyph glyph-name="uni0413" unicode="&#x413;" horiz-adv-x="1078" 
d="M156.5 14q-17.5 14 -17.5 36v1192q0 74 46.5 112.5t147.5 38.5h620q20 0 33 -14.5t13 -44.5v-26q0 -30 -13 -44.5t-33 -14.5h-596q-47 0 -47 -36v-1163q0 -50 -72 -50h-27q-37 0 -54.5 14z" />
    <glyph glyph-name="uni0403" unicode="&#x403;" horiz-adv-x="1078" 
d="M139 0zM156.5 14q-17.5 14 -17.5 36v1192q0 74 46.5 112.5t147.5 38.5h620q20 0 33 -14.5t13 -44.5v-26q0 -30 -13 -44.5t-33 -14.5h-596q-47 0 -47 -36v-1163q0 -50 -72 -50h-27q-37 0 -54.5 14zM513.5 1517q-11.5 9 -11.5 24q0 21 24 46l127 137q18 20 36 29.5t43 9.5
h45q25 0 40 -11t15 -28q0 -21 -20 -40l-107 -104q-43 -40 -69.5 -56t-55.5 -16h-35q-20 0 -31.5 9z" />
    <glyph glyph-name="uni0490" unicode="&#x490;" horiz-adv-x="1078" 
d="M968.5 1706q15.5 -14 15.5 -36l15 -364q1 -29 -11.5 -43t-34.5 -14h-592q-47 0 -47 -36v-1163q0 -50 -72 -50h-31q-37 0 -54.5 14t-17.5 36v1192q0 151 198 151h496v277q0 22 17.5 36t54.5 14h16q32 0 47.5 -14z" />
    <glyph glyph-name="uni0414" unicode="&#x414;" horiz-adv-x="1636" 
d="M1546.5 129.5q12.5 -13.5 11.5 -42.5l-15 -365q0 -22 -15.5 -36t-47.5 -14h-17q-37 0 -54.5 14t-17.5 36v278h-1146v-278q0 -22 -17.5 -36t-54.5 -14h-17q-32 0 -47 14t-16 36l-14 365q-2 28 10.5 42t35.5 14h17q195 0 214 245l67 854q5 75 49.5 113t144.5 38h563
q101 0 148 -38.5t47 -112.5v-1099h136q23 0 35.5 -13.5zM435 143h764v1070q0 36 -46 36h-514q-24 0 -34 -9t-12 -27l-64 -825q-12 -155 -94 -245z" />
    <glyph glyph-name="uni0415" unicode="&#x415;" horiz-adv-x="1131" 
d="M314 1213v-431h562q20 0 33 -14t13 -43v-26q0 -29 -13 -43.5t-33 -14.5h-562v-461q0 -37 47 -37h615q21 0 34 -14t13 -44v-26q0 -30 -13.5 -44.5t-33.5 -14.5h-643q-101 0 -147.5 38.5t-46.5 112.5v1091q0 74 46.5 112.5t147.5 38.5h643q20 0 33.5 -14.5t13.5 -44.5v-26
q0 -30 -13.5 -44.5t-33.5 -14.5h-615q-47 0 -47 -36z" />
    <glyph glyph-name="uni0401" unicode="&#x401;" horiz-adv-x="1131" 
d="M139 0zM314 1213v-431h562q20 0 33 -14t13 -43v-26q0 -29 -13 -43.5t-33 -14.5h-562v-461q0 -37 47 -37h615q21 0 34 -14t13 -44v-26q0 -30 -13.5 -44.5t-33.5 -14.5h-643q-101 0 -147.5 38.5t-46.5 112.5v1091q0 74 46.5 112.5t147.5 38.5h643q20 0 33.5 -14.5
t13.5 -44.5v-26q0 -30 -13.5 -44.5t-33.5 -14.5h-615q-47 0 -47 -36zM372.5 1560q-26.5 26 -26.5 70q0 43 26.5 69t69.5 26t70 -26t27 -69q0 -44 -27 -70t-70 -26t-69.5 26zM674.5 1560q-26.5 26 -26.5 70q0 43 26.5 69t69.5 26t70 -26t27 -69q0 -44 -27 -70t-70 -26
t-69.5 26z" />
    <glyph glyph-name="uni0416" unicode="&#x416;" horiz-adv-x="1919" 
d="M107 19q0 9 14 30l513 647l-509 648q-14 21 -14 30q0 21 43 21h62q36 0 64.5 -14.5t42.5 -36.5l462 -612q16 -20 16 -42q0 -20 -16 -41l-460 -600q-14 -22 -43 -35.5t-66 -13.5h-66q-43 0 -43 19zM888.5 14q-17.5 14 -17.5 36v1295q0 22 17.5 36t54.5 14h31q72 0 72 -50
v-1295q0 -50 -72 -50h-31q-37 0 -54.5 14zM1637 13.5q-28 13.5 -45 35.5l-460 600q-15 22 -15 42t15 41l462 612q17 23 44.5 37t63.5 14h61q44 0 44 -21q0 -13 -14 -30l-515 -648l518 -647q15 -20 15 -30q0 -19 -44 -19h-65q-37 0 -65 13.5z" />
    <glyph glyph-name="uni0417" unicode="&#x417;" horiz-adv-x="1225" 
d="M225 50l-110 42q-36 12 -36 38q0 9 4 20l22 57q7 20 14.5 29t19.5 9q10 0 21 -4l108 -42q88 -33 170 -52.5t169 -19.5q159 0 243.5 71t84.5 200q0 248 -333 248h-137q-19 0 -31 13.5t-12 40.5v26q0 54 43 54h131q156 0 236 69.5t80 186.5q0 108 -73 168.5t-217 60.5
q-85 0 -163.5 -18.5t-160.5 -49.5l-103 -39q-11 -4 -20 -4q-12 0 -19.5 8.5t-13.5 27.5l-20 60q-3 11 -3 20q0 25 33 36l105 40q183 67 368 67q147 0 249 -46t153.5 -129t51.5 -192q0 -113 -56.5 -196.5t-163.5 -127.5q248 -75 248 -327q0 -121 -60 -215t-173 -147.5
t-264 -53.5q-191 0 -385 71z" />
    <glyph glyph-name="uni0418" unicode="&#x418;" horiz-adv-x="1342" 
d="M180 37q-41 37 -41 102v1207q0 21 15.5 34t48.5 13h26q64 0 64 -47v-1177q0 -16 14 -16q15 0 23 16l524 1087q25 53 48 82.5t52 42t71 12.5h26q69 0 110.5 -37.5t41.5 -101.5v-1208q0 -20 -15.5 -33t-48.5 -13h-26q-64 0 -64 46v1178q0 16 -14 16q-15 0 -23 -16
l-524 -1088q-25 -53 -48 -82t-51.5 -41.5t-71.5 -12.5h-26q-70 0 -111 37z" />
    <glyph glyph-name="uni0419" unicode="&#x419;" horiz-adv-x="1342" 
d="M139 0zM180 37q-41 37 -41 102v1207q0 21 15.5 34t48.5 13h26q64 0 64 -47v-1177q0 -16 14 -16q15 0 23 16l524 1087q25 53 48 82.5t52 42t71 12.5h26q69 0 110.5 -37.5t41.5 -101.5v-1208q0 -20 -15.5 -33t-48.5 -13h-26q-64 0 -64 46v1178q0 16 -14 16q-15 0 -23 -16
l-524 -1088q-25 -53 -48 -82t-51.5 -41.5t-71.5 -12.5h-26q-70 0 -111 37zM515 1519.5q-67 34.5 -100 93.5t-33 131q0 30 9.5 47.5t27.5 17.5q19 0 30 -14t25 -46q18 -41 37.5 -68.5t60.5 -48t108 -20.5t108 20.5t60.5 48t37.5 68.5q14 32 25 46t30 14q18 0 27.5 -17.5
t9.5 -47.5q0 -72 -33 -131t-100 -93.5t-165 -34.5t-165 34.5z" />
    <glyph glyph-name="uni041A" unicode="&#x41a;" horiz-adv-x="1262" 
d="M314 1343v-1293q0 -50 -72 -50h-31q-37 0 -54.5 14t-17.5 36v1293q0 22 17.5 36t54.5 14h31q72 0 72 -50zM1153 20q0 -20 -43 -20h-83q-37 0 -65 13.5t-44 35.5l-518 600q-16 19 -16 41q0 23 16 42l519 610q17 23 44.5 37t63.5 14h79q44 0 44 -22q0 -11 -15 -29
l-576 -645l580 -648q14 -17 14 -29z" />
    <glyph glyph-name="uni040C" unicode="&#x40c;" horiz-adv-x="1262" 
d="M139 0zM314 1343v-1293q0 -50 -72 -50h-31q-37 0 -54.5 14t-17.5 36v1293q0 22 17.5 36t54.5 14h31q72 0 72 -50zM1153 20q0 -20 -43 -20h-83q-37 0 -65 13.5t-44 35.5l-518 600q-16 19 -16 41q0 23 16 42l519 610q17 23 44.5 37t63.5 14h79q44 0 44 -22q0 -11 -15 -29
l-576 -645l580 -648q14 -17 14 -29zM536.5 1517q-11.5 9 -11.5 24q0 21 24 46l127 137q18 20 36 29.5t43 9.5h45q25 0 40 -11t15 -28q0 -21 -20 -40l-107 -104q-43 -40 -69.5 -56t-55.5 -16h-35q-20 0 -31.5 9z" />
    <glyph glyph-name="uni041B" unicode="&#x41b;" horiz-adv-x="1517" 
d="M92 14.5q-13 14.5 -13 44.5v26q0 30 13 44t33 14h30q88 0 142 59t64 186l66 854q6 75 50.5 113t143.5 38h559q198 0 198 -151v-1192q0 -50 -72 -50h-31q-37 0 -54.5 14t-17.5 36v1163q0 36 -47 36h-512q-24 0 -34.5 -9t-12.5 -27l-63 -825q-9 -120 -58.5 -207.5
t-129 -134t-177.5 -46.5h-44q-20 0 -33 14.5z" />
    <glyph glyph-name="uni041C" unicode="&#x41c;" horiz-adv-x="1631" 
d="M99 0zM1516.5 13q-16.5 -13 -50.5 -13h-35q-35 0 -49 12.5t-16 33.5l-79 1177q0 16 -15 16q-17 0 -22 -16l-312 -1117q-14 -58 -44 -82t-79 -24h-9q-49 0 -79 24t-44 82l-313 1117q-3 8 -9.5 12t-13.5 4q-14 0 -14 -16l-79 -1177q-2 -21 -16 -33.5t-48 -12.5h-27
q-33 0 -49.5 13t-14.5 33l81 1209q5 66 44 102.5t107 36.5h22q70 0 110 -29.5t60 -107.5l293 -1101l295 1107q32 131 167 131h26q68 0 104.5 -36t41.5 -103l81 -1209q2 -20 -14.5 -33z" />
    <glyph glyph-name="uni041D" unicode="&#x41d;" horiz-adv-x="1339" 
d="M139 0zM1200 1343v-1293q0 -50 -72 -50h-31q-37 0 -54.5 14t-17.5 36v594h-711v-594q0 -50 -72 -50h-31q-37 0 -54.5 14t-17.5 36v1293q0 22 17.5 36t54.5 14h31q72 0 72 -50v-559h711v559q0 22 17.5 36t54.5 14h31q72 0 72 -50z" />
    <glyph glyph-name="uni041E" unicode="&#x41e;" horiz-adv-x="1487" 
d="M118 0zM270 154q-152 174 -152 522v41q0 348 152 522t474 174q321 0 473 -174t152 -522v-41q0 -347 -151.5 -521.5t-473.5 -174.5t-474 174zM1001 186.5q97 57.5 141 177.5t44 312v41q0 192 -44 312t-141 178.5t-257 58.5q-161 0 -258 -58.5t-141 -178.5t-44 -312v-41
q0 -192 44 -312t141 -177.5t258 -57.5q160 0 257 57.5z" />
    <glyph glyph-name="uni041F" unicode="&#x41f;" horiz-adv-x="1351" 
d="M139 50v1192q0 74 46.5 112.5t147.5 38.5h684q101 0 148 -38.5t47 -112.5v-1192q0 -22 -17 -36t-55 -14h-27q-37 0 -54.5 14t-17.5 36v1163q0 36 -47 36h-637q-47 0 -47 -36v-1163q0 -22 -17.5 -36t-54.5 -14h-27q-72 0 -72 50z" />
    <glyph glyph-name="uni0420" unicode="&#x420;" horiz-adv-x="1225" 
d="M139 0zM936 1350q100 -43 145 -128t45 -214q0 -198 -110.5 -302.5t-341.5 -104.5h-360v-551q0 -50 -72 -50h-31q-37 0 -54.5 14t-17.5 36v1192q0 151 196 151h338q163 0 263 -43zM835 770q64 29 92 86.5t28 148.5q0 89 -27 142.5t-91.5 78.5t-178.5 25h-297
q-47 0 -47 -36v-474h350q107 0 171 29z" />
    <glyph glyph-name="uni0421" unicode="&#x421;" horiz-adv-x="1300" 
d="M118 0zM404 61q-140 81 -213 237t-73 378v41q0 221 73 377t213.5 237.5t340.5 81.5q160 0 328 -59l95 -36q16 -6 23.5 -14t7.5 -20q0 -7 -3 -18l-16 -54q-5 -18 -12 -26t-18 -8q-10 0 -19 4l-93 33q-138 48 -270 48q-229 0 -348 -137t-119 -409v-41q0 -272 119 -409.5
t348 -137.5q132 0 270 48l93 34q9 4 19 4q11 0 18 -8t12 -26l16 -54q3 -10 3 -18q0 -12 -7.5 -20t-23.5 -14l-95 -36q-163 -59 -328 -59q-201 0 -341 81z" />
    <glyph glyph-name="uni0422" unicode="&#x422;" horiz-adv-x="1244" 
d="M70 0zM536 50v1199h-420q-20 0 -33 14.5t-13 44.5v26q0 30 13 44.5t33 14.5h1012q20 0 33 -14.5t13 -44.5v-26q0 -30 -13 -44.5t-33 -14.5h-420v-1199q0 -22 -17 -36t-55 -14h-28q-72 0 -72 50z" />
    <glyph glyph-name="uni0423" unicode="&#x423;" horiz-adv-x="1253" 
d="M1154 1363q0 -9 -4 -17l-443 -955q-92 -199 -204 -296t-271 -97h-81q-21 0 -35.5 13t-14.5 40v39q0 27 14.5 40t35.5 13h52q115 0 195.5 63t143.5 198l25 55l-445 887q-4 8 -4 17q0 30 59 30h48q71 0 91 -47l339 -718l315 718q10 21 31 34t61 13h33q59 0 59 -30z" />
    <glyph glyph-name="uni040E" unicode="&#x40e;" horiz-adv-x="1253" 
d="M101 0zM1154 1363q0 -9 -4 -17l-443 -955q-92 -199 -204 -296t-271 -97h-81q-21 0 -35.5 13t-14.5 40v39q0 27 14.5 40t35.5 13h52q115 0 195.5 63t143.5 198l25 55l-445 887q-4 8 -4 17q0 30 59 30h48q71 0 91 -47l339 -718l315 718q10 21 31 34t61 13h33q59 0 59 -30z
M492 1519.5q-67 34.5 -100 93.5t-33 131q0 30 9.5 47.5t27.5 17.5q19 0 30 -14t25 -46q18 -41 37.5 -68.5t60.5 -48t108 -20.5t108 20.5t60.5 48t37.5 68.5q14 32 25 46t30 14q18 0 27.5 -17.5t9.5 -47.5q0 -72 -33 -131t-100 -93.5t-165 -34.5t-165 34.5z" />
    <glyph glyph-name="uni0424" unicode="&#x424;" horiz-adv-x="1706" 
d="M1422 304.5q-166 -136.5 -483 -149.5v-105q0 -22 -17 -36t-55 -14h-32q-37 0 -54 14t-17 36v105q-316 14 -481 150.5t-165 391.5q0 253 162.5 391t483.5 151v104q0 22 17 36t54 14h32q38 0 55 -14t17 -36v-104q322 -13 485.5 -150.5t163.5 -391.5q0 -256 -166 -392.5z
M1208.5 338q105.5 42 157.5 127t52 220q0 139 -49.5 229t-155 137t-274.5 54v-816q164 7 269.5 49zM340.5 466q51.5 -85 156 -127.5t267.5 -49.5v816q-168 -8 -272.5 -55t-153.5 -137t-49 -228q0 -134 51.5 -219z" />
    <glyph glyph-name="uni0425" unicode="&#x425;" horiz-adv-x="1338" 
d="M109 0zM1230 34q0 -15 -15.5 -24.5t-43.5 -9.5h-68q-34 0 -51.5 12t-33.5 36l-358 545l-358 -545q-14 -23 -32.5 -35.5t-53.5 -12.5h-48q-28 0 -43.5 9t-15.5 24q0 10 6 19l438 645l-435 644q-6 9 -6 18q0 14 16 24t43 10h70q35 0 52.5 -12.5t30.5 -35.5l351 -536
l351 536q14 23 32 35.5t52 12.5h51q28 0 43.5 -10t15.5 -24q0 -9 -6 -18l-435 -636l445 -653q6 -9 6 -18z" />
    <glyph glyph-name="uni0427" unicode="&#x427;" horiz-adv-x="1353" 
d="M1214 1343v-1293q0 -50 -71 -50h-32q-37 0 -54.5 14t-17.5 36v500q-106 -106 -305 -106h-187q-233 0 -335 104.5t-102 297.5v501q0 20 17.5 33t52.5 13h26q40 0 59 -13t19 -33v-500q0 -88 24.5 -142.5t86 -82.5t169.5 -28h189q153 0 219.5 63.5t66.5 189.5v496
q0 22 17.5 36t54.5 14h32q71 0 71 -50z" />
    <glyph glyph-name="uni0426" unicode="&#x426;" horiz-adv-x="1461" 
d="M1390.5 129.5q12.5 -13.5 11.5 -42.5l-15 -365q0 -22 -15.5 -36t-47.5 -14h-16q-37 0 -54.5 14t-17.5 36v278h-903q-101 0 -147.5 38.5t-46.5 112.5v1192q0 50 72 50h27q37 0 54.5 -14t17.5 -36v-1163q0 -37 47 -37h684v1200q0 22 17.5 36t54.5 14h27q38 0 55 -14t17 -36
v-1200h144q22 0 34.5 -13.5z" />
    <glyph glyph-name="uni0428" unicode="&#x428;" horiz-adv-x="1851" 
d="M1712 1343v-1192q0 -74 -47 -112.5t-148 -38.5h-1184q-101 0 -147.5 38.5t-46.5 112.5v1192q0 50 72 50h27q37 0 54.5 -14t17.5 -36v-1163q0 -37 47 -37h481v1200q0 22 17.5 36t54.5 14h27q72 0 72 -50v-1200h485q47 0 47 37v1163q0 22 17.5 36t54.5 14h27q72 0 72 -50z
" />
    <glyph glyph-name="uni0429" unicode="&#x429;" horiz-adv-x="1957" 
d="M1886.5 129q12.5 -14 10.5 -42l-14 -365q-1 -22 -16 -36t-47 -14h-17q-37 0 -54.5 14t-17.5 36v278h-1398q-101 0 -147.5 38.5t-46.5 112.5v1192q0 50 72 50h27q37 0 54.5 -14t17.5 -36v-1163q0 -37 47 -37h481v1200q0 22 17.5 36t54.5 14h27q72 0 72 -50v-1200h532v1200
q0 22 17.5 36t54.5 14h27q72 0 72 -50v-1200h139q23 0 35.5 -14z" />
    <glyph glyph-name="uni040F" unicode="&#x40f;" horiz-adv-x="1351" 
d="M1195 1379q17 -14 17 -36v-1192q0 -74 -47 -112.5t-148 -38.5h-247l-10 -278q-1 -22 -16.5 -36t-47.5 -14h-16q-32 0 -47.5 14t-15.5 36l-11 278h-273q-101 0 -147.5 38.5t-46.5 112.5v1192q0 50 72 50h27q37 0 54.5 -14t17.5 -36v-1163q0 -37 47 -37h637q47 0 47 37
v1163q0 22 17.5 36t54.5 14h27q38 0 55 -14z" />
    <glyph glyph-name="uni042F" unicode="&#x42f;" horiz-adv-x="1257" 
d="M1071 1354.5q47 -38.5 47 -112.5v-1192q0 -22 -17.5 -36t-54.5 -14h-31q-72 0 -72 50v559h-206q-48 -2 -80.5 -18t-55 -43.5t-48.5 -73.5l-237 -426q-27 -48 -96 -48h-61q-51 0 -51 27q0 7 7 21l267 457q44 76 110 120q-184 17 -274 108t-90 263q0 197 107 297t347 100
h341q101 0 148 -38.5zM943 741v474q0 36 -47 36h-300q-114 0 -178 -25t-90.5 -78.5t-26.5 -142.5q0 -91 27.5 -148.5t91 -86.5t170.5 -29h353z" />
    <glyph glyph-name="uni042C" unicode="&#x42c;" horiz-adv-x="1225" 
d="M1018 699.5q108 -95.5 108 -296.5q0 -197 -107.5 -300t-346.5 -103h-339q-101 0 -147.5 38.5t-46.5 112.5v1192q0 22 17.5 36t54.5 14h31q38 0 55 -14t17 -36v-548h362q234 0 342 -95.5zM835 167.5q64 26.5 91 81.5t27 145q0 91 -27.5 147.5t-90.5 84.5t-171 28h-350
v-476q0 -37 47 -37h297q113 0 177 26.5z" />
    <glyph glyph-name="uni042A" unicode="&#x42a;" horiz-adv-x="1397" 
d="M1190 699.5q108 -95.5 108 -296.5q0 -197 -107.5 -300t-346.5 -103h-339q-101 0 -147.5 38.5t-46.5 112.5v1109h-185q-21 0 -34 14t-13 44v26q0 30 13.5 44.5t33.5 14.5h272v-10h16q38 0 55 -14t17 -36v-548h362q234 0 342 -95.5zM1007 167.5q64 26.5 91 81.5t27 145
q0 91 -27.5 147.5t-90.5 84.5t-171 28h-350v-476q0 -37 47 -37h297q113 0 177 26.5z" />
    <glyph glyph-name="uni042B" unicode="&#x42b;" horiz-adv-x="1678" 
d="M139 0zM1018 699.5q108 -95.5 108 -296.5q0 -197 -107.5 -300t-346.5 -103h-339q-101 0 -147.5 38.5t-46.5 112.5v1192q0 22 17.5 36t54.5 14h31q38 0 55 -14t17 -36v-548h362q234 0 342 -95.5zM835 167.5q64 26.5 91 81.5t27 145q0 91 -27.5 147.5t-90.5 84.5t-171 28
h-350v-476q0 -37 47 -37h297q113 0 177 26.5zM1381.5 14q-17.5 14 -17.5 36v1293q0 22 17.5 36t54.5 14h33q37 0 53.5 -14t16.5 -36v-1293q0 -22 -16.5 -36t-53.5 -14h-33q-37 0 -54.5 14z" />
    <glyph glyph-name="uni0409" unicode="&#x409;" horiz-adv-x="2195" 
d="M1987 697q109 -96 109 -296q0 -197 -107.5 -299t-346.5 -102h-335q-101 0 -147.5 38.5t-46.5 112.5v1062q0 36 -47 36h-422q-24 0 -34.5 -9t-12.5 -27l-63 -825q-9 -120 -58.5 -207.5t-129 -134t-177.5 -46.5h-44q-20 0 -33 14.5t-13 44.5v26q0 30 13 44t33 14h30
q88 0 142 59t64 186l66 854q6 75 50.5 113t143.5 38h468q101 0 148 -38.5t47 -112.5v-449h360q234 0 343 -96zM1805.5 166.5q64.5 26.5 92 80.5t27.5 144q0 92 -28 149.5t-91.5 85.5t-171.5 28h-350v-478q0 -36 46 -36h298q113 0 177.5 26.5z" />
    <glyph glyph-name="uni040A" unicode="&#x40a;" horiz-adv-x="2107" 
d="M1899 695.5q109 -95.5 109 -294.5q0 -197 -107.5 -299t-346.5 -102h-335q-103 0 -150 38.5t-47 112.5v499h-708v-600q0 -50 -72 -50h-31q-37 0 -54.5 14t-17.5 36v1293q0 22 17.5 36t54.5 14h31q72 0 72 -50v-553h708v553q0 22 17.5 36t54.5 14h30q38 0 56 -14t18 -36
v-552h358q234 0 343 -95.5zM1717.5 166.5q64.5 26.5 92 80.5t27.5 144q0 92 -28 149.5t-91.5 85.5t-171.5 28h-348v-478q0 -36 46 -36h296q113 0 177.5 26.5z" />
    <glyph glyph-name="uni0405" unicode="&#x405;" horiz-adv-x="1299" 
d="M129 0zM272 44l-111 41q-17 6 -24.5 14t-7.5 21q0 10 3 20l21 58q5 18 12 26t19 8q8 0 23 -5l106 -37q165 -59 332 -59q164 0 247 59.5t83 168.5q0 58 -25 95t-76 63.5t-148 60.5l-203 71q-125 43 -201.5 87t-119.5 113t-43 174q0 117 57 205.5t165 136.5t256 48
q177 0 338 -59l96 -36q31 -12 31 -34q0 -8 -3 -17l-19 -59q-5 -18 -12 -25.5t-18 -7.5q-9 0 -20 4l-92 34q-149 52 -292 52q-158 0 -235.5 -60.5t-77.5 -167.5q0 -65 25.5 -105.5t75 -66.5t141.5 -58l203 -71q138 -47 216.5 -91.5t117.5 -109.5t39 -166q0 -123 -59 -210.5
t-171.5 -133t-272.5 -45.5q-193 0 -376 64z" />
    <glyph glyph-name="uni0404" unicode="&#x404;" horiz-adv-x="1297" 
d="M1196 127q3 -10 3 -18q0 -12 -7.5 -20t-23.5 -14l-95 -36q-163 -59 -328 -59q-201 0 -341 81t-213 237t-73 378v41q0 221 73 377t213.5 237.5t340.5 81.5q160 0 328 -59l95 -36q16 -6 23.5 -14t7.5 -20q0 -7 -3 -18l-16 -56q-5 -18 -12 -25.5t-17 -7.5q-9 0 -20 4l-93 33
q-138 48 -270 48q-214 0 -330.5 -120.5t-130.5 -358.5h610q20 0 32.5 -14.5t12.5 -43.5v-26q0 -30 -12.5 -44t-32.5 -14h-612q7 -255 124 -382.5t339 -127.5q132 0 270 48l93 33q9 4 19 4q11 0 18 -8t12 -26z" />
    <glyph glyph-name="uni042D" unicode="&#x42d;" horiz-adv-x="1297" 
d="M893.5 1333.5q140.5 -79.5 213 -233.5t72.5 -375v-41q0 -222 -73 -380t-213.5 -241t-340.5 -83q-166 0 -327 59l-96 36q-16 6 -23.5 14t-7.5 20q0 8 3 18l16 55q5 18 12 26t18 8q10 0 19 -4l93 -33q138 -48 270 -48q219 0 337 129t126 381h-611q-20 0 -33 14t-13 44v26
q0 29 13 43.5t33 14.5h611q-25 479 -463 479q-132 0 -270 -48l-93 -33q-11 -4 -20 -4q-10 0 -17 7.5t-12 25.5l-16 56q-3 11 -3 18q0 12 7.5 20t23.5 14l96 36q166 59 327 59q201 0 341.5 -79.5z" />
    <glyph glyph-name="uni0406" unicode="&#x406;" horiz-adv-x="453" 
d="M139 0zM156.5 14q-17.5 14 -17.5 36v1293q0 22 17.5 36t54.5 14h33q37 0 53.5 -14t16.5 -36v-1293q0 -22 -16.5 -36t-53.5 -14h-33q-37 0 -54.5 14z" />
    <glyph glyph-name="uni0407" unicode="&#x407;" horiz-adv-x="453" 
d="M0 0zM156.5 14q-17.5 14 -17.5 36v1293q0 22 17.5 36t54.5 14h33q37 0 53.5 -14t16.5 -36v-1293q0 -22 -16.5 -36t-53.5 -14h-33q-37 0 -54.5 14zM9.5 1560q-26.5 26 -26.5 70q0 43 26.5 69t69.5 26t70 -26t27 -69q0 -44 -27 -70t-70 -26t-69.5 26zM311.5 1560
q-26.5 26 -26.5 70q0 43 26.5 69t69.5 26t70 -26t27 -69q0 -44 -27 -70t-70 -26t-69.5 26z" />
    <glyph glyph-name="uni0408" unicode="&#x408;" horiz-adv-x="708" 
d="M71 0zM107 2q-36 22 -36 62v12q0 24 17.5 34.5t51.5 10.5q124 0 189 57.5t65 190.5v974q0 22 16.5 36t53.5 14h35q36 0 53 -14t17 -36v-981q0 -126 -45 -211.5t-126 -128t-189 -42.5q-66 0 -102 22z" />
    <glyph glyph-name="uni040B" unicode="&#x40b;" horiz-adv-x="1601" 
d="M1369 844.5q102 -104.5 102 -298.5v-511q0 -20 -17.5 -32.5t-52.5 -12.5h-25q-35 0 -52.5 12.5t-17.5 32.5v510q0 87 -26.5 142.5t-89.5 83.5t-172 28q-168 0 -239 -62t-71 -192v-495q0 -22 -17 -36t-55 -14h-28q-72 0 -72 50v1199h-420q-20 0 -33 14.5t-13 44.5v26
q0 30 13 44.5t33 14.5h1012q20 0 33 -14.5t13 -44.5v-26q0 -30 -13 -44.5t-33 -14.5h-420v-408q111 108 327 108q232 0 334 -104.5z" />
    <glyph glyph-name="uni042E" unicode="&#x42e;" horiz-adv-x="1957" 
d="M1707 1238q132 -175 132 -521v-41q0 -345 -131.5 -520.5t-410.5 -175.5q-272 0 -403.5 167.5t-137.5 496.5h-442v-594q0 -50 -72 -50h-31q-37 0 -54.5 14t-17.5 36v1293q0 22 17.5 36t54.5 14h31q72 0 72 -50v-559h443q12 313 144 471t396 158q278 0 410 -175zM1660 717
q0 192 -36.5 312.5t-116 178.5t-210.5 58t-210.5 -58t-115.5 -178.5t-36 -312.5v-41q0 -192 36 -312.5t115.5 -178.5t210.5 -58t210.5 58t116 178.5t36.5 312.5v41z" />
    <glyph glyph-name="uni0402" unicode="&#x402;" horiz-adv-x="1615" 
d="M1402 795q114 -115 114 -320q0 -141 -55 -251t-160 -172t-250 -62h-157q-19 0 -31 13t-12 40v24q0 27 12 40t31 13h141q147 0 226.5 91.5t79.5 255.5q0 145 -73.5 219.5t-236.5 74.5q-171 0 -247 -63t-76 -191v-457q0 -22 -17 -36t-55 -14h-28q-72 0 -72 50v1199h-420
q-20 0 -33 14.5t-13 44.5v26q0 30 13 44.5t33 14.5h1012q20 0 33 -14.5t13 -44.5v-26q0 -30 -13 -44.5t-33 -14.5h-420v-454q115 115 342 115q238 0 352 -115z" />
    <glyph glyph-name="uni0462" unicode="&#x462;" horiz-adv-x="1352" 
d="M1146 699.5q108 -95.5 108 -296.5q0 -197 -107.5 -300t-346.5 -103h-339q-101 0 -147.5 38.5t-46.5 112.5v917h-180q-20 0 -33 14t-13 43v24q0 28 13 42.5t33 14.5h180v137q0 22 17.5 36t54.5 14h31q38 0 55 -14t17 -36v-137h322q19 0 32 -14.5t13 -42.5v-24
q0 -29 -12.5 -43t-32.5 -14h-322v-273h362q234 0 342 -95.5zM963 167.5q64 26.5 91 81.5t27 145q0 91 -27.5 147.5t-90.5 84.5t-171 28h-350v-476q0 -37 47 -37h297q113 0 177 26.5z" />
    <glyph glyph-name="uni0472" unicode="&#x472;" horiz-adv-x="1487" 
d="M1217 1239q152 -174 152 -522v-41q0 -347 -151.5 -521.5t-473.5 -174.5t-474 174t-152 522v41q0 348 152 522t474 174q321 0 473 -174zM505 1218q-93 -48 -141.5 -146.5t-59.5 -254.5q82 40 175 40q79 0 135 -17t128 -50q65 -31 114 -46t115 -15q72 0 125 23t87 54
q-9 160 -57 261t-141.5 150t-240.5 49q-146 0 -239 -48zM998.5 185.5q96.5 56.5 141 173t46.5 304.5q-35 -30 -90 -52.5t-134 -22.5q-80 0 -135 17t-125 50q-64 31 -113.5 46t-117.5 15q-91 0 -170 -47q1 -190 45 -308t141 -175t257 -57q158 0 254.5 56.5z" />
    <glyph glyph-name="uni0474" unicode="&#x474;" horiz-adv-x="1510" 
d="M586 28.5q-34 28.5 -55 90.5l-430 1223q-2 10 -2 14q0 17 14 27t45 10h49q37 0 58.5 -14.5t28.5 -36.5l382 -1176q5 -16 18 -16t18 16l331 1076q21 75 75.5 113t154.5 38h112q20 0 33.5 -14.5t13.5 -44.5v-26q0 -30 -13.5 -44.5t-33.5 -14.5h-125q-23 0 -33 -10.5
t-18 -31.5l-357 -1087q-21 -64 -54.5 -92t-98.5 -28h-21q-58 0 -92 28.5z" />
    <glyph glyph-name="uni0492" unicode="&#x492;" horiz-adv-x="1191" 
d="M1099 1378.5q13 -14.5 13 -44.5v-26q0 -30 -13 -44.5t-33 -14.5h-596q-47 0 -47 -36v-431h334q20 0 33 -14.5t13 -43.5v-23q0 -29 -13 -43.5t-33 -14.5h-334v-593q0 -50 -72 -50h-27q-37 0 -54.5 14t-17.5 36v593h-165q-20 0 -33 14.5t-13 43.5v23q0 29 13 43.5t33 14.5
h165v460q0 74 46.5 112.5t147.5 38.5h620q20 0 33 -14.5z" />
    <glyph glyph-name="uni0496" unicode="&#x496;" horiz-adv-x="2048" 
d="M785 732q16 -20 16 -42q0 -20 -16 -41l-460 -600q-14 -22 -43 -35.5t-66 -13.5h-66q-43 0 -43 19q0 9 14 30l513 647l-509 648q-14 21 -14 30q0 21 43 21h62q36 0 64.5 -14.5t42.5 -36.5zM1046 1345v-1295q0 -50 -72 -50h-31q-37 0 -54.5 14t-17.5 36v1295q0 22 17.5 36
t54.5 14h31q72 0 72 -50zM1976.5 120q12.5 -14 11.5 -43l-14 -355q-1 -22 -16.5 -36t-47.5 -14h-16q-37 0 -54.5 14t-17.5 36v268h-103l-3 10h-14q-37 0 -65 13.5t-45 35.5l-460 600q-15 22 -15 42t15 41l462 612q17 23 44.5 37t63.5 14h61q44 0 44 -21q0 -13 -14 -30
l-515 -648l450 -562h214q22 0 34.5 -14z" />
    <glyph glyph-name="uni049A" unicode="&#x49a;" horiz-adv-x="1379" 
d="M314 1343v-1293q0 -50 -72 -50h-31q-37 0 -54.5 14t-17.5 36v1293q0 22 17.5 36t54.5 14h31q72 0 72 -50zM1308.5 120q12.5 -14 11.5 -43l-15 -355q0 -22 -15.5 -36t-47.5 -14h-17q-37 0 -54 14t-17 36v268h-103l-3 10h-21q-37 0 -65 13.5t-44 35.5l-518 600
q-16 19 -16 41q0 23 16 42l519 610q17 23 44.5 37t63.5 14h79q44 0 44 -22q0 -11 -15 -29l-576 -645l504 -563h210q23 0 35.5 -14z" />
    <glyph glyph-name="uni04A2" unicode="&#x4a2;" horiz-adv-x="1460" 
d="M1389 120q13 -14 11 -43l-14 -355q0 -22 -15.5 -36t-47.5 -14h-17q-37 0 -54.5 14t-17.5 36v268h-102l-3 10h-1h-31q-37 0 -54.5 14t-17.5 36v594h-711v-594q0 -50 -72 -50h-31q-37 0 -54.5 14t-17.5 36v1293q0 22 17.5 36t54.5 14h31q72 0 72 -50v-559h711v559
q0 22 17.5 36t54.5 14h31q72 0 72 -50v-1209h154q22 0 35 -14z" />
    <glyph glyph-name="uni04AE" unicode="&#x4ae;" horiz-adv-x="1351" 
d="M98 0zM610.5 14q-17.5 14 -17.5 36v542l-490 749q-5 10 -5 17q0 15 15 25t43 10h69q34 0 51.5 -12.5t31.5 -35.5l381 -610l372 610q13 24 30.5 36t52.5 12h51q28 0 43 -10t15 -25q0 -7 -5 -17l-480 -741v-550q0 -50 -72 -50h-31q-37 0 -54.5 14z" />
    <glyph glyph-name="uni04B0" unicode="&#x4b0;" horiz-adv-x="1351" 
d="M1248 1341l-468 -723h278q20 0 33 -14.5t13 -43.5v-25q0 -29 -13 -43t-33 -14h-290v-428q0 -50 -72 -50h-31q-37 0 -54.5 14t-17.5 36v428h-285q-20 0 -33 14t-13 43v25q0 29 13 43.5t33 14.5h268l-473 723q-5 10 -5 17q0 15 15 25t43 10h69q34 0 51.5 -12.5t31.5 -35.5
l381 -610l372 610q13 24 30.5 36t52.5 12h51q28 0 43 -10t15 -25q0 -7 -5 -17z" />
    <glyph glyph-name="uni04B2" unicode="&#x4b2;" horiz-adv-x="1461" 
d="M1389.5 130q12.5 -14 11.5 -43l-15 -365q0 -22 -15.5 -36t-47.5 -14h-16q-37 0 -54.5 14t-17.5 36v278h-132q-34 0 -51.5 12t-33.5 36l-358 545l-358 -545q-14 -23 -32.5 -35.5t-53.5 -12.5h-48q-28 0 -43.5 9t-15.5 24q0 10 6 19l438 645l-435 644q-6 9 -6 18
q0 14 16 24t43 10h70q35 0 52.5 -12.5t30.5 -35.5l351 -536l351 536q14 23 32 35.5t52 12.5h51q28 0 43.5 -10t15.5 -24q0 -9 -6 -18l-435 -636l382 -561h194q22 0 34.5 -14z" />
    <glyph glyph-name="uni04B6" unicode="&#x4b6;" horiz-adv-x="1464" 
d="M1393 130q13 -14 11 -43l-14 -365q0 -22 -15.5 -36t-47.5 -14h-17q-37 0 -54.5 14t-17.5 36v278h-127q-37 0 -54.5 14t-17.5 36v500q-106 -106 -305 -106h-187q-233 0 -335 104.5t-102 297.5v501q0 20 17.5 33t52.5 13h26q40 0 59 -13t19 -33v-500q0 -88 24.5 -142.5
t86 -82.5t169.5 -28h189q153 0 219.5 63.5t66.5 189.5v496q0 22 17.5 36t54.5 14h32q71 0 71 -50v-1199h144q22 0 35 -14z" />
    <glyph glyph-name="uni04BA" unicode="&#x4ba;" horiz-adv-x="1353" 
d="M1141 844.5q102 -104.5 102 -298.5v-501q0 -20 -17.5 -32.5t-52.5 -12.5h-26q-40 0 -59 12.5t-19 32.5v500q0 88 -24.5 143t-86 83t-169.5 28h-189q-153 0 -219.5 -63.5t-66.5 -190.5v-495q0 -22 -17.5 -36t-54.5 -14h-32q-71 0 -71 50v1293q0 50 71 50h32q37 0 54.5 -14
t17.5 -36v-500q108 106 305 106h187q233 0 335 -104.5z" />
    <glyph glyph-name="uni04C0" unicode="&#x4c0;" horiz-adv-x="453" 
d="M139 0zM156.5 14q-17.5 14 -17.5 36v1293q0 22 17.5 36t54.5 14h33q37 0 53.5 -14t16.5 -36v-1293q0 -22 -16.5 -36t-53.5 -14h-33q-37 0 -54.5 14z" />
    <glyph glyph-name="uni04D8" unicode="&#x4d8;" horiz-adv-x="1438" 
d="M1027.5 1331.5q143.5 -81.5 217.5 -237.5t74 -377v-41q0 -335 -159.5 -513t-473.5 -183q-180 0 -307 49t-194 144.5t-67 231.5q0 156 72 244t208.5 125.5t354.5 44.5l376 11q-24 216 -144 324.5t-330 108.5q-79 0 -147 -12t-136 -36l-93 -34q-9 -4 -19 -4q-11 0 -17.5 8
t-11.5 26l-17 55q-3 11 -3 18q0 12 7.5 20t24.5 14l95 36q163 59 341 59q205 0 348.5 -81.5zM1024.5 264.5q110.5 136.5 110.5 411.5v17l-362 -8q-158 -3 -264 -28.5t-165 -85.5t-59 -163q0 -147 102 -213.5t293 -66.5q234 0 344.5 136.5z" />
    <glyph glyph-name="uni04E2" unicode="&#x4e2;" horiz-adv-x="1342" 
d="M139 0zM180 37q-41 37 -41 102v1207q0 21 15.5 34t48.5 13h26q64 0 64 -47v-1177q0 -16 14 -16q15 0 23 16l524 1087q25 53 48 82.5t52 42t71 12.5h26q69 0 110.5 -37.5t41.5 -101.5v-1208q0 -20 -15.5 -33t-48.5 -13h-26q-64 0 -64 46v1178q0 16 -14 16q-15 0 -23 -16
l-524 -1088q-25 -53 -48 -82t-51.5 -41.5t-71.5 -12.5h-26q-70 0 -111 37zM397.5 1609q-11.5 13 -11.5 39v23q0 26 11.5 39t29.5 13h506q18 0 29.5 -13t11.5 -39v-23q0 -26 -11.5 -39t-29.5 -13h-506q-18 0 -29.5 13z" />
    <glyph glyph-name="uni04E8" unicode="&#x4e8;" horiz-adv-x="1487" 
d="M1217 1239q152 -174 152 -522v-41q0 -347 -151.5 -521.5t-473.5 -174.5t-474 174t-152 522v41q0 348 152 522t474 174q321 0 473 -174zM497 1214q-95 -52 -141.5 -159.5t-53.5 -277.5h883q-7 170 -53.5 277.5t-141.5 159.5t-246 52q-152 0 -247 -52zM994.5 182.5
q95.5 53.5 141 165t50.5 289.5h-885q5 -178 50.5 -289.5t141.5 -165t251 -53.5t250.5 53.5z" />
    <glyph glyph-name="uni04EE" unicode="&#x4ee;" horiz-adv-x="1253" 
d="M101 0zM1154 1363q0 -9 -4 -17l-443 -955q-92 -199 -204 -296t-271 -97h-81q-21 0 -35.5 13t-14.5 40v39q0 27 14.5 40t35.5 13h52q115 0 195.5 63t143.5 198l25 55l-445 887q-4 8 -4 17q0 30 59 30h48q71 0 91 -47l339 -718l315 718q10 21 31 34t61 13h33q59 0 59 -30z
M374.5 1609q-11.5 13 -11.5 39v23q0 26 11.5 39t29.5 13h506q18 0 29.5 -13t11.5 -39v-23q0 -26 -11.5 -39t-29.5 -13h-506q-18 0 -29.5 13z" />
    <glyph glyph-name="uni0430" unicode="&#x430;" horiz-adv-x="1009" 
d="M99 0zM812 883q87 -83 87 -239v-357q0 -152 -96.5 -229.5t-303.5 -77.5q-400 0 -400 285v18q0 143 103 210.5t322 77.5l216 10v43q0 105 -51.5 153.5t-162.5 48.5q-66 0 -138 -15t-132 -39l-64 -25q-14 -4 -17 -4q-18 0 -26 30l-15 56q-2 12 -2 15q0 22 25 31l64 27
q150 64 312 64q192 0 279 -83zM685 145.5q55 45.5 55 141.5v177l-204 -11q-98 -5 -157.5 -22.5t-88.5 -53t-29 -93.5v-18q0 -56 22 -92t74 -55t142 -19q131 0 186 45.5z" />
    <glyph glyph-name="uni0431" unicode="&#x431;" horiz-adv-x="1112" 
d="M892 846.5q102 -118.5 102 -353.5v-41q0 -238 -105.5 -355t-336.5 -117q-230 0 -332 117t-102 355v53q0 466 167.5 678t458.5 212h103q53 0 93 14q16 4 21 4q28 0 28 -37v-47q0 -18 -7.5 -30.5t-25.5 -19.5q-54 -22 -111 -20l-91 2q-344 6 -445 -377q93 81 265 81
q216 0 318 -118.5zM829 493q0 124 -26.5 197.5t-87 108t-163.5 34.5t-163 -34.5t-87 -108t-27 -197.5v-41q0 -124 27 -198t87 -108t163 -34q104 0 164 34t86.5 108t26.5 198v41z" />
    <glyph glyph-name="uni0432" unicode="&#x432;" horiz-adv-x="1080" 
d="M935.5 411q37.5 -53 37.5 -140q0 -126 -90.5 -198.5t-261.5 -72.5h-306q-97 0 -141.5 37t-44.5 108v656q0 71 44.5 108t141.5 37h317q153 0 230 -65.5t77 -184.5q0 -71 -30 -124t-91 -81q80 -27 117.5 -80zM288 551h333q85 0 121.5 32t36.5 105q0 50 -15 78.5t-49.5 41.5
t-95.5 13h-286q-45 0 -45 -34v-236zM726.5 141q41.5 16 58.5 50t17 90q0 74 -35 110t-120 36h-359v-268q0 -34 45 -34h279q73 0 114.5 16z" />
    <glyph glyph-name="uni0433" unicode="&#x433;" horiz-adv-x="799" 
d="M144.5 12.5q-15.5 12.5 -15.5 32.5v756q0 71 44.5 108t141.5 37h364q18 0 30 -13t12 -38v-24q0 -26 -12 -38.5t-30 -12.5h-344q-45 0 -45 -35v-740q0 -20 -15.5 -32.5t-48.5 -12.5h-33q-33 0 -48.5 12.5z" />
    <glyph glyph-name="uni0453" unicode="&#x453;" horiz-adv-x="799" 
d="M129 0zM144.5 12.5q-15.5 12.5 -15.5 32.5v756q0 71 44.5 108t141.5 37h364q18 0 30 -13t12 -38v-24q0 -26 -12 -38.5t-30 -12.5h-344q-45 0 -45 -35v-740q0 -20 -15.5 -32.5t-48.5 -12.5h-33q-33 0 -48.5 12.5zM374.5 1147q-11.5 9 -11.5 24q0 21 24 46l127 137
q18 20 36 29.5t43 9.5h45q25 0 40 -11t15 -28q0 -21 -20 -40l-107 -104q-43 -40 -69.5 -56t-55.5 -16h-35q-20 0 -31.5 9z" />
    <glyph glyph-name="uni0491" unicode="&#x491;" horiz-adv-x="804" 
d="M144.5 12.5q-15.5 12.5 -15.5 32.5v756q0 71 44.5 108t141.5 37h273v265q0 45 67 45h15q31 0 45.5 -12.5t14.5 -32.5l13 -339q1 -26 -10.5 -39t-31.5 -13h-366q-45 0 -45 -35v-740q0 -20 -15.5 -32.5t-48.5 -12.5h-33q-33 0 -48.5 12.5z" />
    <glyph glyph-name="uni0434" unicode="&#x434;" horiz-adv-x="1416" 
d="M1327.5 113q11.5 -13 10.5 -39l-13 -339q0 -20 -15 -33t-45 -13h-15q-35 0 -51 13t-16 33v265h-960v-265q0 -21 -16 -33.5t-51 -12.5h-15q-30 0 -45 13t-15 33l-13 339q-1 26 10.5 39t31.5 13h65q95 0 143.5 55.5t59.5 175.5l38 444q6 71 49 108t137 37h353
q186 0 186 -145v-675h155q20 0 31.5 -13zM450 126h528v659q0 35 -45 35h-310q-24 0 -33.5 -8.5t-11.5 -26.5l-40 -427q-13 -148 -88 -232z" />
    <glyph glyph-name="uni0435" unicode="&#x435;" horiz-adv-x="1033" 
d="M913 94q2 -5 2 -14q0 -19 -23 -29l-59 -24q-112 -47 -267 -47q-139 0 -244 51t-164 157t-59 267v37q0 150 53.5 256.5t154 162t239.5 55.5q187 0 287.5 -78t100.5 -215q0 -104 -48.5 -163.5t-140.5 -85t-238 -29.5l-247 -7q19 -138 107.5 -203t224.5 -65q55 0 109 9
t98 25l57 22q9 3 15 3q16 0 24 -25zM331.5 755q-72.5 -78 -75.5 -249l212 5q115 3 177.5 11.5t101 40.5t38.5 99q0 78 -57.5 124.5t-180.5 46.5q-143 0 -215.5 -78z" />
    <glyph glyph-name="uni0451" unicode="&#x451;" horiz-adv-x="1033" 
d="M99 0zM913 94q2 -5 2 -14q0 -19 -23 -29l-59 -24q-112 -47 -267 -47q-139 0 -244 51t-164 157t-59 267v37q0 150 53.5 256.5t154 162t239.5 55.5q187 0 287.5 -78t100.5 -215q0 -104 -48.5 -163.5t-140.5 -85t-238 -29.5l-247 -7q19 -138 107.5 -203t224.5 -65
q55 0 109 9t98 25l57 22q9 3 15 3q16 0 24 -25zM331.5 755q-72.5 -78 -75.5 -249l212 5q115 3 177.5 11.5t101 40.5t38.5 99q0 78 -57.5 124.5t-180.5 46.5q-143 0 -215.5 -78zM325.5 1190q-26.5 26 -26.5 70q0 43 26.5 69t69.5 26t70 -26t27 -69q0 -44 -27 -70t-70 -26
t-69.5 26zM627.5 1190q-26.5 26 -26.5 70q0 43 26.5 69t69.5 26t70 -26t27 -69q0 -44 -27 -70t-70 -26t-69.5 26z" />
    <glyph glyph-name="uni0436" unicode="&#x436;" horiz-adv-x="1595" 
d="M78 19q0 11 13 26l402 434l-402 421q-13 16 -13 26q0 20 41 20h74q62 0 101 -46l345 -388q16 -17 16 -38q0 -19 -16 -40l-341 -389q-38 -45 -101 -45h-78q-41 0 -41 19zM731.5 12.5q-15.5 12.5 -15.5 32.5v856q0 20 15.5 32.5t48.5 12.5h33q33 0 48.5 -12.5t15.5 -32.5
v-856q0 -20 -15.5 -32.5t-48.5 -12.5h-33q-33 0 -48.5 12.5zM1297 45l-341 389q-16 21 -16 40q0 21 16 38l345 388q39 46 101 46h74q41 0 41 -20q0 -12 -13 -26l-402 -421l402 -434q13 -13 13 -26q0 -19 -41 -19h-78q-63 0 -101 45z" />
    <glyph glyph-name="uni0437" unicode="&#x437;" horiz-adv-x="983" 
d="M837.5 407.5q36.5 -57.5 36.5 -145.5q0 -85 -41.5 -148.5t-125 -99t-205.5 -35.5q-153 0 -314 65l-65 26q-24 11 -24 31q0 5 2 15l15 56q7 29 27 29q7 0 16 -3l64 -26q64 -25 136.5 -42.5t137.5 -17.5q80 0 125.5 17t64 52t18.5 91q0 75 -34 113.5t-117 38.5h-254
q-17 0 -29 12.5t-12 37.5v29q0 25 12 37.5t29 12.5h228q83 0 120 36t37 109q0 50 -17 79.5t-58 43t-115 13.5q-118 0 -268 -60l-64 -25q-14 -4 -17 -4q-10 0 -16 7t-10 22l-15 56q-2 10 -2 15q0 21 24 30l65 27q76 31 151 47.5t157 16.5q172 0 258 -69.5t86 -191.5
q0 -73 -30 -130t-91 -84q78 -26 114.5 -83.5z" />
    <glyph glyph-name="uni0438" unicode="&#x438;" horiz-adv-x="1146" 
d="M166.5 36.5q-37.5 36.5 -37.5 102.5v761q0 20 15.5 33t48.5 13h29q34 0 49.5 -12.5t15.5 -33.5v-731q0 -16 14 -16t22 16l347 641q29 54 52.5 82.5t52 41t70.5 12.5h28q68 0 106.5 -37t38.5 -102v-761q0 -21 -15.5 -33.5t-49.5 -12.5h-29q-64 0 -64 46v731q0 16 -15 16
q-14 0 -22 -16l-347 -641q-29 -54 -52.5 -82.5t-51.5 -41t-70 -12.5h-29q-69 0 -106.5 36.5z" />
    <glyph glyph-name="uni0439" unicode="&#x439;" horiz-adv-x="1146" 
d="M129 0zM166.5 36.5q-37.5 36.5 -37.5 102.5v761q0 20 15.5 33t48.5 13h29q34 0 49.5 -12.5t15.5 -33.5v-731q0 -16 14 -16t22 16l347 641q29 54 52.5 82.5t52 41t70.5 12.5h28q68 0 106.5 -37t38.5 -102v-761q0 -21 -15.5 -33.5t-49.5 -12.5h-29q-64 0 -64 46v731
q0 16 -15 16q-14 0 -22 -16l-347 -641q-29 -54 -52.5 -82.5t-51.5 -41t-70 -12.5h-29q-69 0 -106.5 36.5zM402 1149.5q-67 34.5 -100 93.5t-33 131q0 30 9.5 47.5t27.5 17.5q19 0 30 -14t25 -46q18 -41 37.5 -68.5t60.5 -48t108 -20.5t108 20.5t60.5 48t37.5 68.5
q14 32 25 46t30 14q18 0 27.5 -17.5t9.5 -47.5q0 -72 -33 -131t-100 -93.5t-165 -34.5t-165 34.5z" />
    <glyph glyph-name="uni043A" unicode="&#x43a;" horiz-adv-x="1006" 
d="M144.5 12.5q-15.5 12.5 -15.5 32.5v856q0 20 15.5 32.5t48.5 12.5h33q33 0 48.5 -12.5t15.5 -32.5v-856q0 -20 -15.5 -32.5t-48.5 -12.5h-33q-33 0 -48.5 12.5zM708 45l-341 389q-16 21 -16 40q0 21 16 38l345 388q39 46 101 46h74q41 0 41 -20q0 -10 -13 -26l-402 -421
l402 -434q13 -15 13 -26q0 -19 -41 -19h-78q-63 0 -101 45z" />
    <glyph glyph-name="uni045C" unicode="&#x45c;" horiz-adv-x="1006" 
d="M129 0zM144.5 12.5q-15.5 12.5 -15.5 32.5v856q0 20 15.5 32.5t48.5 12.5h33q33 0 48.5 -12.5t15.5 -32.5v-856q0 -20 -15.5 -32.5t-48.5 -12.5h-33q-33 0 -48.5 12.5zM708 45l-341 389q-16 21 -16 40q0 21 16 38l345 388q39 46 101 46h74q41 0 41 -20q0 -10 -13 -26
l-402 -421l402 -434q13 -15 13 -26q0 -19 -41 -19h-78q-63 0 -101 45zM423.5 1147q-11.5 9 -11.5 24q0 21 24 46l127 137q18 20 36 29.5t43 9.5h45q25 0 40 -11t15 -28q0 -21 -20 -40l-107 -104q-43 -40 -69.5 -56t-55.5 -16h-35q-20 0 -31.5 9z" />
    <glyph glyph-name="uni043B" unicode="&#x43b;" 
d="M954 12.5q-16 12.5 -16 32.5v740q0 18 -10.5 26.5t-33.5 8.5h-322q-23 0 -33 -8.5t-12 -26.5l-39 -431q-10 -109 -54 -189t-115.5 -122.5t-161.5 -42.5h-35q-19 0 -31 13t-12 40v21q0 27 12 40.5t31 13.5h16q82 0 131 53t60 178l38 442q6 71 49 108t137 37h361
q186 0 186 -145v-756q0 -20 -15.5 -32.5t-48.5 -12.5h-33q-33 0 -49 12.5z" />
    <glyph glyph-name="uni043C" unicode="&#x43c;" horiz-adv-x="1296" 
d="M1193 12.5q-16 -12.5 -48 -12.5h-35q-56 0 -60 44l-54 741q0 16 -12 16q-17 0 -22 -16l-199 -686q-14 -54 -42 -76.5t-73 -22.5h-10q-46 0 -73.5 22t-42.5 77l-197 686q-5 16 -20 16q-14 0 -14 -16l-55 -741q-2 -20 -15.5 -32t-46.5 -12h-24q-31 0 -47 12.5t-14 31.5
l55 770q5 62 42 97t101 35h23q66 0 103.5 -27.5t56.5 -101.5l179 -671l181 676q29 124 160 124h23q65 0 99.5 -34t39.5 -98l55 -770q2 -19 -14 -31.5z" />
    <glyph glyph-name="uni043D" unicode="&#x43d;" horiz-adv-x="1094" 
d="M950.5 933.5q15.5 -12.5 15.5 -32.5v-856q0 -20 -15.5 -32.5t-49.5 -12.5h-32q-34 0 -49.5 12.5t-15.5 32.5v369h-514v-369q0 -20 -15.5 -32.5t-48.5 -12.5h-33q-33 0 -48.5 12.5t-15.5 32.5v856q0 20 15.5 32.5t48.5 12.5h33q33 0 48.5 -12.5t15.5 -32.5v-361h514v361
q0 20 15.5 32.5t49.5 12.5h32q34 0 49.5 -12.5z" />
    <glyph glyph-name="uni043E" unicode="&#x43e;" horiz-adv-x="1093" 
d="M99 0zM206.5 97.5q-107.5 117.5 -107.5 354.5v42q0 237 107.5 354.5t338.5 117.5q232 0 340.5 -117.5t108.5 -354.5v-42q0 -237 -108.5 -354.5t-340.5 -117.5q-231 0 -338.5 117.5zM711.5 146q61.5 34 90 108t28.5 198v42q0 124 -28.5 198t-90 108t-165.5 34t-166 -34
t-90 -108t-28 -199v-41q0 -124 28 -198t90 -108t166 -34t165.5 34z" />
    <glyph glyph-name="uni043F" unicode="&#x43f;" horiz-adv-x="1094" 
d="M144.5 12.5q-15.5 12.5 -15.5 32.5v756q0 71 44.5 108t141.5 37h465q186 0 186 -145v-756q0 -20 -15.5 -32.5t-49.5 -12.5h-32q-34 0 -49.5 12.5t-15.5 32.5v740q0 18 -10.5 26.5t-34.5 8.5h-424q-45 0 -45 -35v-740q0 -20 -15.5 -32.5t-48.5 -12.5h-33q-33 0 -48.5 12.5
z" />
    <glyph glyph-name="uni0440" unicode="&#x440;" horiz-adv-x="1094" 
d="M119 0zM890.5 849q105.5 -117 105.5 -355v-42q0 -236 -102 -354t-318 -118q-201 0 -295 114v-417q0 -20 -16.5 -33t-51.5 -13h-26q-35 0 -51.5 13t-16.5 33v817q0 239 102.5 355.5t332.5 116.5q231 0 336.5 -117zM833 494q0 124 -27 198t-87.5 108t-164.5 34
q-103 0 -162.5 -34t-85 -108t-25.5 -199v-41q0 -124 26.5 -198t85.5 -108t161 -34q104 0 164.5 34t87.5 108t27 198v42z" />
    <glyph glyph-name="uni0441" unicode="&#x441;" horiz-adv-x="966" 
d="M99 0zM214.5 92.5q-115.5 112.5 -115.5 361.5v38q0 474 444 474q140 0 252 -47l57 -24q26 -11 26 -30q0 -6 -3 -14l-18 -54q-8 -27 -25 -27q-5 0 -14 3l-58 22q-90 34 -199 34q-146 0 -222 -78t-76 -259v-38q0 -181 76 -259t222 -78q109 0 199 34l58 22q9 3 14 3
q17 0 25 -27l18 -54q3 -7 3 -14q0 -19 -26 -30l-57 -24q-112 -47 -252 -47q-213 0 -328.5 112.5z" />
    <glyph glyph-name="uni0442" unicode="&#x442;" horiz-adv-x="907" 
d="M855 933q12 -13 12 -38v-24q0 -26 -12 -38.5t-30 -12.5h-288v-775q0 -20 -15.5 -32.5t-49.5 -12.5h-32q-34 0 -49.5 12.5t-15.5 32.5v775h-293q-18 0 -30 12.5t-12 38.5v24q0 25 12 38t30 13h743q18 0 30 -13z" />
    <glyph glyph-name="uni0443" unicode="&#x443;" horiz-adv-x="984" 
d="M925 915q0 -6 -3 -14l-350 -913q-67 -177 -166.5 -267t-235.5 -90h-67q-18 0 -29.5 13t-11.5 39v23q0 26 11.5 39t29.5 13h43q95 0 161 60.5t113 182.5l16 42l-350 858q-3 8 -3 15q0 14 13 22t39 8h46q63 0 80 -45l259 -660l240 660q17 45 80 45h32q53 0 53 -31z" />
    <glyph glyph-name="uni045E" unicode="&#x45e;" horiz-adv-x="984" 
d="M62 0zM925 915q0 -6 -3 -14l-350 -913q-67 -177 -166.5 -267t-235.5 -90h-67q-18 0 -29.5 13t-11.5 39v23q0 26 11.5 39t29.5 13h43q95 0 161 60.5t113 182.5l16 42l-350 858q-3 8 -3 15q0 14 13 22t39 8h46q63 0 80 -45l259 -660l240 660q17 45 80 45h32q53 0 53 -31z
M353 1149.5q-67 34.5 -100 93.5t-33 131q0 30 9.5 47.5t27.5 17.5q19 0 30 -14t25 -46q18 -41 37.5 -68.5t60.5 -48t108 -20.5t108 20.5t60.5 48t37.5 68.5q14 32 25 46t30 14q18 0 27.5 -17.5t9.5 -47.5q0 -72 -33 -131t-100 -93.5t-165 -34.5t-165 34.5z" />
    <glyph glyph-name="uni0444" unicode="&#x444;" horiz-adv-x="1313" 
d="M1106.5 832.5q107.5 -113.5 107.5 -348.5v-41q0 -156 -46.5 -253.5t-145 -143.5t-256.5 -46h-28v-323q0 -20 -16.5 -33t-51.5 -13h-26q-35 0 -51 13t-16 33v323h-31q-157 0 -255.5 46t-145 143.5t-46.5 253.5v41q0 235 107.5 348.5t339.5 113.5h31v401q0 20 16 33t51 13
h26q35 0 51.5 -13t16.5 -33v-401h28q233 0 340.5 -113.5zM577 123v700h-31q-104 0 -166.5 -34t-91 -107.5t-28.5 -197.5v-41q0 -124 28.5 -193t90 -98t167.5 -29h31zM1052 484q0 124 -28.5 197.5t-90.5 107.5t-166 34h-29v-700h29q106 0 167.5 29t89.5 98t28 193v41z" />
    <glyph glyph-name="uni0445" unicode="&#x445;" horiz-adv-x="1005" 
d="M80 0zM923 31q0 -13 -14.5 -22t-40.5 -9h-64q-32 0 -49 11.5t-31 33.5l-228 328l-234 -328q-13 -21 -30 -33t-49 -12h-47q-26 0 -41 9t-15 22q0 9 6 18l308 426l-304 422q-6 9 -6 18q0 13 15 22t41 9h64q32 0 49 -12t30 -33l225 -321l225 321q14 22 31 33.5t49 11.5h47
q26 0 40.5 -9t14.5 -22q0 -9 -6 -18l-303 -417l311 -431q6 -9 6 -18z" />
    <glyph glyph-name="uni0447" unicode="&#x447;" horiz-adv-x="1068" 
d="M923.5 933.5q15.5 -12.5 15.5 -32.5v-865q0 -21 -15.5 -33.5t-49.5 -12.5h-32q-34 0 -49.5 12.5t-15.5 33.5v301q-96 -87 -273 -87q-203 0 -294.5 96.5t-91.5 284.5v270q0 20 16.5 32.5t51.5 12.5h27q34 0 50.5 -12.5t16.5 -32.5v-269q0 -88 23 -142t75 -79.5t141 -25.5
q136 0 197 59t61 188v269q0 20 15.5 32.5t49.5 12.5h32q34 0 49.5 -12.5z" />
    <glyph glyph-name="uni0446" unicode="&#x446;" horiz-adv-x="1212" 
d="M1142.5 113q11.5 -13 10.5 -39l-13 -339q0 -20 -15 -33t-45 -13h-15q-34 0 -50 13t-16 33v265h-684q-98 0 -142 34.5t-44 104.5v762q0 20 15.5 32.5t48.5 12.5h33q33 0 48.5 -12.5t15.5 -32.5v-740q0 -35 45 -35h469v775q0 20 15.5 32.5t49.5 12.5h32q34 0 49.5 -12.5
t15.5 -32.5v-775h145q20 0 31.5 -13z" />
    <glyph glyph-name="uni0448" unicode="&#x448;" horiz-adv-x="1687" 
d="M173.5 37q-44.5 37 -44.5 108v756q0 20 15.5 32.5t48.5 12.5h33q33 0 48.5 -12.5t15.5 -32.5v-740q0 -35 45 -35h428v775q0 20 15.5 32.5t49.5 12.5h32q34 0 49.5 -12.5t15.5 -32.5v-775h427q23 0 33.5 8.5t10.5 26.5v740q0 20 16 32.5t49 12.5h33q33 0 48.5 -12.5
t15.5 -32.5v-756q0 -145 -186 -145h-1057q-97 0 -141.5 37z" />
    <glyph glyph-name="uni0449" unicode="&#x449;" horiz-adv-x="1802" 
d="M1732.5 113q11.5 -13 10.5 -39l-13 -339q0 -20 -15 -33t-45 -13h-15q-35 0 -51 13t-16 33v265h-1273q-97 0 -141.5 37t-44.5 108v756q0 20 15.5 32.5t48.5 12.5h33q33 0 48.5 -12.5t15.5 -32.5v-740q0 -35 45 -35h427v775q0 20 15.5 32.5t48.5 12.5h33q33 0 48.5 -12.5
t15.5 -32.5v-775h472v775q0 20 15.5 32.5t48.5 12.5h33q33 0 48.5 -12.5t15.5 -32.5v-775h145q20 0 31.5 -13z" />
    <glyph glyph-name="uni045F" unicode="&#x45f;" horiz-adv-x="1094" 
d="M950.5 933.5q15.5 -12.5 15.5 -32.5v-756q0 -145 -186 -145h-145l-10 -262q0 -22 -15.5 -35.5t-46.5 -13.5h-16q-32 0 -47 13.5t-15 35.5l-10 262h-160q-97 0 -141.5 37t-44.5 108v756q0 20 15.5 32.5t48.5 12.5h33q33 0 48.5 -12.5t15.5 -32.5v-740q0 -35 45 -35h424
q24 0 34.5 8.5t10.5 26.5v740q0 20 15.5 32.5t49.5 12.5h32q34 0 49.5 -12.5z" />
    <glyph glyph-name="uni044F" unicode="&#x44f;" horiz-adv-x="1081" 
d="M907.5 911q44.5 -37 44.5 -108v-758q0 -20 -15.5 -32.5t-48.5 -12.5h-32q-34 0 -49.5 12.5t-15.5 32.5v343h-259q-59 -3 -92 -30.5t-63 -84.5l-121 -232q-9 -18 -29.5 -29.5t-51.5 -11.5h-52q-43 0 -43 23q0 8 6 18l143 257q36 65 93 102q-103 23 -158.5 89t-55.5 177
q0 144 86.5 213t256.5 69h315q97 0 141.5 -37zM791 788q0 18 -10.5 26.5t-34.5 8.5h-286q-71 0 -111.5 -16.5t-58 -50.5t-17.5 -90q0 -72 45 -110t135 -38h338v270z" />
    <glyph glyph-name="uni044C" unicode="&#x44c;" horiz-adv-x="1071" 
d="M972 282q0 -144 -86.5 -213t-255.5 -69h-315q-97 0 -141.5 37t-44.5 108v756q0 20 15.5 32.5t48.5 12.5h33q33 0 48.5 -12.5t15.5 -32.5v-349h344q338 0 338 -270zM732.5 141.5q40.5 16.5 58 50.5t17.5 90q0 146 -180 146h-338v-269q0 -34 45 -34h286q71 0 111.5 16.5z
" />
    <glyph glyph-name="uni044A" unicode="&#x44a;" horiz-adv-x="1286" 
d="M1187 282q0 -144 -86.5 -213t-255.5 -69h-316q-186 0 -186 145v675h-213q-18 0 -30 12.5t-12 38.5v24q0 25 12 38t30 13h310q34 0 49.5 -12.5t15.5 -32.5v-341h344q338 0 338 -278zM948.5 141.5q40.5 16.5 57.5 50.5t17 90q0 146 -180 146h-338v-269q0 -17 10.5 -25.5
t34.5 -8.5h287q71 0 111.5 16.5z" />
    <glyph glyph-name="uni044B" unicode="&#x44b;" horiz-adv-x="1490" 
d="M129 0zM972 282q0 -144 -86.5 -213t-255.5 -69h-315q-97 0 -141.5 37t-44.5 108v756q0 20 15.5 32.5t48.5 12.5h33q33 0 48.5 -12.5t15.5 -32.5v-349h344q338 0 338 -270zM732.5 141.5q40.5 16.5 58 50.5t17.5 90q0 146 -180 146h-338v-269q0 -34 45 -34h286
q71 0 111.5 16.5zM1215.5 12.5q-15.5 12.5 -15.5 32.5v856q0 20 15.5 32.5t48.5 12.5h33q33 0 48.5 -12.5t15.5 -32.5v-856q0 -20 -15.5 -32.5t-48.5 -12.5h-33q-33 0 -48.5 12.5z" />
    <glyph glyph-name="uni0459" unicode="&#x459;" horiz-adv-x="1865" 
d="M1680.5 492q85.5 -68 85.5 -210q0 -144 -86.5 -213t-255.5 -69h-315q-186 0 -186 145v640q0 17 -10.5 25.5t-34.5 8.5h-304q-24 0 -33.5 -8.5t-11.5 -25.5l-40 -431q-10 -109 -54 -189t-116 -122.5t-162 -42.5h-35q-19 0 -31 13t-12 40v20q0 26 12 39.5t31 13.5h16
q80 0 130.5 56.5t60.5 174.5l38 444q6 71 49 108t137 37h346q96 0 140 -37t44 -108v-241h345q167 0 252.5 -68zM1527.5 141.5q40.5 16.5 57.5 50.5t17 90q0 146 -180 146h-339v-269q0 -17 10.5 -25.5t34.5 -8.5h288q71 0 111.5 16.5z" />
    <glyph glyph-name="uni045A" unicode="&#x45a;" horiz-adv-x="1733" 
d="M1634 282q0 -144 -86.5 -213t-255.5 -69h-302q-188 0 -188 145v283h-512v-383q0 -20 -15.5 -32.5t-48.5 -12.5h-33q-33 0 -48.5 12.5t-15.5 32.5v856q0 20 15.5 32.5t48.5 12.5h33q33 0 48.5 -12.5t15.5 -32.5v-340h512v340q0 20 15.5 32.5t49.5 12.5h32q34 0 49.5 -12.5
t15.5 -32.5v-341h332q338 0 338 -278zM1395.5 141.5q40.5 16.5 57.5 50.5t17 90q0 146 -180 146h-326v-269q0 -17 10.5 -25.5t34.5 -8.5h275q71 0 111.5 16.5z" />
    <glyph glyph-name="uni0455" unicode="&#x455;" horiz-adv-x="944" 
d="M98 0zM187 44l-64 26q-25 11 -25 31q0 5 2 15l15 56q8 29 26 29q5 0 17 -4l64 -26q61 -24 133.5 -40t138.5 -16q97 0 144 31.5t47 95.5q0 37 -18 60.5t-47 37.5t-79 31l-161 55q-75 25 -128 54t-88.5 81t-35.5 132t40.5 141.5t119 96.5t187.5 35q71 0 139 -13t121 -35
l58 -25q24 -9 24 -30q0 -5 -2 -15l-14 -58q-8 -29 -26 -29q-5 0 -17 4l-58 23q-99 39 -215 39q-105 0 -150.5 -34t-45.5 -95q0 -44 19 -70t47 -40t78 -30l156 -53q84 -28 135 -53.5t86.5 -74.5t35.5 -128q0 -83 -41 -144t-118.5 -93.5t-185.5 -32.5q-151 0 -314 65z" />
    <glyph glyph-name="uni0454" unicode="&#x454;" horiz-adv-x="966" 
d="M875 95q2 -10 2 -13q0 -21 -25 -31l-57 -24q-112 -47 -252 -47q-213 0 -328.5 112.5t-115.5 361.5v38q0 474 444 474q140 0 252 -47l57 -24q26 -11 26 -30q0 -6 -3 -14l-18 -52q-4 -14 -9.5 -20t-14.5 -6q-6 0 -15 3l-57 21q-91 34 -200 34q-136 0 -213 -70t-87 -223h433
q18 0 29.5 -12.5t11.5 -38.5v-23q0 -25 -11.5 -37.5t-29.5 -12.5h-433q9 -157 86 -228t214 -71q107 0 200 33l57 22q9 3 15 3q16 0 24 -26z" />
    <glyph glyph-name="uni044D" unicode="&#x44d;" horiz-adv-x="966" 
d="M868 492v-38q0 -248 -116 -361t-329 -113q-138 0 -252 47l-57 24q-24 9 -24 31q0 8 1 13l18 52q8 26 24 26q6 0 15 -3l58 -22q91 -33 199 -33q137 0 214 71t86 228h-433q-18 0 -29.5 12.5t-11.5 37.5v23q0 26 11.5 38.5t29.5 12.5h433q-10 153 -87 223t-213 70
q-109 0 -199 -34l-58 -21q-9 -3 -15 -3q-9 0 -14.5 6t-9.5 20l-18 52q-3 8 -3 14q0 19 26 30l57 24q114 47 252 47q445 0 445 -474z" />
    <glyph glyph-name="uni0456" unicode="&#x456;" horiz-adv-x="419" 
d="M111 0zM138.5 1193.5q-27.5 26.5 -27.5 71.5q0 43 27.5 69.5t71.5 26.5q43 0 70.5 -26.5t27.5 -69.5q0 -44 -27.5 -71t-70.5 -27q-44 0 -71.5 26.5zM144.5 12.5q-15.5 12.5 -15.5 32.5v856q0 20 15.5 32.5t48.5 12.5h33q33 0 48.5 -12.5t15.5 -32.5v-856
q0 -20 -15.5 -32.5t-48.5 -12.5h-33q-33 0 -48.5 12.5z" />
    <glyph glyph-name="uni0457" unicode="&#x457;" horiz-adv-x="419" 
d="M0 0zM144.5 12.5q-15.5 12.5 -15.5 32.5v856q0 20 15.5 32.5t48.5 12.5h33q33 0 48.5 -12.5t15.5 -32.5v-856q0 -20 -15.5 -32.5t-48.5 -12.5h-33q-33 0 -48.5 12.5zM-5.5 1190q-26.5 26 -26.5 70q0 43 26.5 69t69.5 26t70 -26t27 -69q0 -44 -27 -70t-70 -26t-69.5 26z
M296.5 1190q-26.5 26 -26.5 70q0 43 26.5 69t69.5 26t70 -26t27 -69q0 -44 -27 -70t-70 -26t-69.5 26z" />
    <glyph glyph-name="uni0458" unicode="&#x458;" horiz-adv-x="422" 
d="M0 0zM140 1193.5q-27 26.5 -27 71.5q0 43 27 69.5t71 26.5t71.5 -26.5t27.5 -69.5q0 -45 -27.5 -71.5t-71.5 -26.5t-71 26.5zM-83.5 -367.5q-30.5 21.5 -30.5 59.5v13q0 21 15 29t47 8q181 0 181 199v960q0 20 15.5 32.5t48.5 12.5h33q33 0 48.5 -12.5t15.5 -32.5v-965
q0 -102 -36 -175t-100.5 -111.5t-148.5 -38.5q-58 0 -88.5 21.5z" />
    <glyph glyph-name="uni045B" unicode="&#x45b;" horiz-adv-x="1068" 
d="M30 0zM888.5 869.5q91.5 -96.5 91.5 -284.5v-540q0 -20 -16.5 -32.5t-51.5 -12.5h-26q-35 0 -51.5 12.5t-16.5 32.5v539q0 88 -23.5 142t-76 80t-139.5 26q-136 0 -197 -59t-61 -189v-539q0 -20 -15.5 -32.5t-48.5 -12.5h-33q-33 0 -48.5 12.5t-15.5 32.5v1036h-76
q-26 0 -40 14t-14 40v16q0 26 14 40t40 14h76v142q0 20 15.5 33t48.5 13h33q33 0 48.5 -13t15.5 -33v-142h418q26 0 40 -14t14 -40v-16q0 -26 -14 -40t-40 -14h-418v-201q97 86 274 86q202 0 293.5 -96.5z" />
    <glyph glyph-name="uni044E" unicode="&#x44e;" horiz-adv-x="1513" 
d="M1307 848.5q107 -117.5 107 -354.5v-42q0 -237 -107 -354.5t-339 -117.5q-222 0 -329 108.5t-115 325.5h-232v-369q0 -20 -15.5 -32.5t-49.5 -12.5h-34q-33 0 -48.5 12.5t-15.5 32.5v856q0 20 15.5 32.5t48.5 12.5h34q34 0 49.5 -12.5t15.5 -32.5v-361h232
q10 214 117.5 320t326.5 106q232 0 339 -117.5zM1252 494q0 123 -28 197t-90 107.5t-165 33.5q-104 0 -166 -34t-90 -107.5t-28 -197.5v-41q0 -124 28 -198t90 -108t166 -34t165.5 34t89.5 108t28 198v42z" />
    <glyph glyph-name="uni0452" unicode="&#x452;" horiz-adv-x="1099" 
d="M889 870q91 -96 91 -285v-649q0 -102 -35 -175.5t-99 -111.5t-148 -38q-58 0 -88.5 21.5t-30.5 59.5v13q0 21 15.5 29t47.5 8q88 0 132 47.5t44 151.5v643q0 89 -22.5 142.5t-74.5 79.5t-141 26q-138 0 -198 -58.5t-60 -189.5v-539q0 -20 -15.5 -32.5t-49.5 -12.5h-32
q-34 0 -49.5 12.5t-15.5 32.5v1036h-77q-26 0 -39.5 14t-13.5 40v16q0 26 13.5 40t39.5 14h77v142q0 21 15.5 33.5t49.5 12.5h32q34 0 49.5 -12.5t15.5 -33.5v-142h417q26 0 40 -14t14 -40v-16q0 -26 -14 -40t-40 -14h-417v-200q97 85 273 85q203 0 294 -96z" />
    <glyph glyph-name="uni0463" unicode="&#x463;" horiz-adv-x="1103" 
d="M918.5 492q85.5 -68 85.5 -210q0 -144 -86.5 -213t-255.5 -69h-316q-186 0 -186 145v763h-77q-26 0 -40 14t-14 40v20q0 26 14 39.5t40 13.5h77v312q0 21 15.5 33.5t49.5 12.5h32q34 0 49.5 -12.5t15.5 -33.5v-312h415q26 0 40 -14t14 -39v-20q0 -26 -14 -40t-40 -14
h-415v-348h344q167 0 252.5 -68zM765.5 141.5q40.5 16.5 57.5 50.5t17 90q0 146 -180 146h-338v-269q0 -17 10.5 -25.5t34.5 -8.5h287q71 0 111.5 16.5z" />
    <glyph glyph-name="uni0473" unicode="&#x473;" horiz-adv-x="1093" 
d="M885.5 848.5q108.5 -117.5 108.5 -354.5v-42q0 -237 -108.5 -354.5t-340.5 -117.5q-231 0 -338.5 117.5t-107.5 354.5v42q0 237 107.5 354.5t338.5 117.5q232 0 340.5 -117.5zM383.5 802q-61.5 -32 -90.5 -102t-31 -187q22 20 58.5 38t88.5 18q49 0 85 -11.5t81 -33.5
q39 -19 65 -28t58 -9q46 0 78.5 17.5t52.5 39.5q-6 105 -36.5 168.5t-90 92.5t-156.5 29q-101 0 -162.5 -32zM704.5 142.5q60.5 30.5 90.5 96.5t34 176q-19 -20 -52.5 -36t-82.5 -16t-84.5 11.5t-81.5 33.5q-39 19 -65 28t-59 9q-77 0 -140 -63q8 -98 39 -157t90 -86
t153 -27q98 0 158.5 30.5z" />
    <glyph glyph-name="uni0475" unicode="&#x475;" horiz-adv-x="1159" 
d="M417 26.5q-31 26.5 -51 84.5l-275 787q-3 8 -3 15q0 15 14 24t43 9h42q68 0 82 -48l233 -744q3 -8 7 -11t11 -3q6 0 9.5 2.5t6.5 11.5l195 650q20 71 70 106.5t143 35.5h94q19 0 31 -14t12 -42v-17q0 -28 -11.5 -40.5t-31.5 -12.5h-107q-22 0 -32 -10.5t-16 -29.5
l-220 -669q-19 -59 -49.5 -85t-90.5 -26h-20q-55 0 -86 26.5z" />
    <glyph glyph-name="uni0493" unicode="&#x493;" horiz-adv-x="884" 
d="M792 933q12 -13 12 -38v-24q0 -26 -12 -38.5t-30 -12.5h-344q-45 0 -45 -35v-256h303q18 0 30 -13t12 -39v-23q0 -26 -12 -38.5t-30 -12.5h-303v-358q0 -20 -15.5 -32.5t-48.5 -12.5h-33q-33 0 -48.5 12.5t-15.5 32.5v358h-130q-18 0 -30 12.5t-12 38.5v23q0 26 12 39
t30 13h130v272q0 71 44.5 108t141.5 37h364q18 0 30 -13z" />
    <glyph glyph-name="uni0497" unicode="&#x497;" horiz-adv-x="1705" 
d="M639 512q16 -17 16 -38q0 -19 -16 -40l-341 -389q-38 -45 -101 -45h-78q-41 0 -41 19q0 11 13 26l402 434l-402 421q-13 16 -13 26q0 20 41 20h74q62 0 101 -46zM861.5 933.5q15.5 -12.5 15.5 -32.5v-856q0 -20 -15.5 -32.5t-48.5 -12.5h-33q-33 0 -48.5 12.5t-15.5 32.5
v856q0 20 15.5 32.5t48.5 12.5h33q33 0 48.5 -12.5zM1635.5 109q11.5 -13 10.5 -39l-13 -335q0 -20 -15 -33t-45 -13h-15q-35 0 -51 12.5t-16 33.5v255h-73l-2 10h-18q-63 0 -101 45l-341 389q-16 21 -16 40q0 21 16 38l345 388q39 46 101 46h74q41 0 41 -20q0 -12 -13 -26
l-402 -421l331 -357h171q20 0 31.5 -13z" />
    <glyph glyph-name="uni049B" unicode="&#x49b;" horiz-adv-x="1104" 
d="M274.5 933.5q15.5 -12.5 15.5 -32.5v-856q0 -20 -15.5 -32.5t-48.5 -12.5h-33q-33 0 -48.5 12.5t-15.5 32.5v856q0 20 15.5 32.5t48.5 12.5h33q33 0 48.5 -12.5zM1035.5 109q11.5 -13 9.5 -39l-12 -335q-1 -20 -16 -33t-45 -13h-14q-35 0 -51 12.5t-16 33.5v255h-73
l-2 10h-7q-63 0 -101 45l-341 389q-16 21 -16 40q0 21 16 38l345 388q39 46 101 46h74q41 0 41 -20q0 -10 -13 -26l-402 -421l331 -357h159q21 0 32.5 -13z" />
    <glyph glyph-name="uni04A3" unicode="&#x4a3;" horiz-adv-x="1235" 
d="M1165.5 109q11.5 -13 10.5 -39l-13 -335q0 -20 -15 -33t-45 -13h-14q-35 0 -51 12.5t-16 33.5v255h-112v10h-9h-32q-34 0 -49.5 12.5t-15.5 32.5v369h-514v-369q0 -20 -15.5 -32.5t-48.5 -12.5h-33q-33 0 -48.5 12.5t-15.5 32.5v856q0 20 15.5 32.5t48.5 12.5h33
q33 0 48.5 -12.5t15.5 -32.5v-361h514v361q0 20 15.5 32.5t49.5 12.5h32q34 0 49.5 -12.5t15.5 -32.5v-779h168q20 0 31.5 -13z" />
    <glyph glyph-name="uni04AF" unicode="&#x4af;" horiz-adv-x="1031" 
d="M448.5 -356q-15.5 13 -15.5 33v323l-341 898q-3 9 -3 16q0 15 14 23.5t42 8.5h43q66 0 82 -48l233 -693q4 -14 18 -14q6 0 9.5 2.5t6.5 11.5l237 693q6 22 27 35t56 13h30q28 0 42 -8.5t14 -22.5q0 -5 -4 -17l-343 -898v-323q0 -20 -15.5 -33t-48.5 -13h-35
q-33 0 -48.5 13z" />
    <glyph glyph-name="uni04B1" unicode="&#x4b1;" horiz-adv-x="1031" 
d="M596 0v-65h219q18 0 30 -13t12 -39v-23q0 -26 -12 -38.5t-30 -12.5h-219v-132q0 -20 -15.5 -33t-48.5 -13h-35q-33 0 -48.5 13t-15.5 33v132h-212q-18 0 -30 12.5t-12 38.5v23q0 26 12 39t30 13h212v65l-341 898q-3 9 -3 16q0 15 14 23.5t42 8.5h43q66 0 82 -48l233 -693
q4 -14 18 -14q6 0 9.5 2.5t6.5 11.5l237 693q6 22 27 35t56 13h30q28 0 42 -8.5t14 -22.5q0 -5 -4 -17z" />
    <glyph glyph-name="uni04B3" unicode="&#x4b3;" horiz-adv-x="1127" 
d="M1057.5 109q11.5 -13 10.5 -39l-13 -335q0 -20 -15 -33t-45 -13h-15q-35 0 -51 12.5t-16 33.5v255h-73l-2 10h-34q-32 0 -49 11.5t-31 33.5l-228 328l-234 -328q-13 -21 -30 -33t-49 -12h-47q-26 0 -41 9t-15 22q0 9 6 18l308 426l-304 422q-6 9 -6 18q0 13 15 22t41 9
h64q32 0 49 -12t30 -33l225 -321l225 321q14 22 31 33.5t49 11.5h47q26 0 40.5 -9t14.5 -22q0 -9 -6 -18l-303 -417l258 -358h162q20 0 31.5 -13z" />
    <glyph glyph-name="uni04B7" unicode="&#x4b7;" horiz-adv-x="1189" 
d="M1119.5 109q11.5 -13 10.5 -39l-13 -335q0 -20 -15 -33t-45 -13h-15q-35 0 -51 12.5t-16 33.5v255h-133q-34 0 -49.5 12.5t-15.5 33.5v301q-96 -87 -273 -87q-203 0 -294.5 96.5t-91.5 284.5v270q0 20 16.5 32.5t51.5 12.5h27q34 0 50.5 -12.5t16.5 -32.5v-269
q0 -88 23 -142t75 -79.5t141 -25.5q136 0 197 59t61 188v269q0 20 15.5 32.5t49.5 12.5h32q34 0 49.5 -12.5t15.5 -32.5v-779h149q20 0 31.5 -13z" />
    <glyph glyph-name="uni04BB" unicode="&#x4bb;" horiz-adv-x="1068" 
d="M129 0zM857.5 869.5q91.5 -96.5 91.5 -284.5v-540q0 -20 -16.5 -32.5t-51.5 -12.5h-26q-35 0 -51.5 12.5t-16.5 32.5v539q0 88 -23.5 142t-76 80t-139.5 26q-136 0 -197 -59t-61 -189v-539q0 -20 -15.5 -32.5t-48.5 -12.5h-33q-33 0 -48.5 12.5t-15.5 32.5v1302
q0 20 15.5 33t48.5 13h33q33 0 48.5 -13t15.5 -33v-467q97 86 274 86q202 0 293.5 -96.5z" />
    <glyph glyph-name="uni04CF" unicode="&#x4cf;" horiz-adv-x="419" 
d="M129 0zM144.5 12.5q-15.5 12.5 -15.5 32.5v856q0 20 15.5 32.5t48.5 12.5h33q33 0 48.5 -12.5t15.5 -32.5v-856q0 -20 -15.5 -32.5t-48.5 -12.5h-33q-33 0 -48.5 12.5z" />
    <glyph glyph-name="uni04D9" unicode="&#x4d9;" horiz-adv-x="1033" 
d="M711 915q105 -51 164 -157t59 -267v-37q0 -150 -53.5 -256.5t-154 -162t-239.5 -55.5q-187 0 -287.5 77.5t-100.5 215.5q0 104 48 163.5t140.5 85t238.5 29.5l245 7q-18 138 -107 205.5t-223 67.5q-55 0 -109 -9t-98 -25l-57 -22q-9 -3 -15 -3q-16 0 -24 25l-19 55
q-2 10 -2 13q0 21 24 29l58 25q114 47 267 47q140 0 245 -51zM700.5 189.5q71.5 78.5 74.5 250.5l-210 -5q-114 -3 -174.5 -12t-97 -40.5t-36.5 -98.5q0 -78 53.5 -125.5t175.5 -47.5q143 0 214.5 78.5z" />
    <glyph glyph-name="uni04E3" unicode="&#x4e3;" horiz-adv-x="1146" 
d="M129 0zM166.5 36.5q-37.5 36.5 -37.5 102.5v761q0 20 15.5 33t48.5 13h29q34 0 49.5 -12.5t15.5 -33.5v-731q0 -16 14 -16t22 16l347 641q29 54 52.5 82.5t52 41t70.5 12.5h28q68 0 106.5 -37t38.5 -102v-761q0 -21 -15.5 -33.5t-49.5 -12.5h-29q-64 0 -64 46v731
q0 16 -15 16q-14 0 -22 -16l-347 -641q-29 -54 -52.5 -82.5t-51.5 -41t-70 -12.5h-29q-69 0 -106.5 36.5zM284.5 1239q-11.5 13 -11.5 39v23q0 26 11.5 39t29.5 13h506q18 0 29.5 -13t11.5 -39v-23q0 -26 -11.5 -39t-29.5 -13h-506q-18 0 -29.5 13z" />
    <glyph glyph-name="uni04E9" unicode="&#x4e9;" horiz-adv-x="1093" 
d="M885.5 848.5q108.5 -117.5 108.5 -354.5v-42q0 -237 -108.5 -354.5t-340.5 -117.5q-231 0 -338.5 117.5t-107.5 354.5v42q0 237 107.5 354.5t338.5 117.5q232 0 340.5 -117.5zM387.5 804q-60.5 -30 -90.5 -96t-34 -175h566q-4 109 -34 175t-90.5 96t-158.5 30t-158.5 -30
zM704 142q60 30 90 94.5t35 172.5h-566q5 -108 35 -172.5t90 -94.5t158 -30t158 30z" />
    <glyph glyph-name="uni04EF" unicode="&#x4ef;" horiz-adv-x="984" 
d="M62 0zM925 915q0 -6 -3 -14l-350 -913q-67 -177 -166.5 -267t-235.5 -90h-67q-18 0 -29.5 13t-11.5 39v23q0 26 11.5 39t29.5 13h43q95 0 161 60.5t113 182.5l16 42l-350 858q-3 8 -3 15q0 14 13 22t39 8h46q63 0 80 -45l259 -660l240 660q17 45 80 45h32q53 0 53 -31z
M235.5 1239q-11.5 13 -11.5 39v23q0 26 11.5 39t29.5 13h506q18 0 29.5 -13t11.5 -39v-23q0 -26 -11.5 -39t-29.5 -13h-506q-18 0 -29.5 13z" />
    <glyph glyph-name="Alpha" unicode="&#x391;" horiz-adv-x="1392" 
d="M79 0zM1313 36q0 -36 -60 -36h-49q-37 0 -58.5 14t-28.5 37l-128 380h-593l-132 -380q-7 -23 -29.5 -37t-60.5 -14h-37q-30 0 -44 9.5t-14 25.5q0 7 3 16l458 1242q23 65 55 92.5t97 27.5h21q58 0 91.5 -28.5t55.5 -91.5l450 -1242q3 -7 3 -15zM942 570l-227 672
q-5 17 -18 17t-18 -17l-234 -672h497z" />
    <glyph glyph-name="Beta" unicode="&#x392;" horiz-adv-x="1263" 
d="M139 0zM1086.5 604q58.5 -83 58.5 -215q0 -188 -108 -288.5t-333 -100.5h-371q-101 0 -147.5 38.5t-46.5 112.5v1091q0 74 46.5 112.5t147.5 38.5h346q220 0 321 -88.5t101 -267.5q0 -232 -192 -312q119 -38 177.5 -121zM312 1218v-439h326q159 0 227.5 61t68.5 185
q0 83 -26 132.5t-86.5 73t-164.5 23.5h-298q-47 0 -47 -36zM899.5 200.5q66.5 62.5 66.5 192.5q0 129 -72.5 193.5t-238.5 64.5h-343v-477q0 -36 47 -36h316q158 0 224.5 62.5z" />
    <glyph glyph-name="Gamma" unicode="&#x393;" horiz-adv-x="1078" 
d="M156.5 14q-17.5 14 -17.5 36v1192q0 74 46.5 112.5t147.5 38.5h620q20 0 33 -14.5t13 -44.5v-24q0 -30 -13 -44t-33 -14h-596q-47 0 -47 -37v-1165q0 -50 -72 -50h-27q-37 0 -54.5 14z" />
    <glyph glyph-name="uni0394" unicode="&#x394;" horiz-adv-x="1386" 
d="M74 43q0 11 7 32l456 1208q23 64 55.5 92t97.5 28h21q58 0 91 -28.5t55 -90.5l442 -1211q8 -22 8 -36q0 -37 -56 -37h-1116q-61 0 -61 43zM1086 135l-373 1098q-5 16 -18 16q-14 0 -19 -16l-386 -1098h796z" />
    <glyph glyph-name="Epsilon" unicode="&#x395;" horiz-adv-x="1131" 
d="M139 0zM314 1213v-431h562q20 0 33 -14t13 -43v-26q0 -29 -13 -43.5t-33 -14.5h-562v-461q0 -37 47 -37h615q21 0 34 -14t13 -44v-26q0 -30 -13.5 -44.5t-33.5 -14.5h-643q-101 0 -147.5 38.5t-46.5 112.5v1091q0 74 46.5 112.5t147.5 38.5h643q20 0 33.5 -14.5
t13.5 -44.5v-26q0 -30 -13.5 -44.5t-33.5 -14.5h-615q-47 0 -47 -36z" />
    <glyph glyph-name="Zeta" unicode="&#x396;" horiz-adv-x="1201" 
d="M90 0zM120 27.5q-30 27.5 -30 78.5q0 35 11 62t40 66l742 983q7 8 7 18q0 17 -22 17h-723q-21 0 -34 14t-13 44v26q0 30 13 43.5t34 13.5h832q52 0 82.5 -28t30.5 -79q0 -35 -11 -62t-40 -65l-741 -984q-8 -11 -8 -19q0 -7 5 -11t15 -4h755q20 0 33 -14.5t13 -44.5v-26
q0 -28 -13 -42t-33 -14h-864q-51 0 -81 27.5z" />
    <glyph glyph-name="Eta" unicode="&#x397;" horiz-adv-x="1339" 
d="M139 0zM1200 1343v-1293q0 -50 -72 -50h-31q-37 0 -54.5 14t-17.5 36v594h-711v-594q0 -50 -72 -50h-31q-37 0 -54.5 14t-17.5 36v1293q0 22 17.5 36t54.5 14h31q72 0 72 -50v-559h711v559q0 22 17.5 36t54.5 14h31q72 0 72 -50z" />
    <glyph glyph-name="Theta" unicode="&#x398;" horiz-adv-x="1487" 
d="M118 0zM1217 1239q152 -174 152 -522v-41q0 -347 -151.5 -521.5t-473.5 -174.5t-474 174t-152 522v41q0 348 152 522t474 174q321 0 473 -174zM497 1214q-95 -52 -141.5 -159.5t-53.5 -277.5h883q-7 170 -53.5 277.5t-141.5 159.5t-246 52q-152 0 -247 -52zM994.5 182.5
q95.5 53.5 141 165t50.5 289.5h-885q5 -178 50.5 -289.5t141.5 -165t251 -53.5t250.5 53.5z" />
    <glyph glyph-name="Iota" unicode="&#x399;" horiz-adv-x="453" 
d="M139 0zM156.5 14q-17.5 14 -17.5 36v1293q0 22 17.5 36t54.5 14h33q37 0 53.5 -14t16.5 -36v-1293q0 -22 -16.5 -36t-53.5 -14h-33q-37 0 -54.5 14z" />
    <glyph glyph-name="Kappa" unicode="&#x39a;" horiz-adv-x="1262" 
d="M139 0zM314 1343v-1293q0 -50 -72 -50h-31q-37 0 -54.5 14t-17.5 36v1293q0 22 17.5 36t54.5 14h31q72 0 72 -50zM1153 20q0 -20 -43 -20h-83q-37 0 -65 13.5t-44 35.5l-518 600q-16 19 -16 41q0 23 16 42l519 610q17 23 44.5 37t63.5 14h79q44 0 44 -22q0 -11 -15 -29
l-576 -645l580 -648q14 -17 14 -29z" />
    <glyph glyph-name="Lambda" unicode="&#x39b;" horiz-adv-x="1387" 
d="M91 9.5q-14 9.5 -14 25.5q0 7 3 16l458 1222q23 65 55.5 92.5t97.5 27.5h20q58 0 91 -28.5t56 -91.5l450 -1222q3 -7 3 -15q0 -36 -60 -36h-48q-37 0 -59 14t-29 37l-402 1172q-5 16 -18 16t-18 -16l-415 -1172q-7 -23 -29.5 -37t-59.5 -14h-38q-30 0 -44 9.5z" />
    <glyph glyph-name="Mu" unicode="&#x39c;" horiz-adv-x="1631" 
d="M99 0zM1516.5 13q-16.5 -13 -50.5 -13h-35q-35 0 -49 12.5t-16 33.5l-79 1177q0 16 -15 16q-17 0 -22 -16l-312 -1117q-14 -58 -44 -82t-79 -24h-9q-49 0 -79 24t-44 82l-313 1117q-3 8 -9.5 12t-13.5 4q-14 0 -14 -16l-79 -1177q-2 -21 -16 -33.5t-48 -12.5h-27
q-33 0 -49.5 13t-14.5 33l81 1209q5 66 44 102.5t107 36.5h22q70 0 110 -29.5t60 -107.5l293 -1101l295 1107q32 131 167 131h26q68 0 104.5 -36t41.5 -103l81 -1209q2 -20 -14.5 -33z" />
    <glyph glyph-name="Nu" unicode="&#x39d;" horiz-adv-x="1342" 
d="M139 0zM154.5 13q-15.5 13 -15.5 33v1208q0 64 41.5 101.5t110.5 37.5h26q43 0 71.5 -12.5t51.5 -42t48 -82.5l524 -1087q8 -16 23 -16q14 0 14 16v1177q0 47 64 47h26q33 0 48.5 -13t15.5 -34v-1207q0 -65 -41 -102t-111 -37h-26q-42 0 -71 12.5t-52 41.5t-48 82
l-524 1088q-8 16 -23 16q-14 0 -14 -16v-1178q0 -46 -64 -46h-26q-33 0 -48.5 13z" />
    <glyph glyph-name="Xi" unicode="&#x39e;" horiz-adv-x="1131" 
d="M122 1263.5q-13 14.5 -13 44.5v26q0 30 13 44.5t33 14.5h821q20 0 33.5 -14.5t13.5 -44.5v-26q0 -30 -13.5 -44.5t-33.5 -14.5h-821q-20 0 -33 14.5zM222 661q-13 14 -13 44v26q0 29 13 43.5t33 14.5h621q20 0 33 -14.5t13 -43.5v-26q0 -30 -13 -44t-33 -14h-621
q-20 0 -33 14zM122 14.5q-13 14.5 -13 44.5v26q0 30 13 44t33 14h821q21 0 34 -14t13 -44v-26q0 -30 -13.5 -44.5t-33.5 -14.5h-821q-20 0 -33 14.5z" />
    <glyph glyph-name="Omicron" unicode="&#x39f;" horiz-adv-x="1487" 
d="M118 0zM270 154q-152 174 -152 522v41q0 348 152 522t474 174q321 0 473 -174t152 -522v-41q0 -347 -151.5 -521.5t-473.5 -174.5t-474 174zM1001 186.5q97 57.5 141 177.5t44 312v41q0 192 -44 312t-141 178.5t-257 58.5q-161 0 -258 -58.5t-141 -178.5t-44 -312v-41
q0 -192 44 -312t141 -177.5t258 -57.5q160 0 257 57.5z" />
    <glyph glyph-name="Pi" unicode="&#x3a0;" horiz-adv-x="1351" 
d="M139 50v1192q0 74 46.5 112.5t147.5 38.5h684q101 0 148 -38.5t47 -112.5v-1192q0 -22 -17 -36t-55 -14h-31q-37 0 -54.5 14t-17.5 36v1165q0 37 -47 37h-629q-25 0 -36 -9.5t-11 -27.5v-1165q0 -22 -17.5 -36t-54.5 -14h-31q-72 0 -72 50z" />
    <glyph glyph-name="Rho" unicode="&#x3a1;" horiz-adv-x="1225" 
d="M139 0zM936 1350q100 -43 145 -128t45 -214q0 -198 -110.5 -302.5t-341.5 -104.5h-360v-551q0 -50 -72 -50h-31q-37 0 -54.5 14t-17.5 36v1192q0 151 196 151h338q163 0 263 -43zM835 770q64 29 92 86.5t28 148.5q0 89 -27 142.5t-91.5 78.5t-178.5 25h-297
q-47 0 -47 -36v-474h350q107 0 171 29z" />
    <glyph glyph-name="Sigma" unicode="&#x3a3;" horiz-adv-x="1112" 
d="M1019 1264q-13 -14 -33 -14h-719l490 -527q14 -16 14 -33q0 -15 -14 -31l-491 -516h720q20 0 33 -14.5t13 -43.5v-26q0 -30 -13 -44.5t-33 -14.5h-843q-26 0 -40 14.5t-14 42.5v26q0 22 4.5 37t17.5 31l478 539l-480 552q-14 16 -17 29.5t-3 37.5v27q0 28 14 42.5
t40 14.5h843q20 0 33 -14.5t13 -44.5v-26q0 -30 -13 -44z" />
    <glyph glyph-name="Tau" unicode="&#x3a4;" horiz-adv-x="1244" 
d="M70 0zM536 50v1199h-420q-20 0 -33 14.5t-13 44.5v26q0 30 13 44.5t33 14.5h1012q20 0 33 -14.5t13 -44.5v-26q0 -30 -13 -44.5t-33 -14.5h-420v-1199q0 -22 -17 -36t-55 -14h-28q-72 0 -72 50z" />
    <glyph glyph-name="Upsilon" unicode="&#x3a5;" horiz-adv-x="1326" 
d="M1243 1378.5q13 -14.5 13 -44.5v-26q0 -30 -13 -44.5t-33 -14.5h-9q-123 0 -225.5 -85.5t-163.5 -247t-61 -381.5v-485q0 -22 -17 -36t-55 -14h-32q-38 0 -55 14t-17 36v485q0 220 -61 381.5t-163.5 247t-225.5 85.5h-9q-20 0 -33 14.5t-13 44.5v26q0 30 13 44.5t33 14.5
h19q126 0 238.5 -62t190.5 -171.5t106 -247.5q26 132 102.5 242.5t186.5 174.5t232 64h19q20 0 33 -14.5z" />
    <glyph glyph-name="Phi" unicode="&#x3a6;" horiz-adv-x="1706" 
d="M118 0zM1422 304.5q-166 -136.5 -483 -149.5v-105q0 -22 -17 -36t-55 -14h-32q-37 0 -54 14t-17 36v105q-316 14 -481 150.5t-165 391.5q0 253 162.5 391t483.5 151v104q0 22 17 36t54 14h32q38 0 55 -14t17 -36v-104q322 -13 485.5 -150.5t163.5 -391.5
q0 -256 -166 -392.5zM1208.5 338q105.5 42 157.5 127t52 220q0 139 -49.5 229t-155 137t-274.5 54v-816q164 7 269.5 49zM340.5 466q51.5 -85 156 -127.5t267.5 -49.5v816q-168 -8 -272.5 -55t-153.5 -137t-49 -228q0 -134 51.5 -219z" />
    <glyph glyph-name="Chi" unicode="&#x3a7;" horiz-adv-x="1338" 
d="M109 0zM1230 34q0 -15 -15.5 -24.5t-43.5 -9.5h-68q-34 0 -51.5 12t-33.5 36l-358 545l-358 -545q-14 -23 -32.5 -35.5t-53.5 -12.5h-48q-28 0 -43.5 9t-15.5 24q0 10 6 19l438 645l-435 644q-6 9 -6 18q0 14 16 24t43 10h70q35 0 52.5 -12.5t30.5 -35.5l351 -536
l351 536q14 23 32 35.5t52 12.5h51q28 0 43.5 -10t15.5 -24q0 -9 -6 -18l-435 -636l445 -653q6 -9 6 -18z" />
    <glyph glyph-name="Psi" unicode="&#x3a8;" horiz-adv-x="1548" 
d="M1465.5 1378.5q13.5 -14.5 13.5 -44.5v-26q0 -30 -13.5 -44.5t-33.5 -14.5h-8q-51 0 -81 -22t-48 -67.5t-35 -129.5l-46 -231q-32 -164 -115 -244.5t-239 -88.5v-426q0 -22 -17 -36t-55 -14h-29q-72 0 -72 50v426q-156 8 -239 88.5t-114 244.5l-44 231q-16 83 -34.5 129
t-49 68t-81.5 22h-9q-20 0 -33 14.5t-13 44.5v26q0 30 13 44.5t33 14.5h12q139 0 213 -79t100 -237l39 -236q15 -88 37 -137t62 -73.5t108 -28.5v741q0 50 72 50h29q38 0 55 -14t17 -36v-741q68 4 108 28.5t62.5 74t37.5 136.5l39 236q27 158 101 237t212 79h12
q20 0 33.5 -14.5z" />
    <glyph glyph-name="uni03A9" unicode="&#x3a9;" horiz-adv-x="1486" 
d="M131 14q-13 14 -13 42v25q0 28 13 42t32 14h200q-105 111 -175 249.5t-70 328.5v22q0 334 151 505t474 171t474 -171t151 -505v-22q0 -190 -70 -328.5t-175 -249.5h200q19 0 32 -14t13 -42v-25q0 -28 -13 -42t-32 -14h-384q-22 0 -34.5 11.5t-12.5 28.5q0 23 22 44
q112 103 190.5 250.5t78.5 376.5v22q0 185 -43 302t-139.5 174.5t-257.5 57.5t-257.5 -57.5t-139.5 -174.5t-43 -302v-22q0 -229 78.5 -376.5t191.5 -250.5q21 -18 21 -43q0 -17 -12.5 -29t-34.5 -12h-384q-19 0 -32 14z" />
    <glyph glyph-name="Alphatonos" unicode="&#x386;" horiz-adv-x="1394" 
d="M1315 36q0 -36 -60 -36h-49q-37 0 -58.5 14t-28.5 37l-128 380h-593l-132 -380q-7 -23 -29.5 -37t-60.5 -14h-37q-30 0 -44 9.5t-14 25.5q0 7 3 16l458 1242q23 65 55 92.5t97 27.5h21q58 0 91.5 -28.5t55.5 -91.5l450 -1242q3 -7 3 -15zM108 1062q-11 13 -11 36
q0 5 2 21l49 230q4 25 22.5 39.5t46.5 14.5h27q29 0 44 -13t15 -37q0 -11 -3 -23l-46 -189q-11 -46 -29 -69t-47 -23h-40q-19 0 -30 13zM944 570l-227 672q-5 17 -18 17t-18 -17l-234 -672h497z" />
    <glyph glyph-name="Epsilontonos" unicode="&#x388;" horiz-adv-x="1318" 
d="M230 1390q15 -13 15 -37q0 -11 -3 -23l-45 -189q-12 -47 -29.5 -69.5t-47.5 -22.5h-40q-19 0 -29.5 13t-10.5 35q0 6 2 22l49 230q3 25 22 39.5t46 14.5h28q28 0 43 -13zM500 1213v-431h562q20 0 33 -14t13 -43v-26q0 -29 -13 -43.5t-33 -14.5h-562v-461q0 -37 47 -37
h615q21 0 34 -14t13 -44v-26q0 -30 -13.5 -44.5t-33.5 -14.5h-643q-101 0 -147.5 38.5t-46.5 112.5v1091q0 74 46.5 112.5t147.5 38.5h643q20 0 33.5 -14.5t13.5 -44.5v-26q0 -30 -13.5 -44.5t-33.5 -14.5h-615q-47 0 -47 -36z" />
    <glyph glyph-name="Etatonos" unicode="&#x389;" horiz-adv-x="1543" 
d="M230 1390q15 -13 15 -37q0 -11 -3 -23l-45 -189q-12 -47 -29.5 -69.5t-47.5 -22.5h-40q-19 0 -29.5 13t-10.5 35q0 6 2 22l49 230q3 25 22 39.5t46 14.5h28q28 0 43 -13zM1404 1343v-1293q0 -50 -72 -50h-31q-37 0 -54.5 14t-17.5 36v594h-711v-594q0 -50 -72 -50h-31
q-37 0 -54.5 14t-17.5 36v1293q0 22 17.5 36t54.5 14h31q72 0 72 -50v-559h711v559q0 22 17.5 36t54.5 14h31q72 0 72 -50z" />
    <glyph glyph-name="Iotatonos" unicode="&#x38a;" horiz-adv-x="674" 
d="M50.5 1062q-10.5 13 -10.5 35q0 6 2 22l49 230q3 25 22 39.5t46 14.5h28q28 0 43 -13t15 -37q0 -11 -3 -23l-45 -189q-12 -47 -29.5 -69.5t-47.5 -22.5h-40q-19 0 -29.5 13zM375.5 14q-17.5 14 -17.5 36v1293q0 22 17.5 36t54.5 14h33q37 0 53.5 -14t16.5 -36v-1293
q0 -22 -16.5 -36t-53.5 -14h-33q-37 0 -54.5 14z" />
    <glyph glyph-name="Omicrontonos" unicode="&#x38c;" horiz-adv-x="1590" 
d="M373 154q-152 174 -152 522v41q0 348 152 522t474 174q321 0 473 -174t152 -522v-41q0 -347 -151.5 -521.5t-473.5 -174.5t-474 174zM50.5 1062q-10.5 13 -10.5 35q0 6 2 22l49 230q3 25 22 39.5t46 14.5h28q28 0 43 -13t15 -37q0 -11 -3 -23l-45 -189
q-12 -47 -29.5 -69.5t-47.5 -22.5h-40q-19 0 -29.5 13zM1104 186.5q97 57.5 141 177.5t44 312v41q0 192 -44 312t-141 178.5t-257 58.5q-161 0 -258 -58.5t-141 -178.5t-44 -312v-41q0 -192 44 -312t141 -177.5t258 -57.5q160 0 257 57.5z" />
    <glyph glyph-name="Upsilontonos" unicode="&#x38e;" horiz-adv-x="1566" 
d="M230 1390q15 -13 15 -37q0 -11 -3 -23l-45 -189q-12 -47 -29.5 -69.5t-47.5 -22.5h-40q-19 0 -29.5 13t-10.5 35q0 6 2 22l49 230q3 25 22 39.5t46 14.5h28q28 0 43 -13zM1483 1378.5q13 -14.5 13 -44.5v-26q0 -30 -13 -44.5t-33 -14.5h-9q-123 0 -225.5 -85.5
t-163.5 -247t-61 -381.5v-485q0 -22 -17 -36t-55 -14h-32q-38 0 -55 14t-17 36v485q0 220 -61 381.5t-163.5 247t-225.5 85.5h-9q-20 0 -33 14.5t-13 44.5v26q0 30 13 44.5t33 14.5h19q126 0 238.5 -62t190.5 -171.5t106 -247.5q26 132 102.5 242.5t186.5 174.5t232 64h19
q20 0 33 -14.5z" />
    <glyph glyph-name="Omegatonos" unicode="&#x38f;" horiz-adv-x="1595" 
d="M240 14q-13 14 -13 42v25q0 28 13 42t32 14h200q-105 111 -175 249.5t-70 328.5v22q0 334 151 505t474 171t474 -171t151 -505v-22q0 -190 -70 -328.5t-175 -249.5h200q19 0 32 -14t13 -42v-25q0 -28 -13 -42t-32 -14h-384q-22 0 -34.5 11.5t-12.5 28.5q0 23 22 44
q112 103 190.5 250.5t78.5 376.5v22q0 185 -43 302t-139.5 174.5t-257.5 57.5t-257.5 -57.5t-139.5 -174.5t-43 -302v-22q0 -229 78.5 -376.5t191.5 -250.5q21 -18 21 -43q0 -17 -12.5 -29t-34.5 -12h-384q-19 0 -32 14zM50.5 1062q-10.5 13 -10.5 35q0 6 2 22l49 230
q3 25 22 39.5t46 14.5h28q28 0 43 -13t15 -37q0 -11 -3 -23l-45 -189q-12 -47 -29.5 -69.5t-47.5 -22.5h-40q-19 0 -29.5 13z" />
    <glyph glyph-name="Iotadieresis" unicode="&#x3aa;" horiz-adv-x="453" 
d="M0 0zM156.5 14q-17.5 14 -17.5 36v1293q0 22 17.5 36t54.5 14h33q37 0 53.5 -14t16.5 -36v-1293q0 -22 -16.5 -36t-53.5 -14h-33q-37 0 -54.5 14zM9.5 1560q-26.5 26 -26.5 70q0 43 26.5 69t69.5 26t70 -26t27 -69q0 -44 -27 -70t-70 -26t-69.5 26zM311.5 1560
q-26.5 26 -26.5 70q0 43 26.5 69t69.5 26t70 -26t27 -69q0 -44 -27 -70t-70 -26t-69.5 26z" />
    <glyph glyph-name="Upsilondieresis" unicode="&#x3ab;" horiz-adv-x="1326" 
d="M70 0zM1243 1378.5q13 -14.5 13 -44.5v-26q0 -30 -13 -44.5t-33 -14.5h-9q-123 0 -225.5 -85.5t-163.5 -247t-61 -381.5v-485q0 -22 -17 -36t-55 -14h-32q-38 0 -55 14t-17 36v485q0 220 -61 381.5t-163.5 247t-225.5 85.5h-9q-20 0 -33 14.5t-13 44.5v26q0 30 13 44.5
t33 14.5h19q126 0 238.5 -62t190.5 -171.5t106 -247.5q26 132 102.5 242.5t186.5 174.5t232 64h19q20 0 33 -14.5zM448.5 1560q-26.5 26 -26.5 70q0 43 26.5 69t69.5 26t70 -26t27 -69q0 -44 -27 -70t-70 -26t-69.5 26zM750.5 1560q-26.5 26 -26.5 70q0 43 26.5 69t69.5 26
t70 -26t27 -69q0 -44 -27 -70t-70 -26t-69.5 26z" />
    <glyph glyph-name="alpha" unicode="&#x3b1;" horiz-adv-x="1224" 
d="M1143 45q2 -8 2 -12q0 -33 -54 -33h-21q-34 0 -54 12.5t-26 31.5l-62 203q-56 -128 -146.5 -197.5t-242.5 -69.5q-227 0 -333.5 122.5t-106.5 359.5v32q0 237 106.5 354.5t336.5 117.5q153 0 242 -67t145 -193l61 196q6 20 25.5 32t54.5 12h21q54 0 54 -33q0 -4 -2 -12
l-136 -424zM857 477l-19 63q-34 106 -60.5 161.5t-81 93.5t-150.5 38q-104 0 -166 -34t-90 -108t-28 -198v-31q0 -124 28.5 -200t90.5 -112.5t165 -36.5q95 0 150 40t81 96.5t61 166.5z" />
    <glyph glyph-name="beta" unicode="&#x3b2;" horiz-adv-x="1038" 
d="M645 608.5q29 -22.5 90 -50.5q67 -32 110 -61t74 -81t31 -131q0 -92 -49 -161.5t-134 -106.5t-188 -37q-193 0 -293 102v-405q0 -20 -15.5 -33t-47.5 -13h-31q-32 0 -47.5 13t-15.5 33v1247q0 138 65.5 249.5t182 175.5t263.5 64q100 0 170 -35.5t105 -98.5t35 -145
q0 -78 -30 -136.5t-72 -97t-107 -85.5q-65 -46 -95 -77.5t-30 -71.5q0 -35 29 -57.5zM730.5 152q60.5 40 60.5 129q0 50 -22.5 84.5t-54.5 55.5t-87 48q-55 26 -87.5 47.5t-55 55.5t-22.5 84q0 49 21.5 88.5t53.5 68.5t85 69q55 41 88 71.5t56 72.5t23 96q0 74 -42.5 115.5
t-123.5 41.5q-93 0 -170 -44t-122 -126.5t-45 -193.5v-538q0 -134 66 -199.5t213 -65.5q105 0 165.5 40z" />
    <glyph glyph-name="gamma" unicode="&#x3b3;" horiz-adv-x="1058" 
d="M991 901q-112 -141 -220 -320.5t-173 -353.5q39 -161 39 -310q0 -113 -22.5 -209.5t-72.5 -96.5h-25q-50 0 -72.5 96.5t-22.5 209.5q0 152 41 307q-65 176 -174.5 356t-221.5 321q-7 8 -7 17q0 12 14 20t38 8h55q35 0 54.5 -12t35.5 -33q76 -96 148.5 -216t126.5 -256
q56 134 130 254t152 218q16 22 35 33.5t55 11.5h42q24 0 38 -8t14 -20q0 -9 -7 -17z" />
    <glyph glyph-name="delta" unicode="&#x3b4;" horiz-adv-x="1113" 
d="M396.5 1068q29.5 -32 74.5 -54t125 -52q129 -48 212.5 -96t144.5 -141.5t61 -243.5v-41q0 -229 -110.5 -344.5t-347.5 -115.5q-238 0 -347.5 117.5t-109.5 354.5v42q0 168 78.5 268.5t185.5 151.5q-75 39 -116 93.5t-41 139.5q0 80 39.5 140t119 93t194.5 33
q86 0 156.5 -13t142.5 -42l64 -26q24 -11 24 -31q0 -5 -2 -15l-14 -56q-8 -29 -27 -29q-3 0 -17 4l-63 26q-127 50 -259 50q-108 0 -152.5 -31.5t-44.5 -103.5q0 -46 29.5 -78zM849 481q0 112 -46 182.5t-113.5 108.5t-176.5 80q-103 -47 -176.5 -133.5t-73.5 -225.5v-41
q0 -125 28.5 -198.5t92.5 -107.5t172 -34t172 33t92.5 104.5t28.5 190.5v41z" />
    <glyph glyph-name="epsilon" unicode="&#x3b5;" horiz-adv-x="983" 
d="M884 93q0 -21 -24 -30l-65 -27q-141 -57 -314 -57q-122 0 -205.5 36t-125 100t-41.5 149q0 87 40 143.5t121 83.5q-65 29 -98 83.5t-33 125.5q0 79 39.5 139t119 93.5t195.5 33.5q87 0 157.5 -13t140.5 -42l64 -26q14 -6 19.5 -13t5.5 -18q0 -3 -2 -15l-15 -55
q-8 -29 -27 -29q-7 0 -16 3l-64 26q-125 50 -259 50q-107 0 -153.5 -34.5t-46.5 -101.5q0 -73 37 -108t120 -35h229q17 0 29 -12.5t12 -37.5v-29q0 -25 -12 -37.5t-29 -12.5h-254q-84 0 -120.5 -39.5t-36.5 -114.5q0 -81 48 -120.5t166 -39.5q68 0 142 14.5t132 37.5l64 26
q9 3 16 3q19 0 27 -29l15 -55q2 -12 2 -16z" />
    <glyph glyph-name="zeta" unicode="&#x3b6;" horiz-adv-x="926" 
d="M829 84.5q76 -52.5 76 -171.5q0 -83 -36.5 -143.5t-100.5 -92t-145 -31.5q-85 0 -162 17q-18 5 -26 15.5t-8 31.5v43q0 23 10.5 33t27.5 7q74 -16 136 -16q74 0 114.5 34.5t40.5 88.5q0 57 -36 78.5t-117 21.5h-59q-445 0 -445 465v38q0 181 73 350t194 301h-34
q-102 0 -199 28q-18 5 -26 15.5t-8 30.5v50q0 20 8 31t20 11q4 0 10 -2q47 -12 91 -19.5t100 -7.5q104 0 214 17q76 51 151.5 78t143.5 27q27 0 42 -15t15 -41v-32q0 -24 -11.5 -42.5t-38.5 -32.5q-32 -17 -89.5 -34.5t-129.5 -31.5q-98 -66 -181 -170.5t-132.5 -236.5
t-49.5 -275v-37q0 -173 77 -250.5t222 -77.5h49q143 0 219 -52.5z" />
    </font>
</defs>
</svg>
